<?xml version="1.0" encoding="utf-8" standalone="no"?>
<!DOCTYPE svg PUBLIC "-//W3C//DTD SVG 1.1//EN"
  "http://www.w3.org/Graphics/SVG/1.1/DTD/svg11.dtd">
<svg xmlns:xlink="http://www.w3.org/1999/xlink" width="460.8pt" height="345.6pt" viewBox="0 0 460.8 345.6" xmlns="http://www.w3.org/2000/svg" version="1.1">
 <metadata>
  <rdf:RDF xmlns:dc="http://purl.org/dc/elements/1.1/" xmlns:cc="http://creativecommons.org/ns#" xmlns:rdf="http://www.w3.org/1999/02/22-rdf-syntax-ns#">
   <cc:Work>
    <dc:type rdf:resource="http://purl.org/dc/dcmitype/StillImage"/>
    <dc:format>image/svg+xml</dc:format>
    <dc:creator>
     <cc:Agent>
      <dc:title>Matplotlib v3.8.4, https://matplotlib.org/</dc:title>
     </cc:Agent>
    </dc:creator>
   </cc:Work>
  </rdf:RDF>
 </metadata>
 <defs>
  <style type="text/css">*{stroke-linejoin: round; stroke-linecap: butt}</style>
 </defs>
 <g id="figure_1">
  <g id="patch_1">
   <path d="M 0 345.6 
L 460.8 345.6 
L 460.8 0 
L 0 0 
z
" style="fill: #ffffff"/>
  </g>
  <g id="axes_1">
   <g id="patch_2">
    <path d="M 55.296 303.64 
L 225.881755 303.64 
L 225.881755 14.76 
L 55.296 14.76 
z
" style="fill: #ffffff"/>
   </g>
   <g id="matplotlib.axis_1">
    <g id="xtick_1">
     <g id="line2d_1">
      <defs>
       <path id="mbcb02aef95" d="M 0 0 
L 0 3.5 
" style="stroke: #000000; stroke-width: 0.8"/>
      </defs>
      <g>
       <use xlink:href="#mbcb02aef95" x="55.296" y="303.64" style="stroke: #000000; stroke-width: 0.8"/>
      </g>
     </g>
     <g id="text_1">
      <!-- 0.0 -->
      <g transform="translate(47.344437 318.238437) scale(0.1 -0.1)">
       <defs>
        <path id="DejaVuSans-30" d="M 2034 4250 
Q 1547 4250 1301 3770 
Q 1056 3291 1056 2328 
Q 1056 1369 1301 889 
Q 1547 409 2034 409 
Q 2525 409 2770 889 
Q 3016 1369 3016 2328 
Q 3016 3291 2770 3770 
Q 2525 4250 2034 4250 
z
M 2034 4750 
Q 2819 4750 3233 4129 
Q 3647 3509 3647 2328 
Q 3647 1150 3233 529 
Q 2819 -91 2034 -91 
Q 1250 -91 836 529 
Q 422 1150 422 2328 
Q 422 3509 836 4129 
Q 1250 4750 2034 4750 
z
" transform="scale(0.015625)"/>
        <path id="DejaVuSans-2e" d="M 684 794 
L 1344 794 
L 1344 0 
L 684 0 
L 684 794 
z
" transform="scale(0.015625)"/>
       </defs>
       <use xlink:href="#DejaVuSans-30"/>
       <use xlink:href="#DejaVuSans-2e" x="63.623047"/>
       <use xlink:href="#DejaVuSans-30" x="95.410156"/>
      </g>
     </g>
    </g>
    <g id="xtick_2">
     <g id="line2d_2">
      <g>
       <use xlink:href="#mbcb02aef95" x="89.413151" y="303.64" style="stroke: #000000; stroke-width: 0.8"/>
      </g>
     </g>
     <g id="text_2">
      <!-- 0.2 -->
      <g transform="translate(81.461588 318.238437) scale(0.1 -0.1)">
       <defs>
        <path id="DejaVuSans-32" d="M 1228 531 
L 3431 531 
L 3431 0 
L 469 0 
L 469 531 
Q 828 903 1448 1529 
Q 2069 2156 2228 2338 
Q 2531 2678 2651 2914 
Q 2772 3150 2772 3378 
Q 2772 3750 2511 3984 
Q 2250 4219 1831 4219 
Q 1534 4219 1204 4116 
Q 875 4013 500 3803 
L 500 4441 
Q 881 4594 1212 4672 
Q 1544 4750 1819 4750 
Q 2544 4750 2975 4387 
Q 3406 4025 3406 3419 
Q 3406 3131 3298 2873 
Q 3191 2616 2906 2266 
Q 2828 2175 2409 1742 
Q 1991 1309 1228 531 
z
" transform="scale(0.015625)"/>
       </defs>
       <use xlink:href="#DejaVuSans-30"/>
       <use xlink:href="#DejaVuSans-2e" x="63.623047"/>
       <use xlink:href="#DejaVuSans-32" x="95.410156"/>
      </g>
     </g>
    </g>
    <g id="xtick_3">
     <g id="line2d_3">
      <g>
       <use xlink:href="#mbcb02aef95" x="123.530302" y="303.64" style="stroke: #000000; stroke-width: 0.8"/>
      </g>
     </g>
     <g id="text_3">
      <!-- 0.4 -->
      <g transform="translate(115.578739 318.238437) scale(0.1 -0.1)">
       <defs>
        <path id="DejaVuSans-34" d="M 2419 4116 
L 825 1625 
L 2419 1625 
L 2419 4116 
z
M 2253 4666 
L 3047 4666 
L 3047 1625 
L 3713 1625 
L 3713 1100 
L 3047 1100 
L 3047 0 
L 2419 0 
L 2419 1100 
L 313 1100 
L 313 1709 
L 2253 4666 
z
" transform="scale(0.015625)"/>
       </defs>
       <use xlink:href="#DejaVuSans-30"/>
       <use xlink:href="#DejaVuSans-2e" x="63.623047"/>
       <use xlink:href="#DejaVuSans-34" x="95.410156"/>
      </g>
     </g>
    </g>
    <g id="xtick_4">
     <g id="line2d_4">
      <g>
       <use xlink:href="#mbcb02aef95" x="157.647453" y="303.64" style="stroke: #000000; stroke-width: 0.8"/>
      </g>
     </g>
     <g id="text_4">
      <!-- 0.6 -->
      <g transform="translate(149.69589 318.238437) scale(0.1 -0.1)">
       <defs>
        <path id="DejaVuSans-36" d="M 2113 2584 
Q 1688 2584 1439 2293 
Q 1191 2003 1191 1497 
Q 1191 994 1439 701 
Q 1688 409 2113 409 
Q 2538 409 2786 701 
Q 3034 994 3034 1497 
Q 3034 2003 2786 2293 
Q 2538 2584 2113 2584 
z
M 3366 4563 
L 3366 3988 
Q 3128 4100 2886 4159 
Q 2644 4219 2406 4219 
Q 1781 4219 1451 3797 
Q 1122 3375 1075 2522 
Q 1259 2794 1537 2939 
Q 1816 3084 2150 3084 
Q 2853 3084 3261 2657 
Q 3669 2231 3669 1497 
Q 3669 778 3244 343 
Q 2819 -91 2113 -91 
Q 1303 -91 875 529 
Q 447 1150 447 2328 
Q 447 3434 972 4092 
Q 1497 4750 2381 4750 
Q 2619 4750 2861 4703 
Q 3103 4656 3366 4563 
z
" transform="scale(0.015625)"/>
       </defs>
       <use xlink:href="#DejaVuSans-30"/>
       <use xlink:href="#DejaVuSans-2e" x="63.623047"/>
       <use xlink:href="#DejaVuSans-36" x="95.410156"/>
      </g>
     </g>
    </g>
    <g id="xtick_5">
     <g id="line2d_5">
      <g>
       <use xlink:href="#mbcb02aef95" x="191.764604" y="303.64" style="stroke: #000000; stroke-width: 0.8"/>
      </g>
     </g>
     <g id="text_5">
      <!-- 0.8 -->
      <g transform="translate(183.813041 318.238437) scale(0.1 -0.1)">
       <defs>
        <path id="DejaVuSans-38" d="M 2034 2216 
Q 1584 2216 1326 1975 
Q 1069 1734 1069 1313 
Q 1069 891 1326 650 
Q 1584 409 2034 409 
Q 2484 409 2743 651 
Q 3003 894 3003 1313 
Q 3003 1734 2745 1975 
Q 2488 2216 2034 2216 
z
M 1403 2484 
Q 997 2584 770 2862 
Q 544 3141 544 3541 
Q 544 4100 942 4425 
Q 1341 4750 2034 4750 
Q 2731 4750 3128 4425 
Q 3525 4100 3525 3541 
Q 3525 3141 3298 2862 
Q 3072 2584 2669 2484 
Q 3125 2378 3379 2068 
Q 3634 1759 3634 1313 
Q 3634 634 3220 271 
Q 2806 -91 2034 -91 
Q 1263 -91 848 271 
Q 434 634 434 1313 
Q 434 1759 690 2068 
Q 947 2378 1403 2484 
z
M 1172 3481 
Q 1172 3119 1398 2916 
Q 1625 2713 2034 2713 
Q 2441 2713 2670 2916 
Q 2900 3119 2900 3481 
Q 2900 3844 2670 4047 
Q 2441 4250 2034 4250 
Q 1625 4250 1398 4047 
Q 1172 3844 1172 3481 
z
" transform="scale(0.015625)"/>
       </defs>
       <use xlink:href="#DejaVuSans-30"/>
       <use xlink:href="#DejaVuSans-2e" x="63.623047"/>
       <use xlink:href="#DejaVuSans-38" x="95.410156"/>
      </g>
     </g>
    </g>
    <g id="xtick_6">
     <g id="line2d_6">
      <g>
       <use xlink:href="#mbcb02aef95" x="225.881755" y="303.64" style="stroke: #000000; stroke-width: 0.8"/>
      </g>
     </g>
     <g id="text_6">
      <!-- 1.0 -->
      <g transform="translate(217.930192 318.238437) scale(0.1 -0.1)">
       <defs>
        <path id="DejaVuSans-31" d="M 794 531 
L 1825 531 
L 1825 4091 
L 703 3866 
L 703 4441 
L 1819 4666 
L 2450 4666 
L 2450 531 
L 3481 531 
L 3481 0 
L 794 0 
L 794 531 
z
" transform="scale(0.015625)"/>
       </defs>
       <use xlink:href="#DejaVuSans-31"/>
       <use xlink:href="#DejaVuSans-2e" x="63.623047"/>
       <use xlink:href="#DejaVuSans-30" x="95.410156"/>
      </g>
     </g>
    </g>
    <g id="text_7">
     <!-- Time -->
     <g transform="translate(128.355284 331.916562) scale(0.1 -0.1)">
      <defs>
       <path id="DejaVuSans-54" d="M -19 4666 
L 3928 4666 
L 3928 4134 
L 2272 4134 
L 2272 0 
L 1638 0 
L 1638 4134 
L -19 4134 
L -19 4666 
z
" transform="scale(0.015625)"/>
       <path id="DejaVuSans-69" d="M 603 3500 
L 1178 3500 
L 1178 0 
L 603 0 
L 603 3500 
z
M 603 4863 
L 1178 4863 
L 1178 4134 
L 603 4134 
L 603 4863 
z
" transform="scale(0.015625)"/>
       <path id="DejaVuSans-6d" d="M 3328 2828 
Q 3544 3216 3844 3400 
Q 4144 3584 4550 3584 
Q 5097 3584 5394 3201 
Q 5691 2819 5691 2113 
L 5691 0 
L 5113 0 
L 5113 2094 
Q 5113 2597 4934 2840 
Q 4756 3084 4391 3084 
Q 3944 3084 3684 2787 
Q 3425 2491 3425 1978 
L 3425 0 
L 2847 0 
L 2847 2094 
Q 2847 2600 2669 2842 
Q 2491 3084 2119 3084 
Q 1678 3084 1418 2786 
Q 1159 2488 1159 1978 
L 1159 0 
L 581 0 
L 581 3500 
L 1159 3500 
L 1159 2956 
Q 1356 3278 1631 3431 
Q 1906 3584 2284 3584 
Q 2666 3584 2933 3390 
Q 3200 3197 3328 2828 
z
" transform="scale(0.015625)"/>
       <path id="DejaVuSans-65" d="M 3597 1894 
L 3597 1613 
L 953 1613 
Q 991 1019 1311 708 
Q 1631 397 2203 397 
Q 2534 397 2845 478 
Q 3156 559 3463 722 
L 3463 178 
Q 3153 47 2828 -22 
Q 2503 -91 2169 -91 
Q 1331 -91 842 396 
Q 353 884 353 1716 
Q 353 2575 817 3079 
Q 1281 3584 2069 3584 
Q 2775 3584 3186 3129 
Q 3597 2675 3597 1894 
z
M 3022 2063 
Q 3016 2534 2758 2815 
Q 2500 3097 2075 3097 
Q 1594 3097 1305 2825 
Q 1016 2553 972 2059 
L 3022 2063 
z
" transform="scale(0.015625)"/>
      </defs>
      <use xlink:href="#DejaVuSans-54"/>
      <use xlink:href="#DejaVuSans-69" x="57.958984"/>
      <use xlink:href="#DejaVuSans-6d" x="85.742188"/>
      <use xlink:href="#DejaVuSans-65" x="183.154297"/>
     </g>
    </g>
   </g>
   <g id="matplotlib.axis_2">
    <g id="ytick_1">
     <g id="line2d_7">
      <defs>
       <path id="me5179b328b" d="M 0 0 
L -3.5 0 
" style="stroke: #000000; stroke-width: 0.8"/>
      </defs>
      <g>
       <use xlink:href="#me5179b328b" x="55.296" y="259.202624" style="stroke: #000000; stroke-width: 0.8"/>
      </g>
     </g>
     <g id="text_8">
      <!-- −4 -->
      <g transform="translate(33.553812 263.001843) scale(0.1 -0.1)">
       <defs>
        <path id="DejaVuSans-2212" d="M 678 2272 
L 4684 2272 
L 4684 1741 
L 678 1741 
L 678 2272 
z
" transform="scale(0.015625)"/>
       </defs>
       <use xlink:href="#DejaVuSans-2212"/>
       <use xlink:href="#DejaVuSans-34" x="83.789062"/>
      </g>
     </g>
    </g>
    <g id="ytick_2">
     <g id="line2d_8">
      <g>
       <use xlink:href="#me5179b328b" x="55.296" y="212.53068" style="stroke: #000000; stroke-width: 0.8"/>
      </g>
     </g>
     <g id="text_9">
      <!-- −2 -->
      <g transform="translate(33.553812 216.329898) scale(0.1 -0.1)">
       <use xlink:href="#DejaVuSans-2212"/>
       <use xlink:href="#DejaVuSans-32" x="83.789062"/>
      </g>
     </g>
    </g>
    <g id="ytick_3">
     <g id="line2d_9">
      <g>
       <use xlink:href="#me5179b328b" x="55.296" y="165.858735" style="stroke: #000000; stroke-width: 0.8"/>
      </g>
     </g>
     <g id="text_10">
      <!-- 0 -->
      <g transform="translate(41.9335 169.657954) scale(0.1 -0.1)">
       <use xlink:href="#DejaVuSans-30"/>
      </g>
     </g>
    </g>
    <g id="ytick_4">
     <g id="line2d_10">
      <g>
       <use xlink:href="#me5179b328b" x="55.296" y="119.186791" style="stroke: #000000; stroke-width: 0.8"/>
      </g>
     </g>
     <g id="text_11">
      <!-- 2 -->
      <g transform="translate(41.9335 122.98601) scale(0.1 -0.1)">
       <use xlink:href="#DejaVuSans-32"/>
      </g>
     </g>
    </g>
    <g id="ytick_5">
     <g id="line2d_11">
      <g>
       <use xlink:href="#me5179b328b" x="55.296" y="72.514846" style="stroke: #000000; stroke-width: 0.8"/>
      </g>
     </g>
     <g id="text_12">
      <!-- 4 -->
      <g transform="translate(41.9335 76.314065) scale(0.1 -0.1)">
       <use xlink:href="#DejaVuSans-34"/>
      </g>
     </g>
    </g>
    <g id="ytick_6">
     <g id="line2d_12">
      <g>
       <use xlink:href="#me5179b328b" x="55.296" y="25.842902" style="stroke: #000000; stroke-width: 0.8"/>
      </g>
     </g>
     <g id="text_13">
      <!-- 6 -->
      <g transform="translate(41.9335 29.642121) scale(0.1 -0.1)">
       <use xlink:href="#DejaVuSans-36"/>
      </g>
     </g>
    </g>
    <g id="text_14">
     <!-- Amplitude -->
     <g transform="translate(27.474125 184.822656) rotate(-90) scale(0.1 -0.1)">
      <defs>
       <path id="DejaVuSans-41" d="M 2188 4044 
L 1331 1722 
L 3047 1722 
L 2188 4044 
z
M 1831 4666 
L 2547 4666 
L 4325 0 
L 3669 0 
L 3244 1197 
L 1141 1197 
L 716 0 
L 50 0 
L 1831 4666 
z
" transform="scale(0.015625)"/>
       <path id="DejaVuSans-70" d="M 1159 525 
L 1159 -1331 
L 581 -1331 
L 581 3500 
L 1159 3500 
L 1159 2969 
Q 1341 3281 1617 3432 
Q 1894 3584 2278 3584 
Q 2916 3584 3314 3078 
Q 3713 2572 3713 1747 
Q 3713 922 3314 415 
Q 2916 -91 2278 -91 
Q 1894 -91 1617 61 
Q 1341 213 1159 525 
z
M 3116 1747 
Q 3116 2381 2855 2742 
Q 2594 3103 2138 3103 
Q 1681 3103 1420 2742 
Q 1159 2381 1159 1747 
Q 1159 1113 1420 752 
Q 1681 391 2138 391 
Q 2594 391 2855 752 
Q 3116 1113 3116 1747 
z
" transform="scale(0.015625)"/>
       <path id="DejaVuSans-6c" d="M 603 4863 
L 1178 4863 
L 1178 0 
L 603 0 
L 603 4863 
z
" transform="scale(0.015625)"/>
       <path id="DejaVuSans-74" d="M 1172 4494 
L 1172 3500 
L 2356 3500 
L 2356 3053 
L 1172 3053 
L 1172 1153 
Q 1172 725 1289 603 
Q 1406 481 1766 481 
L 2356 481 
L 2356 0 
L 1766 0 
Q 1100 0 847 248 
Q 594 497 594 1153 
L 594 3053 
L 172 3053 
L 172 3500 
L 594 3500 
L 594 4494 
L 1172 4494 
z
" transform="scale(0.015625)"/>
       <path id="DejaVuSans-75" d="M 544 1381 
L 544 3500 
L 1119 3500 
L 1119 1403 
Q 1119 906 1312 657 
Q 1506 409 1894 409 
Q 2359 409 2629 706 
Q 2900 1003 2900 1516 
L 2900 3500 
L 3475 3500 
L 3475 0 
L 2900 0 
L 2900 538 
Q 2691 219 2414 64 
Q 2138 -91 1772 -91 
Q 1169 -91 856 284 
Q 544 659 544 1381 
z
M 1991 3584 
L 1991 3584 
z
" transform="scale(0.015625)"/>
       <path id="DejaVuSans-64" d="M 2906 2969 
L 2906 4863 
L 3481 4863 
L 3481 0 
L 2906 0 
L 2906 525 
Q 2725 213 2448 61 
Q 2172 -91 1784 -91 
Q 1150 -91 751 415 
Q 353 922 353 1747 
Q 353 2572 751 3078 
Q 1150 3584 1784 3584 
Q 2172 3584 2448 3432 
Q 2725 3281 2906 2969 
z
M 947 1747 
Q 947 1113 1208 752 
Q 1469 391 1925 391 
Q 2381 391 2643 752 
Q 2906 1113 2906 1747 
Q 2906 2381 2643 2742 
Q 2381 3103 1925 3103 
Q 1469 3103 1208 2742 
Q 947 2381 947 1747 
z
" transform="scale(0.015625)"/>
      </defs>
      <use xlink:href="#DejaVuSans-41"/>
      <use xlink:href="#DejaVuSans-6d" x="68.408203"/>
      <use xlink:href="#DejaVuSans-70" x="165.820312"/>
      <use xlink:href="#DejaVuSans-6c" x="229.296875"/>
      <use xlink:href="#DejaVuSans-69" x="257.080078"/>
      <use xlink:href="#DejaVuSans-74" x="284.863281"/>
      <use xlink:href="#DejaVuSans-75" x="324.072266"/>
      <use xlink:href="#DejaVuSans-64" x="387.451172"/>
      <use xlink:href="#DejaVuSans-65" x="450.927734"/>
     </g>
    </g>
   </g>
   <g id="line2d_13">
    <path d="M 55.296 165.858735 
L 225.881755 165.858735 
" clip-path="url(#pa31a25ac5f)" style="fill: none; stroke: #000000; stroke-width: 1.5; stroke-linecap: square"/>
   </g>
   <g id="line2d_14">
    <path d="M 55.296 165.340551 
L 56.114975 119.375764 
L 56.592711 102.747895 
L 56.933951 96.806474 
L 57.172819 95.596317 
L 57.241067 95.672646 
L 57.377563 96.351527 
L 57.61643 99.073431 
L 57.991794 106.45866 
L 59.390877 137.173278 
L 59.629745 138.374237 
L 59.697993 138.352123 
L 59.834489 137.798553 
L 60.039233 135.67233 
L 60.346348 129.603824 
L 60.78996 115.39404 
L 61.574812 80.952578 
L 62.359663 49.83857 
L 62.769151 40.840816 
L 63.008019 38.860938 
L 63.076266 38.774289 
L 63.11039 38.812324 
L 63.212762 39.253445 
L 63.417506 41.604706 
L 63.724622 48.690115 
L 64.13411 64.027694 
L 64.816589 99.452889 
L 65.874432 152.826688 
L 66.352168 166.422068 
L 66.659284 170.092891 
L 66.79578 170.410704 
L 66.829904 170.366186 
L 66.9664 169.705333 
L 67.171144 167.334484 
L 67.512383 160.167321 
L 68.058367 143.029461 
L 69.047962 112.231907 
L 69.423326 106.559963 
L 69.62807 105.665328 
L 69.696318 105.738454 
L 69.832814 106.452715 
L 70.037558 108.94337 
L 70.344673 115.753401 
L 70.788285 131.207227 
L 71.675508 172.403516 
L 72.392112 201.025019 
L 72.8016 210.335452 
L 73.074591 212.835382 
L 73.176963 212.974621 
L 73.211087 212.924654 
L 73.347583 212.249756 
L 73.552327 209.860548 
L 73.893567 202.578398 
L 74.405426 185.999295 
L 75.531518 148.265202 
L 75.906881 142.456887 
L 76.111625 141.681132 
L 76.213997 141.979959 
L 76.384617 143.520803 
L 76.657609 148.691396 
L 77.032973 160.91974 
L 77.578956 187.104465 
L 79.148659 267.662932 
L 79.558147 277.552554 
L 79.831139 280.051387 
L 79.899387 280.15805 
L 79.93351 280.134876 
L 80.035882 279.764136 
L 80.240626 277.716729 
L 80.547742 271.694239 
L 81.025478 256.993992 
L 82.390437 211.989562 
L 82.731677 207.243875 
L 82.93642 206.403601 
L 83.004668 206.467367 
L 83.141164 207.106303 
L 83.380032 209.809013 
L 83.721272 216.799457 
L 84.301379 234.461267 
L 85.222727 262.1717 
L 85.59809 267.618309 
L 85.76871 268.282271 
L 85.802834 268.265475 
L 85.905206 267.905642 
L 86.075826 266.250859 
L 86.348818 260.813114 
L 86.724182 247.888529 
L 87.236041 221.617686 
L 89.249356 107.904232 
L 89.62472 100.016327 
L 89.863587 98.30102 
L 89.931835 98.267695 
L 89.965959 98.324524 
L 90.102455 99.025454 
L 90.341323 101.942988 
L 90.716687 110.081305 
L 91.60391 136.554104 
L 92.149894 148.854895 
L 92.45701 151.991225 
L 92.593505 152.30954 
L 92.627629 152.280444 
L 92.730001 151.928594 
L 92.934745 150.029773 
L 93.241861 144.273135 
L 93.685473 130.572547 
L 94.504448 96.108314 
L 95.221052 69.589754 
L 95.630539 61.224522 
L 95.869407 59.471587 
L 95.937655 59.424961 
L 95.971779 59.478419 
L 96.108275 60.204735 
L 96.313019 62.815933 
L 96.620135 69.984051 
L 97.063746 86.166899 
L 98.087466 135.067349 
L 98.701697 158.398344 
L 99.077061 166.217422 
L 99.315929 168.073674 
L 99.384177 168.140808 
L 99.418301 168.097106 
L 99.554797 167.411259 
L 99.75954 164.887622 
L 100.066656 157.996538 
L 100.544392 141.396707 
L 102.079971 83.447492 
L 102.421211 78.763162 
L 102.59183 78.259536 
L 102.694202 78.564539 
L 102.864822 80.081248 
L 103.137814 85.042046 
L 103.547302 97.669843 
L 104.195657 126.139668 
L 105.219377 170.301468 
L 105.662988 181.24405 
L 105.970104 184.493425 
L 106.1066 184.760403 
L 106.140724 184.715923 
L 106.27722 184.105125 
L 106.516088 181.461887 
L 106.857327 174.716352 
L 107.505683 156.314777 
L 108.222286 137.987434 
L 108.563526 133.806295 
L 108.734146 133.335262 
L 108.836518 133.626476 
L 109.007138 135.111105 
L 109.28013 140.146316 
L 109.655493 152.300452 
L 110.167353 177.226224 
L 112.146544 282.922375 
L 112.487783 289.297255 
L 112.692527 290.498631 
L 112.760775 290.466175 
L 112.897271 289.770197 
L 113.102015 287.221676 
L 113.443255 279.423199 
L 113.989238 260.394911 
L 115.149453 218.71703 
L 115.558941 211.39298 
L 115.797809 209.878763 
L 115.866057 209.832002 
L 115.900181 209.872504 
L 116.036677 210.454163 
L 116.241421 212.538084 
L 116.58266 218.877185 
L 117.128644 234.130706 
L 118.049991 259.579515 
L 118.391231 264.127036 
L 118.561851 264.789857 
L 118.595975 264.780826 
L 118.698347 264.46021 
L 118.868967 262.923493 
L 119.141959 257.809178 
L 119.517322 245.588843 
L 120.029182 220.724937 
L 121.940125 118.961694 
L 122.315488 111.497285 
L 122.554356 110.103658 
L 122.622604 110.177911 
L 122.7591 110.933667 
L 122.997968 114.089771 
L 123.339208 122.081314 
L 123.953439 142.961548 
L 124.840663 171.821189 
L 125.216026 178.177953 
L 125.454894 179.492918 
L 125.523142 179.449581 
L 125.659638 178.795095 
L 125.864382 176.402909 
L 126.171498 169.789808 
L 126.615109 154.809178 
L 128.491928 83.79279 
L 128.76492 80.962618 
L 128.901416 80.700414 
L 129.003788 81.010064 
L 129.174408 82.472516 
L 129.447399 87.139703 
L 129.856887 98.699337 
L 130.675862 130.247608 
L 131.358342 152.568367 
L 131.733706 158.929957 
L 131.93845 160.039188 
L 132.006697 160.013392 
L 132.143193 159.358853 
L 132.347937 156.874447 
L 132.655053 149.903295 
L 133.098665 133.922606 
L 133.985888 91.190172 
L 134.702492 61.76726 
L 135.111979 52.605561 
L 135.350847 50.644627 
L 135.419095 50.568884 
L 135.453219 50.612435 
L 135.589715 51.328186 
L 135.794459 54.001463 
L 136.101575 61.403052 
L 136.545186 78.127625 
L 137.500658 125.601057 
L 138.217261 155.316484 
L 138.660873 165.656629 
L 138.967989 168.466208 
L 139.07036 168.620318 
L 139.104484 168.588134 
L 139.24098 168.057647 
L 139.479848 165.701787 
L 139.855212 159.06372 
L 141.186047 132.318887 
L 141.390791 131.392513 
L 141.459039 131.421253 
L 141.595535 132.020138 
L 141.800279 134.333841 
L 142.107394 141.094681 
L 142.516882 156.069626 
L 143.09699 186.722054 
L 144.666693 274.680088 
L 145.07618 285.932185 
L 145.349172 289.053504 
L 145.451544 289.298348 
L 145.485668 289.268934 
L 145.58804 288.852465 
L 145.792784 286.58889 
L 146.099899 279.920078 
L 146.577635 263.437549 
L 148.147338 204.196069 
L 148.488578 199.253074 
L 148.693322 198.428961 
L 148.76157 198.513034 
L 148.898065 199.207366 
L 149.136933 202.028794 
L 149.478173 209.153039 
L 150.092405 227.797949 
L 150.91138 251.596116 
L 151.286744 257.219982 
L 151.491488 258.126984 
L 151.559736 258.05672 
L 151.696232 257.338784 
L 151.900975 254.799897 
L 152.208091 247.753931 
L 152.651703 231.423246 
L 153.368306 195.119676 
L 154.323778 148.838318 
L 154.767389 136.183419 
L 155.074505 132.277741 
L 155.211001 131.892525 
L 155.245125 131.925835 
L 155.347497 132.332841 
L 155.552241 134.489638 
L 155.859357 140.809307 
L 156.337092 156.391756 
L 157.770299 207.35724 
L 158.111539 211.966793 
L 158.282159 212.451924 
L 158.384531 212.13363 
L 158.555151 210.581214 
L 158.828142 205.497575 
L 159.203506 193.743724 
L 159.783614 167.603013 
L 161.080325 107.509904 
L 161.523937 96.824699 
L 161.796928 94.118192 
L 161.8993 93.878089 
L 161.933424 93.890273 
L 162.035796 94.197801 
L 162.206416 95.580359 
L 162.479408 99.845496 
L 162.92302 110.920638 
L 164.219731 145.63156 
L 164.526846 148.367021 
L 164.629218 148.494061 
L 164.663342 148.444441 
L 164.799838 147.777153 
L 165.004582 145.352886 
L 165.311698 138.561421 
L 165.75531 122.766896 
L 166.506037 86.010171 
L 167.39326 45.642433 
L 167.836872 34.481846 
L 168.109864 31.984021 
L 168.178112 31.918444 
L 168.212236 31.970534 
L 168.348732 32.744477 
L 168.553476 35.581573 
L 168.860591 43.416346 
L 169.304203 61.19721 
L 170.157302 107.033345 
L 170.976278 146.456234 
L 171.454013 160.11903 
L 171.795253 164.47989 
L 171.965873 164.989084 
L 172.068245 164.79252 
L 172.238865 163.691491 
L 172.511857 160.184421 
L 172.989592 150.567273 
L 173.842692 133.536826 
L 174.149808 130.979799 
L 174.252179 130.809858 
L 174.286303 130.836335 
L 174.388675 131.17442 
L 174.559295 132.631167 
L 174.832287 137.3687 
L 175.207651 148.680044 
L 175.71951 171.856237 
L 177.630453 266.907422 
L 177.971693 272.722622 
L 178.176437 273.581219 
L 178.278809 273.268949 
L 178.449428 271.678006 
L 178.72242 266.511801 
L 179.131908 253.631324 
L 179.882635 221.045378 
L 180.667487 190.1844 
L 181.076975 181.029871 
L 181.349966 178.581363 
L 181.452338 178.458967 
L 181.486462 178.514761 
L 181.622958 179.215681 
L 181.861826 182.221467 
L 182.203066 190.050173 
L 182.749049 208.815643 
L 183.909265 249.611104 
L 184.284628 255.928861 
L 184.523496 257.12217 
L 184.591744 257.034856 
L 184.72824 256.284069 
L 184.967108 253.148782 
L 185.308348 244.919374 
L 185.820207 226.043817 
L 187.287538 167.606759 
L 187.662902 161.203743 
L 187.867646 160.125874 
L 187.935894 160.157878 
L 188.07239 160.806125 
L 188.277134 163.203737 
L 188.584249 169.765999 
L 189.061985 185.574621 
L 190.495192 237.06323 
L 190.836432 241.636713 
L 190.972928 242.057294 
L 191.007052 242.030107 
L 191.109424 241.626314 
L 191.280043 239.872267 
L 191.553035 234.286358 
L 191.928399 221.410542 
L 192.508507 192.383121 
L 194.009961 112.842601 
L 194.453573 100.842472 
L 194.760689 97.253323 
L 194.897185 96.880224 
L 194.931309 96.899505 
L 195.033681 97.217341 
L 195.238425 98.951431 
L 195.54554 103.896659 
L 196.125648 117.899867 
L 196.876375 134.879126 
L 197.217615 138.508756 
L 197.354111 138.887182 
L 197.388235 138.877228 
L 197.490607 138.588695 
L 197.661227 137.22642 
L 197.934219 132.727874 
L 198.309582 122.09419 
L 198.855566 99.306215 
L 200.288773 36.395687 
L 200.664137 29.146454 
L 200.868881 27.90238 
L 200.937129 27.935997 
L 201.073624 28.683175 
L 201.278368 31.493393 
L 201.585484 39.353268 
L 202.029096 57.40426 
L 202.813947 100.839904 
L 203.735295 148.141045 
L 204.21303 162.647765 
L 204.55427 167.337771 
L 204.72489 167.898425 
L 204.827262 167.691577 
L 204.997882 166.499558 
L 205.270873 162.64079 
L 205.714485 152.640604 
L 206.806452 126.949822 
L 207.113568 124.189658 
L 207.21594 123.995965 
L 207.250064 124.017881 
L 207.352436 124.349702 
L 207.523056 125.80895 
L 207.796048 130.528111 
L 208.171411 141.600902 
L 208.717395 165.332692 
L 210.252974 236.216758 
L 210.628338 243.991323 
L 210.867205 245.741873 
L 210.935453 245.771897 
L 210.969577 245.708825 
L 211.106073 244.9416 
L 211.344941 241.6818 
L 211.686181 233.208046 
L 212.232164 212.827437 
L 213.426504 166.461181 
L 213.801867 159.220189 
L 214.040735 157.611889 
L 214.108983 157.608176 
L 214.211355 157.987033 
L 214.381975 159.638584 
L 214.654967 164.84629 
L 215.064454 177.911449 
L 215.71281 207.168923 
L 216.736529 252.199864 
L 217.180141 263.010368 
L 217.453133 265.734643 
L 217.555505 265.944553 
L 217.589629 265.916311 
L 217.692001 265.540003 
L 217.896744 263.509946 
L 218.20386 257.521602 
L 218.681596 242.690367 
L 220.148927 192.82862 
L 220.490167 188.368456 
L 220.660787 187.790887 
L 220.69491 187.811405 
L 220.797282 188.144874 
L 221.002026 190.016942 
L 221.309142 195.655855 
L 221.752754 208.70519 
L 223.288333 258.604365 
L 223.561324 261.323076 
L 223.663696 261.508124 
L 223.69782 261.463845 
L 223.834316 260.746298 
L 224.03906 258.025301 
L 224.346176 250.267315 
L 224.755664 233.588204 
L 225.404019 196.306579 
L 225.881755 165.340551 
L 225.881755 165.340551 
" clip-path="url(#pa31a25ac5f)" style="fill: none; stroke: #008000; stroke-width: 1.5; stroke-linecap: square"/>
   </g>
   <g id="line2d_15">
    <path d="M 91.126175 122.032605 
L 91.126175 165.858735 
" clip-path="url(#pa31a25ac5f)" style="fill: none; stroke: #ff0000; stroke-width: 1.5; stroke-linecap: square"/>
    <defs>
     <path id="m24430a847c" d="M 0 3 
C 0.795609 3 1.55874 2.683901 2.12132 2.12132 
C 2.683901 1.55874 3 0.795609 3 0 
C 3 -0.795609 2.683901 -1.55874 2.12132 -2.12132 
C 1.55874 -2.683901 0.795609 -3 0 -3 
C -0.795609 -3 -1.55874 -2.683901 -2.12132 -2.12132 
C -2.683901 -1.55874 -3 -0.795609 -3 0 
C -3 0.795609 -2.683901 1.55874 -2.12132 2.12132 
C -1.55874 2.683901 -0.795609 3 0 3 
z
" style="stroke: #ff0000"/>
    </defs>
    <g clip-path="url(#pa31a25ac5f)">
     <use xlink:href="#m24430a847c" x="91.126175" y="122.032605" style="fill: #ff0000; stroke: #ff0000"/>
    </g>
   </g>
   <g id="patch_3">
    <path d="M 55.296 303.64 
L 55.296 14.76 
" style="fill: none; stroke: #000000; stroke-width: 0.8; stroke-linejoin: miter; stroke-linecap: square"/>
   </g>
   <g id="patch_4">
    <path d="M 225.881755 303.64 
L 225.881755 14.76 
" style="fill: none; stroke: #000000; stroke-width: 0.8; stroke-linejoin: miter; stroke-linecap: square"/>
   </g>
   <g id="patch_5">
    <path d="M 55.296 303.64 
L 225.881755 303.64 
" style="fill: none; stroke: #000000; stroke-width: 0.8; stroke-linejoin: miter; stroke-linecap: square"/>
   </g>
   <g id="patch_6">
    <path d="M 55.296 14.76 
L 225.881755 14.76 
" style="fill: none; stroke: #000000; stroke-width: 0.8; stroke-linejoin: miter; stroke-linecap: square"/>
   </g>
  </g>
  <g id="axes_2">
   <g id="patch_7">
    <path d="M 279.414245 244.492877 
L 450 244.492877 
L 450 73.907123 
L 279.414245 73.907123 
z
" style="fill: #ffffff"/>
   </g>
   <g id="matplotlib.axis_3">
    <g id="xtick_7">
     <g id="line2d_16">
      <g>
       <use xlink:href="#mbcb02aef95" x="299.132143" y="244.492877" style="stroke: #000000; stroke-width: 0.8"/>
      </g>
     </g>
     <g id="text_15">
      <!-- −5 -->
      <g transform="translate(291.761049 259.091315) scale(0.1 -0.1)">
       <defs>
        <path id="DejaVuSans-35" d="M 691 4666 
L 3169 4666 
L 3169 4134 
L 1269 4134 
L 1269 2991 
Q 1406 3038 1543 3061 
Q 1681 3084 1819 3084 
Q 2600 3084 3056 2656 
Q 3513 2228 3513 1497 
Q 3513 744 3044 326 
Q 2575 -91 1722 -91 
Q 1428 -91 1123 -41 
Q 819 9 494 109 
L 494 744 
Q 775 591 1075 516 
Q 1375 441 1709 441 
Q 2250 441 2565 725 
Q 2881 1009 2881 1497 
Q 2881 1984 2565 2268 
Q 2250 2553 1709 2553 
Q 1456 2553 1204 2497 
Q 953 2441 691 2322 
L 691 4666 
z
" transform="scale(0.015625)"/>
       </defs>
       <use xlink:href="#DejaVuSans-2212"/>
       <use xlink:href="#DejaVuSans-35" x="83.789062"/>
      </g>
     </g>
    </g>
    <g id="xtick_8">
     <g id="line2d_17">
      <g>
       <use xlink:href="#mbcb02aef95" x="364.707123" y="244.492877" style="stroke: #000000; stroke-width: 0.8"/>
      </g>
     </g>
     <g id="text_16">
      <!-- 0 -->
      <g transform="translate(361.525873 259.091315) scale(0.1 -0.1)">
       <use xlink:href="#DejaVuSans-30"/>
      </g>
     </g>
    </g>
    <g id="xtick_9">
     <g id="line2d_18">
      <g>
       <use xlink:href="#mbcb02aef95" x="430.282102" y="244.492877" style="stroke: #000000; stroke-width: 0.8"/>
      </g>
     </g>
     <g id="text_17">
      <!-- 5 -->
      <g transform="translate(427.100852 259.091315) scale(0.1 -0.1)">
       <use xlink:href="#DejaVuSans-35"/>
      </g>
     </g>
    </g>
    <g id="text_18">
     <!-- Real -->
     <g transform="translate(353.928216 272.76944) scale(0.1 -0.1)">
      <defs>
       <path id="DejaVuSans-52" d="M 2841 2188 
Q 3044 2119 3236 1894 
Q 3428 1669 3622 1275 
L 4263 0 
L 3584 0 
L 2988 1197 
Q 2756 1666 2539 1819 
Q 2322 1972 1947 1972 
L 1259 1972 
L 1259 0 
L 628 0 
L 628 4666 
L 2053 4666 
Q 2853 4666 3247 4331 
Q 3641 3997 3641 3322 
Q 3641 2881 3436 2590 
Q 3231 2300 2841 2188 
z
M 1259 4147 
L 1259 2491 
L 2053 2491 
Q 2509 2491 2742 2702 
Q 2975 2913 2975 3322 
Q 2975 3731 2742 3939 
Q 2509 4147 2053 4147 
L 1259 4147 
z
" transform="scale(0.015625)"/>
       <path id="DejaVuSans-61" d="M 2194 1759 
Q 1497 1759 1228 1600 
Q 959 1441 959 1056 
Q 959 750 1161 570 
Q 1363 391 1709 391 
Q 2188 391 2477 730 
Q 2766 1069 2766 1631 
L 2766 1759 
L 2194 1759 
z
M 3341 1997 
L 3341 0 
L 2766 0 
L 2766 531 
Q 2569 213 2275 61 
Q 1981 -91 1556 -91 
Q 1019 -91 701 211 
Q 384 513 384 1019 
Q 384 1609 779 1909 
Q 1175 2209 1959 2209 
L 2766 2209 
L 2766 2266 
Q 2766 2663 2505 2880 
Q 2244 3097 1772 3097 
Q 1472 3097 1187 3025 
Q 903 2953 641 2809 
L 641 3341 
Q 956 3463 1253 3523 
Q 1550 3584 1831 3584 
Q 2591 3584 2966 3190 
Q 3341 2797 3341 1997 
z
" transform="scale(0.015625)"/>
      </defs>
      <use xlink:href="#DejaVuSans-52"/>
      <use xlink:href="#DejaVuSans-65" x="64.982422"/>
      <use xlink:href="#DejaVuSans-61" x="126.505859"/>
      <use xlink:href="#DejaVuSans-6c" x="187.785156"/>
     </g>
    </g>
   </g>
   <g id="matplotlib.axis_4">
    <g id="ytick_7">
     <g id="line2d_19">
      <g>
       <use xlink:href="#me5179b328b" x="279.414245" y="237.889975" style="stroke: #000000; stroke-width: 0.8"/>
      </g>
     </g>
     <g id="text_19">
      <!-- −6 -->
      <g transform="translate(257.672058 241.689194) scale(0.1 -0.1)">
       <use xlink:href="#DejaVuSans-2212"/>
       <use xlink:href="#DejaVuSans-36" x="83.789062"/>
      </g>
     </g>
    </g>
    <g id="ytick_8">
     <g id="line2d_20">
      <g>
       <use xlink:href="#me5179b328b" x="279.414245" y="211.659984" style="stroke: #000000; stroke-width: 0.8"/>
      </g>
     </g>
     <g id="text_20">
      <!-- −4 -->
      <g transform="translate(257.672058 215.459202) scale(0.1 -0.1)">
       <use xlink:href="#DejaVuSans-2212"/>
       <use xlink:href="#DejaVuSans-34" x="83.789062"/>
      </g>
     </g>
    </g>
    <g id="ytick_9">
     <g id="line2d_21">
      <g>
       <use xlink:href="#me5179b328b" x="279.414245" y="185.429992" style="stroke: #000000; stroke-width: 0.8"/>
      </g>
     </g>
     <g id="text_21">
      <!-- −2 -->
      <g transform="translate(257.672058 189.229211) scale(0.1 -0.1)">
       <use xlink:href="#DejaVuSans-2212"/>
       <use xlink:href="#DejaVuSans-32" x="83.789062"/>
      </g>
     </g>
    </g>
    <g id="ytick_10">
     <g id="line2d_22">
      <g>
       <use xlink:href="#me5179b328b" x="279.414245" y="159.2" style="stroke: #000000; stroke-width: 0.8"/>
      </g>
     </g>
     <g id="text_22">
      <!-- 0 -->
      <g transform="translate(266.051745 162.999219) scale(0.1 -0.1)">
       <use xlink:href="#DejaVuSans-30"/>
      </g>
     </g>
    </g>
    <g id="ytick_11">
     <g id="line2d_23">
      <g>
       <use xlink:href="#me5179b328b" x="279.414245" y="132.970008" style="stroke: #000000; stroke-width: 0.8"/>
      </g>
     </g>
     <g id="text_23">
      <!-- 2 -->
      <g transform="translate(266.051745 136.769227) scale(0.1 -0.1)">
       <use xlink:href="#DejaVuSans-32"/>
      </g>
     </g>
    </g>
    <g id="ytick_12">
     <g id="line2d_24">
      <g>
       <use xlink:href="#me5179b328b" x="279.414245" y="106.740016" style="stroke: #000000; stroke-width: 0.8"/>
      </g>
     </g>
     <g id="text_24">
      <!-- 4 -->
      <g transform="translate(266.051745 110.539235) scale(0.1 -0.1)">
       <use xlink:href="#DejaVuSans-34"/>
      </g>
     </g>
    </g>
    <g id="ytick_13">
     <g id="line2d_25">
      <g>
       <use xlink:href="#me5179b328b" x="279.414245" y="80.510025" style="stroke: #000000; stroke-width: 0.8"/>
      </g>
     </g>
     <g id="text_25">
      <!-- 6 -->
      <g transform="translate(266.051745 84.309243) scale(0.1 -0.1)">
       <use xlink:href="#DejaVuSans-36"/>
      </g>
     </g>
    </g>
    <g id="text_26">
     <!-- Imaginary -->
     <g transform="translate(251.59237 184.420312) rotate(-90) scale(0.1 -0.1)">
      <defs>
       <path id="DejaVuSans-49" d="M 628 4666 
L 1259 4666 
L 1259 0 
L 628 0 
L 628 4666 
z
" transform="scale(0.015625)"/>
       <path id="DejaVuSans-67" d="M 2906 1791 
Q 2906 2416 2648 2759 
Q 2391 3103 1925 3103 
Q 1463 3103 1205 2759 
Q 947 2416 947 1791 
Q 947 1169 1205 825 
Q 1463 481 1925 481 
Q 2391 481 2648 825 
Q 2906 1169 2906 1791 
z
M 3481 434 
Q 3481 -459 3084 -895 
Q 2688 -1331 1869 -1331 
Q 1566 -1331 1297 -1286 
Q 1028 -1241 775 -1147 
L 775 -588 
Q 1028 -725 1275 -790 
Q 1522 -856 1778 -856 
Q 2344 -856 2625 -561 
Q 2906 -266 2906 331 
L 2906 616 
Q 2728 306 2450 153 
Q 2172 0 1784 0 
Q 1141 0 747 490 
Q 353 981 353 1791 
Q 353 2603 747 3093 
Q 1141 3584 1784 3584 
Q 2172 3584 2450 3431 
Q 2728 3278 2906 2969 
L 2906 3500 
L 3481 3500 
L 3481 434 
z
" transform="scale(0.015625)"/>
       <path id="DejaVuSans-6e" d="M 3513 2113 
L 3513 0 
L 2938 0 
L 2938 2094 
Q 2938 2591 2744 2837 
Q 2550 3084 2163 3084 
Q 1697 3084 1428 2787 
Q 1159 2491 1159 1978 
L 1159 0 
L 581 0 
L 581 3500 
L 1159 3500 
L 1159 2956 
Q 1366 3272 1645 3428 
Q 1925 3584 2291 3584 
Q 2894 3584 3203 3211 
Q 3513 2838 3513 2113 
z
" transform="scale(0.015625)"/>
       <path id="DejaVuSans-72" d="M 2631 2963 
Q 2534 3019 2420 3045 
Q 2306 3072 2169 3072 
Q 1681 3072 1420 2755 
Q 1159 2438 1159 1844 
L 1159 0 
L 581 0 
L 581 3500 
L 1159 3500 
L 1159 2956 
Q 1341 3275 1631 3429 
Q 1922 3584 2338 3584 
Q 2397 3584 2469 3576 
Q 2541 3569 2628 3553 
L 2631 2963 
z
" transform="scale(0.015625)"/>
       <path id="DejaVuSans-79" d="M 2059 -325 
Q 1816 -950 1584 -1140 
Q 1353 -1331 966 -1331 
L 506 -1331 
L 506 -850 
L 844 -850 
Q 1081 -850 1212 -737 
Q 1344 -625 1503 -206 
L 1606 56 
L 191 3500 
L 800 3500 
L 1894 763 
L 2988 3500 
L 3597 3500 
L 2059 -325 
z
" transform="scale(0.015625)"/>
      </defs>
      <use xlink:href="#DejaVuSans-49"/>
      <use xlink:href="#DejaVuSans-6d" x="29.492188"/>
      <use xlink:href="#DejaVuSans-61" x="126.904297"/>
      <use xlink:href="#DejaVuSans-67" x="188.183594"/>
      <use xlink:href="#DejaVuSans-69" x="251.660156"/>
      <use xlink:href="#DejaVuSans-6e" x="279.443359"/>
      <use xlink:href="#DejaVuSans-61" x="342.822266"/>
      <use xlink:href="#DejaVuSans-72" x="404.101562"/>
      <use xlink:href="#DejaVuSans-79" x="445.214844"/>
     </g>
    </g>
   </g>
   <g id="line2d_26">
    <path d="M 279.414245 159.2 
L 450 159.2 
" clip-path="url(#p5bc74d7fa3)" style="fill: none; stroke: #000000; stroke-width: 1.5; stroke-linecap: square"/>
   </g>
   <g id="line2d_27">
    <path d="M 364.707123 244.492877 
L 364.707123 73.907123 
" clip-path="url(#p5bc74d7fa3)" style="fill: none; stroke: #000000; stroke-width: 1.5; stroke-linecap: square"/>
   </g>
   <g id="line2d_28">
    <path d="M 364.998346 159.2 
L 375.721913 159.324605 
L 385.318075 159.666382 
L 393.251171 160.169043 
L 399.132207 160.75873 
L 402.462088 161.290098 
L 403.887954 161.714988 
L 404.100827 161.927588 
L 403.988529 162.06868 
L 403.498459 162.22903 
L 402.103971 162.404055 
L 399.231981 162.508004 
L 394.565041 162.440043 
L 388.022156 162.116202 
L 379.948666 161.673463 
L 379.963296 161.695521 
L 380.390305 161.866672 
L 383.028673 162.552743 
L 396.984824 166.076386 
L 406.06602 168.610604 
L 414.478104 171.184523 
L 421.432292 173.539809 
L 426.615259 175.514018 
L 430.074962 177.042222 
L 432.082126 178.137168 
L 433.007742 178.861299 
L 433.233419 179.299875 
L 433.095598 179.539817 
L 432.69298 179.699415 
L 431.746542 179.782289 
L 429.919372 179.670641 
L 426.828978 179.216417 
L 422.10317 178.252714 
L 416.360099 176.852315 
L 408.866612 174.789042 
L 400.785533 172.345734 
L 391.555463 169.328082 
L 381.881092 165.926352 
L 372.869664 162.52782 
L 365.124268 159.378691 
L 362.374961 158.148514 
L 366.721676 160.166818 
L 373.250306 163.473132 
L 380.278715 167.284477 
L 386.354228 170.821501 
L 390.712459 173.585216 
L 393.170225 175.367926 
L 393.918285 176.134495 
L 393.852747 176.292852 
L 393.421203 176.234356 
L 392.093481 175.727172 
L 389.557388 174.49655 
L 385.492598 172.284469 
L 379.725327 168.892887 
L 373.124205 164.768336 
L 365.438265 159.697011 
L 358.093876 154.581903 
L 351.781546 149.930105 
L 347.072354 146.214069 
L 344.357558 143.816769 
L 343.745109 143.062019 
L 343.808549 142.984987 
L 344.188836 143.114141 
L 345.361172 143.796256 
L 347.928567 145.562579 
L 352.403681 148.940438 
L 358.275179 153.684017 
L 364.261162 158.806718 
L 369.857377 163.881847 
L 373.682607 167.631089 
L 374.493235 168.626861 
L 374.462019 168.620457 
L 373.993445 168.281424 
L 372.17352 166.649993 
L 368.17184 162.745117 
L 362.570992 156.958623 
L 355.863743 149.68425 
L 349.374246 142.322453 
L 342.938427 134.686776 
L 337.008874 127.289812 
L 332.489243 121.320118 
L 328.91489 116.249915 
L 326.690914 112.756346 
L 325.506643 110.565836 
L 325.038883 109.347517 
L 325.000386 108.780941 
L 325.16189 108.594608 
L 325.480661 108.610515 
L 326.138373 108.938952 
L 327.306173 109.821332 
L 329.152384 111.515887 
L 331.799751 114.246407 
L 335.723608 118.652164 
L 340.337878 124.18548 
L 345.922893 131.246939 
L 352.603763 139.743316 
L 352.765482 139.786346 
L 352.774217 139.745796 
L 352.633885 139.236601 
L 351.668742 137.079442 
L 344.542415 121.83709 
L 342.138247 116.094842 
L 340.526481 111.717002 
L 339.79138 109.190247 
L 339.590892 107.820699 
L 339.695613 107.37618 
L 339.903545 107.308065 
L 340.223549 107.477204 
L 340.824139 108.08299 
L 341.849054 109.463983 
L 343.461705 112.038791 
L 345.820783 116.270922 
L 348.612768 121.726119 
L 352.197834 129.24645 
L 356.030489 137.821771 
L 359.919397 147.054543 
L 363.675163 156.502959 
L 367.52484 166.821343 
L 370.77771 176.208793 
L 373.283314 184.115829 
L 374.958777 190.115458 
L 375.73996 193.626106 
L 375.904902 195.22843 
L 375.800342 195.535549 
L 375.635732 195.48574 
L 375.312021 195.062909 
L 374.633163 193.722487 
L 373.451734 190.806812 
L 371.721439 185.851782 
L 369.61452 179.058442 
L 367.479445 171.401869 
L 366.197674 166.667443 
L 366.213236 167.000471 
L 366.931586 172.110569 
L 368.148754 181.702357 
L 369.058638 190.545295 
L 369.712094 198.910744 
L 370.063749 205.958308 
L 370.142575 211.91316 
L 369.974001 215.856295 
L 369.708585 217.792156 
L 369.406803 218.664265 
L 369.195168 218.849256 
L 368.963793 218.775822 
L 368.715541 218.44291 
L 368.363536 217.598123 
L 367.900365 215.913162 
L 367.330392 213.018415 
L 366.677993 208.561341 
L 365.994109 202.300737 
L 365.356744 194.23661 
L 364.898691 185.706422 
L 364.614684 176.504749 
L 364.546484 167.063904 
L 364.704612 159.261895 
L 364.775198 157.919265 
L 364.490531 162.103043 
L 363.731397 169.915124 
L 362.68321 178.471772 
L 361.460079 186.777035 
L 360.082558 194.635328 
L 358.826072 200.607291 
L 357.79474 204.585931 
L 357.028096 206.802115 
L 356.589443 207.585323 
L 356.317338 207.711283 
L 356.164327 207.510508 
L 356.033614 206.851289 
L 355.995144 205.412343 
L 356.185452 202.315631 
L 356.754866 197.410704 
L 357.81683 190.527168 
L 359.252308 182.728809 
L 361.142807 173.741141 
L 363.342238 164.453059 
L 365.533324 156.206432 
L 367.229253 150.611319 
L 367.853609 149.053806 
L 367.858925 149.081636 
L 367.735134 149.731131 
L 366.951463 152.474313 
L 365.189738 157.823242 
L 362.856598 164.234448 
L 360.440711 170.287646 
L 358.512176 174.60235 
L 357.684206 176.046171 
L 357.631425 176.053366 
L 357.620815 175.960473 
L 357.789351 175.279371 
L 358.679206 172.83181 
L 360.640424 168.122358 
L 363.608187 161.540547 
L 367.487563 153.448168 
L 372.100754 144.336442 
L 377.198885 134.784142 
L 381.894974 126.422411 
L 386.505613 118.627045 
L 390.79764 111.788117 
L 394.551857 106.233869 
L 397.245511 102.623106 
L 399.033695 100.541909 
L 400.1212 99.54674 
L 400.715438 99.234641 
L 400.997475 99.278072 
L 401.13906 99.553029 
L 401.111707 100.265941 
L 400.740115 101.679155 
L 399.829234 104.061894 
L 398.197073 107.631182 
L 395.726841 112.470381 
L 392.437692 118.433742 
L 388.182218 125.695256 
L 382.055007 135.657238 
L 379.938656 139.273281 
L 379.862799 139.679412 
L 380.022208 139.626899 
L 380.731503 139.035598 
L 383.290434 136.468003 
L 391.331194 128.331932 
L 395.984223 123.934969 
L 399.312868 121.05986 
L 401.549449 119.406326 
L 402.618193 118.866415 
L 402.99002 118.87897 
L 403.074428 119.094019 
L 402.913906 119.661694 
L 402.257145 120.826888 
L 400.783564 122.884714 
L 398.123793 126.148832 
L 394.500294 130.246789 
L 389.309401 135.767701 
L 383.213789 141.924972 
L 376.500489 148.411347 
L 368.626777 155.694888 
L 360.906562 162.522014 
L 353.849116 168.476269 
L 347.917591 173.218309 
L 343.488562 176.512739 
L 340.818392 178.245365 
L 340.077299 178.534212 
L 340.019503 178.429573 
L 340.259531 178.045898 
L 341.268948 176.987602 
L 343.709781 174.804992 
L 347.667377 171.567016 
L 353.040832 167.44524 
L 359.310394 162.903371 
L 365.888354 158.417487 
L 370.55007 155.485872 
L 371.215679 155.154078 
L 370.905683 155.400579 
L 368.586818 156.888508 
L 363.027745 160.166542 
L 355.830172 164.146902 
L 348.244032 168.105156 
L 340.42923 171.940524 
L 333.16554 175.250022 
L 327.706417 177.503977 
L 324.090883 178.78671 
L 322.076293 179.297863 
L 321.352903 179.306865 
L 321.214024 179.172349 
L 321.297446 178.936183 
L 321.75105 178.469939 
L 323.14158 177.470875 
L 325.76058 175.912343 
L 329.873683 173.73439 
L 335.54988 170.980527 
L 342.516753 167.842855 
L 350.660577 164.428352 
L 358.850539 161.2468 
L 361.606303 160.218516 
L 360.442681 160.547479 
L 351.863969 162.940823 
L 342.444144 165.321828 
L 333.32653 167.406167 
L 323.977807 169.305734 
L 316.119743 170.673623 
L 310.108455 171.514898 
L 305.416844 171.948002 
L 302.950594 171.991793 
L 301.661469 171.846139 
L 301.157288 171.615248 
L 301.093157 171.378937 
L 301.299488 171.09176 
L 301.992482 170.635706 
L 303.51489 169.961207 
L 306.254565 169.025561 
L 310.586957 167.808404 
L 316.783016 166.329551 
L 323.942212 164.84614 
L 332.607085 163.276494 
L 342.22821 161.768026 
L 351.808431 160.493178 
L 360.496152 159.552788 
L 366.256726 159.113238 
L 362.436088 159.272813 
L 355.986391 159.315097 
L 349.812109 159.134475 
L 346.210913 158.839615 
L 345.341728 158.603478 
L 345.481139 158.5352 
L 346.464234 158.431415 
L 349.296655 158.395447 
L 354.56147 158.55516 
L 361.86031 158.986704 
L 370.843758 159.729654 
L 381.008773 160.792967 
L 391.740296 162.150705 
L 401.209145 163.556067 
L 410.112459 165.082197 
L 418.000302 166.649647 
L 424.481968 168.169364 
L 428.757138 169.387855 
L 431.26969 170.302802 
L 432.512311 170.948513 
L 432.94278 171.376769 
L 432.939525 171.641843 
L 432.662024 171.85618 
L 431.878379 172.059983 
L 430.268445 172.179398 
L 427.494349 172.123003 
L 423.267745 171.791118 
L 417.446361 171.095498 
L 410.152685 169.992025 
L 401.08835 168.372652 
L 391.015478 166.327626 
L 382.26662 164.554872 
L 382.206189 164.608646 
L 382.23386 164.641341 
L 382.721662 164.917151 
L 385.312886 166.025744 
L 396.826693 170.880409 
L 403.063969 173.752136 
L 407.907487 176.213853 
L 410.708248 177.853326 
L 412.118103 178.91249 
L 412.444137 179.400837 
L 412.349878 179.573103 
L 412.03248 179.648798 
L 411.258811 179.592847 
L 409.731194 179.261832 
L 407.101061 178.474378 
L 403.014445 177.024748 
L 397.19124 174.71439 
L 390.433203 171.805984 
L 382.175072 168.005852 
L 373.785858 163.906267 
L 365.033389 159.374369 
L 357.608048 155.290509 
L 351.702794 151.802324 
L 348.678319 149.786145 
L 348.320136 149.408832 
L 348.348514 149.397865 
L 348.707431 149.503278 
L 350.236855 150.255183 
L 353.695136 152.219538 
L 359.050586 155.51387 
L 365.984317 160.057682 
L 373.020833 164.951307 
L 379.153298 169.491844 
L 383.513183 172.993844 
L 385.316398 174.678034 
L 385.526241 175.082594 
L 385.324393 175.051948 
L 384.536059 174.645069 
L 382.515341 173.324584 
L 378.489524 170.387804 
L 373.150881 166.214113 
L 366.913199 161.075134 
L 360.256211 155.329217 
L 353.68258 149.391174 
L 347.673812 143.696281 
L 342.64897 138.661662 
L 338.929767 134.648506 
L 336.883624 132.16093 
L 336.110363 130.916024 
L 336.088574 130.608417 
L 336.264919 130.569494 
L 336.744208 130.767476 
L 337.943957 131.573698 
L 340.303174 133.496817 
L 343.702633 136.570016 
L 348.344174 141.074501 
L 353.851502 146.741145 
L 358.522115 151.653579 
L 358.399044 151.403997 
L 356.69283 149.010396 
L 350.169769 139.830586 
L 344.654763 131.698548 
L 339.303137 123.422813 
L 334.67678 115.877457 
L 331.037017 109.568101 
L 328.088733 104.03627 
L 326.226459 100.109063 
L 325.237385 97.578967 
L 324.869211 96.135038 
L 324.880173 95.444737 
L 325.06668 95.20756 
L 325.40418 95.21471 
L 325.889603 95.467377 
L 326.759254 96.184261 
L 328.183962 97.678544 
L 330.342425 100.307077 
L 333.385031 104.419794 
L 336.860361 109.487939 
L 341.165057 116.163409 
L 346.146352 124.338674 
L 350.955044 132.650813 
L 355.73644 141.335311 
L 360.267669 150.016206 
L 363.901145 157.437553 
L 364.510024 158.752753 
L 363.593556 156.538265 
L 361.390281 150.801342 
L 359.456674 145.188439 
L 358.391572 141.469673 
L 358.307888 140.570703 
L 358.415768 140.657494 
L 358.840591 141.471276 
L 359.830131 143.9492 
L 361.465654 148.65389 
L 363.792265 156.084609 
L 366.170295 164.399428 
L 368.627493 173.760843 
L 370.976388 183.580281 
L 373.043886 193.211028 
L 374.529013 201.086894 
L 375.605712 207.875576 
L 376.232135 213.215022 
L 376.402677 216.479195 
L 376.278126 218.133135 
L 376.065382 218.628447 
L 375.842842 218.67953 
L 375.570358 218.458562 
L 375.13642 217.749626 
L 374.495429 216.224527 
L 373.611209 213.527272 
L 372.472389 209.338804 
L 371.109004 203.474645 
L 369.60542 196.011414 
L 368.101985 187.421406 
L 366.676221 177.94983 
L 365.418477 167.989626 
L 365.180439 166.261324 
L 365.153697 166.554729 
L 365.220062 172.252569 
L 365.182909 181.141068 
L 364.944299 189.391513 
L 364.529932 196.793235 
L 364.011062 202.631343 
L 363.397143 207.107154 
L 362.893757 209.360482 
L 362.473212 210.313779 
L 362.210561 210.418902 
L 362.027683 210.214289 
L 361.807843 209.564351 
L 361.579998 208.157909 
L 361.366638 205.140653 
L 361.297233 200.367789 
L 361.45818 193.67892 
L 361.862482 186.123874 
L 362.543769 177.474396 
L 363.453101 168.669666 
L 364.491978 160.643066 
L 365.258994 156.020875 
L 364.277283 161.353432 
L 362.678985 168.618358 
L 360.673715 176.748017 
L 358.375899 185.099521 
L 356.282558 191.876778 
L 354.611558 196.602793 
L 353.451869 199.292507 
L 352.858792 200.213978 
L 352.619479 200.266903 
L 352.529614 200.003575 
L 352.53628 199.245437 
L 352.830257 197.244581 
L 353.617437 193.654426 
L 355.098532 188.054751 
L 357.158297 181.131091 
L 360.062694 172.212929 
L 363.421491 162.677369 
L 367.017997 153.160501 
L 370.609423 144.282084 
L 373.948613 136.593281 
L 376.807133 130.530945 
L 378.997543 126.382391 
L 380.279254 124.39918 
L 380.801386 123.94782 
L 380.920735 124.037948 
L 380.936538 124.464005 
L 380.668781 125.698218 
L 379.829773 128.264178 
L 378.195061 132.465217 
L 375.625755 138.40972 
L 372.239436 146.045689 
L 372.290079 146.034107 
L 372.633399 145.635837 
L 374.54339 142.889225 
L 381.999157 132.090895 
L 387.802712 124.073288 
L 393.579828 116.466582 
L 398.759408 110.009303 
L 403.018752 105.028529 
L 406.258028 101.531316 
L 408.869168 99.030614 
L 410.270888 97.931768 
L 411.081557 97.492012 
L 411.497035 97.425538 
L 411.741315 97.587103 
L 411.810392 97.976635 
L 411.62583 98.846802 
L 410.948933 100.482797 
L 409.783778 102.696478 
L 407.769249 106.048889 
L 404.641746 110.786258 
L 400.798706 116.221258 
L 395.738902 122.992197 
L 389.537262 130.882914 
L 383.225503 138.556854 
L 376.631997 146.238392 
L 370.071717 153.542686 
L 364.635036 159.272838 
L 363.8916 160.00559 
L 366.829665 157.20117 
L 371.705987 152.837672 
L 376.779747 148.580393 
L 380.670618 145.579328 
L 382.564926 144.346793 
L 382.889496 144.269146 
L 382.898719 144.299816 
L 382.74099 144.579879 
L 381.90035 145.474964 
L 379.62651 147.533796 
L 375.540991 150.924228 
L 369.334832 155.756221 
L 361.818289 161.293871 
L 354.440986 166.465349 
L 347.022855 171.417301 
L 340.106479 175.787596 
L 334.207875 179.266791 
L 330.179959 181.422723 
L 327.792926 182.502342 
L 326.677933 182.807009 
L 326.430847 182.694627 
L 326.507826 182.449528 
L 326.956521 181.917126 
L 328.347553 180.708233 
L 330.980357 178.752311 
L 335.131131 175.950948 
L 340.887329 172.33718 
L 348.006274 168.139022 
L 355.779498 163.820818 
L 363.461681 159.819036 
L 368.703334 157.319096 
L 368.924497 157.24084 
L 367.893963 157.763171 
L 363.315726 159.802246 
L 355.595345 162.981771 
L 346.614808 166.417497 
L 337.75427 169.561457 
L 329.936743 172.117227 
L 322.898141 174.196088 
L 317.735024 175.516825 
L 313.922283 176.270974 
L 312.081519 176.449132 
L 311.259396 176.347385 
L 311.082652 176.181345 
L 311.142816 175.94033 
L 311.585907 175.509154 
L 312.702685 174.809343 
L 314.811447 173.767128 
L 318.20012 172.33487 
L 323.696401 170.283224 
L 330.686873 167.936739 
L 339.164238 165.350558 
L 348.722916 162.689347 
L 352.608297 161.555763 
L 352.594024 161.542744 
L 352.148168 161.547195 
L 348.634565 161.953669 
L 338.195063 163.127105 
L 329.491284 163.874721 
L 322.432925 164.271852 
L 317.026498 164.37408 
L 313.477966 164.238521 
L 311.81668 163.999481 
L 311.181614 163.71815 
L 311.150061 163.517493 
L 311.389955 163.295866 
L 312.140116 162.972496 
L 313.774691 162.5336 
L 316.745357 161.976093 
L 321.536062 161.317884 
L 328.578179 160.608424 
L 336.990903 160.001456 
L 346.37815 159.545603 
L 356.284691 159.274104 
L 364.998346 159.2 
L 364.998346 159.2 
" clip-path="url(#p5bc74d7fa3)" style="fill: none; stroke: #1f77b4; stroke-width: 1.5; stroke-linecap: square"/>
   </g>
   <g id="line2d_29">
    <path d="M 370.826212 183.058422 
L 364.707123 159.2 
" clip-path="url(#p5bc74d7fa3)" style="fill: none; stroke: #ff0000; stroke-width: 1.5; stroke-linecap: square"/>
    <g clip-path="url(#p5bc74d7fa3)">
     <use xlink:href="#m24430a847c" x="370.826212" y="183.058422" style="fill: #ff0000; stroke: #ff0000"/>
    </g>
   </g>
   <g id="patch_8">
    <path d="M 279.414245 244.492877 
L 279.414245 73.907123 
" style="fill: none; stroke: #000000; stroke-width: 0.8; stroke-linejoin: miter; stroke-linecap: square"/>
   </g>
   <g id="patch_9">
    <path d="M 450 244.492877 
L 450 73.907123 
" style="fill: none; stroke: #000000; stroke-width: 0.8; stroke-linejoin: miter; stroke-linecap: square"/>
   </g>
   <g id="patch_10">
    <path d="M 279.414245 244.492877 
L 450 244.492877 
" style="fill: none; stroke: #000000; stroke-width: 0.8; stroke-linejoin: miter; stroke-linecap: square"/>
   </g>
   <g id="patch_11">
    <path d="M 279.414245 73.907123 
L 450 73.907123 
" style="fill: none; stroke: #000000; stroke-width: 0.8; stroke-linejoin: miter; stroke-linecap: square"/>
   </g>
  </g>
 </g>
 <defs>
  <clipPath id="pa31a25ac5f">
   <rect x="55.296" y="14.76" width="170.585755" height="288.88"/>
  </clipPath>
  <clipPath id="p5bc74d7fa3">
   <rect x="279.414245" y="73.907123" width="170.585755" height="170.585755"/>
  </clipPath>
 </defs>
</svg>
