<?xml version="1.0" encoding="utf-8" standalone="no"?>
<!DOCTYPE svg PUBLIC "-//W3C//DTD SVG 1.1//EN"
  "http://www.w3.org/Graphics/SVG/1.1/DTD/svg11.dtd">
<svg xmlns:xlink="http://www.w3.org/1999/xlink" width="460.8pt" height="345.6pt" viewBox="0 0 460.8 345.6" xmlns="http://www.w3.org/2000/svg" version="1.1">
 <metadata>
  <rdf:RDF xmlns:dc="http://purl.org/dc/elements/1.1/" xmlns:cc="http://creativecommons.org/ns#" xmlns:rdf="http://www.w3.org/1999/02/22-rdf-syntax-ns#">
   <cc:Work>
    <dc:type rdf:resource="http://purl.org/dc/dcmitype/StillImage"/>
    <dc:format>image/svg+xml</dc:format>
    <dc:creator>
     <cc:Agent>
      <dc:title>Matplotlib v3.8.4, https://matplotlib.org/</dc:title>
     </cc:Agent>
    </dc:creator>
   </cc:Work>
  </rdf:RDF>
 </metadata>
 <defs>
  <style type="text/css">*{stroke-linejoin: round; stroke-linecap: butt}</style>
 </defs>
 <g id="figure_1">
  <g id="patch_1">
   <path d="M 0 345.6 
L 460.8 345.6 
L 460.8 0 
L 0 0 
z
" style="fill: #ffffff"/>
  </g>
  <g id="axes_1">
   <g id="patch_2">
    <path d="M 57.6 307.584 
L 414.72 307.584 
L 414.72 41.472 
L 57.6 41.472 
z
" style="fill: #ffffff"/>
   </g>
   <g id="matplotlib.axis_1">
    <g id="xtick_1">
     <g id="line2d_1">
      <defs>
       <path id="mbcb02aef95" d="M 0 0 
L 0 3.5 
" style="stroke: #000000; stroke-width: 0.8"/>
      </defs>
      <g>
       <use xlink:href="#mbcb02aef95" x="73.832727" y="307.584" style="stroke: #000000; stroke-width: 0.8"/>
      </g>
     </g>
     <g id="text_1">
      <!-- 0 -->
      <g transform="translate(70.651477 322.182437) scale(0.1 -0.1)">
       <defs>
        <path id="DejaVuSans-30" d="M 2034 4250 
Q 1547 4250 1301 3770 
Q 1056 3291 1056 2328 
Q 1056 1369 1301 889 
Q 1547 409 2034 409 
Q 2525 409 2770 889 
Q 3016 1369 3016 2328 
Q 3016 3291 2770 3770 
Q 2525 4250 2034 4250 
z
M 2034 4750 
Q 2819 4750 3233 4129 
Q 3647 3509 3647 2328 
Q 3647 1150 3233 529 
Q 2819 -91 2034 -91 
Q 1250 -91 836 529 
Q 422 1150 422 2328 
Q 422 3509 836 4129 
Q 1250 4750 2034 4750 
z
" transform="scale(0.015625)"/>
       </defs>
       <use xlink:href="#DejaVuSans-30"/>
      </g>
     </g>
    </g>
    <g id="xtick_2">
     <g id="line2d_2">
      <g>
       <use xlink:href="#mbcb02aef95" x="138.828632" y="307.584" style="stroke: #000000; stroke-width: 0.8"/>
      </g>
     </g>
     <g id="text_2">
      <!-- 200 -->
      <g transform="translate(129.284882 322.182437) scale(0.1 -0.1)">
       <defs>
        <path id="DejaVuSans-32" d="M 1228 531 
L 3431 531 
L 3431 0 
L 469 0 
L 469 531 
Q 828 903 1448 1529 
Q 2069 2156 2228 2338 
Q 2531 2678 2651 2914 
Q 2772 3150 2772 3378 
Q 2772 3750 2511 3984 
Q 2250 4219 1831 4219 
Q 1534 4219 1204 4116 
Q 875 4013 500 3803 
L 500 4441 
Q 881 4594 1212 4672 
Q 1544 4750 1819 4750 
Q 2544 4750 2975 4387 
Q 3406 4025 3406 3419 
Q 3406 3131 3298 2873 
Q 3191 2616 2906 2266 
Q 2828 2175 2409 1742 
Q 1991 1309 1228 531 
z
" transform="scale(0.015625)"/>
       </defs>
       <use xlink:href="#DejaVuSans-32"/>
       <use xlink:href="#DejaVuSans-30" x="63.623047"/>
       <use xlink:href="#DejaVuSans-30" x="127.246094"/>
      </g>
     </g>
    </g>
    <g id="xtick_3">
     <g id="line2d_3">
      <g>
       <use xlink:href="#mbcb02aef95" x="203.824537" y="307.584" style="stroke: #000000; stroke-width: 0.8"/>
      </g>
     </g>
     <g id="text_3">
      <!-- 400 -->
      <g transform="translate(194.280787 322.182437) scale(0.1 -0.1)">
       <defs>
        <path id="DejaVuSans-34" d="M 2419 4116 
L 825 1625 
L 2419 1625 
L 2419 4116 
z
M 2253 4666 
L 3047 4666 
L 3047 1625 
L 3713 1625 
L 3713 1100 
L 3047 1100 
L 3047 0 
L 2419 0 
L 2419 1100 
L 313 1100 
L 313 1709 
L 2253 4666 
z
" transform="scale(0.015625)"/>
       </defs>
       <use xlink:href="#DejaVuSans-34"/>
       <use xlink:href="#DejaVuSans-30" x="63.623047"/>
       <use xlink:href="#DejaVuSans-30" x="127.246094"/>
      </g>
     </g>
    </g>
    <g id="xtick_4">
     <g id="line2d_4">
      <g>
       <use xlink:href="#mbcb02aef95" x="268.820442" y="307.584" style="stroke: #000000; stroke-width: 0.8"/>
      </g>
     </g>
     <g id="text_4">
      <!-- 600 -->
      <g transform="translate(259.276692 322.182437) scale(0.1 -0.1)">
       <defs>
        <path id="DejaVuSans-36" d="M 2113 2584 
Q 1688 2584 1439 2293 
Q 1191 2003 1191 1497 
Q 1191 994 1439 701 
Q 1688 409 2113 409 
Q 2538 409 2786 701 
Q 3034 994 3034 1497 
Q 3034 2003 2786 2293 
Q 2538 2584 2113 2584 
z
M 3366 4563 
L 3366 3988 
Q 3128 4100 2886 4159 
Q 2644 4219 2406 4219 
Q 1781 4219 1451 3797 
Q 1122 3375 1075 2522 
Q 1259 2794 1537 2939 
Q 1816 3084 2150 3084 
Q 2853 3084 3261 2657 
Q 3669 2231 3669 1497 
Q 3669 778 3244 343 
Q 2819 -91 2113 -91 
Q 1303 -91 875 529 
Q 447 1150 447 2328 
Q 447 3434 972 4092 
Q 1497 4750 2381 4750 
Q 2619 4750 2861 4703 
Q 3103 4656 3366 4563 
z
" transform="scale(0.015625)"/>
       </defs>
       <use xlink:href="#DejaVuSans-36"/>
       <use xlink:href="#DejaVuSans-30" x="63.623047"/>
       <use xlink:href="#DejaVuSans-30" x="127.246094"/>
      </g>
     </g>
    </g>
    <g id="xtick_5">
     <g id="line2d_5">
      <g>
       <use xlink:href="#mbcb02aef95" x="333.816347" y="307.584" style="stroke: #000000; stroke-width: 0.8"/>
      </g>
     </g>
     <g id="text_5">
      <!-- 800 -->
      <g transform="translate(324.272597 322.182437) scale(0.1 -0.1)">
       <defs>
        <path id="DejaVuSans-38" d="M 2034 2216 
Q 1584 2216 1326 1975 
Q 1069 1734 1069 1313 
Q 1069 891 1326 650 
Q 1584 409 2034 409 
Q 2484 409 2743 651 
Q 3003 894 3003 1313 
Q 3003 1734 2745 1975 
Q 2488 2216 2034 2216 
z
M 1403 2484 
Q 997 2584 770 2862 
Q 544 3141 544 3541 
Q 544 4100 942 4425 
Q 1341 4750 2034 4750 
Q 2731 4750 3128 4425 
Q 3525 4100 3525 3541 
Q 3525 3141 3298 2862 
Q 3072 2584 2669 2484 
Q 3125 2378 3379 2068 
Q 3634 1759 3634 1313 
Q 3634 634 3220 271 
Q 2806 -91 2034 -91 
Q 1263 -91 848 271 
Q 434 634 434 1313 
Q 434 1759 690 2068 
Q 947 2378 1403 2484 
z
M 1172 3481 
Q 1172 3119 1398 2916 
Q 1625 2713 2034 2713 
Q 2441 2713 2670 2916 
Q 2900 3119 2900 3481 
Q 2900 3844 2670 4047 
Q 2441 4250 2034 4250 
Q 1625 4250 1398 4047 
Q 1172 3844 1172 3481 
z
" transform="scale(0.015625)"/>
       </defs>
       <use xlink:href="#DejaVuSans-38"/>
       <use xlink:href="#DejaVuSans-30" x="63.623047"/>
       <use xlink:href="#DejaVuSans-30" x="127.246094"/>
      </g>
     </g>
    </g>
    <g id="xtick_6">
     <g id="line2d_6">
      <g>
       <use xlink:href="#mbcb02aef95" x="398.812252" y="307.584" style="stroke: #000000; stroke-width: 0.8"/>
      </g>
     </g>
     <g id="text_6">
      <!-- 1000 -->
      <g transform="translate(386.087252 322.182437) scale(0.1 -0.1)">
       <defs>
        <path id="DejaVuSans-31" d="M 794 531 
L 1825 531 
L 1825 4091 
L 703 3866 
L 703 4441 
L 1819 4666 
L 2450 4666 
L 2450 531 
L 3481 531 
L 3481 0 
L 794 0 
L 794 531 
z
" transform="scale(0.015625)"/>
       </defs>
       <use xlink:href="#DejaVuSans-31"/>
       <use xlink:href="#DejaVuSans-30" x="63.623047"/>
       <use xlink:href="#DejaVuSans-30" x="127.246094"/>
       <use xlink:href="#DejaVuSans-30" x="190.869141"/>
      </g>
     </g>
    </g>
   </g>
   <g id="matplotlib.axis_2">
    <g id="ytick_1">
     <g id="line2d_7">
      <defs>
       <path id="me5179b328b" d="M 0 0 
L -3.5 0 
" style="stroke: #000000; stroke-width: 0.8"/>
      </defs>
      <g>
       <use xlink:href="#me5179b328b" x="57.6" y="292.794289" style="stroke: #000000; stroke-width: 0.8"/>
      </g>
     </g>
     <g id="text_7">
      <!-- −5 -->
      <g transform="translate(35.857813 296.593508) scale(0.1 -0.1)">
       <defs>
        <path id="DejaVuSans-2212" d="M 678 2272 
L 4684 2272 
L 4684 1741 
L 678 1741 
L 678 2272 
z
" transform="scale(0.015625)"/>
        <path id="DejaVuSans-35" d="M 691 4666 
L 3169 4666 
L 3169 4134 
L 1269 4134 
L 1269 2991 
Q 1406 3038 1543 3061 
Q 1681 3084 1819 3084 
Q 2600 3084 3056 2656 
Q 3513 2228 3513 1497 
Q 3513 744 3044 326 
Q 2575 -91 1722 -91 
Q 1428 -91 1123 -41 
Q 819 9 494 109 
L 494 744 
Q 775 591 1075 516 
Q 1375 441 1709 441 
Q 2250 441 2565 725 
Q 2881 1009 2881 1497 
Q 2881 1984 2565 2268 
Q 2250 2553 1709 2553 
Q 1456 2553 1204 2497 
Q 953 2441 691 2322 
L 691 4666 
z
" transform="scale(0.015625)"/>
       </defs>
       <use xlink:href="#DejaVuSans-2212"/>
       <use xlink:href="#DejaVuSans-35" x="83.789062"/>
      </g>
     </g>
    </g>
    <g id="ytick_2">
     <g id="line2d_8">
      <g>
       <use xlink:href="#me5179b328b" x="57.6" y="238.874192" style="stroke: #000000; stroke-width: 0.8"/>
      </g>
     </g>
     <g id="text_8">
      <!-- 0 -->
      <g transform="translate(44.2375 242.673411) scale(0.1 -0.1)">
       <use xlink:href="#DejaVuSans-30"/>
      </g>
     </g>
    </g>
    <g id="ytick_3">
     <g id="line2d_9">
      <g>
       <use xlink:href="#me5179b328b" x="57.6" y="184.954095" style="stroke: #000000; stroke-width: 0.8"/>
      </g>
     </g>
     <g id="text_9">
      <!-- 5 -->
      <g transform="translate(44.2375 188.753313) scale(0.1 -0.1)">
       <use xlink:href="#DejaVuSans-35"/>
      </g>
     </g>
    </g>
    <g id="ytick_4">
     <g id="line2d_10">
      <g>
       <use xlink:href="#me5179b328b" x="57.6" y="131.033998" style="stroke: #000000; stroke-width: 0.8"/>
      </g>
     </g>
     <g id="text_10">
      <!-- 10 -->
      <g transform="translate(37.875 134.833216) scale(0.1 -0.1)">
       <use xlink:href="#DejaVuSans-31"/>
       <use xlink:href="#DejaVuSans-30" x="63.623047"/>
      </g>
     </g>
    </g>
    <g id="ytick_5">
     <g id="line2d_11">
      <g>
       <use xlink:href="#me5179b328b" x="57.6" y="77.113901" style="stroke: #000000; stroke-width: 0.8"/>
      </g>
     </g>
     <g id="text_11">
      <!-- 15 -->
      <g transform="translate(37.875 80.913119) scale(0.1 -0.1)">
       <use xlink:href="#DejaVuSans-31"/>
       <use xlink:href="#DejaVuSans-35" x="63.623047"/>
      </g>
     </g>
    </g>
   </g>
   <g id="line2d_12">
    <path d="M 73.832727 168.015117 
L 74.157707 189.669193 
L 74.807666 133.015634 
L 75.132645 192.939208 
L 75.457625 192.938648 
L 75.782604 131.099679 
L 76.107584 158.782987 
L 76.432563 200.96414 
L 76.757543 166.451678 
L 77.082523 200.757594 
L 77.407502 200.83644 
L 77.732482 176.702682 
L 78.057461 250.200899 
L 78.382441 243.777353 
L 78.70742 204.12926 
L 79.0324 219.493726 
L 79.357379 174.237612 
L 79.682359 215.91959 
L 80.007338 233.116565 
L 80.332318 134.972447 
L 80.657297 192.653532 
L 80.982277 182.651244 
L 81.307256 233.540948 
L 81.957215 181.171405 
L 82.282195 224.205351 
L 82.607174 172.142017 
L 82.932154 205.437114 
L 83.257133 194.901454 
L 83.582113 205.473532 
L 83.907093 121.787586 
L 84.232072 185.414378 
L 84.557052 221.02422 
L 84.882031 156.903616 
L 85.207011 226.587383 
L 85.53199 177.831415 
L 85.85697 251.78289 
L 86.181949 230.24798 
L 86.506929 178.24072 
L 86.831908 159.77086 
L 87.156888 179.110083 
L 87.481867 188.89794 
L 87.806847 195.222352 
L 88.131826 235.374746 
L 88.456806 209.502268 
L 88.781785 200.662827 
L 89.106765 148.904045 
L 89.431744 173.236002 
L 89.756724 245.077402 
L 90.081704 173.902163 
L 90.406683 198.086195 
L 90.731663 208.038532 
L 91.056642 164.094671 
L 91.381622 149.794883 
L 91.706601 153.195521 
L 92.031581 213.573144 
L 92.68154 173.657328 
L 93.006519 151.685993 
L 93.331499 201.294925 
L 93.656478 191.285449 
L 93.981458 222.6824 
L 94.306437 225.747209 
L 94.631417 157.245287 
L 94.956396 138.703511 
L 95.281376 187.409788 
L 95.606355 150.731552 
L 95.931335 172.62156 
L 96.256314 206.95401 
L 96.906274 132.503874 
L 97.231253 186.175837 
L 97.556233 131.596517 
L 97.881212 274.292809 
L 98.206192 156.925523 
L 98.531171 181.98561 
L 98.856151 195.150862 
L 99.18113 181.824863 
L 99.50611 252.734296 
L 99.831089 192.445359 
L 100.156069 172.775819 
L 100.481048 134.554858 
L 100.806028 202.628179 
L 101.131007 212.525395 
L 101.455987 202.065045 
L 101.780966 153.736993 
L 102.105946 173.743003 
L 102.430925 203.020011 
L 102.755905 167.450616 
L 103.080885 181.64355 
L 103.405864 151.921302 
L 103.730844 208.895554 
L 104.055823 196.12805 
L 104.380803 198.325792 
L 104.705782 234.862975 
L 105.030762 174.855782 
L 105.355741 176.051571 
L 106.0057 192.954 
L 106.33068 233.221158 
L 106.655659 199.298968 
L 106.980639 196.641367 
L 107.305618 212.313405 
L 107.955577 171.175127 
L 108.280557 120.631263 
L 108.605536 179.000631 
L 108.930516 176.171095 
L 109.255495 187.492854 
L 109.580475 250.388153 
L 109.905455 185.858273 
L 110.230434 182.90012 
L 110.555414 100.952455 
L 110.880393 191.514001 
L 111.205373 174.670708 
L 111.530352 186.137838 
L 111.855332 224.808428 
L 112.180311 145.981478 
L 112.505291 159.311627 
L 112.83027 157.978273 
L 113.15525 215.966084 
L 113.480229 137.115914 
L 113.805209 232.760109 
L 114.455168 110.255037 
L 114.780147 218.733428 
L 115.105127 204.266016 
L 115.430106 181.555778 
L 115.755086 202.123654 
L 116.080066 237.834918 
L 116.405045 182.615956 
L 116.730025 221.180844 
L 117.055004 168.803615 
L 117.379984 216.308359 
L 117.704963 132.098133 
L 118.029943 211.664648 
L 118.354922 195.937057 
L 118.679902 157.211479 
L 119.004881 226.929108 
L 119.65484 140.377829 
L 119.97982 239.77259 
L 120.304799 178.657699 
L 120.629779 176.091555 
L 120.954758 158.292321 
L 121.279738 227.136667 
L 121.604717 229.98439 
L 121.929697 167.15481 
L 122.254676 174.826304 
L 122.579656 176.411772 
L 122.904636 173.139496 
L 123.229615 208.144341 
L 123.554595 177.033764 
L 123.879574 174.959719 
L 124.204554 209.314952 
L 124.529533 121.327333 
L 125.179492 225.580002 
L 125.504472 162.564262 
L 125.829451 218.192751 
L 126.154431 158.112885 
L 126.47941 145.443594 
L 126.80439 212.941055 
L 127.129369 152.100981 
L 127.454349 170.877413 
L 127.779328 156.920147 
L 128.104308 120.26954 
L 128.429287 193.322336 
L 128.754267 210.658053 
L 129.079247 215.288372 
L 129.404226 212.774909 
L 129.729206 187.583422 
L 130.054185 173.320108 
L 130.379165 175.518367 
L 130.704144 156.745439 
L 131.029124 184.510703 
L 131.354103 135.385583 
L 131.679083 193.979439 
L 132.004062 92.190713 
L 132.654021 214.184936 
L 132.979001 221.473739 
L 133.30398 168.50079 
L 133.62896 192.574637 
L 133.953939 160.605204 
L 134.278919 168.815715 
L 134.603898 187.437711 
L 135.253857 236.613511 
L 135.903817 155.749128 
L 136.228796 177.653056 
L 136.553776 227.436358 
L 136.878755 179.048268 
L 137.203735 171.813977 
L 137.528714 215.095457 
L 137.853694 179.711751 
L 138.178673 182.969057 
L 138.503653 223.931741 
L 138.828632 172.752807 
L 139.153612 165.830185 
L 139.478591 148.019812 
L 139.803571 149.01727 
L 140.12855 231.935463 
L 140.45353 216.935864 
L 140.778509 167.390329 
L 141.428468 167.389906 
L 141.753448 53.568 
L 142.078428 165.48555 
L 142.403407 146.228963 
L 142.728387 152.420666 
L 143.053366 162.740309 
L 143.378346 195.705427 
L 143.703325 159.071678 
L 144.028305 211.309029 
L 144.353284 193.030098 
L 144.678264 201.505993 
L 145.003243 182.162018 
L 145.328223 106.019461 
L 145.653202 248.631691 
L 145.978182 161.551206 
L 146.303161 239.951034 
L 146.628141 201.047945 
L 146.95312 147.818632 
L 147.603079 221.707416 
L 147.928059 209.347427 
L 148.253038 161.778409 
L 148.578018 209.861104 
L 148.902998 177.57241 
L 149.227977 183.400001 
L 149.552957 207.175011 
L 149.877936 111.841177 
L 150.202916 163.336148 
L 150.527895 254.015636 
L 150.852875 178.595618 
L 151.177854 207.522379 
L 151.502834 155.884359 
L 151.827813 211.980687 
L 152.477772 167.732986 
L 152.802752 155.430056 
L 153.127731 225.886679 
L 153.452711 196.361277 
L 154.10267 207.23397 
L 154.427649 124.748462 
L 155.077609 227.95284 
L 155.402588 153.653108 
L 155.727568 112.584189 
L 156.052547 149.744899 
L 156.377527 236.767746 
L 156.702506 201.467476 
L 157.027486 141.74981 
L 157.352465 209.087084 
L 157.677445 169.818936 
L 158.002424 158.537475 
L 158.327404 216.564337 
L 158.652383 186.984032 
L 158.977363 295.488 
L 159.302342 219.887827 
L 159.627322 193.56719 
L 159.952301 227.506076 
L 160.277281 129.2855 
L 160.60226 233.724867 
L 160.92724 199.96052 
L 161.252219 180.495571 
L 161.577199 135.803701 
L 161.902179 233.919957 
L 162.227158 145.28781 
L 162.877117 218.425565 
L 163.202097 169.195413 
L 163.527076 178.165748 
L 163.852056 205.422729 
L 164.177035 182.5737 
L 164.502015 198.094084 
L 165.151974 162.374072 
L 165.476953 130.867648 
L 165.801933 227.166158 
L 166.126912 112.213255 
L 166.451892 251.524317 
L 166.776871 190.13028 
L 167.101851 164.891264 
L 167.42683 175.371692 
L 167.75181 206.189433 
L 168.07679 192.051493 
L 168.401769 201.766444 
L 168.726749 205.052649 
L 169.051728 155.98091 
L 169.376708 172.77913 
L 169.701687 208.583742 
L 170.026667 154.275882 
L 170.351646 174.474547 
L 170.676626 157.233819 
L 171.001605 163.482452 
L 171.326585 213.224535 
L 171.651564 204.057424 
L 171.976544 159.469841 
L 172.301523 164.139209 
L 172.626503 185.666882 
L 172.951482 180.952989 
L 173.276462 141.383085 
L 173.601441 205.1279 
L 173.926421 166.296945 
L 174.2514 191.849281 
L 174.57638 192.377473 
L 174.90136 147.483537 
L 175.226339 156.805694 
L 175.551319 157.211737 
L 175.876298 140.434573 
L 176.201278 184.23782 
L 176.526257 161.698091 
L 176.851237 195.534831 
L 177.176216 173.899353 
L 177.501196 189.392241 
L 177.826175 181.646332 
L 178.151155 164.658012 
L 178.476134 212.857109 
L 178.801114 113.599371 
L 179.126093 219.261364 
L 179.451073 226.360432 
L 179.776052 145.460124 
L 180.101032 157.956763 
L 180.426011 163.670321 
L 180.750991 163.526216 
L 181.075971 185.371735 
L 181.40095 215.55232 
L 181.72593 182.369003 
L 182.050909 208.046707 
L 182.375889 151.700499 
L 182.700868 189.969055 
L 183.025848 213.105253 
L 183.350827 195.914015 
L 183.675807 170.87228 
L 184.000786 204.178265 
L 184.325766 212.993507 
L 184.650745 176.643858 
L 184.975725 176.600229 
L 185.300704 202.241903 
L 185.625684 201.017473 
L 185.950663 177.040713 
L 186.275643 234.336759 
L 186.600622 232.951514 
L 187.250581 192.233083 
L 187.575561 174.351505 
L 187.900541 134.641403 
L 188.22552 155.706132 
L 188.5505 190.408329 
L 188.875479 185.602587 
L 189.200459 219.142415 
L 189.525438 185.585431 
L 189.850418 194.79795 
L 190.175397 173.948726 
L 190.500377 213.164377 
L 191.150336 132.684535 
L 191.475315 188.66304 
L 191.800295 171.254896 
L 192.125274 161.41876 
L 192.450254 198.636541 
L 192.775233 177.312079 
L 193.100213 184.524668 
L 193.425192 181.623138 
L 193.750172 211.315324 
L 194.075152 184.118247 
L 194.400131 167.971325 
L 194.725111 135.467103 
L 195.05009 152.24098 
L 195.37507 111.526129 
L 195.700049 211.12223 
L 196.025029 155.206161 
L 196.350008 178.701754 
L 196.674988 110.277296 
L 196.999967 212.518734 
L 197.324947 213.590342 
L 197.649926 205.394621 
L 197.974906 257.383322 
L 198.299885 202.883426 
L 198.624865 210.842085 
L 198.949844 179.825356 
L 199.274824 173.299511 
L 199.599803 120.972797 
L 199.924783 152.54268 
L 200.249762 204.6277 
L 200.574742 215.591889 
L 200.899722 168.178636 
L 201.224701 229.976772 
L 201.549681 122.497571 
L 201.87466 144.732753 
L 202.524619 243.375518 
L 202.849599 138.784253 
L 203.174578 188.86014 
L 203.499558 142.742004 
L 203.824537 239.327368 
L 204.149517 205.39402 
L 204.474496 184.775274 
L 204.799476 183.35196 
L 205.124455 200.302256 
L 205.449435 163.713627 
L 205.774414 221.362155 
L 206.099394 189.809529 
L 206.424373 180.851765 
L 206.749353 167.410669 
L 207.074333 160.686559 
L 207.399312 223.306711 
L 207.724292 237.270554 
L 208.049271 141.382678 
L 208.69923 210.47903 
L 209.02421 132.056611 
L 209.349189 181.009351 
L 209.674169 144.737627 
L 209.999148 182.651575 
L 210.324128 114.678338 
L 210.649107 125.093349 
L 210.974087 193.444286 
L 211.299066 151.82152 
L 211.624046 162.945443 
L 211.949025 138.280934 
L 212.274005 217.859976 
L 212.598984 161.558324 
L 212.923964 148.859635 
L 213.248943 244.930741 
L 213.573923 225.305652 
L 213.898903 254.49612 
L 214.223882 194.141424 
L 214.873841 133.720619 
L 215.198821 182.42731 
L 215.5238 129.414944 
L 215.84878 232.018403 
L 216.173759 243.042951 
L 216.498739 186.848386 
L 216.823718 171.85667 
L 217.148698 186.069053 
L 217.473677 255.458137 
L 217.798657 187.993272 
L 218.123636 229.439197 
L 218.448616 162.116879 
L 218.773595 172.452338 
L 219.098575 217.005935 
L 219.423554 202.478017 
L 219.748534 221.075462 
L 220.398493 152.38177 
L 220.723473 218.569387 
L 221.048452 167.765068 
L 221.373432 203.036974 
L 221.698411 211.992695 
L 222.023391 188.604051 
L 222.34837 220.257994 
L 222.67335 203.834679 
L 222.998329 225.804203 
L 223.323309 117.952913 
L 223.648288 183.751535 
L 223.973268 208.816179 
L 224.298247 177.656938 
L 224.623227 188.784713 
L 224.948206 192.489614 
L 225.273186 164.009743 
L 225.598165 159.121519 
L 225.923145 203.045279 
L 226.248124 204.590685 
L 226.573104 194.333925 
L 226.898084 263.454357 
L 227.223063 236.625237 
L 227.548043 138.340861 
L 227.873022 128.857301 
L 228.198002 193.446738 
L 228.522981 165.292312 
L 228.847961 174.339822 
L 229.17294 79.957905 
L 229.49792 146.77428 
L 230.147879 217.539996 
L 230.472858 239.737229 
L 230.797838 178.015565 
L 231.447797 233.455881 
L 231.772776 207.003564 
L 232.097756 221.837114 
L 232.422735 127.419083 
L 233.072695 185.225978 
L 233.397674 134.484945 
L 234.047633 214.325663 
L 234.372613 133.01242 
L 234.697592 166.57615 
L 235.022572 220.326329 
L 235.347551 191.445036 
L 235.99751 232.110419 
L 236.32249 153.369529 
L 236.647469 119.839047 
L 236.972449 232.648135 
L 237.297428 165.755682 
L 237.622408 207.142349 
L 237.947387 201.566076 
L 238.272367 205.15595 
L 238.597346 214.417963 
L 238.922326 183.299407 
L 239.247305 213.291209 
L 239.572285 175.730959 
L 239.897265 186.667318 
L 240.222244 193.102716 
L 240.547224 215.903889 
L 240.872203 204.623187 
L 241.197183 159.193695 
L 241.522162 167.871785 
L 241.847142 218.290746 
L 242.172121 181.566658 
L 242.497101 159.330243 
L 242.82208 241.88426 
L 243.14706 166.424391 
L 243.472039 207.550932 
L 243.797019 165.495503 
L 244.446978 246.504299 
L 244.771957 240.456651 
L 245.096937 183.314299 
L 245.421916 176.097021 
L 245.746896 215.793158 
L 246.071876 163.176774 
L 246.396855 241.615358 
L 246.721835 187.207552 
L 247.046814 226.252246 
L 247.696773 183.337702 
L 248.021753 214.295966 
L 248.346732 198.068232 
L 248.671712 150.637433 
L 248.996691 204.627298 
L 249.321671 156.455269 
L 249.64665 223.47943 
L 249.97163 166.886679 
L 250.296609 135.79363 
L 250.621589 269.242273 
L 251.271548 165.274744 
L 251.596527 191.878361 
L 251.921507 172.297254 
L 252.246486 205.551236 
L 252.571466 182.001204 
L 252.896446 190.26301 
L 253.221425 145.130316 
L 253.546405 176.277819 
L 253.871384 173.441147 
L 254.196364 198.999949 
L 254.521343 201.582473 
L 254.846323 199.705222 
L 255.171302 171.502463 
L 255.496282 199.310534 
L 255.821261 175.072174 
L 256.146241 114.178644 
L 256.7962 196.07217 
L 257.121179 143.990221 
L 257.771138 254.458347 
L 258.096118 219.331918 
L 258.421097 248.75196 
L 258.746077 196.94143 
L 259.071057 184.32599 
L 259.396036 127.784123 
L 259.721016 173.805197 
L 260.045995 192.425875 
L 260.370975 156.669653 
L 260.695954 260.358372 
L 261.020934 176.919152 
L 261.345913 158.666001 
L 261.670893 235.376937 
L 261.995872 145.949721 
L 262.645831 199.11627 
L 262.970811 163.374927 
L 263.29579 107.518782 
L 263.62077 178.75208 
L 263.945749 176.48926 
L 264.270729 200.619249 
L 264.595708 213.935542 
L 264.920688 156.63793 
L 265.245667 214.14832 
L 265.570647 182.513538 
L 265.895627 201.243199 
L 266.220606 168.619894 
L 266.545586 173.575528 
L 266.870565 149.571841 
L 267.195545 202.346706 
L 267.520524 194.157387 
L 267.845504 218.331957 
L 268.170483 200.105412 
L 268.495463 172.087369 
L 268.820442 159.139221 
L 269.145422 216.401835 
L 269.470401 155.298738 
L 269.795381 138.724046 
L 270.12036 170.855111 
L 270.44534 120.951484 
L 270.770319 211.341903 
L 271.420278 245.612126 
L 271.745258 133.935896 
L 272.395217 186.849647 
L 272.720197 175.406587 
L 273.045176 223.335594 
L 273.370156 101.548905 
L 273.695135 180.547386 
L 274.020115 181.223506 
L 274.345094 160.203955 
L 274.995053 177.319187 
L 275.320033 211.910905 
L 275.969992 120.773175 
L 276.294971 139.072495 
L 276.619951 130.623143 
L 276.94493 202.387604 
L 277.26991 218.701661 
L 277.594889 189.243688 
L 277.919869 183.05376 
L 278.244848 147.639906 
L 278.569828 242.670631 
L 278.894808 132.793272 
L 279.219787 190.34249 
L 279.544767 199.51162 
L 280.194726 241.388122 
L 280.519705 156.882279 
L 280.844685 182.453801 
L 281.169664 228.944423 
L 281.494644 229.118953 
L 281.819623 196.405046 
L 282.144603 128.037016 
L 282.469582 193.806696 
L 282.794562 236.214371 
L 283.119541 193.33444 
L 283.444521 194.254531 
L 283.7695 276.923495 
L 284.09448 186.805662 
L 284.419459 192.829439 
L 285.069419 121.900876 
L 285.394398 146.535902 
L 285.719378 194.123754 
L 286.044357 222.688912 
L 286.369337 97.197215 
L 286.694316 182.934624 
L 287.344275 185.77681 
L 287.669255 178.198996 
L 288.319214 204.517153 
L 288.644193 203.603113 
L 288.969173 186.071049 
L 289.294152 203.486001 
L 289.619132 209.263607 
L 289.944111 181.324604 
L 290.269091 193.649344 
L 290.59407 133.66483 
L 290.91905 275.357636 
L 291.244029 147.731459 
L 291.569009 142.460018 
L 291.893989 255.66098 
L 292.218968 196.640449 
L 292.543948 197.620995 
L 292.868927 232.953148 
L 293.193907 211.479249 
L 293.518886 222.827023 
L 293.843866 125.198056 
L 294.168845 153.045531 
L 294.493825 141.591442 
L 294.818804 160.343588 
L 295.143784 223.45709 
L 295.468763 202.841318 
L 295.793743 168.265412 
L 296.118722 226.631175 
L 296.443702 160.639377 
L 296.768681 193.149687 
L 297.093661 197.736258 
L 297.41864 160.708893 
L 297.74362 169.803799 
L 298.0686 197.263786 
L 298.393579 145.418556 
L 298.718559 221.820585 
L 299.043538 163.949419 
L 299.368518 164.728118 
L 299.693497 195.510267 
L 300.018477 173.832286 
L 300.343456 227.61965 
L 300.668436 153.442866 
L 300.993415 191.259639 
L 301.318395 202.780028 
L 301.643374 149.180715 
L 301.968354 208.973668 
L 302.293333 232.985532 
L 302.618313 238.038362 
L 302.943292 164.287905 
L 303.268272 228.619378 
L 303.593251 125.111992 
L 303.918231 255.952184 
L 304.24321 127.101432 
L 304.56819 177.757964 
L 304.89317 188.252211 
L 305.218149 203.53696 
L 305.543129 171.34273 
L 305.868108 186.237516 
L 306.193088 147.329224 
L 306.518067 181.058696 
L 306.843047 179.828494 
L 307.168026 197.354022 
L 307.817985 174.457419 
L 308.142965 243.274366 
L 308.467944 230.93 
L 308.792924 159.607255 
L 309.117903 179.127231 
L 309.442883 191.228306 
L 309.767862 184.32546 
L 310.092842 173.100841 
L 310.417821 203.361014 
L 310.742801 211.495892 
L 311.067781 178.275367 
L 311.39276 218.318625 
L 311.71774 171.031833 
L 312.042719 243.015709 
L 312.367699 149.857764 
L 312.692678 168.837545 
L 313.017658 176.222952 
L 313.667617 128.157979 
L 313.992596 150.361982 
L 314.317576 247.731705 
L 315.617494 167.300854 
L 315.942473 209.703456 
L 316.267453 178.584963 
L 316.592432 210.714212 
L 316.917412 205.808114 
L 317.242391 232.924141 
L 317.567371 216.438254 
L 317.892351 231.049329 
L 318.21733 218.233387 
L 318.54231 149.022735 
L 318.867289 217.330556 
L 319.192269 95.184434 
L 319.517248 168.130936 
L 319.842228 178.650801 
L 320.167207 214.225866 
L 320.492187 161.072083 
L 320.817166 204.584533 
L 321.142146 180.793308 
L 321.467125 97.649929 
L 321.792105 188.229936 
L 322.117084 145.761503 
L 322.442064 208.933862 
L 322.767043 186.147274 
L 323.092023 124.566139 
L 323.417002 206.334965 
L 323.741982 123.145859 
L 324.391941 204.135373 
L 324.716921 163.387686 
L 325.0419 151.787981 
L 325.36688 163.749092 
L 325.691859 238.501998 
L 326.016839 209.750973 
L 326.341818 193.394991 
L 326.666798 187.492428 
L 326.991777 163.787895 
L 327.316757 178.894124 
L 327.641736 230.492093 
L 327.966716 171.988563 
L 328.291695 164.131861 
L 328.616675 165.864085 
L 328.941654 148.097242 
L 329.266634 156.515628 
L 329.591613 169.295106 
L 329.916593 187.34689 
L 330.241572 241.59629 
L 330.566552 170.303227 
L 330.891532 177.871516 
L 331.216511 175.692696 
L 331.541491 228.493856 
L 331.86647 221.820354 
L 332.19145 149.039409 
L 332.516429 186.303007 
L 332.841409 161.713515 
L 333.166388 183.98838 
L 333.491368 183.939349 
L 333.816347 152.956681 
L 334.141327 202.552285 
L 334.466306 181.676178 
L 334.791286 200.718636 
L 335.116265 199.771313 
L 335.441245 195.497502 
L 335.766224 177.378875 
L 336.091204 201.280411 
L 336.416183 142.130219 
L 336.741163 215.46205 
L 337.066143 191.326803 
L 337.391122 199.949831 
L 337.716102 135.609163 
L 338.041081 178.251171 
L 338.366061 149.766066 
L 338.69104 235.614769 
L 339.01602 175.84713 
L 339.340999 154.615849 
L 339.665979 182.148041 
L 339.990958 148.619015 
L 340.315938 202.594698 
L 340.640917 136.892439 
L 340.965897 106.556924 
L 341.290876 197.327638 
L 341.615856 200.14665 
L 341.940835 135.390685 
L 342.265815 131.087425 
L 342.590794 202.784701 
L 342.915774 199.283332 
L 343.240753 194.563531 
L 343.565733 230.802632 
L 343.890713 216.282022 
L 344.215692 219.197367 
L 344.540672 211.137576 
L 344.865651 186.136921 
L 345.190631 176.966889 
L 345.51561 132.078828 
L 345.84059 219.000028 
L 346.165569 151.38667 
L 346.490549 192.251556 
L 346.815528 186.640909 
L 347.140508 161.941357 
L 347.465487 223.241233 
L 347.790467 171.913133 
L 348.115446 179.277731 
L 348.440426 168.16049 
L 348.765405 175.092847 
L 349.090385 101.223293 
L 349.415364 206.702344 
L 349.740344 203.062187 
L 350.065324 206.204473 
L 350.390303 203.897011 
L 350.715283 206.690311 
L 351.040262 144.406177 
L 351.365242 136.511968 
L 351.690221 204.417721 
L 352.015201 213.339137 
L 352.34018 168.877851 
L 352.66516 203.78604 
L 352.990139 163.369814 
L 353.315119 178.034001 
L 353.640098 236.644097 
L 353.965078 132.180974 
L 354.290057 123.71096 
L 354.615037 205.851454 
L 354.940016 198.175518 
L 355.264996 175.205495 
L 355.589975 173.548428 
L 355.914955 162.496376 
L 356.239934 116.401971 
L 356.564914 190.98836 
L 357.214873 231.991727 
L 357.864832 186.083793 
L 358.189812 123.755968 
L 358.514791 202.605708 
L 358.839771 177.322464 
L 359.16475 185.514149 
L 359.814709 98.780484 
L 360.139689 203.057815 
L 360.464668 201.64499 
L 360.789648 149.346054 
L 361.114627 161.700188 
L 361.439607 121.977564 
L 362.089566 197.206696 
L 362.414545 164.811546 
L 362.739525 147.145015 
L 363.389484 167.655003 
L 363.714464 148.578286 
L 364.039443 145.078702 
L 364.364423 137.819621 
L 365.014382 190.653166 
L 365.339361 179.950855 
L 365.664341 143.809649 
L 365.98932 212.813287 
L 366.3143 172.381574 
L 366.639279 198.36776 
L 366.964259 183.973837 
L 367.289238 141.356248 
L 367.614218 178.437222 
L 367.939197 183.370513 
L 368.264177 231.327995 
L 368.589156 159.505308 
L 368.914136 162.941752 
L 369.239115 111.182644 
L 369.564095 195.449968 
L 369.889075 177.480616 
L 370.214054 176.449596 
L 370.539034 131.159682 
L 370.864013 188.203869 
L 371.513972 164.223569 
L 371.838952 178.590339 
L 372.163931 200.178402 
L 372.488911 178.335225 
L 372.81389 148.341036 
L 373.13887 219.960385 
L 373.463849 180.419554 
L 373.788829 208.829659 
L 374.113808 144.200538 
L 374.438788 236.897912 
L 375.413726 131.566495 
L 375.738706 187.196314 
L 376.063686 203.887544 
L 376.388665 120.802756 
L 376.713645 234.334357 
L 377.038624 259.937915 
L 377.363604 169.948694 
L 377.688583 202.07518 
L 378.013563 219.780241 
L 378.338542 160.797678 
L 378.663522 176.639987 
L 379.313481 228.615117 
L 379.63846 155.201499 
L 379.96344 162.780893 
L 380.288419 188.336196 
L 380.613399 121.979962 
L 380.938378 221.446194 
L 381.263358 236.977651 
L 381.913317 186.508672 
L 382.238296 176.655717 
L 382.563276 193.180742 
L 382.888256 172.948279 
L 383.213235 227.634172 
L 383.538215 135.718742 
L 383.863194 187.755619 
L 384.188174 146.852001 
L 384.513153 173.266453 
L 385.163112 165.523855 
L 385.488092 169.686309 
L 385.813071 163.035922 
L 386.138051 139.62725 
L 386.46303 178.252317 
L 386.78801 160.775603 
L 387.112989 188.014267 
L 387.437969 135.843126 
L 387.762948 208.020468 
L 388.087928 123.538309 
L 388.737887 233.746478 
L 389.062867 180.58547 
L 389.387846 208.179362 
L 389.712826 156.286415 
L 390.037805 207.209919 
L 390.362785 200.169871 
L 390.687764 249.391333 
L 391.012744 200.378674 
L 391.337723 267.613382 
L 391.662703 238.96845 
L 391.987682 159.022386 
L 392.312662 158.156688 
L 392.637641 170.445114 
L 392.962621 217.929977 
L 393.2876 186.58115 
L 393.61258 185.076949 
L 393.937559 224.456721 
L 394.262539 133.68511 
L 394.587518 155.03423 
L 394.912498 192.489429 
L 395.562457 177.847811 
L 395.887437 254.581467 
L 396.212416 193.383354 
L 396.862375 219.111404 
L 397.187355 194.540195 
L 397.512334 123.649274 
L 398.162293 204.432477 
L 398.487273 165.42784 
L 398.487273 165.42784 
" clip-path="url(#p0f834e2270)" style="fill: none; stroke: #1f77b4; stroke-width: 1.5; stroke-linecap: square"/>
   </g>
   <g id="patch_3">
    <path d="M 57.6 307.584 
L 57.6 41.472 
" style="fill: none; stroke: #000000; stroke-width: 0.8; stroke-linejoin: miter; stroke-linecap: square"/>
   </g>
   <g id="patch_4">
    <path d="M 414.72 307.584 
L 414.72 41.472 
" style="fill: none; stroke: #000000; stroke-width: 0.8; stroke-linejoin: miter; stroke-linecap: square"/>
   </g>
   <g id="patch_5">
    <path d="M 57.6 307.584 
L 414.72 307.584 
" style="fill: none; stroke: #000000; stroke-width: 0.8; stroke-linejoin: miter; stroke-linecap: square"/>
   </g>
   <g id="patch_6">
    <path d="M 57.6 41.472 
L 414.72 41.472 
" style="fill: none; stroke: #000000; stroke-width: 0.8; stroke-linejoin: miter; stroke-linecap: square"/>
   </g>
  </g>
 </g>
 <defs>
  <clipPath id="p0f834e2270">
   <rect x="57.6" y="41.472" width="357.12" height="266.112"/>
  </clipPath>
 </defs>
</svg>
