<?xml version="1.0" encoding="utf-8" standalone="no"?>
<!DOCTYPE svg PUBLIC "-//W3C//DTD SVG 1.1//EN"
  "http://www.w3.org/Graphics/SVG/1.1/DTD/svg11.dtd">
<svg xmlns:xlink="http://www.w3.org/1999/xlink" width="460.8pt" height="345.6pt" viewBox="0 0 460.8 345.6" xmlns="http://www.w3.org/2000/svg" version="1.1">
 <metadata>
  <rdf:RDF xmlns:dc="http://purl.org/dc/elements/1.1/" xmlns:cc="http://creativecommons.org/ns#" xmlns:rdf="http://www.w3.org/1999/02/22-rdf-syntax-ns#">
   <cc:Work>
    <dc:type rdf:resource="http://purl.org/dc/dcmitype/StillImage"/>
    <dc:format>image/svg+xml</dc:format>
    <dc:creator>
     <cc:Agent>
      <dc:title>Matplotlib v3.8.4, https://matplotlib.org/</dc:title>
     </cc:Agent>
    </dc:creator>
   </cc:Work>
  </rdf:RDF>
 </metadata>
 <defs>
  <style type="text/css">*{stroke-linejoin: round; stroke-linecap: butt}</style>
 </defs>
 <g id="figure_1">
  <g id="patch_1">
   <path d="M 0 345.6 
L 460.8 345.6 
L 460.8 0 
L 0 0 
z
" style="fill: #ffffff"/>
  </g>
  <g id="axes_1">
   <g id="patch_2">
    <path d="M 57.6 307.584 
L 414.72 307.584 
L 414.72 41.472 
L 57.6 41.472 
z
" style="fill: #ffffff"/>
   </g>
   <g id="matplotlib.axis_1">
    <g id="xtick_1">
     <g id="line2d_1">
      <defs>
       <path id="mbcb02aef95" d="M 0 0 
L 0 3.5 
" style="stroke: #000000; stroke-width: 0.8"/>
      </defs>
      <g>
       <use xlink:href="#mbcb02aef95" x="73.832727" y="307.584" style="stroke: #000000; stroke-width: 0.8"/>
      </g>
     </g>
     <g id="text_1">
      <!-- 0 -->
      <g transform="translate(70.651477 322.182437) scale(0.1 -0.1)">
       <defs>
        <path id="DejaVuSans-30" d="M 2034 4250 
Q 1547 4250 1301 3770 
Q 1056 3291 1056 2328 
Q 1056 1369 1301 889 
Q 1547 409 2034 409 
Q 2525 409 2770 889 
Q 3016 1369 3016 2328 
Q 3016 3291 2770 3770 
Q 2525 4250 2034 4250 
z
M 2034 4750 
Q 2819 4750 3233 4129 
Q 3647 3509 3647 2328 
Q 3647 1150 3233 529 
Q 2819 -91 2034 -91 
Q 1250 -91 836 529 
Q 422 1150 422 2328 
Q 422 3509 836 4129 
Q 1250 4750 2034 4750 
z
" transform="scale(0.015625)"/>
       </defs>
       <use xlink:href="#DejaVuSans-30"/>
      </g>
     </g>
    </g>
    <g id="xtick_2">
     <g id="line2d_2">
      <g>
       <use xlink:href="#mbcb02aef95" x="138.828632" y="307.584" style="stroke: #000000; stroke-width: 0.8"/>
      </g>
     </g>
     <g id="text_2">
      <!-- 200 -->
      <g transform="translate(129.284882 322.182437) scale(0.1 -0.1)">
       <defs>
        <path id="DejaVuSans-32" d="M 1228 531 
L 3431 531 
L 3431 0 
L 469 0 
L 469 531 
Q 828 903 1448 1529 
Q 2069 2156 2228 2338 
Q 2531 2678 2651 2914 
Q 2772 3150 2772 3378 
Q 2772 3750 2511 3984 
Q 2250 4219 1831 4219 
Q 1534 4219 1204 4116 
Q 875 4013 500 3803 
L 500 4441 
Q 881 4594 1212 4672 
Q 1544 4750 1819 4750 
Q 2544 4750 2975 4387 
Q 3406 4025 3406 3419 
Q 3406 3131 3298 2873 
Q 3191 2616 2906 2266 
Q 2828 2175 2409 1742 
Q 1991 1309 1228 531 
z
" transform="scale(0.015625)"/>
       </defs>
       <use xlink:href="#DejaVuSans-32"/>
       <use xlink:href="#DejaVuSans-30" x="63.623047"/>
       <use xlink:href="#DejaVuSans-30" x="127.246094"/>
      </g>
     </g>
    </g>
    <g id="xtick_3">
     <g id="line2d_3">
      <g>
       <use xlink:href="#mbcb02aef95" x="203.824537" y="307.584" style="stroke: #000000; stroke-width: 0.8"/>
      </g>
     </g>
     <g id="text_3">
      <!-- 400 -->
      <g transform="translate(194.280787 322.182437) scale(0.1 -0.1)">
       <defs>
        <path id="DejaVuSans-34" d="M 2419 4116 
L 825 1625 
L 2419 1625 
L 2419 4116 
z
M 2253 4666 
L 3047 4666 
L 3047 1625 
L 3713 1625 
L 3713 1100 
L 3047 1100 
L 3047 0 
L 2419 0 
L 2419 1100 
L 313 1100 
L 313 1709 
L 2253 4666 
z
" transform="scale(0.015625)"/>
       </defs>
       <use xlink:href="#DejaVuSans-34"/>
       <use xlink:href="#DejaVuSans-30" x="63.623047"/>
       <use xlink:href="#DejaVuSans-30" x="127.246094"/>
      </g>
     </g>
    </g>
    <g id="xtick_4">
     <g id="line2d_4">
      <g>
       <use xlink:href="#mbcb02aef95" x="268.820442" y="307.584" style="stroke: #000000; stroke-width: 0.8"/>
      </g>
     </g>
     <g id="text_4">
      <!-- 600 -->
      <g transform="translate(259.276692 322.182437) scale(0.1 -0.1)">
       <defs>
        <path id="DejaVuSans-36" d="M 2113 2584 
Q 1688 2584 1439 2293 
Q 1191 2003 1191 1497 
Q 1191 994 1439 701 
Q 1688 409 2113 409 
Q 2538 409 2786 701 
Q 3034 994 3034 1497 
Q 3034 2003 2786 2293 
Q 2538 2584 2113 2584 
z
M 3366 4563 
L 3366 3988 
Q 3128 4100 2886 4159 
Q 2644 4219 2406 4219 
Q 1781 4219 1451 3797 
Q 1122 3375 1075 2522 
Q 1259 2794 1537 2939 
Q 1816 3084 2150 3084 
Q 2853 3084 3261 2657 
Q 3669 2231 3669 1497 
Q 3669 778 3244 343 
Q 2819 -91 2113 -91 
Q 1303 -91 875 529 
Q 447 1150 447 2328 
Q 447 3434 972 4092 
Q 1497 4750 2381 4750 
Q 2619 4750 2861 4703 
Q 3103 4656 3366 4563 
z
" transform="scale(0.015625)"/>
       </defs>
       <use xlink:href="#DejaVuSans-36"/>
       <use xlink:href="#DejaVuSans-30" x="63.623047"/>
       <use xlink:href="#DejaVuSans-30" x="127.246094"/>
      </g>
     </g>
    </g>
    <g id="xtick_5">
     <g id="line2d_5">
      <g>
       <use xlink:href="#mbcb02aef95" x="333.816347" y="307.584" style="stroke: #000000; stroke-width: 0.8"/>
      </g>
     </g>
     <g id="text_5">
      <!-- 800 -->
      <g transform="translate(324.272597 322.182437) scale(0.1 -0.1)">
       <defs>
        <path id="DejaVuSans-38" d="M 2034 2216 
Q 1584 2216 1326 1975 
Q 1069 1734 1069 1313 
Q 1069 891 1326 650 
Q 1584 409 2034 409 
Q 2484 409 2743 651 
Q 3003 894 3003 1313 
Q 3003 1734 2745 1975 
Q 2488 2216 2034 2216 
z
M 1403 2484 
Q 997 2584 770 2862 
Q 544 3141 544 3541 
Q 544 4100 942 4425 
Q 1341 4750 2034 4750 
Q 2731 4750 3128 4425 
Q 3525 4100 3525 3541 
Q 3525 3141 3298 2862 
Q 3072 2584 2669 2484 
Q 3125 2378 3379 2068 
Q 3634 1759 3634 1313 
Q 3634 634 3220 271 
Q 2806 -91 2034 -91 
Q 1263 -91 848 271 
Q 434 634 434 1313 
Q 434 1759 690 2068 
Q 947 2378 1403 2484 
z
M 1172 3481 
Q 1172 3119 1398 2916 
Q 1625 2713 2034 2713 
Q 2441 2713 2670 2916 
Q 2900 3119 2900 3481 
Q 2900 3844 2670 4047 
Q 2441 4250 2034 4250 
Q 1625 4250 1398 4047 
Q 1172 3844 1172 3481 
z
" transform="scale(0.015625)"/>
       </defs>
       <use xlink:href="#DejaVuSans-38"/>
       <use xlink:href="#DejaVuSans-30" x="63.623047"/>
       <use xlink:href="#DejaVuSans-30" x="127.246094"/>
      </g>
     </g>
    </g>
    <g id="xtick_6">
     <g id="line2d_6">
      <g>
       <use xlink:href="#mbcb02aef95" x="398.812252" y="307.584" style="stroke: #000000; stroke-width: 0.8"/>
      </g>
     </g>
     <g id="text_6">
      <!-- 1000 -->
      <g transform="translate(386.087252 322.182437) scale(0.1 -0.1)">
       <defs>
        <path id="DejaVuSans-31" d="M 794 531 
L 1825 531 
L 1825 4091 
L 703 3866 
L 703 4441 
L 1819 4666 
L 2450 4666 
L 2450 531 
L 3481 531 
L 3481 0 
L 794 0 
L 794 531 
z
" transform="scale(0.015625)"/>
       </defs>
       <use xlink:href="#DejaVuSans-31"/>
       <use xlink:href="#DejaVuSans-30" x="63.623047"/>
       <use xlink:href="#DejaVuSans-30" x="127.246094"/>
       <use xlink:href="#DejaVuSans-30" x="190.869141"/>
      </g>
     </g>
    </g>
    <g id="text_7">
     <!-- Time -->
     <g transform="translate(223.926406 335.860562) scale(0.1 -0.1)">
      <defs>
       <path id="DejaVuSans-54" d="M -19 4666 
L 3928 4666 
L 3928 4134 
L 2272 4134 
L 2272 0 
L 1638 0 
L 1638 4134 
L -19 4134 
L -19 4666 
z
" transform="scale(0.015625)"/>
       <path id="DejaVuSans-69" d="M 603 3500 
L 1178 3500 
L 1178 0 
L 603 0 
L 603 3500 
z
M 603 4863 
L 1178 4863 
L 1178 4134 
L 603 4134 
L 603 4863 
z
" transform="scale(0.015625)"/>
       <path id="DejaVuSans-6d" d="M 3328 2828 
Q 3544 3216 3844 3400 
Q 4144 3584 4550 3584 
Q 5097 3584 5394 3201 
Q 5691 2819 5691 2113 
L 5691 0 
L 5113 0 
L 5113 2094 
Q 5113 2597 4934 2840 
Q 4756 3084 4391 3084 
Q 3944 3084 3684 2787 
Q 3425 2491 3425 1978 
L 3425 0 
L 2847 0 
L 2847 2094 
Q 2847 2600 2669 2842 
Q 2491 3084 2119 3084 
Q 1678 3084 1418 2786 
Q 1159 2488 1159 1978 
L 1159 0 
L 581 0 
L 581 3500 
L 1159 3500 
L 1159 2956 
Q 1356 3278 1631 3431 
Q 1906 3584 2284 3584 
Q 2666 3584 2933 3390 
Q 3200 3197 3328 2828 
z
" transform="scale(0.015625)"/>
       <path id="DejaVuSans-65" d="M 3597 1894 
L 3597 1613 
L 953 1613 
Q 991 1019 1311 708 
Q 1631 397 2203 397 
Q 2534 397 2845 478 
Q 3156 559 3463 722 
L 3463 178 
Q 3153 47 2828 -22 
Q 2503 -91 2169 -91 
Q 1331 -91 842 396 
Q 353 884 353 1716 
Q 353 2575 817 3079 
Q 1281 3584 2069 3584 
Q 2775 3584 3186 3129 
Q 3597 2675 3597 1894 
z
M 3022 2063 
Q 3016 2534 2758 2815 
Q 2500 3097 2075 3097 
Q 1594 3097 1305 2825 
Q 1016 2553 972 2059 
L 3022 2063 
z
" transform="scale(0.015625)"/>
      </defs>
      <use xlink:href="#DejaVuSans-54"/>
      <use xlink:href="#DejaVuSans-69" x="57.958984"/>
      <use xlink:href="#DejaVuSans-6d" x="85.742188"/>
      <use xlink:href="#DejaVuSans-65" x="183.154297"/>
     </g>
    </g>
   </g>
   <g id="matplotlib.axis_2">
    <g id="ytick_1">
     <g id="line2d_7">
      <defs>
       <path id="me5179b328b" d="M 0 0 
L -3.5 0 
" style="stroke: #000000; stroke-width: 0.8"/>
      </defs>
      <g>
       <use xlink:href="#me5179b328b" x="57.6" y="290.479284" style="stroke: #000000; stroke-width: 0.8"/>
      </g>
     </g>
     <g id="text_8">
      <!-- 0 -->
      <g transform="translate(44.2375 294.278503) scale(0.1 -0.1)">
       <use xlink:href="#DejaVuSans-30"/>
      </g>
     </g>
    </g>
    <g id="ytick_2">
     <g id="line2d_8">
      <g>
       <use xlink:href="#me5179b328b" x="57.6" y="241.046005" style="stroke: #000000; stroke-width: 0.8"/>
      </g>
     </g>
     <g id="text_9">
      <!-- 10 -->
      <g transform="translate(37.875 244.845224) scale(0.1 -0.1)">
       <use xlink:href="#DejaVuSans-31"/>
       <use xlink:href="#DejaVuSans-30" x="63.623047"/>
      </g>
     </g>
    </g>
    <g id="ytick_3">
     <g id="line2d_9">
      <g>
       <use xlink:href="#me5179b328b" x="57.6" y="191.612727" style="stroke: #000000; stroke-width: 0.8"/>
      </g>
     </g>
     <g id="text_10">
      <!-- 20 -->
      <g transform="translate(37.875 195.411946) scale(0.1 -0.1)">
       <use xlink:href="#DejaVuSans-32"/>
       <use xlink:href="#DejaVuSans-30" x="63.623047"/>
      </g>
     </g>
    </g>
    <g id="ytick_4">
     <g id="line2d_10">
      <g>
       <use xlink:href="#me5179b328b" x="57.6" y="142.179448" style="stroke: #000000; stroke-width: 0.8"/>
      </g>
     </g>
     <g id="text_11">
      <!-- 30 -->
      <g transform="translate(37.875 145.978667) scale(0.1 -0.1)">
       <defs>
        <path id="DejaVuSans-33" d="M 2597 2516 
Q 3050 2419 3304 2112 
Q 3559 1806 3559 1356 
Q 3559 666 3084 287 
Q 2609 -91 1734 -91 
Q 1441 -91 1130 -33 
Q 819 25 488 141 
L 488 750 
Q 750 597 1062 519 
Q 1375 441 1716 441 
Q 2309 441 2620 675 
Q 2931 909 2931 1356 
Q 2931 1769 2642 2001 
Q 2353 2234 1838 2234 
L 1294 2234 
L 1294 2753 
L 1863 2753 
Q 2328 2753 2575 2939 
Q 2822 3125 2822 3475 
Q 2822 3834 2567 4026 
Q 2313 4219 1838 4219 
Q 1578 4219 1281 4162 
Q 984 4106 628 3988 
L 628 4550 
Q 988 4650 1302 4700 
Q 1616 4750 1894 4750 
Q 2613 4750 3031 4423 
Q 3450 4097 3450 3541 
Q 3450 3153 3228 2886 
Q 3006 2619 2597 2516 
z
" transform="scale(0.015625)"/>
       </defs>
       <use xlink:href="#DejaVuSans-33"/>
       <use xlink:href="#DejaVuSans-30" x="63.623047"/>
      </g>
     </g>
    </g>
    <g id="ytick_5">
     <g id="line2d_11">
      <g>
       <use xlink:href="#me5179b328b" x="57.6" y="92.74617" style="stroke: #000000; stroke-width: 0.8"/>
      </g>
     </g>
     <g id="text_12">
      <!-- 40 -->
      <g transform="translate(37.875 96.545389) scale(0.1 -0.1)">
       <use xlink:href="#DejaVuSans-34"/>
       <use xlink:href="#DejaVuSans-30" x="63.623047"/>
      </g>
     </g>
    </g>
    <g id="ytick_6">
     <g id="line2d_12">
      <g>
       <use xlink:href="#me5179b328b" x="57.6" y="43.312891" style="stroke: #000000; stroke-width: 0.8"/>
      </g>
     </g>
     <g id="text_13">
      <!-- 50 -->
      <g transform="translate(37.875 47.11211) scale(0.1 -0.1)">
       <defs>
        <path id="DejaVuSans-35" d="M 691 4666 
L 3169 4666 
L 3169 4134 
L 1269 4134 
L 1269 2991 
Q 1406 3038 1543 3061 
Q 1681 3084 1819 3084 
Q 2600 3084 3056 2656 
Q 3513 2228 3513 1497 
Q 3513 744 3044 326 
Q 2575 -91 1722 -91 
Q 1428 -91 1123 -41 
Q 819 9 494 109 
L 494 744 
Q 775 591 1075 516 
Q 1375 441 1709 441 
Q 2250 441 2565 725 
Q 2881 1009 2881 1497 
Q 2881 1984 2565 2268 
Q 2250 2553 1709 2553 
Q 1456 2553 1204 2497 
Q 953 2441 691 2322 
L 691 4666 
z
" transform="scale(0.015625)"/>
       </defs>
       <use xlink:href="#DejaVuSans-35"/>
       <use xlink:href="#DejaVuSans-30" x="63.623047"/>
      </g>
     </g>
    </g>
   </g>
   <g id="line2d_13">
    <path d="M 73.832727 291.058032 
L 74.157707 291.007377 
L 74.482686 286.467673 
L 74.807666 288.40971 
L 75.132645 291.396501 
L 75.457625 288.819533 
L 75.782604 291.226395 
L 76.107584 291.149798 
L 76.432563 289.31699 
L 76.757543 294.560579 
L 77.082523 294.013295 
L 77.407502 291.061212 
L 77.732482 292.101093 
L 78.057461 288.753394 
L 78.382441 291.714145 
L 78.70742 292.908589 
L 79.0324 285.752394 
L 79.357379 289.899774 
L 79.682359 289.151397 
L 80.007338 292.826113 
L 80.657297 289.030361 
L 80.982277 292.161261 
L 81.307256 288.405965 
L 81.632236 290.842068 
L 81.957215 290.104372 
L 82.282195 290.897576 
L 82.607174 284.858081 
L 82.932154 289.492417 
L 83.257133 292.090807 
L 83.582113 287.453454 
L 83.907093 292.50458 
L 84.232072 288.960071 
L 84.557052 294.296249 
L 84.882031 292.697379 
L 85.207011 288.874493 
L 85.53199 287.46617 
L 85.85697 288.781636 
L 86.181949 289.388287 
L 86.506929 289.727766 
L 86.831908 292.503692 
L 87.156888 290.480066 
L 87.481867 289.678331 
L 87.806847 285.755103 
L 88.131826 287.338204 
L 88.456806 292.358509 
L 88.781785 287.009577 
L 89.106765 288.571236 
L 89.431744 289.103286 
L 89.756724 285.733683 
L 90.081704 284.520002 
L 90.406683 284.599152 
L 90.731663 288.820204 
L 91.706601 283.962885 
L 92.031581 287.470323 
L 92.35656 286.675972 
L 92.68154 288.902112 
L 93.006519 289.09391 
L 93.331499 284.11705 
L 93.656478 282.778439 
L 93.981458 286.329499 
L 94.306437 283.705717 
L 94.631417 285.338292 
L 94.956396 287.881562 
L 95.606355 282.610879 
L 95.931335 286.565525 
L 96.256314 282.671618 
L 96.581294 293.070373 
L 96.906274 284.611816 
L 97.231253 286.465315 
L 97.556233 287.443566 
L 97.881212 286.486691 
L 98.206192 291.618401 
L 98.531171 287.223214 
L 98.856151 285.753464 
L 99.18113 282.920237 
L 99.50611 287.7723 
L 99.831089 288.389681 
L 100.156069 287.514414 
L 100.481048 283.878786 
L 100.806028 285.181878 
L 101.131007 287.144936 
L 101.455987 284.398332 
L 101.780966 285.251191 
L 102.105946 282.916491 
L 102.430925 286.863377 
L 102.755905 285.756038 
L 103.080885 285.736392 
L 103.405864 288.210969 
L 103.730844 283.695612 
L 104.055823 283.625409 
L 104.705782 284.570068 
L 105.030762 287.366875 
L 105.355741 284.799448 
L 105.680721 284.510825 
L 106.0057 285.563003 
L 106.655659 282.446957 
L 106.980639 278.730138 
L 107.305618 282.914013 
L 107.630598 282.667119 
L 107.955577 283.448586 
L 108.280557 287.968517 
L 108.605536 283.251174 
L 108.930516 282.992641 
L 109.255495 277.003296 
L 109.580475 283.509624 
L 109.905455 282.222425 
L 110.230434 282.976988 
L 110.555414 285.692318 
L 110.880393 279.880356 
L 111.205373 280.736613 
L 111.530352 280.519407 
L 111.855332 284.59197 
L 112.180311 278.738349 
L 112.505291 285.525157 
L 113.15525 276.344136 
L 113.480229 284.054687 
L 113.805209 282.857368 
L 114.130188 281.068436 
L 114.455168 282.424785 
L 114.780147 284.889877 
L 115.105127 280.778078 
L 115.430106 283.479301 
L 115.755086 279.606655 
L 116.080066 282.992083 
L 116.405045 276.850611 
L 116.730025 282.599266 
L 117.055004 281.46066 
L 117.379984 278.673744 
L 117.704963 283.763596 
L 118.354922 277.605757 
L 118.679902 284.882109 
L 119.004881 280.52994 
L 119.329861 280.422102 
L 119.65484 279.206546 
L 119.97982 284.26248 
L 120.304799 284.522049 
L 120.629779 280.003699 
L 120.954758 280.572891 
L 121.279738 280.674466 
L 121.604717 280.393614 
L 121.929697 282.853374 
L 122.254676 280.484872 
L 122.579656 280.182636 
L 122.904636 282.481365 
L 123.229615 275.87327 
L 123.879574 282.852465 
L 124.204554 277.943449 
L 124.529533 281.60245 
L 124.854513 276.848385 
L 125.179492 275.509102 
L 125.504472 279.964688 
L 125.829451 275.109674 
L 126.154431 276.023319 
L 126.47941 274.570076 
L 126.80439 271.485257 
L 127.129369 276.372381 
L 127.454349 277.249479 
L 127.779328 277.241077 
L 128.104308 276.756858 
L 128.429287 274.676826 
L 128.754267 273.44176 
L 129.079247 273.456775 
L 129.404226 272.011751 
L 129.729206 274.001389 
L 130.054185 270.480208 
L 130.379165 274.827481 
L 130.704144 267.609329 
L 131.354103 276.930534 
L 131.679083 277.767501 
L 132.004062 274.273352 
L 132.329042 276.391569 
L 132.654021 274.466704 
L 132.979001 275.462884 
L 133.62896 279.512207 
L 133.953939 281.52744 
L 134.603898 276.28325 
L 134.928878 278.103835 
L 135.253857 281.883042 
L 135.578837 278.477364 
L 135.903817 277.978606 
L 136.228796 281.060485 
L 136.553776 278.356922 
L 136.878755 278.368524 
L 137.203735 281.027674 
L 137.528714 276.925247 
L 137.853694 275.950916 
L 138.178673 274.113432 
L 138.503653 273.572247 
L 138.828632 278.910382 
L 139.153612 277.103502 
L 139.478591 272.755971 
L 140.12855 271.182099 
L 140.45353 262.141588 
L 140.778509 269.477793 
L 141.103489 267.335712 
L 141.428468 267.080246 
L 141.753448 267.17861 
L 142.078428 268.984468 
L 142.403407 265.822432 
L 142.728387 269.187057 
L 143.053366 267.533452 
L 143.378346 267.917106 
L 143.703325 266.386003 
L 144.028305 260.841227 
L 144.353284 271.253748 
L 144.678264 265.117969 
L 145.003243 271.070487 
L 145.328223 268.608683 
L 145.653202 265.187323 
L 146.303161 271.60854 
L 146.628141 271.316541 
L 146.95312 268.501093 
L 147.2781 272.631683 
L 147.603079 270.934931 
L 147.928059 271.983038 
L 148.253038 274.298834 
L 148.578018 267.933891 
L 148.902998 272.149018 
L 149.227977 279.129558 
L 149.552957 273.985529 
L 149.877936 276.308819 
L 150.202916 272.689596 
L 150.527895 276.769826 
L 151.502834 272.037572 
L 151.827813 276.711122 
L 152.152793 274.0348 
L 152.802752 273.473301 
L 153.127731 266.70303 
L 153.77769 272.430339 
L 154.10267 266.113898 
L 154.427649 262.190383 
L 154.752629 263.937471 
L 155.077609 269.31533 
L 155.402588 265.860071 
L 155.727568 260.682866 
L 156.052547 264.77629 
L 156.377527 261.217793 
L 156.702506 259.7736 
L 157.027486 263.448029 
L 157.352465 260.875478 
L 157.677445 268.41894 
L 158.002424 262.729686 
L 158.327404 260.723669 
L 158.652383 263.195061 
L 158.977363 256.193734 
L 159.302342 263.980799 
L 159.627322 261.842895 
L 159.952301 260.823263 
L 160.277281 258.045535 
L 160.60226 265.675701 
L 160.92724 259.814018 
L 161.577199 266.309987 
L 161.902179 263.344114 
L 162.227158 264.579409 
L 162.552138 267.108367 
L 162.877117 265.960217 
L 163.202097 267.534861 
L 163.852056 265.62744 
L 164.177035 263.558111 
L 164.502015 270.658954 
L 164.826994 262.351802 
L 165.151974 272.374681 
L 165.476953 267.75246 
L 165.801933 265.654767 
L 166.126912 266.054397 
L 166.451892 267.842697 
L 166.776871 266.295246 
L 167.101851 266.408581 
L 167.42683 265.998587 
L 167.75181 261.748035 
L 168.07679 262.238263 
L 168.401769 264.085466 
L 168.726749 259.393806 
L 169.051728 260.107377 
L 169.376708 258.124838 
L 169.701687 257.87382 
L 170.026667 260.814836 
L 170.351646 259.53537 
L 170.676626 255.745943 
L 171.001605 255.590409 
L 171.326585 256.725488 
L 171.651564 256.030581 
L 171.976544 252.882787 
L 172.301523 257.296227 
L 172.626503 254.346322 
L 172.951482 256.130448 
L 173.276462 256.163476 
L 173.601441 252.960673 
L 173.926421 253.736228 
L 174.2514 253.90609 
L 174.57638 252.862081 
L 174.90136 256.230974 
L 175.226339 254.803978 
L 175.551319 257.466102 
L 175.876298 256.101547 
L 176.201278 257.413222 
L 176.526257 257.017937 
L 176.851237 255.923198 
L 177.176216 259.517732 
L 177.501196 252.384816 
L 177.826175 260.060862 
L 178.151155 260.548006 
L 178.476134 254.611339 
L 178.801114 255.399004 
L 179.126093 255.652225 
L 179.451073 255.441396 
L 179.776052 256.789233 
L 180.101032 258.711381 
L 180.426011 256.017251 
L 180.750991 257.572086 
L 181.075971 253.171663 
L 181.40095 255.625469 
L 181.72593 256.986077 
L 182.050909 255.433922 
L 182.375889 253.328868 
L 182.700868 255.474111 
L 183.025848 255.87 
L 183.350827 253.021412 
L 183.675807 252.835384 
L 184.000786 254.543068 
L 184.325766 254.335277 
L 184.650745 252.508554 
L 184.975725 256.59963 
L 185.300704 256.460839 
L 185.950663 253.481474 
L 186.275643 252.182994 
L 186.600622 249.30068 
L 186.925602 250.813918 
L 187.250581 253.298595 
L 187.575561 252.895292 
L 187.900541 255.239568 
L 188.22552 252.682608 
L 188.5505 253.181674 
L 188.875479 251.453448 
L 189.200459 254.026769 
L 189.850418 247.493648 
L 190.175397 251.120332 
L 190.825356 248.136971 
L 191.150336 250.266408 
L 191.475315 248.119607 
L 191.800295 248.016584 
L 192.125274 247.165759 
L 192.450254 248.673266 
L 193.425192 241.334368 
L 193.750172 242.0066 
L 194.075152 238.566537 
L 194.400131 245.360923 
L 194.725111 240.958407 
L 195.05009 242.393974 
L 195.37507 237.256215 
L 195.700049 244.581544 
L 196.025029 244.670297 
L 196.350008 244.18381 
L 196.674988 248.153956 
L 196.999967 244.496353 
L 197.324947 245.449551 
L 197.649926 243.653083 
L 197.974906 243.696103 
L 198.299885 240.471279 
L 198.624865 243.364507 
L 198.949844 247.766223 
L 199.274824 249.192294 
L 199.599803 246.374403 
L 199.924783 251.441196 
L 200.249762 244.190368 
L 200.574742 246.274953 
L 201.224701 254.107299 
L 201.549681 246.707654 
L 201.87466 250.394907 
L 202.19964 246.977745 
L 202.524619 253.764389 
L 203.174578 248.953221 
L 203.499558 248.207721 
L 203.824537 248.657456 
L 204.149517 245.09866 
L 204.474496 248.253211 
L 204.799476 244.839874 
L 205.774414 238.910419 
L 206.099394 242.098424 
L 206.424373 241.758826 
L 206.749353 233.480044 
L 207.074333 234.534182 
L 207.399312 235.992903 
L 207.724292 229.188481 
L 208.049271 231.729031 
L 208.374251 228.224561 
L 208.69923 230.245356 
L 209.02421 224.753711 
L 209.349189 225.116169 
L 209.674169 229.857509 
L 209.999148 226.811403 
L 210.324128 227.771303 
L 210.649107 226.316238 
L 210.974087 232.587626 
L 211.299066 229.170075 
L 211.624046 229.05722 
L 211.949025 236.953964 
L 212.274005 236.570193 
L 212.598984 239.805807 
L 212.923964 236.606972 
L 213.248943 235.371622 
L 213.573923 234.636244 
L 213.898903 239.342733 
L 214.223882 236.620415 
L 214.548862 245.093084 
L 214.873841 246.81843 
L 215.198821 243.537954 
L 215.5238 243.08834 
L 215.84878 244.58134 
L 216.173759 249.884189 
L 216.498739 245.067329 
L 216.823718 247.935924 
L 217.148698 242.709665 
L 217.473677 242.901437 
L 217.798657 245.368135 
L 218.123636 243.357112 
L 218.448616 243.565004 
L 219.098575 235.833463 
L 219.423554 239.062776 
L 219.748534 233.719533 
L 220.073514 234.550348 
L 220.398493 233.439192 
L 220.723473 229.97998 
L 221.048452 230.537401 
L 221.373432 227.66806 
L 221.698411 227.668654 
L 222.023391 218.375097 
L 222.34837 221.807958 
L 222.67335 222.451699 
L 222.998329 219.203003 
L 223.323309 219.21745 
L 223.648288 218.903772 
L 223.973268 216.474611 
L 224.298247 215.975464 
L 224.623227 219.232674 
L 224.948206 219.630854 
L 225.273186 219.375733 
L 225.598165 225.06134 
L 225.923145 223.961958 
L 226.248124 217.831158 
L 226.573104 218.259349 
L 226.898084 224.151942 
L 227.223063 223.389302 
L 227.548043 225.359422 
L 227.873022 219.838665 
L 228.522981 230.298307 
L 229.17294 236.150166 
L 229.49792 232.583507 
L 230.147879 237.923797 
L 230.472858 236.388991 
L 230.797838 237.645404 
L 231.122817 230.775999 
L 231.772776 234.287431 
L 232.097756 229.966438 
L 232.422735 232.599721 
L 232.747715 233.910661 
L 233.072695 226.850252 
L 233.397674 227.978946 
L 233.722654 230.457155 
L 234.047633 226.858272 
L 234.372613 226.985305 
L 234.697592 226.638856 
L 235.022572 219.326668 
L 235.347551 215.313952 
L 235.672531 221.957328 
L 235.99751 215.651325 
L 236.32249 217.291824 
L 236.647469 215.648165 
L 236.972449 214.806665 
L 237.297428 214.529042 
L 237.622408 211.488942 
L 237.947387 213.050065 
L 238.272367 209.891183 
L 238.922326 210.802439 
L 239.247305 212.533159 
L 239.572285 211.948859 
L 239.897265 209.03114 
L 240.222244 210.16042 
L 240.547224 214.421816 
L 240.872203 212.453615 
L 241.197183 211.600094 
L 241.522162 218.383655 
L 241.847142 213.733741 
L 242.172121 217.530239 
L 242.497101 215.272251 
L 243.14706 222.565503 
L 243.472039 222.72258 
L 243.797019 219.078866 
L 244.121998 218.943966 
L 244.446978 222.090307 
L 244.771957 218.420709 
L 245.096937 224.121246 
L 245.421916 220.064558 
L 245.746896 222.655188 
L 246.396855 218.713198 
L 246.721835 220.383285 
L 247.046814 218.544078 
L 247.371794 214.368076 
L 247.696773 217.482942 
L 248.021753 213.149441 
L 248.346732 217.137822 
L 248.671712 212.15571 
L 248.996691 209.026788 
L 249.321671 217.84367 
L 249.97163 208.711754 
L 250.296609 209.921398 
L 250.621589 207.848636 
L 250.946568 209.67642 
L 251.271548 207.462108 
L 251.596527 207.629916 
L 251.921507 204.003376 
L 252.246486 205.97803 
L 252.571466 205.556943 
L 252.896446 207.254281 
L 253.221425 207.338083 
L 253.546405 207.140473 
L 253.871384 205.065761 
L 254.196364 207.070045 
L 254.521343 205.309747 
L 254.846323 200.888773 
L 255.496282 206.753682 
L 255.821261 202.896353 
L 256.47122 210.605368 
L 256.7962 207.834376 
L 257.121179 209.68732 
L 257.446159 205.598557 
L 257.771138 204.298518 
L 258.096118 199.766921 
L 258.421097 202.627277 
L 258.746077 203.468031 
L 259.071057 200.343509 
L 259.396036 207.312443 
L 259.721016 200.717142 
L 260.045995 198.857341 
L 260.370975 203.903959 
L 260.695954 196.94522 
L 261.345913 199.999382 
L 261.670893 197.107581 
L 261.995872 192.834745 
L 262.320852 197.85613 
L 262.645831 197.63753 
L 262.970811 199.420244 
L 263.29579 200.50656 
L 263.62077 196.558588 
L 263.945749 201.009119 
L 264.270729 199.067092 
L 264.595708 200.832663 
L 264.920688 198.920021 
L 265.245667 199.759375 
L 265.570647 198.511096 
L 265.895627 202.820635 
L 266.220606 202.685564 
L 266.545586 204.850776 
L 266.870565 203.878204 
L 267.195545 202.112786 
L 267.520524 201.339037 
L 267.845504 205.537721 
L 268.170483 201.027449 
L 268.495463 199.603383 
L 268.820442 201.560026 
L 269.145422 197.416446 
L 269.470401 203.285039 
L 270.12036 203.946494 
L 270.44534 194.727661 
L 270.770319 195.556909 
L 271.095299 195.950436 
L 271.420278 193.669067 
L 271.745258 195.622265 
L 272.070238 185.230585 
L 272.395217 189.373673 
L 272.720197 187.849878 
L 273.045176 184.791741 
L 273.695135 183.190328 
L 274.020115 184.444733 
L 274.670074 175.793444 
L 274.995053 176.368374 
L 275.320033 175.207827 
L 275.645012 180.076082 
L 275.969992 181.147879 
L 276.294971 179.12755 
L 276.619951 179.017085 
L 276.94493 177.005162 
L 277.26991 184.652697 
L 277.594889 177.637572 
L 277.919869 182.925306 
L 278.244848 184.849785 
L 278.894808 190.717833 
L 279.219787 186.10054 
L 279.544767 189.475178 
L 279.869746 194.342933 
L 280.194726 195.793669 
L 280.519705 194.764092 
L 280.844685 191.018552 
L 281.494644 200.753415 
L 281.819623 198.273218 
L 282.144603 198.723097 
L 282.469582 204.835661 
L 282.794562 198.149865 
L 283.119541 198.150029 
L 283.7695 191.289766 
L 284.09448 191.806917 
L 284.419459 193.734641 
L 284.744439 194.052049 
L 285.069419 182.998577 
L 285.394398 187.080651 
L 286.044357 182.644041 
L 286.369337 179.663433 
L 287.019296 176.699846 
L 287.344275 174.280511 
L 287.669255 170.768392 
L 287.994234 169.941222 
L 288.319214 168.460273 
L 288.644193 164.759342 
L 288.969173 164.230176 
L 289.294152 158.738468 
L 289.619132 168.161626 
L 289.944111 158.375915 
L 290.269091 157.776287 
L 290.59407 166.081951 
L 290.91905 162.217944 
L 291.244029 163.003036 
L 291.569009 166.559624 
L 291.893989 166.256319 
L 292.218968 168.559392 
L 292.543948 163.156931 
L 292.868927 167.003065 
L 293.193907 168.112977 
L 293.518886 171.480082 
L 293.843866 178.084401 
L 294.168845 178.595633 
L 294.493825 178.024435 
L 294.818804 184.074129 
L 295.143784 180.952736 
L 295.468763 184.773468 
L 295.793743 186.337852 
L 296.118722 184.623037 
L 296.443702 185.962753 
L 296.768681 188.325824 
L 297.093661 184.620161 
L 297.41864 189.882283 
L 297.74362 185.085234 
L 298.0686 184.218546 
L 298.393579 185.219249 
L 298.718559 182.130006 
L 299.043538 184.24794 
L 299.368518 176.859341 
L 299.693497 177.391104 
L 300.018477 175.859182 
L 300.343456 169.491742 
L 300.668436 171.271208 
L 300.993415 170.431098 
L 301.318395 168.23628 
L 301.643374 160.394274 
L 301.968354 162.667897 
L 302.293333 152.925294 
L 302.618313 160.353758 
L 302.943292 149.179503 
L 303.268272 151.263499 
L 303.593251 150.707687 
L 303.918231 150.787644 
L 304.24321 147.726344 
L 304.56819 148.383034 
L 304.89317 145.444004 
L 305.218149 148.066043 
L 305.543129 148.437203 
L 305.868108 150.431568 
L 306.518067 150.909874 
L 306.843047 157.24942 
L 307.168026 157.848004 
L 307.493006 154.274856 
L 308.142965 159.906713 
L 308.792924 161.859269 
L 309.117903 165.560548 
L 309.442883 167.527126 
L 309.767862 166.333493 
L 310.092842 170.259299 
L 310.417821 167.641691 
L 310.742801 173.436427 
L 311.067781 167.016631 
L 311.39276 168.471407 
L 311.71774 168.830647 
L 312.367699 164.247481 
L 312.692678 164.955268 
L 313.017658 170.898918 
L 313.992596 161.909259 
L 314.317576 158.98517 
L 314.642555 160.276076 
L 314.967535 156.197752 
L 315.292514 156.695658 
L 315.617494 154.533315 
L 315.942473 154.746289 
L 316.267453 151.881719 
L 316.592432 151.379186 
L 316.917412 149.019254 
L 317.242391 142.72102 
L 317.567371 146.553652 
L 317.892351 136.756657 
L 318.21733 141.279943 
L 318.54231 141.460667 
L 318.867289 143.636865 
L 319.192269 139.555067 
L 319.517248 142.642048 
L 319.842228 140.99974 
L 320.167207 135.187697 
L 320.492187 142.079637 
L 320.817166 139.420077 
L 321.142146 144.486372 
L 321.467125 143.36849 
L 321.792105 139.461546 
L 322.117084 145.944295 
L 322.442064 140.449339 
L 323.092023 147.244371 
L 323.417002 144.647997 
L 323.741982 144.075908 
L 324.066962 145.113476 
L 324.391941 150.597665 
L 324.716921 148.472495 
L 325.0419 147.138311 
L 325.36688 146.457741 
L 325.691859 144.389225 
L 326.016839 145.045031 
L 326.341818 148.268516 
L 326.666798 143.448237 
L 326.991777 142.249894 
L 327.316757 141.713605 
L 327.641736 139.747549 
L 327.966716 139.679258 
L 328.291695 139.942816 
L 328.616675 140.619089 
L 328.941654 143.962808 
L 329.266634 138.262697 
L 329.591613 138.342727 
L 329.916593 137.787227 
L 330.241572 141.291252 
L 330.566552 140.560127 
L 330.891532 135.110968 
L 331.216511 137.705916 
L 331.541491 135.878233 
L 331.86647 137.497137 
L 332.19145 137.535237 
L 332.516429 135.353857 
L 332.841409 139.019058 
L 333.166388 137.565811 
L 333.491368 138.97737 
L 333.816347 138.894057 
L 334.141327 138.506576 
L 334.466306 137.036692 
L 334.791286 138.519188 
L 335.116265 133.876981 
L 335.441245 138.722141 
L 335.766224 136.381813 
L 336.091204 136.291298 
L 336.416183 130.788302 
L 336.741163 132.918953 
L 337.066143 129.781697 
L 337.391122 134.829615 
L 337.716102 129.236532 
L 338.041081 126.367329 
L 338.366061 126.983857 
L 338.69104 123.149193 
L 339.01602 125.656028 
L 339.340999 119.514254 
L 339.665979 115.988094 
L 339.990958 121.318639 
L 340.315938 120.379836 
L 340.640917 114.673324 
L 340.965897 113.501057 
L 341.290876 118.009934 
L 341.940835 116.620126 
L 342.265815 119.161884 
L 342.590794 118.239644 
L 342.915774 118.795216 
L 343.240753 118.763465 
L 343.565733 117.70099 
L 343.890713 117.967029 
L 344.215692 115.804665 
L 344.540672 123.33083 
L 344.865651 119.762615 
L 345.190631 124.130184 
L 345.51561 125.167361 
L 345.84059 124.821668 
L 346.165569 130.671072 
L 346.490549 128.280293 
L 346.815528 130.027775 
L 347.140508 130.282777 
L 347.465487 131.658017 
L 347.790467 126.956952 
L 348.115446 135.006812 
L 348.440426 134.876431 
L 348.765405 134.947945 
L 349.415364 133.757946 
L 349.740344 128.168611 
L 350.065324 126.219912 
L 350.390303 129.47702 
L 350.715283 128.190852 
L 351.040262 122.793444 
L 351.365242 122.938238 
L 351.690221 117.450196 
L 352.015201 115.82225 
L 352.34018 117.29244 
L 352.66516 106.904151 
L 352.990139 103.483682 
L 353.315119 106.691228 
L 354.615037 94.14496 
L 354.940016 89.067858 
L 355.264996 93.056517 
L 355.589975 93.520738 
L 355.914955 94.250887 
L 356.564914 90.651222 
L 356.889894 86.56938 
L 357.214873 93.089162 
L 357.539853 92.41216 
L 357.864832 94.485793 
L 358.514791 91.993232 
L 358.839771 101.779961 
L 359.16475 104.062563 
L 359.48973 102.759282 
L 359.814709 106.187668 
L 360.139689 105.829255 
L 360.789648 116.053236 
L 361.114627 115.843277 
L 361.439607 116.465086 
L 362.089566 120.863511 
L 362.414545 120.41229 
L 362.739525 120.699629 
L 363.064505 120.30304 
L 363.714464 123.114743 
L 364.039443 121.19237 
L 364.364423 117.01574 
L 364.689402 120.071046 
L 365.014382 114.835561 
L 365.339361 114.092002 
L 365.664341 110.143658 
L 365.98932 103.921261 
L 366.3143 103.301289 
L 366.639279 100.235425 
L 366.964259 100.232609 
L 367.289238 91.554868 
L 367.614218 88.400122 
L 367.939197 81.373666 
L 368.264177 84.392824 
L 368.589156 80.24273 
L 368.914136 77.610157 
L 369.239115 72.102854 
L 369.564095 74.382056 
L 370.214054 70.149106 
L 370.539034 70.583531 
L 370.864013 71.975722 
L 371.513972 69.14579 
L 371.838952 75.399292 
L 372.163931 73.957296 
L 372.488911 77.76366 
L 372.81389 75.105817 
L 373.13887 84.080151 
L 373.463849 84.127843 
L 373.788829 84.362907 
L 374.113808 84.033044 
L 374.438788 90.670344 
L 374.763767 94.423703 
L 375.088747 90.825586 
L 375.413726 101.302805 
L 375.738706 105.180809 
L 376.063686 100.408339 
L 376.388665 104.173954 
L 376.713645 106.548246 
L 377.038624 102.992253 
L 378.013563 107.691778 
L 378.338542 101.502574 
L 378.663522 100.803132 
L 378.988501 101.04836 
L 379.313481 94.30315 
L 379.63846 99.283387 
L 379.96344 97.928327 
L 380.938378 85.078335 
L 381.263358 83.276679 
L 381.588337 78.812891 
L 381.913317 79.833527 
L 382.238296 70.333606 
L 382.563276 71.419319 
L 382.888256 65.964318 
L 383.213235 65.622251 
L 383.863194 61.37408 
L 384.188174 60.291541 
L 384.513153 58.750835 
L 384.838133 56.326662 
L 385.163112 58.728234 
L 385.488092 57.384822 
L 385.813071 59.588418 
L 386.138051 56.321403 
L 386.46303 62.325081 
L 386.78801 57.200821 
L 387.437969 67.720039 
L 387.762948 65.319832 
L 388.087928 68.841393 
L 388.412907 66.62812 
L 388.737887 71.851223 
L 389.062867 72.817387 
L 389.387846 77.767715 
L 389.712826 75.470127 
L 390.037805 81.439393 
L 390.362785 80.274931 
L 390.687764 75.186796 
L 391.012744 75.609276 
L 391.337723 76.754154 
L 391.662703 80.214674 
L 391.987682 77.727328 
L 392.312662 77.175537 
L 392.637641 79.37104 
L 392.962621 71.933686 
L 393.2876 72.443256 
L 393.61258 73.964464 
L 394.262539 70.156887 
L 394.587518 74.223556 
L 394.912498 68.251917 
L 395.237477 67.778934 
L 395.562457 67.038223 
L 395.887437 63.770223 
L 396.212416 57.212887 
L 396.862375 60.514164 
L 397.512334 53.568 
L 397.837314 53.904401 
L 398.487273 56.52282 
L 398.487273 56.52282 
" clip-path="url(#p0f834e2270)" style="fill: none; stroke: #1f77b4; stroke-width: 1.5; stroke-linecap: square"/>
   </g>
   <g id="line2d_14">
    <path d="M 73.832727 290.479284 
L 75.132645 290.479284 
L 75.457625 289.734809 
L 75.782604 289.518097 
L 76.107584 293.059094 
L 76.432563 292.053948 
L 76.757543 289.554825 
L 77.082523 295.178637 
L 77.407502 295.488 
L 77.732482 293.106504 
L 78.057461 292.485281 
L 78.382441 286.586219 
L 79.0324 292.825161 
L 79.357379 286.092208 
L 79.682359 288.613064 
L 80.007338 287.013624 
L 80.332318 292.514471 
L 80.657297 293.792921 
L 80.982277 289.819628 
L 81.307256 291.78159 
L 81.632236 287.597894 
L 81.957215 290.493003 
L 82.282195 290.20633 
L 82.607174 290.575416 
L 82.932154 285.216638 
L 83.257133 286.97957 
L 83.582113 291.229224 
L 83.907093 288.874162 
L 84.232072 294.453045 
L 84.557052 289.328137 
L 84.882031 294.340769 
L 85.207011 295.254392 
L 85.53199 289.556164 
L 85.85697 286.47238 
L 86.181949 284.830735 
L 86.831908 290.44842 
L 87.156888 294.069951 
L 87.806847 290.520951 
L 88.131826 284.730774 
L 88.456806 283.96463 
L 88.781785 290.854393 
L 89.106765 288.563459 
L 89.431744 290.048245 
L 89.756724 288.682328 
L 90.081704 284.386249 
L 90.406683 283.727404 
L 90.731663 282.043755 
L 91.056642 287.210236 
L 91.381622 289.230995 
L 91.706601 287.770929 
L 92.031581 283.901772 
L 92.68154 286.782132 
L 93.006519 290.549599 
L 93.331499 291.516602 
L 93.656478 284.936155 
L 93.981458 281.175643 
L 94.306437 282.882379 
L 94.631417 282.446723 
L 95.281376 289.115488 
L 95.931335 283.6409 
L 96.256314 285.162056 
L 96.581294 281.598725 
L 96.906274 293.804296 
L 97.231253 288.646855 
L 97.556233 287.561798 
L 97.881212 287.601528 
L 98.206192 284.528978 
L 98.531171 293.34667 
L 99.50611 281.212014 
L 99.831089 283.971485 
L 100.156069 288.731182 
L 100.481048 289.985796 
L 100.806028 285.742387 
L 101.131007 283.179274 
L 101.455987 285.401364 
L 101.780966 284.636442 
L 102.105946 285.997789 
L 102.430925 282.347137 
L 102.755905 285.634263 
L 103.080885 286.82944 
L 103.405864 287.011583 
L 103.730844 289.707678 
L 104.055823 284.208174 
L 104.380803 283.03118 
L 104.705782 282.384968 
L 105.030762 283.078868 
L 105.355741 288.517491 
L 106.0057 285.416752 
L 106.33068 285.249058 
L 106.655659 283.176804 
L 106.980639 282.223437 
L 107.305618 277.141187 
L 108.280557 284.986009 
L 108.605536 290.972576 
L 108.930516 285.892978 
L 109.255495 284.082519 
L 109.580475 275.262192 
L 110.230434 281.833883 
L 110.555414 284.524271 
L 110.880393 288.827655 
L 111.205373 280.961684 
L 111.530352 280.185788 
L 111.855332 278.577987 
L 112.180311 283.316315 
L 112.505291 280.944928 
L 112.83027 286.174328 
L 113.15525 281.791746 
L 113.480229 275.49414 
L 113.805209 282.691998 
L 114.130188 282.278562 
L 114.455168 284.055729 
L 114.780147 284.630505 
L 115.105127 284.506767 
L 115.430106 282.134133 
L 115.755086 284.178861 
L 116.080066 279.285347 
L 116.405045 281.632339 
L 116.730025 276.969875 
L 117.055004 280.900431 
L 117.379984 282.243921 
L 117.704963 279.343607 
L 118.029943 285.061256 
L 118.354922 280.585862 
L 118.679902 278.017804 
L 119.004881 284.580114 
L 119.329861 281.061194 
L 119.65484 282.254984 
L 119.97982 279.713392 
L 120.304799 282.564083 
L 120.629779 286.855347 
L 120.954758 282.913149 
L 121.604717 278.399227 
L 121.929697 279.197441 
L 122.254676 283.744443 
L 122.579656 281.834284 
L 122.904636 280.820435 
L 123.229615 282.477331 
L 123.554595 275.53132 
L 123.879574 277.693671 
L 124.204554 282.028496 
L 124.529533 279.158293 
L 124.854513 283.843863 
L 125.179492 277.119469 
L 125.504472 273.542785 
L 125.829451 278.678266 
L 126.154431 274.509822 
L 126.47941 276.514336 
L 126.80439 274.199038 
L 127.129369 269.434308 
L 127.454349 275.369259 
L 128.104308 280.365 
L 128.429287 280.13024 
L 128.754267 275.167517 
L 129.079247 272.456084 
L 129.404226 271.817228 
L 129.729206 270.799615 
L 130.054185 273.654305 
L 130.379165 270.964164 
L 130.704144 274.900082 
L 131.029124 268.451513 
L 131.354103 271.884653 
L 131.679083 278.181326 
L 132.004062 281.240343 
L 132.329042 280.152306 
L 132.654021 277.70205 
L 132.979001 274.031954 
L 133.30398 275.065797 
L 134.278919 285.256904 
L 134.603898 282.939067 
L 134.928878 277.581201 
L 135.253857 276.532202 
L 135.578837 280.796033 
L 135.903817 280.612191 
L 136.228796 279.967413 
L 136.553776 281.000511 
L 136.878755 278.357535 
L 137.203735 279.279569 
L 137.528714 281.3746 
L 137.853694 277.204627 
L 138.178673 275.939967 
L 138.503653 272.318117 
L 138.828632 270.619262 
L 139.153612 278.209074 
L 139.478591 279.292973 
L 140.45353 267.585674 
L 140.778509 258.999528 
L 141.103489 265.401474 
L 141.428468 265.567415 
L 142.078428 269.920062 
L 142.403407 269.123007 
L 142.728387 267.42426 
L 143.053366 270.139466 
L 143.378346 268.846889 
L 143.703325 268.944305 
L 144.028305 267.81178 
L 144.353284 259.920848 
L 144.678264 269.61848 
L 145.003243 266.729623 
L 145.328223 274.095266 
L 145.653202 273.081722 
L 145.978182 265.736235 
L 146.95312 274.659605 
L 147.2781 272.631377 
L 147.603079 273.774782 
L 147.928059 271.821886 
L 148.253038 273.604515 
L 148.578018 276.677703 
L 148.902998 269.24782 
L 149.227977 272.036849 
L 149.552957 279.750658 
L 149.877936 278.023495 
L 150.202916 281.145825 
L 150.527895 273.828962 
L 151.177854 276.289103 
L 151.827813 272.270336 
L 152.152793 275.314737 
L 152.477772 275.408477 
L 152.802752 275.627613 
L 153.127731 274.270325 
L 153.452711 265.122109 
L 153.77769 266.300277 
L 154.10267 270.306235 
L 155.077609 260.143046 
L 155.402588 266.472516 
L 155.727568 268.972136 
L 156.052547 263.771006 
L 156.377527 263.579418 
L 156.702506 259.122838 
L 157.027486 259.366521 
L 157.352465 263.751103 
L 157.677445 261.28306 
L 158.002424 271.009866 
L 158.652383 262.562935 
L 158.977363 263.070945 
L 159.302342 254.054264 
L 159.627322 263.137796 
L 159.952301 263.503026 
L 160.277281 263.023693 
L 160.60226 260.509174 
L 160.92724 264.668242 
L 161.252219 262.268703 
L 161.902179 269.214781 
L 162.227158 265.604549 
L 162.552138 267.919333 
L 162.877117 268.566748 
L 163.202097 267.853213 
L 163.527076 270.475161 
L 163.852056 268.865612 
L 164.502015 263.938536 
L 164.826994 270.319183 
L 165.151974 264.486694 
L 165.476953 273.975089 
L 165.801933 271.25072 
L 166.126912 267.00772 
L 166.451892 267.306476 
L 166.776871 265.778849 
L 167.101851 267.490037 
L 167.42683 268.037839 
L 167.75181 266.816037 
L 168.07679 261.497885 
L 168.401769 260.869202 
L 168.726749 262.657395 
L 169.051728 259.520871 
L 169.376708 260.370171 
L 169.701687 257.211978 
L 170.026667 256.497386 
L 170.351646 261.379136 
L 170.676626 261.33605 
L 171.326585 255.361193 
L 171.651564 255.066681 
L 171.976544 256.274787 
L 172.301523 254.386161 
L 172.626503 257.664353 
L 172.951482 255.521695 
L 173.276462 257.892202 
L 173.601441 258.666946 
L 173.926421 254.056465 
L 174.2514 254.46997 
L 174.57638 253.77218 
L 174.90136 253.554684 
L 175.226339 258.146902 
L 175.551319 257.463801 
L 175.876298 260.41343 
L 176.201278 259.492664 
L 176.851237 259.458453 
L 177.176216 257.358789 
L 177.501196 261.14061 
L 177.826175 254.098676 
L 178.151155 260.503099 
L 178.476134 263.030724 
L 178.801114 257.70397 
L 179.126093 257.480367 
L 179.451073 253.746537 
L 179.776052 254.960202 
L 180.101032 258.911893 
L 180.426011 261.172275 
L 180.750991 259.093788 
L 181.075971 259.680647 
L 181.40095 254.027025 
L 181.72593 254.871189 
L 182.050909 257.726276 
L 182.375889 257.256727 
L 182.700868 255.826073 
L 183.025848 255.673952 
L 183.350827 256.527118 
L 183.675807 255.019059 
L 184.000786 254.083964 
L 184.325766 254.477803 
L 184.650745 255.470302 
L 184.975725 254.905783 
L 185.300704 258.317623 
L 185.625684 258.944722 
L 185.950663 258.019012 
L 186.275643 255.697872 
L 186.925602 248.259821 
L 187.250581 249.657093 
L 187.575561 253.59919 
L 187.900541 255.693046 
L 188.22552 259.373974 
L 188.5505 256.171554 
L 188.875479 254.898503 
L 189.200459 252.479168 
L 189.525438 254.2321 
L 189.850418 252.092927 
L 190.175397 247.857965 
L 190.500377 250.372308 
L 190.825356 249.345326 
L 191.150336 250.049749 
L 191.475315 252.095369 
L 191.800295 249.235612 
L 192.125274 249.574215 
L 192.450254 248.360306 
L 192.775233 249.222649 
L 193.100213 247.860894 
L 193.425192 245.210463 
L 193.750172 240.876659 
L 194.075152 240.114614 
L 194.400131 237.843656 
L 194.725111 245.564105 
L 195.05009 244.300187 
L 195.37507 245.409615 
L 195.700049 239.654921 
L 196.350008 248.011197 
L 196.674988 249.023004 
L 196.999967 253.77444 
L 197.324947 247.969402 
L 197.649926 248.047485 
L 197.974906 245.245766 
L 198.299885 243.743357 
L 198.624865 241.387375 
L 198.949844 243.252159 
L 199.599803 254.365445 
L 199.924783 253.133521 
L 200.249762 255.342308 
L 200.574742 246.722886 
L 200.899722 246.637583 
L 201.549681 256.998596 
L 201.87466 253.537886 
L 202.19964 252.863665 
L 202.524619 246.850185 
L 202.849599 253.693288 
L 203.174578 255.4796 
L 203.499558 252.066332 
L 204.474496 245.387477 
L 204.799476 248.5356 
L 205.774414 240.543311 
L 206.099394 236.748297 
L 206.424373 241.262574 
L 206.749353 243.417745 
L 207.074333 235.937438 
L 207.399312 233.599978 
L 207.724292 233.281048 
L 208.049271 228.663122 
L 208.374251 232.297569 
L 208.69923 227.800483 
L 209.02421 229.890212 
L 209.349189 226.684341 
L 209.674169 224.716778 
L 209.999148 230.56447 
L 210.324128 229.666144 
L 210.649107 232.439477 
L 210.974087 229.517938 
L 211.299066 234.58265 
L 211.624046 234.412465 
L 211.949025 233.532144 
L 212.274005 240.957675 
L 212.598984 241.847755 
L 212.923964 247.838819 
L 213.248943 243.707554 
L 213.573923 237.872342 
L 213.898903 235.514115 
L 214.223882 239.598087 
L 214.548862 240.238072 
L 214.873841 249.827416 
L 215.198821 254.172963 
L 216.173759 245.074968 
L 216.498739 251.571064 
L 216.823718 250.252317 
L 217.148698 251.889146 
L 217.473677 244.71198 
L 217.798657 241.836334 
L 218.123636 245.504434 
L 218.448616 244.320296 
L 218.773595 246.337594 
L 219.423554 234.688357 
L 219.748534 237.001302 
L 220.073514 232.777352 
L 220.398493 234.530678 
L 220.723473 233.999682 
L 221.048452 229.632964 
L 221.373432 230.880963 
L 221.698411 227.397568 
L 222.023391 227.611929 
L 222.34837 218.366647 
L 222.67335 218.70063 
L 222.998329 221.03553 
L 223.323309 220.413326 
L 223.648288 222.520675 
L 224.298247 217.732109 
L 224.623227 217.586793 
L 225.273186 223.272565 
L 225.598165 224.788588 
L 225.923145 230.473453 
L 226.248124 230.04544 
L 226.573104 223.344587 
L 226.898084 219.800623 
L 227.548043 227.175087 
L 227.873022 232.455469 
L 228.198002 225.408496 
L 228.522981 227.637418 
L 229.49792 246.669327 
L 229.822899 240.356277 
L 230.147879 239.88117 
L 230.472858 241.118267 
L 230.797838 240.4078 
L 231.122817 242.282143 
L 231.447797 233.018167 
L 231.772776 231.581704 
L 232.097756 233.822261 
L 232.422735 231.1019 
L 232.747715 235.112477 
L 233.072695 235.920357 
L 233.397674 229.216868 
L 233.722654 228.961196 
L 234.047633 229.802306 
L 234.372613 228.135895 
L 234.697592 229.996722 
L 235.022572 228.096459 
L 235.672531 213.603174 
L 235.99751 218.417442 
L 236.32249 215.691376 
L 236.647469 219.984449 
L 236.972449 218.265281 
L 237.297428 215.364292 
L 237.622408 216.966286 
L 237.947387 213.023612 
L 238.272367 214.394143 
L 238.597346 211.621998 
L 238.922326 211.944865 
L 239.247305 213.203402 
L 239.572285 215.421911 
L 239.897265 216.860462 
L 240.222244 213.245849 
L 240.547224 212.593365 
L 240.872203 216.805883 
L 241.197183 217.548675 
L 241.522162 217.341044 
L 241.847142 222.711857 
L 242.172121 218.854825 
L 242.497101 223.047619 
L 242.82208 220.287849 
L 243.14706 222.346348 
L 243.472039 228.578402 
L 243.797019 229.454853 
L 244.446978 221.582874 
L 244.771957 223.054182 
L 245.096937 221.119056 
L 245.421916 227.98292 
L 245.746896 224.721235 
L 246.071876 226.055742 
L 246.396855 224.982974 
L 246.721835 220.521057 
L 247.046814 222.440848 
L 247.371794 220.082411 
L 247.696773 216.203321 
L 248.021753 218.261457 
L 248.346732 213.942816 
L 248.671712 218.793524 
L 248.996691 215.54582 
L 249.321671 210.097543 
L 249.64665 218.95173 
L 250.296609 213.588359 
L 250.621589 211.805185 
L 250.946568 206.706641 
L 251.271548 211.300432 
L 251.596527 210.960693 
L 251.921507 210.394436 
L 252.246486 206.655003 
L 252.571466 207.048302 
L 252.896446 207.938625 
L 253.546405 212.634827 
L 253.871384 211.863263 
L 254.196364 209.256163 
L 254.521343 209.786827 
L 254.846323 208.434429 
L 255.171302 203.622689 
L 255.496282 205.268143 
L 255.821261 208.733187 
L 256.146241 207.935312 
L 256.7962 215.607748 
L 257.121179 214.260127 
L 257.446159 216.42712 
L 257.771138 209.617422 
L 258.421097 200.308693 
L 258.746077 201.574164 
L 259.071057 205.348061 
L 259.396036 204.293907 
L 259.721016 212.180357 
L 260.045995 205.904869 
L 260.370975 202.288604 
L 260.695954 206.003535 
L 261.020934 198.6287 
L 261.345913 201.502344 
L 261.670893 202.569376 
L 262.320852 196.591695 
L 262.645831 198.92818 
L 262.970811 200.320519 
L 263.29579 205.200405 
L 263.62077 207.844013 
L 263.945749 201.899575 
L 264.270729 204.967864 
L 264.595708 203.127965 
L 264.920688 205.295065 
L 265.895627 202.351233 
L 266.220606 206.384175 
L 266.870565 211.376087 
L 267.195545 210.700272 
L 267.520524 206.6609 
L 267.845504 204.460161 
L 268.170483 207.836318 
L 268.820442 203.403127 
L 269.145422 203.736413 
L 269.470401 198.983666 
L 269.795381 206.400615 
L 270.12036 208.906531 
L 270.44534 210.269872 
L 270.770319 200.642554 
L 271.095299 194.944656 
L 271.420278 194.368314 
L 271.745258 194.224703 
L 272.070238 199.475272 
L 272.395217 187.994417 
L 272.720197 188.822381 
L 273.045176 188.163273 
L 273.370156 186.303193 
L 273.695135 187.574232 
L 274.020115 184.499694 
L 274.345094 186.92509 
L 274.670074 184.2746 
L 274.995053 178.294721 
L 275.320033 176.566382 
L 275.645012 175.447424 
L 275.969992 183.457606 
L 276.294971 188.443803 
L 276.94493 185.75487 
L 277.26991 180.73934 
L 277.594889 188.385727 
L 277.919869 184.527309 
L 278.244848 188.921504 
L 278.894808 194.315346 
L 279.219787 201.026083 
L 279.544767 194.645137 
L 279.869746 195.241578 
L 280.519705 203.317927 
L 280.844685 204.657668 
L 281.169664 197.495719 
L 281.494644 199.666366 
L 281.819623 205.622256 
L 282.144603 206.635694 
L 282.469582 206.839687 
L 282.794562 209.903003 
L 283.119541 203.939229 
L 283.444521 202.878146 
L 284.09448 190.304062 
L 284.419459 191.925727 
L 284.744439 194.558301 
L 285.069419 198.114465 
L 285.394398 187.824106 
L 285.719378 187.007041 
L 286.044357 184.019901 
L 286.694316 183.146347 
L 287.019296 178.494997 
L 287.344275 177.482828 
L 287.669255 175.793639 
L 287.994234 172.451101 
L 288.644193 169.602025 
L 288.969173 166.728581 
L 289.294152 166.195518 
L 289.619132 160.153803 
L 289.944111 169.827148 
L 290.269091 164.082368 
L 290.59407 162.026258 
L 290.91905 169.97882 
L 291.244029 167.249171 
L 291.569009 172.114767 
L 291.893989 174.148518 
L 292.218968 172.582903 
L 292.543948 177.019448 
L 292.868927 170.715676 
L 293.193907 171.439868 
L 293.518886 173.208348 
L 293.843866 178.179009 
L 294.168845 188.596702 
L 294.493825 190.349607 
L 294.818804 189.405841 
L 295.143784 192.786698 
L 295.468763 188.672609 
L 295.793743 192.24977 
L 296.118722 193.990138 
L 296.443702 191.229539 
L 296.768681 192.664115 
L 297.093661 193.520059 
L 297.41864 190.276572 
L 297.74362 195.298123 
L 298.0686 190.544491 
L 298.393579 188.033825 
L 298.718559 188.579008 
L 299.043538 184.248061 
L 299.368518 187.817515 
L 299.693497 180.26877 
L 300.343456 176.795948 
L 300.668436 169.99273 
L 300.993415 172.321707 
L 301.318395 171.494554 
L 301.643374 171.188046 
L 301.968354 163.899782 
L 302.293333 162.231885 
L 302.618313 152.324701 
L 302.943292 159.672331 
L 303.268272 152.211632 
L 303.593251 152.077654 
L 303.918231 153.575002 
L 304.24321 153.058072 
L 304.56819 154.198961 
L 304.89317 152.829376 
L 305.218149 149.697386 
L 306.518067 159.497254 
L 306.843047 158.84591 
L 307.168026 165.372822 
L 307.493006 167.79753 
L 307.817985 164.697186 
L 308.142965 164.984588 
L 308.467944 165.65381 
L 309.117903 171.571996 
L 309.767862 176.530299 
L 310.092842 175.766622 
L 310.417821 178.592861 
L 310.742801 175.026428 
L 311.067781 180.240742 
L 311.39276 174.811299 
L 311.71774 173.278526 
L 312.042719 173.267013 
L 312.367699 170.069541 
L 313.017658 167.878075 
L 313.342637 174.880961 
L 313.667617 176.090663 
L 313.992596 173.151096 
L 314.642555 159.11521 
L 314.967535 160.905213 
L 315.292514 158.758602 
L 315.617494 159.929585 
L 315.942473 158.249182 
L 316.267453 158.049842 
L 317.242391 152.730941 
L 317.567371 145.277873 
L 317.892351 148.010233 
L 318.21733 138.779726 
L 318.867289 145.597132 
L 319.192269 149.321465 
L 319.842228 148.940248 
L 320.167207 147.300537 
L 320.492187 140.539056 
L 320.817166 146.635137 
L 321.142146 144.881879 
L 321.467125 152.418697 
L 321.792105 153.94239 
L 322.117084 147.26371 
L 322.442064 152.639379 
L 322.767043 146.763185 
L 323.092023 150.28982 
L 323.417002 155.13061 
L 323.741982 152.555692 
L 324.066962 152.967783 
L 324.391941 151.208572 
L 324.716921 156.687601 
L 325.0419 158.100502 
L 325.36688 156.395863 
L 325.691859 152.985607 
L 326.016839 148.258719 
L 326.341818 149.325965 
L 326.666798 153.709229 
L 327.316757 148.420663 
L 327.966716 142.790025 
L 328.291695 144.308322 
L 328.616675 145.009296 
L 328.941654 146.594304 
L 329.266634 151.543462 
L 329.591613 146.67221 
L 330.241572 142.052059 
L 330.891532 148.78718 
L 331.216511 142.95107 
L 331.541491 142.825588 
L 331.86647 139.806378 
L 332.516429 145.176199 
L 332.841409 142.234846 
L 333.166388 145.823424 
L 333.491368 144.744949 
L 333.816347 146.670531 
L 334.141327 147.086403 
L 334.791286 143.987493 
L 335.116265 144.342474 
L 335.441245 139.762593 
L 335.766224 143.904375 
L 336.091204 143.08821 
L 336.416183 143.062511 
L 336.741163 137.538131 
L 337.066143 135.933974 
L 337.391122 133.761276 
L 337.716102 139.706249 
L 338.041081 137.223129 
L 338.366061 132.088257 
L 338.69104 131.053979 
L 339.01602 125.779573 
L 339.340999 130.275691 
L 339.990958 119.646039 
L 340.315938 124.452014 
L 340.640917 125.606887 
L 340.965897 123.190761 
L 341.290876 119.645652 
L 341.615856 121.262147 
L 342.265815 126.446415 
L 342.590794 128.330384 
L 342.915774 126.433936 
L 343.240753 127.473667 
L 343.565733 127.223421 
L 343.890713 125.166301 
L 344.215692 125.291243 
L 344.540672 122.623976 
L 344.865651 130.384471 
L 345.190631 129.758563 
L 345.51561 134.440586 
L 345.84059 136.132226 
L 346.165569 134.17496 
L 346.490549 141.206827 
L 346.815528 138.7375 
L 347.140508 139.999257 
L 347.465487 139.442197 
L 347.790467 139.218148 
L 348.115446 135.264036 
L 348.440426 141.531358 
L 349.090385 145.310703 
L 349.415364 144.784414 
L 349.740344 140.263795 
L 350.390303 129.29415 
L 350.715283 131.826916 
L 351.040262 133.174678 
L 351.690221 127.859077 
L 352.015201 119.98862 
L 352.34018 117.790819 
L 352.66516 120.485247 
L 352.990139 110.648237 
L 353.315119 105.529201 
L 353.640098 106.747796 
L 353.965078 106.033073 
L 354.290057 106.051836 
L 354.940016 96.680062 
L 355.264996 92.022935 
L 356.239934 103.844762 
L 356.564914 103.394384 
L 357.214873 93.003676 
L 357.539853 98.461293 
L 357.864832 101.260749 
L 358.189812 105.849733 
L 358.514791 105.553866 
L 358.839771 101.063631 
L 359.16475 111.047176 
L 359.48973 116.925367 
L 360.139689 120.223663 
L 360.464668 116.092808 
L 361.114627 129.073479 
L 361.439607 130.021962 
L 361.764586 129.984081 
L 362.089566 129.125028 
L 362.414545 130.418211 
L 362.739525 131.021085 
L 363.064505 130.544479 
L 363.389484 128.596787 
L 363.714464 129.321097 
L 364.039443 131.488195 
L 364.364423 130.052643 
L 364.689402 124.559969 
L 365.014382 124.939525 
L 365.339361 119.785013 
L 365.664341 119.023782 
L 365.98932 114.824885 
L 366.3143 106.043525 
L 366.639279 104.802862 
L 366.964259 101.680681 
L 367.289238 103.638764 
L 368.264177 81.642076 
L 368.589156 83.778217 
L 368.914136 84.313885 
L 369.239115 83.173397 
L 369.564095 77.882499 
L 369.889075 77.4083 
L 370.214054 77.590108 
L 370.539034 77.363531 
L 371.188993 79.770535 
L 371.513972 80.481463 
L 371.838952 79.155883 
L 372.163931 84.766333 
L 372.488911 85.320605 
L 372.81389 90.686194 
L 373.13887 88.30748 
L 373.463849 95.132211 
L 373.788829 98.377476 
L 374.113808 98.683806 
L 374.438788 97.417908 
L 374.763767 100.583561 
L 375.088747 107.44758 
L 375.413726 105.827889 
L 375.738706 114.924228 
L 376.063686 119.279269 
L 376.388665 116.082366 
L 376.713645 117.776618 
L 377.038624 115.691369 
L 377.363604 112.61779 
L 377.688583 114.290777 
L 378.013563 114.317076 
L 378.338542 116.552237 
L 378.988501 107.325298 
L 379.313481 105.342711 
L 379.63846 98.798931 
L 379.96344 104.50208 
L 380.288419 104.534254 
L 380.613399 100.848934 
L 380.938378 95.579149 
L 381.263358 87.107683 
L 381.913317 81.881694 
L 382.238296 83.832299 
L 382.563276 75.268663 
L 382.888256 74.500283 
L 383.213235 69.510307 
L 383.538215 68.833334 
L 383.863194 69.554062 
L 384.188174 67.204648 
L 384.513153 67.455505 
L 385.163112 63.800772 
L 385.488092 66.422414 
L 385.813071 66.522086 
L 386.138051 69.998928 
L 386.46303 67.647151 
L 386.78801 72.445607 
L 387.112989 68.958642 
L 387.437969 73.710018 
L 387.762948 80.831067 
L 388.087928 79.421816 
L 388.412907 83.825792 
L 388.737887 78.765403 
L 389.387846 85.720874 
L 389.712826 91.217127 
L 390.037805 90.597757 
L 390.362785 94.24997 
L 390.687764 93.538819 
L 391.012744 86.433892 
L 391.662703 82.571059 
L 391.987682 88.742324 
L 392.312662 89.798677 
L 392.637641 88.081765 
L 392.962621 88.606596 
L 393.2876 80.237467 
L 393.61258 79.193307 
L 393.937559 79.895223 
L 394.262539 79.286544 
L 394.587518 79.836499 
L 394.912498 82.718511 
L 395.237477 77.356792 
L 395.562457 76.145748 
L 395.887437 74.236837 
L 396.212416 69.852814 
L 396.537396 63.926141 
L 396.862375 62.844918 
L 397.187355 65.801187 
L 397.512334 65.479729 
L 398.162293 60.769405 
L 398.487273 62.302383 
L 398.487273 62.302383 
" clip-path="url(#p0f834e2270)" style="fill: none; stroke: #ff7f0e; stroke-width: 1.5; stroke-linecap: square"/>
   </g>
   <g id="patch_3">
    <path d="M 57.6 307.584 
L 57.6 41.472 
" style="fill: none; stroke: #000000; stroke-width: 0.8; stroke-linejoin: miter; stroke-linecap: square"/>
   </g>
   <g id="patch_4">
    <path d="M 414.72 307.584 
L 414.72 41.472 
" style="fill: none; stroke: #000000; stroke-width: 0.8; stroke-linejoin: miter; stroke-linecap: square"/>
   </g>
   <g id="patch_5">
    <path d="M 57.6 307.584 
L 414.72 307.584 
" style="fill: none; stroke: #000000; stroke-width: 0.8; stroke-linejoin: miter; stroke-linecap: square"/>
   </g>
   <g id="patch_6">
    <path d="M 57.6 41.472 
L 414.72 41.472 
" style="fill: none; stroke: #000000; stroke-width: 0.8; stroke-linejoin: miter; stroke-linecap: square"/>
   </g>
   <g id="text_14">
    <!-- MSE = 1.556 -->
    <g transform="translate(197.364375 35.472) scale(0.12 -0.12)">
     <defs>
      <path id="DejaVuSans-4d" d="M 628 4666 
L 1569 4666 
L 2759 1491 
L 3956 4666 
L 4897 4666 
L 4897 0 
L 4281 0 
L 4281 4097 
L 3078 897 
L 2444 897 
L 1241 4097 
L 1241 0 
L 628 0 
L 628 4666 
z
" transform="scale(0.015625)"/>
      <path id="DejaVuSans-53" d="M 3425 4513 
L 3425 3897 
Q 3066 4069 2747 4153 
Q 2428 4238 2131 4238 
Q 1616 4238 1336 4038 
Q 1056 3838 1056 3469 
Q 1056 3159 1242 3001 
Q 1428 2844 1947 2747 
L 2328 2669 
Q 3034 2534 3370 2195 
Q 3706 1856 3706 1288 
Q 3706 609 3251 259 
Q 2797 -91 1919 -91 
Q 1588 -91 1214 -16 
Q 841 59 441 206 
L 441 856 
Q 825 641 1194 531 
Q 1563 422 1919 422 
Q 2459 422 2753 634 
Q 3047 847 3047 1241 
Q 3047 1584 2836 1778 
Q 2625 1972 2144 2069 
L 1759 2144 
Q 1053 2284 737 2584 
Q 422 2884 422 3419 
Q 422 4038 858 4394 
Q 1294 4750 2059 4750 
Q 2388 4750 2728 4690 
Q 3069 4631 3425 4513 
z
" transform="scale(0.015625)"/>
      <path id="DejaVuSans-45" d="M 628 4666 
L 3578 4666 
L 3578 4134 
L 1259 4134 
L 1259 2753 
L 3481 2753 
L 3481 2222 
L 1259 2222 
L 1259 531 
L 3634 531 
L 3634 0 
L 628 0 
L 628 4666 
z
" transform="scale(0.015625)"/>
      <path id="DejaVuSans-20" transform="scale(0.015625)"/>
      <path id="DejaVuSans-3d" d="M 678 2906 
L 4684 2906 
L 4684 2381 
L 678 2381 
L 678 2906 
z
M 678 1631 
L 4684 1631 
L 4684 1100 
L 678 1100 
L 678 1631 
z
" transform="scale(0.015625)"/>
      <path id="DejaVuSans-2e" d="M 684 794 
L 1344 794 
L 1344 0 
L 684 0 
L 684 794 
z
" transform="scale(0.015625)"/>
     </defs>
     <use xlink:href="#DejaVuSans-4d"/>
     <use xlink:href="#DejaVuSans-53" x="86.279297"/>
     <use xlink:href="#DejaVuSans-45" x="149.755859"/>
     <use xlink:href="#DejaVuSans-20" x="212.939453"/>
     <use xlink:href="#DejaVuSans-3d" x="244.726562"/>
     <use xlink:href="#DejaVuSans-20" x="328.515625"/>
     <use xlink:href="#DejaVuSans-31" x="360.302734"/>
     <use xlink:href="#DejaVuSans-2e" x="423.925781"/>
     <use xlink:href="#DejaVuSans-35" x="455.712891"/>
     <use xlink:href="#DejaVuSans-35" x="519.335938"/>
     <use xlink:href="#DejaVuSans-36" x="582.958984"/>
    </g>
   </g>
   <g id="legend_1">
    <g id="patch_7">
     <path d="M 64.6 78.82825 
L 146.273438 78.82825 
Q 148.273438 78.82825 148.273438 76.82825 
L 148.273438 48.472 
Q 148.273438 46.472 146.273438 46.472 
L 64.6 46.472 
Q 62.6 46.472 62.6 48.472 
L 62.6 76.82825 
Q 62.6 78.82825 64.6 78.82825 
z
" style="fill: #ffffff; opacity: 0.8; stroke: #cccccc; stroke-linejoin: miter"/>
    </g>
    <g id="line2d_15">
     <path d="M 66.6 54.570437 
L 76.6 54.570437 
L 86.6 54.570437 
" style="fill: none; stroke: #1f77b4; stroke-width: 1.5; stroke-linecap: square"/>
    </g>
    <g id="text_15">
     <!-- Series -->
     <g transform="translate(94.6 58.070437) scale(0.1 -0.1)">
      <defs>
       <path id="DejaVuSans-72" d="M 2631 2963 
Q 2534 3019 2420 3045 
Q 2306 3072 2169 3072 
Q 1681 3072 1420 2755 
Q 1159 2438 1159 1844 
L 1159 0 
L 581 0 
L 581 3500 
L 1159 3500 
L 1159 2956 
Q 1341 3275 1631 3429 
Q 1922 3584 2338 3584 
Q 2397 3584 2469 3576 
Q 2541 3569 2628 3553 
L 2631 2963 
z
" transform="scale(0.015625)"/>
       <path id="DejaVuSans-73" d="M 2834 3397 
L 2834 2853 
Q 2591 2978 2328 3040 
Q 2066 3103 1784 3103 
Q 1356 3103 1142 2972 
Q 928 2841 928 2578 
Q 928 2378 1081 2264 
Q 1234 2150 1697 2047 
L 1894 2003 
Q 2506 1872 2764 1633 
Q 3022 1394 3022 966 
Q 3022 478 2636 193 
Q 2250 -91 1575 -91 
Q 1294 -91 989 -36 
Q 684 19 347 128 
L 347 722 
Q 666 556 975 473 
Q 1284 391 1588 391 
Q 1994 391 2212 530 
Q 2431 669 2431 922 
Q 2431 1156 2273 1281 
Q 2116 1406 1581 1522 
L 1381 1569 
Q 847 1681 609 1914 
Q 372 2147 372 2553 
Q 372 3047 722 3315 
Q 1072 3584 1716 3584 
Q 2034 3584 2315 3537 
Q 2597 3491 2834 3397 
z
" transform="scale(0.015625)"/>
      </defs>
      <use xlink:href="#DejaVuSans-53"/>
      <use xlink:href="#DejaVuSans-65" x="63.476562"/>
      <use xlink:href="#DejaVuSans-72" x="125"/>
      <use xlink:href="#DejaVuSans-69" x="166.113281"/>
      <use xlink:href="#DejaVuSans-65" x="193.896484"/>
      <use xlink:href="#DejaVuSans-73" x="255.419922"/>
     </g>
    </g>
    <g id="line2d_16">
     <path d="M 66.6 69.248562 
L 76.6 69.248562 
L 86.6 69.248562 
" style="fill: none; stroke: #ff7f0e; stroke-width: 1.5; stroke-linecap: square"/>
    </g>
    <g id="text_16">
     <!-- Prediction -->
     <g transform="translate(94.6 72.748562) scale(0.1 -0.1)">
      <defs>
       <path id="DejaVuSans-50" d="M 1259 4147 
L 1259 2394 
L 2053 2394 
Q 2494 2394 2734 2622 
Q 2975 2850 2975 3272 
Q 2975 3691 2734 3919 
Q 2494 4147 2053 4147 
L 1259 4147 
z
M 628 4666 
L 2053 4666 
Q 2838 4666 3239 4311 
Q 3641 3956 3641 3272 
Q 3641 2581 3239 2228 
Q 2838 1875 2053 1875 
L 1259 1875 
L 1259 0 
L 628 0 
L 628 4666 
z
" transform="scale(0.015625)"/>
       <path id="DejaVuSans-64" d="M 2906 2969 
L 2906 4863 
L 3481 4863 
L 3481 0 
L 2906 0 
L 2906 525 
Q 2725 213 2448 61 
Q 2172 -91 1784 -91 
Q 1150 -91 751 415 
Q 353 922 353 1747 
Q 353 2572 751 3078 
Q 1150 3584 1784 3584 
Q 2172 3584 2448 3432 
Q 2725 3281 2906 2969 
z
M 947 1747 
Q 947 1113 1208 752 
Q 1469 391 1925 391 
Q 2381 391 2643 752 
Q 2906 1113 2906 1747 
Q 2906 2381 2643 2742 
Q 2381 3103 1925 3103 
Q 1469 3103 1208 2742 
Q 947 2381 947 1747 
z
" transform="scale(0.015625)"/>
       <path id="DejaVuSans-63" d="M 3122 3366 
L 3122 2828 
Q 2878 2963 2633 3030 
Q 2388 3097 2138 3097 
Q 1578 3097 1268 2742 
Q 959 2388 959 1747 
Q 959 1106 1268 751 
Q 1578 397 2138 397 
Q 2388 397 2633 464 
Q 2878 531 3122 666 
L 3122 134 
Q 2881 22 2623 -34 
Q 2366 -91 2075 -91 
Q 1284 -91 818 406 
Q 353 903 353 1747 
Q 353 2603 823 3093 
Q 1294 3584 2113 3584 
Q 2378 3584 2631 3529 
Q 2884 3475 3122 3366 
z
" transform="scale(0.015625)"/>
       <path id="DejaVuSans-74" d="M 1172 4494 
L 1172 3500 
L 2356 3500 
L 2356 3053 
L 1172 3053 
L 1172 1153 
Q 1172 725 1289 603 
Q 1406 481 1766 481 
L 2356 481 
L 2356 0 
L 1766 0 
Q 1100 0 847 248 
Q 594 497 594 1153 
L 594 3053 
L 172 3053 
L 172 3500 
L 594 3500 
L 594 4494 
L 1172 4494 
z
" transform="scale(0.015625)"/>
       <path id="DejaVuSans-6f" d="M 1959 3097 
Q 1497 3097 1228 2736 
Q 959 2375 959 1747 
Q 959 1119 1226 758 
Q 1494 397 1959 397 
Q 2419 397 2687 759 
Q 2956 1122 2956 1747 
Q 2956 2369 2687 2733 
Q 2419 3097 1959 3097 
z
M 1959 3584 
Q 2709 3584 3137 3096 
Q 3566 2609 3566 1747 
Q 3566 888 3137 398 
Q 2709 -91 1959 -91 
Q 1206 -91 779 398 
Q 353 888 353 1747 
Q 353 2609 779 3096 
Q 1206 3584 1959 3584 
z
" transform="scale(0.015625)"/>
       <path id="DejaVuSans-6e" d="M 3513 2113 
L 3513 0 
L 2938 0 
L 2938 2094 
Q 2938 2591 2744 2837 
Q 2550 3084 2163 3084 
Q 1697 3084 1428 2787 
Q 1159 2491 1159 1978 
L 1159 0 
L 581 0 
L 581 3500 
L 1159 3500 
L 1159 2956 
Q 1366 3272 1645 3428 
Q 1925 3584 2291 3584 
Q 2894 3584 3203 3211 
Q 3513 2838 3513 2113 
z
" transform="scale(0.015625)"/>
      </defs>
      <use xlink:href="#DejaVuSans-50"/>
      <use xlink:href="#DejaVuSans-72" x="58.552734"/>
      <use xlink:href="#DejaVuSans-65" x="97.416016"/>
      <use xlink:href="#DejaVuSans-64" x="158.939453"/>
      <use xlink:href="#DejaVuSans-69" x="222.416016"/>
      <use xlink:href="#DejaVuSans-63" x="250.199219"/>
      <use xlink:href="#DejaVuSans-74" x="305.179688"/>
      <use xlink:href="#DejaVuSans-69" x="344.388672"/>
      <use xlink:href="#DejaVuSans-6f" x="372.171875"/>
      <use xlink:href="#DejaVuSans-6e" x="433.353516"/>
     </g>
    </g>
   </g>
  </g>
 </g>
 <defs>
  <clipPath id="p0f834e2270">
   <rect x="57.6" y="41.472" width="357.12" height="266.112"/>
  </clipPath>
 </defs>
</svg>
