<?xml version="1.0" encoding="utf-8" standalone="no"?>
<!DOCTYPE svg PUBLIC "-//W3C//DTD SVG 1.1//EN"
  "http://www.w3.org/Graphics/SVG/1.1/DTD/svg11.dtd">
<svg xmlns:xlink="http://www.w3.org/1999/xlink" width="460.8pt" height="345.6pt" viewBox="0 0 460.8 345.6" xmlns="http://www.w3.org/2000/svg" version="1.1">
 <metadata>
  <rdf:RDF xmlns:dc="http://purl.org/dc/elements/1.1/" xmlns:cc="http://creativecommons.org/ns#" xmlns:rdf="http://www.w3.org/1999/02/22-rdf-syntax-ns#">
   <cc:Work>
    <dc:type rdf:resource="http://purl.org/dc/dcmitype/StillImage"/>
    <dc:format>image/svg+xml</dc:format>
    <dc:creator>
     <cc:Agent>
      <dc:title>Matplotlib v3.8.4, https://matplotlib.org/</dc:title>
     </cc:Agent>
    </dc:creator>
   </cc:Work>
  </rdf:RDF>
 </metadata>
 <defs>
  <style type="text/css">*{stroke-linejoin: round; stroke-linecap: butt}</style>
 </defs>
 <g id="figure_1">
  <g id="patch_1">
   <path d="M 0 345.6 
L 460.8 345.6 
L 460.8 0 
L 0 0 
z
" style="fill: #ffffff"/>
  </g>
  <g id="axes_1">
   <g id="patch_2">
    <path d="M 57.6 307.584 
L 414.72 307.584 
L 414.72 41.472 
L 57.6 41.472 
z
" style="fill: #ffffff"/>
   </g>
   <g id="matplotlib.axis_1">
    <g id="xtick_1">
     <g id="line2d_1">
      <defs>
       <path id="mbcb02aef95" d="M 0 0 
L 0 3.5 
" style="stroke: #000000; stroke-width: 0.8"/>
      </defs>
      <g>
       <use xlink:href="#mbcb02aef95" x="73.832727" y="307.584" style="stroke: #000000; stroke-width: 0.8"/>
      </g>
     </g>
     <g id="text_1">
      <!-- 0 -->
      <g transform="translate(70.651477 322.182437) scale(0.1 -0.1)">
       <defs>
        <path id="DejaVuSans-30" d="M 2034 4250 
Q 1547 4250 1301 3770 
Q 1056 3291 1056 2328 
Q 1056 1369 1301 889 
Q 1547 409 2034 409 
Q 2525 409 2770 889 
Q 3016 1369 3016 2328 
Q 3016 3291 2770 3770 
Q 2525 4250 2034 4250 
z
M 2034 4750 
Q 2819 4750 3233 4129 
Q 3647 3509 3647 2328 
Q 3647 1150 3233 529 
Q 2819 -91 2034 -91 
Q 1250 -91 836 529 
Q 422 1150 422 2328 
Q 422 3509 836 4129 
Q 1250 4750 2034 4750 
z
" transform="scale(0.015625)"/>
       </defs>
       <use xlink:href="#DejaVuSans-30"/>
      </g>
     </g>
    </g>
    <g id="xtick_2">
     <g id="line2d_2">
      <g>
       <use xlink:href="#mbcb02aef95" x="138.828632" y="307.584" style="stroke: #000000; stroke-width: 0.8"/>
      </g>
     </g>
     <g id="text_2">
      <!-- 200 -->
      <g transform="translate(129.284882 322.182437) scale(0.1 -0.1)">
       <defs>
        <path id="DejaVuSans-32" d="M 1228 531 
L 3431 531 
L 3431 0 
L 469 0 
L 469 531 
Q 828 903 1448 1529 
Q 2069 2156 2228 2338 
Q 2531 2678 2651 2914 
Q 2772 3150 2772 3378 
Q 2772 3750 2511 3984 
Q 2250 4219 1831 4219 
Q 1534 4219 1204 4116 
Q 875 4013 500 3803 
L 500 4441 
Q 881 4594 1212 4672 
Q 1544 4750 1819 4750 
Q 2544 4750 2975 4387 
Q 3406 4025 3406 3419 
Q 3406 3131 3298 2873 
Q 3191 2616 2906 2266 
Q 2828 2175 2409 1742 
Q 1991 1309 1228 531 
z
" transform="scale(0.015625)"/>
       </defs>
       <use xlink:href="#DejaVuSans-32"/>
       <use xlink:href="#DejaVuSans-30" x="63.623047"/>
       <use xlink:href="#DejaVuSans-30" x="127.246094"/>
      </g>
     </g>
    </g>
    <g id="xtick_3">
     <g id="line2d_3">
      <g>
       <use xlink:href="#mbcb02aef95" x="203.824537" y="307.584" style="stroke: #000000; stroke-width: 0.8"/>
      </g>
     </g>
     <g id="text_3">
      <!-- 400 -->
      <g transform="translate(194.280787 322.182437) scale(0.1 -0.1)">
       <defs>
        <path id="DejaVuSans-34" d="M 2419 4116 
L 825 1625 
L 2419 1625 
L 2419 4116 
z
M 2253 4666 
L 3047 4666 
L 3047 1625 
L 3713 1625 
L 3713 1100 
L 3047 1100 
L 3047 0 
L 2419 0 
L 2419 1100 
L 313 1100 
L 313 1709 
L 2253 4666 
z
" transform="scale(0.015625)"/>
       </defs>
       <use xlink:href="#DejaVuSans-34"/>
       <use xlink:href="#DejaVuSans-30" x="63.623047"/>
       <use xlink:href="#DejaVuSans-30" x="127.246094"/>
      </g>
     </g>
    </g>
    <g id="xtick_4">
     <g id="line2d_4">
      <g>
       <use xlink:href="#mbcb02aef95" x="268.820442" y="307.584" style="stroke: #000000; stroke-width: 0.8"/>
      </g>
     </g>
     <g id="text_4">
      <!-- 600 -->
      <g transform="translate(259.276692 322.182437) scale(0.1 -0.1)">
       <defs>
        <path id="DejaVuSans-36" d="M 2113 2584 
Q 1688 2584 1439 2293 
Q 1191 2003 1191 1497 
Q 1191 994 1439 701 
Q 1688 409 2113 409 
Q 2538 409 2786 701 
Q 3034 994 3034 1497 
Q 3034 2003 2786 2293 
Q 2538 2584 2113 2584 
z
M 3366 4563 
L 3366 3988 
Q 3128 4100 2886 4159 
Q 2644 4219 2406 4219 
Q 1781 4219 1451 3797 
Q 1122 3375 1075 2522 
Q 1259 2794 1537 2939 
Q 1816 3084 2150 3084 
Q 2853 3084 3261 2657 
Q 3669 2231 3669 1497 
Q 3669 778 3244 343 
Q 2819 -91 2113 -91 
Q 1303 -91 875 529 
Q 447 1150 447 2328 
Q 447 3434 972 4092 
Q 1497 4750 2381 4750 
Q 2619 4750 2861 4703 
Q 3103 4656 3366 4563 
z
" transform="scale(0.015625)"/>
       </defs>
       <use xlink:href="#DejaVuSans-36"/>
       <use xlink:href="#DejaVuSans-30" x="63.623047"/>
       <use xlink:href="#DejaVuSans-30" x="127.246094"/>
      </g>
     </g>
    </g>
    <g id="xtick_5">
     <g id="line2d_5">
      <g>
       <use xlink:href="#mbcb02aef95" x="333.816347" y="307.584" style="stroke: #000000; stroke-width: 0.8"/>
      </g>
     </g>
     <g id="text_5">
      <!-- 800 -->
      <g transform="translate(324.272597 322.182437) scale(0.1 -0.1)">
       <defs>
        <path id="DejaVuSans-38" d="M 2034 2216 
Q 1584 2216 1326 1975 
Q 1069 1734 1069 1313 
Q 1069 891 1326 650 
Q 1584 409 2034 409 
Q 2484 409 2743 651 
Q 3003 894 3003 1313 
Q 3003 1734 2745 1975 
Q 2488 2216 2034 2216 
z
M 1403 2484 
Q 997 2584 770 2862 
Q 544 3141 544 3541 
Q 544 4100 942 4425 
Q 1341 4750 2034 4750 
Q 2731 4750 3128 4425 
Q 3525 4100 3525 3541 
Q 3525 3141 3298 2862 
Q 3072 2584 2669 2484 
Q 3125 2378 3379 2068 
Q 3634 1759 3634 1313 
Q 3634 634 3220 271 
Q 2806 -91 2034 -91 
Q 1263 -91 848 271 
Q 434 634 434 1313 
Q 434 1759 690 2068 
Q 947 2378 1403 2484 
z
M 1172 3481 
Q 1172 3119 1398 2916 
Q 1625 2713 2034 2713 
Q 2441 2713 2670 2916 
Q 2900 3119 2900 3481 
Q 2900 3844 2670 4047 
Q 2441 4250 2034 4250 
Q 1625 4250 1398 4047 
Q 1172 3844 1172 3481 
z
" transform="scale(0.015625)"/>
       </defs>
       <use xlink:href="#DejaVuSans-38"/>
       <use xlink:href="#DejaVuSans-30" x="63.623047"/>
       <use xlink:href="#DejaVuSans-30" x="127.246094"/>
      </g>
     </g>
    </g>
    <g id="xtick_6">
     <g id="line2d_6">
      <g>
       <use xlink:href="#mbcb02aef95" x="398.812252" y="307.584" style="stroke: #000000; stroke-width: 0.8"/>
      </g>
     </g>
     <g id="text_6">
      <!-- 1000 -->
      <g transform="translate(386.087252 322.182437) scale(0.1 -0.1)">
       <defs>
        <path id="DejaVuSans-31" d="M 794 531 
L 1825 531 
L 1825 4091 
L 703 3866 
L 703 4441 
L 1819 4666 
L 2450 4666 
L 2450 531 
L 3481 531 
L 3481 0 
L 794 0 
L 794 531 
z
" transform="scale(0.015625)"/>
       </defs>
       <use xlink:href="#DejaVuSans-31"/>
       <use xlink:href="#DejaVuSans-30" x="63.623047"/>
       <use xlink:href="#DejaVuSans-30" x="127.246094"/>
       <use xlink:href="#DejaVuSans-30" x="190.869141"/>
      </g>
     </g>
    </g>
    <g id="text_7">
     <!-- Time -->
     <g transform="translate(223.926406 335.860562) scale(0.1 -0.1)">
      <defs>
       <path id="DejaVuSans-54" d="M -19 4666 
L 3928 4666 
L 3928 4134 
L 2272 4134 
L 2272 0 
L 1638 0 
L 1638 4134 
L -19 4134 
L -19 4666 
z
" transform="scale(0.015625)"/>
       <path id="DejaVuSans-69" d="M 603 3500 
L 1178 3500 
L 1178 0 
L 603 0 
L 603 3500 
z
M 603 4863 
L 1178 4863 
L 1178 4134 
L 603 4134 
L 603 4863 
z
" transform="scale(0.015625)"/>
       <path id="DejaVuSans-6d" d="M 3328 2828 
Q 3544 3216 3844 3400 
Q 4144 3584 4550 3584 
Q 5097 3584 5394 3201 
Q 5691 2819 5691 2113 
L 5691 0 
L 5113 0 
L 5113 2094 
Q 5113 2597 4934 2840 
Q 4756 3084 4391 3084 
Q 3944 3084 3684 2787 
Q 3425 2491 3425 1978 
L 3425 0 
L 2847 0 
L 2847 2094 
Q 2847 2600 2669 2842 
Q 2491 3084 2119 3084 
Q 1678 3084 1418 2786 
Q 1159 2488 1159 1978 
L 1159 0 
L 581 0 
L 581 3500 
L 1159 3500 
L 1159 2956 
Q 1356 3278 1631 3431 
Q 1906 3584 2284 3584 
Q 2666 3584 2933 3390 
Q 3200 3197 3328 2828 
z
" transform="scale(0.015625)"/>
       <path id="DejaVuSans-65" d="M 3597 1894 
L 3597 1613 
L 953 1613 
Q 991 1019 1311 708 
Q 1631 397 2203 397 
Q 2534 397 2845 478 
Q 3156 559 3463 722 
L 3463 178 
Q 3153 47 2828 -22 
Q 2503 -91 2169 -91 
Q 1331 -91 842 396 
Q 353 884 353 1716 
Q 353 2575 817 3079 
Q 1281 3584 2069 3584 
Q 2775 3584 3186 3129 
Q 3597 2675 3597 1894 
z
M 3022 2063 
Q 3016 2534 2758 2815 
Q 2500 3097 2075 3097 
Q 1594 3097 1305 2825 
Q 1016 2553 972 2059 
L 3022 2063 
z
" transform="scale(0.015625)"/>
      </defs>
      <use xlink:href="#DejaVuSans-54"/>
      <use xlink:href="#DejaVuSans-69" x="57.958984"/>
      <use xlink:href="#DejaVuSans-6d" x="85.742188"/>
      <use xlink:href="#DejaVuSans-65" x="183.154297"/>
     </g>
    </g>
   </g>
   <g id="matplotlib.axis_2">
    <g id="ytick_1">
     <g id="line2d_7">
      <defs>
       <path id="me5179b328b" d="M 0 0 
L -3.5 0 
" style="stroke: #000000; stroke-width: 0.8"/>
      </defs>
      <g>
       <use xlink:href="#me5179b328b" x="57.6" y="291.412605" style="stroke: #000000; stroke-width: 0.8"/>
      </g>
     </g>
     <g id="text_8">
      <!-- 0 -->
      <g transform="translate(44.2375 295.211824) scale(0.1 -0.1)">
       <use xlink:href="#DejaVuSans-30"/>
      </g>
     </g>
    </g>
    <g id="ytick_2">
     <g id="line2d_8">
      <g>
       <use xlink:href="#me5179b328b" x="57.6" y="242.050791" style="stroke: #000000; stroke-width: 0.8"/>
      </g>
     </g>
     <g id="text_9">
      <!-- 10 -->
      <g transform="translate(37.875 245.85001) scale(0.1 -0.1)">
       <use xlink:href="#DejaVuSans-31"/>
       <use xlink:href="#DejaVuSans-30" x="63.623047"/>
      </g>
     </g>
    </g>
    <g id="ytick_3">
     <g id="line2d_9">
      <g>
       <use xlink:href="#me5179b328b" x="57.6" y="192.688978" style="stroke: #000000; stroke-width: 0.8"/>
      </g>
     </g>
     <g id="text_10">
      <!-- 20 -->
      <g transform="translate(37.875 196.488196) scale(0.1 -0.1)">
       <use xlink:href="#DejaVuSans-32"/>
       <use xlink:href="#DejaVuSans-30" x="63.623047"/>
      </g>
     </g>
    </g>
    <g id="ytick_4">
     <g id="line2d_10">
      <g>
       <use xlink:href="#me5179b328b" x="57.6" y="143.327164" style="stroke: #000000; stroke-width: 0.8"/>
      </g>
     </g>
     <g id="text_11">
      <!-- 30 -->
      <g transform="translate(37.875 147.126383) scale(0.1 -0.1)">
       <defs>
        <path id="DejaVuSans-33" d="M 2597 2516 
Q 3050 2419 3304 2112 
Q 3559 1806 3559 1356 
Q 3559 666 3084 287 
Q 2609 -91 1734 -91 
Q 1441 -91 1130 -33 
Q 819 25 488 141 
L 488 750 
Q 750 597 1062 519 
Q 1375 441 1716 441 
Q 2309 441 2620 675 
Q 2931 909 2931 1356 
Q 2931 1769 2642 2001 
Q 2353 2234 1838 2234 
L 1294 2234 
L 1294 2753 
L 1863 2753 
Q 2328 2753 2575 2939 
Q 2822 3125 2822 3475 
Q 2822 3834 2567 4026 
Q 2313 4219 1838 4219 
Q 1578 4219 1281 4162 
Q 984 4106 628 3988 
L 628 4550 
Q 988 4650 1302 4700 
Q 1616 4750 1894 4750 
Q 2613 4750 3031 4423 
Q 3450 4097 3450 3541 
Q 3450 3153 3228 2886 
Q 3006 2619 2597 2516 
z
" transform="scale(0.015625)"/>
       </defs>
       <use xlink:href="#DejaVuSans-33"/>
       <use xlink:href="#DejaVuSans-30" x="63.623047"/>
      </g>
     </g>
    </g>
    <g id="ytick_5">
     <g id="line2d_11">
      <g>
       <use xlink:href="#me5179b328b" x="57.6" y="93.96535" style="stroke: #000000; stroke-width: 0.8"/>
      </g>
     </g>
     <g id="text_12">
      <!-- 40 -->
      <g transform="translate(37.875 97.764569) scale(0.1 -0.1)">
       <use xlink:href="#DejaVuSans-34"/>
       <use xlink:href="#DejaVuSans-30" x="63.623047"/>
      </g>
     </g>
    </g>
    <g id="ytick_6">
     <g id="line2d_12">
      <g>
       <use xlink:href="#me5179b328b" x="57.6" y="44.603537" style="stroke: #000000; stroke-width: 0.8"/>
      </g>
     </g>
     <g id="text_13">
      <!-- 50 -->
      <g transform="translate(37.875 48.402756) scale(0.1 -0.1)">
       <defs>
        <path id="DejaVuSans-35" d="M 691 4666 
L 3169 4666 
L 3169 4134 
L 1269 4134 
L 1269 2991 
Q 1406 3038 1543 3061 
Q 1681 3084 1819 3084 
Q 2600 3084 3056 2656 
Q 3513 2228 3513 1497 
Q 3513 744 3044 326 
Q 2575 -91 1722 -91 
Q 1428 -91 1123 -41 
Q 819 9 494 109 
L 494 744 
Q 775 591 1075 516 
Q 1375 441 1709 441 
Q 2250 441 2565 725 
Q 2881 1009 2881 1497 
Q 2881 1984 2565 2268 
Q 2250 2553 1709 2553 
Q 1456 2553 1204 2497 
Q 953 2441 691 2322 
L 691 4666 
z
" transform="scale(0.015625)"/>
       </defs>
       <use xlink:href="#DejaVuSans-35"/>
       <use xlink:href="#DejaVuSans-30" x="63.623047"/>
      </g>
     </g>
    </g>
   </g>
   <g id="line2d_13">
    <path d="M 73.832727 291.990517 
L 74.157707 291.939934 
L 74.482686 287.406793 
L 74.807666 289.346023 
L 75.132645 292.328496 
L 75.457625 289.755253 
L 75.782604 292.158636 
L 76.107584 292.082149 
L 76.432563 290.251991 
L 76.757543 295.488 
L 77.082523 294.941507 
L 77.407502 291.993692 
L 77.732482 293.032069 
L 78.057461 289.689209 
L 78.382441 292.645681 
L 78.70742 293.838398 
L 79.0324 286.692548 
L 79.357379 290.833932 
L 79.682359 290.086637 
L 80.007338 293.756041 
L 80.657297 289.965777 
L 80.982277 293.09215 
L 81.307256 289.342283 
L 81.632236 291.774864 
L 81.957215 291.038235 
L 82.282195 291.830292 
L 82.607174 285.799529 
L 82.932154 290.427165 
L 83.257133 293.021798 
L 83.582113 288.391149 
L 83.907093 293.434973 
L 84.232072 289.895588 
L 84.557052 295.224051 
L 84.882031 293.627494 
L 85.207011 289.810134 
L 85.53199 288.403847 
L 85.85697 289.717411 
L 86.181949 290.323185 
L 86.506929 290.662173 
L 86.831908 293.434086 
L 87.156888 291.413385 
L 87.481867 290.61281 
L 87.806847 286.695253 
L 88.131826 288.276066 
L 88.456806 293.289113 
L 88.781785 287.947914 
L 89.106765 289.507315 
L 89.431744 290.038596 
L 89.756724 286.673865 
L 90.081704 285.461938 
L 90.406683 285.540973 
L 90.731663 289.755923 
L 91.706601 284.905627 
L 92.031581 288.407993 
L 92.35656 287.614791 
L 92.68154 289.837713 
L 93.006519 290.029234 
L 93.331499 285.059569 
L 93.656478 283.722893 
L 93.981458 287.268819 
L 94.306437 284.64883 
L 94.631417 286.279045 
L 94.956396 288.818638 
L 95.606355 283.555575 
L 95.931335 287.504504 
L 96.256314 283.616226 
L 96.581294 293.999947 
L 96.906274 285.553619 
L 97.231253 287.404439 
L 97.556233 288.381276 
L 97.881212 287.425783 
L 98.206192 292.550075 
L 98.531171 288.161242 
L 98.856151 286.693616 
L 99.18113 283.864486 
L 99.50611 288.709534 
L 99.831089 289.326022 
L 100.156069 288.452021 
L 100.481048 284.821649 
L 100.806028 286.122858 
L 101.131007 288.083077 
L 101.455987 285.340444 
L 101.780966 286.19207 
L 102.105946 283.860745 
L 102.430925 287.801926 
L 102.755905 286.696188 
L 103.080885 286.676569 
L 103.405864 289.147569 
L 103.730844 284.638739 
L 104.055823 284.568639 
L 104.705782 285.511932 
L 105.030762 288.304695 
L 105.355741 285.74098 
L 105.680721 285.452775 
L 106.0057 286.503431 
L 106.655659 283.39189 
L 106.980639 279.680445 
L 107.305618 283.858271 
L 107.630598 283.611734 
L 107.955577 284.392071 
L 108.280557 288.905467 
L 108.605536 284.194944 
L 108.930516 283.936785 
L 109.255495 277.956099 
L 109.580475 284.453021 
L 109.905455 283.167682 
L 110.230434 283.921155 
L 110.555414 286.632559 
L 110.880393 280.829 
L 111.205373 281.684018 
L 111.530352 281.467126 
L 111.855332 285.533802 
L 112.180311 279.688643 
L 112.505291 286.465639 
L 113.15525 277.297892 
L 113.480229 284.997295 
L 113.805209 283.801707 
L 114.130188 282.015362 
L 114.455168 283.369751 
L 114.780147 285.831278 
L 115.105127 281.725424 
L 115.430106 284.422741 
L 115.755086 280.555694 
L 116.080066 283.936228 
L 116.405045 277.803635 
L 116.730025 283.543979 
L 117.055004 282.407018 
L 117.379984 279.624132 
L 117.704963 284.706625 
L 118.354922 278.557689 
L 118.679902 285.823521 
L 119.004881 281.477644 
L 119.329861 281.369962 
L 119.65484 280.156163 
L 119.97982 285.204788 
L 120.304799 285.463982 
L 120.629779 280.952164 
L 120.954758 281.520533 
L 121.279738 281.621962 
L 121.604717 281.341515 
L 121.929697 283.79772 
L 122.254676 281.432641 
L 122.579656 281.130842 
L 122.904636 283.426248 
L 123.229615 276.827706 
L 123.879574 283.796812 
L 124.204554 278.894893 
L 124.529533 282.548604 
L 124.854513 277.801412 
L 125.179492 276.464064 
L 125.504472 280.91321 
L 125.829451 276.065214 
L 126.154431 276.977538 
L 126.47941 275.526397 
L 126.80439 272.446037 
L 127.129369 277.326096 
L 127.454349 278.201926 
L 127.779328 278.193536 
L 128.104308 277.710017 
L 128.429287 275.632992 
L 128.754267 274.399712 
L 129.079247 274.414705 
L 129.404226 272.97177 
L 129.729206 274.958532 
L 130.054185 271.442442 
L 130.379165 275.783429 
L 130.704144 268.575713 
L 131.354103 277.883442 
L 131.679083 278.719199 
L 132.004062 275.230101 
L 132.329042 277.345257 
L 132.654021 275.423174 
L 132.979001 276.417914 
L 133.62896 280.461382 
L 133.953939 282.473702 
L 134.603898 277.237094 
L 134.928878 279.055047 
L 135.253857 282.82879 
L 135.578837 279.428036 
L 135.903817 278.929999 
L 136.228796 282.007422 
L 136.553776 279.307767 
L 136.878755 279.319353 
L 137.203735 281.974659 
L 137.528714 277.878163 
L 137.853694 276.90524 
L 138.178673 275.070413 
L 138.503653 274.53001 
L 138.828632 279.860427 
L 139.153612 278.05616 
L 139.478591 273.714914 
L 140.12855 272.143317 
L 140.45353 263.115876 
L 140.778509 270.441475 
L 141.103489 268.302491 
L 141.428468 268.047394 
L 141.753448 268.145617 
L 142.078428 269.948864 
L 142.403407 266.791399 
L 142.728387 270.15116 
L 143.053366 268.499945 
L 143.378346 268.883044 
L 143.703325 267.354156 
L 144.028305 261.817395 
L 144.353284 272.214863 
L 144.678264 266.087954 
L 145.003243 272.031866 
L 145.328223 269.573622 
L 145.653202 266.157208 
L 146.303161 272.569142 
L 146.628141 272.277565 
L 146.95312 269.466187 
L 147.2781 273.590806 
L 147.603079 271.896506 
L 147.928059 272.943098 
L 148.253038 275.255547 
L 148.578018 268.899806 
L 148.902998 273.108838 
L 149.227977 280.079287 
L 149.552957 274.942695 
L 149.877936 277.262626 
L 150.202916 273.648635 
L 150.527895 277.722966 
L 151.502834 272.997553 
L 151.827813 277.664347 
L 152.152793 274.991894 
L 152.802752 274.431207 
L 153.127731 267.670724 
L 153.77769 273.389753 
L 154.10267 267.082444 
L 154.427649 263.164601 
L 154.752629 264.909163 
L 155.077609 270.279248 
L 155.402588 266.828983 
L 155.727568 261.659263 
L 156.052547 265.74677 
L 156.377527 262.193417 
L 156.702506 260.751311 
L 157.027486 264.420428 
L 157.352465 261.851596 
L 157.677445 269.384153 
L 158.002424 263.703124 
L 158.327404 261.700007 
L 158.652383 264.167826 
L 158.977363 257.176621 
L 159.302342 264.952428 
L 159.627322 262.817615 
L 159.952301 261.799457 
L 160.277281 259.025745 
L 160.60226 266.64488 
L 160.92724 260.791671 
L 161.577199 267.278249 
L 161.902179 264.316663 
L 162.227158 265.550173 
L 162.552138 268.075475 
L 162.877117 266.928985 
L 163.202097 268.501352 
L 163.852056 266.596688 
L 164.177035 264.530351 
L 164.502015 271.620928 
L 164.826994 263.325786 
L 165.151974 273.334176 
L 165.476953 268.718637 
L 165.801933 266.623977 
L 166.126912 267.023028 
L 166.451892 268.808743 
L 166.776871 267.26353 
L 167.101851 267.3767 
L 167.42683 266.967299 
L 167.75181 262.722892 
L 168.07679 263.212412 
L 168.401769 265.056944 
L 168.726749 260.372067 
L 169.051728 261.084606 
L 169.376708 259.104933 
L 169.701687 258.854278 
L 170.026667 261.791042 
L 170.351646 260.513426 
L 170.676626 256.729478 
L 171.001605 256.574168 
L 171.326585 257.707606 
L 171.651564 257.013704 
L 171.976544 253.87046 
L 172.301523 258.27752 
L 172.626503 255.33188 
L 172.951482 257.113426 
L 173.276462 257.146407 
L 173.601441 253.948234 
L 173.926421 254.722667 
L 174.2514 254.892284 
L 174.57638 253.849785 
L 174.90136 257.213807 
L 175.226339 255.788874 
L 175.551319 258.44715 
L 175.876298 257.084567 
L 176.201278 258.394346 
L 176.526257 257.999633 
L 176.851237 256.906476 
L 177.176216 260.495813 
L 177.501196 253.373209 
L 177.826175 261.038158 
L 178.151155 261.524598 
L 178.476134 255.596514 
L 178.801114 256.383039 
L 179.126093 256.635895 
L 179.451073 256.425371 
L 179.776052 257.771259 
L 180.101032 259.690628 
L 180.426011 257.000393 
L 180.750991 258.55298 
L 181.075971 254.158919 
L 181.40095 256.609177 
L 181.72593 257.967819 
L 182.050909 256.417908 
L 182.375889 254.315897 
L 182.700868 256.458039 
L 183.025848 256.853355 
L 183.350827 254.008885 
L 183.675807 253.823126 
L 184.000786 255.528341 
L 184.325766 255.32085 
L 184.650745 253.496769 
L 184.975725 257.58193 
L 185.300704 257.44334 
L 185.950663 254.468281 
L 186.275643 253.171679 
L 186.600622 250.293532 
L 186.925602 251.804582 
L 187.250581 254.285668 
L 187.575561 253.882947 
L 187.900541 256.223835 
L 188.22552 253.670571 
L 188.5505 254.168916 
L 188.875479 252.443187 
L 189.200459 255.012788 
L 189.850418 248.489112 
L 190.175397 252.110553 
L 190.825356 249.131505 
L 191.150336 251.257864 
L 191.475315 249.114167 
L 191.800295 249.011293 
L 192.125274 248.161698 
L 192.450254 249.667025 
L 193.425192 242.338737 
L 193.750172 243.009997 
L 194.075152 239.574907 
L 194.400131 246.35947 
L 194.725111 241.96332 
L 195.05009 243.396811 
L 195.37507 238.26648 
L 195.700049 245.581219 
L 196.025029 245.669844 
L 196.350008 245.184059 
L 196.674988 249.148466 
L 196.999967 245.496151 
L 197.324947 246.44797 
L 197.649926 244.6541 
L 197.974906 244.697057 
L 198.299885 241.476895 
L 198.624865 244.36594 
L 198.949844 248.761293 
L 199.274824 250.185302 
L 199.599803 247.371486 
L 199.924783 252.430953 
L 200.249762 245.190608 
L 200.574742 247.272179 
L 201.224701 255.093202 
L 201.549681 247.704255 
L 201.87466 251.386178 
L 202.19964 247.973955 
L 202.524619 254.750788 
L 203.174578 249.946576 
L 203.499558 249.202153 
L 203.824537 249.651238 
L 204.149517 246.097587 
L 204.474496 249.247578 
L 204.799476 245.839175 
L 205.774414 239.918292 
L 206.099394 243.101688 
L 206.424373 242.762581 
L 206.749353 234.495768 
L 207.074333 235.548382 
L 207.399312 237.004994 
L 207.724292 230.210409 
L 208.049271 232.747286 
L 208.374251 229.247882 
L 208.69923 231.265756 
L 209.02421 225.78205 
L 209.349189 226.143985 
L 209.674169 230.87847 
L 209.999148 227.836767 
L 210.324128 228.79528 
L 210.649107 227.342318 
L 210.974087 233.60464 
L 211.299066 230.19203 
L 211.624046 230.079338 
L 211.949025 237.964666 
L 212.274005 237.581449 
L 212.598984 240.812385 
L 212.923964 237.618175 
L 213.248943 236.384611 
L 213.573923 235.650296 
L 213.898903 240.349981 
L 214.223882 237.631599 
L 214.548862 246.092019 
L 214.873841 247.814871 
L 215.198821 244.539137 
L 215.5238 244.090174 
L 215.84878 245.581014 
L 216.173759 250.876198 
L 216.498739 246.066301 
L 216.823718 248.93075 
L 217.148698 243.712046 
L 217.473677 243.90354 
L 217.798657 246.366672 
L 218.123636 244.358557 
L 218.448616 244.566148 
L 219.098575 236.845785 
L 219.423554 240.070429 
L 219.748534 234.734911 
L 220.073514 235.564524 
L 220.398493 234.454974 
L 220.723473 231.000763 
L 221.048452 231.557379 
L 221.373432 228.692186 
L 221.698411 228.692779 
L 222.023391 219.412658 
L 222.34837 222.840556 
L 222.67335 223.483366 
L 222.998329 220.239367 
L 223.323309 220.253793 
L 223.648288 219.940568 
L 223.973268 217.514919 
L 224.298247 217.016494 
L 224.623227 220.268995 
L 224.948206 220.6666 
L 225.273186 220.411847 
L 225.598165 226.089235 
L 225.923145 224.991442 
L 226.248124 218.869505 
L 226.573104 219.297077 
L 226.898084 225.181152 
L 227.223063 224.419614 
L 227.548043 226.386886 
L 227.873022 220.874109 
L 228.522981 231.31863 
L 229.17294 237.16203 
L 229.49792 233.600527 
L 230.147879 238.933096 
L 230.472858 237.400509 
L 230.797838 238.655106 
L 231.122817 231.795632 
L 231.772776 235.301988 
L 232.097756 230.987241 
L 232.422735 233.616718 
L 232.747715 234.925762 
L 233.072695 227.87556 
L 233.397674 229.002623 
L 233.722654 231.477249 
L 234.047633 227.883569 
L 234.372613 228.010419 
L 234.697592 227.66447 
L 235.022572 220.362853 
L 235.347551 216.355939 
L 235.672531 222.98971 
L 235.99751 216.692824 
L 236.32249 218.330951 
L 236.647469 216.689668 
L 236.972449 215.849385 
L 237.297428 215.572163 
L 237.622408 212.536458 
L 237.947387 214.095324 
L 238.272367 210.941009 
L 238.922326 211.850948 
L 239.247305 213.579166 
L 239.572285 212.99571 
L 239.897265 210.082209 
L 240.222244 211.209856 
L 240.547224 215.465092 
L 240.872203 213.499737 
L 241.197183 212.647449 
L 241.522162 219.421203 
L 241.847142 214.778012 
L 242.172121 218.569021 
L 242.497101 216.314297 
L 243.14706 223.597006 
L 243.472039 223.753856 
L 243.797019 220.115409 
L 244.121998 219.980704 
L 244.446978 223.122497 
L 244.771957 219.458204 
L 245.096937 225.1505 
L 245.421916 221.099676 
L 245.746896 223.686561 
L 246.396855 219.75027 
L 246.721835 221.417943 
L 247.046814 219.581395 
L 247.371794 215.41143 
L 247.696773 218.521793 
L 248.021753 214.194556 
L 248.346732 218.177172 
L 248.671712 213.202262 
L 248.996691 210.077863 
L 249.321671 218.881999 
L 249.97163 209.763285 
L 250.296609 210.97118 
L 250.621589 208.901415 
L 250.946568 210.726556 
L 251.271548 208.515446 
L 251.596527 208.683011 
L 251.921507 205.061713 
L 252.246486 207.033513 
L 252.571466 206.613035 
L 252.896446 208.307919 
L 253.221425 208.3916 
L 253.546405 208.194276 
L 253.871384 206.122563 
L 254.196364 208.123949 
L 254.521343 206.366196 
L 254.846323 201.951614 
L 255.496282 207.808044 
L 255.821261 203.956291 
L 256.47122 211.654161 
L 256.7962 208.887175 
L 257.121179 210.73744 
L 257.446159 206.654589 
L 257.771138 205.356429 
L 258.096118 200.831383 
L 258.421097 203.687604 
L 258.746077 204.527143 
L 259.071057 201.407138 
L 259.396036 208.365997 
L 259.721016 201.78023 
L 260.045995 199.923118 
L 260.370975 204.96244 
L 260.695954 198.013761 
L 261.345913 201.063508 
L 261.670893 198.175888 
L 261.995872 193.909229 
L 262.320852 198.923355 
L 262.645831 198.705071 
L 262.970811 200.485207 
L 263.29579 201.569953 
L 263.62077 197.627689 
L 263.945749 202.071786 
L 264.270729 200.132566 
L 264.595708 201.895584 
L 264.920688 199.985708 
L 265.245667 200.823849 
L 265.570647 199.577374 
L 265.895627 203.880683 
L 266.220606 203.745807 
L 266.545586 205.907888 
L 266.870565 204.936723 
L 267.195545 203.173857 
L 267.520524 202.401227 
L 267.845504 206.593841 
L 268.170483 202.090089 
L 268.495463 200.668081 
L 268.820442 202.621896 
L 269.145422 198.484307 
L 269.470401 204.344415 
L 270.12036 205.004914 
L 270.44534 195.799408 
L 270.770319 196.627458 
L 271.095299 197.020416 
L 271.420278 194.742345 
L 271.745258 196.692719 
L 272.070238 186.316063 
L 272.395217 190.453161 
L 272.720197 188.931568 
L 273.045176 185.877853 
L 273.695135 184.278755 
L 274.020115 185.531347 
L 274.670074 176.892565 
L 274.995053 177.466664 
L 275.320033 176.307794 
L 275.645012 181.169011 
L 275.969992 182.239259 
L 276.294971 180.221851 
L 276.619951 180.111545 
L 276.94493 178.10253 
L 277.26991 185.73901 
L 277.594889 178.734027 
L 277.919869 184.014116 
L 278.244848 185.935813 
L 278.894808 191.795378 
L 279.219787 187.184759 
L 279.544767 190.554519 
L 279.869746 195.415236 
L 280.194726 196.863875 
L 280.519705 195.835786 
L 280.844685 192.095662 
L 281.494644 201.816451 
L 281.819623 199.33984 
L 282.144603 199.789068 
L 282.469582 205.892795 
L 282.794562 199.216665 
L 283.119541 199.216828 
L 283.7695 192.366483 
L 284.09448 192.882887 
L 284.419459 194.807824 
L 284.744439 195.124773 
L 285.069419 184.087281 
L 285.394398 188.163454 
L 286.044357 183.733258 
L 286.369337 180.756958 
L 287.019296 177.797656 
L 287.344275 175.381819 
L 287.669255 171.874777 
L 287.994234 171.048803 
L 288.319214 169.569995 
L 288.644193 165.874414 
L 288.969173 165.346013 
L 289.294152 159.862244 
L 289.619132 169.27178 
L 289.944111 159.500216 
L 290.269091 158.901455 
L 290.59407 167.195111 
L 290.91905 163.33669 
L 291.244029 164.120647 
L 291.569009 167.672094 
L 291.893989 167.369227 
L 292.218968 169.668971 
L 292.543948 164.27432 
L 292.868927 168.114893 
L 293.193907 169.223201 
L 293.518886 172.585438 
L 293.843866 179.18021 
L 294.168845 179.690703 
L 294.493825 179.12033 
L 294.818804 185.161278 
L 295.143784 182.044398 
L 295.468763 185.859606 
L 295.793743 187.421728 
L 296.118722 185.709393 
L 296.443702 187.047172 
L 296.768681 189.406827 
L 297.093661 185.706521 
L 297.41864 190.961035 
L 297.74362 186.170921 
L 298.0686 185.305486 
L 298.393579 186.304743 
L 298.718559 183.219966 
L 299.043538 185.334838 
L 299.368518 177.956921 
L 299.693497 178.487914 
L 300.018477 176.958208 
L 300.343456 170.599973 
L 300.668436 172.376866 
L 300.993415 171.537971 
L 301.318395 169.346325 
L 301.643374 161.515656 
L 301.968354 163.785993 
L 302.293333 154.057474 
L 302.618313 161.4752 
L 302.943292 150.317099 
L 303.268272 152.398082 
L 303.593251 151.843074 
L 303.918231 151.922915 
L 304.24321 148.86604 
L 304.56819 149.521781 
L 304.89317 146.587 
L 305.218149 149.205249 
L 305.543129 149.575872 
L 305.868108 151.567354 
L 306.518067 152.044969 
L 306.843047 158.375349 
L 307.168026 158.973068 
L 307.493006 155.405086 
L 308.142965 161.0288 
L 308.792924 162.978534 
L 309.117903 166.674462 
L 309.442883 168.638197 
L 309.767862 167.446289 
L 310.092842 171.36642 
L 310.417821 168.752596 
L 310.742801 174.538954 
L 311.067781 168.12844 
L 311.39276 169.581112 
L 311.71774 169.939833 
L 312.367699 165.363293 
L 312.692678 166.070057 
L 313.017658 172.005115 
L 313.992596 163.028452 
L 314.317576 160.10859 
L 314.642555 161.39763 
L 314.967535 157.325201 
L 315.292514 157.822388 
L 315.617494 155.663171 
L 315.942473 155.875837 
L 316.267453 153.015408 
L 316.592432 152.513602 
L 316.917412 150.157082 
L 317.242391 143.867953 
L 317.567371 147.695044 
L 317.892351 137.912213 
L 318.21733 142.428959 
L 318.54231 142.609422 
L 318.867289 144.782474 
L 319.192269 140.706577 
L 319.517248 143.789095 
L 319.842228 142.149162 
L 320.167207 136.345521 
L 320.492187 143.227497 
L 320.817166 140.571782 
L 321.142146 145.630753 
L 321.467125 144.514487 
L 321.792105 140.613191 
L 322.117084 147.086568 
L 322.442064 141.599556 
L 323.092023 148.384764 
L 323.417002 145.792144 
L 323.741982 145.220882 
L 324.066962 146.25695 
L 324.391941 151.73321 
L 324.716921 149.611113 
L 325.0419 148.278858 
L 325.36688 147.599271 
L 325.691859 145.533746 
L 326.016839 146.188604 
L 326.341818 149.407429 
L 326.666798 144.594119 
L 326.991777 143.397508 
L 327.316757 142.861994 
L 327.641736 140.89878 
L 327.966716 140.830588 
L 328.291695 141.093765 
L 328.616675 141.769061 
L 328.941654 145.107946 
L 329.266634 139.416075 
L 329.591613 139.495989 
L 329.916593 138.941292 
L 330.241572 142.440252 
L 330.566552 141.710184 
L 330.891532 136.268902 
L 331.216511 138.860099 
L 331.541491 137.035058 
L 331.86647 138.651622 
L 332.19145 138.689667 
L 332.516429 136.51144 
L 332.841409 140.171342 
L 333.166388 138.720196 
L 333.491368 140.129715 
L 333.816347 140.046522 
L 334.141327 139.659602 
L 334.466306 138.191843 
L 334.791286 139.672195 
L 335.116265 135.036699 
L 335.441245 139.874854 
L 335.766224 137.537911 
L 336.091204 137.447526 
L 336.416183 131.952486 
L 336.741163 134.080056 
L 337.066143 130.947336 
L 337.391122 135.987956 
L 337.716102 130.402959 
L 338.041081 127.537904 
L 338.366061 128.153541 
L 338.69104 124.32442 
L 339.01602 126.827631 
L 339.340999 120.694737 
L 339.665979 117.173675 
L 339.990958 122.496512 
L 340.315938 121.559067 
L 340.640917 115.860805 
L 340.965897 114.690233 
L 341.290876 119.192592 
L 341.940835 117.804792 
L 342.265815 120.342876 
L 342.590794 119.421969 
L 342.915774 119.976738 
L 343.240753 119.945032 
L 343.565733 118.884094 
L 343.890713 119.149749 
L 344.215692 116.99051 
L 344.540672 124.505795 
L 344.865651 120.942739 
L 345.190631 125.303993 
L 345.51561 126.339671 
L 345.84059 125.994478 
L 346.165569 131.835425 
L 346.490549 129.448103 
L 346.815528 131.193059 
L 347.140508 131.447691 
L 347.465487 132.820944 
L 347.790467 128.126675 
L 348.115446 136.164897 
L 348.440426 136.034705 
L 348.765405 136.106116 
L 349.415364 134.917837 
L 349.740344 129.336582 
L 350.065324 127.3907 
L 350.390303 130.643099 
L 350.715283 129.358791 
L 351.040262 123.969186 
L 351.365242 124.113771 
L 351.690221 118.633662 
L 352.015201 117.00807 
L 352.34018 118.476135 
L 352.66516 108.102864 
L 352.990139 104.687339 
L 353.315119 107.890249 
L 354.615037 95.362119 
L 354.940016 90.292356 
L 355.264996 94.275249 
L 355.589975 94.738799 
L 355.914955 95.467893 
L 356.564914 91.873431 
L 356.889894 87.797491 
L 357.214873 94.307847 
L 357.539853 93.631824 
L 357.864832 95.702459 
L 358.514791 93.213501 
L 358.839771 102.986082 
L 359.16475 105.265383 
L 359.48973 103.963987 
L 359.814709 107.387416 
L 360.139689 107.029521 
L 360.789648 117.238722 
L 361.114627 117.029066 
L 361.439607 117.649977 
L 362.089566 122.042043 
L 362.414545 121.591474 
L 362.739525 121.878398 
L 363.064505 121.482382 
L 363.714464 124.290021 
L 364.039443 122.370426 
L 364.364423 118.199835 
L 364.689402 121.250724 
L 365.014382 116.022808 
L 365.339361 115.280323 
L 365.664341 111.337687 
L 365.98932 105.124286 
L 366.3143 104.505211 
L 366.639279 101.443778 
L 366.964259 101.440966 
L 367.289238 92.775771 
L 367.614218 89.625586 
L 367.939197 82.609288 
L 368.264177 85.624081 
L 368.589156 81.479987 
L 368.914136 78.851219 
L 369.239115 73.351878 
L 369.564095 75.627786 
L 370.214054 71.400955 
L 370.539034 71.834752 
L 370.864013 73.224931 
L 371.513972 70.399089 
L 371.838952 76.643551 
L 372.163931 75.203639 
L 372.488911 79.0045 
L 372.81389 76.3505 
L 373.13887 85.31186 
L 373.463849 85.359483 
L 373.788829 85.594208 
L 374.113808 85.264821 
L 374.438788 91.892526 
L 374.763767 95.640459 
L 375.088747 92.047543 
L 375.413726 102.509615 
L 375.738706 106.382013 
L 376.063686 101.616443 
L 376.388665 105.376614 
L 376.713645 107.747473 
L 377.038624 104.196621 
L 378.013563 108.889352 
L 378.338542 102.709096 
L 378.663522 102.010665 
L 378.988501 102.255538 
L 379.313481 95.52008 
L 379.63846 100.493117 
L 379.96344 99.140016 
L 380.938378 86.308601 
L 381.263358 84.50955 
L 381.588337 80.052215 
L 381.913317 81.071376 
L 382.238296 71.585188 
L 382.563276 72.669331 
L 382.888256 67.222216 
L 383.213235 66.880645 
L 383.863194 62.638615 
L 384.188174 61.557641 
L 384.513153 60.019163 
L 384.838133 57.598493 
L 385.163112 59.996594 
L 385.488092 58.655124 
L 385.813071 60.855535 
L 386.138051 57.593242 
L 386.46303 63.588241 
L 386.78801 58.471389 
L 387.437969 68.9754 
L 387.762948 66.578663 
L 388.087928 70.095133 
L 388.412907 67.885059 
L 388.737887 73.100611 
L 389.062867 74.065378 
L 389.387846 79.00855 
L 389.712826 76.714283 
L 390.037805 82.67492 
L 390.362785 81.512141 
L 390.687764 76.431362 
L 391.012744 76.853231 
L 391.337723 77.996455 
L 391.662703 81.451971 
L 391.987682 78.968222 
L 392.312662 78.417228 
L 392.637641 80.609557 
L 392.962621 73.182955 
L 393.2876 73.691788 
L 393.61258 75.210797 
L 394.262539 71.408725 
L 394.587518 75.469514 
L 394.912498 69.506509 
L 395.237477 69.034209 
L 395.562457 68.294569 
L 395.887437 65.031293 
L 396.212416 58.483437 
L 396.862375 61.779942 
L 397.512334 54.84382 
L 397.837314 55.179735 
L 398.487273 57.794369 
L 398.487273 57.794369 
" clip-path="url(#p0f834e2270)" style="fill: none; stroke: #1f77b4; stroke-width: 1.5; stroke-linecap: square"/>
   </g>
   <g id="line2d_14">
    <path d="M 76.432563 290.674363 
L 76.757543 290.964552 
L 77.407502 293.010395 
L 78.057461 292.605403 
L 78.382441 292.267174 
L 78.70742 292.870035 
L 79.0324 292.853602 
L 79.357379 291.149831 
L 79.682359 290.693238 
L 80.007338 290.504336 
L 80.332318 292.075022 
L 80.657297 290.879638 
L 80.982277 290.898121 
L 81.957215 291.57627 
L 82.282195 290.979217 
L 82.607174 291.639753 
L 82.932154 289.439224 
L 83.257133 290.313788 
L 83.582113 290.614889 
L 84.232072 290.475686 
L 84.557052 290.16509 
L 84.882031 292.32898 
L 85.207011 292.010001 
L 85.53199 292.136423 
L 85.85697 290.463353 
L 86.181949 291.19513 
L 86.831908 290.747461 
L 87.156888 290.864722 
L 87.481867 290.747489 
L 87.806847 290.89986 
L 88.131826 289.709313 
L 88.456806 289.985399 
L 88.781785 290.818536 
L 89.431744 289.310473 
L 89.756724 289.043279 
L 90.081704 289.203214 
L 90.406683 287.945601 
L 90.731663 287.39807 
L 91.056642 288.083259 
L 91.381622 287.792264 
L 91.706601 287.172797 
L 92.031581 286.053374 
L 92.35656 287.370792 
L 92.68154 287.454783 
L 93.006519 288.201766 
L 93.331499 287.927715 
L 93.656478 287.400564 
L 93.981458 286.446223 
L 94.306437 287.135259 
L 94.956396 286.270831 
L 95.281376 286.190171 
L 95.606355 286.377514 
L 95.931335 285.427062 
L 96.256314 286.199893 
L 96.581294 285.637634 
L 96.906274 288.334223 
L 97.231253 286.403408 
L 97.556233 287.488484 
L 97.881212 286.548082 
L 98.206192 288.598406 
L 98.531171 288.925933 
L 98.856151 288.738947 
L 99.18113 288.058745 
L 99.50611 286.709268 
L 99.831089 288.285031 
L 100.156069 288.132591 
L 100.481048 288.235162 
L 100.806028 286.233014 
L 101.455987 287.293478 
L 101.780966 287.098908 
L 102.430925 285.335474 
L 102.755905 286.436684 
L 103.080885 286.136278 
L 103.405864 286.514494 
L 103.730844 286.562736 
L 104.055823 286.381193 
L 104.705782 285.714449 
L 105.030762 286.107492 
L 105.355741 286.295704 
L 105.680721 285.819625 
L 106.0057 285.562579 
L 106.655659 285.991575 
L 106.980639 285.187077 
L 107.305618 283.549569 
L 107.630598 283.826832 
L 107.955577 283.511067 
L 108.280557 283.783237 
L 108.605536 284.245612 
L 109.255495 284.31807 
L 109.580475 282.522569 
L 109.905455 284.156176 
L 110.230434 283.279614 
L 110.555414 283.831449 
L 110.880393 283.061074 
L 111.855332 282.439921 
L 112.180311 283.906371 
L 112.505291 281.92746 
L 112.83027 283.372921 
L 113.15525 281.857402 
L 113.480229 281.758298 
L 113.805209 281.850798 
L 114.130188 283.060237 
L 114.780147 281.885939 
L 115.105127 283.329132 
L 115.430106 282.978232 
L 115.755086 283.622006 
L 116.080066 282.316603 
L 116.405045 283.493792 
L 116.730025 281.22764 
L 117.055004 282.600931 
L 117.379984 281.434597 
L 117.704963 281.739663 
L 118.029943 281.476464 
L 118.354922 281.760098 
L 118.679902 280.978818 
L 119.004881 282.055917 
L 119.329861 282.077826 
L 119.65484 281.938853 
L 119.97982 280.678078 
L 120.304799 282.752297 
L 120.629779 283.04196 
L 120.954758 282.64101 
L 121.279738 281.665051 
L 121.604717 282.154791 
L 121.929697 282.437536 
L 122.254676 282.504355 
L 122.579656 281.799962 
L 122.904636 281.497208 
L 123.229615 281.901749 
L 123.554595 280.749735 
L 123.879574 280.647527 
L 124.204554 281.147144 
L 124.854513 280.631151 
L 125.179492 279.479554 
L 125.504472 279.386807 
L 125.829451 279.442569 
L 126.154431 278.873117 
L 127.129369 275.953564 
L 127.454349 276.002653 
L 127.779328 276.517063 
L 128.104308 276.657806 
L 128.429287 276.205872 
L 128.754267 276.262298 
L 129.079247 275.992536 
L 129.404226 275.904933 
L 129.729206 275.062769 
L 130.054185 274.81697 
L 130.379165 273.393302 
L 130.704144 274.080567 
L 131.029124 271.879804 
L 131.354103 273.134546 
L 131.679083 273.452351 
L 132.004062 275.632789 
L 132.329042 274.19036 
L 132.654021 275.419006 
L 132.979001 275.525618 
L 133.30398 276.731663 
L 133.62896 276.635392 
L 134.278919 278.547965 
L 134.603898 278.901656 
L 134.928878 278.455483 
L 135.253857 279.013178 
L 135.578837 280.562998 
L 135.903817 280.146331 
L 136.228796 279.372445 
L 136.878755 280.082481 
L 137.203735 279.904837 
L 137.528714 280.148231 
L 137.853694 279.62844 
L 138.178673 278.85163 
L 138.503653 277.595972 
L 138.828632 277.167015 
L 139.153612 277.644479 
L 139.478591 277.366588 
L 140.12855 274.620103 
L 140.45353 274.526725 
L 140.778509 271.61382 
L 141.103489 271.321361 
L 141.428468 269.577184 
L 141.753448 269.419609 
L 142.078428 267.334518 
L 142.403407 268.45663 
L 142.728387 267.491891 
L 143.053366 268.626225 
L 143.378346 267.98794 
L 143.703325 268.664275 
L 144.353284 266.39336 
L 144.678264 267.957404 
L 145.003243 267.104623 
L 145.328223 268.765546 
L 145.653202 267.173682 
L 145.978182 268.172484 
L 146.303161 267.664572 
L 146.628141 269.968818 
L 146.95312 270.17785 
L 147.2781 269.519284 
L 147.603079 270.438138 
L 147.928059 271.009464 
L 148.253038 272.092762 
L 148.578018 272.34548 
L 148.902998 271.566787 
L 149.227977 272.015252 
L 149.552957 274.141943 
L 149.877936 274.597615 
L 150.202916 274.660763 
L 150.527895 273.963007 
L 150.852875 276.18691 
L 151.177854 275.766691 
L 151.502834 275.8888 
L 151.827813 274.121933 
L 152.152793 275.705061 
L 152.477772 275.122002 
L 152.802752 275.08737 
L 153.77769 272.218004 
L 154.10267 272.437125 
L 154.427649 270.891769 
L 154.752629 267.904104 
L 155.077609 266.813868 
L 155.402588 268.212074 
L 155.727568 267.364128 
L 156.052547 264.978099 
L 156.377527 264.557039 
L 156.702506 264.426563 
L 157.677445 262.616149 
L 158.002424 264.193197 
L 158.327404 263.226174 
L 158.652383 263.224739 
L 159.302342 262.315866 
L 159.627322 262.940556 
L 159.952301 262.103382 
L 160.277281 262.25139 
L 160.60226 259.962882 
L 160.92724 262.694966 
L 161.252219 261.505761 
L 161.577199 262.859863 
L 161.902179 262.682995 
L 162.227158 264.014527 
L 162.552138 263.804165 
L 162.877117 265.141887 
L 163.527076 266.456549 
L 163.852056 266.526758 
L 164.177035 266.725256 
L 164.502015 266.028116 
L 164.826994 267.893946 
L 165.151974 266.115222 
L 165.476953 268.499895 
L 165.801933 267.117751 
L 166.126912 268.351054 
L 166.451892 266.562825 
L 166.776871 268.530468 
L 167.101851 267.593179 
L 167.42683 267.585112 
L 168.401769 265.079346 
L 168.726749 264.966986 
L 169.701687 260.976396 
L 170.676626 260.215855 
L 171.001605 258.682009 
L 171.326585 257.855929 
L 171.651564 257.975248 
L 171.976544 257.771943 
L 172.301523 256.172693 
L 172.626503 256.334046 
L 172.951482 255.668286 
L 173.276462 256.283536 
L 173.601441 255.613171 
L 173.926421 255.477139 
L 174.2514 254.848689 
L 174.57638 254.969906 
L 174.90136 254.580849 
L 175.226339 254.893882 
L 175.551319 254.697332 
L 175.876298 255.621108 
L 176.201278 255.473165 
L 176.526257 256.641163 
L 176.851237 256.572595 
L 177.501196 257.685673 
L 177.826175 256.397826 
L 178.151155 257.8762 
L 178.476134 258.076376 
L 178.801114 258.018744 
L 179.126093 256.424727 
L 179.451073 256.977934 
L 179.776052 257.119282 
L 180.101032 256.900416 
L 180.426011 257.137133 
L 180.750991 256.615045 
L 181.075971 257.138423 
L 181.40095 256.074647 
L 181.72593 256.741192 
L 182.050909 256.555141 
L 182.375889 256.710924 
L 182.700868 255.154278 
L 183.350827 255.784594 
L 183.675807 255.3102 
L 184.000786 254.3967 
L 184.650745 254.795974 
L 184.975725 254.091079 
L 185.625684 255.155079 
L 185.950663 255.372858 
L 186.275643 254.59924 
L 186.600622 254.443472 
L 186.925602 253.383162 
L 187.250581 252.994803 
L 187.900541 252.753052 
L 188.22552 253.004048 
L 188.5505 252.697941 
L 188.875479 253.327425 
L 189.200459 252.913419 
L 189.525438 253.953893 
L 190.175397 251.617963 
L 190.500377 251.176154 
L 190.825356 251.110461 
L 191.150336 250.240055 
L 191.800295 249.437741 
L 192.125274 249.188373 
L 192.450254 248.531209 
L 192.775233 248.885262 
L 193.425192 247.132839 
L 193.750172 245.286374 
L 194.075152 244.891685 
L 194.400131 242.973491 
L 194.725111 243.795577 
L 195.05009 242.069887 
L 195.37507 242.511458 
L 195.700049 240.022119 
L 196.025029 242.602281 
L 196.350008 242.454693 
L 196.674988 243.677274 
L 196.999967 243.658257 
L 197.649926 245.156951 
L 197.974906 244.869119 
L 198.299885 245.294954 
L 198.624865 243.6717 
L 198.949844 244.039913 
L 199.274824 244.607804 
L 199.599803 245.989288 
L 199.924783 245.403816 
L 200.249762 247.202737 
L 200.574742 246.605864 
L 200.899722 247.7248 
L 201.224701 248.136462 
L 201.549681 250.672423 
L 201.87466 248.571843 
L 202.19964 249.352971 
L 202.524619 248.561379 
L 202.849599 251.645845 
L 203.174578 250.46619 
L 203.499558 250.64231 
L 203.824537 249.019785 
L 204.149517 250.144035 
L 204.474496 248.722263 
L 204.799476 248.886318 
L 205.124455 247.199074 
L 205.449435 246.421776 
L 205.774414 244.32094 
L 206.099394 243.399712 
L 206.749353 242.407494 
L 207.074333 239.468051 
L 207.399312 237.870932 
L 207.724292 237.529827 
L 208.69923 231.798834 
L 209.02421 231.799614 
L 209.349189 228.953482 
L 209.999148 227.944614 
L 210.324128 228.038316 
L 210.974087 226.518293 
L 211.299066 228.777581 
L 211.624046 228.505715 
L 211.949025 229.101844 
L 212.274005 230.548049 
L 212.923964 234.734867 
L 213.248943 234.728717 
L 213.573923 235.789782 
L 213.898903 235.747556 
L 214.223882 237.828764 
L 214.548862 237.051361 
L 214.873841 239.38566 
L 215.198821 240.442689 
L 215.5238 241.976064 
L 215.84878 241.81692 
L 216.498739 246.127929 
L 216.823718 245.85653 
L 217.148698 246.376533 
L 217.473677 244.861553 
L 217.798657 245.685541 
L 218.123636 245.24809 
L 218.448616 245.356771 
L 219.098575 242.770163 
L 219.423554 241.163654 
L 219.748534 240.753029 
L 220.723473 235.586488 
L 221.048452 234.404623 
L 221.698411 231.423728 
L 222.023391 230.321128 
L 222.34837 226.520137 
L 222.67335 225.598772 
L 222.998329 224.035813 
L 223.323309 223.160249 
L 223.648288 220.638536 
L 223.973268 219.988074 
L 224.623227 218.116517 
L 225.598165 218.347641 
L 226.248124 220.859926 
L 226.898084 219.704384 
L 227.223063 221.622214 
L 227.548043 222.396226 
L 227.873022 222.705109 
L 228.198002 220.932758 
L 228.847961 224.992011 
L 229.17294 228.06008 
L 229.822899 230.201779 
L 230.797838 235.88296 
L 231.122817 236.088096 
L 231.447797 234.665237 
L 231.772776 234.721363 
L 232.097756 234.591777 
L 232.422735 233.829353 
L 232.747715 232.70233 
L 233.072695 232.722066 
L 233.722654 230.213746 
L 234.047633 230.280395 
L 234.372613 229.733237 
L 235.022572 227.523793 
L 235.672531 222.712101 
L 235.99751 222.599951 
L 236.32249 220.528786 
L 236.647469 219.286056 
L 236.972449 216.751374 
L 237.297428 216.84861 
L 237.947387 214.698727 
L 238.272367 213.83288 
L 238.597346 212.558109 
L 238.922326 212.039602 
L 239.247305 211.064764 
L 239.572285 211.609326 
L 240.547224 210.145644 
L 240.872203 211.553075 
L 241.197183 211.764168 
L 241.522162 211.347029 
L 241.847142 212.922148 
L 242.172121 213.324016 
L 242.497101 214.812973 
L 242.82208 214.220087 
L 243.14706 216.631764 
L 243.472039 217.597162 
L 243.797019 219.564338 
L 244.121998 218.695137 
L 244.446978 219.277713 
L 244.771957 220.468243 
L 245.096937 220.3866 
L 245.421916 221.266363 
L 245.746896 220.143837 
L 246.071876 221.43124 
L 246.396855 220.497346 
L 246.721835 220.95724 
L 247.046814 220.26568 
L 247.371794 220.204926 
L 247.696773 218.384306 
L 248.021753 217.976396 
L 248.346732 216.483062 
L 248.671712 216.873265 
L 248.996691 214.577836 
L 249.321671 213.486934 
L 249.64665 213.968893 
L 249.97163 213.976089 
L 250.621589 210.66812 
L 250.946568 210.6408 
L 251.271548 210.45392 
L 251.596527 209.066945 
L 251.921507 208.346869 
L 252.246486 206.540936 
L 252.571466 206.817771 
L 252.896446 205.957569 
L 253.221425 206.504997 
L 253.546405 205.847787 
L 253.871384 206.202703 
L 254.196364 205.528071 
L 254.521343 206.275902 
L 254.846323 205.86837 
L 255.171302 204.644404 
L 255.496282 204.087261 
L 255.821261 204.822896 
L 256.146241 204.122975 
L 256.47122 204.224949 
L 257.121179 206.464238 
L 257.446159 207.04206 
L 257.771138 206.537163 
L 258.096118 206.615709 
L 258.421097 204.627135 
L 258.746077 204.657715 
L 259.396036 202.556996 
L 259.721016 202.869631 
L 260.045995 201.828361 
L 260.370975 201.420349 
L 260.695954 201.475683 
L 261.020934 200.954188 
L 261.670893 199.250508 
L 261.995872 198.98268 
L 262.320852 196.550966 
L 262.645831 196.95405 
L 262.970811 196.798562 
L 263.29579 197.60406 
L 263.62077 197.229939 
L 263.945749 197.052006 
L 264.270729 198.152256 
L 264.595708 198.505339 
L 264.920688 199.539964 
L 265.245667 198.513673 
L 265.570647 199.298659 
L 265.895627 198.564622 
L 266.220606 200.209644 
L 266.545586 200.223929 
L 266.870565 201.607053 
L 267.195545 201.494718 
L 267.520524 202.11449 
L 267.845504 201.84567 
L 268.170483 203.363777 
L 268.820442 201.623209 
L 269.470401 200.439036 
L 269.795381 201.074405 
L 270.12036 201.059277 
L 270.44534 201.884155 
L 270.770319 198.894223 
L 271.095299 198.811134 
L 271.420278 197.916003 
L 271.745258 197.603787 
L 272.070238 195.787436 
L 272.395217 192.115888 
L 272.720197 191.413094 
L 273.045176 189.805728 
L 273.370156 189.109374 
L 273.695135 186.036904 
L 274.345094 184.525065 
L 274.670074 182.996354 
L 274.995053 180.578888 
L 275.320033 179.001169 
L 275.645012 178.063894 
L 275.969992 178.292772 
L 276.94493 177.263912 
L 277.26991 177.494833 
L 277.594889 179.855716 
L 277.919869 178.736804 
L 278.244848 180.029091 
L 278.569828 180.025829 
L 278.894808 183.199674 
L 279.869746 186.046605 
L 280.519705 191.141406 
L 280.844685 191.42785 
L 281.169664 191.121711 
L 281.819623 195.612079 
L 282.144603 196.45591 
L 282.469582 196.16342 
L 282.794562 198.598535 
L 283.444521 199.047753 
L 283.7695 197.418511 
L 284.09448 196.715085 
L 284.419459 194.936927 
L 284.744439 194.561717 
L 285.069419 193.637425 
L 285.394398 189.855921 
L 285.719378 188.957704 
L 286.044357 187.51031 
L 286.369337 187.025343 
L 286.694316 183.340512 
L 287.669255 178.195053 
L 288.319214 173.427333 
L 288.969173 169.284687 
L 289.294152 167.196609 
L 289.619132 164.23508 
L 289.944111 165.188436 
L 290.269091 162.032645 
L 290.59407 161.020349 
L 290.91905 160.653904 
L 291.244029 161.929954 
L 291.569009 161.213487 
L 291.893989 161.759347 
L 292.543948 164.449019 
L 292.868927 163.758119 
L 293.193907 164.817775 
L 293.518886 165.373973 
L 294.493825 171.549266 
L 294.818804 172.903868 
L 295.143784 176.128648 
L 295.468763 177.931755 
L 295.793743 180.417221 
L 296.443702 182.979508 
L 296.768681 183.352876 
L 297.093661 184.995436 
L 297.41864 184.853241 
L 297.74362 186.27809 
L 298.0686 185.43076 
L 298.393579 185.615645 
L 298.718559 184.754074 
L 299.043538 184.62553 
L 299.368518 184.00525 
L 299.693497 181.552741 
L 300.018477 180.463308 
L 301.643374 170.994272 
L 301.968354 166.968355 
L 302.293333 165.660661 
L 302.618313 161.484344 
L 302.943292 161.71735 
L 303.268272 156.209491 
L 303.593251 155.404833 
L 303.918231 151.690511 
L 304.24321 152.459569 
L 304.56819 149.143437 
L 304.89317 148.89334 
L 305.218149 146.880409 
L 305.543129 147.427891 
L 305.868108 146.755231 
L 306.193088 147.533494 
L 306.518067 147.291312 
L 306.843047 148.141406 
L 307.493006 152.169658 
L 307.817985 152.494838 
L 308.142965 153.398246 
L 308.792924 157.301082 
L 309.117903 157.933839 
L 310.417821 164.81593 
L 310.742801 165.52531 
L 311.067781 168.157076 
L 311.39276 167.162697 
L 311.71774 168.19634 
L 312.042719 167.442902 
L 312.367699 168.128203 
L 312.692678 166.110188 
L 313.017658 165.736584 
L 313.342637 166.745816 
L 313.667617 166.674385 
L 313.992596 165.617906 
L 314.317576 163.841031 
L 314.967535 162.467149 
L 315.942473 156.350847 
L 316.267453 155.813179 
L 316.592432 153.787594 
L 316.917412 152.984754 
L 317.892351 147.550917 
L 318.21733 143.920656 
L 318.54231 143.213114 
L 318.867289 140.968415 
L 319.192269 141.993426 
L 319.517248 139.223661 
L 319.842228 140.251017 
L 320.492187 138.853082 
L 320.817166 138.997586 
L 321.142146 138.760055 
L 321.467125 140.236459 
L 321.792105 139.43273 
L 322.117084 139.656392 
L 322.442064 140.648174 
L 322.767043 140.868751 
L 323.092023 141.711938 
L 323.417002 142.054515 
L 323.741982 143.053319 
L 324.066962 142.360558 
L 324.391941 143.004193 
L 324.716921 145.140529 
L 325.0419 145.617318 
L 325.36688 145.632124 
L 325.691859 145.082592 
L 326.016839 145.409111 
L 326.341818 145.22687 
L 326.666798 145.722267 
L 327.316757 143.223451 
L 327.641736 142.184812 
L 327.966716 141.785282 
L 328.616675 139.820394 
L 328.941654 139.341603 
L 329.266634 139.954311 
L 329.591613 138.767879 
L 329.916593 138.391316 
L 330.241572 137.693188 
L 330.566552 139.179176 
L 330.891532 138.526251 
L 331.216511 137.080536 
L 331.541491 136.449369 
L 331.86647 136.269266 
L 332.19145 136.738778 
L 332.516429 135.785268 
L 332.841409 135.293424 
L 333.491368 135.838923 
L 333.816347 136.494048 
L 334.141327 136.285744 
L 334.466306 136.90499 
L 334.791286 136.360875 
L 335.116265 136.940289 
L 335.441245 135.557395 
L 335.766224 136.394191 
L 336.091204 135.421709 
L 336.416183 135.75572 
L 336.741163 133.043238 
L 337.066143 133.41769 
L 337.391122 131.584694 
L 337.716102 132.76763 
L 338.041081 130.092334 
L 338.366061 129.044841 
L 338.69104 127.245028 
L 339.01602 126.600711 
L 339.340999 125.661827 
L 339.990958 120.596315 
L 340.315938 119.796906 
L 340.640917 119.806312 
L 341.290876 115.055611 
L 341.615856 115.593666 
L 341.940835 115.819519 
L 342.265815 115.23931 
L 342.590794 114.981351 
L 343.240753 116.200754 
L 343.890713 116.468255 
L 344.215692 116.405768 
L 344.540672 115.876484 
L 344.865651 117.604305 
L 345.190631 117.257945 
L 345.51561 118.988165 
L 345.84059 119.221155 
L 346.490549 123.085563 
L 347.140508 125.812888 
L 347.465487 126.422635 
L 347.790467 128.286165 
L 348.115446 127.275811 
L 348.440426 129.603721 
L 348.765405 130.108082 
L 349.090385 131.672683 
L 349.415364 130.925285 
L 349.740344 132.105582 
L 350.390303 129.803578 
L 351.040262 128.607812 
L 351.690221 124.096272 
L 352.34018 120.259754 
L 352.66516 118.465829 
L 353.315119 110.609662 
L 353.965078 106.975428 
L 354.615037 100.134684 
L 355.589975 93.72316 
L 355.914955 92.33958 
L 356.239934 91.950587 
L 356.564914 90.289972 
L 356.889894 89.911922 
L 357.214873 88.416178 
L 357.539853 89.826633 
L 357.864832 89.528381 
L 358.189812 90.349716 
L 358.514791 89.315918 
L 358.839771 90.052425 
L 359.48973 95.597285 
L 360.139689 98.200137 
L 360.464668 100.482684 
L 361.114627 106.779838 
L 361.439607 108.947635 
L 361.764586 110.217911 
L 362.414545 115.152344 
L 362.739525 116.526234 
L 363.064505 117.301032 
L 363.389484 117.739672 
L 364.039443 119.65933 
L 364.364423 119.658297 
L 364.689402 118.319092 
L 365.014382 118.60621 
L 365.664341 116.306675 
L 366.964259 105.203907 
L 367.289238 102.977619 
L 368.264177 89.91078 
L 368.589156 88.526404 
L 369.564095 76.747052 
L 369.889075 75.859378 
L 370.214054 73.493199 
L 370.539034 72.042296 
L 370.864013 69.78586 
L 371.188993 69.725102 
L 371.838952 68.138876 
L 372.163931 69.249682 
L 372.488911 69.798962 
L 372.81389 71.485404 
L 373.13887 71.011209 
L 373.463849 74.82392 
L 373.788829 76.206533 
L 374.113808 78.750001 
L 374.438788 78.680132 
L 375.088747 85.277505 
L 375.413726 86.595598 
L 376.388665 95.741399 
L 376.713645 97.163812 
L 377.038624 99.968835 
L 377.363604 101.28372 
L 377.688583 101.757478 
L 378.013563 102.526089 
L 378.338542 103.777775 
L 378.663522 102.370735 
L 379.313481 100.88966 
L 379.63846 99.250327 
L 379.96344 98.447301 
L 380.613399 95.560937 
L 380.938378 92.146224 
L 381.588337 87.778166 
L 382.238296 82.191257 
L 382.563276 77.323618 
L 382.888256 75.128444 
L 383.213235 70.942281 
L 383.538215 69.465509 
L 383.863194 65.654906 
L 384.188174 63.90735 
L 384.513153 61.148633 
L 384.838133 59.761615 
L 385.163112 57.645584 
L 385.488092 57.063636 
L 385.813071 56.026191 
L 386.138051 56.175858 
L 386.46303 54.767273 
L 386.78801 56.469493 
L 387.112989 55.338816 
L 387.437969 57.537248 
L 387.762948 58.605092 
L 388.087928 60.560497 
L 388.737887 62.399892 
L 389.062867 65.159193 
L 389.387846 66.458417 
L 389.712826 69.520074 
L 390.037805 69.645576 
L 390.362785 73.047012 
L 391.012744 74.833131 
L 391.337723 74.169436 
L 391.987682 76.178147 
L 392.637641 74.889832 
L 392.962621 75.169151 
L 393.937559 72.609271 
L 394.262539 72.248567 
L 394.587518 70.236824 
L 394.912498 70.410791 
L 395.237477 68.826908 
L 395.562457 68.19726 
L 395.887437 66.628918 
L 396.212416 65.805738 
L 396.537396 62.254673 
L 397.512334 57.961645 
L 397.837314 55.021891 
L 398.162293 53.603432 
L 398.487273 53.568 
L 398.487273 53.568 
" clip-path="url(#p0f834e2270)" style="fill: none; stroke: #ff7f0e; stroke-width: 1.5; stroke-linecap: square"/>
   </g>
   <g id="line2d_15">
    <path d="M 138.828632 307.584 
L 138.828632 41.472 
" clip-path="url(#p0f834e2270)" style="fill: none; stroke-dasharray: 5.55,2.4; stroke-dashoffset: 0; stroke: #ff0000; stroke-width: 1.5"/>
   </g>
   <g id="patch_3">
    <path d="M 57.6 307.584 
L 57.6 41.472 
" style="fill: none; stroke: #000000; stroke-width: 0.8; stroke-linejoin: miter; stroke-linecap: square"/>
   </g>
   <g id="patch_4">
    <path d="M 414.72 307.584 
L 414.72 41.472 
" style="fill: none; stroke: #000000; stroke-width: 0.8; stroke-linejoin: miter; stroke-linecap: square"/>
   </g>
   <g id="patch_5">
    <path d="M 57.6 307.584 
L 414.72 307.584 
" style="fill: none; stroke: #000000; stroke-width: 0.8; stroke-linejoin: miter; stroke-linecap: square"/>
   </g>
   <g id="patch_6">
    <path d="M 57.6 41.472 
L 414.72 41.472 
" style="fill: none; stroke: #000000; stroke-width: 0.8; stroke-linejoin: miter; stroke-linecap: square"/>
   </g>
   <g id="text_14">
    <!-- Train Data -->
    <g style="fill: #ff0000" transform="translate(73.832727 268.575713) scale(0.1 -0.1)">
     <defs>
      <path id="DejaVuSans-72" d="M 2631 2963 
Q 2534 3019 2420 3045 
Q 2306 3072 2169 3072 
Q 1681 3072 1420 2755 
Q 1159 2438 1159 1844 
L 1159 0 
L 581 0 
L 581 3500 
L 1159 3500 
L 1159 2956 
Q 1341 3275 1631 3429 
Q 1922 3584 2338 3584 
Q 2397 3584 2469 3576 
Q 2541 3569 2628 3553 
L 2631 2963 
z
" transform="scale(0.015625)"/>
      <path id="DejaVuSans-61" d="M 2194 1759 
Q 1497 1759 1228 1600 
Q 959 1441 959 1056 
Q 959 750 1161 570 
Q 1363 391 1709 391 
Q 2188 391 2477 730 
Q 2766 1069 2766 1631 
L 2766 1759 
L 2194 1759 
z
M 3341 1997 
L 3341 0 
L 2766 0 
L 2766 531 
Q 2569 213 2275 61 
Q 1981 -91 1556 -91 
Q 1019 -91 701 211 
Q 384 513 384 1019 
Q 384 1609 779 1909 
Q 1175 2209 1959 2209 
L 2766 2209 
L 2766 2266 
Q 2766 2663 2505 2880 
Q 2244 3097 1772 3097 
Q 1472 3097 1187 3025 
Q 903 2953 641 2809 
L 641 3341 
Q 956 3463 1253 3523 
Q 1550 3584 1831 3584 
Q 2591 3584 2966 3190 
Q 3341 2797 3341 1997 
z
" transform="scale(0.015625)"/>
      <path id="DejaVuSans-6e" d="M 3513 2113 
L 3513 0 
L 2938 0 
L 2938 2094 
Q 2938 2591 2744 2837 
Q 2550 3084 2163 3084 
Q 1697 3084 1428 2787 
Q 1159 2491 1159 1978 
L 1159 0 
L 581 0 
L 581 3500 
L 1159 3500 
L 1159 2956 
Q 1366 3272 1645 3428 
Q 1925 3584 2291 3584 
Q 2894 3584 3203 3211 
Q 3513 2838 3513 2113 
z
" transform="scale(0.015625)"/>
      <path id="DejaVuSans-20" transform="scale(0.015625)"/>
      <path id="DejaVuSans-44" d="M 1259 4147 
L 1259 519 
L 2022 519 
Q 2988 519 3436 956 
Q 3884 1394 3884 2338 
Q 3884 3275 3436 3711 
Q 2988 4147 2022 4147 
L 1259 4147 
z
M 628 4666 
L 1925 4666 
Q 3281 4666 3915 4102 
Q 4550 3538 4550 2338 
Q 4550 1131 3912 565 
Q 3275 0 1925 0 
L 628 0 
L 628 4666 
z
" transform="scale(0.015625)"/>
      <path id="DejaVuSans-74" d="M 1172 4494 
L 1172 3500 
L 2356 3500 
L 2356 3053 
L 1172 3053 
L 1172 1153 
Q 1172 725 1289 603 
Q 1406 481 1766 481 
L 2356 481 
L 2356 0 
L 1766 0 
Q 1100 0 847 248 
Q 594 497 594 1153 
L 594 3053 
L 172 3053 
L 172 3500 
L 594 3500 
L 594 4494 
L 1172 4494 
z
" transform="scale(0.015625)"/>
     </defs>
     <use xlink:href="#DejaVuSans-54"/>
     <use xlink:href="#DejaVuSans-72" x="46.333984"/>
     <use xlink:href="#DejaVuSans-61" x="87.447266"/>
     <use xlink:href="#DejaVuSans-69" x="148.726562"/>
     <use xlink:href="#DejaVuSans-6e" x="176.509766"/>
     <use xlink:href="#DejaVuSans-20" x="239.888672"/>
     <use xlink:href="#DejaVuSans-44" x="271.675781"/>
     <use xlink:href="#DejaVuSans-61" x="348.677734"/>
     <use xlink:href="#DejaVuSans-74" x="409.957031"/>
     <use xlink:href="#DejaVuSans-61" x="449.166016"/>
    </g>
   </g>
   <g id="text_15">
    <!-- MSE on full data = 0.764 -->
    <g transform="translate(161.406563 22.034625) scale(0.12 -0.12)">
     <defs>
      <path id="DejaVuSans-4d" d="M 628 4666 
L 1569 4666 
L 2759 1491 
L 3956 4666 
L 4897 4666 
L 4897 0 
L 4281 0 
L 4281 4097 
L 3078 897 
L 2444 897 
L 1241 4097 
L 1241 0 
L 628 0 
L 628 4666 
z
" transform="scale(0.015625)"/>
      <path id="DejaVuSans-53" d="M 3425 4513 
L 3425 3897 
Q 3066 4069 2747 4153 
Q 2428 4238 2131 4238 
Q 1616 4238 1336 4038 
Q 1056 3838 1056 3469 
Q 1056 3159 1242 3001 
Q 1428 2844 1947 2747 
L 2328 2669 
Q 3034 2534 3370 2195 
Q 3706 1856 3706 1288 
Q 3706 609 3251 259 
Q 2797 -91 1919 -91 
Q 1588 -91 1214 -16 
Q 841 59 441 206 
L 441 856 
Q 825 641 1194 531 
Q 1563 422 1919 422 
Q 2459 422 2753 634 
Q 3047 847 3047 1241 
Q 3047 1584 2836 1778 
Q 2625 1972 2144 2069 
L 1759 2144 
Q 1053 2284 737 2584 
Q 422 2884 422 3419 
Q 422 4038 858 4394 
Q 1294 4750 2059 4750 
Q 2388 4750 2728 4690 
Q 3069 4631 3425 4513 
z
" transform="scale(0.015625)"/>
      <path id="DejaVuSans-45" d="M 628 4666 
L 3578 4666 
L 3578 4134 
L 1259 4134 
L 1259 2753 
L 3481 2753 
L 3481 2222 
L 1259 2222 
L 1259 531 
L 3634 531 
L 3634 0 
L 628 0 
L 628 4666 
z
" transform="scale(0.015625)"/>
      <path id="DejaVuSans-6f" d="M 1959 3097 
Q 1497 3097 1228 2736 
Q 959 2375 959 1747 
Q 959 1119 1226 758 
Q 1494 397 1959 397 
Q 2419 397 2687 759 
Q 2956 1122 2956 1747 
Q 2956 2369 2687 2733 
Q 2419 3097 1959 3097 
z
M 1959 3584 
Q 2709 3584 3137 3096 
Q 3566 2609 3566 1747 
Q 3566 888 3137 398 
Q 2709 -91 1959 -91 
Q 1206 -91 779 398 
Q 353 888 353 1747 
Q 353 2609 779 3096 
Q 1206 3584 1959 3584 
z
" transform="scale(0.015625)"/>
      <path id="DejaVuSans-66" d="M 2375 4863 
L 2375 4384 
L 1825 4384 
Q 1516 4384 1395 4259 
Q 1275 4134 1275 3809 
L 1275 3500 
L 2222 3500 
L 2222 3053 
L 1275 3053 
L 1275 0 
L 697 0 
L 697 3053 
L 147 3053 
L 147 3500 
L 697 3500 
L 697 3744 
Q 697 4328 969 4595 
Q 1241 4863 1831 4863 
L 2375 4863 
z
" transform="scale(0.015625)"/>
      <path id="DejaVuSans-75" d="M 544 1381 
L 544 3500 
L 1119 3500 
L 1119 1403 
Q 1119 906 1312 657 
Q 1506 409 1894 409 
Q 2359 409 2629 706 
Q 2900 1003 2900 1516 
L 2900 3500 
L 3475 3500 
L 3475 0 
L 2900 0 
L 2900 538 
Q 2691 219 2414 64 
Q 2138 -91 1772 -91 
Q 1169 -91 856 284 
Q 544 659 544 1381 
z
M 1991 3584 
L 1991 3584 
z
" transform="scale(0.015625)"/>
      <path id="DejaVuSans-6c" d="M 603 4863 
L 1178 4863 
L 1178 0 
L 603 0 
L 603 4863 
z
" transform="scale(0.015625)"/>
      <path id="DejaVuSans-64" d="M 2906 2969 
L 2906 4863 
L 3481 4863 
L 3481 0 
L 2906 0 
L 2906 525 
Q 2725 213 2448 61 
Q 2172 -91 1784 -91 
Q 1150 -91 751 415 
Q 353 922 353 1747 
Q 353 2572 751 3078 
Q 1150 3584 1784 3584 
Q 2172 3584 2448 3432 
Q 2725 3281 2906 2969 
z
M 947 1747 
Q 947 1113 1208 752 
Q 1469 391 1925 391 
Q 2381 391 2643 752 
Q 2906 1113 2906 1747 
Q 2906 2381 2643 2742 
Q 2381 3103 1925 3103 
Q 1469 3103 1208 2742 
Q 947 2381 947 1747 
z
" transform="scale(0.015625)"/>
      <path id="DejaVuSans-3d" d="M 678 2906 
L 4684 2906 
L 4684 2381 
L 678 2381 
L 678 2906 
z
M 678 1631 
L 4684 1631 
L 4684 1100 
L 678 1100 
L 678 1631 
z
" transform="scale(0.015625)"/>
      <path id="DejaVuSans-2e" d="M 684 794 
L 1344 794 
L 1344 0 
L 684 0 
L 684 794 
z
" transform="scale(0.015625)"/>
      <path id="DejaVuSans-37" d="M 525 4666 
L 3525 4666 
L 3525 4397 
L 1831 0 
L 1172 0 
L 2766 4134 
L 525 4134 
L 525 4666 
z
" transform="scale(0.015625)"/>
     </defs>
     <use xlink:href="#DejaVuSans-4d"/>
     <use xlink:href="#DejaVuSans-53" x="86.279297"/>
     <use xlink:href="#DejaVuSans-45" x="149.755859"/>
     <use xlink:href="#DejaVuSans-20" x="212.939453"/>
     <use xlink:href="#DejaVuSans-6f" x="244.726562"/>
     <use xlink:href="#DejaVuSans-6e" x="305.908203"/>
     <use xlink:href="#DejaVuSans-20" x="369.287109"/>
     <use xlink:href="#DejaVuSans-66" x="401.074219"/>
     <use xlink:href="#DejaVuSans-75" x="436.279297"/>
     <use xlink:href="#DejaVuSans-6c" x="499.658203"/>
     <use xlink:href="#DejaVuSans-6c" x="527.441406"/>
     <use xlink:href="#DejaVuSans-20" x="555.224609"/>
     <use xlink:href="#DejaVuSans-64" x="587.011719"/>
     <use xlink:href="#DejaVuSans-61" x="650.488281"/>
     <use xlink:href="#DejaVuSans-74" x="711.767578"/>
     <use xlink:href="#DejaVuSans-61" x="750.976562"/>
     <use xlink:href="#DejaVuSans-20" x="812.255859"/>
     <use xlink:href="#DejaVuSans-3d" x="844.042969"/>
     <use xlink:href="#DejaVuSans-20" x="927.832031"/>
     <use xlink:href="#DejaVuSans-30" x="959.619141"/>
     <use xlink:href="#DejaVuSans-2e" x="1023.242188"/>
     <use xlink:href="#DejaVuSans-37" x="1055.029297"/>
     <use xlink:href="#DejaVuSans-36" x="1118.652344"/>
     <use xlink:href="#DejaVuSans-34" x="1182.275391"/>
    </g>
    <!-- MSE on train data = 0.269 -->
    <g transform="translate(156.69 35.472) scale(0.12 -0.12)">
     <defs>
      <path id="DejaVuSans-39" d="M 703 97 
L 703 672 
Q 941 559 1184 500 
Q 1428 441 1663 441 
Q 2288 441 2617 861 
Q 2947 1281 2994 2138 
Q 2813 1869 2534 1725 
Q 2256 1581 1919 1581 
Q 1219 1581 811 2004 
Q 403 2428 403 3163 
Q 403 3881 828 4315 
Q 1253 4750 1959 4750 
Q 2769 4750 3195 4129 
Q 3622 3509 3622 2328 
Q 3622 1225 3098 567 
Q 2575 -91 1691 -91 
Q 1453 -91 1209 -44 
Q 966 3 703 97 
z
M 1959 2075 
Q 2384 2075 2632 2365 
Q 2881 2656 2881 3163 
Q 2881 3666 2632 3958 
Q 2384 4250 1959 4250 
Q 1534 4250 1286 3958 
Q 1038 3666 1038 3163 
Q 1038 2656 1286 2365 
Q 1534 2075 1959 2075 
z
" transform="scale(0.015625)"/>
     </defs>
     <use xlink:href="#DejaVuSans-4d"/>
     <use xlink:href="#DejaVuSans-53" x="86.279297"/>
     <use xlink:href="#DejaVuSans-45" x="149.755859"/>
     <use xlink:href="#DejaVuSans-20" x="212.939453"/>
     <use xlink:href="#DejaVuSans-6f" x="244.726562"/>
     <use xlink:href="#DejaVuSans-6e" x="305.908203"/>
     <use xlink:href="#DejaVuSans-20" x="369.287109"/>
     <use xlink:href="#DejaVuSans-74" x="401.074219"/>
     <use xlink:href="#DejaVuSans-72" x="440.283203"/>
     <use xlink:href="#DejaVuSans-61" x="481.396484"/>
     <use xlink:href="#DejaVuSans-69" x="542.675781"/>
     <use xlink:href="#DejaVuSans-6e" x="570.458984"/>
     <use xlink:href="#DejaVuSans-20" x="633.837891"/>
     <use xlink:href="#DejaVuSans-64" x="665.625"/>
     <use xlink:href="#DejaVuSans-61" x="729.101562"/>
     <use xlink:href="#DejaVuSans-74" x="790.380859"/>
     <use xlink:href="#DejaVuSans-61" x="829.589844"/>
     <use xlink:href="#DejaVuSans-20" x="890.869141"/>
     <use xlink:href="#DejaVuSans-3d" x="922.65625"/>
     <use xlink:href="#DejaVuSans-20" x="1006.445312"/>
     <use xlink:href="#DejaVuSans-30" x="1038.232422"/>
     <use xlink:href="#DejaVuSans-2e" x="1101.855469"/>
     <use xlink:href="#DejaVuSans-32" x="1133.642578"/>
     <use xlink:href="#DejaVuSans-36" x="1197.265625"/>
     <use xlink:href="#DejaVuSans-39" x="1260.888672"/>
    </g>
   </g>
   <g id="legend_1">
    <g id="patch_7">
     <path d="M 326.046563 302.584 
L 407.72 302.584 
Q 409.72 302.584 409.72 300.584 
L 409.72 272.22775 
Q 409.72 270.22775 407.72 270.22775 
L 326.046563 270.22775 
Q 324.046563 270.22775 324.046563 272.22775 
L 324.046563 300.584 
Q 324.046563 302.584 326.046563 302.584 
z
" style="fill: #ffffff; opacity: 0.8; stroke: #cccccc; stroke-linejoin: miter"/>
    </g>
    <g id="line2d_16">
     <path d="M 328.046563 278.326187 
L 338.046563 278.326187 
L 348.046563 278.326187 
" style="fill: none; stroke: #1f77b4; stroke-width: 1.5; stroke-linecap: square"/>
    </g>
    <g id="text_16">
     <!-- Series -->
     <g transform="translate(356.046563 281.826187) scale(0.1 -0.1)">
      <defs>
       <path id="DejaVuSans-73" d="M 2834 3397 
L 2834 2853 
Q 2591 2978 2328 3040 
Q 2066 3103 1784 3103 
Q 1356 3103 1142 2972 
Q 928 2841 928 2578 
Q 928 2378 1081 2264 
Q 1234 2150 1697 2047 
L 1894 2003 
Q 2506 1872 2764 1633 
Q 3022 1394 3022 966 
Q 3022 478 2636 193 
Q 2250 -91 1575 -91 
Q 1294 -91 989 -36 
Q 684 19 347 128 
L 347 722 
Q 666 556 975 473 
Q 1284 391 1588 391 
Q 1994 391 2212 530 
Q 2431 669 2431 922 
Q 2431 1156 2273 1281 
Q 2116 1406 1581 1522 
L 1381 1569 
Q 847 1681 609 1914 
Q 372 2147 372 2553 
Q 372 3047 722 3315 
Q 1072 3584 1716 3584 
Q 2034 3584 2315 3537 
Q 2597 3491 2834 3397 
z
" transform="scale(0.015625)"/>
      </defs>
      <use xlink:href="#DejaVuSans-53"/>
      <use xlink:href="#DejaVuSans-65" x="63.476562"/>
      <use xlink:href="#DejaVuSans-72" x="125"/>
      <use xlink:href="#DejaVuSans-69" x="166.113281"/>
      <use xlink:href="#DejaVuSans-65" x="193.896484"/>
      <use xlink:href="#DejaVuSans-73" x="255.419922"/>
     </g>
    </g>
    <g id="line2d_17">
     <path d="M 328.046563 293.004312 
L 338.046563 293.004312 
L 348.046563 293.004312 
" style="fill: none; stroke: #ff7f0e; stroke-width: 1.5; stroke-linecap: square"/>
    </g>
    <g id="text_17">
     <!-- Prediction -->
     <g transform="translate(356.046563 296.504312) scale(0.1 -0.1)">
      <defs>
       <path id="DejaVuSans-50" d="M 1259 4147 
L 1259 2394 
L 2053 2394 
Q 2494 2394 2734 2622 
Q 2975 2850 2975 3272 
Q 2975 3691 2734 3919 
Q 2494 4147 2053 4147 
L 1259 4147 
z
M 628 4666 
L 2053 4666 
Q 2838 4666 3239 4311 
Q 3641 3956 3641 3272 
Q 3641 2581 3239 2228 
Q 2838 1875 2053 1875 
L 1259 1875 
L 1259 0 
L 628 0 
L 628 4666 
z
" transform="scale(0.015625)"/>
       <path id="DejaVuSans-63" d="M 3122 3366 
L 3122 2828 
Q 2878 2963 2633 3030 
Q 2388 3097 2138 3097 
Q 1578 3097 1268 2742 
Q 959 2388 959 1747 
Q 959 1106 1268 751 
Q 1578 397 2138 397 
Q 2388 397 2633 464 
Q 2878 531 3122 666 
L 3122 134 
Q 2881 22 2623 -34 
Q 2366 -91 2075 -91 
Q 1284 -91 818 406 
Q 353 903 353 1747 
Q 353 2603 823 3093 
Q 1294 3584 2113 3584 
Q 2378 3584 2631 3529 
Q 2884 3475 3122 3366 
z
" transform="scale(0.015625)"/>
      </defs>
      <use xlink:href="#DejaVuSans-50"/>
      <use xlink:href="#DejaVuSans-72" x="58.552734"/>
      <use xlink:href="#DejaVuSans-65" x="97.416016"/>
      <use xlink:href="#DejaVuSans-64" x="158.939453"/>
      <use xlink:href="#DejaVuSans-69" x="222.416016"/>
      <use xlink:href="#DejaVuSans-63" x="250.199219"/>
      <use xlink:href="#DejaVuSans-74" x="305.179688"/>
      <use xlink:href="#DejaVuSans-69" x="344.388672"/>
      <use xlink:href="#DejaVuSans-6f" x="372.171875"/>
      <use xlink:href="#DejaVuSans-6e" x="433.353516"/>
     </g>
    </g>
   </g>
  </g>
 </g>
 <defs>
  <clipPath id="p0f834e2270">
   <rect x="57.6" y="41.472" width="357.12" height="266.112"/>
  </clipPath>
 </defs>
</svg>
