<?xml version="1.0" encoding="utf-8" standalone="no"?>
<!DOCTYPE svg PUBLIC "-//W3C//DTD SVG 1.1//EN"
  "http://www.w3.org/Graphics/SVG/1.1/DTD/svg11.dtd">
<svg xmlns:xlink="http://www.w3.org/1999/xlink" width="460.8pt" height="345.6pt" viewBox="0 0 460.8 345.6" xmlns="http://www.w3.org/2000/svg" version="1.1">
 <metadata>
  <rdf:RDF xmlns:dc="http://purl.org/dc/elements/1.1/" xmlns:cc="http://creativecommons.org/ns#" xmlns:rdf="http://www.w3.org/1999/02/22-rdf-syntax-ns#">
   <cc:Work>
    <dc:type rdf:resource="http://purl.org/dc/dcmitype/StillImage"/>
    <dc:format>image/svg+xml</dc:format>
    <dc:creator>
     <cc:Agent>
      <dc:title>Matplotlib v3.8.4, https://matplotlib.org/</dc:title>
     </cc:Agent>
    </dc:creator>
   </cc:Work>
  </rdf:RDF>
 </metadata>
 <defs>
  <style type="text/css">*{stroke-linejoin: round; stroke-linecap: butt}</style>
 </defs>
 <g id="figure_1">
  <g id="patch_1">
   <path d="M 0 345.6 
L 460.8 345.6 
L 460.8 0 
L 0 0 
z
" style="fill: #ffffff"/>
  </g>
  <g id="axes_1">
   <g id="patch_2">
    <path d="M 24.19 67.147046 
L 450 67.147046 
L 450 12.833163 
L 24.19 12.833163 
z
" style="fill: #ffffff"/>
   </g>
   <g id="matplotlib.axis_1">
    <g id="xtick_1">
     <g id="line2d_1">
      <defs>
       <path id="mbcb02aef95" d="M 0 0 
L 0 3.5 
" style="stroke: #000000; stroke-width: 0.8"/>
      </defs>
      <g>
       <use xlink:href="#mbcb02aef95" x="43.545" y="67.147046" style="stroke: #000000; stroke-width: 0.8"/>
      </g>
     </g>
     <g id="text_1">
      <!-- 0 -->
      <g transform="translate(40.36375 81.745484) scale(0.1 -0.1)">
       <defs>
        <path id="DejaVuSans-30" d="M 2034 4250 
Q 1547 4250 1301 3770 
Q 1056 3291 1056 2328 
Q 1056 1369 1301 889 
Q 1547 409 2034 409 
Q 2525 409 2770 889 
Q 3016 1369 3016 2328 
Q 3016 3291 2770 3770 
Q 2525 4250 2034 4250 
z
M 2034 4750 
Q 2819 4750 3233 4129 
Q 3647 3509 3647 2328 
Q 3647 1150 3233 529 
Q 2819 -91 2034 -91 
Q 1250 -91 836 529 
Q 422 1150 422 2328 
Q 422 3509 836 4129 
Q 1250 4750 2034 4750 
z
" transform="scale(0.015625)"/>
       </defs>
       <use xlink:href="#DejaVuSans-30"/>
      </g>
     </g>
    </g>
    <g id="xtick_2">
     <g id="line2d_2">
      <g>
       <use xlink:href="#mbcb02aef95" x="121.74702" y="67.147046" style="stroke: #000000; stroke-width: 0.8"/>
      </g>
     </g>
     <g id="text_2">
      <!-- 20 -->
      <g transform="translate(115.38452 81.745484) scale(0.1 -0.1)">
       <defs>
        <path id="DejaVuSans-32" d="M 1228 531 
L 3431 531 
L 3431 0 
L 469 0 
L 469 531 
Q 828 903 1448 1529 
Q 2069 2156 2228 2338 
Q 2531 2678 2651 2914 
Q 2772 3150 2772 3378 
Q 2772 3750 2511 3984 
Q 2250 4219 1831 4219 
Q 1534 4219 1204 4116 
Q 875 4013 500 3803 
L 500 4441 
Q 881 4594 1212 4672 
Q 1544 4750 1819 4750 
Q 2544 4750 2975 4387 
Q 3406 4025 3406 3419 
Q 3406 3131 3298 2873 
Q 3191 2616 2906 2266 
Q 2828 2175 2409 1742 
Q 1991 1309 1228 531 
z
" transform="scale(0.015625)"/>
       </defs>
       <use xlink:href="#DejaVuSans-32"/>
       <use xlink:href="#DejaVuSans-30" x="63.623047"/>
      </g>
     </g>
    </g>
    <g id="xtick_3">
     <g id="line2d_3">
      <g>
       <use xlink:href="#mbcb02aef95" x="199.94904" y="67.147046" style="stroke: #000000; stroke-width: 0.8"/>
      </g>
     </g>
     <g id="text_3">
      <!-- 40 -->
      <g transform="translate(193.58654 81.745484) scale(0.1 -0.1)">
       <defs>
        <path id="DejaVuSans-34" d="M 2419 4116 
L 825 1625 
L 2419 1625 
L 2419 4116 
z
M 2253 4666 
L 3047 4666 
L 3047 1625 
L 3713 1625 
L 3713 1100 
L 3047 1100 
L 3047 0 
L 2419 0 
L 2419 1100 
L 313 1100 
L 313 1709 
L 2253 4666 
z
" transform="scale(0.015625)"/>
       </defs>
       <use xlink:href="#DejaVuSans-34"/>
       <use xlink:href="#DejaVuSans-30" x="63.623047"/>
      </g>
     </g>
    </g>
    <g id="xtick_4">
     <g id="line2d_4">
      <g>
       <use xlink:href="#mbcb02aef95" x="278.151061" y="67.147046" style="stroke: #000000; stroke-width: 0.8"/>
      </g>
     </g>
     <g id="text_4">
      <!-- 60 -->
      <g transform="translate(271.788561 81.745484) scale(0.1 -0.1)">
       <defs>
        <path id="DejaVuSans-36" d="M 2113 2584 
Q 1688 2584 1439 2293 
Q 1191 2003 1191 1497 
Q 1191 994 1439 701 
Q 1688 409 2113 409 
Q 2538 409 2786 701 
Q 3034 994 3034 1497 
Q 3034 2003 2786 2293 
Q 2538 2584 2113 2584 
z
M 3366 4563 
L 3366 3988 
Q 3128 4100 2886 4159 
Q 2644 4219 2406 4219 
Q 1781 4219 1451 3797 
Q 1122 3375 1075 2522 
Q 1259 2794 1537 2939 
Q 1816 3084 2150 3084 
Q 2853 3084 3261 2657 
Q 3669 2231 3669 1497 
Q 3669 778 3244 343 
Q 2819 -91 2113 -91 
Q 1303 -91 875 529 
Q 447 1150 447 2328 
Q 447 3434 972 4092 
Q 1497 4750 2381 4750 
Q 2619 4750 2861 4703 
Q 3103 4656 3366 4563 
z
" transform="scale(0.015625)"/>
       </defs>
       <use xlink:href="#DejaVuSans-36"/>
       <use xlink:href="#DejaVuSans-30" x="63.623047"/>
      </g>
     </g>
    </g>
    <g id="xtick_5">
     <g id="line2d_5">
      <g>
       <use xlink:href="#mbcb02aef95" x="356.353081" y="67.147046" style="stroke: #000000; stroke-width: 0.8"/>
      </g>
     </g>
     <g id="text_5">
      <!-- 80 -->
      <g transform="translate(349.990581 81.745484) scale(0.1 -0.1)">
       <defs>
        <path id="DejaVuSans-38" d="M 2034 2216 
Q 1584 2216 1326 1975 
Q 1069 1734 1069 1313 
Q 1069 891 1326 650 
Q 1584 409 2034 409 
Q 2484 409 2743 651 
Q 3003 894 3003 1313 
Q 3003 1734 2745 1975 
Q 2488 2216 2034 2216 
z
M 1403 2484 
Q 997 2584 770 2862 
Q 544 3141 544 3541 
Q 544 4100 942 4425 
Q 1341 4750 2034 4750 
Q 2731 4750 3128 4425 
Q 3525 4100 3525 3541 
Q 3525 3141 3298 2862 
Q 3072 2584 2669 2484 
Q 3125 2378 3379 2068 
Q 3634 1759 3634 1313 
Q 3634 634 3220 271 
Q 2806 -91 2034 -91 
Q 1263 -91 848 271 
Q 434 634 434 1313 
Q 434 1759 690 2068 
Q 947 2378 1403 2484 
z
M 1172 3481 
Q 1172 3119 1398 2916 
Q 1625 2713 2034 2713 
Q 2441 2713 2670 2916 
Q 2900 3119 2900 3481 
Q 2900 3844 2670 4047 
Q 2441 4250 2034 4250 
Q 1625 4250 1398 4047 
Q 1172 3844 1172 3481 
z
" transform="scale(0.015625)"/>
       </defs>
       <use xlink:href="#DejaVuSans-38"/>
       <use xlink:href="#DejaVuSans-30" x="63.623047"/>
      </g>
     </g>
    </g>
    <g id="xtick_6">
     <g id="line2d_6">
      <g>
       <use xlink:href="#mbcb02aef95" x="434.555101" y="67.147046" style="stroke: #000000; stroke-width: 0.8"/>
      </g>
     </g>
     <g id="text_6">
      <!-- 100 -->
      <g transform="translate(425.011351 81.745484) scale(0.1 -0.1)">
       <defs>
        <path id="DejaVuSans-31" d="M 794 531 
L 1825 531 
L 1825 4091 
L 703 3866 
L 703 4441 
L 1819 4666 
L 2450 4666 
L 2450 531 
L 3481 531 
L 3481 0 
L 794 0 
L 794 531 
z
" transform="scale(0.015625)"/>
       </defs>
       <use xlink:href="#DejaVuSans-31"/>
       <use xlink:href="#DejaVuSans-30" x="63.623047"/>
       <use xlink:href="#DejaVuSans-30" x="127.246094"/>
      </g>
     </g>
    </g>
   </g>
   <g id="matplotlib.axis_2">
    <g id="ytick_1">
     <g id="line2d_7">
      <defs>
       <path id="me5179b328b" d="M 0 0 
L -3.5 0 
" style="stroke: #000000; stroke-width: 0.8"/>
      </defs>
      <g>
       <use xlink:href="#me5179b328b" x="24.19" y="64.956073" style="stroke: #000000; stroke-width: 0.8"/>
      </g>
     </g>
     <g id="text_7">
      <!-- 0 -->
      <g transform="translate(10.8275 68.755291) scale(0.1 -0.1)">
       <use xlink:href="#DejaVuSans-30"/>
      </g>
     </g>
    </g>
    <g id="ytick_2">
     <g id="line2d_8">
      <g>
       <use xlink:href="#me5179b328b" x="24.19" y="14.642207" style="stroke: #000000; stroke-width: 0.8"/>
      </g>
     </g>
     <g id="text_8">
      <!-- 1 -->
      <g transform="translate(10.8275 18.441426) scale(0.1 -0.1)">
       <use xlink:href="#DejaVuSans-31"/>
      </g>
     </g>
    </g>
   </g>
   <g id="line2d_9">
    <path d="M 43.545 46.111512 
L 47.455101 17.121961 
L 51.365202 28.126628 
L 55.275303 34.83525 
L 59.185404 57.106172 
L 63.095505 57.107385 
L 67.005606 62.033662 
L 70.915707 21.375403 
L 74.825808 34.711653 
L 78.735909 29.330204 
L 82.64601 63.920387 
L 86.556111 16.156159 
L 90.466212 23.072666 
L 94.376313 54.272471 
L 98.286414 55.807756 
L 102.196515 55.728283 
L 106.106616 49.648469 
L 110.016717 38.553548 
L 113.926818 43.223249 
L 117.836919 50.303209 
L 121.74702 34.171388 
L 125.657121 57.937597 
L 129.567222 50.257146 
L 133.477323 46.522992 
L 137.387424 42.009429 
L 141.297525 25.450835 
L 145.207626 54.909713 
L 149.117727 39.08295 
L 153.027828 35.149406 
L 156.937929 62.618973 
L 160.84803 34.388143 
L 164.758131 56.376345 
L 168.668232 61.683076 
L 172.578333 17.213974 
L 176.488434 16.371393 
L 180.398535 24.282477 
L 184.308636 49.629776 
L 188.218737 60.041811 
L 192.128838 30.529664 
L 196.038939 42.810299 
L 199.94904 58.815857 
L 203.859141 40.041808 
L 207.769242 63.225853 
L 211.679343 19.204648 
L 215.589444 51.935851 
L 219.499545 31.622016 
L 223.409646 49.272684 
L 227.319747 38.78944 
L 231.229848 37.448965 
L 235.139949 55.65533 
L 239.050051 16.172522 
L 242.960152 25.956144 
L 246.870253 17.686249 
L 250.780354 19.93385 
L 254.690455 34.873414 
L 258.600556 18.573017 
L 262.510657 60.503673 
L 266.420758 55.095417 
L 270.330859 62.680513 
L 274.24096 48.587446 
L 278.151061 45.400216 
L 282.061162 51.303454 
L 285.971263 23.259085 
L 289.881364 47.006434 
L 293.791465 50.821172 
L 297.701566 37.650935 
L 301.611667 57.86563 
L 305.521768 24.594442 
L 309.431869 61.205142 
L 313.34197 15.301976 
L 317.252071 26.101453 
L 321.162172 54.957919 
L 325.072273 64.678234 
L 328.982374 23.927056 
L 332.892475 29.391347 
L 336.802576 28.276904 
L 340.712677 26.15048 
L 344.622778 61.2306 
L 348.532879 46.920276 
L 352.44298 59.126252 
L 356.353081 21.530003 
L 360.263182 33.595535 
L 364.173283 48.307314 
L 368.083384 61.758206 
L 371.993485 49.30935 
L 375.903586 48.594843 
L 379.813687 28.246766 
L 383.723788 32.878092 
L 387.633889 20.31697 
L 391.54399 41.197114 
L 395.454091 58.938824 
L 399.364192 29.06997 
L 403.274293 26.678036 
L 407.184394 36.716047 
L 411.094495 26.165734 
L 415.004596 40.111308 
L 418.914697 38.655363 
L 422.824798 43.444831 
L 426.734899 63.677138 
L 430.645 59.527638 
" clip-path="url(#p6b106369a2)" style="fill: none; stroke: #1f77b4; stroke-width: 1.5; stroke-linecap: square"/>
   </g>
   <g id="patch_3">
    <path d="M 24.19 67.147046 
L 24.19 12.833163 
" style="fill: none; stroke: #000000; stroke-width: 0.8; stroke-linejoin: miter; stroke-linecap: square"/>
   </g>
   <g id="patch_4">
    <path d="M 450 67.147046 
L 450 12.833163 
" style="fill: none; stroke: #000000; stroke-width: 0.8; stroke-linejoin: miter; stroke-linecap: square"/>
   </g>
   <g id="patch_5">
    <path d="M 24.19 67.147046 
L 450 67.147046 
" style="fill: none; stroke: #000000; stroke-width: 0.8; stroke-linejoin: miter; stroke-linecap: square"/>
   </g>
   <g id="patch_6">
    <path d="M 24.19 12.833163 
L 450 12.833163 
" style="fill: none; stroke: #000000; stroke-width: 0.8; stroke-linejoin: miter; stroke-linecap: square"/>
   </g>
  </g>
  <g id="axes_2">
   <g id="patch_7">
    <path d="M 24.19 150.671364 
L 450 150.671364 
L 450 96.357481 
L 24.19 96.357481 
z
" style="fill: #ffffff"/>
   </g>
   <g id="matplotlib.axis_3">
    <g id="xtick_7">
     <g id="line2d_10">
      <g>
       <use xlink:href="#mbcb02aef95" x="43.545" y="150.671364" style="stroke: #000000; stroke-width: 0.8"/>
      </g>
     </g>
     <g id="text_9">
      <!-- 0 -->
      <g transform="translate(40.36375 165.269802) scale(0.1 -0.1)">
       <use xlink:href="#DejaVuSans-30"/>
      </g>
     </g>
    </g>
    <g id="xtick_8">
     <g id="line2d_11">
      <g>
       <use xlink:href="#mbcb02aef95" x="92.421263" y="150.671364" style="stroke: #000000; stroke-width: 0.8"/>
      </g>
     </g>
     <g id="text_10">
      <!-- 25 -->
      <g transform="translate(86.058763 165.269802) scale(0.1 -0.1)">
       <defs>
        <path id="DejaVuSans-35" d="M 691 4666 
L 3169 4666 
L 3169 4134 
L 1269 4134 
L 1269 2991 
Q 1406 3038 1543 3061 
Q 1681 3084 1819 3084 
Q 2600 3084 3056 2656 
Q 3513 2228 3513 1497 
Q 3513 744 3044 326 
Q 2575 -91 1722 -91 
Q 1428 -91 1123 -41 
Q 819 9 494 109 
L 494 744 
Q 775 591 1075 516 
Q 1375 441 1709 441 
Q 2250 441 2565 725 
Q 2881 1009 2881 1497 
Q 2881 1984 2565 2268 
Q 2250 2553 1709 2553 
Q 1456 2553 1204 2497 
Q 953 2441 691 2322 
L 691 4666 
z
" transform="scale(0.015625)"/>
       </defs>
       <use xlink:href="#DejaVuSans-32"/>
       <use xlink:href="#DejaVuSans-35" x="63.623047"/>
      </g>
     </g>
    </g>
    <g id="xtick_9">
     <g id="line2d_12">
      <g>
       <use xlink:href="#mbcb02aef95" x="141.297525" y="150.671364" style="stroke: #000000; stroke-width: 0.8"/>
      </g>
     </g>
     <g id="text_11">
      <!-- 50 -->
      <g transform="translate(134.935025 165.269802) scale(0.1 -0.1)">
       <use xlink:href="#DejaVuSans-35"/>
       <use xlink:href="#DejaVuSans-30" x="63.623047"/>
      </g>
     </g>
    </g>
    <g id="xtick_10">
     <g id="line2d_13">
      <g>
       <use xlink:href="#mbcb02aef95" x="190.173788" y="150.671364" style="stroke: #000000; stroke-width: 0.8"/>
      </g>
     </g>
     <g id="text_12">
      <!-- 75 -->
      <g transform="translate(183.811288 165.269802) scale(0.1 -0.1)">
       <defs>
        <path id="DejaVuSans-37" d="M 525 4666 
L 3525 4666 
L 3525 4397 
L 1831 0 
L 1172 0 
L 2766 4134 
L 525 4134 
L 525 4666 
z
" transform="scale(0.015625)"/>
       </defs>
       <use xlink:href="#DejaVuSans-37"/>
       <use xlink:href="#DejaVuSans-35" x="63.623047"/>
      </g>
     </g>
    </g>
    <g id="xtick_11">
     <g id="line2d_14">
      <g>
       <use xlink:href="#mbcb02aef95" x="239.050051" y="150.671364" style="stroke: #000000; stroke-width: 0.8"/>
      </g>
     </g>
     <g id="text_13">
      <!-- 100 -->
      <g transform="translate(229.506301 165.269802) scale(0.1 -0.1)">
       <use xlink:href="#DejaVuSans-31"/>
       <use xlink:href="#DejaVuSans-30" x="63.623047"/>
       <use xlink:href="#DejaVuSans-30" x="127.246094"/>
      </g>
     </g>
    </g>
    <g id="xtick_12">
     <g id="line2d_15">
      <g>
       <use xlink:href="#mbcb02aef95" x="287.926313" y="150.671364" style="stroke: #000000; stroke-width: 0.8"/>
      </g>
     </g>
     <g id="text_14">
      <!-- 125 -->
      <g transform="translate(278.382563 165.269802) scale(0.1 -0.1)">
       <use xlink:href="#DejaVuSans-31"/>
       <use xlink:href="#DejaVuSans-32" x="63.623047"/>
       <use xlink:href="#DejaVuSans-35" x="127.246094"/>
      </g>
     </g>
    </g>
    <g id="xtick_13">
     <g id="line2d_16">
      <g>
       <use xlink:href="#mbcb02aef95" x="336.802576" y="150.671364" style="stroke: #000000; stroke-width: 0.8"/>
      </g>
     </g>
     <g id="text_15">
      <!-- 150 -->
      <g transform="translate(327.258826 165.269802) scale(0.1 -0.1)">
       <use xlink:href="#DejaVuSans-31"/>
       <use xlink:href="#DejaVuSans-35" x="63.623047"/>
       <use xlink:href="#DejaVuSans-30" x="127.246094"/>
      </g>
     </g>
    </g>
    <g id="xtick_14">
     <g id="line2d_17">
      <g>
       <use xlink:href="#mbcb02aef95" x="385.678838" y="150.671364" style="stroke: #000000; stroke-width: 0.8"/>
      </g>
     </g>
     <g id="text_16">
      <!-- 175 -->
      <g transform="translate(376.135088 165.269802) scale(0.1 -0.1)">
       <use xlink:href="#DejaVuSans-31"/>
       <use xlink:href="#DejaVuSans-37" x="63.623047"/>
       <use xlink:href="#DejaVuSans-35" x="127.246094"/>
      </g>
     </g>
    </g>
    <g id="xtick_15">
     <g id="line2d_18">
      <g>
       <use xlink:href="#mbcb02aef95" x="434.555101" y="150.671364" style="stroke: #000000; stroke-width: 0.8"/>
      </g>
     </g>
     <g id="text_17">
      <!-- 200 -->
      <g transform="translate(425.011351 165.269802) scale(0.1 -0.1)">
       <use xlink:href="#DejaVuSans-32"/>
       <use xlink:href="#DejaVuSans-30" x="63.623047"/>
       <use xlink:href="#DejaVuSans-30" x="127.246094"/>
      </g>
     </g>
    </g>
   </g>
   <g id="matplotlib.axis_4">
    <g id="ytick_3">
     <g id="line2d_19">
      <g>
       <use xlink:href="#me5179b328b" x="24.19" y="148.214014" style="stroke: #000000; stroke-width: 0.8"/>
      </g>
     </g>
     <g id="text_18">
      <!-- 0 -->
      <g transform="translate(10.8275 152.013232) scale(0.1 -0.1)">
       <use xlink:href="#DejaVuSans-30"/>
      </g>
     </g>
    </g>
    <g id="ytick_4">
     <g id="line2d_20">
      <g>
       <use xlink:href="#me5179b328b" x="24.19" y="98.826294" style="stroke: #000000; stroke-width: 0.8"/>
      </g>
     </g>
     <g id="text_19">
      <!-- 1 -->
      <g transform="translate(10.8275 102.625513) scale(0.1 -0.1)">
       <use xlink:href="#DejaVuSans-31"/>
      </g>
     </g>
    </g>
   </g>
   <g id="line2d_21">
    <path d="M 43.545 147.920863 
L 45.500051 146.725773 
L 47.455101 145.179317 
L 49.410152 144.368289 
L 51.365202 144.471283 
L 53.320253 145.518359 
L 55.275303 146.276974 
L 57.230354 145.759693 
L 59.185404 143.212387 
L 61.140455 141.820055 
L 63.095505 141.273234 
L 65.050556 142.340939 
L 67.005606 140.258565 
L 68.960657 140.491166 
L 70.915707 139.923234 
L 72.870758 141.478031 
L 74.825808 141.422787 
L 76.780859 142.397496 
L 78.735909 138.993242 
L 80.69096 137.874145 
L 82.64601 137.371105 
L 84.601061 139.268947 
L 86.556111 140.117525 
L 88.511162 138.430017 
L 90.466212 138.576443 
L 92.421263 137.486222 
L 96.331364 136.306194 
L 98.286414 135.701879 
L 100.241465 135.586253 
L 102.196515 137.250151 
L 104.151566 135.295544 
L 106.106616 135.715364 
L 108.061667 136.377938 
L 110.016717 132.571615 
L 111.971768 130.156804 
L 113.926818 128.46957 
L 115.881869 130.651942 
L 117.836919 134.141178 
L 119.79197 132.474981 
L 121.74702 132.49833 
L 123.702071 130.283469 
L 125.657121 128.244196 
L 127.612172 131.946528 
L 129.567222 129.247488 
L 131.522273 125.958182 
L 133.477323 125.989477 
L 135.432374 128.052316 
L 137.387424 129.509798 
L 139.342475 130.762735 
L 141.297525 123.938497 
L 143.252576 125.876935 
L 145.207626 121.265864 
L 147.162677 121.721179 
L 151.072778 119.019246 
L 153.027828 122.202677 
L 154.982879 122.699094 
L 156.937929 120.888798 
L 158.89298 121.69184 
L 160.84803 121.459149 
L 162.803081 119.027493 
L 164.758131 117.553885 
L 166.713182 115.404096 
L 168.668232 118.788465 
L 170.623283 121.630818 
L 172.578333 119.379376 
L 174.533384 120.23717 
L 176.488434 116.548699 
L 178.443485 118.000878 
L 180.398535 115.375027 
L 182.353586 113.692911 
L 184.308636 115.876064 
L 186.263687 115.614184 
L 188.218737 114.952384 
L 190.173788 115.464854 
L 192.128838 109.655378 
L 194.083889 110.279735 
L 196.038939 108.837184 
L 197.99399 114.924948 
L 199.94904 112.214944 
L 201.904091 108.482687 
L 203.859141 108.442874 
L 205.814192 111.634326 
L 207.769242 112.062195 
L 209.724293 108.548115 
L 211.679343 108.341054 
L 213.634394 103.543072 
L 215.589444 104.569654 
L 217.544495 104.303109 
L 219.499545 108.299703 
L 221.454596 110.514389 
L 223.409646 107.534704 
L 225.364697 102.606973 
L 227.319747 104.683974 
L 229.274798 100.105379 
L 231.229848 102.733364 
L 233.184899 101.273719 
L 235.139949 99.038854 
L 237.095 104.912357 
L 239.050051 99.032749 
L 241.005101 106.673697 
L 242.960152 106.15651 
L 244.915202 98.826294 
L 246.870253 103.416131 
L 248.825303 102.13845 
L 250.780354 106.750609 
L 252.735404 108.313325 
L 254.690455 103.931902 
L 256.645505 110.91527 
L 258.600556 109.857315 
L 260.555606 113.326244 
L 262.510657 109.644607 
L 264.465707 110.237092 
L 266.420758 106.39451 
L 268.375808 109.885699 
L 270.330859 110.691713 
L 272.285909 111.048344 
L 274.24096 113.894488 
L 276.19601 108.028587 
L 278.151061 110.983213 
L 280.106111 107.866207 
L 282.061162 110.281849 
L 284.016212 113.571519 
L 285.971263 111.320594 
L 287.926313 112.545093 
L 289.881364 112.143859 
L 291.836414 112.118687 
L 293.791465 114.270705 
L 295.746515 112.743787 
L 297.701566 114.795441 
L 299.656616 115.108513 
L 301.611667 116.498764 
L 303.566717 119.914654 
L 305.521768 119.014936 
L 307.476818 117.666275 
L 309.431869 118.021946 
L 311.386919 119.064851 
L 313.34197 117.831016 
L 315.29702 117.459035 
L 317.252071 117.217013 
L 319.207121 119.830084 
L 321.162172 118.080481 
L 323.117222 117.424107 
L 325.072273 120.636283 
L 327.027323 121.115078 
L 328.982374 122.288735 
L 330.937424 121.348769 
L 332.892475 123.641519 
L 334.847525 122.214396 
L 336.802576 125.148475 
L 338.757626 126.861284 
L 340.712677 132.534703 
L 342.667727 129.813324 
L 344.622778 128.382207 
L 346.577828 127.644424 
L 348.532879 126.740012 
L 350.487929 129.622385 
L 352.44298 129.780141 
L 354.39803 131.494567 
L 356.353081 130.623031 
L 358.308131 126.735023 
L 360.263182 128.356244 
L 362.218232 131.715503 
L 364.173283 131.302085 
L 366.128333 133.288028 
L 368.083384 131.544829 
L 370.038434 131.440012 
L 371.993485 132.409113 
L 373.948535 133.561184 
L 375.903586 135.24642 
L 377.858636 136.635892 
L 379.813687 135.178383 
L 381.768737 136.376142 
L 385.678838 137.302919 
L 387.633889 138.321963 
L 389.588939 138.240118 
L 391.54399 139.207328 
L 395.454091 138.328431 
L 397.409141 139.292454 
L 399.364192 139.251466 
L 401.319242 139.441472 
L 403.274293 140.669615 
L 405.229343 140.87045 
L 407.184394 142.145373 
L 409.139444 142.61309 
L 411.094495 142.651225 
L 413.049545 143.907458 
L 416.959646 145.354845 
L 418.914697 146.425616 
L 420.869747 146.879822 
L 422.824798 147.553822 
L 424.779848 147.932875 
L 430.645 148.189688 
L 430.645 148.189688 
" clip-path="url(#p54753ed433)" style="fill: none; stroke: #1f77b4; stroke-width: 1.5; stroke-linecap: square"/>
   </g>
   <g id="patch_8">
    <path d="M 24.19 150.671364 
L 24.19 96.357481 
" style="fill: none; stroke: #000000; stroke-width: 0.8; stroke-linejoin: miter; stroke-linecap: square"/>
   </g>
   <g id="patch_9">
    <path d="M 450 150.671364 
L 450 96.357481 
" style="fill: none; stroke: #000000; stroke-width: 0.8; stroke-linejoin: miter; stroke-linecap: square"/>
   </g>
   <g id="patch_10">
    <path d="M 24.19 150.671364 
L 450 150.671364 
" style="fill: none; stroke: #000000; stroke-width: 0.8; stroke-linejoin: miter; stroke-linecap: square"/>
   </g>
   <g id="patch_11">
    <path d="M 24.19 96.357481 
L 450 96.357481 
" style="fill: none; stroke: #000000; stroke-width: 0.8; stroke-linejoin: miter; stroke-linecap: square"/>
   </g>
  </g>
  <g id="axes_3">
   <g id="patch_12">
    <path d="M 24.19 234.195682 
L 450 234.195682 
L 450 179.881799 
L 24.19 179.881799 
z
" style="fill: #ffffff"/>
   </g>
   <g id="matplotlib.axis_5">
    <g id="xtick_16">
     <g id="line2d_22">
      <g>
       <use xlink:href="#mbcb02aef95" x="43.545" y="234.195682" style="stroke: #000000; stroke-width: 0.8"/>
      </g>
     </g>
     <g id="text_20">
      <!-- 0 -->
      <g transform="translate(40.36375 248.79412) scale(0.1 -0.1)">
       <use xlink:href="#DejaVuSans-30"/>
      </g>
     </g>
    </g>
    <g id="xtick_17">
     <g id="line2d_23">
      <g>
       <use xlink:href="#mbcb02aef95" x="92.421263" y="234.195682" style="stroke: #000000; stroke-width: 0.8"/>
      </g>
     </g>
     <g id="text_21">
      <!-- 50 -->
      <g transform="translate(86.058763 248.79412) scale(0.1 -0.1)">
       <use xlink:href="#DejaVuSans-35"/>
       <use xlink:href="#DejaVuSans-30" x="63.623047"/>
      </g>
     </g>
    </g>
    <g id="xtick_18">
     <g id="line2d_24">
      <g>
       <use xlink:href="#mbcb02aef95" x="141.297525" y="234.195682" style="stroke: #000000; stroke-width: 0.8"/>
      </g>
     </g>
     <g id="text_22">
      <!-- 100 -->
      <g transform="translate(131.753775 248.79412) scale(0.1 -0.1)">
       <use xlink:href="#DejaVuSans-31"/>
       <use xlink:href="#DejaVuSans-30" x="63.623047"/>
       <use xlink:href="#DejaVuSans-30" x="127.246094"/>
      </g>
     </g>
    </g>
    <g id="xtick_19">
     <g id="line2d_25">
      <g>
       <use xlink:href="#mbcb02aef95" x="190.173788" y="234.195682" style="stroke: #000000; stroke-width: 0.8"/>
      </g>
     </g>
     <g id="text_23">
      <!-- 150 -->
      <g transform="translate(180.630038 248.79412) scale(0.1 -0.1)">
       <use xlink:href="#DejaVuSans-31"/>
       <use xlink:href="#DejaVuSans-35" x="63.623047"/>
       <use xlink:href="#DejaVuSans-30" x="127.246094"/>
      </g>
     </g>
    </g>
    <g id="xtick_20">
     <g id="line2d_26">
      <g>
       <use xlink:href="#mbcb02aef95" x="239.050051" y="234.195682" style="stroke: #000000; stroke-width: 0.8"/>
      </g>
     </g>
     <g id="text_24">
      <!-- 200 -->
      <g transform="translate(229.506301 248.79412) scale(0.1 -0.1)">
       <use xlink:href="#DejaVuSans-32"/>
       <use xlink:href="#DejaVuSans-30" x="63.623047"/>
       <use xlink:href="#DejaVuSans-30" x="127.246094"/>
      </g>
     </g>
    </g>
    <g id="xtick_21">
     <g id="line2d_27">
      <g>
       <use xlink:href="#mbcb02aef95" x="287.926313" y="234.195682" style="stroke: #000000; stroke-width: 0.8"/>
      </g>
     </g>
     <g id="text_25">
      <!-- 250 -->
      <g transform="translate(278.382563 248.79412) scale(0.1 -0.1)">
       <use xlink:href="#DejaVuSans-32"/>
       <use xlink:href="#DejaVuSans-35" x="63.623047"/>
       <use xlink:href="#DejaVuSans-30" x="127.246094"/>
      </g>
     </g>
    </g>
    <g id="xtick_22">
     <g id="line2d_28">
      <g>
       <use xlink:href="#mbcb02aef95" x="336.802576" y="234.195682" style="stroke: #000000; stroke-width: 0.8"/>
      </g>
     </g>
     <g id="text_26">
      <!-- 300 -->
      <g transform="translate(327.258826 248.79412) scale(0.1 -0.1)">
       <defs>
        <path id="DejaVuSans-33" d="M 2597 2516 
Q 3050 2419 3304 2112 
Q 3559 1806 3559 1356 
Q 3559 666 3084 287 
Q 2609 -91 1734 -91 
Q 1441 -91 1130 -33 
Q 819 25 488 141 
L 488 750 
Q 750 597 1062 519 
Q 1375 441 1716 441 
Q 2309 441 2620 675 
Q 2931 909 2931 1356 
Q 2931 1769 2642 2001 
Q 2353 2234 1838 2234 
L 1294 2234 
L 1294 2753 
L 1863 2753 
Q 2328 2753 2575 2939 
Q 2822 3125 2822 3475 
Q 2822 3834 2567 4026 
Q 2313 4219 1838 4219 
Q 1578 4219 1281 4162 
Q 984 4106 628 3988 
L 628 4550 
Q 988 4650 1302 4700 
Q 1616 4750 1894 4750 
Q 2613 4750 3031 4423 
Q 3450 4097 3450 3541 
Q 3450 3153 3228 2886 
Q 3006 2619 2597 2516 
z
" transform="scale(0.015625)"/>
       </defs>
       <use xlink:href="#DejaVuSans-33"/>
       <use xlink:href="#DejaVuSans-30" x="63.623047"/>
       <use xlink:href="#DejaVuSans-30" x="127.246094"/>
      </g>
     </g>
    </g>
    <g id="xtick_23">
     <g id="line2d_29">
      <g>
       <use xlink:href="#mbcb02aef95" x="385.678838" y="234.195682" style="stroke: #000000; stroke-width: 0.8"/>
      </g>
     </g>
     <g id="text_27">
      <!-- 350 -->
      <g transform="translate(376.135088 248.79412) scale(0.1 -0.1)">
       <use xlink:href="#DejaVuSans-33"/>
       <use xlink:href="#DejaVuSans-35" x="63.623047"/>
       <use xlink:href="#DejaVuSans-30" x="127.246094"/>
      </g>
     </g>
    </g>
    <g id="xtick_24">
     <g id="line2d_30">
      <g>
       <use xlink:href="#mbcb02aef95" x="434.555101" y="234.195682" style="stroke: #000000; stroke-width: 0.8"/>
      </g>
     </g>
     <g id="text_28">
      <!-- 400 -->
      <g transform="translate(425.011351 248.79412) scale(0.1 -0.1)">
       <use xlink:href="#DejaVuSans-34"/>
       <use xlink:href="#DejaVuSans-30" x="63.623047"/>
       <use xlink:href="#DejaVuSans-30" x="127.246094"/>
      </g>
     </g>
    </g>
   </g>
   <g id="matplotlib.axis_6">
    <g id="ytick_5">
     <g id="line2d_31">
      <g>
       <use xlink:href="#me5179b328b" x="24.19" y="231.726869" style="stroke: #000000; stroke-width: 0.8"/>
      </g>
     </g>
     <g id="text_29">
      <!-- 0 -->
      <g transform="translate(10.8275 235.526088) scale(0.1 -0.1)">
       <use xlink:href="#DejaVuSans-30"/>
      </g>
     </g>
    </g>
    <g id="ytick_6">
     <g id="line2d_32">
      <g>
       <use xlink:href="#me5179b328b" x="24.19" y="182.350612" style="stroke: #000000; stroke-width: 0.8"/>
      </g>
     </g>
     <g id="text_30">
      <!-- 1 -->
      <g transform="translate(10.8275 186.149831) scale(0.1 -0.1)">
       <use xlink:href="#DejaVuSans-31"/>
      </g>
     </g>
    </g>
   </g>
   <g id="line2d_33">
    <path d="M 43.545 231.72684 
L 59.185404 231.620539 
L 70.915707 231.343202 
L 79.713434 230.97728 
L 94.376313 229.926055 
L 104.151566 228.70165 
L 112.949293 227.218198 
L 120.769495 225.609648 
L 129.567222 223.293011 
L 133.477323 222.1078 
L 135.432374 221.511339 
L 145.207626 217.875489 
L 149.117727 216.172607 
L 152.050303 215.008517 
L 156.937929 212.759312 
L 162.803081 210.068729 
L 164.758131 209.110348 
L 166.713182 208.227791 
L 169.645758 206.760545 
L 178.443485 202.389086 
L 180.398535 201.283813 
L 183.331111 199.9343 
L 190.173788 196.418935 
L 193.106364 195.139964 
L 196.038939 193.756494 
L 199.94904 192.062046 
L 210.701818 187.852778 
L 212.656869 187.215266 
L 214.611919 186.499829 
L 215.589444 186.151109 
L 218.52202 185.414432 
L 221.454596 184.566541 
L 229.274798 183.072031 
L 235.139949 182.53195 
L 237.095 182.419369 
L 239.050051 182.387216 
L 241.005101 182.408478 
L 241.982626 182.428402 
L 243.937677 182.701499 
L 246.870253 182.877557 
L 249.802828 183.308308 
L 252.735404 183.764138 
L 254.690455 184.102915 
L 256.645505 184.484904 
L 258.600556 184.94001 
L 261.533131 185.742723 
L 262.510657 185.924303 
L 268.375808 187.92499 
L 274.24096 190.07698 
L 282.061162 193.403306 
L 307.476818 206.106455 
L 310.409394 207.708426 
L 323.117222 213.901484 
L 329.959899 217.03981 
L 333.87 218.669024 
L 339.735152 220.809397 
L 353.420505 225.028801 
L 357.330606 226.025679 
L 369.060909 228.378598 
L 374.926061 229.279335 
L 380.791212 229.958542 
L 390.566465 230.816203 
L 398.386667 231.267405 
L 408.161919 231.585587 
L 418.914697 231.719769 
L 430.645 231.726869 
L 430.645 231.726869 
" clip-path="url(#p0b93f861ee)" style="fill: none; stroke: #1f77b4; stroke-width: 1.5; stroke-linecap: square"/>
   </g>
   <g id="patch_13">
    <path d="M 24.19 234.195682 
L 24.19 179.881799 
" style="fill: none; stroke: #000000; stroke-width: 0.8; stroke-linejoin: miter; stroke-linecap: square"/>
   </g>
   <g id="patch_14">
    <path d="M 450 234.195682 
L 450 179.881799 
" style="fill: none; stroke: #000000; stroke-width: 0.8; stroke-linejoin: miter; stroke-linecap: square"/>
   </g>
   <g id="patch_15">
    <path d="M 24.19 234.195682 
L 450 234.195682 
" style="fill: none; stroke: #000000; stroke-width: 0.8; stroke-linejoin: miter; stroke-linecap: square"/>
   </g>
   <g id="patch_16">
    <path d="M 24.19 179.881799 
L 450 179.881799 
" style="fill: none; stroke: #000000; stroke-width: 0.8; stroke-linejoin: miter; stroke-linecap: square"/>
   </g>
  </g>
  <g id="axes_4">
   <g id="patch_17">
    <path d="M 24.19 317.72 
L 450 317.72 
L 450 263.406117 
L 24.19 263.406117 
z
" style="fill: #ffffff"/>
   </g>
   <g id="matplotlib.axis_7">
    <g id="xtick_25">
     <g id="line2d_34">
      <g>
       <use xlink:href="#mbcb02aef95" x="43.545" y="317.72" style="stroke: #000000; stroke-width: 0.8"/>
      </g>
     </g>
     <g id="text_31">
      <!-- 0 -->
      <g transform="translate(40.36375 332.318437) scale(0.1 -0.1)">
       <use xlink:href="#DejaVuSans-30"/>
      </g>
     </g>
    </g>
    <g id="xtick_26">
     <g id="line2d_35">
      <g>
       <use xlink:href="#mbcb02aef95" x="92.421263" y="317.72" style="stroke: #000000; stroke-width: 0.8"/>
      </g>
     </g>
     <g id="text_32">
      <!-- 100 -->
      <g transform="translate(82.877513 332.318437) scale(0.1 -0.1)">
       <use xlink:href="#DejaVuSans-31"/>
       <use xlink:href="#DejaVuSans-30" x="63.623047"/>
       <use xlink:href="#DejaVuSans-30" x="127.246094"/>
      </g>
     </g>
    </g>
    <g id="xtick_27">
     <g id="line2d_36">
      <g>
       <use xlink:href="#mbcb02aef95" x="141.297525" y="317.72" style="stroke: #000000; stroke-width: 0.8"/>
      </g>
     </g>
     <g id="text_33">
      <!-- 200 -->
      <g transform="translate(131.753775 332.318437) scale(0.1 -0.1)">
       <use xlink:href="#DejaVuSans-32"/>
       <use xlink:href="#DejaVuSans-30" x="63.623047"/>
       <use xlink:href="#DejaVuSans-30" x="127.246094"/>
      </g>
     </g>
    </g>
    <g id="xtick_28">
     <g id="line2d_37">
      <g>
       <use xlink:href="#mbcb02aef95" x="190.173788" y="317.72" style="stroke: #000000; stroke-width: 0.8"/>
      </g>
     </g>
     <g id="text_34">
      <!-- 300 -->
      <g transform="translate(180.630038 332.318437) scale(0.1 -0.1)">
       <use xlink:href="#DejaVuSans-33"/>
       <use xlink:href="#DejaVuSans-30" x="63.623047"/>
       <use xlink:href="#DejaVuSans-30" x="127.246094"/>
      </g>
     </g>
    </g>
    <g id="xtick_29">
     <g id="line2d_38">
      <g>
       <use xlink:href="#mbcb02aef95" x="239.050051" y="317.72" style="stroke: #000000; stroke-width: 0.8"/>
      </g>
     </g>
     <g id="text_35">
      <!-- 400 -->
      <g transform="translate(229.506301 332.318437) scale(0.1 -0.1)">
       <use xlink:href="#DejaVuSans-34"/>
       <use xlink:href="#DejaVuSans-30" x="63.623047"/>
       <use xlink:href="#DejaVuSans-30" x="127.246094"/>
      </g>
     </g>
    </g>
    <g id="xtick_30">
     <g id="line2d_39">
      <g>
       <use xlink:href="#mbcb02aef95" x="287.926313" y="317.72" style="stroke: #000000; stroke-width: 0.8"/>
      </g>
     </g>
     <g id="text_36">
      <!-- 500 -->
      <g transform="translate(278.382563 332.318437) scale(0.1 -0.1)">
       <use xlink:href="#DejaVuSans-35"/>
       <use xlink:href="#DejaVuSans-30" x="63.623047"/>
       <use xlink:href="#DejaVuSans-30" x="127.246094"/>
      </g>
     </g>
    </g>
    <g id="xtick_31">
     <g id="line2d_40">
      <g>
       <use xlink:href="#mbcb02aef95" x="336.802576" y="317.72" style="stroke: #000000; stroke-width: 0.8"/>
      </g>
     </g>
     <g id="text_37">
      <!-- 600 -->
      <g transform="translate(327.258826 332.318437) scale(0.1 -0.1)">
       <use xlink:href="#DejaVuSans-36"/>
       <use xlink:href="#DejaVuSans-30" x="63.623047"/>
       <use xlink:href="#DejaVuSans-30" x="127.246094"/>
      </g>
     </g>
    </g>
    <g id="xtick_32">
     <g id="line2d_41">
      <g>
       <use xlink:href="#mbcb02aef95" x="385.678838" y="317.72" style="stroke: #000000; stroke-width: 0.8"/>
      </g>
     </g>
     <g id="text_38">
      <!-- 700 -->
      <g transform="translate(376.135088 332.318437) scale(0.1 -0.1)">
       <use xlink:href="#DejaVuSans-37"/>
       <use xlink:href="#DejaVuSans-30" x="63.623047"/>
       <use xlink:href="#DejaVuSans-30" x="127.246094"/>
      </g>
     </g>
    </g>
    <g id="xtick_33">
     <g id="line2d_42">
      <g>
       <use xlink:href="#mbcb02aef95" x="434.555101" y="317.72" style="stroke: #000000; stroke-width: 0.8"/>
      </g>
     </g>
     <g id="text_39">
      <!-- 800 -->
      <g transform="translate(425.011351 332.318437) scale(0.1 -0.1)">
       <use xlink:href="#DejaVuSans-38"/>
       <use xlink:href="#DejaVuSans-30" x="63.623047"/>
       <use xlink:href="#DejaVuSans-30" x="127.246094"/>
      </g>
     </g>
    </g>
   </g>
   <g id="matplotlib.axis_8">
    <g id="ytick_7">
     <g id="line2d_43">
      <g>
       <use xlink:href="#me5179b328b" x="24.19" y="315.251187" style="stroke: #000000; stroke-width: 0.8"/>
      </g>
     </g>
     <g id="text_40">
      <!-- 0 -->
      <g transform="translate(10.8275 319.050406) scale(0.1 -0.1)">
       <use xlink:href="#DejaVuSans-30"/>
      </g>
     </g>
    </g>
    <g id="ytick_8">
     <g id="line2d_44">
      <g>
       <use xlink:href="#me5179b328b" x="24.19" y="265.87493" style="stroke: #000000; stroke-width: 0.8"/>
      </g>
     </g>
     <g id="text_41">
      <!-- 1 -->
      <g transform="translate(10.8275 269.674149) scale(0.1 -0.1)">
       <use xlink:href="#DejaVuSans-31"/>
      </g>
     </g>
    </g>
   </g>
   <g id="line2d_45">
    <path d="M 43.545 315.251187 
L 104.151566 315.141306 
L 116.370631 314.881575 
L 124.679596 314.495399 
L 131.522273 313.964581 
L 137.387424 313.295408 
L 142.763813 312.459238 
L 147.651439 311.475969 
L 152.050303 310.381516 
L 156.449167 309.066003 
L 160.84803 307.511158 
L 165.246894 305.703862 
L 169.645758 303.637797 
L 174.044621 301.315095 
L 178.443485 298.747654 
L 183.331111 295.635788 
L 189.196263 291.6084 
L 197.505227 285.579173 
L 206.791717 278.888793 
L 211.679343 275.622501 
L 216.078207 272.952763 
L 219.988308 270.859627 
L 223.409646 269.285445 
L 226.342222 268.151141 
L 229.274798 267.232527 
L 232.207374 266.542848 
L 235.139949 266.092296 
L 238.072525 265.887761 
L 241.005101 265.932588 
L 243.937677 266.226456 
L 246.870253 266.765519 
L 249.802828 267.542511 
L 252.735404 268.546771 
L 255.66798 269.76442 
L 259.089318 271.432325 
L 262.510657 273.337403 
L 266.420758 275.760835 
L 271.308384 279.078203 
L 277.662298 283.694474 
L 291.347652 293.739287 
L 296.72404 297.376838 
L 301.611667 300.41315 
L 306.01053 302.888515 
L 310.409394 305.100603 
L 314.808258 307.042366 
L 319.207121 308.716421 
L 323.605985 310.133696 
L 328.004848 311.311824 
L 332.403712 312.272897 
L 337.291338 313.116772 
L 342.667727 313.814032 
L 348.532879 314.352194 
L 355.375556 314.758926 
L 364.173283 315.045868 
L 376.392348 315.203038 
L 401.808005 315.250751 
L 430.645 315.251187 
L 430.645 315.251187 
" clip-path="url(#p5e00ba893c)" style="fill: none; stroke: #1f77b4; stroke-width: 1.5; stroke-linecap: square"/>
   </g>
   <g id="patch_18">
    <path d="M 24.19 317.72 
L 24.19 263.406117 
" style="fill: none; stroke: #000000; stroke-width: 0.8; stroke-linejoin: miter; stroke-linecap: square"/>
   </g>
   <g id="patch_19">
    <path d="M 450 317.72 
L 450 263.406117 
" style="fill: none; stroke: #000000; stroke-width: 0.8; stroke-linejoin: miter; stroke-linecap: square"/>
   </g>
   <g id="patch_20">
    <path d="M 24.19 317.72 
L 450 317.72 
" style="fill: none; stroke: #000000; stroke-width: 0.8; stroke-linejoin: miter; stroke-linecap: square"/>
   </g>
   <g id="patch_21">
    <path d="M 24.19 263.406117 
L 450 263.406117 
" style="fill: none; stroke: #000000; stroke-width: 0.8; stroke-linejoin: miter; stroke-linecap: square"/>
   </g>
  </g>
 </g>
 <defs>
  <clipPath id="p6b106369a2">
   <rect x="24.19" y="12.833163" width="425.81" height="54.313883"/>
  </clipPath>
  <clipPath id="p54753ed433">
   <rect x="24.19" y="96.357481" width="425.81" height="54.313883"/>
  </clipPath>
  <clipPath id="p0b93f861ee">
   <rect x="24.19" y="179.881799" width="425.81" height="54.313883"/>
  </clipPath>
  <clipPath id="p5e00ba893c">
   <rect x="24.19" y="263.406117" width="425.81" height="54.313883"/>
  </clipPath>
 </defs>
</svg>
