<?xml version="1.0" encoding="utf-8" standalone="no"?>
<!DOCTYPE svg PUBLIC "-//W3C//DTD SVG 1.1//EN"
  "http://www.w3.org/Graphics/SVG/1.1/DTD/svg11.dtd">
<svg xmlns:xlink="http://www.w3.org/1999/xlink" width="460.8pt" height="345.6pt" viewBox="0 0 460.8 345.6" xmlns="http://www.w3.org/2000/svg" version="1.1">
 <metadata>
  <rdf:RDF xmlns:dc="http://purl.org/dc/elements/1.1/" xmlns:cc="http://creativecommons.org/ns#" xmlns:rdf="http://www.w3.org/1999/02/22-rdf-syntax-ns#">
   <cc:Work>
    <dc:type rdf:resource="http://purl.org/dc/dcmitype/StillImage"/>
    <dc:format>image/svg+xml</dc:format>
    <dc:creator>
     <cc:Agent>
      <dc:title>Matplotlib v3.8.4, https://matplotlib.org/</dc:title>
     </cc:Agent>
    </dc:creator>
   </cc:Work>
  </rdf:RDF>
 </metadata>
 <defs>
  <style type="text/css">*{stroke-linejoin: round; stroke-linecap: butt}</style>
 </defs>
 <g id="figure_1">
  <g id="patch_1">
   <path d="M 0 345.6 
L 460.8 345.6 
L 460.8 0 
L 0 0 
z
" style="fill: #ffffff"/>
  </g>
  <g id="axes_1">
   <g id="patch_2">
    <path d="M 57.6 307.584 
L 414.72 307.584 
L 414.72 41.472 
L 57.6 41.472 
z
" style="fill: #ffffff"/>
   </g>
   <g id="matplotlib.axis_1">
    <g id="xtick_1">
     <g id="line2d_1">
      <defs>
       <path id="mbcb02aef95" d="M 0 0 
L 0 3.5 
" style="stroke: #000000; stroke-width: 0.8"/>
      </defs>
      <g>
       <use xlink:href="#mbcb02aef95" x="73.832727" y="307.584" style="stroke: #000000; stroke-width: 0.8"/>
      </g>
     </g>
     <g id="text_1">
      <!-- 0 -->
      <g transform="translate(70.651477 322.182437) scale(0.1 -0.1)">
       <defs>
        <path id="DejaVuSans-30" d="M 2034 4250 
Q 1547 4250 1301 3770 
Q 1056 3291 1056 2328 
Q 1056 1369 1301 889 
Q 1547 409 2034 409 
Q 2525 409 2770 889 
Q 3016 1369 3016 2328 
Q 3016 3291 2770 3770 
Q 2525 4250 2034 4250 
z
M 2034 4750 
Q 2819 4750 3233 4129 
Q 3647 3509 3647 2328 
Q 3647 1150 3233 529 
Q 2819 -91 2034 -91 
Q 1250 -91 836 529 
Q 422 1150 422 2328 
Q 422 3509 836 4129 
Q 1250 4750 2034 4750 
z
" transform="scale(0.015625)"/>
       </defs>
       <use xlink:href="#DejaVuSans-30"/>
      </g>
     </g>
    </g>
    <g id="xtick_2">
     <g id="line2d_2">
      <g>
       <use xlink:href="#mbcb02aef95" x="118.21597" y="307.584" style="stroke: #000000; stroke-width: 0.8"/>
      </g>
     </g>
     <g id="text_2">
      <!-- 2500 -->
      <g transform="translate(105.49097 322.182437) scale(0.1 -0.1)">
       <defs>
        <path id="DejaVuSans-32" d="M 1228 531 
L 3431 531 
L 3431 0 
L 469 0 
L 469 531 
Q 828 903 1448 1529 
Q 2069 2156 2228 2338 
Q 2531 2678 2651 2914 
Q 2772 3150 2772 3378 
Q 2772 3750 2511 3984 
Q 2250 4219 1831 4219 
Q 1534 4219 1204 4116 
Q 875 4013 500 3803 
L 500 4441 
Q 881 4594 1212 4672 
Q 1544 4750 1819 4750 
Q 2544 4750 2975 4387 
Q 3406 4025 3406 3419 
Q 3406 3131 3298 2873 
Q 3191 2616 2906 2266 
Q 2828 2175 2409 1742 
Q 1991 1309 1228 531 
z
" transform="scale(0.015625)"/>
        <path id="DejaVuSans-35" d="M 691 4666 
L 3169 4666 
L 3169 4134 
L 1269 4134 
L 1269 2991 
Q 1406 3038 1543 3061 
Q 1681 3084 1819 3084 
Q 2600 3084 3056 2656 
Q 3513 2228 3513 1497 
Q 3513 744 3044 326 
Q 2575 -91 1722 -91 
Q 1428 -91 1123 -41 
Q 819 9 494 109 
L 494 744 
Q 775 591 1075 516 
Q 1375 441 1709 441 
Q 2250 441 2565 725 
Q 2881 1009 2881 1497 
Q 2881 1984 2565 2268 
Q 2250 2553 1709 2553 
Q 1456 2553 1204 2497 
Q 953 2441 691 2322 
L 691 4666 
z
" transform="scale(0.015625)"/>
       </defs>
       <use xlink:href="#DejaVuSans-32"/>
       <use xlink:href="#DejaVuSans-35" x="63.623047"/>
       <use xlink:href="#DejaVuSans-30" x="127.246094"/>
       <use xlink:href="#DejaVuSans-30" x="190.869141"/>
      </g>
     </g>
    </g>
    <g id="xtick_3">
     <g id="line2d_3">
      <g>
       <use xlink:href="#mbcb02aef95" x="162.599213" y="307.584" style="stroke: #000000; stroke-width: 0.8"/>
      </g>
     </g>
     <g id="text_3">
      <!-- 5000 -->
      <g transform="translate(149.874213 322.182437) scale(0.1 -0.1)">
       <use xlink:href="#DejaVuSans-35"/>
       <use xlink:href="#DejaVuSans-30" x="63.623047"/>
       <use xlink:href="#DejaVuSans-30" x="127.246094"/>
       <use xlink:href="#DejaVuSans-30" x="190.869141"/>
      </g>
     </g>
    </g>
    <g id="xtick_4">
     <g id="line2d_4">
      <g>
       <use xlink:href="#mbcb02aef95" x="206.982456" y="307.584" style="stroke: #000000; stroke-width: 0.8"/>
      </g>
     </g>
     <g id="text_4">
      <!-- 7500 -->
      <g transform="translate(194.257456 322.182437) scale(0.1 -0.1)">
       <defs>
        <path id="DejaVuSans-37" d="M 525 4666 
L 3525 4666 
L 3525 4397 
L 1831 0 
L 1172 0 
L 2766 4134 
L 525 4134 
L 525 4666 
z
" transform="scale(0.015625)"/>
       </defs>
       <use xlink:href="#DejaVuSans-37"/>
       <use xlink:href="#DejaVuSans-35" x="63.623047"/>
       <use xlink:href="#DejaVuSans-30" x="127.246094"/>
       <use xlink:href="#DejaVuSans-30" x="190.869141"/>
      </g>
     </g>
    </g>
    <g id="xtick_5">
     <g id="line2d_5">
      <g>
       <use xlink:href="#mbcb02aef95" x="251.365699" y="307.584" style="stroke: #000000; stroke-width: 0.8"/>
      </g>
     </g>
     <g id="text_5">
      <!-- 10000 -->
      <g transform="translate(235.459449 322.182437) scale(0.1 -0.1)">
       <defs>
        <path id="DejaVuSans-31" d="M 794 531 
L 1825 531 
L 1825 4091 
L 703 3866 
L 703 4441 
L 1819 4666 
L 2450 4666 
L 2450 531 
L 3481 531 
L 3481 0 
L 794 0 
L 794 531 
z
" transform="scale(0.015625)"/>
       </defs>
       <use xlink:href="#DejaVuSans-31"/>
       <use xlink:href="#DejaVuSans-30" x="63.623047"/>
       <use xlink:href="#DejaVuSans-30" x="127.246094"/>
       <use xlink:href="#DejaVuSans-30" x="190.869141"/>
       <use xlink:href="#DejaVuSans-30" x="254.492188"/>
      </g>
     </g>
    </g>
    <g id="xtick_6">
     <g id="line2d_6">
      <g>
       <use xlink:href="#mbcb02aef95" x="295.748942" y="307.584" style="stroke: #000000; stroke-width: 0.8"/>
      </g>
     </g>
     <g id="text_6">
      <!-- 12500 -->
      <g transform="translate(279.842692 322.182437) scale(0.1 -0.1)">
       <use xlink:href="#DejaVuSans-31"/>
       <use xlink:href="#DejaVuSans-32" x="63.623047"/>
       <use xlink:href="#DejaVuSans-35" x="127.246094"/>
       <use xlink:href="#DejaVuSans-30" x="190.869141"/>
       <use xlink:href="#DejaVuSans-30" x="254.492188"/>
      </g>
     </g>
    </g>
    <g id="xtick_7">
     <g id="line2d_7">
      <g>
       <use xlink:href="#mbcb02aef95" x="340.132185" y="307.584" style="stroke: #000000; stroke-width: 0.8"/>
      </g>
     </g>
     <g id="text_7">
      <!-- 15000 -->
      <g transform="translate(324.225935 322.182437) scale(0.1 -0.1)">
       <use xlink:href="#DejaVuSans-31"/>
       <use xlink:href="#DejaVuSans-35" x="63.623047"/>
       <use xlink:href="#DejaVuSans-30" x="127.246094"/>
       <use xlink:href="#DejaVuSans-30" x="190.869141"/>
       <use xlink:href="#DejaVuSans-30" x="254.492188"/>
      </g>
     </g>
    </g>
    <g id="xtick_8">
     <g id="line2d_8">
      <g>
       <use xlink:href="#mbcb02aef95" x="384.515428" y="307.584" style="stroke: #000000; stroke-width: 0.8"/>
      </g>
     </g>
     <g id="text_8">
      <!-- 17500 -->
      <g transform="translate(368.609178 322.182437) scale(0.1 -0.1)">
       <use xlink:href="#DejaVuSans-31"/>
       <use xlink:href="#DejaVuSans-37" x="63.623047"/>
       <use xlink:href="#DejaVuSans-35" x="127.246094"/>
       <use xlink:href="#DejaVuSans-30" x="190.869141"/>
       <use xlink:href="#DejaVuSans-30" x="254.492188"/>
      </g>
     </g>
    </g>
   </g>
   <g id="matplotlib.axis_2">
    <g id="ytick_1">
     <g id="line2d_9">
      <defs>
       <path id="me5179b328b" d="M 0 0 
L -3.5 0 
" style="stroke: #000000; stroke-width: 0.8"/>
      </defs>
      <g>
       <use xlink:href="#me5179b328b" x="57.6" y="304.014442" style="stroke: #000000; stroke-width: 0.8"/>
      </g>
     </g>
     <g id="text_9">
      <!-- −400 -->
      <g transform="translate(23.132812 307.813661) scale(0.1 -0.1)">
       <defs>
        <path id="DejaVuSans-2212" d="M 678 2272 
L 4684 2272 
L 4684 1741 
L 678 1741 
L 678 2272 
z
" transform="scale(0.015625)"/>
        <path id="DejaVuSans-34" d="M 2419 4116 
L 825 1625 
L 2419 1625 
L 2419 4116 
z
M 2253 4666 
L 3047 4666 
L 3047 1625 
L 3713 1625 
L 3713 1100 
L 3047 1100 
L 3047 0 
L 2419 0 
L 2419 1100 
L 313 1100 
L 313 1709 
L 2253 4666 
z
" transform="scale(0.015625)"/>
       </defs>
       <use xlink:href="#DejaVuSans-2212"/>
       <use xlink:href="#DejaVuSans-34" x="83.789062"/>
       <use xlink:href="#DejaVuSans-30" x="147.412109"/>
       <use xlink:href="#DejaVuSans-30" x="211.035156"/>
      </g>
     </g>
    </g>
    <g id="ytick_2">
     <g id="line2d_10">
      <g>
       <use xlink:href="#me5179b328b" x="57.6" y="265.26658" style="stroke: #000000; stroke-width: 0.8"/>
      </g>
     </g>
     <g id="text_10">
      <!-- −200 -->
      <g transform="translate(23.132812 269.065798) scale(0.1 -0.1)">
       <use xlink:href="#DejaVuSans-2212"/>
       <use xlink:href="#DejaVuSans-32" x="83.789062"/>
       <use xlink:href="#DejaVuSans-30" x="147.412109"/>
       <use xlink:href="#DejaVuSans-30" x="211.035156"/>
      </g>
     </g>
    </g>
    <g id="ytick_3">
     <g id="line2d_11">
      <g>
       <use xlink:href="#me5179b328b" x="57.6" y="226.518717" style="stroke: #000000; stroke-width: 0.8"/>
      </g>
     </g>
     <g id="text_11">
      <!-- 0 -->
      <g transform="translate(44.2375 230.317936) scale(0.1 -0.1)">
       <use xlink:href="#DejaVuSans-30"/>
      </g>
     </g>
    </g>
    <g id="ytick_4">
     <g id="line2d_12">
      <g>
       <use xlink:href="#me5179b328b" x="57.6" y="187.770855" style="stroke: #000000; stroke-width: 0.8"/>
      </g>
     </g>
     <g id="text_12">
      <!-- 200 -->
      <g transform="translate(31.5125 191.570074) scale(0.1 -0.1)">
       <use xlink:href="#DejaVuSans-32"/>
       <use xlink:href="#DejaVuSans-30" x="63.623047"/>
       <use xlink:href="#DejaVuSans-30" x="127.246094"/>
      </g>
     </g>
    </g>
    <g id="ytick_5">
     <g id="line2d_13">
      <g>
       <use xlink:href="#me5179b328b" x="57.6" y="149.022993" style="stroke: #000000; stroke-width: 0.8"/>
      </g>
     </g>
     <g id="text_13">
      <!-- 400 -->
      <g transform="translate(31.5125 152.822211) scale(0.1 -0.1)">
       <use xlink:href="#DejaVuSans-34"/>
       <use xlink:href="#DejaVuSans-30" x="63.623047"/>
       <use xlink:href="#DejaVuSans-30" x="127.246094"/>
      </g>
     </g>
    </g>
    <g id="ytick_6">
     <g id="line2d_14">
      <g>
       <use xlink:href="#me5179b328b" x="57.6" y="110.27513" style="stroke: #000000; stroke-width: 0.8"/>
      </g>
     </g>
     <g id="text_14">
      <!-- 600 -->
      <g transform="translate(31.5125 114.074349) scale(0.1 -0.1)">
       <defs>
        <path id="DejaVuSans-36" d="M 2113 2584 
Q 1688 2584 1439 2293 
Q 1191 2003 1191 1497 
Q 1191 994 1439 701 
Q 1688 409 2113 409 
Q 2538 409 2786 701 
Q 3034 994 3034 1497 
Q 3034 2003 2786 2293 
Q 2538 2584 2113 2584 
z
M 3366 4563 
L 3366 3988 
Q 3128 4100 2886 4159 
Q 2644 4219 2406 4219 
Q 1781 4219 1451 3797 
Q 1122 3375 1075 2522 
Q 1259 2794 1537 2939 
Q 1816 3084 2150 3084 
Q 2853 3084 3261 2657 
Q 3669 2231 3669 1497 
Q 3669 778 3244 343 
Q 2819 -91 2113 -91 
Q 1303 -91 875 529 
Q 447 1150 447 2328 
Q 447 3434 972 4092 
Q 1497 4750 2381 4750 
Q 2619 4750 2861 4703 
Q 3103 4656 3366 4563 
z
" transform="scale(0.015625)"/>
       </defs>
       <use xlink:href="#DejaVuSans-36"/>
       <use xlink:href="#DejaVuSans-30" x="63.623047"/>
       <use xlink:href="#DejaVuSans-30" x="127.246094"/>
      </g>
     </g>
    </g>
    <g id="ytick_7">
     <g id="line2d_15">
      <g>
       <use xlink:href="#me5179b328b" x="57.6" y="71.527268" style="stroke: #000000; stroke-width: 0.8"/>
      </g>
     </g>
     <g id="text_15">
      <!-- 800 -->
      <g transform="translate(31.5125 75.326487) scale(0.1 -0.1)">
       <defs>
        <path id="DejaVuSans-38" d="M 2034 2216 
Q 1584 2216 1326 1975 
Q 1069 1734 1069 1313 
Q 1069 891 1326 650 
Q 1584 409 2034 409 
Q 2484 409 2743 651 
Q 3003 894 3003 1313 
Q 3003 1734 2745 1975 
Q 2488 2216 2034 2216 
z
M 1403 2484 
Q 997 2584 770 2862 
Q 544 3141 544 3541 
Q 544 4100 942 4425 
Q 1341 4750 2034 4750 
Q 2731 4750 3128 4425 
Q 3525 4100 3525 3541 
Q 3525 3141 3298 2862 
Q 3072 2584 2669 2484 
Q 3125 2378 3379 2068 
Q 3634 1759 3634 1313 
Q 3634 634 3220 271 
Q 2806 -91 2034 -91 
Q 1263 -91 848 271 
Q 434 634 434 1313 
Q 434 1759 690 2068 
Q 947 2378 1403 2484 
z
M 1172 3481 
Q 1172 3119 1398 2916 
Q 1625 2713 2034 2713 
Q 2441 2713 2670 2916 
Q 2900 3119 2900 3481 
Q 2900 3844 2670 4047 
Q 2441 4250 2034 4250 
Q 1625 4250 1398 4047 
Q 1172 3844 1172 3481 
z
" transform="scale(0.015625)"/>
       </defs>
       <use xlink:href="#DejaVuSans-38"/>
       <use xlink:href="#DejaVuSans-30" x="63.623047"/>
       <use xlink:href="#DejaVuSans-30" x="127.246094"/>
      </g>
     </g>
    </g>
   </g>
   <g id="line2d_16">
    <path d="M 73.832727 162.829073 
L 74.01026 295.488 
L 74.06352 284.474155 
L 74.2233 218.450836 
L 74.27656 228.675262 
L 74.436339 283.070187 
L 74.489599 273.287876 
L 74.649379 225.007622 
L 74.702639 234.449397 
L 74.862419 278.831142 
L 74.915678 269.775251 
L 75.075458 228.598769 
L 75.128718 237.407503 
L 75.288498 276.128791 
L 75.324004 271.72638 
L 75.501537 230.759421 
L 75.554797 239.166067 
L 75.696823 274.247502 
L 75.750083 269.970519 
L 75.909863 232.360095 
L 75.980876 240.485705 
L 76.122903 272.823269 
L 76.176162 268.515872 
L 76.335942 233.437011 
L 76.406955 241.426602 
L 76.548982 271.73428 
L 76.602242 267.447001 
L 76.762021 234.366296 
L 76.833034 242.116691 
L 76.975061 270.449271 
L 77.028321 266.121911 
L 77.1881 234.935752 
L 77.24136 239.268973 
L 77.40114 269.717593 
L 77.4544 265.375154 
L 77.61418 235.651561 
L 77.667439 240.033598 
L 77.827219 269.192742 
L 77.880479 264.798573 
L 78.040259 236.211856 
L 78.093519 240.658553 
L 78.253298 269.06026 
L 78.306558 264.745935 
L 78.466338 236.990932 
L 78.519598 241.249224 
L 78.679377 268.288696 
L 78.732637 263.981796 
L 78.892417 237.271184 
L 78.945677 241.506682 
L 79.105457 267.569164 
L 79.158716 263.315216 
L 79.318496 237.840621 
L 79.371756 242.204647 
L 79.531536 267.602614 
L 79.584796 263.287269 
L 79.744575 238.073837 
L 79.797835 242.246945 
L 79.957615 266.904056 
L 80.010875 262.819367 
L 80.170654 238.97252 
L 80.223914 243.147641 
L 80.383694 266.598763 
L 80.436954 262.373777 
L 80.596733 239.309257 
L 80.649993 243.614736 
L 80.809773 266.537577 
L 80.863033 262.223826 
L 81.022813 239.424293 
L 81.076073 243.6772 
L 81.235852 266.1921 
L 81.289112 262.003014 
L 81.448892 239.911797 
L 81.502152 244.076751 
L 81.661931 265.652701 
L 81.715191 261.409431 
L 81.874971 240.026773 
L 81.928231 244.29401 
L 82.08801 265.541843 
L 82.14127 261.312544 
L 82.30105 240.34412 
L 82.35431 244.546494 
L 82.51409 265.132632 
L 82.567349 260.881545 
L 82.727129 240.36926 
L 82.780389 244.555553 
L 82.940169 264.727068 
L 82.993429 260.574648 
L 83.153208 240.919499 
L 83.206468 245.170897 
L 83.366248 264.710686 
L 83.419508 260.446522 
L 83.579287 241.138807 
L 83.614794 243.317935 
L 83.792327 264.538314 
L 83.845587 260.152977 
L 84.005367 240.743099 
L 84.058626 244.916394 
L 84.218406 263.526463 
L 84.253913 261.29576 
L 84.431446 240.35585 
L 84.484706 244.641981 
L 84.644485 263.401124 
L 84.679992 261.291144 
L 84.857525 241.190287 
L 84.910785 245.514125 
L 85.070564 263.877024 
L 85.106071 261.730637 
L 85.283604 241.731827 
L 85.336864 245.929917 
L 85.496644 263.675519 
L 85.53215 261.503675 
L 85.709683 241.891715 
L 85.762943 246.072158 
L 85.904969 263.451359 
L 85.958229 261.291358 
L 86.118009 242.278171 
L 86.189022 246.532155 
L 86.331048 263.329311 
L 86.384308 260.945488 
L 86.544088 241.84372 
L 86.615101 246.109795 
L 86.757128 262.732323 
L 86.810388 260.336546 
L 86.970167 241.518353 
L 87.04118 245.872456 
L 87.183207 262.590446 
L 87.236467 260.307395 
L 87.396246 241.792626 
L 87.46726 246.027924 
L 87.609286 262.525766 
L 87.662546 260.407435 
L 87.822325 242.667523 
L 87.893339 246.804826 
L 88.035365 262.444659 
L 88.088625 260.183862 
L 88.248405 243.015194 
L 88.319418 247.328457 
L 88.461444 262.567879 
L 88.514704 260.147978 
L 88.674484 243.078153 
L 88.727744 245.495797 
L 88.887523 262.400096 
L 88.940783 260.037204 
L 89.100563 243.713803 
L 89.153823 246.097134 
L 89.313602 260.676828 
L 89.366862 257.210108 
L 89.526642 239.81973 
L 89.579902 242.926892 
L 89.739682 261.187326 
L 89.792941 258.719812 
L 89.952721 241.918389 
L 90.005981 244.570611 
L 90.165761 261.606569 
L 90.219021 259.126776 
L 90.3788 242.824584 
L 90.43206 245.468615 
L 90.59184 261.964658 
L 90.6451 259.393413 
L 90.804879 243.050805 
L 90.858139 245.513369 
L 91.017919 261.174456 
L 91.071179 258.585557 
L 91.230959 243.204262 
L 91.284218 245.947608 
L 91.443998 261.447199 
L 91.497258 258.695786 
L 91.657038 243.361631 
L 91.710298 246.182708 
L 91.870077 261.58003 
L 91.923337 258.777779 
L 92.083117 243.402385 
L 92.136377 246.094171 
L 92.296156 260.851132 
L 92.349416 258.058666 
L 92.509196 243.540328 
L 92.562456 246.297797 
L 92.704482 259.218746 
L 92.757742 257.122495 
L 92.917522 240.485487 
L 92.988535 244.326325 
L 93.148315 261.548802 
L 93.201574 258.843031 
L 93.361354 243.647414 
L 93.414614 246.264264 
L 93.55664 259.313992 
L 93.6099 257.428843 
L 93.76968 241.67538 
L 93.840693 245.633101 
L 94.000473 261.470908 
L 94.035979 259.757171 
L 94.213512 242.582043 
L 94.266772 245.93773 
L 94.426552 261.620769 
L 94.479812 258.385955 
L 94.639592 242.414031 
L 94.692851 245.304675 
L 94.852631 260.634612 
L 94.905891 257.943276 
L 95.065671 244.019569 
L 95.118931 247.028594 
L 95.260957 260.362664 
L 95.314217 258.322896 
L 95.49175 241.009661 
L 95.54501 244.127519 
L 95.704789 259.217677 
L 95.758049 256.383167 
L 95.917829 242.578152 
L 95.971089 245.663275 
L 96.113115 259.220647 
L 96.166375 257.496929 
L 96.326155 242.144541 
L 96.397168 245.708917 
L 96.556948 260.669975 
L 96.610208 257.716662 
L 96.769987 244.061421 
L 96.823247 246.996954 
L 96.965273 259.163946 
L 97.018533 257.051196 
L 97.178313 242.996919 
L 97.231573 245.556277 
L 97.391353 259.944493 
L 97.444613 256.491772 
L 97.604392 237.549 
L 97.657652 239.920222 
L 97.835185 259.903018 
L 97.888445 256.812254 
L 98.048225 240.685824 
L 98.101485 243.595892 
L 98.261264 258.959769 
L 98.314524 256.201186 
L 98.474304 241.877219 
L 98.527564 244.761998 
L 98.687343 258.637809 
L 98.740603 255.62272 
L 98.900383 242.067439 
L 98.935889 243.749838 
L 99.113422 259.780835 
L 99.166682 256.842894 
L 99.326462 243.213143 
L 99.379722 246.234487 
L 99.539502 259.702976 
L 99.575008 258.155481 
L 99.752541 243.431877 
L 99.805801 246.50024 
L 99.947827 259.465575 
L 100.001087 257.805637 
L 100.160867 243.420624 
L 100.23188 246.731309 
L 100.373907 259.686289 
L 100.427166 257.903075 
L 100.586946 243.445724 
L 100.657959 246.867466 
L 100.799986 260.104951 
L 100.853246 258.482678 
L 101.013025 244.456698 
L 101.084038 247.686904 
L 101.226065 259.680168 
L 101.279325 257.608215 
L 101.439104 243.345075 
L 101.510118 246.711962 
L 101.652144 258.452171 
L 101.705404 256.25547 
L 101.865184 242.820315 
L 101.918443 245.242358 
L 102.078223 259.129615 
L 102.131483 256.593842 
L 102.291263 241.78774 
L 102.344523 243.932788 
L 102.504302 257.5848 
L 102.557562 255.236022 
L 102.717342 242.409746 
L 102.770602 245.394915 
L 102.930381 259.312955 
L 102.983641 256.249348 
L 103.125668 242.616264 
L 103.178928 244.614128 
L 103.338707 260.056211 
L 103.391967 256.274149 
L 103.5695 228.661958 
L 103.640513 233.612849 
L 103.818046 258.07401 
L 103.871306 254.798198 
L 104.013332 240.834445 
L 104.066592 243.019853 
L 104.226372 257.898725 
L 104.279632 255.718723 
L 104.439412 242.025165 
L 104.492671 244.221102 
L 104.634698 255.907692 
L 104.687958 254.343891 
L 104.847737 240.215024 
L 104.918751 243.323646 
L 105.07853 256.878148 
L 105.13179 254.251629 
L 105.273817 242.390242 
L 105.327076 244.075947 
L 105.486856 258.122328 
L 105.557869 255.160033 
L 105.699896 243.110326 
L 105.753156 244.853459 
L 105.912935 258.747793 
L 105.983948 255.690871 
L 106.125975 243.757395 
L 106.179235 245.507858 
L 106.339014 258.703926 
L 106.392274 256.738643 
L 106.552054 242.926752 
L 106.623067 246.260827 
L 106.765094 258.318641 
L 106.818353 256.413382 
L 106.995886 242.08156 
L 107.049146 244.714973 
L 107.191173 254.665364 
L 107.244433 252.222131 
L 107.404212 239.019855 
L 107.457472 241.507159 
L 107.617252 256.194069 
L 107.670512 254.29292 
L 107.830291 240.92688 
L 107.883551 243.227195 
L 108.043331 258.278999 
L 108.114344 255.188227 
L 108.25637 243.026162 
L 108.30963 244.775255 
L 108.46941 258.28068 
L 108.540423 255.14405 
L 108.68245 243.685445 
L 108.73571 245.561614 
L 108.895489 258.295944 
L 108.948749 256.204478 
L 109.108529 242.913223 
L 109.161789 244.86906 
L 109.321568 257.44886 
L 109.374828 255.066931 
L 109.534608 241.033259 
L 109.587868 243.148056 
L 109.765401 258.188611 
L 109.818661 255.559395 
L 109.960687 244.61962 
L 110.013947 246.365147 
L 110.173727 258.472969 
L 110.226986 256.431858 
L 110.386766 243.876751 
L 110.440026 245.934987 
L 110.599806 258.427224 
L 110.653066 256.225317 
L 110.812845 243.171074 
L 110.866105 245.249388 
L 111.025885 258.354268 
L 111.079145 256.400611 
L 111.238924 243.549633 
L 111.292184 245.450524 
L 111.451964 257.798213 
L 111.505224 255.715319 
L 111.665004 242.988568 
L 111.718263 244.975697 
L 111.878043 257.54105 
L 111.931303 255.614553 
L 112.091083 243.687605 
L 112.144343 245.905758 
L 112.304122 258.585207 
L 112.357382 256.55417 
L 112.517162 244.323145 
L 112.570422 246.498347 
L 112.730201 259.358399 
L 112.783461 257.479839 
L 112.943241 245.370019 
L 112.996501 247.300037 
L 113.156281 258.955794 
L 113.20954 256.848909 
L 113.36932 245.139828 
L 113.42258 247.335234 
L 113.58236 259.195801 
L 113.63562 257.026214 
L 113.795399 245.448488 
L 113.848659 247.717851 
L 113.990685 258.734751 
L 114.043945 257.233585 
L 114.221478 242.279925 
L 114.292492 246.152214 
L 114.434518 258.42567 
L 114.487778 256.955757 
L 114.647557 245.611787 
L 114.700817 247.482606 
L 114.860597 258.603267 
L 114.913857 256.542198 
L 115.073637 245.450083 
L 115.126897 247.608065 
L 115.286676 258.603748 
L 115.339936 256.348727 
L 115.499716 245.491047 
L 115.552976 247.923664 
L 115.712755 259.075534 
L 115.748262 257.805956 
L 115.925795 244.621429 
L 115.979055 246.751695 
L 116.138834 257.612333 
L 116.192094 255.313039 
L 116.351874 244.580422 
L 116.405134 246.900544 
L 116.54716 256.841493 
L 116.60042 255.245396 
L 116.7602 243.326776 
L 116.81346 245.055726 
L 116.973239 257.790435 
L 117.044253 254.783768 
L 117.186279 243.256122 
L 117.239539 244.900255 
L 117.417072 258.688119 
L 117.470332 256.060884 
L 117.630111 244.366562 
L 117.665618 245.734078 
L 117.843151 258.728973 
L 117.896411 256.109941 
L 118.038437 244.896828 
L 118.091697 246.350298 
L 118.251477 258.186381 
L 118.304737 255.917763 
L 118.48227 240.711591 
L 118.53553 243.736214 
L 118.695309 258.411706 
L 118.748569 256.505391 
L 118.908349 244.7632 
L 118.961609 247.081597 
L 119.121388 258.760341 
L 119.174648 256.32689 
L 119.334428 244.594281 
L 119.387688 246.979281 
L 119.529714 257.820969 
L 119.582974 256.149048 
L 119.760507 241.194458 
L 119.83152 244.745907 
L 119.973547 254.897296 
L 120.009053 253.848837 
L 120.168833 242.271444 
L 120.239846 245.203628 
L 120.399626 257.731351 
L 120.452886 255.463691 
L 120.612665 244.198583 
L 120.665925 246.625611 
L 120.807952 257.507071 
L 120.861211 256.053135 
L 121.038744 242.979425 
L 121.092004 245.651927 
L 121.251784 257.615176 
L 121.287291 256.286702 
L 121.464824 242.382135 
L 121.518083 244.739541 
L 121.677863 257.756202 
L 121.731123 256.10006 
L 121.890903 245.247657 
L 121.944163 247.039283 
L 122.086189 255.863286 
L 122.139449 254.029207 
L 122.316982 240.835061 
L 122.370242 243.359621 
L 122.530021 255.325809 
L 122.583281 253.277511 
L 122.743061 243.060599 
L 122.778568 244.378031 
L 122.956101 257.021262 
L 123.00936 254.790111 
L 123.16914 243.952597 
L 123.2224 246.111771 
L 123.38218 256.253426 
L 123.43544 254.026474 
L 123.577466 244.943707 
L 123.630726 246.717534 
L 123.790506 257.885322 
L 123.843765 255.609303 
L 124.021298 240.54131 
L 124.074558 242.861721 
L 124.234338 255.308734 
L 124.287598 253.637543 
L 124.447378 244.110556 
L 124.482884 245.367376 
L 124.660417 257.469904 
L 124.713677 255.426383 
L 124.873457 245.563896 
L 124.926717 247.624008 
L 125.068743 256.203413 
L 125.122003 254.55861 
L 125.281782 243.816138 
L 125.335042 245.431608 
L 125.494822 255.760942 
L 125.548082 253.654976 
L 125.707862 241.67104 
L 125.761122 243.602204 
L 125.938654 256.904703 
L 125.991914 254.476633 
L 126.133941 244.140082 
L 126.187201 245.553398 
L 126.364734 257.497256 
L 126.417994 255.163799 
L 126.56002 245.526458 
L 126.61328 246.960765 
L 126.773059 257.520859 
L 126.826319 255.748298 
L 126.986099 244.287737 
L 127.039359 245.953554 
L 127.199139 257.751878 
L 127.270152 255.146936 
L 127.412178 245.334353 
L 127.465438 246.821079 
L 127.625218 257.327995 
L 127.678478 255.52543 
L 127.838257 244.380272 
L 127.891517 246.128637 
L 128.051297 257.318161 
L 128.104557 255.614845 
L 128.264336 244.603798 
L 128.317596 246.243432 
L 128.459623 255.703954 
L 128.512883 254.303764 
L 128.690416 240.558986 
L 128.743675 242.825725 
L 128.921208 256.770095 
L 128.974468 254.256938 
L 129.116495 244.02532 
L 129.169755 245.605874 
L 129.329534 257.23907 
L 129.400547 254.508396 
L 129.542574 244.895021 
L 129.595834 246.682029 
L 129.755613 257.827703 
L 129.808873 255.948874 
L 129.968653 244.518959 
L 130.021913 246.365634 
L 130.181693 257.230309 
L 130.234952 254.782146 
L 130.394732 240.88157 
L 130.465745 243.667936 
L 130.625525 255.867547 
L 130.678785 254.045715 
L 130.820811 245.502185 
L 130.874071 247.196946 
L 131.033851 258.06904 
L 131.087111 256.444555 
L 131.24689 245.867306 
L 131.30015 247.593429 
L 131.45993 257.323623 
L 131.51319 254.772746 
L 131.672969 241.909268 
L 131.726229 243.677273 
L 131.903762 256.339512 
L 131.957022 253.934051 
L 132.099049 244.409802 
L 132.152308 246.056643 
L 132.312088 257.445695 
L 132.383101 254.886713 
L 132.525128 245.732008 
L 132.578388 247.390206 
L 132.738167 257.808424 
L 132.791427 256.061917 
L 132.951207 245.572492 
L 133.004467 247.278063 
L 133.164246 256.891698 
L 133.217506 254.667528 
L 133.377286 243.849153 
L 133.430546 246.014141 
L 133.590326 257.73434 
L 133.643585 256.088356 
L 133.803365 245.878876 
L 133.856625 247.869777 
L 134.016405 258.414951 
L 134.069665 256.38132 
L 134.229444 245.711179 
L 134.282704 247.714336 
L 134.442484 258.043604 
L 134.495744 255.833566 
L 134.655523 244.748041 
L 134.708783 246.582022 
L 134.85081 255.580534 
L 134.90407 253.849939 
L 135.081603 240.37381 
L 135.134862 242.635322 
L 135.294642 254.276756 
L 135.347902 252.317903 
L 135.489928 242.636216 
L 135.543188 244.246234 
L 135.702968 256.450952 
L 135.756228 254.286697 
L 135.933761 236.774445 
L 136.004774 240.327354 
L 136.164554 253.635538 
L 136.20006 252.402916 
L 136.35984 240.360287 
L 136.430853 243.293184 
L 136.590633 255.568705 
L 136.643893 253.763795 
L 136.785919 245.049179 
L 136.839179 246.510637 
L 136.998959 256.234771 
L 137.052219 254.313584 
L 137.211998 243.886022 
L 137.265258 245.862383 
L 137.407284 255.631713 
L 137.460544 254.013907 
L 137.638077 238.183455 
L 137.709091 240.974909 
L 137.86887 252.851274 
L 137.92213 250.918936 
L 138.064156 242.374522 
L 138.117416 244.148889 
L 138.277196 255.465529 
L 138.330456 253.991869 
L 138.490236 242.971254 
L 138.561249 245.443483 
L 138.703275 254.711888 
L 138.756535 253.406879 
L 138.916315 244.208491 
L 138.969575 246.078572 
L 139.129354 256.278837 
L 139.182614 254.397564 
L 139.342394 243.403118 
L 139.395654 244.956959 
L 139.573187 255.921947 
L 139.626447 253.822714 
L 139.768473 245.859057 
L 139.821733 247.339727 
L 139.981513 256.05513 
L 140.034772 254.341189 
L 140.194552 245.861472 
L 140.247812 247.842313 
L 140.389838 256.212534 
L 140.443098 254.776544 
L 140.620631 243.649692 
L 140.673891 245.888984 
L 140.833671 256.300501 
L 140.886931 254.476234 
L 141.04671 245.195392 
L 141.09997 247.1219 
L 141.241997 255.475322 
L 141.295257 253.942332 
L 141.47279 242.784889 
L 141.526049 245.133698 
L 141.685829 254.991553 
L 141.721336 253.763388 
L 141.898869 242.280728 
L 141.952129 244.472722 
L 142.111908 254.875909 
L 142.165168 253.014306 
L 142.307194 244.230077 
L 142.360454 245.627745 
L 142.537987 257.297555 
L 142.591247 255.337654 
L 142.733274 246.348798 
L 142.786534 247.609762 
L 142.946313 258.012211 
L 143.017326 255.443677 
L 143.159353 245.587354 
L 143.212613 246.789837 
L 143.372392 256.991734 
L 143.425652 255.351605 
L 143.585432 243.844128 
L 143.656445 246.497909 
L 143.798471 256.873457 
L 143.851731 255.506636 
L 144.029264 243.153025 
L 144.082524 245.259136 
L 144.242304 255.143252 
L 144.27781 253.949922 
L 144.455343 242.81296 
L 144.508603 245.246279 
L 144.668383 256.031895 
L 144.721643 254.021823 
L 144.863669 244.669484 
L 144.916929 245.973296 
L 145.076709 257.077032 
L 145.147722 254.493623 
L 145.307502 243.320146 
L 145.360762 245.3094 
L 145.520541 255.474086 
L 145.573801 253.534944 
L 145.733581 244.192651 
L 145.769087 245.311301 
L 145.94662 256.204648 
L 145.99988 254.229243 
L 146.141907 245.349868 
L 146.195167 246.474339 
L 146.354946 255.592195 
L 146.408206 253.715156 
L 146.567986 242.073034 
L 146.638999 244.555707 
L 146.798779 254.887777 
L 146.852039 252.844491 
L 146.994065 244.047919 
L 147.047325 245.467432 
L 147.207105 255.970599 
L 147.278118 253.417836 
L 147.420144 244.088263 
L 147.473404 245.541206 
L 147.633184 256.105384 
L 147.686444 254.555131 
L 147.863976 243.088168 
L 147.917236 245.22319 
L 148.059263 253.650811 
L 148.112523 251.952414 
L 148.272302 241.713914 
L 148.325562 243.742161 
L 148.503095 256.531559 
L 148.556355 254.360045 
L 148.698381 245.099764 
L 148.751641 246.54507 
L 148.911421 257.493781 
L 148.982434 255.04129 
L 149.142214 245.426165 
L 149.17772 246.503962 
L 149.319747 254.509825 
L 149.373007 253.03149 
L 149.55054 238.787651 
L 149.621553 241.647977 
L 149.781333 253.154294 
L 149.834592 251.246829 
L 149.976619 242.729607 
L 150.029879 244.377907 
L 150.189658 255.465452 
L 150.260672 252.982466 
L 150.402698 243.872427 
L 150.455958 245.427167 
L 150.615738 255.811314 
L 150.668997 254.210032 
L 150.828777 244.092277 
L 150.882037 245.815004 
L 151.024063 254.463628 
L 151.077323 252.34893 
L 151.27261 234.558562 
L 151.325869 237.141666 
L 151.485649 250.335655 
L 151.538909 249.07848 
L 151.680935 241.261647 
L 151.734195 242.959968 
L 151.911728 254.496786 
L 151.964988 252.21522 
L 152.107015 243.163165 
L 152.160274 244.703226 
L 152.320054 254.70271 
L 152.373314 252.476041 
L 152.550847 238.812987 
L 152.604107 241.074411 
L 152.763887 252.179955 
L 152.817146 250.489577 
L 152.959173 242.118236 
L 153.012433 243.496039 
L 153.172212 253.606937 
L 153.225472 252.166208 
L 153.385252 242.372269 
L 153.438512 244.235758 
L 153.598291 255.559552 
L 153.651551 254.065261 
L 153.811331 243.450871 
L 153.864591 245.230707 
L 154.024371 256.65858 
L 154.077631 254.664627 
L 154.272917 238.655643 
L 154.326177 240.883083 
L 154.485956 250.452907 
L 154.539216 249.10571 
L 154.663489 244.804826 
L 154.698996 245.681249 
L 154.876529 255.489692 
L 154.947542 252.857358 
L 155.089568 245.313699 
L 155.125075 246.181245 
L 155.284855 255.212986 
L 155.338115 253.521885 
L 155.515648 239.434078 
L 155.586661 242.114577 
L 155.74644 252.318974 
L 155.781947 251.265935 
L 155.941727 242.187911 
L 155.994987 243.841249 
L 156.154766 254.034076 
L 156.208026 252.678808 
L 156.367806 243.888499 
L 156.421066 245.796286 
L 156.580845 255.388761 
L 156.634105 253.269152 
L 156.793885 241.751047 
L 156.847145 242.988783 
L 157.006925 251.980307 
L 157.060184 250.109516 
L 157.219964 240.511962 
L 157.273224 242.750749 
L 157.450757 255.319152 
L 157.504017 253.340804 
L 157.646043 245.173204 
L 157.699303 246.60001 
L 157.859083 255.705348 
L 157.912343 254.094388 
L 158.072122 244.89962 
L 158.125382 246.496768 
L 158.285162 254.816787 
L 158.320669 253.746869 
L 158.498202 243.586298 
L 158.551461 245.748342 
L 158.711241 255.389648 
L 158.746748 254.307138 
L 158.924281 243.129583 
L 158.977541 245.114863 
L 159.13732 255.124833 
L 159.19058 253.211713 
L 159.35036 243.470374 
L 159.40362 245.451214 
L 159.563399 255.250764 
L 159.616659 253.218666 
L 159.776439 242.937241 
L 159.829699 244.701212 
L 159.989478 254.216207 
L 160.042738 252.36502 
L 160.184765 243.519911 
L 160.238025 244.780062 
L 160.415558 256.570951 
L 160.468817 254.713071 
L 160.628597 244.787684 
L 160.681857 246.610596 
L 160.841637 256.265863 
L 160.894897 254.491482 
L 161.054676 245.225265 
L 161.107936 246.908505 
L 161.249963 254.569399 
L 161.303222 253.018265 
L 161.463002 242.539371 
L 161.516262 243.98208 
L 161.693795 255.692111 
L 161.747055 253.762497 
L 161.889081 244.980461 
L 161.942341 246.302496 
L 162.102121 256.860497 
L 162.173134 254.499052 
L 162.31516 245.37074 
L 162.36842 246.831388 
L 162.5282 256.803187 
L 162.58146 254.50058 
L 162.758993 238.923647 
L 162.830006 241.488446 
L 162.972032 249.742822 
L 163.007539 248.767041 
L 163.167319 239.068259 
L 163.220579 240.814113 
L 163.398112 254.887492 
L 163.469125 252.422982 
L 163.611151 244.338023 
L 163.664411 246.089747 
L 163.824191 254.672712 
L 163.859697 253.611107 
L 164.019477 243.89538 
L 164.09049 245.92927 
L 164.232516 253.391576 
L 164.268023 252.453404 
L 164.445556 240.783055 
L 164.516569 243.737593 
L 164.658596 253.645812 
L 164.711856 252.27672 
L 164.871635 242.303162 
L 164.924895 244.250927 
L 165.102428 256.469191 
L 165.155688 254.107131 
L 165.297714 244.571726 
L 165.350974 245.971613 
L 165.510754 256.069568 
L 165.564014 254.100472 
L 165.741547 241.670099 
L 165.794807 244.037802 
L 165.936833 253.589973 
L 165.990093 252.07502 
L 166.149873 241.290166 
L 166.203132 243.10277 
L 166.380665 255.886432 
L 166.433925 253.755482 
L 166.575952 244.290336 
L 166.629212 245.539088 
L 166.788991 255.755169 
L 166.860004 253.273963 
L 167.002031 245.063491 
L 167.055291 246.936657 
L 167.197317 256.089444 
L 167.250577 254.571048 
L 167.42811 241.221893 
L 167.48137 243.408693 
L 167.64115 254.391732 
L 167.676656 252.893853 
L 167.854189 237.176623 
L 167.925202 241.020259 
L 168.084982 254.623793 
L 168.120489 253.231736 
L 168.298022 239.347431 
L 168.351281 241.944853 
L 168.511061 254.195359 
L 168.564321 251.714724 
L 168.724101 239.125773 
L 168.777361 241.090278 
L 168.93714 252.263718 
L 168.9904 250.276744 
L 169.132427 240.326653 
L 169.185686 241.655475 
L 169.363219 254.904244 
L 169.434233 252.040516 
L 169.558506 244.187785 
L 169.611766 245.441866 
L 169.789299 256.46438 
L 169.842558 254.226882 
L 169.984585 245.220704 
L 170.037845 246.683216 
L 170.179871 255.5662 
L 170.233131 253.888547 
L 170.428417 237.445815 
L 170.481677 240.221109 
L 170.641457 252.930218 
L 170.694717 250.856563 
L 170.854496 239.91077 
L 170.907756 242.144068 
L 171.067536 253.569668 
L 171.120796 251.901966 
L 171.280575 242.839673 
L 171.333835 244.96094 
L 171.475862 253.315682 
L 171.529122 251.46343 
L 171.688901 239.879797 
L 171.742161 241.392999 
L 171.901941 253.089313 
L 171.972954 250.53526 
L 172.132734 239.83086 
L 172.185994 241.98524 
L 172.345773 251.868067 
L 172.399033 249.941908 
L 172.54106 242.182523 
L 172.594319 244.019132 
L 172.754099 254.468555 
L 172.807359 252.785769 
L 172.967139 242.707122 
L 173.020399 244.592099 
L 173.180178 254.458886 
L 173.233438 252.020326 
L 173.393218 239.905859 
L 173.446478 241.772674 
L 173.606257 252.889435 
L 173.659517 250.655904 
L 173.819297 237.709445 
L 173.872557 239.255786 
L 174.032337 251.003268 
L 174.10335 248.20269 
L 174.245376 238.708484 
L 174.298636 240.788253 
L 174.458416 253.06735 
L 174.511676 251.261387 
L 174.671455 238.603647 
L 174.742468 241.271757 
L 174.902248 252.029118 
L 174.937755 250.809935 
L 175.097534 240.280017 
L 175.150794 241.924328 
L 175.310574 253.268373 
L 175.381587 250.867532 
L 175.523613 242.736636 
L 175.55912 243.776959 
L 175.736653 255.338017 
L 175.789913 253.232158 
L 175.949693 242.838005 
L 176.002953 244.988489 
L 176.144979 253.483295 
L 176.180485 252.072559 
L 176.375772 233.412985 
L 176.446785 237.838437 
L 176.588811 251.322704 
L 176.642071 249.398996 
L 176.819604 234.561676 
L 176.872864 237.564656 
L 177.032644 251.120729 
L 177.085904 248.912676 
L 177.245683 237.82079 
L 177.28119 239.184702 
L 177.458723 252.433034 
L 177.511983 250.126343 
L 177.671762 238.89469 
L 177.725022 241.103683 
L 177.884802 251.75923 
L 177.938062 249.654536 
L 178.080088 240.409704 
L 178.133348 242.033009 
L 178.310881 254.69484 
L 178.364141 252.787541 
L 178.506167 243.939407 
L 178.559427 245.264307 
L 178.719207 255.118877 
L 178.772467 253.577625 
L 178.932247 244.11675 
L 178.985506 246.04319 
L 179.127533 255.349991 
L 179.180793 253.844777 
L 179.358326 239.733254 
L 179.429339 242.715741 
L 179.571365 251.921333 
L 179.606872 250.765212 
L 179.784405 237.006949 
L 179.855418 240.380571 
L 180.015198 252.425113 
L 180.050704 251.313032 
L 180.228237 239.36464 
L 180.29925 241.408844 
L 180.388017 244.893492 
L 180.441277 243.581504 
L 180.61881 230.474755 
L 180.689823 234.481343 
L 180.867356 250.792986 
L 180.920616 248.205123 
L 181.062642 238.085541 
L 181.115902 240.095292 
L 181.293435 253.805501 
L 181.346695 251.758332 
L 181.488721 242.939108 
L 181.541981 244.537533 
L 181.701761 254.51908 
L 181.755021 252.727741 
L 181.9148 243.22583 
L 181.96806 245.323979 
L 182.110087 253.91397 
L 182.163347 251.687101 
L 182.34088 236.809136 
L 182.39414 239.165125 
L 182.553919 252.353839 
L 182.607179 250.749885 
L 182.766959 239.872645 
L 182.820219 241.858381 
L 182.979998 252.485131 
L 183.033258 250.17177 
L 183.193038 239.011997 
L 183.246298 241.448656 
L 183.406077 253.456894 
L 183.459337 251.203095 
L 183.619117 238.942975 
L 183.672377 241.020618 
L 183.832157 253.524965 
L 183.885416 251.752796 
L 184.045196 239.386757 
L 184.116209 241.975182 
L 184.275989 252.403319 
L 184.329249 250.540407 
L 184.453522 243.857921 
L 184.506782 245.046628 
L 184.666562 255.423081 
L 184.737575 253.148655 
L 184.879601 243.899761 
L 184.932861 245.199329 
L 185.074887 254.073741 
L 185.128147 252.602688 
L 185.30568 236.980083 
L 185.376693 239.826029 
L 185.536473 251.893022 
L 185.589733 249.481896 
L 185.731759 238.92895 
L 185.785019 240.548931 
L 185.944799 253.40243 
L 186.015812 250.515158 
L 186.175592 238.395021 
L 186.211098 239.684574 
L 186.388631 252.744887 
L 186.441891 250.284532 
L 186.601671 239.088152 
L 186.637178 240.445704 
L 186.81471 253.229469 
L 186.86797 250.540367 
L 187.02775 238.332101 
L 187.08101 240.672651 
L 187.24079 252.791181 
L 187.29405 251.060372 
L 187.436076 242.078624 
L 187.489336 243.636811 
L 187.649115 254.785121 
L 187.702375 253.141795 
L 187.862155 242.309356 
L 187.915415 244.19996 
L 188.057441 253.228541 
L 188.110701 250.548289 
L 188.288234 231.319033 
L 188.359247 235.138351 
L 188.519027 250.289712 
L 188.572287 247.760244 
L 188.714313 235.718964 
L 188.767573 237.390787 
L 188.945106 252.267995 
L 188.998366 249.721167 
L 189.140392 238.224179 
L 189.193652 239.809496 
L 189.353432 251.928121 
L 189.406692 249.331554 
L 189.566472 233.600199 
L 189.637485 237.18851 
L 189.797264 251.855912 
L 189.832771 250.244516 
L 190.010304 231.896842 
L 190.081317 235.135426 
L 190.241097 248.405652 
L 190.294357 246.558425 
L 190.41863 239.774296 
L 190.47189 241.587621 
L 190.631669 253.905048 
L 190.702683 251.201229 
L 190.844709 241.611456 
L 190.897969 243.751447 
L 191.039995 253.839469 
L 191.093255 251.151847 
L 191.288541 230.011132 
L 191.341801 233.459 
L 191.501581 249.022682 
L 191.554841 246.58177 
L 191.696867 234.63383 
L 191.750127 236.474677 
L 191.909907 250.906204 
L 191.98092 247.427375 
L 192.1407 234.027213 
L 192.176206 235.549604 
L 192.318233 246.629835 
L 192.371493 244.009759 
L 192.566779 219.884703 
L 192.620039 223.962037 
L 192.797572 247.864286 
L 192.868585 244.268795 
L 192.992858 234.336966 
L 193.046118 236.53408 
L 193.223651 252.955299 
L 193.276911 250.883919 
L 193.418937 241.489656 
L 193.472197 243.500553 
L 193.631977 254.462184 
L 193.685237 252.197055 
L 193.827263 242.271704 
L 193.880523 244.021558 
L 194.022549 254.434618 
L 194.075809 252.352018 
L 194.271095 232.095903 
L 194.324355 235.273462 
L 194.484135 249.892612 
L 194.537395 247.07468 
L 194.697174 233.974433 
L 194.732681 235.62784 
L 194.910214 250.796371 
L 194.963474 247.565115 
L 195.123254 233.699269 
L 195.15876 235.302672 
L 195.31854 249.394335 
L 195.3718 246.636418 
L 195.549333 227.17192 
L 195.602593 230.565499 
L 195.762372 249.455564 
L 195.833385 245.880825 
L 195.975412 232.050266 
L 196.028672 234.358767 
L 196.206205 252.696621 
L 196.277218 249.185331 
L 196.401491 239.920236 
L 196.454751 241.600108 
L 196.614531 253.642193 
L 196.66779 251.721539 
L 196.82757 240.71501 
L 196.88083 243.24127 
L 197.022856 253.956674 
L 197.076116 251.707858 
L 197.253649 234.942362 
L 197.306909 237.460868 
L 197.466689 250.676712 
L 197.519949 247.843189 
L 197.679728 233.031284 
L 197.732988 234.928995 
L 197.875015 246.19452 
L 197.928275 244.643379 
L 198.088054 230.474606 
L 198.159067 233.780782 
L 198.318847 249.269952 
L 198.372107 247.22974 
L 198.531887 235.303585 
L 198.585147 238.35378 
L 198.744926 252.578006 
L 198.798186 249.933712 
L 198.957966 235.416168 
L 199.011226 237.661939 
L 199.188759 252.590272 
L 199.242019 250.15226 
L 199.384045 241.24404 
L 199.419551 242.40826 
L 199.597084 254.343051 
L 199.650344 251.874347 
L 199.792371 242.255718 
L 199.845631 244.285509 
L 199.987657 254.650859 
L 200.040917 252.259728 
L 200.236203 231.806669 
L 200.289463 235.250459 
L 200.449243 249.951809 
L 200.484749 248.354406 
L 200.662282 232.695848 
L 200.715542 235.901332 
L 200.875322 250.658179 
L 200.928582 247.841129 
L 201.088361 233.666924 
L 201.141621 236.352064 
L 201.301401 249.958289 
L 201.354661 247.287768 
L 201.514441 234.217761 
L 201.5677 236.916073 
L 201.709727 248.547742 
L 201.762987 246.191908 
L 201.94052 228.057731 
L 202.011533 232.094171 
L 202.153559 244.745934 
L 202.206819 243.134593 
L 202.348846 234.019221 
L 202.402105 236.442282 
L 202.579638 251.534415 
L 202.632898 248.723124 
L 202.774925 237.772687 
L 202.828185 240.010125 
L 202.970211 252.150974 
L 203.023471 250.171923 
L 203.201004 229.97816 
L 203.272017 233.662507 
L 203.414043 247.888991 
L 203.467303 245.609188 
L 203.627083 228.470781 
L 203.698096 232.242246 
L 203.857876 248.288491 
L 203.911136 245.170811 
L 204.053162 230.901424 
L 204.106422 232.772486 
L 204.283955 249.645158 
L 204.337215 246.161239 
L 204.496994 230.895855 
L 204.532501 232.633421 
L 204.692281 248.370386 
L 204.745541 245.341982 
L 204.923074 221.208201 
L 204.994087 225.818864 
L 205.17162 246.538586 
L 205.22488 243.90157 
L 205.349153 235.381037 
L 205.402413 237.405491 
L 205.562192 250.305665 
L 205.615452 248.506171 
L 205.757479 238.78817 
L 205.810738 240.758193 
L 205.952765 251.839699 
L 206.006025 249.249608 
L 206.201311 224.513078 
L 206.272324 229.571387 
L 206.414351 244.196029 
L 206.46761 241.304006 
L 206.62739 224.195498 
L 206.68065 226.45742 
L 206.84043 242.674964 
L 206.911443 239.555464 
L 207.053469 228.958716 
L 207.088976 230.579372 
L 207.266509 247.476513 
L 207.337522 242.939379 
L 207.479548 229.907995 
L 207.532808 232.692038 
L 207.692588 248.293067 
L 207.745848 245.647549 
L 207.905628 228.82555 
L 207.976641 232.554994 
L 208.154174 249.838128 
L 208.207434 247.569846 
L 208.331707 240.408595 
L 208.384967 242.127148 
L 208.544746 251.660345 
L 208.598006 249.285749 
L 208.740033 240.08727 
L 208.793292 241.96004 
L 208.917565 250.361836 
L 208.970825 248.462058 
L 209.166112 224.387272 
L 209.237125 229.119305 
L 209.396905 247.514165 
L 209.450164 244.479018 
L 209.609944 228.698837 
L 209.663204 232.01941 
L 209.822984 248.986039 
L 209.876244 245.9668 
L 210.053777 226.775099 
L 210.107036 229.895544 
L 210.266816 244.338053 
L 210.320076 241.799102 
L 210.462102 231.318831 
L 210.515362 233.968733 
L 210.692895 250.197307 
L 210.746155 247.578338 
L 210.888181 236.076876 
L 210.941441 237.477871 
L 211.118974 249.792276 
L 211.172234 247.864932 
L 211.296507 241.536043 
L 211.349767 243.201318 
L 211.509547 252.965576 
L 211.562807 250.612714 
L 211.722586 239.47147 
L 211.775846 241.943497 
L 211.900119 251.121313 
L 211.953379 249.036926 
L 212.148666 224.231958 
L 212.219679 228.583608 
L 212.361705 244.408992 
L 212.414965 242.452869 
L 212.574745 226.067163 
L 212.645758 230.339683 
L 212.805538 246.960436 
L 212.841044 245.204908 
L 213.018577 226.584254 
L 213.071837 229.620343 
L 213.231617 247.280359 
L 213.30263 243.864649 
L 213.444656 231.679287 
L 213.497916 234.187999 
L 213.657696 248.226517 
L 213.710956 245.421911 
L 213.870735 229.127675 
L 213.941749 232.442306 
L 214.119282 247.598809 
L 214.172541 245.534023 
L 214.296815 239.526348 
L 214.350074 240.75168 
L 214.456594 244.854669 
L 214.509854 243.254053 
L 214.687387 229.383598 
L 214.740647 231.94359 
L 214.900427 245.653824 
L 214.935933 243.638455 
L 215.131219 216.232501 
L 215.219986 223.540579 
L 215.362012 240.80452 
L 215.415272 238.341851 
L 215.575052 224.070284 
L 215.628312 227.493182 
L 215.788091 244.25744 
L 215.841351 242.123973 
L 215.983378 229.800236 
L 216.036638 231.580019 
L 216.214171 248.190913 
L 216.267431 245.633022 
L 216.42721 232.251923 
L 216.48047 234.714701 
L 216.622496 246.005395 
L 216.675756 244.061913 
L 216.835536 230.12048 
L 216.888796 232.328112 
L 217.066329 250.193908 
L 217.137342 247.430345 
L 217.261615 239.744253 
L 217.314875 241.730963 
L 217.474655 252.658474 
L 217.527915 250.011421 
L 217.669941 238.385466 
L 217.723201 239.940556 
L 217.865227 251.07745 
L 217.918487 248.730783 
L 218.113773 224.843283 
L 218.184787 230.846879 
L 218.326813 248.082511 
L 218.380073 245.727445 
L 218.539853 228.702996 
L 218.593112 231.174168 
L 218.752892 247.172806 
L 218.806152 243.939617 
L 218.983685 224.227106 
L 219.036945 227.927621 
L 219.178971 243.163272 
L 219.232231 241.017376 
L 219.392011 224.126043 
L 219.445271 226.676443 
L 219.622804 247.428143 
L 219.693817 242.99593 
L 219.835843 230.028214 
L 219.87135 231.364621 
L 220.048883 247.788003 
L 220.119896 244.748326 
L 220.244169 237.340629 
L 220.279676 238.640883 
L 220.457209 252.649313 
L 220.510469 250.100359 
L 220.652495 239.154955 
L 220.705755 241.388413 
L 220.830028 251.703492 
L 220.883288 249.012992 
L 221.096327 210.302757 
L 221.185094 219.118693 
L 221.32712 238.942722 
L 221.38038 236.016393 
L 221.522406 221.09246 
L 221.575666 223.834777 
L 221.753199 244.008296 
L 221.806459 240.401739 
L 221.948486 225.302292 
L 222.001746 227.700652 
L 222.143772 242.933773 
L 222.197032 240.526063 
L 222.374565 214.266164 
L 222.445578 219.608846 
L 222.623111 247.258641 
L 222.676371 244.367347 
L 222.818397 229.417862 
L 222.871657 231.25727 
L 223.04919 247.29198 
L 223.10245 244.777393 
L 223.226723 236.802207 
L 223.279983 239.227696 
L 223.439763 253.473626 
L 223.493022 251.111833 
L 223.652802 237.295333 
L 223.706062 239.995706 
L 223.830335 250.913404 
L 223.883595 248.535254 
L 224.078881 220.078708 
L 224.149894 226.450262 
L 224.309674 247.994322 
L 224.345181 245.776561 
L 224.522714 222.54972 
L 224.593727 227.947227 
L 224.735753 243.259349 
L 224.77126 241.541396 
L 224.93104 223.571054 
L 225.002053 228.225711 
L 225.144079 245.851515 
L 225.197339 241.941736 
L 225.410379 201.237149 
L 225.499145 207.553164 
L 225.623418 218.767264 
L 225.676678 217.596951 
L 225.765445 213.874359 
L 225.818704 215.669156 
L 226.049497 241.943403 
L 226.156017 237.652771 
L 226.209277 236.519836 
L 226.244784 237.576826 
L 226.422316 249.327933 
L 226.475576 247.065419 
L 226.617603 237.267595 
L 226.670863 239.112815 
L 226.795136 247.376768 
L 226.848396 244.417769 
L 227.043682 212.983056 
L 227.132448 220.942005 
L 227.274475 239.90946 
L 227.309981 237.773561 
L 227.487514 211.656255 
L 227.558528 217.913216 
L 227.718307 241.840985 
L 227.771567 237.635849 
L 227.931347 213.835146 
L 227.984607 216.450795 
L 228.16214 238.125104 
L 228.2154 234.674925 
L 228.357426 219.984902 
L 228.410686 222.477293 
L 228.588219 240.297114 
L 228.641479 237.119289 
L 228.783505 225.654601 
L 228.819012 227.263502 
L 229.014298 247.34914 
L 229.085311 243.778941 
L 229.191831 236.84284 
L 229.245091 238.380583 
L 229.40487 249.907534 
L 229.45813 247.774395 
L 229.600157 237.302651 
L 229.653417 239.290078 
L 229.795443 250.218269 
L 229.848703 246.684859 
L 230.043989 218.225053 
L 230.097249 222.467712 
L 230.257029 245.33247 
L 230.310289 242.648472 
L 230.470068 221.975322 
L 230.541081 226.231369 
L 230.683108 242.789559 
L 230.736368 240.367309 
L 230.896147 224.290205 
L 230.949407 228.170025 
L 231.091434 244.381146 
L 231.12694 242.075633 
L 231.33998 199.625048 
L 231.428746 211.726337 
L 231.588526 239.773019 
L 231.624033 237.963188 
L 231.783812 221.428711 
L 231.837072 224.969224 
L 232.014605 246.096848 
L 232.067865 244.188998 
L 232.192138 236.451235 
L 232.245398 238.252577 
L 232.405178 249.063052 
L 232.458438 246.620706 
L 232.600464 236.631622 
L 232.653724 238.589884 
L 232.777997 247.655183 
L 232.831257 245.862501 
L 233.026543 222.570644 
L 233.097556 227.483875 
L 233.239583 241.812282 
L 233.275089 240.036261 
L 233.470375 216.183224 
L 233.541389 220.793035 
L 233.665662 231.436117 
L 233.718922 228.893193 
L 233.878701 213.831309 
L 233.931961 215.811951 
L 234.038481 222.865186 
L 234.091741 220.035334 
L 234.287027 188.554756 
L 234.35804 197.807571 
L 234.553327 241.123855 
L 234.606586 236.917073 
L 234.748613 219.326044 
L 234.801873 223.04976 
L 234.979406 248.011311 
L 235.050419 243.767047 
L 235.174692 233.739855 
L 235.210199 235.092063 
L 235.369978 249.996648 
L 235.440991 246.729542 
L 235.583018 235.071303 
L 235.636278 237.780593 
L 235.760551 247.283996 
L 235.796057 245.276177 
L 235.955837 211.804172 
L 236.009097 206.762131 
L 236.062357 210.670299 
L 236.23989 241.834004 
L 236.310903 236.743998 
L 236.452929 220.056853 
L 236.488436 222.013892 
L 236.665969 244.142771 
L 236.719229 240.218147 
L 236.879009 219.139179 
L 236.932268 222.382828 
L 237.092048 242.91007 
L 237.145308 240.22399 
L 237.322841 220.043661 
L 237.376101 223.208239 
L 237.500374 234.489733 
L 237.553634 232.412245 
L 237.713414 214.711382 
L 237.784427 219.488687 
L 237.96196 243.782005 
L 238.01522 241.714421 
L 238.157246 231.876423 
L 238.192753 233.337887 
L 238.352532 245.963579 
L 238.405792 243.134734 
L 238.565572 227.221285 
L 238.618832 229.480224 
L 238.760858 241.468129 
L 238.814118 238.337509 
L 238.991651 216.910868 
L 239.044911 220.502064 
L 239.186937 235.990539 
L 239.240197 231.742543 
L 239.41773 200.806949 
L 239.488743 207.13514 
L 239.648523 234.329356 
L 239.701783 231.733012 
L 239.861562 213.544854 
L 239.914822 217.531842 
L 240.074602 236.970438 
L 240.127862 233.196026 
L 240.287642 214.708805 
L 240.340901 218.947296 
L 240.500681 239.843512 
L 240.553941 236.551834 
L 240.713721 216.702372 
L 240.766981 219.818012 
L 240.962267 243.542966 
L 241.015527 240.852292 
L 241.122047 234.153635 
L 241.175306 236.131658 
L 241.335086 249.427704 
L 241.388346 246.707722 
L 241.548126 231.868735 
L 241.601386 234.454184 
L 241.725659 245.2438 
L 241.778919 242.929611 
L 241.956452 218.538336 
L 242.027465 223.887616 
L 242.169491 244.051055 
L 242.222751 240.34215 
L 242.418037 206.991393 
L 242.471297 212.569303 
L 242.631077 238.148249 
L 242.684337 234.404013 
L 242.844116 212.992377 
L 242.897376 216.774269 
L 243.057156 236.449423 
L 243.110416 232.248227 
L 243.270196 212.916589 
L 243.305702 215.443826 
L 243.483235 240.503888 
L 243.536495 236.378674 
L 243.714028 211.64748 
L 243.767288 216.338375 
L 243.944821 238.616019 
L 243.998081 235.472667 
L 244.1046 227.310312 
L 244.15786 229.230759 
L 244.335393 246.86444 
L 244.388653 244.03233 
L 244.53068 231.816383 
L 244.58394 234.368963 
L 244.725966 246.128711 
L 244.761472 244.025562 
L 244.956759 215.297457 
L 245.027772 221.54694 
L 245.152045 238.476989 
L 245.205305 234.999995 
L 245.400591 196.938061 
L 245.471604 204.55942 
L 245.631384 233.091494 
L 245.684644 230.581851 
L 245.82667 215.342448 
L 245.87993 218.196354 
L 246.03971 237.333815 
L 246.09297 234.814127 
L 246.252749 218.413439 
L 246.306009 222.120537 
L 246.465789 242.005214 
L 246.519049 239.586536 
L 246.678829 223.470029 
L 246.732088 226.800351 
L 246.909621 246.449565 
L 246.962881 243.839162 
L 247.087154 234.74877 
L 247.140414 236.726383 
L 247.300194 249.579105 
L 247.353454 247.067763 
L 247.49548 236.507714 
L 247.530987 237.998747 
L 247.673013 251.100364 
L 247.726273 247.765414 
L 247.939313 207.690323 
L 248.010326 216.156842 
L 248.134599 236.376049 
L 248.187859 232.767845 
L 248.365392 197.449997 
L 248.436405 204.868136 
L 248.596185 235.428654 
L 248.649445 230.836534 
L 248.809224 204.101331 
L 248.862484 208.530577 
L 249.022264 236.462717 
L 249.093277 230.442988 
L 249.253057 204.626364 
L 249.306317 208.006965 
L 249.448343 225.861645 
L 249.501603 223.437591 
L 249.661383 204.965722 
L 249.714642 209.299002 
L 249.909929 240.881829 
L 249.980942 236.973688 
L 250.087462 228.838334 
L 250.140722 230.414199 
L 250.282748 240.298313 
L 250.336008 237.749474 
L 250.478034 224.446273 
L 250.531294 226.437909 
L 250.691074 241.860996 
L 250.744334 237.195436 
L 250.921867 206.701922 
L 250.99288 211.701372 
L 251.134906 228.499529 
L 251.170413 226.248309 
L 251.330192 203.542388 
L 251.401206 210.526516 
L 251.560985 241.630379 
L 251.614245 237.124787 
L 251.791778 200.800594 
L 251.862791 208.298913 
L 252.004818 233.411971 
L 252.058078 229.648856 
L 252.235611 201.511401 
L 252.28887 207.2903 
L 252.44865 233.920217 
L 252.50191 230.532806 
L 252.643936 211.700597 
L 252.697196 214.590902 
L 252.892483 243.91509 
L 252.963496 239.242074 
L 253.070016 230.647233 
L 253.123275 233.063311 
L 253.283055 247.980227 
L 253.336315 244.900256 
L 253.478341 231.430251 
L 253.531601 234.028149 
L 253.655874 246.114625 
L 253.709134 242.878217 
L 253.904421 203.257324 
L 253.993187 213.849907 
L 254.135213 240.073232 
L 254.188473 235.319146 
L 254.366006 202.393771 
L 254.419266 206.884703 
L 254.579046 231.601332 
L 254.632306 228.24244 
L 254.774332 209.80821 
L 254.827592 212.453179 
L 255.005125 235.963389 
L 255.058385 231.886905 
L 255.200411 213.36479 
L 255.253671 215.912912 
L 255.431204 239.219633 
L 255.484464 235.750541 
L 255.62649 219.147945 
L 255.67975 221.975976 
L 255.857283 246.959851 
L 255.928296 243.06602 
L 256.070323 229.457914 
L 256.123583 231.875765 
L 256.265609 243.371631 
L 256.318869 241.259769 
L 256.460895 230.140393 
L 256.514155 232.241915 
L 256.656182 242.884645 
L 256.691688 240.758876 
L 256.886974 210.45286 
L 256.975741 218.390837 
L 257.100014 234.27468 
L 257.153274 230.791739 
L 257.313054 206.894411 
L 257.384067 212.566955 
L 257.543846 236.109698 
L 257.597106 231.567026 
L 257.756886 209.1353 
L 257.810146 213.851287 
L 257.969926 238.779511 
L 258.023185 235.345049 
L 258.182965 212.665716 
L 258.236225 216.012908 
L 258.396005 236.667177 
L 258.449265 232.185335 
L 258.609044 207.407441 
L 258.662304 211.044139 
L 258.85759 240.700179 
L 258.91085 236.792476 
L 259.035123 225.46023 
L 259.07063 227.07877 
L 259.248163 248.081012 
L 259.319176 243.040902 
L 259.443449 229.167334 
L 259.496709 231.405743 
L 259.638736 247.234845 
L 259.691995 243.337392 
L 259.887282 203.485607 
L 259.958295 210.327049 
L 260.100321 234.920183 
L 260.153581 231.839288 
L 260.331114 204.700786 
L 260.384374 209.81612 
L 260.544154 234.809062 
L 260.597414 230.986864 
L 260.757193 207.626454 
L 260.828206 212.341432 
L 260.95248 226.830747 
L 261.005739 224.413938 
L 261.165519 203.442612 
L 261.236532 209.229133 
L 261.414065 238.618046 
L 261.467325 236.249942 
L 261.609352 223.405793 
L 261.662611 226.279315 
L 261.822391 243.099634 
L 261.875651 241.205066 
L 262.017677 229.935773 
L 262.070937 231.823309 
L 262.212964 243.290612 
L 262.266223 241.353029 
L 262.426003 227.014028 
L 262.479263 229.904308 
L 262.621289 243.72964 
L 262.656796 241.553494 
L 262.798822 208.411987 
L 262.887589 197.548348 
L 262.923095 199.976766 
L 263.136135 231.147131 
L 263.207148 227.39605 
L 263.278161 223.968908 
L 263.331421 225.841585 
L 263.473448 236.620232 
L 263.508954 234.682046 
L 263.721994 202.731459 
L 263.793007 211.109268 
L 263.935033 233.69938 
L 263.988293 230.857542 
L 264.148073 209.938928 
L 264.201333 213.55509 
L 264.378866 239.269268 
L 264.432126 236.084446 
L 264.574152 219.751509 
L 264.627412 221.898459 
L 264.804945 242.491039 
L 264.875958 239.230548 
L 264.982478 231.959287 
L 265.035738 233.903923 
L 265.195518 247.019438 
L 265.248777 243.739895 
L 265.390804 228.695245 
L 265.444064 231.054237 
L 265.603843 248.387671 
L 265.657103 242.909141 
L 265.85239 204.38093 
L 265.905649 209.077224 
L 266.065429 233.322643 
L 266.118689 229.316324 
L 266.260715 209.684678 
L 266.313975 213.061627 
L 266.491508 240.523318 
L 266.544768 235.35005 
L 266.704548 209.290292 
L 266.757808 213.741635 
L 266.917587 239.20727 
L 266.970847 233.887591 
L 267.14838 197.671841 
L 267.219393 204.970645 
L 267.396926 235.827854 
L 267.450186 232.648214 
L 267.574459 221.77366 
L 267.627719 224.576563 
L 267.805252 243.707289 
L 267.858512 241.622822 
L 268.000538 232.930983 
L 268.053798 234.601334 
L 268.142565 238.267829 
L 268.195825 236.325295 
L 268.373358 218.965727 
L 268.426618 222.684439 
L 268.586397 243.631946 
L 268.639657 239.676477 
L 268.81719 211.329463 
L 268.87045 216.253598 
L 269.012476 240.63271 
L 269.065736 237.111575 
L 269.261023 192.459199 
L 269.332036 200.689201 
L 269.491815 232.283167 
L 269.545075 228.077876 
L 269.704855 205.387377 
L 269.758115 210.30902 
L 269.900141 231.712316 
L 269.953401 228.768466 
L 270.130934 203.32099 
L 270.184194 208.545614 
L 270.343974 234.149161 
L 270.397234 231.062064 
L 270.557013 210.418078 
L 270.610273 213.824916 
L 270.787806 236.922195 
L 270.858819 233.460667 
L 270.965339 227.471752 
L 271.000846 229.067528 
L 271.160625 244.697747 
L 271.231639 241.058322 
L 271.373665 227.945022 
L 271.409172 229.599822 
L 271.551198 245.181943 
L 271.604458 242.229532 
L 271.817497 201.020084 
L 271.888511 210.461455 
L 272.012784 231.712489 
L 272.066044 226.894761 
L 272.26133 180.135153 
L 272.332343 188.753136 
L 272.509876 221.149799 
L 272.545383 218.720368 
L 272.687409 204.159711 
L 272.740669 207.85213 
L 272.882695 225.369124 
L 272.935955 222.583669 
L 273.095735 199.942212 
L 273.166748 204.922452 
L 273.326528 227.761986 
L 273.379788 224.140669 
L 273.521814 205.118188 
L 273.575074 207.795395 
L 273.788113 241.652793 
L 273.87688 235.228482 
L 273.965646 229.32288 
L 274.018906 231.399361 
L 274.160933 242.293376 
L 274.214192 240.188535 
L 274.373972 227.118256 
L 274.427232 229.048423 
L 274.533752 235.060477 
L 274.569258 233.639335 
L 274.693532 212.262209 
L 274.782298 202.548895 
L 274.817805 204.665928 
L 275.013091 235.388843 
L 275.084104 228.22899 
L 275.22613 209.608035 
L 275.261637 211.8017 
L 275.421417 233.014765 
L 275.474677 228.900291 
L 275.65221 197.946474 
L 275.705469 202.402921 
L 275.865249 228.905011 
L 275.918509 224.943325 
L 276.078289 198.733392 
L 276.131549 202.964106 
L 276.309082 236.222743 
L 276.380095 230.245081 
L 276.522121 211.930031 
L 276.557628 214.528986 
L 276.752914 245.777621 
L 276.823927 240.031102 
L 276.9482 226.930559 
L 277.00146 229.583306 
L 277.143487 243.715749 
L 277.196746 241.105238 
L 277.374279 221.97376 
L 277.427539 224.840658 
L 277.534059 231.867618 
L 277.569566 229.795205 
L 277.782605 193.381687 
L 277.853618 202.372025 
L 278.013398 230.602295 
L 278.048905 228.311841 
L 278.226438 202.647907 
L 278.279698 206.941504 
L 278.439477 227.357847 
L 278.474984 224.911504 
L 278.634763 203.015447 
L 278.705777 209.178598 
L 278.865556 232.849667 
L 278.901063 230.399566 
L 279.078596 204.254982 
L 279.131856 208.964697 
L 279.309389 236.608648 
L 279.362649 232.149052 
L 279.504675 213.27212 
L 279.557935 216.305451 
L 279.753221 243.951848 
L 279.824234 239.647132 
L 279.930754 231.977199 
L 279.984014 234.054371 
L 280.12604 245.895449 
L 280.1793 244.248108 
L 280.33908 231.320004 
L 280.39234 233.552048 
L 280.516613 242.068207 
L 280.55212 240.300971 
L 280.765159 208.450169 
L 280.836172 216.147307 
L 280.995952 238.862235 
L 281.031459 236.440287 
L 281.191238 215.902346 
L 281.244498 219.084717 
L 281.404278 239.667141 
L 281.457538 235.39553 
L 281.635071 207.796952 
L 281.688331 212.451589 
L 281.865864 237.946266 
L 281.919123 233.389262 
L 282.06115 215.377195 
L 282.11441 217.532506 
L 282.274189 233.51721 
L 282.327449 230.08945 
L 282.487229 211.832913 
L 282.540489 214.540415 
L 282.718022 232.809359 
L 282.771282 230.56869 
L 282.877802 223.762283 
L 282.931061 225.306045 
L 283.108594 240.77891 
L 283.179608 236.682959 
L 283.303881 227.951116 
L 283.339387 229.409727 
L 283.481414 241.356741 
L 283.534674 237.286155 
L 283.747713 192.783411 
L 283.83648 203.381835 
L 283.978506 224.634197 
L 284.014013 222.707391 
L 284.173792 203.933717 
L 284.227052 207.423743 
L 284.386832 228.424874 
L 284.440092 225.078643 
L 284.599871 204.472001 
L 284.653131 208.317449 
L 284.812911 232.118068 
L 284.883924 227.121621 
L 285.043704 206.981652 
L 285.07921 209.273512 
L 285.23899 230.268531 
L 285.310003 225.668952 
L 285.469783 206.545009 
L 285.50529 208.901657 
L 285.700576 235.782388 
L 285.789342 230.791223 
L 285.878109 226.125448 
L 285.913615 227.486742 
L 286.091148 242.126125 
L 286.144408 238.918573 
L 286.286435 226.98253 
L 286.339694 229.716908 
L 286.446214 238.885887 
L 286.499474 235.983559 
L 286.712514 187.381183 
L 286.80128 199.207697 
L 286.96106 233.327387 
L 287.01432 229.195541 
L 287.174099 207.326418 
L 287.227359 212.267838 
L 287.369386 232.519572 
L 287.422646 229.273666 
L 287.582425 205.115683 
L 287.653438 210.823078 
L 287.813218 233.721678 
L 287.848725 231.315555 
L 288.026258 207.013163 
L 288.079518 211.648242 
L 288.239297 233.683981 
L 288.292557 229.220419 
L 288.452337 205.706335 
L 288.505597 209.307012 
L 288.700883 237.574507 
L 288.771896 233.566042 
L 288.860663 228.002775 
L 288.913923 229.99859 
L 289.073702 243.928786 
L 289.126962 241.154569 
L 289.286742 226.894866 
L 289.340002 230.106671 
L 289.446521 239.717869 
L 289.499781 237.029505 
L 289.712821 194.158897 
L 289.801587 205.809115 
L 289.943614 232.318673 
L 289.996874 229.431281 
L 290.156653 208.427502 
L 290.209913 211.928735 
L 290.369693 231.757353 
L 290.422953 228.28323 
L 290.564979 210.651241 
L 290.618239 213.041862 
L 290.813525 238.992766 
L 290.884539 233.352799 
L 291.008812 222.259919 
L 291.044318 223.761803 
L 291.204098 239.76561 
L 291.275111 235.664424 
L 291.434891 219.442558 
L 291.470397 221.364331 
L 291.64793 241.355355 
L 291.718944 238.405794 
L 291.843217 230.166347 
L 291.896476 232.40371 
L 292.038503 243.169859 
L 292.091763 241.223623 
L 292.251542 229.171872 
L 292.304802 231.593026 
L 292.393569 237.576773 
L 292.446829 235.169999 
L 292.571102 204.453901 
L 292.677622 185.582598 
L 292.713128 188.105489 
L 292.908414 229.482039 
L 292.997181 218.733021 
L 293.121454 197.274419 
L 293.174714 200.319906 
L 293.352247 227.59816 
L 293.405507 223.155447 
L 293.565286 201.330838 
L 293.618546 204.702897 
L 293.742819 218.421877 
L 293.796079 215.763996 
L 293.973612 190.497267 
L 294.026872 195.876321 
L 294.222158 230.967389 
L 294.275418 225.823815 
L 294.417445 207.302461 
L 294.470705 211.488886 
L 294.665991 241.383815 
L 294.719251 238.605131 
L 294.843524 228.77877 
L 294.896784 230.391032 
L 295.03881 239.571633 
L 295.09207 236.950817 
L 295.25185 223.075928 
L 295.30511 224.740465 
L 295.411629 229.812498 
L 295.447136 227.933628 
L 295.589162 200.701198 
L 295.660175 192.654592 
L 295.713435 195.953309 
L 295.890968 222.75379 
L 295.944228 218.754914 
L 296.104008 198.59882 
L 296.139515 201.216174 
L 296.317047 229.173796 
L 296.388061 223.473808 
L 296.530087 203.41979 
L 296.583347 206.389851 
L 296.743127 228.49897 
L 296.81414 224.185323 
L 296.956166 208.606825 
L 297.009426 212.08608 
L 297.151452 227.665114 
L 297.204712 223.063933 
L 297.382245 190.740363 
L 297.453258 198.221276 
L 297.648545 234.305721 
L 297.701805 231.129844 
L 297.808324 222.516518 
L 297.861584 224.539373 
L 298.021364 240.962924 
L 298.092377 237.517388 
L 298.21665 226.560419 
L 298.26991 228.220038 
L 298.394183 238.383888 
L 298.447443 235.586688 
L 298.660483 199.749669 
L 298.731496 207.423088 
L 298.855769 223.161663 
L 298.891276 220.511314 
L 299.086562 180.240974 
L 299.175328 190.751155 
L 299.317355 215.871419 
L 299.370615 212.397049 
L 299.512641 192.498445 
L 299.565901 195.215588 
L 299.743434 222.471173 
L 299.814447 217.278625 
L 299.956473 201.454901 
L 299.99198 203.495797 
L 300.169513 224.637526 
L 300.222773 220.69606 
L 300.382553 201.722687 
L 300.435812 205.652555 
L 300.613345 228.92526 
L 300.666605 226.785366 
L 300.808632 216.711392 
L 300.861892 218.782297 
L 300.986165 226.533804 
L 301.039425 224.742412 
L 301.199204 212.546241 
L 301.270217 215.182711 
L 301.341231 218.554945 
L 301.376737 217.551376 
L 301.483257 198.462488 
L 301.60753 177.048222 
L 301.643037 179.337482 
L 301.856076 225.075435 
L 301.944843 213.580943 
L 302.069116 195.380511 
L 302.104622 197.723498 
L 302.282155 225.815559 
L 302.353169 218.679716 
L 302.495195 196.855582 
L 302.548455 200.612516 
L 302.708234 224.803257 
L 302.761494 221.568107 
L 302.921274 199.825081 
L 302.974534 203.487857 
L 303.11656 223.296698 
L 303.16982 220.375226 
L 303.347353 190.930719 
L 303.418366 198.876784 
L 303.613653 233.62097 
L 303.649159 231.58243 
L 303.773432 221.345016 
L 303.826692 223.956249 
L 303.986472 240.194574 
L 304.039732 237.263736 
L 304.181758 223.166835 
L 304.235018 225.304126 
L 304.359291 235.355432 
L 304.394798 233.133001 
L 304.519071 202.021859 
L 304.625591 184.687943 
L 304.661097 187.694533 
L 304.83863 222.358802 
L 304.909643 216.696002 
L 305.05167 195.88514 
L 305.10493 199.935897 
L 305.264709 222.913957 
L 305.317969 217.998417 
L 305.477749 192.982742 
L 305.531009 198.309111 
L 305.708542 229.770587 
L 305.761802 224.563623 
L 305.903828 202.051631 
L 305.957088 205.402385 
L 306.134621 233.439241 
L 306.187881 228.559011 
L 306.34766 205.43299 
L 306.40092 210.732376 
L 306.578453 240.495381 
L 306.631713 237.327944 
L 306.77374 222.923694 
L 306.826999 225.917179 
L 306.969026 240.755708 
L 307.022286 238.697713 
L 307.182065 222.819846 
L 307.253079 226.27749 
L 307.341845 232.341284 
L 307.395105 229.276959 
L 307.608144 191.840529 
L 307.679158 200.642823 
L 307.821184 224.607206 
L 307.874444 221.501278 
L 308.034224 199.945251 
L 308.087484 203.301532 
L 308.22951 218.699498 
L 308.265016 215.949905 
L 308.460303 181.222916 
L 308.531316 190.962604 
L 308.691096 220.827285 
L 308.726602 218.463461 
L 308.886382 195.427424 
L 308.939642 199.713072 
L 309.099421 227.722188 
L 309.170435 221.84731 
L 309.312461 197.993754 
L 309.365721 201.423052 
L 309.561007 238.496681 
L 309.649774 231.893419 
L 309.756293 223.52466 
L 309.7918 225.37433 
L 309.95158 241.602252 
L 310.00484 238.728254 
L 310.146866 223.693123 
L 310.200126 225.831894 
L 310.324399 237.669426 
L 310.377659 233.705593 
L 310.590698 186.521912 
L 310.661712 196.790289 
L 310.803738 226.299532 
L 310.856998 222.315838 
L 311.034531 190.473376 
L 311.087791 196.006764 
L 311.229817 219.57556 
L 311.283077 215.450668 
L 311.46061 183.956497 
L 311.51387 190.070597 
L 311.691403 222.221569 
L 311.744663 216.679662 
L 311.886689 195.850722 
L 311.939949 199.903274 
L 312.099729 224.37644 
L 312.152989 220.729944 
L 312.312768 198.459509 
L 312.366028 203.336385 
L 312.561314 236.817284 
L 312.614574 233.724135 
L 312.738847 223.36847 
L 312.792107 225.999464 
L 312.934134 239.168777 
L 312.987394 236.75993 
L 313.147173 221.217747 
L 313.200433 223.817947 
L 313.306953 232.377192 
L 313.360213 228.977991 
L 313.573252 184.911519 
L 313.644266 194.251624 
L 313.804045 225.522026 
L 313.857305 220.88764 
L 314.017085 196.012161 
L 314.070345 199.90712 
L 314.212371 217.631741 
L 314.265631 212.908995 
L 314.425411 184.273183 
L 314.496424 190.641983 
L 314.656203 220.478737 
L 314.709463 217.17131 
L 314.869243 194.279425 
L 314.922503 198.636505 
L 315.082283 223.720204 
L 315.135542 220.399182 
L 315.295322 199.017866 
L 315.348582 204.038877 
L 315.543868 238.366297 
L 315.614882 233.352718 
L 315.721401 223.97861 
L 315.774661 226.098155 
L 315.934441 240.023189 
L 315.987701 236.667793 
L 316.14748 221.830194 
L 316.20074 224.606254 
L 316.30726 231.774749 
L 316.342767 230.138542 
L 316.484793 202.93927 
L 316.555806 195.574414 
L 316.609066 199.464456 
L 316.768846 224.302714 
L 316.839859 219.281514 
L 316.981885 200.967796 
L 317.035145 204.99451 
L 317.194925 229.511288 
L 317.248185 226.158605 
L 317.407965 201.11757 
L 317.478978 207.369205 
L 317.656511 238.224542 
L 317.709771 235.08242 
L 317.851797 221.353623 
L 317.905057 224.809745 
L 318.047083 238.807968 
L 318.08259 236.811569 
L 318.277876 210.49495 
L 318.348889 217.400203 
L 318.490916 235.230901 
L 318.544176 232.560514 
L 318.686202 220.525872 
L 318.721709 222.57075 
L 318.899241 243.46958 
L 318.952501 239.637857 
L 319.112281 219.490128 
L 319.165541 222.416267 
L 319.289814 234.995753 
L 319.343074 231.209372 
L 319.556113 190.997546 
L 319.627127 200.073974 
L 319.769153 220.22228 
L 319.80466 217.758214 
L 319.964439 195.575569 
L 320.035453 201.516782 
L 320.195232 223.423131 
L 320.230739 221.180404 
L 320.372765 203.392192 
L 320.426025 206.389658 
L 320.621311 242.259622 
L 320.710078 234.443351 
L 320.834351 220.410027 
L 320.887611 223.032478 
L 320.994131 231.912451 
L 321.04739 228.945416 
L 321.242677 195.529776 
L 321.31369 203.81193 
L 321.491223 234.254385 
L 321.526729 231.844044 
L 321.668756 215.64118 
L 321.722016 218.604316 
L 321.881795 239.407193 
L 321.952809 234.557223 
L 322.094835 218.804292 
L 322.148095 222.240507 
L 322.272368 235.022257 
L 322.325628 230.60461 
L 322.538667 187.756879 
L 322.609681 196.792083 
L 322.733954 214.7893 
L 322.787214 210.748383 
L 322.92924 188.5667 
L 322.9825 191.759702 
L 323.160033 224.453858 
L 323.231046 216.158286 
L 323.373072 188.495768 
L 323.426332 192.373453 
L 323.603865 226.580039 
L 323.674878 218.348432 
L 323.816905 194.499819 
L 323.870165 199.235312 
L 324.029944 225.57533 
L 324.083204 220.648811 
L 324.242984 193.020085 
L 324.296244 198.107853 
L 324.49153 237.397444 
L 324.562543 231.188693 
L 324.686816 218.130092 
L 324.722323 219.93033 
L 324.899856 239.042102 
L 324.953116 235.131413 
L 325.130649 216.195249 
L 325.183909 217.386298 
L 325.237169 218.297889 
L 325.272675 216.734683 
L 325.379195 197.875506 
L 325.503468 179.559521 
L 325.538975 182.342867 
L 325.734261 220.678719 
L 325.823027 212.104463 
L 325.9473 196.324698 
L 325.982807 198.38953 
L 326.16034 224.427127 
L 326.231353 216.719361 
L 326.533159 172.110379 
L 326.604172 170.380402 
L 326.710692 166.648118 
L 326.746199 168.252587 
L 326.870472 190.874277 
L 326.976992 205.075554 
L 327.012498 202.692331 
L 327.190031 170.086485 
L 327.261044 176.90357 
L 327.474084 223.583343 
L 327.545097 218.648379 
L 327.633864 211.775155 
L 327.687124 213.940283 
L 327.846903 230.655725 
L 327.917916 227.354283 
L 328.04219 218.616613 
L 328.077696 220.116707 
L 328.201969 230.534412 
L 328.255229 226.738288 
L 328.468269 172.726566 
L 328.557035 185.113183 
L 328.716815 218.327601 
L 328.752321 215.086325 
L 328.912101 186.505778 
L 328.983114 193.406283 
L 329.125141 219.254062 
L 329.178401 215.846984 
L 329.355934 186.624515 
L 329.409193 192.364165 
L 329.568973 217.955781 
L 329.622233 212.617356 
L 329.764259 188.776784 
L 329.817519 191.986137 
L 329.995052 221.496884 
L 330.048312 215.825861 
L 330.208092 187.16363 
L 330.261352 192.320142 
L 330.456638 232.159177 
L 330.527651 227.008985 
L 330.634171 216.442756 
L 330.687431 218.713532 
L 330.84721 235.80484 
L 330.90047 233.017257 
L 331.06025 218.034469 
L 331.11351 221.514758 
L 331.237783 232.051244 
L 331.27329 229.941322 
L 331.486329 194.524193 
L 331.575096 203.38239 
L 331.681615 214.585693 
L 331.717122 212.862877 
L 331.894655 189.270662 
L 331.965668 195.772426 
L 332.107695 215.22799 
L 332.160954 210.722782 
L 332.338487 182.972663 
L 332.391747 187.873525 
L 332.533774 208.917047 
L 332.587034 206.245287 
L 332.746813 185.500788 
L 332.800073 190.587161 
L 332.977606 222.581384 
L 333.030866 217.900151 
L 333.208399 189.786597 
L 333.261659 194.715058 
L 333.439192 218.755885 
L 333.492452 216.340179 
L 333.581218 211.101778 
L 333.634478 213.087032 
L 333.794258 229.889069 
L 333.865271 224.965154 
L 334.025051 205.806136 
L 334.060557 207.871133 
L 334.202584 224.250452 
L 334.255844 220.544194 
L 334.45113 182.085963 
L 334.522143 190.323774 
L 334.664169 216.41449 
L 334.717429 212.918345 
L 334.894962 184.831958 
L 334.948222 190.312567 
L 335.090249 213.099041 
L 335.143508 209.92405 
L 335.303288 183.978801 
L 335.374301 189.936356 
L 335.534081 214.243163 
L 335.569588 211.611917 
L 335.729367 186.782241 
L 335.80038 193.115511 
L 335.96016 220.114394 
L 336.01342 215.896469 
L 336.1732 193.181486 
L 336.22646 198.354771 
L 336.403993 226.599791 
L 336.457252 222.401797 
L 336.581525 207.525578 
L 336.634785 210.132157 
L 336.812318 235.682234 
L 336.883332 230.627907 
L 337.025358 215.87504 
L 337.060864 217.55293 
L 337.185138 228.535942 
L 337.238397 225.037012 
L 337.451437 185.04573 
L 337.52245 194.722643 
L 337.664477 218.560606 
L 337.717736 214.607714 
L 337.877516 192.941853 
L 337.930776 197.729531 
L 338.090556 220.222467 
L 338.143816 215.668613 
L 338.303595 193.038077 
L 338.356855 196.809614 
L 338.498882 215.2376 
L 338.552141 212.247939 
L 338.711921 188.690008 
L 338.782934 193.682986 
L 338.924961 213.329339 
L 338.978221 209.301542 
L 339.155754 180.046337 
L 339.209013 185.724772 
L 339.422053 227.038018 
L 339.493066 222.956851 
L 339.581833 218.122382 
L 339.617339 219.401329 
L 339.794872 234.619027 
L 339.865885 231.020592 
L 339.972405 224.073458 
L 340.025665 225.396955 
L 340.114432 230.253418 
L 340.167692 227.945 
L 340.291965 197.320491 
L 340.416238 175.642156 
L 340.451744 179.041377 
L 340.629277 212.794221 
L 340.70029 205.988532 
L 340.842317 185.114714 
L 340.877823 187.72841 
L 341.055356 219.132517 
L 341.12637 212.250637 
L 341.286149 187.400171 
L 341.321656 190.296028 
L 341.481435 215.705421 
L 341.552449 210.465773 
L 341.694475 190.967509 
L 341.747735 195.072404 
L 341.889761 217.064693 
L 341.943021 213.774781 
L 342.120554 178.668209 
L 342.191567 186.857898 
L 342.386854 228.376158 
L 342.440114 223.929162 
L 342.564387 210.239922 
L 342.617647 213.050732 
L 342.777426 231.062576 
L 342.830686 228.943888 
L 342.954959 219.48333 
L 343.008219 221.443184 
L 343.114739 229.690945 
L 343.167999 226.424434 
L 343.398792 173.928033 
L 343.487558 189.691407 
L 343.611831 212.016933 
L 343.647338 208.835296 
L 343.842624 167.90617 
L 343.913637 176.901621 
L 344.03791 195.598351 
L 344.073417 192.606466 
L 344.25095 154.067638 
L 344.321963 161.836777 
L 344.481743 197.741404 
L 344.535003 193.547443 
L 344.694782 165.321127 
L 344.748042 170.877227 
L 344.925575 206.647276 
L 344.978835 202.263676 
L 345.120861 182.245351 
L 345.174121 187.189526 
L 345.351654 221.273515 
L 345.422667 215.464867 
L 345.564694 196.40156 
L 345.617954 199.469792 
L 345.777733 217.579485 
L 345.830993 215.487914 
L 345.955266 206.352121 
L 346.008526 207.716462 
L 346.115046 213.127501 
L 346.150553 211.188406 
L 346.274826 183.97204 
L 346.381346 168.428918 
L 346.416852 171.326624 
L 346.594385 203.269827 
L 346.665398 196.175362 
L 346.807425 174.023239 
L 346.860685 178.700261 
L 347.002711 200.455638 
L 347.055971 193.95138 
L 347.251257 140.736992 
L 347.32227 152.1783 
L 347.499803 197.2728 
L 347.553063 193.308465 
L 347.677336 178.155132 
L 347.730596 182.238186 
L 347.908129 211.156812 
L 347.961389 206.987837 
L 348.103415 188.183837 
L 348.156675 192.000978 
L 348.351962 223.199914 
L 348.422975 218.558199 
L 348.529494 210.439675 
L 348.582754 212.695467 
L 348.707027 222.766986 
L 348.760287 220.564526 
L 348.93782 200.824696 
L 348.99108 203.90532 
L 349.0976 213.671878 
L 349.15086 210.207232 
L 349.363899 163.276478 
L 349.434913 172.867534 
L 349.576939 201.859272 
L 349.630199 197.295471 
L 349.807732 159.785207 
L 349.878745 167.869398 
L 350.038525 194.684363 
L 350.074031 191.711441 
L 350.251564 165.891113 
L 350.304824 169.556447 
L 350.411344 179.387901 
L 350.446851 177.57523 
L 350.642137 139.878149 
L 350.730903 150.848784 
L 350.890683 182.423293 
L 350.943943 178.470527 
L 351.068216 163.239883 
L 351.121476 167.68905 
L 351.334515 213.603663 
L 351.423282 207.601568 
L 351.512048 201.670814 
L 351.547555 203.24495 
L 351.707335 219.84781 
L 351.778348 215.235747 
L 351.920374 199.411593 
L 351.973634 201.757236 
L 352.080154 210.582851 
L 352.133414 206.924963 
L 352.346453 158.532014 
L 352.43522 172.464826 
L 352.577246 199.443002 
L 352.612753 196.485738 
L 352.790286 165.872767 
L 352.843546 171.338626 
L 352.985572 196.186596 
L 353.038832 192.727048 
L 353.198612 162.822912 
L 353.269625 170.25843 
L 353.447158 207.81947 
L 353.500418 202.58126 
L 353.642444 179.32819 
L 353.695704 182.776884 
L 353.855484 208.974609 
L 353.926497 203.209668 
L 354.068523 183.724251 
L 354.10403 186.630616 
L 354.317069 230.415187 
L 354.405836 222.623457 
L 354.512356 211.980103 
L 354.565616 214.169747 
L 354.707642 225.496924 
L 354.760902 222.769977 
L 354.902928 210.514425 
L 354.956188 212.267794 
L 355.044955 217.605896 
L 355.098214 214.546519 
L 355.240241 174.776155 
L 355.329007 159.141542 
L 355.382267 164.341439 
L 355.5598 203.196834 
L 355.630813 196.565392 
L 355.77284 175.379519 
L 355.8261 179.744523 
L 355.968126 200.003727 
L 356.021386 196.108322 
L 356.181166 169.953988 
L 356.234425 174.949748 
L 356.429712 214.001459 
L 356.482972 208.350883 
L 356.624998 186.572537 
L 356.678258 189.796774 
L 356.802531 205.100792 
L 356.855791 200.638678 
L 357.051077 153.333489 
L 357.12209 164.403476 
L 357.33513 221.942831 
L 357.38839 217.973533 
L 357.512663 206.66468 
L 357.548169 208.072595 
L 357.707949 220.791615 
L 357.761209 217.459127 
L 358.027508 199.513187 
L 358.098522 193.043014 
L 358.311561 152.496788 
L 358.382574 161.443583 
L 358.542354 190.712075 
L 358.595614 187.14843 
L 358.73764 169.453867 
L 358.7909 173.620633 
L 358.968433 200.506549 
L 359.021693 194.885866 
L 359.181473 167.916033 
L 359.234733 170.571336 
L 359.376759 187.105707 
L 359.430019 183.984523 
L 359.572045 165.401172 
L 359.625305 169.361528 
L 359.838345 212.284519 
L 359.909358 203.036033 
L 360.033631 183.886398 
L 360.086891 187.54191 
L 360.282177 219.539089 
L 360.35319 214.428029 
L 360.45971 204.863171 
L 360.51297 206.661796 
L 360.67275 221.021769 
L 360.743763 218.402892 
L 360.850283 212.677107 
L 360.903543 214.407911 
L 361.010062 220.009254 
L 361.045569 218.139953 
L 361.169842 190.108659 
L 361.276362 171.630483 
L 361.329622 176.157131 
L 361.507155 207.015694 
L 361.560415 200.784059 
L 361.720194 173.094285 
L 361.773454 178.819141 
L 361.933234 207.809731 
L 361.986494 202.823853 
L 362.146273 173.401316 
L 362.199533 177.697811 
L 362.359313 206.355843 
L 362.412573 202.117174 
L 362.572353 172.490847 
L 362.643366 179.01769 
L 362.785392 201.640453 
L 362.820899 198.529579 
L 363.016185 154.758198 
L 363.087198 165.399228 
L 363.282484 211.918742 
L 363.335744 208.822218 
L 363.460017 199.113178 
L 363.495524 200.509382 
L 363.63755 210.527707 
L 363.69081 207.388899 
L 363.85059 191.879726 
L 363.90385 194.510912 
L 363.992616 200.784924 
L 364.045876 197.693232 
L 364.258916 152.710407 
L 364.329929 164.256229 
L 364.489709 204.499169 
L 364.542969 200.073759 
L 364.702748 170.423159 
L 364.756008 175.842843 
L 364.898034 202.949303 
L 364.951294 197.681737 
L 365.146581 148.311096 
L 365.199841 156.853065 
L 365.35962 198.995321 
L 365.41288 193.789625 
L 365.590413 149.664751 
L 365.661426 157.392461 
L 365.821206 186.018067 
L 365.874466 182.187285 
L 365.980986 170.676575 
L 366.034245 174.17103 
L 366.247285 216.548028 
L 366.336052 208.526189 
L 366.442571 199.166104 
L 366.478078 200.855738 
L 366.655611 218.732723 
L 366.726624 215.543783 
L 366.815391 210.765109 
L 366.86865 212.165845 
L 366.957417 217.277324 
L 367.010677 214.971613 
L 367.13495 182.848131 
L 367.24147 160.243293 
L 367.29473 164.339167 
L 367.472263 201.867393 
L 367.543276 194.043777 
L 367.685302 170.169475 
L 367.720809 172.950511 
L 367.898342 206.817708 
L 367.969355 198.372822 
L 368.111381 171.380668 
L 368.164641 176.292662 
L 368.342174 209.738666 
L 368.395434 202.929474 
L 368.555214 173.324739 
L 368.608474 178.658361 
L 368.7505 202.060015 
L 368.80376 197.510115 
L 368.96354 166.955551 
L 369.016799 171.514441 
L 369.194332 207.76944 
L 369.247592 202.298299 
L 369.407372 171.735664 
L 369.460632 175.655573 
L 369.620412 200.437179 
L 369.673671 196.2127 
L 369.815698 175.849758 
L 369.868958 178.54472 
L 369.993231 192.071064 
L 370.028737 189.246129 
L 370.170764 143.02997 
L 370.241777 128.536772 
L 370.295037 133.1464 
L 370.490323 180.105327 
L 370.543583 173.163558 
L 370.685609 148.89701 
L 370.721116 152.254546 
L 370.898649 189.419096 
L 370.969662 180.006592 
L 371.111688 151.355415 
L 371.164948 157.525604 
L 371.342481 201.177758 
L 371.413495 194.418731 
L 371.537768 174.189417 
L 371.591028 178.149732 
L 371.76856 211.873891 
L 371.839574 203.843383 
L 371.9816 180.514763 
L 372.03486 184.926581 
L 372.212393 211.679862 
L 372.265653 206.980282 
L 372.407679 190.470288 
L 372.460939 194.08785 
L 372.620719 212.498468 
L 372.673979 209.805224 
L 372.816005 198.239471 
L 372.869265 200.508113 
L 372.958031 206.232313 
L 373.011291 203.786316 
L 373.224331 165.947641 
L 373.295344 174.69269 
L 373.455124 201.968886 
L 373.49063 199.265981 
L 373.668163 173.082297 
L 373.721423 177.667055 
L 373.86345 196.050173 
L 373.916709 192.084876 
L 374.058736 171.135393 
L 374.111996 174.095643 
L 374.289529 202.256349 
L 374.342789 196.252121 
L 374.502568 165.385821 
L 374.555828 169.409044 
L 374.715608 195.816505 
L 374.768868 190.129118 
L 374.928647 158.992069 
L 374.981907 165.235857 
L 375.177194 215.62141 
L 375.248207 209.285334 
L 375.37248 192.234251 
L 375.42574 195.734675 
L 375.585519 218.993657 
L 375.656533 214.965502 
L 375.780806 203.635627 
L 375.834066 206.351397 
L 375.940585 214.378819 
L 375.976092 211.920473 
L 376.100365 176.58914 
L 376.206885 155.826659 
L 376.242391 159.281247 
L 376.437678 206.156091 
L 376.508691 198.424711 
L 376.650717 176.82923 
L 376.686224 179.424005 
L 376.82825 199.509597 
L 376.88151 195.340308 
L 377.059043 159.837417 
L 377.112303 165.505889 
L 377.289836 202.56412 
L 377.343096 197.213691 
L 377.485122 173.220659 
L 377.538382 177.350449 
L 377.698162 204.675272 
L 377.751422 199.138258 
L 377.911201 166.223314 
L 377.964461 171.276689 
L 378.177501 219.448913 
L 378.248514 212.169978 
L 378.355034 201.689247 
L 378.39054 203.287403 
L 378.55032 219.218208 
L 378.60358 215.884559 
L 378.76336 200.695599 
L 378.816619 202.939582 
L 378.869879 204.680245 
L 378.905386 202.416084 
L 378.994152 176.751076 
L 379.171685 115.372309 
L 379.207192 119.968805 
L 379.384725 169.872084 
L 379.437985 160.176717 
L 379.615518 97.973552 
L 379.668778 105.922906 
L 379.828557 155.721542 
L 379.881817 149.673707 
L 380.041597 106.248383 
L 380.094857 115.870369 
L 380.307896 194.756331 
L 380.37891 182.44069 
L 380.485429 162.127141 
L 380.538689 166.621513 
L 380.698469 199.043508 
L 380.751729 194.691161 
L 380.893755 169.63071 
L 380.947015 173.826585 
L 381.106795 206.282368 
L 381.177808 199.171851 
L 381.319834 174.696301 
L 381.355341 178.126748 
L 381.532874 218.772678 
L 381.603887 210.603584 
L 381.745913 182.645353 
L 381.799173 187.177504 
L 381.923446 206.399715 
L 381.976706 199.655463 
L 382.154239 144.732416 
L 382.225253 156.380196 
L 382.367279 196.839199 
L 382.402785 191.42832 
L 382.615825 99.728474 
L 382.686838 120.311738 
L 382.846618 181.831633 
L 382.882125 177.053258 
L 383.041904 132.671732 
L 383.095164 141.872626 
L 383.254944 195.407903 
L 383.308204 187.554633 
L 383.467983 132.10709 
L 383.538997 145.794067 
L 383.698776 207.184835 
L 383.752036 199.718991 
L 383.929569 140.545671 
L 383.982829 149.532716 
L 384.178115 208.119735 
L 384.231375 202.987532 
L 384.337895 190.383142 
L 384.391155 194.795007 
L 384.533181 217.264268 
L 384.586441 212.411656 
L 384.763974 174.628241 
L 384.834987 179.519549 
L 384.923754 188.060851 
L 384.95926 185.695094 
L 385.154547 141.988328 
L 385.22556 156.127297 
L 385.367586 199.347424 
L 385.420846 190.909263 
L 385.616132 107.728273 
L 385.687145 119.574685 
L 385.846925 167.651713 
L 385.900185 161.322788 
L 386.024458 135.666451 
L 386.077718 141.366576 
L 386.273004 199.743765 
L 386.344017 189.407686 
L 386.468291 164.175642 
L 386.52155 169.036297 
L 386.663577 198.620816 
L 386.716837 194.103364 
L 386.89437 146.727613 
L 386.965383 155.761184 
L 387.142916 197.388747 
L 387.196176 192.249376 
L 387.320449 177.230264 
L 387.355955 179.948442 
L 387.533488 209.867367 
L 387.604502 203.113778 
L 387.728775 186.983501 
L 387.782035 190.554024 
L 387.888554 203.31542 
L 387.941814 198.995832 
L 388.154854 139.224682 
L 388.225867 151.856455 
L 388.35014 180.446744 
L 388.385647 176.624794 
L 388.598686 105.633228 
L 388.669699 123.703416 
L 388.829479 175.541263 
L 388.864986 171.879269 
L 389.024765 135.300633 
L 389.078025 141.304361 
L 389.255558 182.625506 
L 389.308818 176.616969 
L 389.450844 154.782185 
L 389.486351 158.002923 
L 389.628377 179.510489 
L 389.663884 175.438326 
L 389.85917 116.555713 
L 389.930183 133.522987 
L 390.12547 210.601556 
L 390.17873 202.781381 
L 390.320756 172.928925 
L 390.374016 179.100106 
L 390.533796 212.501793 
L 390.587055 208.627142 
L 390.746835 187.2624 
L 390.800095 191.233122 
L 390.888862 198.188884 
L 390.924368 195.634905 
L 391.137408 146.84752 
L 391.226174 162.984921 
L 391.332694 181.048903 
L 391.368201 176.125792 
L 391.563487 114.105787 
L 391.6345 132.079088 
L 391.79428 190.095785 
L 391.84754 180.834409 
L 392.007319 129.240632 
L 392.060579 136.887031 
L 392.238112 190.760278 
L 392.291372 183.164806 
L 392.433398 151.747252 
L 392.486658 159.802112 
L 392.646438 204.757119 
L 392.699698 198.462287 
L 392.859478 156.082385 
L 392.912737 163.749685 
L 393.108024 223.386133 
L 393.161284 216.267525 
L 393.30331 190.152183 
L 393.338817 193.401241 
L 393.51635 226.837322 
L 393.569609 220.987118 
L 393.729389 193.753236 
L 393.782649 195.810456 
L 393.853662 199.416364 
L 393.889169 197.042231 
L 394.013442 160.030619 
L 394.119962 139.378801 
L 394.155468 143.629325 
L 394.297495 172.298215 
L 394.333001 167.063365 
L 394.546041 76.220586 
L 394.617054 98.848685 
L 394.776834 176.72565 
L 394.830094 167.930913 
L 394.989873 108.409202 
L 395.043133 118.914476 
L 395.220666 194.725779 
L 395.291679 181.211218 
L 395.433706 139.006177 
L 395.486966 146.900267 
L 395.628992 180.31136 
L 395.664498 174.623293 
L 395.842031 111.8492 
L 395.913045 131.0447 
L 396.090578 213.955147 
L 396.143838 206.380337 
L 396.285864 166.60602 
L 396.339124 173.208076 
L 396.498903 216.350144 
L 396.552163 207.254973 
L 396.74745 147.757028 
L 396.800709 153.866683 
L 396.889476 164.739916 
L 396.924983 161.598397 
L 397.120269 108.736369 
L 397.191282 126.222883 
L 397.333308 175.161904 
L 397.386568 167.442912 
L 397.546348 116.865215 
L 397.599608 126.911057 
L 397.741634 176.305874 
L 397.794894 164.414102 
L 397.99018 53.568 
L 398.061194 80.174741 
L 398.220973 175.515002 
L 398.274233 166.77002 
L 398.41626 116.381993 
L 398.451766 125.647981 
L 398.487273 147.772082 
L 398.487273 147.772082 
" clip-path="url(#p0f834e2270)" style="fill: none; stroke: #1f77b4; stroke-width: 1.5; stroke-linecap: square"/>
   </g>
   <g id="patch_3">
    <path d="M 57.6 307.584 
L 57.6 41.472 
" style="fill: none; stroke: #000000; stroke-width: 0.8; stroke-linejoin: miter; stroke-linecap: square"/>
   </g>
   <g id="patch_4">
    <path d="M 414.72 307.584 
L 414.72 41.472 
" style="fill: none; stroke: #000000; stroke-width: 0.8; stroke-linejoin: miter; stroke-linecap: square"/>
   </g>
   <g id="patch_5">
    <path d="M 57.6 307.584 
L 414.72 307.584 
" style="fill: none; stroke: #000000; stroke-width: 0.8; stroke-linejoin: miter; stroke-linecap: square"/>
   </g>
   <g id="patch_6">
    <path d="M 57.6 41.472 
L 414.72 41.472 
" style="fill: none; stroke: #000000; stroke-width: 0.8; stroke-linejoin: miter; stroke-linecap: square"/>
   </g>
  </g>
 </g>
 <defs>
  <clipPath id="p0f834e2270">
   <rect x="57.6" y="41.472" width="357.12" height="266.112"/>
  </clipPath>
 </defs>
</svg>
