<?xml version="1.0" encoding="utf-8" standalone="no"?>
<!DOCTYPE svg PUBLIC "-//W3C//DTD SVG 1.1//EN"
  "http://www.w3.org/Graphics/SVG/1.1/DTD/svg11.dtd">
<svg xmlns:xlink="http://www.w3.org/1999/xlink" width="460.8pt" height="345.6pt" viewBox="0 0 460.8 345.6" xmlns="http://www.w3.org/2000/svg" version="1.1">
 <metadata>
  <rdf:RDF xmlns:dc="http://purl.org/dc/elements/1.1/" xmlns:cc="http://creativecommons.org/ns#" xmlns:rdf="http://www.w3.org/1999/02/22-rdf-syntax-ns#">
   <cc:Work>
    <dc:type rdf:resource="http://purl.org/dc/dcmitype/StillImage"/>
    <dc:format>image/svg+xml</dc:format>
    <dc:creator>
     <cc:Agent>
      <dc:title>Matplotlib v3.8.4, https://matplotlib.org/</dc:title>
     </cc:Agent>
    </dc:creator>
   </cc:Work>
  </rdf:RDF>
 </metadata>
 <defs>
  <style type="text/css">*{stroke-linejoin: round; stroke-linecap: butt}</style>
 </defs>
 <g id="figure_1">
  <g id="patch_1">
   <path d="M 0 345.6 
L 460.8 345.6 
L 460.8 0 
L 0 0 
z
" style="fill: #ffffff"/>
  </g>
  <g id="axes_1">
   <g id="patch_2">
    <path d="M 57.6 119.740235 
L 414.72 119.740235 
L 414.72 41.472 
L 57.6 41.472 
z
" style="fill: #ffffff"/>
   </g>
   <g id="matplotlib.axis_1">
    <g id="xtick_1">
     <g id="line2d_1">
      <defs>
       <path id="mbcb02aef95" d="M 0 0 
L 0 3.5 
" style="stroke: #000000; stroke-width: 0.8"/>
      </defs>
      <g>
       <use xlink:href="#mbcb02aef95" x="73.832727" y="119.740235" style="stroke: #000000; stroke-width: 0.8"/>
      </g>
     </g>
     <g id="text_1">
      <!-- 0.00 -->
      <g transform="translate(62.699915 134.338673) scale(0.1 -0.1)">
       <defs>
        <path id="DejaVuSans-30" d="M 2034 4250 
Q 1547 4250 1301 3770 
Q 1056 3291 1056 2328 
Q 1056 1369 1301 889 
Q 1547 409 2034 409 
Q 2525 409 2770 889 
Q 3016 1369 3016 2328 
Q 3016 3291 2770 3770 
Q 2525 4250 2034 4250 
z
M 2034 4750 
Q 2819 4750 3233 4129 
Q 3647 3509 3647 2328 
Q 3647 1150 3233 529 
Q 2819 -91 2034 -91 
Q 1250 -91 836 529 
Q 422 1150 422 2328 
Q 422 3509 836 4129 
Q 1250 4750 2034 4750 
z
" transform="scale(0.015625)"/>
        <path id="DejaVuSans-2e" d="M 684 794 
L 1344 794 
L 1344 0 
L 684 0 
L 684 794 
z
" transform="scale(0.015625)"/>
       </defs>
       <use xlink:href="#DejaVuSans-30"/>
       <use xlink:href="#DejaVuSans-2e" x="63.623047"/>
       <use xlink:href="#DejaVuSans-30" x="95.410156"/>
       <use xlink:href="#DejaVuSans-30" x="159.033203"/>
      </g>
     </g>
    </g>
    <g id="xtick_2">
     <g id="line2d_2">
      <g>
       <use xlink:href="#mbcb02aef95" x="138.763636" y="119.740235" style="stroke: #000000; stroke-width: 0.8"/>
      </g>
     </g>
     <g id="text_2">
      <!-- 0.02 -->
      <g transform="translate(127.630824 134.338673) scale(0.1 -0.1)">
       <defs>
        <path id="DejaVuSans-32" d="M 1228 531 
L 3431 531 
L 3431 0 
L 469 0 
L 469 531 
Q 828 903 1448 1529 
Q 2069 2156 2228 2338 
Q 2531 2678 2651 2914 
Q 2772 3150 2772 3378 
Q 2772 3750 2511 3984 
Q 2250 4219 1831 4219 
Q 1534 4219 1204 4116 
Q 875 4013 500 3803 
L 500 4441 
Q 881 4594 1212 4672 
Q 1544 4750 1819 4750 
Q 2544 4750 2975 4387 
Q 3406 4025 3406 3419 
Q 3406 3131 3298 2873 
Q 3191 2616 2906 2266 
Q 2828 2175 2409 1742 
Q 1991 1309 1228 531 
z
" transform="scale(0.015625)"/>
       </defs>
       <use xlink:href="#DejaVuSans-30"/>
       <use xlink:href="#DejaVuSans-2e" x="63.623047"/>
       <use xlink:href="#DejaVuSans-30" x="95.410156"/>
       <use xlink:href="#DejaVuSans-32" x="159.033203"/>
      </g>
     </g>
    </g>
    <g id="xtick_3">
     <g id="line2d_3">
      <g>
       <use xlink:href="#mbcb02aef95" x="203.694545" y="119.740235" style="stroke: #000000; stroke-width: 0.8"/>
      </g>
     </g>
     <g id="text_3">
      <!-- 0.04 -->
      <g transform="translate(192.561733 134.338673) scale(0.1 -0.1)">
       <defs>
        <path id="DejaVuSans-34" d="M 2419 4116 
L 825 1625 
L 2419 1625 
L 2419 4116 
z
M 2253 4666 
L 3047 4666 
L 3047 1625 
L 3713 1625 
L 3713 1100 
L 3047 1100 
L 3047 0 
L 2419 0 
L 2419 1100 
L 313 1100 
L 313 1709 
L 2253 4666 
z
" transform="scale(0.015625)"/>
       </defs>
       <use xlink:href="#DejaVuSans-30"/>
       <use xlink:href="#DejaVuSans-2e" x="63.623047"/>
       <use xlink:href="#DejaVuSans-30" x="95.410156"/>
       <use xlink:href="#DejaVuSans-34" x="159.033203"/>
      </g>
     </g>
    </g>
    <g id="xtick_4">
     <g id="line2d_4">
      <g>
       <use xlink:href="#mbcb02aef95" x="268.625455" y="119.740235" style="stroke: #000000; stroke-width: 0.8"/>
      </g>
     </g>
     <g id="text_4">
      <!-- 0.06 -->
      <g transform="translate(257.492642 134.338673) scale(0.1 -0.1)">
       <defs>
        <path id="DejaVuSans-36" d="M 2113 2584 
Q 1688 2584 1439 2293 
Q 1191 2003 1191 1497 
Q 1191 994 1439 701 
Q 1688 409 2113 409 
Q 2538 409 2786 701 
Q 3034 994 3034 1497 
Q 3034 2003 2786 2293 
Q 2538 2584 2113 2584 
z
M 3366 4563 
L 3366 3988 
Q 3128 4100 2886 4159 
Q 2644 4219 2406 4219 
Q 1781 4219 1451 3797 
Q 1122 3375 1075 2522 
Q 1259 2794 1537 2939 
Q 1816 3084 2150 3084 
Q 2853 3084 3261 2657 
Q 3669 2231 3669 1497 
Q 3669 778 3244 343 
Q 2819 -91 2113 -91 
Q 1303 -91 875 529 
Q 447 1150 447 2328 
Q 447 3434 972 4092 
Q 1497 4750 2381 4750 
Q 2619 4750 2861 4703 
Q 3103 4656 3366 4563 
z
" transform="scale(0.015625)"/>
       </defs>
       <use xlink:href="#DejaVuSans-30"/>
       <use xlink:href="#DejaVuSans-2e" x="63.623047"/>
       <use xlink:href="#DejaVuSans-30" x="95.410156"/>
       <use xlink:href="#DejaVuSans-36" x="159.033203"/>
      </g>
     </g>
    </g>
    <g id="xtick_5">
     <g id="line2d_5">
      <g>
       <use xlink:href="#mbcb02aef95" x="333.556364" y="119.740235" style="stroke: #000000; stroke-width: 0.8"/>
      </g>
     </g>
     <g id="text_5">
      <!-- 0.08 -->
      <g transform="translate(322.423551 134.338673) scale(0.1 -0.1)">
       <defs>
        <path id="DejaVuSans-38" d="M 2034 2216 
Q 1584 2216 1326 1975 
Q 1069 1734 1069 1313 
Q 1069 891 1326 650 
Q 1584 409 2034 409 
Q 2484 409 2743 651 
Q 3003 894 3003 1313 
Q 3003 1734 2745 1975 
Q 2488 2216 2034 2216 
z
M 1403 2484 
Q 997 2584 770 2862 
Q 544 3141 544 3541 
Q 544 4100 942 4425 
Q 1341 4750 2034 4750 
Q 2731 4750 3128 4425 
Q 3525 4100 3525 3541 
Q 3525 3141 3298 2862 
Q 3072 2584 2669 2484 
Q 3125 2378 3379 2068 
Q 3634 1759 3634 1313 
Q 3634 634 3220 271 
Q 2806 -91 2034 -91 
Q 1263 -91 848 271 
Q 434 634 434 1313 
Q 434 1759 690 2068 
Q 947 2378 1403 2484 
z
M 1172 3481 
Q 1172 3119 1398 2916 
Q 1625 2713 2034 2713 
Q 2441 2713 2670 2916 
Q 2900 3119 2900 3481 
Q 2900 3844 2670 4047 
Q 2441 4250 2034 4250 
Q 1625 4250 1398 4047 
Q 1172 3844 1172 3481 
z
" transform="scale(0.015625)"/>
       </defs>
       <use xlink:href="#DejaVuSans-30"/>
       <use xlink:href="#DejaVuSans-2e" x="63.623047"/>
       <use xlink:href="#DejaVuSans-30" x="95.410156"/>
       <use xlink:href="#DejaVuSans-38" x="159.033203"/>
      </g>
     </g>
    </g>
    <g id="xtick_6">
     <g id="line2d_6">
      <g>
       <use xlink:href="#mbcb02aef95" x="398.487273" y="119.740235" style="stroke: #000000; stroke-width: 0.8"/>
      </g>
     </g>
     <g id="text_6">
      <!-- 0.10 -->
      <g transform="translate(387.35446 134.338673) scale(0.1 -0.1)">
       <defs>
        <path id="DejaVuSans-31" d="M 794 531 
L 1825 531 
L 1825 4091 
L 703 3866 
L 703 4441 
L 1819 4666 
L 2450 4666 
L 2450 531 
L 3481 531 
L 3481 0 
L 794 0 
L 794 531 
z
" transform="scale(0.015625)"/>
       </defs>
       <use xlink:href="#DejaVuSans-30"/>
       <use xlink:href="#DejaVuSans-2e" x="63.623047"/>
       <use xlink:href="#DejaVuSans-31" x="95.410156"/>
       <use xlink:href="#DejaVuSans-30" x="159.033203"/>
      </g>
     </g>
    </g>
   </g>
   <g id="matplotlib.axis_2">
    <g id="ytick_1">
     <g id="line2d_7">
      <defs>
       <path id="me5179b328b" d="M 0 0 
L -3.5 0 
" style="stroke: #000000; stroke-width: 0.8"/>
      </defs>
      <g>
       <use xlink:href="#me5179b328b" x="57.6" y="116.182588" style="stroke: #000000; stroke-width: 0.8"/>
      </g>
     </g>
     <g id="text_7">
      <!-- −1 -->
      <g transform="translate(35.857813 119.981807) scale(0.1 -0.1)">
       <defs>
        <path id="DejaVuSans-2212" d="M 678 2272 
L 4684 2272 
L 4684 1741 
L 678 1741 
L 678 2272 
z
" transform="scale(0.015625)"/>
       </defs>
       <use xlink:href="#DejaVuSans-2212"/>
       <use xlink:href="#DejaVuSans-31" x="83.789062"/>
      </g>
     </g>
    </g>
    <g id="ytick_2">
     <g id="line2d_8">
      <g>
       <use xlink:href="#me5179b328b" x="57.6" y="80.606118" style="stroke: #000000; stroke-width: 0.8"/>
      </g>
     </g>
     <g id="text_8">
      <!-- 0 -->
      <g transform="translate(44.2375 84.405336) scale(0.1 -0.1)">
       <use xlink:href="#DejaVuSans-30"/>
      </g>
     </g>
    </g>
    <g id="ytick_3">
     <g id="line2d_9">
      <g>
       <use xlink:href="#me5179b328b" x="57.6" y="45.029647" style="stroke: #000000; stroke-width: 0.8"/>
      </g>
     </g>
     <g id="text_9">
      <!-- 1 -->
      <g transform="translate(44.2375 48.828866) scale(0.1 -0.1)">
       <use xlink:href="#DejaVuSans-31"/>
      </g>
     </g>
    </g>
   </g>
   <g id="line2d_10">
    <path d="M 73.832727 80.606118 
L 77.549376 65.724255 
L 79.476852 58.923106 
L 81.032598 54.20825 
L 82.359463 50.860718 
L 83.514909 48.51734 
L 84.530755 46.932405 
L 85.42875 45.920505 
L 86.229349 45.335833 
L 86.9569 45.068614 
L 87.64387 45.048974 
L 88.328243 45.254275 
L 89.046379 45.709593 
L 89.827499 46.480064 
L 90.693678 47.662152 
L 91.664396 49.381919 
L 92.759782 51.797152 
L 94.007755 55.113532 
L 95.453768 59.619345 
L 97.192294 65.805618 
L 99.522018 74.989621 
L 105.203478 97.699863 
L 106.999793 103.790401 
L 108.481843 108.069007 
L 109.756113 111.103151 
L 110.86968 113.210848 
L 111.850137 114.616865 
L 112.718589 115.494922 
L 113.495813 115.980324 
L 114.20843 116.172399 
L 114.890855 116.128186 
L 115.581396 115.856513 
L 116.314791 115.31999 
L 117.117987 114.443921 
L 118.012087 113.123172 
L 119.01592 111.223861 
L 120.151238 108.576604 
L 121.449532 104.957463 
L 122.965021 100.040611 
L 124.821723 93.215594 
L 127.517007 82.36037 
L 131.709925 65.531434 
L 133.625389 58.794142 
L 135.174642 54.117181 
L 136.496961 50.796501 
L 137.648836 48.473169 
L 138.66176 46.903304 
L 139.557482 45.90255 
L 140.356133 45.326338 
L 141.082386 45.065509 
L 141.769031 45.051223 
L 142.453729 45.261938 
L 143.173164 45.723889 
L 143.955907 46.502703 
L 144.824358 47.695926 
L 145.797674 49.429931 
L 146.896306 51.863794 
L 148.148175 55.203978 
L 149.599382 59.741369 
L 151.346999 65.977183 
L 153.700423 75.272556 
L 159.250398 97.474169 
L 161.059374 103.63488 
L 162.549216 107.959126 
L 163.828681 111.02518 
L 164.946792 113.157766 
L 165.931145 114.582646 
L 166.802844 115.474702 
L 167.582665 115.970424 
L 168.296581 116.170223 
L 168.97933 116.132792 
L 169.669222 115.868272 
L 170.400994 115.340562 
L 171.201593 114.476284 
L 172.092446 113.171146 
L 173.092707 111.291605 
L 174.223805 108.669594 
L 175.516256 105.084768 
L 177.023953 100.213846 
L 178.866694 93.462934 
L 181.511657 82.8324 
L 185.852293 65.407024 
L 187.76029 58.710005 
L 189.305322 54.057726 
L 190.62472 50.754478 
L 191.774322 48.444157 
L 192.785298 46.884238 
L 193.679397 45.890925 
L 194.47675 45.320234 
L 195.202353 45.063521 
L 195.888674 45.052768 
L 196.573695 45.267092 
L 197.29378 45.73328 
L 198.077821 46.517828 
L 198.947896 47.718642 
L 199.92316 49.462616 
L 201.024064 51.909309 
L 202.278855 55.266503 
L 203.733959 59.826737 
L 205.487744 66.096482 
L 207.857725 75.469556 
L 213.318095 97.323415 
L 215.135838 103.531973 
L 216.630549 107.885659 
L 217.913909 110.973943 
L 219.034618 113.12222 
L 220.021569 114.559699 
L 220.895215 115.460926 
L 221.676659 115.963568 
L 222.391874 116.168675 
L 223.074948 116.135692 
L 223.76419 115.875963 
L 224.494664 115.354285 
L 225.293639 114.497762 
L 226.182544 113.202659 
L 227.180209 111.33664 
L 228.308384 108.731717 
L 229.597264 105.168824 
L 231.099767 100.328408 
L 232.933418 93.625976 
L 235.546889 83.13684 
L 239.987194 65.310688 
L 241.889022 58.646108 
L 243.431133 54.011796 
L 244.748258 50.722052 
L 245.896237 48.421546 
L 246.905589 46.869522 
L 247.79839 45.882002 
L 248.594769 45.315548 
L 249.319723 45.062045 
L 250.005719 45.053968 
L 250.691065 45.271053 
L 251.411799 45.740598 
L 252.196814 46.529558 
L 253.067863 47.735804 
L 254.044425 49.48696 
L 255.146953 51.943038 
L 256.403692 55.312204 
L 257.861717 59.889384 
L 259.620048 66.184093 
L 262.00269 75.61625 
L 267.39748 97.214988 
L 269.221391 103.457532 
L 270.719673 107.832639 
L 272.005631 110.936502 
L 273.128612 113.096864 
L 274.117186 114.543039 
L 274.992456 115.451083 
L 275.774874 115.958562 
L 276.490738 116.167468 
L 277.173812 116.137836 
L 277.86273 115.881647 
L 278.592554 115.364182 
L 279.390556 114.513023 
L 280.278162 113.224919 
L 281.274203 111.368017 
L 282.400431 108.774781 
L 283.686713 105.227459 
L 285.185645 100.408148 
L 287.013127 93.738858 
L 289.605496 83.344824 
L 294.116251 65.236257 
L 296.013534 58.596021 
L 297.553048 53.976636 
L 298.868549 50.69697 
L 300.01523 48.404136 
L 301.023608 46.857832 
L 301.915435 45.874867 
L 302.711164 45.311743 
L 303.435469 45.060883 
L 304.12114 45.054944 
L 304.806487 45.274104 
L 305.527545 45.746078 
L 306.31321 46.53824 
L 307.185233 47.748903 
L 308.162769 49.505504 
L 309.266595 51.968879 
L 310.524958 55.347598 
L 311.984931 59.936841 
L 313.746832 66.250943 
L 316.139214 75.728487 
L 321.484657 97.134874 
L 323.313113 103.402491 
L 324.814317 107.794184 
L 326.102223 110.909481 
L 327.226827 113.078535 
L 328.2167 114.531145 
L 329.092944 115.443895 
L 329.876336 115.955017 
L 330.592524 116.166576 
L 331.275923 116.13927 
L 331.964516 115.885551 
L 332.693691 115.371175 
L 333.490718 114.524171 
L 334.377026 113.241761 
L 335.371769 111.391907 
L 336.496373 108.807927 
L 337.780708 105.272439 
L 339.276718 100.469945 
L 341.09933 93.826688 
L 343.675466 83.50593 
L 348.242062 65.173993 
L 350.135774 58.553372 
L 351.673339 53.945975 
L 352.987217 50.675564 
L 354.1326 48.389612 
L 355.140004 46.848295 
L 356.030857 45.869209 
L 356.825937 45.308801 
L 357.549917 45.059962 
L 358.235588 45.055785 
L 358.921259 45.276859 
L 359.642967 45.75131 
L 360.429281 46.546559 
L 361.302278 47.761517 
L 362.280788 49.52343 
L 363.385913 51.993967 
L 364.645574 55.38115 
L 366.107495 59.982169 
L 367.872643 66.31417 
L 370.274115 75.834127 
L 375.573457 97.0606 
L 377.406458 103.352513 
L 378.909935 107.758252 
L 380.199464 110.883806 
L 381.325367 113.060703 
L 382.316538 114.519615 
L 383.193756 115.436946 
L 383.977797 115.951444 
L 384.694635 116.165699 
L 385.378034 116.140681 
L 386.066302 115.88943 
L 386.794828 115.378138 
L 387.591206 114.534879 
L 388.47654 113.257492 
L 389.470308 111.41373 
L 390.59329 108.838559 
L 391.875676 105.314449 
L 393.369413 100.5261 
L 395.187805 93.905718 
L 397.749657 83.649606 
L 398.487273 80.606118 
L 398.487273 80.606118 
" clip-path="url(#pe1596cb1e6)" style="fill: none; stroke: #1f77b4; stroke-width: 1.5; stroke-linecap: square"/>
   </g>
   <g id="patch_3">
    <path d="M 57.6 119.740235 
L 57.6 41.472 
" style="fill: none; stroke: #000000; stroke-width: 0.8; stroke-linejoin: miter; stroke-linecap: square"/>
   </g>
   <g id="patch_4">
    <path d="M 414.72 119.740235 
L 414.72 41.472 
" style="fill: none; stroke: #000000; stroke-width: 0.8; stroke-linejoin: miter; stroke-linecap: square"/>
   </g>
   <g id="patch_5">
    <path d="M 57.6 119.740235 
L 414.72 119.740235 
" style="fill: none; stroke: #000000; stroke-width: 0.8; stroke-linejoin: miter; stroke-linecap: square"/>
   </g>
   <g id="patch_6">
    <path d="M 57.6 41.472 
L 414.72 41.472 
" style="fill: none; stroke: #000000; stroke-width: 0.8; stroke-linejoin: miter; stroke-linecap: square"/>
   </g>
  </g>
  <g id="axes_2">
   <g id="patch_7">
    <path d="M 57.6 213.662118 
L 414.72 213.662118 
L 414.72 135.393882 
L 57.6 135.393882 
z
" style="fill: #ffffff"/>
   </g>
   <g id="matplotlib.axis_3">
    <g id="xtick_7">
     <g id="line2d_11">
      <g>
       <use xlink:href="#mbcb02aef95" x="73.832727" y="213.662118" style="stroke: #000000; stroke-width: 0.8"/>
      </g>
     </g>
     <g id="text_10">
      <!-- 0.00 -->
      <g transform="translate(62.699915 228.260555) scale(0.1 -0.1)">
       <use xlink:href="#DejaVuSans-30"/>
       <use xlink:href="#DejaVuSans-2e" x="63.623047"/>
       <use xlink:href="#DejaVuSans-30" x="95.410156"/>
       <use xlink:href="#DejaVuSans-30" x="159.033203"/>
      </g>
     </g>
    </g>
    <g id="xtick_8">
     <g id="line2d_12">
      <g>
       <use xlink:href="#mbcb02aef95" x="138.763636" y="213.662118" style="stroke: #000000; stroke-width: 0.8"/>
      </g>
     </g>
     <g id="text_11">
      <!-- 0.02 -->
      <g transform="translate(127.630824 228.260555) scale(0.1 -0.1)">
       <use xlink:href="#DejaVuSans-30"/>
       <use xlink:href="#DejaVuSans-2e" x="63.623047"/>
       <use xlink:href="#DejaVuSans-30" x="95.410156"/>
       <use xlink:href="#DejaVuSans-32" x="159.033203"/>
      </g>
     </g>
    </g>
    <g id="xtick_9">
     <g id="line2d_13">
      <g>
       <use xlink:href="#mbcb02aef95" x="203.694545" y="213.662118" style="stroke: #000000; stroke-width: 0.8"/>
      </g>
     </g>
     <g id="text_12">
      <!-- 0.04 -->
      <g transform="translate(192.561733 228.260555) scale(0.1 -0.1)">
       <use xlink:href="#DejaVuSans-30"/>
       <use xlink:href="#DejaVuSans-2e" x="63.623047"/>
       <use xlink:href="#DejaVuSans-30" x="95.410156"/>
       <use xlink:href="#DejaVuSans-34" x="159.033203"/>
      </g>
     </g>
    </g>
    <g id="xtick_10">
     <g id="line2d_14">
      <g>
       <use xlink:href="#mbcb02aef95" x="268.625455" y="213.662118" style="stroke: #000000; stroke-width: 0.8"/>
      </g>
     </g>
     <g id="text_13">
      <!-- 0.06 -->
      <g transform="translate(257.492642 228.260555) scale(0.1 -0.1)">
       <use xlink:href="#DejaVuSans-30"/>
       <use xlink:href="#DejaVuSans-2e" x="63.623047"/>
       <use xlink:href="#DejaVuSans-30" x="95.410156"/>
       <use xlink:href="#DejaVuSans-36" x="159.033203"/>
      </g>
     </g>
    </g>
    <g id="xtick_11">
     <g id="line2d_15">
      <g>
       <use xlink:href="#mbcb02aef95" x="333.556364" y="213.662118" style="stroke: #000000; stroke-width: 0.8"/>
      </g>
     </g>
     <g id="text_14">
      <!-- 0.08 -->
      <g transform="translate(322.423551 228.260555) scale(0.1 -0.1)">
       <use xlink:href="#DejaVuSans-30"/>
       <use xlink:href="#DejaVuSans-2e" x="63.623047"/>
       <use xlink:href="#DejaVuSans-30" x="95.410156"/>
       <use xlink:href="#DejaVuSans-38" x="159.033203"/>
      </g>
     </g>
    </g>
    <g id="xtick_12">
     <g id="line2d_16">
      <g>
       <use xlink:href="#mbcb02aef95" x="398.487273" y="213.662118" style="stroke: #000000; stroke-width: 0.8"/>
      </g>
     </g>
     <g id="text_15">
      <!-- 0.10 -->
      <g transform="translate(387.35446 228.260555) scale(0.1 -0.1)">
       <use xlink:href="#DejaVuSans-30"/>
       <use xlink:href="#DejaVuSans-2e" x="63.623047"/>
       <use xlink:href="#DejaVuSans-31" x="95.410156"/>
       <use xlink:href="#DejaVuSans-30" x="159.033203"/>
      </g>
     </g>
    </g>
   </g>
   <g id="matplotlib.axis_4">
    <g id="ytick_4">
     <g id="line2d_17">
      <g>
       <use xlink:href="#me5179b328b" x="57.6" y="210.104471" style="stroke: #000000; stroke-width: 0.8"/>
      </g>
     </g>
     <g id="text_16">
      <!-- −1 -->
      <g transform="translate(35.857813 213.903689) scale(0.1 -0.1)">
       <use xlink:href="#DejaVuSans-2212"/>
       <use xlink:href="#DejaVuSans-31" x="83.789062"/>
      </g>
     </g>
    </g>
    <g id="ytick_5">
     <g id="line2d_18">
      <g>
       <use xlink:href="#me5179b328b" x="57.6" y="174.528" style="stroke: #000000; stroke-width: 0.8"/>
      </g>
     </g>
     <g id="text_17">
      <!-- 0 -->
      <g transform="translate(44.2375 178.327219) scale(0.1 -0.1)">
       <use xlink:href="#DejaVuSans-30"/>
      </g>
     </g>
    </g>
    <g id="ytick_6">
     <g id="line2d_19">
      <g>
       <use xlink:href="#me5179b328b" x="57.6" y="138.951529" style="stroke: #000000; stroke-width: 0.8"/>
      </g>
     </g>
     <g id="text_18">
      <!-- 1 -->
      <g transform="translate(44.2375 142.750748) scale(0.1 -0.1)">
       <use xlink:href="#DejaVuSans-31"/>
      </g>
     </g>
    </g>
   </g>
   <g id="line2d_20">
    <path d="M 73.832727 210.104471 
L 82.444198 210.104471 
L 82.555554 138.951529 
L 91.055993 138.951529 
L 91.167349 210.104471 
L 99.667788 210.104471 
L 99.779144 138.951529 
L 108.279583 138.951529 
L 108.39094 210.104471 
L 116.891053 210.104471 
L 117.00241 138.951529 
L 125.502848 138.951529 
L 125.614205 210.104471 
L 134.114644 210.104471 
L 134.226 138.951529 
L 142.726439 138.951529 
L 142.837795 210.104471 
L 151.338234 210.104471 
L 151.44959 138.951529 
L 159.949704 138.951529 
L 160.061061 210.104471 
L 168.561499 210.104471 
L 168.672856 138.951529 
L 177.173294 138.951529 
L 177.284651 210.104471 
L 185.785089 210.104471 
L 185.896446 138.951529 
L 194.396884 138.951529 
L 194.508241 210.104471 
L 203.008355 210.104471 
L 203.119712 138.951529 
L 211.62015 138.951529 
L 211.731507 210.104471 
L 220.231945 210.104471 
L 220.343302 138.951529 
L 228.84374 138.951529 
L 228.955097 210.104471 
L 237.455535 210.104471 
L 237.566892 138.951529 
L 246.067006 138.951529 
L 246.178362 210.104471 
L 254.678801 210.104471 
L 254.790157 138.951529 
L 263.290596 138.951529 
L 263.401952 210.104471 
L 271.902391 210.104471 
L 272.013748 138.951529 
L 280.514186 138.951529 
L 280.625543 210.104471 
L 289.125656 210.104471 
L 289.237013 138.951529 
L 297.737452 138.951529 
L 297.848808 210.104471 
L 306.349247 210.104471 
L 306.460603 138.951529 
L 314.961042 138.951529 
L 315.072398 210.104471 
L 323.572837 210.104471 
L 323.684193 138.951529 
L 332.184307 138.951529 
L 332.295664 210.104471 
L 340.796102 210.104471 
L 340.907459 138.951529 
L 349.407897 138.951529 
L 349.519254 210.104471 
L 358.019692 210.104471 
L 358.131049 138.951529 
L 366.631488 138.951529 
L 366.742844 210.104471 
L 375.242958 210.104471 
L 375.354315 138.951529 
L 383.854753 138.951529 
L 383.96611 210.104471 
L 392.466548 210.104471 
L 392.577905 138.951529 
L 398.487273 138.951529 
L 398.487273 138.951529 
" clip-path="url(#p1e985ffe1f)" style="fill: none; stroke: #1f77b4; stroke-width: 1.5; stroke-linecap: square"/>
   </g>
   <g id="patch_8">
    <path d="M 57.6 213.662118 
L 57.6 135.393882 
" style="fill: none; stroke: #000000; stroke-width: 0.8; stroke-linejoin: miter; stroke-linecap: square"/>
   </g>
   <g id="patch_9">
    <path d="M 414.72 213.662118 
L 414.72 135.393882 
" style="fill: none; stroke: #000000; stroke-width: 0.8; stroke-linejoin: miter; stroke-linecap: square"/>
   </g>
   <g id="patch_10">
    <path d="M 57.6 213.662118 
L 414.72 213.662118 
" style="fill: none; stroke: #000000; stroke-width: 0.8; stroke-linejoin: miter; stroke-linecap: square"/>
   </g>
   <g id="patch_11">
    <path d="M 57.6 135.393882 
L 414.72 135.393882 
" style="fill: none; stroke: #000000; stroke-width: 0.8; stroke-linejoin: miter; stroke-linecap: square"/>
   </g>
  </g>
  <g id="axes_3">
   <g id="patch_12">
    <path d="M 57.6 307.584 
L 414.72 307.584 
L 414.72 229.315765 
L 57.6 229.315765 
z
" style="fill: #ffffff"/>
   </g>
   <g id="matplotlib.axis_5">
    <g id="xtick_13">
     <g id="line2d_21">
      <g>
       <use xlink:href="#mbcb02aef95" x="73.832727" y="307.584" style="stroke: #000000; stroke-width: 0.8"/>
      </g>
     </g>
     <g id="text_19">
      <!-- 0.00 -->
      <g transform="translate(62.699915 322.182437) scale(0.1 -0.1)">
       <use xlink:href="#DejaVuSans-30"/>
       <use xlink:href="#DejaVuSans-2e" x="63.623047"/>
       <use xlink:href="#DejaVuSans-30" x="95.410156"/>
       <use xlink:href="#DejaVuSans-30" x="159.033203"/>
      </g>
     </g>
    </g>
    <g id="xtick_14">
     <g id="line2d_22">
      <g>
       <use xlink:href="#mbcb02aef95" x="138.763636" y="307.584" style="stroke: #000000; stroke-width: 0.8"/>
      </g>
     </g>
     <g id="text_20">
      <!-- 0.02 -->
      <g transform="translate(127.630824 322.182437) scale(0.1 -0.1)">
       <use xlink:href="#DejaVuSans-30"/>
       <use xlink:href="#DejaVuSans-2e" x="63.623047"/>
       <use xlink:href="#DejaVuSans-30" x="95.410156"/>
       <use xlink:href="#DejaVuSans-32" x="159.033203"/>
      </g>
     </g>
    </g>
    <g id="xtick_15">
     <g id="line2d_23">
      <g>
       <use xlink:href="#mbcb02aef95" x="203.694545" y="307.584" style="stroke: #000000; stroke-width: 0.8"/>
      </g>
     </g>
     <g id="text_21">
      <!-- 0.04 -->
      <g transform="translate(192.561733 322.182437) scale(0.1 -0.1)">
       <use xlink:href="#DejaVuSans-30"/>
       <use xlink:href="#DejaVuSans-2e" x="63.623047"/>
       <use xlink:href="#DejaVuSans-30" x="95.410156"/>
       <use xlink:href="#DejaVuSans-34" x="159.033203"/>
      </g>
     </g>
    </g>
    <g id="xtick_16">
     <g id="line2d_24">
      <g>
       <use xlink:href="#mbcb02aef95" x="268.625455" y="307.584" style="stroke: #000000; stroke-width: 0.8"/>
      </g>
     </g>
     <g id="text_22">
      <!-- 0.06 -->
      <g transform="translate(257.492642 322.182437) scale(0.1 -0.1)">
       <use xlink:href="#DejaVuSans-30"/>
       <use xlink:href="#DejaVuSans-2e" x="63.623047"/>
       <use xlink:href="#DejaVuSans-30" x="95.410156"/>
       <use xlink:href="#DejaVuSans-36" x="159.033203"/>
      </g>
     </g>
    </g>
    <g id="xtick_17">
     <g id="line2d_25">
      <g>
       <use xlink:href="#mbcb02aef95" x="333.556364" y="307.584" style="stroke: #000000; stroke-width: 0.8"/>
      </g>
     </g>
     <g id="text_23">
      <!-- 0.08 -->
      <g transform="translate(322.423551 322.182437) scale(0.1 -0.1)">
       <use xlink:href="#DejaVuSans-30"/>
       <use xlink:href="#DejaVuSans-2e" x="63.623047"/>
       <use xlink:href="#DejaVuSans-30" x="95.410156"/>
       <use xlink:href="#DejaVuSans-38" x="159.033203"/>
      </g>
     </g>
    </g>
    <g id="xtick_18">
     <g id="line2d_26">
      <g>
       <use xlink:href="#mbcb02aef95" x="398.487273" y="307.584" style="stroke: #000000; stroke-width: 0.8"/>
      </g>
     </g>
     <g id="text_24">
      <!-- 0.10 -->
      <g transform="translate(387.35446 322.182437) scale(0.1 -0.1)">
       <use xlink:href="#DejaVuSans-30"/>
       <use xlink:href="#DejaVuSans-2e" x="63.623047"/>
       <use xlink:href="#DejaVuSans-31" x="95.410156"/>
       <use xlink:href="#DejaVuSans-30" x="159.033203"/>
      </g>
     </g>
    </g>
   </g>
   <g id="matplotlib.axis_6">
    <g id="ytick_7">
     <g id="line2d_27">
      <g>
       <use xlink:href="#me5179b328b" x="57.6" y="304.026353" style="stroke: #000000; stroke-width: 0.8"/>
      </g>
     </g>
     <g id="text_25">
      <!-- −2 -->
      <g transform="translate(35.857813 307.825572) scale(0.1 -0.1)">
       <use xlink:href="#DejaVuSans-2212"/>
       <use xlink:href="#DejaVuSans-32" x="83.789062"/>
      </g>
     </g>
    </g>
    <g id="ytick_8">
     <g id="line2d_28">
      <g>
       <use xlink:href="#me5179b328b" x="57.6" y="268.449882" style="stroke: #000000; stroke-width: 0.8"/>
      </g>
     </g>
     <g id="text_26">
      <!-- 0 -->
      <g transform="translate(44.2375 272.249101) scale(0.1 -0.1)">
       <use xlink:href="#DejaVuSans-30"/>
      </g>
     </g>
    </g>
    <g id="ytick_9">
     <g id="line2d_29">
      <g>
       <use xlink:href="#me5179b328b" x="57.6" y="232.873412" style="stroke: #000000; stroke-width: 0.8"/>
      </g>
     </g>
     <g id="text_27">
      <!-- 2 -->
      <g transform="translate(44.2375 236.672631) scale(0.1 -0.1)">
       <use xlink:href="#DejaVuSans-32"/>
      </g>
     </g>
    </g>
   </g>
   <g id="line2d_30">
    <path d="M 73.832727 286.238118 
L 77.646448 278.615539 
L 79.635284 275.139013 
L 81.254338 272.736538 
L 82.444198 271.270123 
L 82.555554 235.570623 
L 83.810021 234.363511 
L 84.945663 233.56791 
L 85.993974 233.096733 
L 86.984821 232.89029 
L 87.94937 232.915054 
L 88.919439 233.164264 
L 89.926194 233.657356 
L 90.998529 234.437652 
L 91.055993 234.486685 
L 91.167349 270.160221 
L 92.350716 271.354299 
L 93.667192 273.011235 
L 95.166448 275.27144 
L 96.943284 278.373298 
L 99.274955 282.927166 
L 99.667788 283.727582 
L 99.668113 248.151775 
L 99.779144 248.379028 
L 105.076863 258.978237 
L 106.983236 262.227826 
L 108.279583 264.123745 
L 108.39094 299.849436 
L 109.780787 301.512816 
L 111.017722 302.660418 
L 112.140379 303.409699 
L 113.179599 303.843764 
L 114.165251 304.0189 
L 115.128827 303.965201 
L 116.102142 303.685891 
L 116.891053 303.295876 
L 117.00241 267.652742 
L 118.076368 266.865853 
L 119.245126 265.724023 
L 120.542122 264.133712 
L 122.013783 261.96211 
L 123.745816 258.989942 
L 125.502848 255.63246 
L 125.503173 291.208287 
L 125.614205 290.987669 
L 133.499423 275.538843 
L 134.114644 274.551779 
L 134.226 238.802877 
L 135.774279 236.623111 
L 137.125493 235.088519 
L 138.333858 234.039307 
L 139.435088 233.367274 
L 140.459698 232.995464 
L 141.437559 232.873531 
L 142.400485 232.977348 
L 142.726439 233.062673 
L 142.837795 268.674078 
L 143.835135 269.117049 
L 144.892211 269.836768 
L 146.037918 270.895119 
L 147.303748 272.378824 
L 148.732229 274.410245 
L 150.396735 277.182536 
L 151.338234 278.90715 
L 151.338558 243.33129 
L 151.44959 243.54086 
L 153.988391 248.584348 
L 159.117614 258.853193 
L 159.949704 260.338275 
L 160.061061 296.106936 
L 161.800562 298.875403 
L 163.278066 300.827178 
L 164.578958 302.19261 
L 165.749663 303.111464 
L 166.823297 303.680746 
L 167.829727 303.968637 
L 168.561499 304.026181 
L 168.672856 268.447212 
L 169.636432 268.30158 
L 170.622733 267.924064 
L 171.661304 267.282196 
L 172.781039 266.320037 
L 174.01213 264.957852 
L 175.392887 263.084628 
L 176.984994 260.532557 
L 177.173294 260.206654 
L 177.173619 295.782558 
L 177.284651 295.588234 
L 179.309848 291.804886 
L 182.592109 285.120961 
L 185.785089 278.76431 
L 185.896446 242.979741 
L 187.877815 239.523283 
L 189.493297 237.132164 
L 190.890287 235.444557 
L 192.132741 234.2782 
L 193.259294 233.514409 
L 194.301436 233.068547 
L 194.396884 233.040505 
L 194.397209 268.616884 
L 194.508241 268.586997 
L 195.48805 268.450857 
L 196.450976 268.541162 
L 197.428836 268.85905 
L 198.451824 269.431074 
L 199.548833 270.307421 
L 200.749082 271.56136 
L 202.087958 273.29467 
L 203.008355 274.670156 
L 203.00868 239.094194 
L 203.119712 239.269382 
L 204.839733 242.206373 
L 207.036673 246.42939 
L 211.62015 255.782453 
L 211.731507 291.578768 
L 214.042075 295.885748 
L 215.803977 298.720837 
L 217.295442 300.717963 
L 218.606398 302.117313 
L 219.784571 303.06233 
L 220.231945 303.33958 
L 220.23227 267.763294 
L 220.343302 267.824975 
L 221.383496 268.263053 
L 222.369797 268.441592 
L 223.333373 268.391041 
L 224.306364 268.115012 
L 225.319287 267.591284 
L 226.401037 266.773881 
L 227.580508 265.593848 
L 228.84374 264.020541 
L 228.844065 299.596568 
L 228.955097 299.444017 
L 230.456626 297.176393 
L 232.237358 294.063365 
L 234.578768 289.48596 
L 237.455535 283.572165 
L 237.566892 247.768506 
L 240.369962 242.307882 
L 242.272115 239.070141 
L 243.845068 236.812132 
L 245.213488 235.220249 
L 246.067006 234.422221 
L 246.06733 269.998418 
L 246.178362 269.906179 
L 247.310434 269.123112 
L 248.356147 268.66196 
L 249.345695 268.463873 
L 250.30992 268.496357 
L 251.280963 268.753614 
L 252.289341 269.25573 
L 253.364273 270.04687 
L 254.534654 271.194232 
L 254.678801 271.355217 
L 254.679125 235.779114 
L 254.790157 235.905968 
L 256.120593 237.61038 
L 257.639653 239.933866 
L 259.449604 243.130228 
L 261.867958 247.891481 
L 263.290596 250.818733 
L 263.401952 286.625192 
L 267.037113 293.877204 
L 269.023676 297.347831 
L 270.641756 299.747226 
L 271.902391 301.290764 
L 271.902716 265.714651 
L 272.013748 265.835595 
L 273.260422 267.016024 
L 274.390221 267.790788 
L 275.434311 268.245249 
L 276.422885 268.437685 
L 277.38711 268.399967 
L 278.358478 268.137358 
L 279.368154 267.629051 
L 280.445035 266.830395 
L 280.514186 266.770327 
L 280.514511 302.346513 
L 280.625543 302.247886 
L 281.816701 301.02602 
L 283.143566 299.33361 
L 284.657756 297.025848 
L 286.459266 293.853425 
L 288.854894 289.146146 
L 289.125656 288.593042 
L 289.237013 252.788389 
L 294.406168 242.441096 
L 296.32358 239.160689 
L 297.737452 237.097395 
L 297.737776 272.673432 
L 297.848808 272.526197 
L 299.229565 270.892999 
L 300.459683 269.768478 
L 301.577145 269.03726 
L 302.612794 268.617618 
L 303.596498 268.454673 
L 304.559749 268.519726 
L 305.534363 268.810915 
L 306.349247 269.225774 
L 306.349571 233.6495 
L 306.460603 233.717916 
L 307.540405 234.528236 
L 308.717604 235.699724 
L 310.025314 237.327247 
L 311.512233 239.548268 
L 313.269265 242.592971 
L 314.961042 245.842501 
L 315.072398 281.640783 
L 322.770615 296.753963 
L 323.572837 298.042932 
L 323.573161 262.466963 
L 323.684193 262.637536 
L 325.221759 264.783068 
L 326.565505 266.29251 
L 327.768027 267.322184 
L 328.865036 267.979014 
L 329.886725 268.338507 
L 330.863287 268.449864 
L 331.826213 268.335926 
L 332.184307 268.237081 
L 332.184632 303.813448 
L 332.295664 303.776611 
L 333.296575 303.313836 
L 334.35982 302.570056 
L 335.513968 301.481711 
L 336.790835 299.960072 
L 338.234575 297.878887 
L 339.922781 295.03602 
L 340.796102 293.425674 
L 340.907459 257.638205 
L 343.49301 252.486824 
L 348.425492 242.605973 
L 349.407897 240.853027 
L 349.408222 276.428938 
L 349.519254 276.238436 
L 351.245444 273.509496 
L 352.714507 271.584796 
L 354.009556 270.239326 
L 355.175716 269.336068 
L 356.246103 268.779079 
L 357.25026 268.50134 
L 358.019692 268.451447 
L 358.020017 232.874986 
L 358.131049 232.879515 
L 359.095274 233.042921 
L 360.084497 233.439827 
L 361.128588 234.104823 
L 362.255789 235.095248 
L 363.496945 236.493057 
L 364.891662 238.412714 
L 366.504548 241.028669 
L 366.631488 241.250138 
L 366.742844 277.022574 
L 368.792066 280.86869 
L 372.248341 287.920318 
L 375.242958 293.854182 
L 375.243283 258.278318 
L 375.354315 258.484937 
L 377.318477 261.894519 
L 378.924869 264.257626 
L 380.316015 265.925509 
L 381.553924 267.076593 
L 382.67723 267.828581 
L 383.717099 268.264938 
L 383.854753 268.303582 
L 383.96611 303.908017 
L 384.943646 304.026321 
L 385.906572 303.919005 
L 386.886705 303.58301 
L 387.914238 302.9899 
L 389.018064 302.087662 
L 390.227404 300.801329 
L 391.578942 299.025853 
L 392.466548 297.685783 
L 392.577905 261.932305 
L 394.313834 258.948731 
L 396.547135 254.635346 
L 398.487273 250.661647 
L 398.487273 250.661647 
" clip-path="url(#p4b28241f59)" style="fill: none; stroke: #1f77b4; stroke-width: 1.5; stroke-linecap: square"/>
   </g>
   <g id="patch_13">
    <path d="M 57.6 307.584 
L 57.6 229.315765 
" style="fill: none; stroke: #000000; stroke-width: 0.8; stroke-linejoin: miter; stroke-linecap: square"/>
   </g>
   <g id="patch_14">
    <path d="M 414.72 307.584 
L 414.72 229.315765 
" style="fill: none; stroke: #000000; stroke-width: 0.8; stroke-linejoin: miter; stroke-linecap: square"/>
   </g>
   <g id="patch_15">
    <path d="M 57.6 307.584 
L 414.72 307.584 
" style="fill: none; stroke: #000000; stroke-width: 0.8; stroke-linejoin: miter; stroke-linecap: square"/>
   </g>
   <g id="patch_16">
    <path d="M 57.6 229.315765 
L 414.72 229.315765 
" style="fill: none; stroke: #000000; stroke-width: 0.8; stroke-linejoin: miter; stroke-linecap: square"/>
   </g>
  </g>
 </g>
 <defs>
  <clipPath id="pe1596cb1e6">
   <rect x="57.6" y="41.472" width="357.12" height="78.268235"/>
  </clipPath>
  <clipPath id="p1e985ffe1f">
   <rect x="57.6" y="135.393882" width="357.12" height="78.268235"/>
  </clipPath>
  <clipPath id="p4b28241f59">
   <rect x="57.6" y="229.315765" width="357.12" height="78.268235"/>
  </clipPath>
 </defs>
</svg>
