<?xml version="1.0" encoding="utf-8" standalone="no"?>
<!DOCTYPE svg PUBLIC "-//W3C//DTD SVG 1.1//EN"
  "http://www.w3.org/Graphics/SVG/1.1/DTD/svg11.dtd">
<svg xmlns:xlink="http://www.w3.org/1999/xlink" width="460.8pt" height="345.6pt" viewBox="0 0 460.8 345.6" xmlns="http://www.w3.org/2000/svg" version="1.1">
 <metadata>
  <rdf:RDF xmlns:dc="http://purl.org/dc/elements/1.1/" xmlns:cc="http://creativecommons.org/ns#" xmlns:rdf="http://www.w3.org/1999/02/22-rdf-syntax-ns#">
   <cc:Work>
    <dc:type rdf:resource="http://purl.org/dc/dcmitype/StillImage"/>
    <dc:format>image/svg+xml</dc:format>
    <dc:creator>
     <cc:Agent>
      <dc:title>Matplotlib v3.8.4, https://matplotlib.org/</dc:title>
     </cc:Agent>
    </dc:creator>
   </cc:Work>
  </rdf:RDF>
 </metadata>
 <defs>
  <style type="text/css">*{stroke-linejoin: round; stroke-linecap: butt}</style>
 </defs>
 <g id="figure_1">
  <g id="patch_1">
   <path d="M 0 345.6 
L 460.8 345.6 
L 460.8 0 
L 0 0 
z
" style="fill: #ffffff"/>
  </g>
  <g id="axes_1">
   <g id="patch_2">
    <path d="M 57.6 307.584 
L 414.72 307.584 
L 414.72 41.472 
L 57.6 41.472 
z
" style="fill: #ffffff"/>
   </g>
   <g id="matplotlib.axis_1">
    <g id="xtick_1">
     <g id="line2d_1">
      <defs>
       <path id="mbcb02aef95" d="M 0 0 
L 0 3.5 
" style="stroke: #000000; stroke-width: 0.8"/>
      </defs>
      <g>
       <use xlink:href="#mbcb02aef95" x="73.832727" y="307.584" style="stroke: #000000; stroke-width: 0.8"/>
      </g>
     </g>
     <g id="text_1">
      <!-- 0 -->
      <g transform="translate(70.651477 322.182437) scale(0.1 -0.1)">
       <defs>
        <path id="DejaVuSans-30" d="M 2034 4250 
Q 1547 4250 1301 3770 
Q 1056 3291 1056 2328 
Q 1056 1369 1301 889 
Q 1547 409 2034 409 
Q 2525 409 2770 889 
Q 3016 1369 3016 2328 
Q 3016 3291 2770 3770 
Q 2525 4250 2034 4250 
z
M 2034 4750 
Q 2819 4750 3233 4129 
Q 3647 3509 3647 2328 
Q 3647 1150 3233 529 
Q 2819 -91 2034 -91 
Q 1250 -91 836 529 
Q 422 1150 422 2328 
Q 422 3509 836 4129 
Q 1250 4750 2034 4750 
z
" transform="scale(0.015625)"/>
       </defs>
       <use xlink:href="#DejaVuSans-30"/>
      </g>
     </g>
    </g>
    <g id="xtick_2">
     <g id="line2d_2">
      <g>
       <use xlink:href="#mbcb02aef95" x="118.21597" y="307.584" style="stroke: #000000; stroke-width: 0.8"/>
      </g>
     </g>
     <g id="text_2">
      <!-- 2500 -->
      <g transform="translate(105.49097 322.182437) scale(0.1 -0.1)">
       <defs>
        <path id="DejaVuSans-32" d="M 1228 531 
L 3431 531 
L 3431 0 
L 469 0 
L 469 531 
Q 828 903 1448 1529 
Q 2069 2156 2228 2338 
Q 2531 2678 2651 2914 
Q 2772 3150 2772 3378 
Q 2772 3750 2511 3984 
Q 2250 4219 1831 4219 
Q 1534 4219 1204 4116 
Q 875 4013 500 3803 
L 500 4441 
Q 881 4594 1212 4672 
Q 1544 4750 1819 4750 
Q 2544 4750 2975 4387 
Q 3406 4025 3406 3419 
Q 3406 3131 3298 2873 
Q 3191 2616 2906 2266 
Q 2828 2175 2409 1742 
Q 1991 1309 1228 531 
z
" transform="scale(0.015625)"/>
        <path id="DejaVuSans-35" d="M 691 4666 
L 3169 4666 
L 3169 4134 
L 1269 4134 
L 1269 2991 
Q 1406 3038 1543 3061 
Q 1681 3084 1819 3084 
Q 2600 3084 3056 2656 
Q 3513 2228 3513 1497 
Q 3513 744 3044 326 
Q 2575 -91 1722 -91 
Q 1428 -91 1123 -41 
Q 819 9 494 109 
L 494 744 
Q 775 591 1075 516 
Q 1375 441 1709 441 
Q 2250 441 2565 725 
Q 2881 1009 2881 1497 
Q 2881 1984 2565 2268 
Q 2250 2553 1709 2553 
Q 1456 2553 1204 2497 
Q 953 2441 691 2322 
L 691 4666 
z
" transform="scale(0.015625)"/>
       </defs>
       <use xlink:href="#DejaVuSans-32"/>
       <use xlink:href="#DejaVuSans-35" x="63.623047"/>
       <use xlink:href="#DejaVuSans-30" x="127.246094"/>
       <use xlink:href="#DejaVuSans-30" x="190.869141"/>
      </g>
     </g>
    </g>
    <g id="xtick_3">
     <g id="line2d_3">
      <g>
       <use xlink:href="#mbcb02aef95" x="162.599213" y="307.584" style="stroke: #000000; stroke-width: 0.8"/>
      </g>
     </g>
     <g id="text_3">
      <!-- 5000 -->
      <g transform="translate(149.874213 322.182437) scale(0.1 -0.1)">
       <use xlink:href="#DejaVuSans-35"/>
       <use xlink:href="#DejaVuSans-30" x="63.623047"/>
       <use xlink:href="#DejaVuSans-30" x="127.246094"/>
       <use xlink:href="#DejaVuSans-30" x="190.869141"/>
      </g>
     </g>
    </g>
    <g id="xtick_4">
     <g id="line2d_4">
      <g>
       <use xlink:href="#mbcb02aef95" x="206.982456" y="307.584" style="stroke: #000000; stroke-width: 0.8"/>
      </g>
     </g>
     <g id="text_4">
      <!-- 7500 -->
      <g transform="translate(194.257456 322.182437) scale(0.1 -0.1)">
       <defs>
        <path id="DejaVuSans-37" d="M 525 4666 
L 3525 4666 
L 3525 4397 
L 1831 0 
L 1172 0 
L 2766 4134 
L 525 4134 
L 525 4666 
z
" transform="scale(0.015625)"/>
       </defs>
       <use xlink:href="#DejaVuSans-37"/>
       <use xlink:href="#DejaVuSans-35" x="63.623047"/>
       <use xlink:href="#DejaVuSans-30" x="127.246094"/>
       <use xlink:href="#DejaVuSans-30" x="190.869141"/>
      </g>
     </g>
    </g>
    <g id="xtick_5">
     <g id="line2d_5">
      <g>
       <use xlink:href="#mbcb02aef95" x="251.365699" y="307.584" style="stroke: #000000; stroke-width: 0.8"/>
      </g>
     </g>
     <g id="text_5">
      <!-- 10000 -->
      <g transform="translate(235.459449 322.182437) scale(0.1 -0.1)">
       <defs>
        <path id="DejaVuSans-31" d="M 794 531 
L 1825 531 
L 1825 4091 
L 703 3866 
L 703 4441 
L 1819 4666 
L 2450 4666 
L 2450 531 
L 3481 531 
L 3481 0 
L 794 0 
L 794 531 
z
" transform="scale(0.015625)"/>
       </defs>
       <use xlink:href="#DejaVuSans-31"/>
       <use xlink:href="#DejaVuSans-30" x="63.623047"/>
       <use xlink:href="#DejaVuSans-30" x="127.246094"/>
       <use xlink:href="#DejaVuSans-30" x="190.869141"/>
       <use xlink:href="#DejaVuSans-30" x="254.492188"/>
      </g>
     </g>
    </g>
    <g id="xtick_6">
     <g id="line2d_6">
      <g>
       <use xlink:href="#mbcb02aef95" x="295.748942" y="307.584" style="stroke: #000000; stroke-width: 0.8"/>
      </g>
     </g>
     <g id="text_6">
      <!-- 12500 -->
      <g transform="translate(279.842692 322.182437) scale(0.1 -0.1)">
       <use xlink:href="#DejaVuSans-31"/>
       <use xlink:href="#DejaVuSans-32" x="63.623047"/>
       <use xlink:href="#DejaVuSans-35" x="127.246094"/>
       <use xlink:href="#DejaVuSans-30" x="190.869141"/>
       <use xlink:href="#DejaVuSans-30" x="254.492188"/>
      </g>
     </g>
    </g>
    <g id="xtick_7">
     <g id="line2d_7">
      <g>
       <use xlink:href="#mbcb02aef95" x="340.132185" y="307.584" style="stroke: #000000; stroke-width: 0.8"/>
      </g>
     </g>
     <g id="text_7">
      <!-- 15000 -->
      <g transform="translate(324.225935 322.182437) scale(0.1 -0.1)">
       <use xlink:href="#DejaVuSans-31"/>
       <use xlink:href="#DejaVuSans-35" x="63.623047"/>
       <use xlink:href="#DejaVuSans-30" x="127.246094"/>
       <use xlink:href="#DejaVuSans-30" x="190.869141"/>
       <use xlink:href="#DejaVuSans-30" x="254.492188"/>
      </g>
     </g>
    </g>
    <g id="xtick_8">
     <g id="line2d_8">
      <g>
       <use xlink:href="#mbcb02aef95" x="384.515428" y="307.584" style="stroke: #000000; stroke-width: 0.8"/>
      </g>
     </g>
     <g id="text_8">
      <!-- 17500 -->
      <g transform="translate(368.609178 322.182437) scale(0.1 -0.1)">
       <use xlink:href="#DejaVuSans-31"/>
       <use xlink:href="#DejaVuSans-37" x="63.623047"/>
       <use xlink:href="#DejaVuSans-35" x="127.246094"/>
       <use xlink:href="#DejaVuSans-30" x="190.869141"/>
       <use xlink:href="#DejaVuSans-30" x="254.492188"/>
      </g>
     </g>
    </g>
   </g>
   <g id="matplotlib.axis_2">
    <g id="ytick_1">
     <g id="line2d_9">
      <defs>
       <path id="me5179b328b" d="M 0 0 
L -3.5 0 
" style="stroke: #000000; stroke-width: 0.8"/>
      </defs>
      <g>
       <use xlink:href="#me5179b328b" x="57.6" y="306.506672" style="stroke: #000000; stroke-width: 0.8"/>
      </g>
     </g>
     <g id="text_9">
      <!-- −400 -->
      <g transform="translate(23.132812 310.30589) scale(0.1 -0.1)">
       <defs>
        <path id="DejaVuSans-2212" d="M 678 2272 
L 4684 2272 
L 4684 1741 
L 678 1741 
L 678 2272 
z
" transform="scale(0.015625)"/>
        <path id="DejaVuSans-34" d="M 2419 4116 
L 825 1625 
L 2419 1625 
L 2419 4116 
z
M 2253 4666 
L 3047 4666 
L 3047 1625 
L 3713 1625 
L 3713 1100 
L 3047 1100 
L 3047 0 
L 2419 0 
L 2419 1100 
L 313 1100 
L 313 1709 
L 2253 4666 
z
" transform="scale(0.015625)"/>
       </defs>
       <use xlink:href="#DejaVuSans-2212"/>
       <use xlink:href="#DejaVuSans-34" x="83.789062"/>
       <use xlink:href="#DejaVuSans-30" x="147.412109"/>
       <use xlink:href="#DejaVuSans-30" x="211.035156"/>
      </g>
     </g>
    </g>
    <g id="ytick_2">
     <g id="line2d_10">
      <g>
       <use xlink:href="#me5179b328b" x="57.6" y="267.265287" style="stroke: #000000; stroke-width: 0.8"/>
      </g>
     </g>
     <g id="text_10">
      <!-- −200 -->
      <g transform="translate(23.132812 271.064506) scale(0.1 -0.1)">
       <use xlink:href="#DejaVuSans-2212"/>
       <use xlink:href="#DejaVuSans-32" x="83.789062"/>
       <use xlink:href="#DejaVuSans-30" x="147.412109"/>
       <use xlink:href="#DejaVuSans-30" x="211.035156"/>
      </g>
     </g>
    </g>
    <g id="ytick_3">
     <g id="line2d_11">
      <g>
       <use xlink:href="#me5179b328b" x="57.6" y="228.023902" style="stroke: #000000; stroke-width: 0.8"/>
      </g>
     </g>
     <g id="text_11">
      <!-- 0 -->
      <g transform="translate(44.2375 231.823121) scale(0.1 -0.1)">
       <use xlink:href="#DejaVuSans-30"/>
      </g>
     </g>
    </g>
    <g id="ytick_4">
     <g id="line2d_12">
      <g>
       <use xlink:href="#me5179b328b" x="57.6" y="188.782517" style="stroke: #000000; stroke-width: 0.8"/>
      </g>
     </g>
     <g id="text_12">
      <!-- 200 -->
      <g transform="translate(31.5125 192.581736) scale(0.1 -0.1)">
       <use xlink:href="#DejaVuSans-32"/>
       <use xlink:href="#DejaVuSans-30" x="63.623047"/>
       <use xlink:href="#DejaVuSans-30" x="127.246094"/>
      </g>
     </g>
    </g>
    <g id="ytick_5">
     <g id="line2d_13">
      <g>
       <use xlink:href="#me5179b328b" x="57.6" y="149.541133" style="stroke: #000000; stroke-width: 0.8"/>
      </g>
     </g>
     <g id="text_13">
      <!-- 400 -->
      <g transform="translate(31.5125 153.340351) scale(0.1 -0.1)">
       <use xlink:href="#DejaVuSans-34"/>
       <use xlink:href="#DejaVuSans-30" x="63.623047"/>
       <use xlink:href="#DejaVuSans-30" x="127.246094"/>
      </g>
     </g>
    </g>
    <g id="ytick_6">
     <g id="line2d_14">
      <g>
       <use xlink:href="#me5179b328b" x="57.6" y="110.299748" style="stroke: #000000; stroke-width: 0.8"/>
      </g>
     </g>
     <g id="text_14">
      <!-- 600 -->
      <g transform="translate(31.5125 114.098967) scale(0.1 -0.1)">
       <defs>
        <path id="DejaVuSans-36" d="M 2113 2584 
Q 1688 2584 1439 2293 
Q 1191 2003 1191 1497 
Q 1191 994 1439 701 
Q 1688 409 2113 409 
Q 2538 409 2786 701 
Q 3034 994 3034 1497 
Q 3034 2003 2786 2293 
Q 2538 2584 2113 2584 
z
M 3366 4563 
L 3366 3988 
Q 3128 4100 2886 4159 
Q 2644 4219 2406 4219 
Q 1781 4219 1451 3797 
Q 1122 3375 1075 2522 
Q 1259 2794 1537 2939 
Q 1816 3084 2150 3084 
Q 2853 3084 3261 2657 
Q 3669 2231 3669 1497 
Q 3669 778 3244 343 
Q 2819 -91 2113 -91 
Q 1303 -91 875 529 
Q 447 1150 447 2328 
Q 447 3434 972 4092 
Q 1497 4750 2381 4750 
Q 2619 4750 2861 4703 
Q 3103 4656 3366 4563 
z
" transform="scale(0.015625)"/>
       </defs>
       <use xlink:href="#DejaVuSans-36"/>
       <use xlink:href="#DejaVuSans-30" x="63.623047"/>
       <use xlink:href="#DejaVuSans-30" x="127.246094"/>
      </g>
     </g>
    </g>
    <g id="ytick_7">
     <g id="line2d_15">
      <g>
       <use xlink:href="#me5179b328b" x="57.6" y="71.058363" style="stroke: #000000; stroke-width: 0.8"/>
      </g>
     </g>
     <g id="text_15">
      <!-- 800 -->
      <g transform="translate(31.5125 74.857582) scale(0.1 -0.1)">
       <defs>
        <path id="DejaVuSans-38" d="M 2034 2216 
Q 1584 2216 1326 1975 
Q 1069 1734 1069 1313 
Q 1069 891 1326 650 
Q 1584 409 2034 409 
Q 2484 409 2743 651 
Q 3003 894 3003 1313 
Q 3003 1734 2745 1975 
Q 2488 2216 2034 2216 
z
M 1403 2484 
Q 997 2584 770 2862 
Q 544 3141 544 3541 
Q 544 4100 942 4425 
Q 1341 4750 2034 4750 
Q 2731 4750 3128 4425 
Q 3525 4100 3525 3541 
Q 3525 3141 3298 2862 
Q 3072 2584 2669 2484 
Q 3125 2378 3379 2068 
Q 3634 1759 3634 1313 
Q 3634 634 3220 271 
Q 2806 -91 2034 -91 
Q 1263 -91 848 271 
Q 434 634 434 1313 
Q 434 1759 690 2068 
Q 947 2378 1403 2484 
z
M 1172 3481 
Q 1172 3119 1398 2916 
Q 1625 2713 2034 2713 
Q 2441 2713 2670 2916 
Q 2900 3119 2900 3481 
Q 2900 3844 2670 4047 
Q 2441 4250 2034 4250 
Q 1625 4250 1398 4047 
Q 1172 3844 1172 3481 
z
" transform="scale(0.015625)"/>
       </defs>
       <use xlink:href="#DejaVuSans-38"/>
       <use xlink:href="#DejaVuSans-30" x="63.623047"/>
       <use xlink:href="#DejaVuSans-30" x="127.246094"/>
      </g>
     </g>
    </g>
   </g>
   <g id="line2d_16">
    <path d="M 73.832727 166.260878 
L 74.01026 295.488 
L 74.06352 284.080357 
L 74.2233 222.242426 
L 74.27656 232.842006 
L 74.436339 282.900999 
L 74.489599 272.757758 
L 74.649379 228.893667 
L 74.684886 233.95317 
L 74.844665 278.666871 
L 74.915678 269.206729 
L 75.057705 232.347149 
L 75.110965 237.384477 
L 75.270744 276.139461 
L 75.341758 266.932812 
L 75.483784 234.381134 
L 75.537044 239.444017 
L 75.696823 274.345249 
L 75.750083 269.293795 
L 75.909863 235.962652 
L 75.963123 241.000624 
L 76.122903 272.887665 
L 76.176162 267.821682 
L 76.335942 237.068427 
L 76.389202 242.112342 
L 76.548982 271.769731 
L 76.602242 266.740445 
L 76.762021 238.024552 
L 76.815281 242.978062 
L 76.975061 270.45342 
L 77.028321 265.399911 
L 77.1881 238.616127 
L 77.24136 243.66737 
L 77.40114 269.697628 
L 77.4544 264.645262 
L 77.61418 239.355777 
L 77.667439 244.440022 
L 77.827219 269.151439 
L 77.880479 264.063141 
L 78.040259 239.937791 
L 78.093519 245.071039 
L 78.253298 269.002758 
L 78.306558 264.011824 
L 78.466338 240.741229 
L 78.519598 245.667151 
L 78.679377 268.206998 
L 78.714884 265.693105 
L 78.892417 241.039348 
L 78.945677 245.925619 
L 79.105457 267.464077 
L 79.140963 264.958121 
L 79.318496 241.63019 
L 79.371756 246.630021 
L 79.531536 267.483874 
L 79.567042 264.925056 
L 79.744575 241.880383 
L 79.797835 246.670219 
L 79.957615 266.762485 
L 79.993121 264.334658 
L 80.152901 242.74816 
L 80.223914 247.579564 
L 80.365941 266.537015 
L 80.419201 263.893123 
L 80.57898 243.017417 
L 80.649993 248.0496 
L 80.79202 266.519936 
L 80.84528 263.75051 
L 81.005059 243.137835 
L 81.076073 248.109668 
L 81.218099 266.153746 
L 81.271359 263.461166 
L 81.431138 243.623634 
L 81.502152 248.510932 
L 81.644178 265.661125 
L 81.697438 262.848388 
L 81.857218 243.685272 
L 81.910477 246.537144 
L 82.070257 265.558024 
L 82.123517 262.726992 
L 82.283297 244.00746 
L 82.336557 246.83633 
L 82.496336 265.17286 
L 82.549596 262.27582 
L 82.709376 244.020612 
L 82.762636 246.870604 
L 82.922415 264.75523 
L 82.975675 261.907758 
L 83.135455 244.526897 
L 83.188715 247.49791 
L 83.348495 264.792261 
L 83.401754 261.795649 
L 83.561534 244.723678 
L 83.614794 247.768871 
L 83.774574 264.657952 
L 83.827834 261.528569 
L 83.987613 244.363244 
L 84.040873 247.293909 
L 84.200653 263.63742 
L 84.253913 260.510061 
L 84.413692 243.929126 
L 84.466952 246.989605 
L 84.626732 263.451952 
L 84.679992 260.504255 
L 84.839772 244.742183 
L 84.893031 247.879104 
L 85.052811 263.952684 
L 85.106071 260.948398 
L 85.265851 245.321789 
L 85.319111 248.357082 
L 85.47889 263.770164 
L 85.53215 260.717785 
L 85.69193 245.477152 
L 85.74519 248.522371 
L 85.904969 263.534737 
L 85.958229 260.50219 
L 86.118009 245.884432 
L 86.171269 248.999279 
L 86.331048 263.394883 
L 86.366555 261.752345 
L 86.544088 245.460635 
L 86.597348 248.577576 
L 86.757128 262.774169 
L 86.792634 261.125341 
L 86.970167 245.147179 
L 87.023427 248.322884 
L 87.183207 262.614494 
L 87.236467 259.505088 
L 87.396246 245.440871 
L 87.431753 246.998621 
L 87.609286 262.533131 
L 87.662546 259.606572 
L 87.822325 246.342704 
L 87.857832 247.892392 
L 88.035365 262.435265 
L 88.088625 259.380508 
L 88.230651 246.67185 
L 88.283911 248.375618 
L 88.443691 262.596951 
L 88.514704 259.344709 
L 88.65673 246.729144 
L 88.70999 248.473324 
L 88.86977 262.422438 
L 88.940783 259.233253 
L 89.08281 247.335949 
L 89.136069 249.138437 
L 89.295849 261.03909 
L 89.349109 258.194958 
L 89.508889 243.285082 
L 89.562149 245.634236 
L 89.721928 261.133623 
L 89.792941 257.901097 
L 89.934968 245.53385 
L 89.988228 247.475226 
L 90.148007 261.594801 
L 90.219021 258.31453 
L 90.361047 246.438823 
L 90.414307 248.409383 
L 90.574087 261.992023 
L 90.627346 260.093339 
L 90.787126 246.717385 
L 90.840386 248.535572 
L 91.000166 261.22822 
L 91.053426 259.25078 
L 91.213205 246.766165 
L 91.266465 248.903442 
L 91.426245 261.548822 
L 91.479505 259.405826 
L 91.639284 246.911834 
L 91.692544 249.12445 
L 91.852324 261.689016 
L 91.905584 259.497593 
L 92.065363 246.992612 
L 92.118623 249.093986 
L 92.278403 260.973246 
L 92.331663 258.738573 
L 92.491443 247.066089 
L 92.544702 249.318855 
L 92.686729 259.659499 
L 92.739989 257.798804 
L 92.899768 243.784699 
L 92.970782 246.917215 
L 93.130561 261.531554 
L 93.183821 259.533644 
L 93.343601 247.282066 
L 93.396861 249.326508 
L 93.538887 259.661735 
L 93.592147 258.01071 
L 93.751927 244.949486 
L 93.82294 248.256328 
L 93.98272 261.65726 
L 94.035979 258.96982 
L 94.195759 246.076904 
L 94.249019 248.714323 
L 94.408799 261.734013 
L 94.462059 259.235794 
L 94.621838 246.065911 
L 94.675098 248.234368 
L 94.834878 260.609082 
L 94.888138 258.568189 
L 95.047917 247.570904 
L 95.101177 249.995227 
L 95.243204 260.662731 
L 95.296464 258.950198 
L 95.473997 244.57747 
L 95.527256 246.987149 
L 95.687036 259.201298 
L 95.740296 257.021986 
L 95.900076 246.113148 
L 95.953336 248.595718 
L 96.095362 259.401636 
L 96.148622 257.967998 
L 96.308401 245.574758 
L 96.379415 248.486515 
L 96.539194 260.696536 
L 96.592454 258.395742 
L 96.752234 247.649626 
L 96.787741 248.86752 
L 96.94752 259.494637 
L 97.00078 257.593868 
L 97.16056 246.207085 
L 97.21382 248.493906 
L 97.373599 260.538901 
L 97.426859 257.550999 
L 97.604392 241.015691 
L 97.657652 244.329564 
L 97.817432 259.740457 
L 97.870692 257.606468 
L 98.030471 244.458413 
L 98.083731 246.507506 
L 98.243511 258.788653 
L 98.296771 256.817292 
L 98.45655 245.590014 
L 98.50981 247.747 
L 98.66959 258.59627 
L 98.72285 256.28219 
L 98.88263 245.656999 
L 98.918136 246.965775 
L 99.095669 259.706257 
L 99.148929 257.493199 
L 99.308709 246.888452 
L 99.361969 249.216831 
L 99.521748 259.6844 
L 99.557255 258.483272 
L 99.734788 247.081726 
L 99.788048 249.486796 
L 99.930074 259.508736 
L 99.983334 258.16489 
L 100.143114 246.998946 
L 100.214127 249.665517 
L 100.356153 259.750216 
L 100.409413 258.298516 
L 100.569193 247.023688 
L 100.640206 249.772773 
L 100.782232 260.109776 
L 100.835492 258.820666 
L 100.995272 248.060428 
L 101.066285 250.686464 
L 101.208312 259.837062 
L 101.261571 258.064282 
L 101.421351 246.915587 
L 101.474611 248.464743 
L 101.634391 258.63274 
L 101.687651 256.717466 
L 101.84743 246.219656 
L 101.90069 248.32726 
L 102.06047 259.359073 
L 102.11373 257.192423 
L 102.273509 245.31444 
L 102.326769 247.086389 
L 102.486549 257.753822 
L 102.539809 255.725227 
L 102.681835 245.650475 
L 102.735095 247.03126 
L 102.912628 259.668557 
L 102.965888 257.00404 
L 103.107914 245.712243 
L 103.161174 247.51915 
L 103.320954 260.910116 
L 103.374214 257.733567 
L 103.5695 232.238823 
L 103.640513 237.806517 
L 103.818046 257.297431 
L 103.853553 255.754345 
L 104.013332 244.978497 
L 104.066592 247.326128 
L 104.208619 257.354339 
L 104.261879 256.120612 
L 104.421658 246.093425 
L 104.492671 248.535293 
L 104.616945 255.719287 
L 104.670204 254.548974 
L 104.847737 243.983457 
L 104.900997 246.253826 
L 105.060777 256.539391 
L 105.114037 254.727855 
L 105.256063 246.151263 
L 105.309323 247.429541 
L 105.486856 257.919507 
L 105.540116 255.748124 
L 105.682142 246.880821 
L 105.735402 248.203766 
L 105.895182 258.562071 
L 105.966195 256.301678 
L 106.108222 247.534642 
L 106.161481 248.878857 
L 106.321261 258.618948 
L 106.374521 257.07943 
L 106.534301 246.704405 
L 106.587561 248.086762 
L 106.74734 258.178719 
L 106.8006 256.733297 
L 106.978133 245.99399 
L 107.031393 247.869996 
L 107.173419 254.706189 
L 107.208926 253.656727 
L 107.386459 242.581238 
L 107.439719 244.578106 
L 107.599499 255.964282 
L 107.652758 254.584658 
L 107.812538 244.609265 
L 107.865798 246.373479 
L 108.043331 257.994509 
L 108.096591 255.834974 
L 108.238617 246.896079 
L 108.291877 248.146941 
L 108.451657 258.033375 
L 108.52267 255.761185 
L 108.664696 247.499321 
L 108.717956 248.925503 
L 108.877736 258.170343 
L 108.930996 256.545822 
L 109.090775 246.719101 
L 109.144035 248.19735 
L 109.303815 257.368713 
L 109.357075 255.499575 
L 109.516855 244.845278 
L 109.570114 246.36693 
L 109.747647 257.766997 
L 109.800907 256.055583 
L 109.942934 248.502293 
L 109.996194 249.80719 
L 110.155973 258.323496 
L 110.209233 256.73185 
L 110.369013 247.67955 
L 110.422273 249.264767 
L 110.582052 258.287987 
L 110.635312 256.585691 
L 110.795092 247.002282 
L 110.848352 248.551588 
L 111.008132 258.108002 
L 111.061391 256.682703 
L 111.221171 247.436152 
L 111.274431 248.82827 
L 111.434211 257.594787 
L 111.487471 256.018878 
L 111.64725 246.85276 
L 111.70051 248.321655 
L 111.86029 257.280821 
L 111.91355 255.854369 
L 112.073329 247.484486 
L 112.126589 249.195689 
L 112.286369 258.347621 
L 112.339629 256.843614 
L 112.499409 248.167776 
L 112.552668 249.806416 
L 112.712448 259.069104 
L 112.765708 257.727404 
L 112.925488 249.289477 
L 112.978748 250.719824 
L 113.138527 258.761191 
L 113.191787 257.143154 
L 113.351567 248.977855 
L 113.404827 250.672462 
L 113.564606 259.006668 
L 113.617866 257.342025 
L 113.777646 249.270655 
L 113.830906 251.044621 
L 113.972932 258.799205 
L 114.026192 257.483887 
L 114.203725 246.182677 
L 114.274738 248.928753 
L 114.434518 257.957792 
L 114.470025 257.059203 
L 114.629804 249.578853 
L 114.683064 250.943817 
L 114.842844 258.365309 
L 114.896104 256.796514 
L 115.055883 249.320116 
L 115.109143 250.986328 
L 115.268923 258.421563 
L 115.304429 257.514781 
L 115.464209 249.257525 
L 115.535222 251.214577 
L 115.677249 258.965844 
L 115.730509 257.912725 
L 115.908042 248.539324 
L 115.961301 250.121634 
L 116.103328 257.417154 
L 116.156588 256.479597 
L 116.316367 248.361091 
L 116.387381 250.23683 
L 116.529407 256.895831 
L 116.582667 255.410915 
L 116.742447 246.893842 
L 116.795706 248.439479 
L 116.955486 257.769802 
L 117.008746 256.385975 
L 117.168526 246.924851 
L 117.221786 248.285634 
L 117.399319 258.478837 
L 117.452578 256.526508 
L 117.594605 248.189869 
L 117.647865 249.246155 
L 117.807644 258.535535 
L 117.878658 256.560649 
L 118.020684 248.646258 
L 118.073944 249.849153 
L 118.233724 258.279716 
L 118.286983 256.363013 
L 118.464516 244.534992 
L 118.517776 246.683394 
L 118.677556 257.851625 
L 118.748569 255.821996 
L 118.890596 248.76649 
L 118.943855 250.360579 
L 119.103635 258.449503 
L 119.156895 256.734103 
L 119.316675 248.564751 
L 119.369935 250.247786 
L 119.511961 257.688347 
L 119.565221 256.376111 
L 119.742754 245.285849 
L 119.813767 247.548255 
L 119.955793 254.456515 
L 120.009053 252.982037 
L 120.15108 246.039187 
L 120.204339 247.275758 
L 120.381872 257.308606 
L 120.435132 255.810218 
L 120.594912 248.174207 
L 120.648172 249.876179 
L 120.790198 257.28154 
L 120.843458 256.174296 
L 121.020991 246.912879 
L 121.074251 248.785246 
L 121.234031 257.261372 
L 121.287291 255.459492 
L 121.44707 246.458492 
L 121.50033 247.941983 
L 121.677863 257.113918 
L 121.731123 255.470155 
L 121.873149 249.412109 
L 121.926409 250.533899 
L 122.068436 255.759716 
L 122.103942 255.008495 
L 122.299229 244.806209 
L 122.370242 247.5775 
L 122.512268 254.781796 
L 122.565528 253.514931 
L 122.707554 246.980723 
L 122.760814 247.953948 
L 122.938347 256.556497 
L 122.991607 255.10787 
L 123.151387 248.03495 
L 123.204647 249.45311 
L 123.346673 255.848261 
L 123.399933 255.032348 
L 123.559713 248.718657 
L 123.612973 250.20341 
L 123.772752 257.805228 
L 123.826012 255.985536 
L 124.003545 244.67832 
L 124.056805 246.038891 
L 124.216585 254.598243 
L 124.287598 253.033216 
L 124.411871 248.086673 
L 124.465131 249.003779 
L 124.642664 256.949839 
L 124.695924 255.680348 
L 124.855703 249.674824 
L 124.89121 250.382076 
L 125.05099 256.000376 
L 125.10425 254.624408 
L 125.264029 247.673916 
L 125.317289 248.975299 
L 125.477069 255.621456 
L 125.512575 254.739252 
L 125.690108 245.519075 
L 125.761122 247.993613 
L 125.920901 256.414138 
L 125.956408 255.652006 
L 126.116187 248.160518 
L 126.187201 249.964524 
L 126.34698 257.026925 
L 126.382487 256.256867 
L 126.542267 249.521939 
L 126.595526 250.580437 
L 126.755306 257.260173 
L 126.808566 255.892058 
L 126.968346 248.2509 
L 127.021606 249.462628 
L 127.181385 257.336729 
L 127.252398 255.590634 
L 127.394425 249.346976 
L 127.447685 250.421925 
L 127.607464 257.051562 
L 127.660724 255.66957 
L 127.820504 248.32935 
L 127.873764 249.625332 
L 128.033544 256.979678 
L 128.086803 255.731661 
L 128.246583 248.577015 
L 128.299843 249.797358 
L 128.441869 255.750977 
L 128.495129 254.425062 
L 128.672662 244.429896 
L 128.725922 246.052524 
L 128.903455 256.212709 
L 128.956715 254.730303 
L 129.098741 248.102359 
L 129.152001 249.132927 
L 129.311781 256.768229 
L 129.382794 255.003161 
L 129.524821 248.901596 
L 129.57808 250.169874 
L 129.73786 257.472163 
L 129.79112 256.140369 
L 129.9509 248.536383 
L 130.00416 249.821768 
L 130.163939 256.980312 
L 130.217199 255.182923 
L 130.394732 245.010232 
L 130.447992 246.642584 
L 130.607772 255.084538 
L 130.661032 254.287663 
L 130.803058 249.543397 
L 130.856318 250.738819 
L 131.016097 257.629867 
L 131.069357 256.54065 
L 131.229137 249.926029 
L 131.282397 251.132138 
L 131.424423 257.192289 
L 131.477683 256.09655 
L 131.655216 246.036871 
L 131.726229 247.981408 
L 131.886009 255.725271 
L 131.939269 254.390764 
L 132.081295 248.535792 
L 132.134555 249.577273 
L 132.294335 256.871992 
L 132.365348 255.370052 
L 132.507374 249.848291 
L 132.560634 250.943391 
L 132.720414 257.36666 
L 132.773674 256.190834 
L 132.933454 249.673712 
L 132.986713 250.822006 
L 133.12874 256.614189 
L 133.182 255.721103 
L 133.359533 247.849596 
L 133.412793 249.356415 
L 133.572572 257.194793 
L 133.625832 256.202186 
L 133.785612 249.938604 
L 133.838872 251.310419 
L 133.998651 258.016159 
L 134.051911 256.622402 
L 134.211691 249.786245 
L 134.264951 251.144893 
L 134.424731 257.679819 
L 134.460237 256.892868 
L 134.63777 248.865874 
L 134.708783 250.866067 
L 134.833056 255.47025 
L 134.868563 254.773417 
L 135.063849 244.398479 
L 135.134862 246.860253 
L 135.276889 253.730575 
L 135.330149 252.499079 
L 135.472175 246.422347 
L 135.525435 247.714928 
L 135.685215 256.291477 
L 135.738475 254.669905 
L 135.933761 240.969542 
L 135.987021 242.901934 
L 136.1468 252.807569 
L 136.20006 251.746172 
L 136.35984 244.608989 
L 136.4131 246.126987 
L 136.590633 254.71678 
L 136.643893 253.518026 
L 136.768166 249.333449 
L 136.821426 250.097633 
L 136.981205 255.705538 
L 137.034465 254.50505 
L 137.194245 248.032009 
L 137.247505 249.256911 
L 137.389531 255.322784 
L 137.442791 254.152887 
L 137.638077 242.427179 
L 137.709091 244.725482 
L 137.86887 251.959576 
L 137.904377 251.298081 
L 138.046403 246.589736 
L 138.099663 247.570941 
L 138.277196 254.738653 
L 138.330456 253.404253 
L 138.490236 247.290246 
L 138.543495 248.471951 
L 138.703275 253.968446 
L 138.756535 252.822091 
L 138.898561 248.39198 
L 138.951821 249.512537 
L 139.111601 255.668118 
L 139.164861 254.603537 
L 139.342394 247.741188 
L 139.395654 249.113699 
L 139.555433 255.172655 
L 139.608693 254.284608 
L 139.75072 250.155696 
L 139.80398 250.940759 
L 139.963759 255.475719 
L 140.017019 254.440713 
L 140.159046 249.941027 
L 140.212305 250.687652 
L 140.372085 255.897302 
L 140.425345 254.765276 
L 140.602878 247.765897 
L 140.656138 249.177523 
L 140.815918 255.664583 
L 140.869177 254.656938 
L 141.028957 249.385743 
L 141.082217 250.556801 
L 141.224243 255.139823 
L 141.277503 253.956677 
L 141.437283 246.863439 
L 141.508296 248.368323 
L 141.650322 254.479088 
L 141.703582 253.698641 
L 141.881115 246.44775 
L 141.934375 247.732921 
L 142.094155 254.200417 
L 142.147415 253.204619 
L 142.289441 248.27413 
L 142.342701 249.249603 
L 142.520234 256.672551 
L 142.573494 255.596684 
L 142.71552 250.46485 
L 142.76878 251.313026 
L 142.92856 257.572822 
L 142.98182 256.632497 
L 143.141599 249.755963 
L 143.212613 251.167749 
L 143.354639 256.586418 
L 143.407899 255.442217 
L 143.567679 247.98425 
L 143.638692 249.619493 
L 143.798471 256.327714 
L 143.833978 255.536233 
L 144.011511 247.434565 
L 144.082524 249.293251 
L 144.224551 254.543024 
L 144.260057 253.875636 
L 144.43759 246.980519 
L 144.49085 248.390991 
L 144.65063 255.327071 
L 144.70389 254.329414 
L 144.845916 248.861306 
L 144.899176 249.616473 
L 145.076709 256.503791 
L 145.129969 255.008416 
L 145.289748 247.66921 
L 145.343008 248.584391 
L 145.502788 254.741923 
L 145.556048 253.819239 
L 145.715828 248.434051 
L 145.769087 249.627003 
L 145.928867 255.515212 
L 145.982127 254.525118 
L 146.124153 249.583556 
L 146.177413 250.216908 
L 146.337193 255.179078 
L 146.390453 253.85846 
L 146.567986 246.277167 
L 146.621246 247.656131 
L 146.781025 254.16748 
L 146.834285 253.166983 
L 146.976312 248.228457 
L 147.029572 249.07679 
L 147.189351 255.368059 
L 147.260364 253.893664 
L 147.402391 248.293628 
L 147.455651 249.129398 
L 147.61543 255.518561 
L 147.686444 253.882919 
L 147.846223 247.37142 
L 147.899483 248.441774 
L 148.041509 253.108254 
L 148.094769 252.014818 
L 148.254549 245.773 
L 148.307809 247.085294 
L 148.485342 255.796587 
L 148.538602 254.796633 
L 148.680628 249.370736 
L 148.733888 250.133345 
L 148.911421 256.844704 
L 148.964681 255.55919 
L 149.124461 249.738667 
L 149.17772 250.767249 
L 149.301994 254.312475 
L 149.3375 253.738839 
L 149.55054 243.010056 
L 149.639306 246.541938 
L 149.763579 252.275962 
L 149.816839 251.57713 
L 149.958866 246.927179 
L 150.012125 247.86754 
L 150.189658 254.766592 
L 150.242918 253.502427 
L 150.384945 248.128745 
L 150.438205 248.961436 
L 150.597984 255.169427 
L 150.668997 253.59738 
L 150.811024 248.290691 
L 150.864284 249.310745 
L 151.00631 254.294855 
L 151.041817 253.502481 
L 151.254856 238.876282 
L 151.361376 243.186799 
L 151.503402 249.431491 
L 151.538909 248.8203 
L 151.663182 245.467215 
L 151.716442 246.397493 
L 151.893975 253.744013 
L 151.964988 252.012019 
L 152.089261 247.468282 
L 152.142521 248.213866 
L 152.302301 254.126795 
L 152.355561 252.81048 
L 152.533094 243.201249 
L 152.604107 244.777865 
L 152.763887 251.276037 
L 152.817146 250.294865 
L 152.959173 246.441315 
L 152.994679 247.050585 
L 153.172212 252.834667 
L 153.225472 251.588903 
L 153.367499 246.604059 
L 153.420759 247.612549 
L 153.598291 254.805757 
L 153.651551 253.52295 
L 153.793578 247.776227 
L 153.846838 248.622538 
L 154.006617 255.918086 
L 154.077631 254.140921 
L 154.272917 242.965756 
L 154.326177 243.957277 
L 154.50371 249.696777 
L 154.55697 249.333718 
L 154.627983 248.832951 
L 154.663489 249.18699 
L 154.858776 254.814072 
L 154.929789 253.431681 
L 155.071815 249.541671 
L 155.107322 250.060669 
L 155.267101 254.869599 
L 155.320361 253.612628 
L 155.515648 243.759193 
L 155.586661 245.720867 
L 155.728687 251.448821 
L 155.781947 250.744436 
L 155.923973 246.494617 
L 155.977233 247.278554 
L 156.154766 253.226243 
L 156.208026 252.187079 
L 156.350053 248.130835 
L 156.403312 249.177662 
L 156.563092 254.752661 
L 156.616352 253.588487 
L 156.793885 246.121353 
L 156.847145 247.015895 
L 156.989171 251.253646 
L 157.042431 250.288243 
L 157.202211 244.703252 
L 157.255471 245.925939 
L 157.450757 254.457173 
L 157.504017 253.359501 
L 157.646043 249.596643 
L 157.68155 250.135989 
L 157.84133 254.952029 
L 157.912343 253.669361 
L 158.054369 249.264423 
L 158.107629 249.98333 
L 158.249655 254.222915 
L 158.302915 253.587299 
L 158.480448 247.797565 
L 158.533708 249.011886 
L 158.693488 254.738135 
L 158.746748 253.585223 
L 158.906527 247.440211 
L 158.959787 248.402994 
L 159.119567 254.379413 
L 159.172827 253.487063 
L 159.332606 247.784429 
L 159.385866 248.742735 
L 159.545646 254.531849 
L 159.598906 253.545159 
L 159.758686 247.326732 
L 159.829699 248.661699 
L 159.971725 253.452343 
L 160.024985 252.607597 
L 160.184765 247.744383 
L 160.220271 248.422582 
L 160.397804 255.782323 
L 160.468817 254.373569 
L 160.610844 249.192015 
L 160.664104 249.948251 
L 160.823883 255.48587 
L 160.894897 254.162627 
L 161.036923 249.622458 
L 161.090183 250.32623 
L 161.232209 254.042325 
L 161.285469 253.02859 
L 161.445249 246.751164 
L 161.516262 248.238091 
L 161.676042 254.916607 
L 161.729302 254.087172 
L 161.871328 249.245081 
L 161.924588 249.946093 
L 162.102121 256.209935 
L 162.155381 254.968589 
L 162.297407 249.62777 
L 162.350667 250.426781 
L 162.510447 256.351957 
L 162.563707 254.872689 
L 162.758993 243.309377 
L 162.830006 244.793012 
L 162.954279 248.888019 
L 163.007539 248.058558 
L 163.149565 243.226975 
L 163.202825 244.194504 
L 163.398112 254.028089 
L 163.469125 252.676912 
L 163.593398 248.778562 
L 163.646658 249.403611 
L 163.806437 253.948838 
L 163.859697 252.983177 
L 164.019477 248.200047 
L 164.072737 249.168405 
L 164.214763 252.873882 
L 164.25027 252.22541 
L 164.427803 244.990585 
L 164.498816 246.647533 
L 164.658596 252.907151 
L 164.694102 252.274185 
L 164.853882 246.476683 
L 164.907142 247.607178 
L 165.084675 255.74538 
L 165.137935 254.670149 
L 165.297714 248.907009 
L 165.350974 250.168134 
L 165.493001 255.460725 
L 165.54626 254.351714 
L 165.723793 245.99795 
L 165.794807 247.791071 
L 165.936833 252.829392 
L 165.97234 252.144429 
L 166.132119 245.565856 
L 166.203132 247.242055 
L 166.362912 255.044322 
L 166.416172 254.275814 
L 166.575952 248.642445 
L 166.629212 249.698808 
L 166.788991 255.008913 
L 166.842251 253.837452 
L 166.984278 249.282982 
L 167.037537 250.373566 
L 167.179564 255.712436 
L 167.232824 254.639744 
L 167.410357 245.442617 
L 167.48137 247.519597 
L 167.623396 253.895874 
L 167.658903 253.002182 
L 167.854189 241.456935 
L 167.925202 244.657425 
L 168.067229 253.763464 
L 168.120489 252.703251 
L 168.298022 243.753876 
L 168.351281 245.57786 
L 168.511061 253.31523 
L 168.546568 252.454531 
L 168.724101 243.529272 
L 168.795114 245.535114 
L 168.93714 251.359203 
L 168.9904 250.177335 
L 169.132427 244.664278 
L 169.185686 245.69874 
L 169.363219 254.033763 
L 169.434233 252.557545 
L 169.558506 248.579959 
L 169.611766 249.52163 
L 169.771545 255.667302 
L 169.824805 254.85591 
L 169.984585 249.631223 
L 170.037845 250.766904 
L 170.162118 255.077673 
L 170.215378 254.037252 
L 170.410664 241.800067 
L 170.49943 244.859263 
L 170.641457 252.036919 
L 170.694717 250.830354 
L 170.854496 244.320857 
L 170.907756 245.68128 
L 171.067536 252.68566 
L 171.120796 251.905841 
L 171.262822 247.259617 
L 171.316082 247.940382 
L 171.458108 252.514975 
L 171.511368 251.707964 
L 171.688901 244.24123 
L 171.759914 246.15996 
L 171.901941 252.244688 
L 171.955201 251.307852 
L 172.132734 244.235652 
L 172.185994 245.469566 
L 172.345773 250.966942 
L 172.399033 249.971865 
L 172.523306 246.514603 
L 172.576566 247.340065 
L 172.754099 253.633305 
L 172.807359 252.384909 
L 172.949385 247.077121 
L 173.002645 247.884909 
L 173.162425 253.78775 
L 173.215685 252.509131 
L 173.393218 244.283641 
L 173.446478 245.693115 
L 173.588504 252.061211 
L 173.641764 251.098758 
L 173.819297 242.062798 
L 173.89031 243.953881 
L 174.032337 250.112969 
L 174.085596 249.05647 
L 174.245376 243.077923 
L 174.280883 243.893843 
L 174.458416 252.20007 
L 174.529429 249.980475 
L 174.671455 242.974928 
L 174.724715 243.866765 
L 174.902248 251.144162 
L 174.955508 249.797094 
L 175.097534 244.675644 
L 175.150794 245.792697 
L 175.310574 252.397667 
L 175.381587 251.032554 
L 175.50586 247.080522 
L 175.55912 248.019767 
L 175.7189 254.540929 
L 175.789913 252.931482 
L 175.931939 247.189289 
L 175.985199 248.147122 
L 176.127226 253.076721 
L 176.162732 252.149658 
L 176.375772 237.729019 
L 176.446785 241.092705 
L 176.588811 250.419623 
L 176.642071 249.077824 
L 176.819604 238.869412 
L 176.872864 240.797093 
L 177.032644 250.241045 
L 177.085904 249.125738 
L 177.245683 242.166209 
L 177.298943 243.734501 
L 177.458723 251.573984 
L 177.511983 250.373369 
L 177.671762 243.249776 
L 177.725022 244.344185 
L 177.884802 250.895701 
L 177.938062 249.914165 
L 178.080088 244.822756 
L 178.133348 245.802621 
L 178.310881 253.872987 
L 178.381894 252.485022 
L 178.506167 248.398928 
L 178.559427 249.0602 
L 178.719207 254.255195 
L 178.772467 253.382994 
L 178.914493 248.576958 
L 178.967753 249.229696 
L 179.127533 254.617269 
L 179.180793 253.261692 
L 179.358326 244.141668 
L 179.429339 245.901498 
L 179.553612 251.029834 
L 179.606872 250.153287 
L 179.784405 241.381594 
L 179.855418 243.517512 
L 180.015198 251.593317 
L 180.068458 250.549077 
L 180.245991 243.54676 
L 180.317004 244.121413 
L 180.370264 244.461473 
L 180.40577 243.945447 
L 180.547797 236.265162 
L 180.601056 234.612391 
L 180.654316 235.756147 
L 180.867356 249.950975 
L 180.938369 247.676448 
L 181.062642 242.475669 
L 181.115902 243.733198 
L 181.293435 253.007417 
L 181.364448 251.539428 
L 181.488721 247.391265 
L 181.541981 248.216188 
L 181.701761 253.643034 
L 181.755021 252.630739 
L 181.897047 247.656151 
L 181.950307 248.378369 
L 182.092333 253.22233 
L 182.145593 252.069848 
L 182.34088 241.183079 
L 182.411893 243.770579 
L 182.571672 251.460327 
L 182.607179 250.65988 
L 182.766959 244.285258 
L 182.820219 245.454632 
L 182.979998 251.583946 
L 183.033258 250.090691 
L 183.193038 243.413113 
L 183.228544 244.233392 
L 183.406077 252.568713 
L 183.459337 251.151568 
L 183.619117 243.342492 
L 183.672377 244.573365 
L 183.832157 252.638465 
L 183.90317 250.915266 
L 184.062949 243.693792 
L 184.116209 244.93648 
L 184.293742 251.636923 
L 184.347002 250.635878 
L 184.453522 248.261899 
L 184.506782 249.082664 
L 184.666562 254.616141 
L 184.719821 253.810233 
L 184.879601 248.308877 
L 184.932861 249.224921 
L 185.074887 253.475853 
L 185.110394 252.660166 
L 185.30568 241.305489 
L 185.394447 244.3863 
L 185.536473 250.990851 
L 185.57198 250.236764 
L 185.731759 243.283419 
L 185.785019 244.490047 
L 185.944799 252.556756 
L 185.998059 251.461387 
L 186.175592 242.779331 
L 186.228852 244.41061 
L 186.388631 251.857237 
L 186.441891 250.339722 
L 186.583918 243.475578 
L 186.637178 244.359647 
L 186.81471 252.350104 
L 186.86797 250.616218 
L 187.02775 242.711381 
L 187.08101 244.084657 
L 187.24079 251.908533 
L 187.311803 250.514993 
L 187.436076 246.488342 
L 187.489336 247.564933 
L 187.649115 253.942294 
L 187.702375 252.787874 
L 187.862155 246.725335 
L 187.915415 248.121797 
L 188.039688 252.763502 
L 188.075195 251.988669 
L 188.217221 239.214664 
L 188.288234 235.598171 
L 188.341494 237.180879 
L 188.519027 249.383211 
L 188.572287 247.871464 
L 188.714313 240.057097 
L 188.767573 241.198535 
L 188.945106 251.38973 
L 188.998366 249.875344 
L 189.140392 242.596991 
L 189.193652 243.634148 
L 189.353432 251.037086 
L 189.406692 248.98412 
L 189.566472 237.916702 
L 189.619731 239.276079 
L 189.797264 250.979028 
L 189.850524 248.817402 
L 190.028057 235.998951 
L 190.081317 237.721206 
L 190.25885 247.831239 
L 190.31211 246.84751 
L 190.41863 244.174053 
L 190.454136 244.747069 
L 190.631669 253.032269 
L 190.720436 250.552067 
L 190.844709 246.036642 
L 190.880216 246.815197 
L 191.022242 253.209561 
L 191.075502 251.750967 
L 191.288541 234.25221 
L 191.359555 238.051017 
L 191.501581 248.125176 
L 191.554841 246.806152 
L 191.696867 238.973646 
L 191.750127 240.170406 
L 191.909907 249.989975 
L 191.98092 247.681265 
L 192.1407 238.310796 
L 192.19396 240.100338 
L 192.318233 245.791599 
L 192.353739 244.582602 
L 192.566779 223.983558 
L 192.637792 228.885776 
L 192.815325 247.518494 
L 192.868585 245.87212 
L 193.010611 238.566628 
L 193.046118 239.637137 
L 193.241404 252.534039 
L 193.312417 250.289787 
L 193.43669 245.851295 
L 193.472197 246.673247 
L 193.631977 253.657402 
L 193.685237 252.587667 
L 193.827263 246.714309 
L 193.880523 247.737502 
L 194.022549 253.668872 
L 194.075809 251.783814 
L 194.271095 236.330082 
L 194.342109 239.632012 
L 194.484135 249.040276 
L 194.537395 247.438628 
L 194.697174 238.227034 
L 194.750434 240.212512 
L 194.910214 249.961141 
L 194.963474 247.954744 
L 195.123254 237.94268 
L 195.176513 239.83931 
L 195.31854 248.453016 
L 195.3718 246.465162 
L 195.549333 231.326329 
L 195.602593 233.476521 
L 195.780126 248.889117 
L 195.833385 246.952159 
L 195.993165 236.153005 
L 196.046425 238.490543 
L 196.223958 252.449448 
L 196.277218 251.031831 
L 196.419244 244.031216 
L 196.472504 245.341833 
L 196.632284 252.961875 
L 196.685544 251.489423 
L 196.82757 245.023243 
L 196.88083 246.254471 
L 197.022856 253.075013 
L 197.076116 251.666196 
L 197.253649 239.17049 
L 197.324662 241.438191 
L 197.466689 249.877296 
L 197.519949 248.354888 
L 197.697482 237.069098 
L 197.750742 238.604159 
L 197.892768 245.336758 
L 197.946028 243.67263 
L 198.105808 234.651122 
L 198.159067 236.613426 
L 198.3366 248.603974 
L 198.38986 246.890112 
L 198.531887 239.515506 
L 198.585147 241.224479 
L 198.744926 251.823879 
L 198.815939 249.414119 
L 198.975719 239.530682 
L 199.028979 241.50343 
L 199.206512 252.234059 
L 199.259772 250.701207 
L 199.384045 245.516869 
L 199.437305 246.478746 
L 199.597084 253.626336 
L 199.650344 252.538541 
L 199.792371 246.688794 
L 199.845631 247.774733 
L 199.987657 253.816316 
L 200.040917 251.857588 
L 200.236203 235.94384 
L 200.307216 239.384193 
L 200.449243 249.194794 
L 200.502503 247.435274 
L 200.662282 236.836355 
L 200.715542 238.638633 
L 200.875322 249.918237 
L 200.928582 248.515604 
L 201.088361 237.811635 
L 201.159375 240.173237 
L 201.301401 249.217684 
L 201.354661 247.975898 
L 201.514441 238.361151 
L 201.585454 240.642545 
L 201.709727 247.616779 
L 201.762987 246.268999 
L 201.958273 232.002318 
L 202.029286 235.318445 
L 202.171313 244.231626 
L 202.224572 243.192773 
L 202.348846 238.332256 
L 202.402105 239.72565 
L 202.579638 250.839671 
L 202.650652 248.496938 
L 202.774925 242.130359 
L 202.828185 243.320876 
L 202.970211 251.262243 
L 203.023471 249.838122 
L 203.218757 234.066488 
L 203.28977 237.67931 
L 203.431797 247.014919 
L 203.467303 245.751093 
L 203.644836 232.527479 
L 203.698096 234.786777 
L 203.857876 247.579733 
L 203.911136 245.957686 
L 204.070915 234.964199 
L 204.124175 237.046488 
L 204.283955 248.963128 
L 204.337215 246.981915 
L 204.496994 234.933774 
L 204.550254 236.836042 
L 204.692281 247.461278 
L 204.745541 245.535813 
L 204.940827 224.82689 
L 205.01184 229.412905 
L 205.189373 246.978687 
L 205.242633 245.255269 
L 205.366906 239.262334 
L 205.420166 240.754231 
L 205.579946 249.903956 
L 205.633206 248.759097 
L 205.775232 243.092752 
L 205.810738 243.949011 
L 205.952765 250.933715 
L 206.006025 249.006121 
L 206.219064 228.384973 
L 206.290078 232.962621 
L 206.432104 243.548033 
L 206.46761 242.169676 
L 206.645143 227.843458 
L 206.716157 231.353206 
L 206.858183 242.371283 
L 206.911443 241.126012 
L 207.053469 232.911249 
L 207.106729 234.522179 
L 207.284262 246.913056 
L 207.337522 244.57559 
L 207.497302 233.808828 
L 207.532808 235.049713 
L 207.710341 247.799451 
L 207.763601 245.410441 
L 207.923381 232.388569 
L 207.976641 234.181327 
L 208.171927 250.523058 
L 208.24294 248.487075 
L 208.34946 244.228027 
L 208.40272 245.112437 
L 208.5625 251.119498 
L 208.615759 249.652187 
L 208.757786 244.361732 
L 208.793292 245.031695 
L 208.917565 249.524688 
L 208.970825 247.879884 
L 209.183865 228.425719 
L 209.254878 233.177169 
L 209.414658 246.971726 
L 209.450164 245.537054 
L 209.609944 232.581433 
L 209.680957 235.711591 
L 209.840737 248.505362 
L 209.876244 247.065686 
L 210.07153 230.086496 
L 210.142543 234.206432 
L 210.284569 244.391214 
L 210.337829 242.658073 
L 210.479856 235.127344 
L 210.515362 236.18988 
L 210.710648 250.309502 
L 210.781662 247.31515 
L 210.923688 239.466576 
L 210.959195 240.308512 
L 211.136728 250.018258 
L 211.225494 248.020759 
L 211.314261 245.717654 
L 211.36752 246.7236 
L 211.509547 252.203609 
L 211.562807 251.183942 
L 211.722586 243.742122 
L 211.775846 244.875908 
L 211.900119 250.257679 
L 211.953379 248.545405 
L 212.166419 228.13013 
L 212.237432 232.292433 
L 212.379458 243.845825 
L 212.432718 241.851839 
L 212.592498 229.980069 
L 212.645758 232.404176 
L 212.805538 246.467686 
L 212.858797 244.67973 
L 213.03633 230.264514 
L 213.08959 233.032687 
L 213.24937 247.256293 
L 213.30263 245.828392 
L 213.46241 235.313898 
L 213.515669 237.311066 
L 213.675449 247.872747 
L 213.728709 245.515959 
L 213.906242 232.424096 
L 213.959502 234.998018 
L 214.137035 248.57018 
L 214.208048 247.021228 
L 214.350074 242.859809 
L 214.385581 243.206151 
L 214.456594 243.88733 
L 214.492101 243.359824 
L 214.687387 233.645461 
L 214.7584 236.369703 
L 214.900427 244.683844 
L 214.935933 243.169112 
L 215.148973 219.900971 
L 215.219986 224.669186 
L 215.379766 240.606513 
L 215.433026 238.473455 
L 215.575052 227.716414 
L 215.628312 229.3654 
L 215.805845 244.158689 
L 215.876858 241.336779 
L 216.001131 233.540042 
L 216.054391 235.114402 
L 216.231924 247.993952 
L 216.285184 246.031393 
L 216.444963 235.813147 
L 216.498223 237.539711 
L 216.64025 245.480757 
L 216.69351 243.919376 
L 216.853289 233.986471 
L 216.906549 235.948872 
L 217.101835 250.452401 
L 217.155095 248.846394 
L 217.279368 243.769975 
L 217.332628 245.115243 
L 217.474655 252.007329 
L 217.527915 250.864357 
L 217.687694 242.555664 
L 217.740954 243.956449 
L 217.865227 250.167827 
L 217.918487 248.42454 
L 218.113773 228.802104 
L 218.184787 232.627122 
L 218.344566 247.655327 
L 218.397826 245.311079 
L 218.557606 232.510623 
L 218.610866 234.868953 
L 218.752892 246.480749 
L 218.806152 244.779008 
L 218.983685 227.760647 
L 219.054698 231.138133 
L 219.196725 242.749543 
L 219.249984 240.675969 
L 219.409764 227.830443 
L 219.463024 230.409901 
L 219.640557 247.448648 
L 219.693817 245.283288 
L 219.853597 233.449651 
L 219.906856 235.685934 
L 220.084389 248.016318 
L 220.137649 246.225516 
L 220.244169 241.408273 
L 220.297429 242.441485 
L 220.474962 252.092605 
L 220.528222 250.176736 
L 220.670248 243.487245 
L 220.705755 244.526221 
L 220.830028 250.906709 
L 220.883288 248.395972 
L 221.114081 213.748212 
L 221.202847 222.678287 
L 221.344874 238.895838 
L 221.38038 237.591698 
L 221.54016 224.722414 
L 221.59342 227.515213 
L 221.753199 243.778413 
L 221.824213 240.539283 
L 221.966239 228.904349 
L 222.019499 231.173896 
L 222.161525 242.232578 
L 222.214785 239.221477 
L 222.392318 217.615415 
L 222.445578 221.020434 
L 222.640864 248.03974 
L 222.711877 243.588589 
L 222.853904 232.288231 
L 222.88941 233.790155 
L 223.066943 247.973723 
L 223.137957 245.371011 
L 223.244476 240.65468 
L 223.279983 241.555149 
L 223.457516 253.173724 
L 223.528529 249.943915 
L 223.670555 241.21494 
L 223.706062 242.31101 
L 223.848088 250.027831 
L 223.883595 248.443576 
L 224.096635 223.798274 
L 224.167648 230.323907 
L 224.309674 247.912251 
L 224.362934 245.42713 
L 224.540467 225.62438 
L 224.593727 228.647368 
L 224.753507 243.194568 
L 224.806766 239.982492 
L 224.948793 226.98707 
L 225.002053 229.61166 
L 225.161832 245.376118 
L 225.215092 240.740797 
L 225.428132 202.318999 
L 225.499145 206.36652 
L 225.658925 220.597991 
L 225.712185 219.552667 
L 225.783198 217.596138 
L 225.818704 218.242489 
L 225.925224 229.404007 
L 226.085004 243.844464 
L 226.12051 243.255745 
L 226.22703 240.277858 
L 226.28029 241.48433 
L 226.44007 248.996594 
L 226.49333 247.605568 
L 226.635356 241.346607 
L 226.688616 242.613172 
L 226.795136 246.451846 
L 226.830642 245.267924 
L 226.954915 227.601082 
L 227.061435 216.573254 
L 227.096942 218.110302 
L 227.274475 239.355462 
L 227.345488 234.495552 
L 227.505268 215.002467 
L 227.558528 219.032771 
L 227.73606 241.847638 
L 227.78932 237.411844 
L 227.9491 216.362898 
L 228.00236 219.128092 
L 228.179893 238.837999 
L 228.233153 235.732894 
L 228.375179 222.689102 
L 228.428439 224.888406 
L 228.605972 241.040581 
L 228.659232 238.52023 
L 228.801258 228.728082 
L 228.836765 230.085139 
L 229.032051 248.478896 
L 229.120818 244.887704 
L 229.227337 240.11202 
L 229.262844 241.006426 
L 229.422624 249.78907 
L 229.493637 247.440462 
L 229.61791 241.278462 
L 229.67117 242.812222 
L 229.795443 249.31589 
L 229.83095 248.195366 
L 229.955223 230.737701 
L 230.043989 221.766027 
L 230.097249 224.226431 
L 230.274782 245.336375 
L 230.345795 240.453949 
L 230.487822 225.05295 
L 230.541081 227.300194 
L 230.700861 242.766783 
L 230.754121 240.49319 
L 230.896147 227.880006 
L 230.949407 229.956464 
L 231.091434 243.626537 
L 231.144694 240.225151 
L 231.357733 202.233279 
L 231.428746 211.280411 
L 231.606279 241.402186 
L 231.641786 239.464766 
L 231.801566 223.601269 
L 231.854825 227.037698 
L 232.050112 248.190785 
L 232.103372 245.640997 
L 232.227645 239.063221 
L 232.263151 240.083529 
L 232.422931 249.570448 
L 232.493944 246.986066 
L 232.618217 240.00105 
L 232.671477 241.104965 
L 232.79575 246.975761 
L 232.84901 244.975543 
L 233.044296 225.838527 
L 233.11531 230.175242 
L 233.239583 241.48036 
L 233.292843 239.683157 
L 233.488129 218.73495 
L 233.559142 222.484649 
L 233.683415 231.247377 
L 233.736675 229.186165 
L 233.896455 216.825293 
L 233.967468 218.859549 
L 234.038481 221.587686 
L 234.073988 220.731906 
L 234.180507 205.751796 
L 234.287027 191.988236 
L 234.340287 195.858851 
L 234.57108 242.162979 
L 234.642093 235.134861 
L 234.766366 221.957646 
L 234.801873 223.856867 
L 234.997159 249.530443 
L 235.085926 243.96694 
L 235.192445 236.478867 
L 235.245705 238.70475 
L 235.405485 250.458959 
L 235.458745 247.948488 
L 235.600771 238.471777 
L 235.654031 240.460977 
L 235.760551 246.407618 
L 235.796057 245.081608 
L 235.92033 222.944374 
L 236.02685 209.703461 
L 236.062357 211.963336 
L 236.257643 242.755107 
L 236.328656 237.541043 
L 236.470683 222.757931 
L 236.506189 224.791202 
L 236.683722 244.643344 
L 236.736982 240.680129 
L 236.896762 221.540156 
L 236.950022 224.828895 
L 237.109801 243.806614 
L 237.163061 241.137653 
L 237.340594 221.899653 
L 237.393854 224.612376 
L 237.518127 234.738693 
L 237.571387 232.925854 
L 237.731167 217.474192 
L 237.784427 220.098156 
L 237.979713 245.474803 
L 238.068479 240.922386 
L 238.174999 234.528273 
L 238.210506 235.524777 
L 238.370285 246.067954 
L 238.423545 243.761127 
L 238.583325 230.181284 
L 238.636585 231.879322 
L 238.778611 240.946811 
L 238.814118 239.436456 
L 239.009404 220.053775 
L 239.080417 225.36284 
L 239.186937 235.338052 
L 239.240197 232.779614 
L 239.435483 203.388807 
L 239.506497 210.375556 
L 239.666276 235.362205 
L 239.719536 232.581868 
L 239.879316 216.006676 
L 239.932576 219.939962 
L 240.092355 237.564402 
L 240.145615 233.862325 
L 240.287642 217.224954 
L 240.340901 219.421461 
L 240.518434 240.685094 
L 240.571694 237.369084 
L 240.731474 218.843996 
L 240.784734 222.02255 
L 240.98002 245.752102 
L 241.051033 242.207845 
L 241.157553 237.033168 
L 241.19306 238.352421 
L 241.352839 249.748077 
L 241.406099 247.588326 
L 241.565879 234.882688 
L 241.619139 236.804628 
L 241.743412 244.706516 
L 241.796672 242.120835 
L 241.974205 221.789325 
L 242.027465 225.033714 
L 242.187244 243.809744 
L 242.240504 239.320791 
L 242.418037 209.306072 
L 242.48905 215.615902 
L 242.64883 239.034533 
L 242.70209 234.972456 
L 242.86187 215.166513 
L 242.91513 219.070074 
L 243.074909 237.08299 
L 243.110416 234.89749 
L 243.270196 215.26495 
L 243.341209 220.513402 
L 243.500988 241.330293 
L 243.536495 239.101285 
L 243.714028 213.263711 
L 243.785041 218.340727 
L 243.962574 240.814077 
L 244.015834 237.903629 
L 244.140107 229.815615 
L 244.175614 231.389639 
L 244.353147 247.953027 
L 244.42416 244.072892 
L 244.548433 234.650631 
L 244.601693 236.621687 
L 244.725966 245.780868 
L 244.779226 243.350603 
L 244.974512 218.014122 
L 245.045525 224.254005 
L 245.169798 238.406006 
L 245.205305 236.391398 
L 245.418344 198.730954 
L 245.489358 207.396185 
L 245.649137 235.127832 
L 245.702397 232.279655 
L 245.844424 217.147508 
L 245.897684 220.003795 
L 246.057463 238.633684 
L 246.110723 236.201956 
L 246.270503 220.549004 
L 246.323763 224.178532 
L 246.483542 243.409185 
L 246.536802 241.110874 
L 246.696582 225.552489 
L 246.749842 228.724866 
L 246.927375 248.395721 
L 246.980635 246.248167 
L 247.122661 237.31854 
L 247.158168 238.660496 
L 247.317947 250.205218 
L 247.371207 248.460028 
L 247.513234 240.069168 
L 247.54874 241.274763 
L 247.673013 250.251908 
L 247.726273 248.096384 
L 247.939313 210.390924 
L 248.028079 219.379253 
L 248.152352 236.451245 
L 248.187859 234.288608 
L 248.383145 199.576726 
L 248.454158 208.314255 
L 248.613938 236.483682 
L 248.649445 233.731241 
L 248.826978 205.849646 
L 248.880237 211.117568 
L 249.040017 237.984309 
L 249.093277 233.922738 
L 249.27081 205.490862 
L 249.32407 209.371368 
L 249.466096 227.307171 
L 249.519356 224.678794 
L 249.679136 206.801713 
L 249.732396 211.615631 
L 249.927682 243.781727 
L 249.998695 239.509268 
L 250.122968 230.213782 
L 250.158475 231.382652 
L 250.300501 240.98128 
L 250.353761 239.039249 
L 250.495787 227.29071 
L 250.549047 228.976214 
L 250.691074 241.674745 
L 250.744334 238.908032 
L 250.93962 208.641418 
L 251.010633 213.829603 
L 251.134906 228.741554 
L 251.188166 226.255632 
L 251.347946 206.301723 
L 251.401206 211.017343 
L 251.578739 242.363209 
L 251.631998 236.643972 
L 251.809531 202.201308 
L 251.862791 207.545899 
L 252.022571 234.903985 
L 252.075831 230.141719 
L 252.235611 202.547703 
L 252.28887 206.509325 
L 252.466403 236.084105 
L 252.519663 231.98599 
L 252.66169 212.944419 
L 252.71495 216.469613 
L 252.910236 246.812868 
L 252.981249 241.605522 
L 253.087769 232.23091 
L 253.141029 234.433648 
L 253.300808 249.502383 
L 253.354068 246.726771 
L 253.496095 233.767109 
L 253.549355 235.969347 
L 253.673628 245.908708 
L 253.709134 244.106101 
L 253.851161 213.442239 
L 253.922174 205.013425 
L 253.975434 209.680616 
L 254.152967 241.483695 
L 254.206227 235.532662 
L 254.38376 203.198226 
L 254.437019 208.754095 
L 254.596799 233.823952 
L 254.650059 229.768762 
L 254.792085 210.878658 
L 254.845345 214.041612 
L 255.022878 237.952443 
L 255.076138 233.355862 
L 255.218165 214.447576 
L 255.271424 217.458804 
L 255.448957 241.438403 
L 255.502217 237.542735 
L 255.644244 220.406943 
L 255.697504 223.634525 
L 255.875037 249.742716 
L 255.94605 245.288111 
L 256.088076 230.240946 
L 256.141336 232.605884 
L 256.283362 245.244194 
L 256.336622 243.570998 
L 256.478649 232.226077 
L 256.549662 235.069316 
L 256.656182 242.952498 
L 256.709441 240.674445 
L 256.904728 212.166169 
L 256.975741 217.594369 
L 257.117767 235.239842 
L 257.171027 231.387603 
L 257.330807 208.566596 
L 257.384067 212.176757 
L 257.5616 237.487337 
L 257.61486 232.386517 
L 257.756886 210.692405 
L 257.810146 213.459926 
L 257.987679 240.608419 
L 258.058692 233.701903 
L 258.200718 213.83044 
L 258.253978 217.708374 
L 258.413758 238.119219 
L 258.449265 235.523958 
L 258.626798 208.480599 
L 258.680057 212.991247 
L 258.85759 243.56428 
L 258.928604 238.951265 
L 259.052877 226.908872 
L 259.088383 228.620213 
L 259.265916 250.082692 
L 259.336929 244.856036 
L 259.461203 230.933985 
L 259.514462 233.182363 
L 259.656489 247.775982 
L 259.709749 243.108655 
L 259.905035 204.385095 
L 259.976048 212.70707 
L 260.118075 237.048084 
L 260.171334 232.896782 
L 260.331114 205.353015 
L 260.402127 211.730299 
L 260.561907 237.25789 
L 260.615167 232.38079 
L 260.774947 207.727465 
L 260.828206 211.052378 
L 260.970233 228.904358 
L 261.023493 225.995097 
L 261.183272 204.209806 
L 261.236532 208.189008 
L 261.431819 242.035986 
L 261.502832 236.479098 
L 261.627105 223.923386 
L 261.662611 225.444514 
L 261.840144 246.036991 
L 261.911158 242.289515 
L 262.053184 230.941265 
L 262.088691 232.557751 
L 262.24847 244.916768 
L 262.30173 241.766326 
L 262.443756 228.926315 
L 262.497016 231.535449 
L 262.639043 244.08307 
L 262.674549 241.492992 
L 262.887589 197.977804 
L 262.976355 207.72898 
L 263.153888 234.657519 
L 263.189395 232.961376 
L 263.313668 225.499344 
L 263.349175 226.88822 
L 263.491201 236.972245 
L 263.526708 234.929078 
L 263.721994 203.891401 
L 263.81076 213.398782 
L 263.952787 235.943663 
L 264.006047 232.388687 
L 264.165826 210.848264 
L 264.219086 215.18836 
L 264.396619 242.011577 
L 264.449879 238.122462 
L 264.591905 220.398051 
L 264.645165 222.921014 
L 264.822698 245.554119 
L 264.893711 242.003037 
L 265.017985 233.519933 
L 265.053491 235.07992 
L 265.213271 248.378964 
L 265.266531 245.395766 
L 265.408557 230.908129 
L 265.461817 233.184678 
L 265.603843 248.927206 
L 265.657103 245.470511 
L 265.870143 205.390355 
L 265.941156 214.424549 
L 266.083182 235.270852 
L 266.118689 232.909015 
L 266.278469 211.011011 
L 266.331729 215.157107 
L 266.491508 242.395739 
L 266.562521 236.09942 
L 266.722301 210.213904 
L 266.757808 213.009945 
L 266.917587 241.085444 
L 266.988601 234.245633 
L 267.166134 197.558931 
L 267.219393 203.507098 
L 267.396926 239.547688 
L 267.46794 234.790509 
L 267.592213 221.95316 
L 267.645473 225.42299 
L 267.823006 247.301045 
L 267.876265 244.627315 
L 268.018292 233.183906 
L 268.071552 234.481267 
L 268.178071 238.666954 
L 268.213578 237.316358 
L 268.391111 221.350384 
L 268.444371 225.031385 
L 268.604151 244.496945 
L 268.65741 240.024099 
L 268.81719 213.04425 
L 268.888203 218.745109 
L 269.03023 241.921407 
L 269.08349 236.946101 
L 269.278776 192.861986 
L 269.332036 199.343224 
L 269.509569 235.072926 
L 269.562829 229.284731 
L 269.704855 205.574864 
L 269.758115 209.076871 
L 269.917895 234.270387 
L 269.971154 230.187264 
L 270.130934 203.46134 
L 270.184194 207.28248 
L 270.361727 237.242348 
L 270.414987 232.865879 
L 270.574767 210.39117 
L 270.628026 214.941875 
L 270.805559 240.596763 
L 270.858819 237.759921 
L 270.983092 228.413195 
L 271.018599 229.960083 
L 271.196132 246.85884 
L 271.249392 243.201655 
L 271.391418 229.531825 
L 271.444678 232.848046 
L 271.568951 245.918344 
L 271.622211 242.205216 
L 271.817497 201.731616 
L 271.888511 209.190356 
L 272.030537 233.37187 
L 272.066044 230.169597 
L 272.279083 179.752798 
L 272.350096 191.48789 
L 272.509876 224.846427 
L 272.563136 220.660282 
L 272.705162 204.125229 
L 272.740669 206.53266 
L 272.900449 227.928394 
L 272.953708 224.233574 
L 273.113488 199.89977 
L 273.166748 203.558362 
L 273.344281 230.664502 
L 273.397541 225.797748 
L 273.539567 205.12904 
L 273.592827 209.039931 
L 273.788113 245.648103 
L 273.859127 241.173659 
L 273.9834 229.225446 
L 274.03666 231.769848 
L 274.178686 245.062351 
L 274.231946 242.882388 
L 274.391725 227.588479 
L 274.462739 230.530852 
L 274.551505 235.485629 
L 274.587012 234.104432 
L 274.711285 212.674597 
L 274.800051 203.732897 
L 274.835558 206.401102 
L 275.030844 237.695741 
L 275.084104 232.380848 
L 275.22613 210.252162 
L 275.27939 213.024425 
L 275.43917 234.825135 
L 275.49243 229.656927 
L 275.669963 198.280508 
L 275.723223 204.155648 
L 275.883002 231.424769 
L 275.936262 226.017057 
L 276.096042 198.920156 
L 276.149302 204.825461 
L 276.326835 239.585299 
L 276.380095 234.535592 
L 276.522121 211.877262 
L 276.575381 215.837486 
L 276.752914 249.4753 
L 276.823927 244.347801 
L 276.965954 226.74253 
L 277.019213 230.357724 
L 277.16124 246.6313 
L 277.2145 243.374633 
L 277.392033 221.928162 
L 277.445293 225.250458 
L 277.551812 232.854442 
L 277.587319 230.500905 
L 277.782605 193.688355 
L 277.871372 204.980938 
L 278.013398 233.599426 
L 278.066658 230.047107 
L 278.226438 202.399531 
L 278.297451 208.277939 
L 278.439477 230.332806 
L 278.492737 226.719524 
L 278.652517 203.012275 
L 278.705777 207.78997 
L 278.865556 235.913627 
L 278.918816 232.136994 
L 279.078596 203.988971 
L 279.149609 210.683206 
L 279.309389 240.282343 
L 279.362649 236.459474 
L 279.522428 212.748579 
L 279.575688 217.482614 
L 279.753221 248.132692 
L 279.824234 243.596276 
L 279.948507 231.681629 
L 280.001767 234.497641 
L 280.143794 249.153382 
L 280.197054 247.176758 
L 280.356833 231.618325 
L 280.410093 233.97859 
L 280.534366 243.45666 
L 280.569873 241.554889 
L 280.765159 208.798597 
L 280.853926 218.305342 
L 280.995952 242.096506 
L 281.049212 238.485399 
L 281.208992 215.96857 
L 281.262251 220.264745 
L 281.422031 242.36416 
L 281.457538 239.506118 
L 281.635071 207.464207 
L 281.706084 214.112592 
L 281.865864 241.724805 
L 281.919123 237.704513 
L 282.078903 214.638806 
L 282.132163 218.130624 
L 282.291943 236.749279 
L 282.327449 234.34801 
L 282.504982 211.267617 
L 282.558242 215.20981 
L 282.735775 236.588524 
L 282.789035 233.275694 
L 282.913308 224.113596 
L 282.948815 225.751083 
L 283.126348 243.78017 
L 283.197361 239.203116 
L 283.321634 228.891216 
L 283.357141 230.248071 
L 283.499167 242.215946 
L 283.552427 237.489203 
L 283.765466 192.531113 
L 283.83648 201.882373 
L 283.978506 227.813948 
L 284.031766 224.834888 
L 284.191546 203.849718 
L 284.244805 208.486783 
L 284.404585 231.329384 
L 284.457845 226.790262 
L 284.617625 204.447453 
L 284.670885 209.604607 
L 284.830664 235.377676 
L 284.883924 231.359046 
L 285.043704 206.495529 
L 285.096964 210.03403 
L 285.256743 233.551141 
L 285.310003 229.890005 
L 285.469783 206.035971 
L 285.523043 209.730229 
L 285.718329 239.830233 
L 285.771589 236.414493 
L 285.895862 226.274696 
L 285.931369 227.847401 
L 286.108902 245.044358 
L 286.162161 241.408993 
L 286.304188 227.69365 
L 286.357448 230.435694 
L 286.463968 239.578587 
L 286.517227 235.976683 
L 286.730267 187.252114 
L 286.80128 197.632341 
L 286.978813 236.778612 
L 287.01432 233.468178 
L 287.174099 206.759125 
L 287.227359 210.85753 
L 287.387139 235.727487 
L 287.440399 230.8802 
L 287.600179 204.629359 
L 287.653438 209.39326 
L 287.813218 237.171704 
L 287.866478 233.209998 
L 288.026258 206.408518 
L 288.079518 210.228011 
L 288.239297 237.150082 
L 288.292557 233.496421 
L 288.47009 204.967898 
L 288.52335 210.673545 
L 288.700883 241.846731 
L 288.754143 239.095717 
L 288.878416 227.772679 
L 288.931676 230.442197 
L 289.091456 247.18886 
L 289.144715 243.68027 
L 289.304495 227.052239 
L 289.340002 229.02196 
L 289.464275 241.319976 
L 289.517535 237.919889 
L 289.730574 193.72127 
L 289.801587 204.403517 
L 289.961367 236.196351 
L 289.996874 233.711428 
L 290.174407 207.734283 
L 290.227667 213.10566 
L 290.369693 235.279763 
L 290.422953 232.548655 
L 290.582732 210.002186 
L 290.635992 213.922878 
L 290.813525 243.04966 
L 290.884539 237.29177 
L 291.008812 221.736745 
L 291.062072 224.101011 
L 291.221851 243.323592 
L 291.275111 240.023103 
L 291.434891 218.867925 
L 291.488151 221.921984 
L 291.665684 245.450967 
L 291.736697 240.771419 
L 291.86097 230.008055 
L 291.896476 231.31482 
L 292.056256 246.187597 
L 292.127269 242.347804 
L 292.269296 229.632828 
L 292.322556 231.927465 
L 292.411322 237.948542 
L 292.464582 235.101888 
L 292.606608 197.625668 
L 292.677622 185.720754 
L 292.730881 189.669986 
L 292.926168 232.844054 
L 292.997181 222.737762 
L 293.139207 196.388494 
L 293.192467 201.558009 
L 293.352247 231.175182 
L 293.405507 227.349648 
L 293.565286 200.449695 
L 293.6363 205.599187 
L 293.760573 221.292066 
L 293.813833 217.380248 
L 293.973612 189.995749 
L 294.026872 194.299314 
L 294.222158 235.004565 
L 294.293172 226.593566 
L 294.417445 206.468023 
L 294.470705 210.075105 
L 294.665991 245.776213 
L 294.737004 240.257874 
L 294.861277 227.891961 
L 294.914537 230.721731 
L 295.056563 242.967752 
L 295.09207 241.290505 
L 295.269603 222.565412 
L 295.340616 226.099367 
L 295.429383 231.042002 
L 295.464889 229.065684 
L 295.677929 192.305093 
L 295.766695 204.236655 
L 295.890968 225.841638 
L 295.944228 222.8698 
L 296.104008 198.108726 
L 296.157268 202.22936 
L 296.334801 232.67418 
L 296.388061 227.657053 
L 296.54784 202.643064 
L 296.6011 207.374928 
L 296.76088 232.199439 
L 296.81414 228.374745 
L 296.973919 208.186878 
L 297.009426 210.691197 
L 297.151452 230.252539 
L 297.204712 227.06381 
L 297.399999 189.950468 
L 297.453258 196.656758 
L 297.648545 238.630369 
L 297.701805 234.834597 
L 297.826078 221.840376 
L 297.879338 225.090934 
L 298.039117 244.820065 
L 298.092377 241.866858 
L 298.234404 226.349003 
L 298.287663 228.52906 
L 298.411937 240.333026 
L 298.465196 236.908219 
L 298.660483 199.167808 
L 298.731496 205.98636 
L 298.855769 225.774286 
L 298.909029 221.652294 
L 299.104315 179.024665 
L 299.175328 189.323393 
L 299.335108 219.537926 
L 299.370615 216.415151 
L 299.530394 191.331853 
L 299.583654 196.187032 
L 299.761187 226.320751 
L 299.814447 221.1289 
L 299.956473 200.36941 
L 300.009733 204.083749 
L 300.169513 228.396477 
L 300.222773 224.811339 
L 300.382553 200.62808 
L 300.435812 204.209962 
L 300.613345 233.061846 
L 300.684359 228.764073 
L 300.826385 215.776006 
L 300.861892 217.511562 
L 301.003918 229.734698 
L 301.057178 227.536895 
L 301.216958 212.168189 
L 301.287971 215.0305 
L 301.358984 218.966442 
L 301.412244 216.305745 
L 301.625283 177.215496 
L 301.696297 188.789071 
L 301.856076 228.435324 
L 301.909336 224.658042 
L 302.069116 194.607792 
L 302.140129 201.973301 
L 302.282155 229.201276 
L 302.335415 225.825531 
L 302.512948 196.001728 
L 302.566208 201.968783 
L 302.725988 228.408191 
L 302.779248 223.07518 
L 302.939027 199.052484 
L 302.974534 201.961983 
L 303.134314 226.638563 
L 303.187573 221.805626 
L 303.347353 190.0527 
L 303.418366 197.384096 
L 303.613653 237.954476 
L 303.666913 233.330449 
L 303.791186 220.665122 
L 303.826692 222.690981 
L 304.004225 243.875668 
L 304.057485 239.542336 
L 304.199511 222.798772 
L 304.252771 225.759768 
L 304.377044 237.069916 
L 304.412551 234.14125 
L 304.625591 183.682968 
L 304.714357 197.718886 
L 304.856383 226.214826 
L 304.89189 223.543668 
L 305.05167 195.007234 
L 305.122683 201.398231 
L 305.264709 226.37387 
L 305.317969 222.131268 
L 305.477749 192.052457 
L 305.531009 196.719228 
L 305.708542 233.744377 
L 305.761802 228.655073 
L 305.921581 200.962433 
L 305.974841 206.923559 
L 306.134621 237.47012 
L 306.187881 232.694472 
L 306.34766 204.226942 
L 306.40092 209.435709 
L 306.578453 244.860571 
L 306.649466 238.575742 
L 306.77374 221.930308 
L 306.826999 224.821059 
L 306.986779 244.840789 
L 307.040039 241.135445 
L 307.199819 221.969559 
L 307.253079 225.193278 
L 307.359598 234.580344 
L 307.412858 230.655477 
L 307.608144 190.820707 
L 307.679158 199.239602 
L 307.838937 228.406341 
L 307.874444 225.670655 
L 308.051977 199.00231 
L 308.105237 204.327495 
L 308.22951 221.684654 
L 308.28277 217.248486 
L 308.460303 180.038849 
L 308.531316 189.451604 
L 308.691096 224.7562 
L 308.744356 219.931213 
L 308.886382 194.409986 
L 308.939642 198.154084 
L 309.117175 231.713789 
L 309.170435 225.844218 
L 309.330214 196.727787 
L 309.383474 203.162331 
L 309.561007 242.863694 
L 309.63202 237.420087 
L 309.756293 222.472838 
L 309.809553 226.127303 
L 309.969333 245.492528 
L 310.022593 240.868773 
L 310.164619 223.068626 
L 310.217879 226.440042 
L 310.342152 240.017791 
L 310.377659 237.477807 
L 310.519685 196.501361 
L 310.590698 185.33534 
L 310.643958 191.123408 
L 310.821491 230.154301 
L 310.874751 222.898617 
L 311.034531 188.97482 
L 311.087791 194.610718 
L 311.24757 223.225545 
L 311.283077 219.521815 
L 311.46061 182.366693 
L 311.51387 188.607995 
L 311.691403 226.395256 
L 311.744663 220.183256 
L 311.886689 194.404342 
L 311.939949 198.575132 
L 312.099729 228.419264 
L 312.170742 221.509637 
L 312.312768 197.03846 
L 312.366028 202.061363 
L 312.561314 241.149593 
L 312.614574 236.887661 
L 312.738847 222.256959 
L 312.792107 225.022657 
L 312.951887 243.213565 
L 313.005147 238.983521 
L 313.147173 220.393997 
L 313.200433 222.598886 
L 313.324706 234.891036 
L 313.377966 230.154987 
L 313.573252 183.612696 
L 313.644266 192.890079 
L 313.804045 229.609626 
L 313.857305 224.771843 
L 314.017085 194.530107 
L 314.070345 198.627672 
L 314.212371 221.316484 
L 314.265631 216.919587 
L 314.443164 182.696317 
L 314.496424 189.254758 
L 314.656203 224.516137 
L 314.727217 217.815508 
L 314.869243 192.761443 
L 314.922503 197.361501 
L 315.082283 227.805642 
L 315.153296 221.193261 
L 315.295322 197.553573 
L 315.348582 202.843243 
L 315.543868 242.686317 
L 315.597128 238.376195 
L 315.721401 222.825751 
L 315.774661 225.19421 
L 315.934441 244.329244 
L 315.987701 240.700593 
L 316.14748 220.643665 
L 316.20074 223.694196 
L 316.325013 234.805069 
L 316.36052 232.357593 
L 316.555806 194.327236 
L 316.644573 204.897826 
L 316.786599 228.376659 
L 316.822106 225.734422 
L 316.981885 199.777924 
L 317.052899 206.717409 
L 317.212678 233.483485 
L 317.248185 230.300851 
L 317.425718 199.796226 
L 317.478978 206.271241 
L 317.656511 242.61649 
L 317.709771 238.607244 
L 317.851797 220.137591 
L 317.905057 223.945453 
L 318.047083 242.867064 
L 318.100343 238.960859 
L 318.277876 209.135206 
L 318.331136 213.776109 
L 318.490916 239.510525 
L 318.544176 236.472761 
L 318.686202 219.54117 
L 318.739462 223.400181 
L 318.899241 247.60953 
L 318.952501 243.926622 
L 319.112281 218.481658 
L 319.183294 223.640118 
L 319.307567 238.283645 
L 319.343074 235.447866 
L 319.556113 189.374331 
L 319.627127 199.405836 
L 319.769153 224.325607 
L 319.80466 221.754653 
L 319.964439 194.241849 
L 320.035453 200.415865 
L 320.195232 227.571817 
L 320.248492 222.73081 
L 320.390518 202.217883 
L 320.443778 207.852196 
L 320.621311 246.652633 
L 320.692325 240.60744 
L 320.834351 219.147934 
L 320.887611 222.230718 
L 321.011884 235.386492 
L 321.04739 233.173073 
L 321.242677 194.165737 
L 321.331443 207.31792 
L 321.491223 238.585795 
L 321.526729 235.660357 
L 321.668756 214.523719 
L 321.739769 220.131344 
L 321.899549 243.619534 
L 321.935055 240.928321 
L 322.094835 217.717711 
L 322.165848 223.69129 
L 322.290121 238.249238 
L 322.325628 234.864978 
L 322.538667 186.063452 
L 322.609681 196.202341 
L 322.733954 218.652392 
L 322.787214 214.602216 
L 322.946993 187.102713 
L 323.000253 193.307201 
L 323.160033 228.449027 
L 323.213293 223.624953 
L 323.390826 186.956056 
L 323.444086 194.6539 
L 323.603865 230.799071 
L 323.657125 225.351867 
L 323.816905 192.882628 
L 323.870165 198.223157 
L 324.029944 229.784504 
L 324.083204 224.242168 
L 324.242984 191.3812 
L 324.296244 197.095179 
L 324.49153 241.556404 
L 324.54479 236.258985 
L 324.686816 216.82052 
L 324.722323 219.209591 
L 324.899856 243.413019 
L 324.953116 238.364131 
L 325.130649 215.067299 
L 325.183909 217.795529 
L 325.254922 220.934029 
L 325.290428 218.920354 
L 325.414702 190.972996 
L 325.503468 177.903984 
L 325.538975 180.58451 
L 325.734261 224.835436 
L 325.823027 214.373997 
L 325.9473 194.718364 
L 325.982807 197.053478 
L 326.16034 228.633601 
L 326.231353 219.662442 
L 326.462146 172.6931 
L 326.515406 174.172633 
L 326.550913 175.007863 
L 326.604172 173.861632 
L 326.728446 166.713744 
L 326.763952 168.509303 
L 326.888225 195.005271 
L 326.976992 208.578016 
L 327.030252 203.964159 
L 327.207785 168.282753 
L 327.261044 175.323151 
L 327.474084 227.49978 
L 327.527344 222.801487 
L 327.651617 210.467417 
L 327.687124 212.841691 
L 327.864657 234.899825 
L 327.917916 230.902638 
L 328.04219 217.7197 
L 328.095449 220.354006 
L 328.219723 233.039131 
L 328.255229 230.553814 
L 328.379502 192.533697 
L 328.486022 170.978578 
L 328.521529 174.998185 
L 328.716815 222.464574 
L 328.787828 210.999496 
L 328.912101 184.880756 
L 328.965361 188.902545 
L 329.142894 223.323637 
L 329.196154 216.140049 
L 329.355934 184.884458 
L 329.409193 191.45558 
L 329.568973 222.089261 
L 329.622233 215.916415 
L 329.782013 187.106521 
L 329.817519 190.660893 
L 329.995052 225.675807 
L 330.048312 219.150049 
L 330.208092 185.429757 
L 330.261352 191.44247 
L 330.456638 236.110111 
L 330.509898 231.392347 
L 330.634171 215.081742 
L 330.687431 218.187961 
L 330.84721 240.166126 
L 330.90047 236.528538 
L 331.06025 216.693852 
L 331.11351 221.040933 
L 331.237783 236.015599 
L 331.291043 231.837327 
L 331.486329 192.88444 
L 331.557342 200.484005 
L 331.681615 218.598169 
L 331.734875 214.515588 
L 331.894655 187.639485 
L 331.947915 191.818252 
L 332.107695 219.253926 
L 332.160954 214.354414 
L 332.338487 181.186959 
L 332.391747 187.020196 
L 332.551527 212.899737 
L 332.587034 209.807924 
L 332.746813 183.811399 
L 332.800073 189.325065 
L 332.977606 226.771301 
L 333.030866 221.136944 
L 333.190646 188.188764 
L 333.261659 194.571816 
L 333.421439 222.53873 
L 333.474698 220.156676 
L 333.598972 209.827347 
L 333.634478 211.82331 
L 333.812011 233.930387 
L 333.865271 228.729385 
L 334.025051 204.361439 
L 334.078311 208.880018 
L 334.220337 227.91167 
L 334.255844 224.704165 
L 334.45113 180.334868 
L 334.522143 189.585805 
L 334.664169 220.4834 
L 334.717429 216.503804 
L 334.894962 183.077932 
L 334.948222 189.591654 
L 335.090249 217.129728 
L 335.143508 213.458474 
L 335.303288 182.243806 
L 335.374301 189.227969 
L 335.534081 218.31721 
L 335.569588 215.154789 
L 335.729367 185.079223 
L 335.80038 192.465053 
L 335.96016 224.260961 
L 336.01342 218.987791 
L 336.1732 191.540309 
L 336.22646 197.7886 
L 336.403993 230.653802 
L 336.457252 224.944767 
L 336.581525 206.079855 
L 336.634785 209.234363 
L 336.812318 240.022008 
L 336.883332 233.254906 
L 337.025358 214.528168 
L 337.060864 216.763229 
L 337.202891 232.308612 
L 337.238397 229.238386 
L 337.451437 183.3091 
L 337.52245 194.784627 
L 337.664477 222.676491 
L 337.717736 217.611479 
L 337.877516 191.308885 
L 337.930776 197.226768 
L 338.090556 224.356335 
L 338.143816 218.667821 
L 338.303595 191.409612 
L 338.356855 196.313259 
L 338.498882 219.320943 
L 338.552141 215.703374 
L 338.711921 186.990338 
L 338.782934 193.165043 
L 338.924961 217.390723 
L 338.978221 212.705213 
L 339.155754 178.259504 
L 339.209013 185.123812 
L 339.4043 230.317728 
L 339.475313 225.476827 
L 339.581833 216.824343 
L 339.617339 218.719707 
L 339.794872 238.921683 
L 339.848132 235.575125 
L 339.990159 222.859025 
L 340.025665 224.416508 
L 340.132185 232.950751 
L 340.185445 229.639255 
L 340.345224 182.411538 
L 340.416238 173.768396 
L 340.451744 177.480309 
L 340.629277 216.856321 
L 340.70029 208.753744 
L 340.842317 183.360093 
L 340.877823 186.287954 
L 341.055356 223.276765 
L 341.12637 215.076788 
L 341.268396 185.679632 
L 341.321656 189.302919 
L 341.481435 219.807252 
L 341.552449 213.250269 
L 341.694475 189.284967 
L 341.747735 194.155285 
L 341.907515 221.143229 
L 341.960775 214.016526 
L 342.120554 176.828059 
L 342.173814 182.100603 
L 342.3691 232.15126 
L 342.440114 225.488886 
L 342.564387 208.873399 
L 342.617647 212.948349 
L 342.777426 235.287384 
L 342.830686 231.906369 
L 342.954959 218.270566 
L 343.008219 220.484467 
L 343.132492 232.951865 
L 343.167999 230.559897 
L 343.292272 193.083567 
L 343.398792 172.025763 
L 343.434298 175.93588 
L 343.611831 216.07516 
L 343.665091 208.70415 
L 343.842624 166.016852 
L 343.895884 172.890509 
L 344.03791 199.447575 
L 344.073417 196.051279 
L 344.25095 151.912177 
L 344.321963 161.159744 
L 344.481743 201.519218 
L 344.535003 195.981248 
L 344.694782 163.410719 
L 344.748042 170.334987 
L 344.925575 210.248041 
L 344.978835 204.123065 
L 345.120861 180.556689 
L 345.156368 183.634612 
L 345.351654 225.048889 
L 345.422667 216.758778 
L 345.564694 195.192053 
L 345.6002 197.594604 
L 345.777733 221.295969 
L 345.830993 217.471842 
L 345.955266 204.864361 
L 346.008526 207.119312 
L 346.115046 216.472372 
L 346.168306 213.054 
L 346.381346 166.459047 
L 346.452359 177.459825 
L 346.594385 207.213554 
L 346.647645 202.224899 
L 346.807425 172.125713 
L 346.860685 177.766879 
L 347.002711 204.309137 
L 347.055971 197.330453 
L 347.251257 138.553253 
L 347.32227 152.194602 
L 347.499803 200.209669 
L 347.53531 197.109723 
L 347.677336 176.455232 
L 347.730596 181.980649 
L 347.908129 214.729936 
L 347.961389 208.753055 
L 348.103415 186.619098 
L 348.156675 191.888125 
L 348.334208 226.54195 
L 348.405221 221.565648 
L 348.529494 209.166008 
L 348.565001 211.003082 
L 348.707027 226.921622 
L 348.778041 221.80735 
L 348.93782 199.276785 
L 348.99108 203.378476 
L 349.115353 217.295159 
L 349.15086 214.229419 
L 349.363899 161.25253 
L 349.452666 177.823069 
L 349.576939 205.772834 
L 349.630199 200.146218 
L 349.807732 157.890226 
L 349.860992 164.037763 
L 350.020771 198.32965 
L 350.074031 193.859199 
L 350.233811 164.295809 
L 350.304824 169.949807 
L 350.411344 183.004058 
L 350.464604 178.326747 
L 350.642137 137.563912 
L 350.71315 146.186245 
L 350.890683 185.537829 
L 350.943943 179.71649 
L 351.068216 161.226145 
L 351.121476 166.789398 
L 351.334515 216.590884 
L 351.405529 209.780152 
L 351.494295 200.326329 
L 351.547555 202.816203 
L 351.707335 223.976218 
L 351.760595 220.296437 
L 351.920374 197.865012 
L 351.973634 201.327687 
L 352.097907 214.152794 
L 352.133414 210.885369 
L 352.346453 156.468258 
L 352.43522 173.007274 
L 352.577246 203.096497 
L 352.612753 199.200324 
L 352.790286 164.117037 
L 352.843546 171.19129 
L 352.985572 200.002865 
L 353.038832 195.37534 
L 353.198612 160.821357 
L 353.251872 165.919004 
L 353.429404 211.177494 
L 353.500418 203.999614 
L 353.642444 177.763003 
L 353.695704 182.817709 
L 353.855484 212.720759 
L 353.908744 208.004318 
L 354.05077 182.146559 
L 354.10403 186.10077 
L 354.317069 233.487603 
L 354.388083 225.427385 
L 354.512356 211.25128 
L 354.547862 213.355845 
L 354.689889 229.475819 
L 354.760902 225.081206 
L 354.902928 209.1376 
L 354.956188 212.102165 
L 355.062708 221.109913 
L 355.098214 218.633823 
L 355.222488 180.800676 
L 355.329007 157.115173 
L 355.364514 160.074185 
L 355.5598 206.828722 
L 355.630813 197.794452 
L 355.77284 173.814878 
L 355.808346 176.893941 
L 355.968126 203.837073 
L 356.021386 198.667808 
L 356.181166 168.075439 
L 356.234425 174.366088 
L 356.411958 217.646037 
L 356.482972 209.684922 
L 356.624998 185.17195 
L 356.678258 190.077538 
L 356.802531 209.070705 
L 356.855791 203.778627 
L 357.051077 151.520534 
L 357.12209 165.091119 
L 357.317377 223.80279 
L 357.370636 219.983323 
L 357.49491 206.202917 
L 357.548169 209.339016 
L 357.690196 224.556044 
L 357.743456 221.204653 
L 357.920989 199.794217 
L 357.992002 201.844013 
L 358.027508 202.62557 
L 358.063015 201.257342 
L 358.151782 184.132515 
L 358.311561 150.424313 
L 358.347068 153.830255 
L 358.542354 194.107456 
L 358.613367 185.502765 
L 358.73764 167.603594 
L 358.773147 170.280059 
L 358.95068 204.296961 
L 359.021693 196.624787 
L 359.181473 166.346183 
L 359.234733 170.73828 
L 359.376759 190.727863 
L 359.430019 186.233029 
L 359.572045 163.392003 
L 359.625305 168.27931 
L 359.820591 215.906848 
L 359.891605 207.545492 
L 360.033631 182.544021 
L 360.086891 187.969043 
L 360.264424 222.443849 
L 360.335437 216.938313 
L 360.45971 203.800236 
L 360.495217 205.507931 
L 360.67275 224.743047 
L 360.72601 221.536156 
L 360.850283 211.273475 
L 360.903543 213.949713 
L 361.010062 223.490239 
L 361.063322 220.110688 
L 361.276362 169.705553 
L 361.365128 184.007819 
L 361.489401 210.964824 
L 361.542661 206.811667 
L 361.720194 171.338924 
L 361.773454 178.542641 
L 361.933234 211.652917 
L 361.986494 205.191181 
L 362.146273 171.657506 
L 362.199533 177.427462 
L 362.359313 210.172782 
L 362.412573 204.455028 
L 362.572353 170.743257 
L 362.625612 175.730138 
L 362.785392 205.389431 
L 362.838652 197.47965 
L 363.016185 153.13393 
L 363.069445 161.232178 
L 363.264731 213.833619 
L 363.335744 208.479715 
L 363.442264 198.202273 
L 363.495524 201.279298 
L 363.619797 214.429525 
L 363.673057 211.960088 
L 363.85059 190.403578 
L 363.90385 194.537213 
L 364.01037 204.31286 
L 364.045876 201.547999 
L 364.258916 150.560211 
L 364.329929 163.917996 
L 364.489709 208.251211 
L 364.542969 202.282083 
L 364.702748 168.690915 
L 364.756008 175.673069 
L 364.898034 206.865046 
L 364.951294 200.462404 
L 365.128827 146.408639 
L 365.199841 157.156458 
L 365.35962 202.290197 
L 365.41288 195.181209 
L 365.590413 148.575508 
L 365.643673 154.916117 
L 365.803453 188.225791 
L 365.856713 184.677166 
L 365.980986 168.97463 
L 366.034245 174.043027 
L 366.229532 218.960775 
L 366.300545 213.460632 
L 366.424818 198.388321 
L 366.478078 201.78695 
L 366.637858 221.932663 
L 366.691117 219.459368 
L 366.815391 209.375011 
L 366.86865 211.927831 
L 366.97517 220.912361 
L 367.010677 219.058819 
L 367.117197 189.974139 
L 367.24147 158.213798 
L 367.29473 163.510598 
L 367.472263 205.520968 
L 367.525522 199.437994 
L 367.685302 168.499541 
L 367.720809 172.250331 
L 367.898342 210.52438 
L 367.951602 204.015942 
L 368.111381 169.736197 
L 368.164641 176.298084 
L 368.324421 213.4663 
L 368.377681 208.309994 
L 368.53746 172.063299 
L 368.608474 179.419445 
L 368.7505 205.685684 
L 368.80376 199.473655 
L 368.96354 165.27529 
L 369.016799 171.501984 
L 369.194332 211.043587 
L 369.247592 203.595677 
L 369.407372 170.543014 
L 369.460632 176.423524 
L 369.620412 203.602521 
L 369.655918 200.38193 
L 369.815698 174.304012 
L 369.868958 178.665009 
L 369.993231 195.874679 
L 370.028737 192.676744 
L 370.170764 141.127036 
L 370.241777 126.399273 
L 370.295037 132.710143 
L 370.47257 182.889529 
L 370.543583 173.311554 
L 370.667856 147.217914 
L 370.721116 152.083397 
L 370.898649 192.397045 
L 370.951909 184.911134 
L 371.111688 149.965928 
L 371.147195 154.074315 
L 371.342481 203.720193 
L 371.413495 194.133981 
L 371.537768 173.106779 
L 371.573274 175.92558 
L 371.750807 214.536215 
L 371.839574 203.659227 
L 371.963847 180.051023 
L 372.017107 183.529029 
L 372.19464 214.297465 
L 372.2479 209.739525 
L 372.389926 189.899185 
L 372.443186 193.349374 
L 372.602965 215.3721 
L 372.656225 212.468643 
L 372.798252 197.264415 
L 372.851512 199.889008 
L 372.958031 210.146882 
L 373.011291 207.32214 
L 373.224331 164.367182 
L 373.295344 175.651507 
L 373.43737 205.321529 
L 373.49063 201.0121 
L 373.65041 171.785729 
L 373.70367 175.665306 
L 373.86345 199.463179 
L 373.916709 193.717462 
L 374.058736 169.334682 
L 374.111996 173.702364 
L 374.271775 205.918479 
L 374.342789 197.915678 
L 374.502568 163.835103 
L 374.555828 169.654033 
L 374.715608 199.201626 
L 374.751114 195.360649 
L 374.928647 157.372525 
L 374.981907 165.449855 
L 375.177194 218.16789 
L 375.230453 212.495759 
L 375.37248 191.53135 
L 375.407986 194.331708 
L 375.585519 222.165787 
L 375.638779 217.988171 
L 375.763052 202.57553 
L 375.816312 205.005309 
L 375.940585 218.428216 
L 375.976092 215.806656 
L 376.100365 175.86885 
L 376.206885 154.205546 
L 376.242391 158.801126 
L 376.437678 209.129928 
L 376.508691 198.593418 
L 376.632964 175.640408 
L 376.686224 179.907694 
L 376.82825 203.221654 
L 376.88151 197.546362 
L 377.059043 158.293979 
L 377.112303 165.834626 
L 377.272083 205.522056 
L 377.343096 198.018182 
L 377.485122 171.8612 
L 377.538382 177.852395 
L 377.698162 208.081225 
L 377.733668 204.325278 
L 377.911201 164.7884 
L 377.964461 171.723647 
L 378.159747 221.776316 
L 378.230761 214.4285 
L 378.33728 201.017606 
L 378.39054 204.164472 
L 378.532567 222.916838 
L 378.585827 220.006378 
L 378.745606 199.406432 
L 378.798866 202.138655 
L 378.869879 207.61395 
L 378.923139 203.549405 
L 379.047412 151.284414 
L 379.171685 112.958674 
L 379.207192 118.50513 
L 379.384725 173.154355 
L 379.437985 161.809525 
L 379.615518 95.7255 
L 379.668778 105.627186 
L 379.828557 158.433807 
L 379.881817 150.453802 
L 380.041597 104.120122 
L 380.094857 115.723826 
L 380.290143 196.529318 
L 380.361156 186.140317 
L 380.485429 161.255663 
L 380.520936 164.397021 
L 380.698469 201.745971 
L 380.769482 191.216975 
L 380.893755 168.338958 
L 380.929262 171.19341 
L 381.106795 209.59478 
L 381.177808 199.800648 
L 381.302081 173.307494 
L 381.355341 178.138581 
L 381.532874 222.229283 
L 381.603887 211.355851 
L 381.745913 181.549153 
L 381.78142 184.770003 
L 381.923446 210.327206 
L 381.976706 202.309378 
L 382.154239 142.760882 
L 382.225253 156.862225 
L 382.367279 200.396208 
L 382.402785 193.958463 
L 382.615825 98.156396 
L 382.686838 121.740843 
L 382.846618 183.569437 
L 382.882125 177.312032 
L 383.041904 131.538379 
L 383.095164 142.927066 
L 383.254944 197.950463 
L 383.308204 187.925187 
L 383.467983 130.985779 
L 383.521243 140.524814 
L 383.698776 209.202279 
L 383.752036 199.556527 
L 383.929569 140.916275 
L 383.982829 151.967158 
L 384.160362 208.294906 
L 384.213622 204.382182 
L 384.320142 190.520564 
L 384.373401 194.172664 
L 384.533181 220.027076 
L 384.586441 213.03315 
L 384.763974 174.768386 
L 384.817234 179.563636 
L 384.923754 191.440686 
L 384.95926 188.036246 
L 385.136793 140.453547 
L 385.207806 151.053638 
L 385.367586 202.416426 
L 385.420846 191.92145 
L 385.616132 107.060055 
L 385.687145 121.691213 
L 385.846925 168.345103 
L 385.882432 164.007444 
L 386.024458 134.707859 
L 386.077718 142.567264 
L 386.273004 200.823336 
L 386.326264 192.715193 
L 386.468291 164.270286 
L 386.503797 167.74523 
L 386.663577 201.047427 
L 386.716837 194.383217 
L 386.89437 146.622042 
L 386.94763 153.551794 
L 387.125163 198.093644 
L 387.178422 193.846875 
L 387.302696 177.010433 
L 387.355955 181.705213 
L 387.515735 211.8349 
L 387.586748 205.62794 
L 387.711021 186.647868 
L 387.764281 189.809005 
L 387.888554 207.120514 
L 387.941814 201.366923 
L 388.1371 138.274354 
L 388.225867 153.939136 
L 388.35014 183.158667 
L 388.385647 178.0116 
L 388.580933 104.532988 
L 388.669699 125.978719 
L 388.811726 176.228004 
L 388.864986 171.132094 
L 389.024765 135.160178 
L 389.078025 143.289893 
L 389.237805 183.67606 
L 389.291065 178.961466 
L 389.433091 154.254964 
L 389.486351 159.586801 
L 389.610624 182.486835 
L 389.663884 176.743362 
L 389.85917 115.535694 
L 389.91243 127.708672 
L 390.107716 211.069186 
L 390.17873 201.481101 
L 390.303003 173.900542 
L 390.356263 178.333069 
L 390.533796 213.518756 
L 390.587055 207.760167 
L 390.729082 187.906821 
L 390.764588 190.03716 
L 390.871108 201.632857 
L 390.924368 197.819669 
L 391.119654 145.969231 
L 391.208421 160.453521 
L 391.314941 184.116805 
L 391.368201 177.350284 
L 391.545734 112.938806 
L 391.616747 126.276596 
L 391.79428 191.475819 
L 391.84754 180.073949 
L 392.007319 129.179253 
L 392.060579 138.943259 
L 392.220359 191.501294 
L 392.291372 181.918551 
L 392.415645 151.783666 
L 392.468905 157.331788 
L 392.646438 206.279043 
L 392.699698 197.890977 
L 392.859478 156.407752 
L 392.912737 166.183313 
L 393.09027 224.012856 
L 393.161284 215.079198 
L 393.285557 191.199942 
L 393.338817 196.229986 
L 393.498596 228.336727 
L 393.551856 223.63118 
L 393.711636 195.25594 
L 393.782649 199.169908 
L 393.835909 203.076616 
L 393.889169 199.733916 
L 394.031195 151.699342 
L 394.102208 138.268113 
L 394.155468 144.578203 
L 394.279741 175.261142 
L 394.333001 168.715848 
L 394.546041 74.917553 
L 394.617054 100.524778 
L 394.776834 177.7781 
L 394.830094 166.884367 
L 394.989873 108.23985 
L 395.043133 120.863113 
L 395.220666 195.271208 
L 395.273926 185.861794 
L 395.433706 139.962601 
L 395.469212 144.997258 
L 395.611239 181.979774 
L 395.664498 174.216712 
L 395.842031 111.768747 
L 395.895291 125.017807 
L 396.090578 214.029487 
L 396.143838 205.014799 
L 396.285864 167.958074 
L 396.339124 176.354371 
L 396.48115 217.195636 
L 396.53441 211.452683 
L 396.729696 149.746473 
L 396.800709 157.183372 
L 396.871723 166.376259 
L 396.924983 161.633779 
L 397.102516 108.179369 
L 397.173529 121.520651 
L 397.333308 176.059116 
L 397.386568 166.290576 
L 397.546348 116.938909 
L 397.581855 123.1309 
L 397.741634 177.903772 
L 397.794894 163.77817 
L 397.99018 53.568 
L 398.04344 71.213185 
L 398.220973 175.000866 
L 398.274233 164.868667 
L 398.398506 116.791275 
L 398.451766 127.813612 
L 398.487273 150.922707 
L 398.487273 150.922707 
" clip-path="url(#p0f834e2270)" style="fill: none; stroke: #1f77b4; stroke-width: 1.5; stroke-linecap: square"/>
   </g>
   <g id="patch_3">
    <path d="M 57.6 307.584 
L 57.6 41.472 
" style="fill: none; stroke: #000000; stroke-width: 0.8; stroke-linejoin: miter; stroke-linecap: square"/>
   </g>
   <g id="patch_4">
    <path d="M 414.72 307.584 
L 414.72 41.472 
" style="fill: none; stroke: #000000; stroke-width: 0.8; stroke-linejoin: miter; stroke-linecap: square"/>
   </g>
   <g id="patch_5">
    <path d="M 57.6 307.584 
L 414.72 307.584 
" style="fill: none; stroke: #000000; stroke-width: 0.8; stroke-linejoin: miter; stroke-linecap: square"/>
   </g>
   <g id="patch_6">
    <path d="M 57.6 41.472 
L 414.72 41.472 
" style="fill: none; stroke: #000000; stroke-width: 0.8; stroke-linejoin: miter; stroke-linecap: square"/>
   </g>
  </g>
 </g>
 <defs>
  <clipPath id="p0f834e2270">
   <rect x="57.6" y="41.472" width="357.12" height="266.112"/>
  </clipPath>
 </defs>
</svg>
