<?xml version="1.0" encoding="utf-8" standalone="no"?>
<!DOCTYPE svg PUBLIC "-//W3C//DTD SVG 1.1//EN"
  "http://www.w3.org/Graphics/SVG/1.1/DTD/svg11.dtd">
<svg xmlns:xlink="http://www.w3.org/1999/xlink" width="460.8pt" height="345.6pt" viewBox="0 0 460.8 345.6" xmlns="http://www.w3.org/2000/svg" version="1.1">
 <metadata>
  <rdf:RDF xmlns:dc="http://purl.org/dc/elements/1.1/" xmlns:cc="http://creativecommons.org/ns#" xmlns:rdf="http://www.w3.org/1999/02/22-rdf-syntax-ns#">
   <cc:Work>
    <dc:type rdf:resource="http://purl.org/dc/dcmitype/StillImage"/>
    <dc:format>image/svg+xml</dc:format>
    <dc:creator>
     <cc:Agent>
      <dc:title>Matplotlib v3.8.4, https://matplotlib.org/</dc:title>
     </cc:Agent>
    </dc:creator>
   </cc:Work>
  </rdf:RDF>
 </metadata>
 <defs>
  <style type="text/css">*{stroke-linejoin: round; stroke-linecap: butt}</style>
 </defs>
 <g id="figure_1">
  <g id="patch_1">
   <path d="M 0 345.6 
L 460.8 345.6 
L 460.8 0 
L 0 0 
z
" style="fill: #ffffff"/>
  </g>
  <g id="axes_1">
   <g id="patch_2">
    <path d="M 41.92 67.479633 
L 450 67.479633 
L 450 14.368386 
L 41.92 14.368386 
z
" style="fill: #ffffff"/>
   </g>
   <g id="matplotlib.axis_1">
    <g id="xtick_1">
     <g id="line2d_1">
      <defs>
       <path id="mbcb02aef95" d="M 0 0 
L 0 3.5 
" style="stroke: #000000; stroke-width: 0.8"/>
      </defs>
      <g>
       <use xlink:href="#mbcb02aef95" x="60.469091" y="67.479633" style="stroke: #000000; stroke-width: 0.8"/>
      </g>
     </g>
     <g id="text_1">
      <!-- 0 -->
      <g transform="translate(57.287841 82.07807) scale(0.1 -0.1)">
       <defs>
        <path id="DejaVuSans-30" d="M 2034 4250 
Q 1547 4250 1301 3770 
Q 1056 3291 1056 2328 
Q 1056 1369 1301 889 
Q 1547 409 2034 409 
Q 2525 409 2770 889 
Q 3016 1369 3016 2328 
Q 3016 3291 2770 3770 
Q 2525 4250 2034 4250 
z
M 2034 4750 
Q 2819 4750 3233 4129 
Q 3647 3509 3647 2328 
Q 3647 1150 3233 529 
Q 2819 -91 2034 -91 
Q 1250 -91 836 529 
Q 422 1150 422 2328 
Q 422 3509 836 4129 
Q 1250 4750 2034 4750 
z
" transform="scale(0.015625)"/>
       </defs>
       <use xlink:href="#DejaVuSans-30"/>
      </g>
     </g>
    </g>
    <g id="xtick_2">
     <g id="line2d_2">
      <g>
       <use xlink:href="#mbcb02aef95" x="134.739725" y="67.479633" style="stroke: #000000; stroke-width: 0.8"/>
      </g>
     </g>
     <g id="text_2">
      <!-- 200 -->
      <g transform="translate(125.195975 82.07807) scale(0.1 -0.1)">
       <defs>
        <path id="DejaVuSans-32" d="M 1228 531 
L 3431 531 
L 3431 0 
L 469 0 
L 469 531 
Q 828 903 1448 1529 
Q 2069 2156 2228 2338 
Q 2531 2678 2651 2914 
Q 2772 3150 2772 3378 
Q 2772 3750 2511 3984 
Q 2250 4219 1831 4219 
Q 1534 4219 1204 4116 
Q 875 4013 500 3803 
L 500 4441 
Q 881 4594 1212 4672 
Q 1544 4750 1819 4750 
Q 2544 4750 2975 4387 
Q 3406 4025 3406 3419 
Q 3406 3131 3298 2873 
Q 3191 2616 2906 2266 
Q 2828 2175 2409 1742 
Q 1991 1309 1228 531 
z
" transform="scale(0.015625)"/>
       </defs>
       <use xlink:href="#DejaVuSans-32"/>
       <use xlink:href="#DejaVuSans-30" x="63.623047"/>
       <use xlink:href="#DejaVuSans-30" x="127.246094"/>
      </g>
     </g>
    </g>
    <g id="xtick_3">
     <g id="line2d_3">
      <g>
       <use xlink:href="#mbcb02aef95" x="209.010359" y="67.479633" style="stroke: #000000; stroke-width: 0.8"/>
      </g>
     </g>
     <g id="text_3">
      <!-- 400 -->
      <g transform="translate(199.466609 82.07807) scale(0.1 -0.1)">
       <defs>
        <path id="DejaVuSans-34" d="M 2419 4116 
L 825 1625 
L 2419 1625 
L 2419 4116 
z
M 2253 4666 
L 3047 4666 
L 3047 1625 
L 3713 1625 
L 3713 1100 
L 3047 1100 
L 3047 0 
L 2419 0 
L 2419 1100 
L 313 1100 
L 313 1709 
L 2253 4666 
z
" transform="scale(0.015625)"/>
       </defs>
       <use xlink:href="#DejaVuSans-34"/>
       <use xlink:href="#DejaVuSans-30" x="63.623047"/>
       <use xlink:href="#DejaVuSans-30" x="127.246094"/>
      </g>
     </g>
    </g>
    <g id="xtick_4">
     <g id="line2d_4">
      <g>
       <use xlink:href="#mbcb02aef95" x="283.280994" y="67.479633" style="stroke: #000000; stroke-width: 0.8"/>
      </g>
     </g>
     <g id="text_4">
      <!-- 600 -->
      <g transform="translate(273.737244 82.07807) scale(0.1 -0.1)">
       <defs>
        <path id="DejaVuSans-36" d="M 2113 2584 
Q 1688 2584 1439 2293 
Q 1191 2003 1191 1497 
Q 1191 994 1439 701 
Q 1688 409 2113 409 
Q 2538 409 2786 701 
Q 3034 994 3034 1497 
Q 3034 2003 2786 2293 
Q 2538 2584 2113 2584 
z
M 3366 4563 
L 3366 3988 
Q 3128 4100 2886 4159 
Q 2644 4219 2406 4219 
Q 1781 4219 1451 3797 
Q 1122 3375 1075 2522 
Q 1259 2794 1537 2939 
Q 1816 3084 2150 3084 
Q 2853 3084 3261 2657 
Q 3669 2231 3669 1497 
Q 3669 778 3244 343 
Q 2819 -91 2113 -91 
Q 1303 -91 875 529 
Q 447 1150 447 2328 
Q 447 3434 972 4092 
Q 1497 4750 2381 4750 
Q 2619 4750 2861 4703 
Q 3103 4656 3366 4563 
z
" transform="scale(0.015625)"/>
       </defs>
       <use xlink:href="#DejaVuSans-36"/>
       <use xlink:href="#DejaVuSans-30" x="63.623047"/>
       <use xlink:href="#DejaVuSans-30" x="127.246094"/>
      </g>
     </g>
    </g>
    <g id="xtick_5">
     <g id="line2d_5">
      <g>
       <use xlink:href="#mbcb02aef95" x="357.551628" y="67.479633" style="stroke: #000000; stroke-width: 0.8"/>
      </g>
     </g>
     <g id="text_5">
      <!-- 800 -->
      <g transform="translate(348.007878 82.07807) scale(0.1 -0.1)">
       <defs>
        <path id="DejaVuSans-38" d="M 2034 2216 
Q 1584 2216 1326 1975 
Q 1069 1734 1069 1313 
Q 1069 891 1326 650 
Q 1584 409 2034 409 
Q 2484 409 2743 651 
Q 3003 894 3003 1313 
Q 3003 1734 2745 1975 
Q 2488 2216 2034 2216 
z
M 1403 2484 
Q 997 2584 770 2862 
Q 544 3141 544 3541 
Q 544 4100 942 4425 
Q 1341 4750 2034 4750 
Q 2731 4750 3128 4425 
Q 3525 4100 3525 3541 
Q 3525 3141 3298 2862 
Q 3072 2584 2669 2484 
Q 3125 2378 3379 2068 
Q 3634 1759 3634 1313 
Q 3634 634 3220 271 
Q 2806 -91 2034 -91 
Q 1263 -91 848 271 
Q 434 634 434 1313 
Q 434 1759 690 2068 
Q 947 2378 1403 2484 
z
M 1172 3481 
Q 1172 3119 1398 2916 
Q 1625 2713 2034 2713 
Q 2441 2713 2670 2916 
Q 2900 3119 2900 3481 
Q 2900 3844 2670 4047 
Q 2441 4250 2034 4250 
Q 1625 4250 1398 4047 
Q 1172 3844 1172 3481 
z
" transform="scale(0.015625)"/>
       </defs>
       <use xlink:href="#DejaVuSans-38"/>
       <use xlink:href="#DejaVuSans-30" x="63.623047"/>
       <use xlink:href="#DejaVuSans-30" x="127.246094"/>
      </g>
     </g>
    </g>
    <g id="xtick_6">
     <g id="line2d_6">
      <g>
       <use xlink:href="#mbcb02aef95" x="431.822262" y="67.479633" style="stroke: #000000; stroke-width: 0.8"/>
      </g>
     </g>
     <g id="text_6">
      <!-- 1000 -->
      <g transform="translate(419.097262 82.07807) scale(0.1 -0.1)">
       <defs>
        <path id="DejaVuSans-31" d="M 794 531 
L 1825 531 
L 1825 4091 
L 703 3866 
L 703 4441 
L 1819 4666 
L 2450 4666 
L 2450 531 
L 3481 531 
L 3481 0 
L 794 0 
L 794 531 
z
" transform="scale(0.015625)"/>
       </defs>
       <use xlink:href="#DejaVuSans-31"/>
       <use xlink:href="#DejaVuSans-30" x="63.623047"/>
       <use xlink:href="#DejaVuSans-30" x="127.246094"/>
       <use xlink:href="#DejaVuSans-30" x="190.869141"/>
      </g>
     </g>
    </g>
   </g>
   <g id="matplotlib.axis_2">
    <g id="ytick_1">
     <g id="line2d_7">
      <defs>
       <path id="me5179b328b" d="M 0 0 
L -3.5 0 
" style="stroke: #000000; stroke-width: 0.8"/>
      </defs>
      <g>
       <use xlink:href="#me5179b328b" x="41.92" y="64.247796" style="stroke: #000000; stroke-width: 0.8"/>
      </g>
     </g>
     <g id="text_7">
      <!-- 0 -->
      <g transform="translate(28.5575 68.047015) scale(0.1 -0.1)">
       <use xlink:href="#DejaVuSans-30"/>
      </g>
     </g>
    </g>
    <g id="ytick_2">
     <g id="line2d_8">
      <g>
       <use xlink:href="#me5179b328b" x="41.92" y="14.727918" style="stroke: #000000; stroke-width: 0.8"/>
      </g>
     </g>
     <g id="text_8">
      <!-- 50 -->
      <g transform="translate(22.195 18.527137) scale(0.1 -0.1)">
       <defs>
        <path id="DejaVuSans-35" d="M 691 4666 
L 3169 4666 
L 3169 4134 
L 1269 4134 
L 1269 2991 
Q 1406 3038 1543 3061 
Q 1681 3084 1819 3084 
Q 2600 3084 3056 2656 
Q 3513 2228 3513 1497 
Q 3513 744 3044 326 
Q 2575 -91 1722 -91 
Q 1428 -91 1123 -41 
Q 819 9 494 109 
L 494 744 
Q 775 591 1075 516 
Q 1375 441 1709 441 
Q 2250 441 2565 725 
Q 2881 1009 2881 1497 
Q 2881 1984 2565 2268 
Q 2250 2553 1709 2553 
Q 1456 2553 1204 2497 
Q 953 2441 691 2322 
L 691 4666 
z
" transform="scale(0.015625)"/>
       </defs>
       <use xlink:href="#DejaVuSans-35"/>
       <use xlink:href="#DejaVuSans-30" x="63.623047"/>
      </g>
     </g>
    </g>
   </g>
   <g id="line2d_9">
    <path d="M 60.469091 64.363749 
L 60.840444 64.3536 
L 61.211797 63.444068 
L 61.58315 63.833156 
L 61.954504 64.431561 
L 62.325857 63.915264 
L 62.69721 64.39748 
L 63.068563 64.382134 
L 63.439916 64.01493 
L 63.811269 65.065485 
L 64.182623 64.955836 
L 64.553976 64.364386 
L 64.925329 64.572726 
L 65.296682 63.902013 
L 65.668035 64.495201 
L 66.039388 64.734508 
L 66.410742 63.300762 
L 66.782095 64.131691 
L 67.153448 63.981753 
L 67.524801 64.717984 
L 68.267508 63.957504 
L 68.638861 64.584781 
L 69.010214 63.832406 
L 69.381567 64.32048 
L 69.75292 64.172682 
L 70.124273 64.331601 
L 70.495627 63.121586 
L 70.86698 64.050077 
L 71.238333 64.570665 
L 71.609686 63.64157 
L 71.981039 64.653565 
L 72.352392 63.943421 
L 72.723746 65.012526 
L 73.095099 64.692192 
L 73.466452 63.926276 
L 73.837805 63.644118 
L 74.209158 63.907672 
L 74.951865 64.097229 
L 75.323218 64.653387 
L 75.694571 64.247953 
L 76.065924 64.087325 
L 76.437277 63.301305 
L 76.80863 63.61848 
L 77.179984 64.624299 
L 77.551337 63.552639 
L 77.92269 63.865518 
L 78.294043 63.972114 
L 78.665396 63.297013 
L 79.036749 63.053852 
L 79.408103 63.069709 
L 79.779456 63.915399 
L 80.893515 62.942233 
L 81.264869 63.64495 
L 81.636222 63.485801 
L 82.007575 63.931809 
L 82.378928 63.970236 
L 82.750281 62.97312 
L 83.121634 62.704929 
L 83.492988 63.416385 
L 83.864341 62.890709 
L 84.235694 63.217796 
L 84.607047 63.727342 
L 85.349753 62.671358 
L 85.721107 63.463673 
L 86.09246 62.683527 
L 86.463813 64.766922 
L 86.835166 63.072247 
L 87.206519 63.443596 
L 87.577872 63.639589 
L 87.949226 63.447878 
L 88.320579 64.476019 
L 88.691932 63.595441 
L 89.063285 63.300976 
L 89.434638 62.733338 
L 89.805991 63.705451 
L 90.177345 63.829143 
L 90.548698 63.653783 
L 90.920051 62.925384 
L 91.662757 63.579758 
L 92.03411 63.029475 
L 92.405464 63.200346 
L 92.776817 62.732588 
L 93.14817 63.523348 
L 93.519523 63.301492 
L 93.890876 63.297556 
L 94.26223 63.793338 
L 94.633583 62.888685 
L 95.004936 62.87462 
L 95.747642 63.063882 
L 96.118995 63.624224 
L 96.490349 63.109839 
L 96.861702 63.052013 
L 97.233055 63.262817 
L 97.975761 62.638516 
L 98.347114 61.89385 
L 98.718468 62.732091 
L 99.089821 62.682626 
L 99.461174 62.839193 
L 99.832527 63.744763 
L 100.20388 62.799641 
L 100.575233 62.747844 
L 100.946587 61.547877 
L 101.31794 62.851422 
L 101.689293 62.593531 
L 102.060646 62.744708 
L 102.431999 63.288726 
L 102.803352 62.124297 
L 103.174706 62.295848 
L 103.546059 62.252331 
L 103.917412 63.06827 
L 104.288765 61.895495 
L 104.660118 63.255235 
L 105.402825 61.415814 
L 105.774178 62.960626 
L 106.516884 62.362329 
L 106.888237 62.634074 
L 107.25959 63.127956 
L 107.630944 62.304156 
L 108.002297 62.845347 
L 108.37365 62.069461 
L 108.745003 62.747733 
L 109.116356 61.517286 
L 109.48771 62.669032 
L 109.859063 62.440911 
L 110.230416 61.882552 
L 110.601769 62.902305 
L 111.344475 61.66858 
L 111.715829 63.1264 
L 112.087182 62.254441 
L 112.458535 62.232836 
L 112.829888 61.989299 
L 113.201241 63.002257 
L 113.572594 63.054262 
L 113.943948 62.149009 
L 114.686654 62.283397 
L 115.058007 62.227128 
L 115.42936 62.719942 
L 115.800713 62.245412 
L 116.172067 62.184859 
L 116.54342 62.64541 
L 116.914773 61.321476 
L 117.657479 62.71976 
L 118.028832 61.736237 
L 118.400186 62.469319 
L 118.771539 61.51684 
L 119.142892 61.248514 
L 119.514245 62.141193 
L 119.885598 61.168489 
L 120.256951 61.351538 
L 120.628305 61.06038 
L 120.999658 60.442336 
L 121.371011 61.421473 
L 121.742364 61.5972 
L 122.485071 61.498503 
L 122.856424 61.081768 
L 123.227777 60.834322 
L 123.59913 60.83733 
L 123.970483 60.547819 
L 124.341836 60.946444 
L 124.71319 60.240974 
L 125.084543 61.111951 
L 125.455896 59.665792 
L 126.198602 61.533299 
L 126.569955 61.700986 
L 126.941309 61.000932 
L 127.312662 61.425317 
L 127.684015 61.03967 
L 128.055368 61.239255 
L 128.798074 62.050538 
L 129.169428 62.454291 
L 129.912134 61.403615 
L 130.283487 61.76837 
L 130.65484 62.525536 
L 131.026193 61.843207 
L 131.397547 61.743281 
L 131.7689 62.360736 
L 132.140253 61.819076 
L 132.511606 61.821401 
L 132.882959 62.354162 
L 133.254312 61.53224 
L 133.625666 61.337032 
L 133.997019 60.968892 
L 134.368372 60.860465 
L 134.739725 61.929962 
L 135.111078 61.567953 
L 135.482432 60.696924 
L 136.225138 60.381598 
L 136.596491 58.570328 
L 136.967844 60.04014 
L 137.339197 59.610973 
L 138.081904 59.579498 
L 138.453257 59.941302 
L 138.82461 59.307787 
L 139.195963 59.981891 
L 139.567316 59.65059 
L 139.93867 59.727455 
L 140.310023 59.420698 
L 140.681376 58.3098 
L 141.052729 60.395953 
L 141.424082 59.166647 
L 141.795435 60.359236 
L 142.166789 59.866013 
L 142.538142 59.180542 
L 143.280848 60.467036 
L 143.652201 60.408534 
L 144.023554 59.844457 
L 144.394908 60.672023 
L 144.766261 60.332078 
L 145.137614 60.542066 
L 145.508967 61.006037 
L 145.88032 59.730818 
L 146.251673 60.57532 
L 146.623027 61.973874 
L 146.99438 60.943266 
L 147.365733 61.408738 
L 147.737086 60.683626 
L 148.108439 61.501101 
L 149.222499 60.552992 
L 149.593852 61.48934 
L 149.965205 60.953138 
L 150.707912 60.840641 
L 151.079265 59.484215 
L 151.821971 60.631683 
L 152.193324 59.366182 
L 152.564677 58.580104 
L 152.936031 58.930134 
L 153.307384 60.00759 
L 153.678737 59.315328 
L 154.05009 58.278073 
L 154.421443 59.098192 
L 154.792796 58.385246 
L 155.16415 58.095901 
L 155.535503 58.832074 
L 155.906856 58.316663 
L 156.278209 59.827998 
L 156.649562 58.688154 
L 157.020915 58.286248 
L 157.392269 58.781392 
L 157.763622 57.378673 
L 158.134975 58.938815 
L 158.506328 58.510485 
L 158.877681 58.306201 
L 159.249034 57.749683 
L 159.620388 59.278389 
L 159.991741 58.103999 
L 160.734447 59.405469 
L 161.1058 58.811255 
L 161.477154 59.058747 
L 161.848507 59.565424 
L 162.21986 59.335392 
L 162.591213 59.650872 
L 163.333919 59.26872 
L 163.705273 58.854129 
L 164.076626 60.276786 
L 164.447979 58.612445 
L 164.819332 60.620532 
L 165.190685 59.694469 
L 165.562038 59.274195 
L 165.933392 59.354261 
L 166.304745 59.712547 
L 166.676098 59.402515 
L 167.418804 59.343079 
L 167.790157 58.49148 
L 168.161511 58.589697 
L 168.532864 58.959785 
L 168.904217 58.019809 
L 169.27557 58.162773 
L 169.646923 57.765571 
L 170.018276 57.715279 
L 170.38963 58.304513 
L 170.760983 58.048172 
L 171.132336 57.288959 
L 171.503689 57.257797 
L 171.875042 57.485211 
L 172.246395 57.345986 
L 172.617749 56.715324 
L 172.989102 57.599558 
L 173.360455 57.008544 
L 173.731808 57.365994 
L 174.103161 57.372611 
L 174.474515 56.730928 
L 174.845868 56.886311 
L 175.217221 56.920343 
L 175.588574 56.711176 
L 175.959927 57.386135 
L 176.33128 57.100235 
L 176.702634 57.633593 
L 177.073987 57.360204 
L 177.44534 57.622998 
L 177.816693 57.543803 
L 178.188046 57.324471 
L 178.559399 58.044638 
L 178.930753 56.615555 
L 179.302106 58.153454 
L 179.673459 58.251053 
L 180.044812 57.06164 
L 180.787518 57.270182 
L 181.158872 57.227942 
L 181.901578 57.883085 
L 182.272931 57.343315 
L 182.644284 57.654827 
L 183.015637 56.7732 
L 183.386991 57.264821 
L 183.758344 57.53742 
L 184.50105 56.804697 
L 184.872403 57.234497 
L 185.243756 57.313813 
L 185.61511 56.743098 
L 185.986463 56.705827 
L 186.357816 57.047962 
L 186.729169 57.006331 
L 187.100522 56.640346 
L 187.471876 57.459995 
L 187.843229 57.432188 
L 188.585935 56.835271 
L 188.957288 56.57512 
L 189.328641 55.997648 
L 189.699995 56.300825 
L 190.071348 56.798631 
L 190.442701 56.717829 
L 190.814054 57.187506 
L 191.185407 56.675218 
L 191.55676 56.775206 
L 191.928114 56.428955 
L 192.299467 56.944521 
L 193.042173 55.635608 
L 193.413526 56.362215 
L 194.156233 55.764498 
L 194.527586 56.191132 
L 194.898939 55.761019 
L 195.270292 55.740379 
L 195.641645 55.569915 
L 196.012998 55.871945 
L 197.127058 54.401594 
L 197.498411 54.536276 
L 197.869764 53.847058 
L 198.241117 55.208316 
L 198.612471 54.32627 
L 198.983824 54.613886 
L 199.355177 53.584535 
L 199.72653 55.052167 
L 200.097883 55.069949 
L 200.469237 54.972481 
L 200.84059 55.767901 
L 201.211943 55.035099 
L 201.583296 55.226072 
L 201.954649 54.866149 
L 202.326002 54.874768 
L 202.697356 54.228674 
L 203.068709 54.808333 
L 203.440062 55.690219 
L 203.811415 55.975932 
L 204.182768 55.411367 
L 204.554121 56.426501 
L 204.925475 54.973795 
L 205.296828 55.391442 
L 206.039534 56.960655 
L 206.410887 55.478134 
L 206.78224 56.216876 
L 207.153594 55.532247 
L 207.524947 56.891953 
L 208.267653 55.928034 
L 208.639006 55.778673 
L 209.010359 55.868777 
L 209.381713 55.155771 
L 209.753066 55.787787 
L 210.124419 55.103923 
L 211.238478 53.915955 
L 211.609832 54.554673 
L 211.981185 54.486634 
L 212.352538 52.827977 
L 213.095244 53.33143 
L 213.466598 51.968161 
L 213.837951 52.477161 
L 214.209304 51.775039 
L 214.580657 52.179906 
L 214.95201 51.079653 
L 215.323363 51.152272 
L 215.694717 52.102201 
L 216.06607 51.491913 
L 216.437423 51.684229 
L 216.808776 51.392706 
L 217.180129 52.649181 
L 217.551482 51.964473 
L 217.922836 51.941863 
L 218.294189 53.523979 
L 218.665542 53.44709 
L 219.036895 54.095346 
L 219.408248 53.454458 
L 220.150955 53.059622 
L 220.522308 54.002569 
L 220.893661 53.457152 
L 221.265014 55.154654 
L 221.636367 55.500328 
L 222.00772 54.843083 
L 222.379074 54.753003 
L 222.750427 55.052126 
L 223.12178 56.114554 
L 223.493133 55.149494 
L 223.864486 55.724218 
L 224.235839 54.677135 
L 224.607193 54.715557 
L 224.978546 55.209761 
L 225.349899 54.806852 
L 225.721252 54.848503 
L 226.463959 53.299486 
L 226.835312 53.94648 
L 227.206665 52.875959 
L 227.578018 53.042413 
L 227.949371 52.819793 
L 228.320724 52.126738 
L 228.692078 52.238418 
L 229.063431 51.663544 
L 229.434784 51.663663 
L 229.806137 49.801696 
L 230.17749 50.489471 
L 230.548843 50.618444 
L 230.920197 49.967567 
L 231.662903 49.907616 
L 232.034256 49.420933 
L 232.405609 49.320928 
L 232.776962 49.973511 
L 233.148316 50.053287 
L 233.519669 50.002173 
L 233.891022 51.141287 
L 234.262375 50.921025 
L 234.633728 49.692717 
L 235.005081 49.778506 
L 235.376435 50.959089 
L 235.747788 50.806293 
L 236.119141 51.201008 
L 236.490494 50.094922 
L 237.2332 52.190515 
L 237.975907 53.362937 
L 238.34726 52.648356 
L 239.089966 53.718285 
L 239.46132 53.410786 
L 239.832673 53.662509 
L 240.204026 52.286221 
L 240.946732 52.989738 
L 241.318085 52.124025 
L 241.689439 52.651604 
L 242.060792 52.914252 
L 242.432145 51.499696 
L 242.803498 51.72583 
L 243.174851 52.22234 
L 243.546204 51.501303 
L 244.288911 51.457343 
L 244.660264 49.992343 
L 245.031617 49.188394 
L 245.40297 50.519397 
L 245.774323 49.255987 
L 246.145677 49.584662 
L 246.51703 49.255354 
L 247.259736 49.031137 
L 247.631089 48.422052 
L 248.002442 48.734824 
L 248.373796 48.10194 
L 249.116502 48.284511 
L 249.487855 48.631261 
L 249.859208 48.514197 
L 250.230561 47.92963 
L 250.601915 48.155882 
L 250.973268 49.009654 
L 251.344621 48.615325 
L 251.715974 48.444321 
L 252.087327 49.80341 
L 252.45868 48.871798 
L 252.830034 49.632428 
L 253.201387 49.180039 
L 253.944093 50.641245 
L 254.315446 50.672716 
L 254.6868 49.942696 
L 255.058153 49.915669 
L 255.429506 50.546039 
L 255.800859 49.810834 
L 256.172212 50.952939 
L 256.543565 50.14018 
L 256.914919 50.659213 
L 257.657625 49.869434 
L 258.028978 50.204037 
L 258.400331 49.835551 
L 258.771684 48.998888 
L 259.143038 49.622952 
L 259.514391 48.754734 
L 259.885744 49.553807 
L 260.257097 48.555639 
L 260.62845 47.928758 
L 260.999803 49.695224 
L 261.74251 47.865641 
L 262.113863 48.107994 
L 262.485216 47.692715 
L 262.856569 48.058912 
L 263.227922 47.615274 
L 263.599276 47.648895 
L 263.970629 46.922316 
L 264.341982 47.317939 
L 264.713335 47.233574 
L 265.084688 47.573636 
L 265.827395 47.550835 
L 266.198748 47.135165 
L 266.570101 47.536724 
L 266.941454 47.184048 
L 267.312807 46.298304 
L 268.055514 47.473341 
L 268.426867 46.700524 
L 269.169573 48.245028 
L 269.540926 47.689858 
L 269.91228 48.061096 
L 270.283633 47.241911 
L 270.654986 46.981448 
L 271.026339 46.073541 
L 271.397692 46.646614 
L 271.769045 46.815059 
L 272.140399 46.18906 
L 272.511752 47.585289 
L 272.883105 46.263918 
L 273.254458 45.891306 
L 273.625811 46.902398 
L 273.997164 45.508212 
L 274.739871 46.120114 
L 275.111224 45.540741 
L 275.482577 44.684677 
L 275.85393 45.690713 
L 276.225283 45.646917 
L 276.96799 46.221728 
L 277.339343 45.43075 
L 277.710696 46.322416 
L 278.082049 45.93333 
L 278.453402 46.287063 
L 278.824756 45.903864 
L 279.196109 46.072029 
L 279.567462 45.821936 
L 279.938815 46.685354 
L 280.310168 46.658292 
L 280.681522 47.092093 
L 281.052875 46.897238 
L 281.424228 46.543536 
L 281.795581 46.388515 
L 282.166934 47.229723 
L 282.538287 46.326088 
L 282.909641 46.040776 
L 283.280994 46.43279 
L 283.652347 45.602622 
L 284.0237 46.778397 
L 284.766406 46.91092 
L 285.13776 45.063923 
L 285.880466 45.308907 
L 286.251819 44.851834 
L 286.623172 45.243157 
L 286.994525 43.161181 
L 287.365879 43.99125 
L 287.737232 43.685957 
L 288.108585 43.073258 
L 288.851291 42.752414 
L 289.222644 43.003735 
L 289.965351 41.270446 
L 290.336704 41.385633 
L 290.708057 41.153117 
L 291.07941 42.128474 
L 291.450763 42.343209 
L 291.822117 41.938435 
L 292.19347 41.916303 
L 292.564823 41.513214 
L 292.936176 43.0454 
L 293.307529 41.639918 
L 293.678883 42.699317 
L 294.050236 43.084887 
L 294.792942 44.260553 
L 295.164295 43.335476 
L 295.535648 44.011586 
L 295.907002 44.986843 
L 296.278355 45.277498 
L 296.649708 45.071222 
L 297.021061 44.320802 
L 297.392414 45.485166 
L 297.763767 46.271185 
L 298.135121 45.774277 
L 298.506474 45.86441 
L 298.877827 47.089065 
L 299.24918 45.749563 
L 299.620533 45.749596 
L 300.36324 44.37514 
L 300.734593 44.478751 
L 301.105946 44.864971 
L 301.477299 44.928564 
L 301.848652 42.713997 
L 302.220005 43.531842 
L 302.962712 42.642965 
L 303.334065 42.0458 
L 304.448124 40.967329 
L 304.819478 40.263675 
L 305.190831 40.097951 
L 305.562184 39.801242 
L 305.933537 39.059759 
L 306.30489 38.953741 
L 306.676244 37.853475 
L 307.047597 39.741408 
L 307.41895 37.780838 
L 307.790303 37.660702 
L 308.161656 39.324745 
L 308.533009 38.550589 
L 308.904363 38.707883 
L 309.275716 39.420447 
L 309.647069 39.359679 
L 310.018422 39.821101 
L 310.389775 38.738716 
L 310.761128 39.50929 
L 311.132482 39.731661 
L 311.503835 40.406262 
L 311.875188 41.72944 
L 312.246541 41.831866 
L 312.617894 41.717426 
L 312.989247 42.929484 
L 313.360601 42.304112 
L 313.731954 43.069597 
L 314.103307 43.383022 
L 314.47466 43.039458 
L 314.846013 43.307871 
L 315.217366 43.781313 
L 315.58872 43.038882 
L 315.960073 44.09315 
L 316.331426 43.132059 
L 316.702779 42.958418 
L 317.074132 43.158909 
L 317.445485 42.539978 
L 317.816839 42.964307 
L 318.188192 41.483999 
L 318.559545 41.590538 
L 318.930898 41.283617 
L 319.302251 40.007898 
L 319.673605 40.364414 
L 320.044958 40.196098 
L 320.416311 39.756365 
L 320.787664 38.185216 
L 321.159017 38.640738 
L 321.53037 36.688804 
L 321.901724 38.177099 
L 322.273077 35.938333 
L 322.64443 36.355862 
L 323.015783 36.244505 
L 323.387136 36.260525 
L 323.758489 35.647192 
L 324.129843 35.77876 
L 324.501196 35.189924 
L 324.872549 35.715251 
L 325.243902 35.789613 
L 325.615255 36.189185 
L 326.357962 36.285014 
L 326.729315 37.555144 
L 327.100668 37.67507 
L 327.472021 36.959189 
L 328.214727 38.087533 
L 328.957434 38.478729 
L 329.328787 39.220281 
L 329.70014 39.614286 
L 330.071493 39.375141 
L 330.442846 40.161678 
L 330.8142 39.637239 
L 331.185553 40.798217 
L 331.556906 39.512008 
L 331.928259 39.803473 
L 332.299612 39.875447 
L 333.042319 38.957208 
L 333.413672 39.099013 
L 333.785025 40.289826 
L 334.899085 38.488744 
L 335.270438 37.902902 
L 335.641791 38.161536 
L 336.013144 37.344442 
L 336.384497 37.444197 
L 336.75585 37.010971 
L 337.127204 37.053641 
L 337.498557 36.479723 
L 337.86991 36.37904 
L 338.241263 35.906227 
L 338.612616 34.644374 
L 338.983969 35.412243 
L 339.355323 33.449411 
L 339.726676 34.355653 
L 340.098029 34.391861 
L 340.469382 34.827863 
L 340.840735 34.010074 
L 341.212088 34.628551 
L 341.583442 34.299515 
L 341.954795 33.13507 
L 342.326148 34.515872 
L 342.697501 33.983028 
L 343.068854 34.998062 
L 343.440207 34.774094 
L 343.811561 33.991337 
L 344.182914 35.290158 
L 344.554267 34.189241 
L 345.296973 35.550629 
L 345.668327 35.030444 
L 346.03968 34.915826 
L 346.411033 35.123703 
L 346.782386 36.222462 
L 347.525092 35.529379 
L 347.896446 35.393027 
L 348.267799 34.978599 
L 348.639152 35.10999 
L 349.010505 35.755816 
L 349.381858 34.790072 
L 349.753211 34.549983 
L 350.124565 34.442538 
L 350.495918 34.048637 
L 351.238624 34.087759 
L 351.609977 34.223251 
L 351.98133 34.893166 
L 352.352684 33.751147 
L 352.724037 33.767181 
L 353.09539 33.655886 
L 353.466743 34.357919 
L 353.838096 34.211438 
L 354.209449 33.119697 
L 354.580803 33.639596 
L 354.952156 33.273419 
L 355.323509 33.597767 
L 355.694862 33.6054 
L 356.066215 33.16836 
L 356.437568 33.902684 
L 356.808922 33.611525 
L 357.180275 33.894332 
L 357.922981 33.800008 
L 358.294334 33.505516 
L 358.665688 33.802535 
L 359.037041 32.872467 
L 359.408394 33.843197 
L 359.779747 33.374311 
L 360.1511 33.356176 
L 360.522453 32.253649 
L 360.893807 32.680526 
L 361.26516 32.051975 
L 361.636513 33.063328 
L 362.007866 31.942751 
L 362.379219 31.367905 
L 362.750572 31.491427 
L 363.121926 30.723151 
L 363.493279 31.225396 
L 363.864632 29.994889 
L 364.235985 29.288422 
L 364.607338 30.356399 
L 364.978691 30.168309 
L 365.350045 29.025007 
L 365.721398 28.790143 
L 366.092751 29.693498 
L 366.835457 29.41505 
L 367.20681 29.924292 
L 367.578164 29.739521 
L 367.949517 29.85083 
L 368.32087 29.844469 
L 368.692223 29.631601 
L 369.063576 29.684902 
L 369.434929 29.251672 
L 369.806283 30.759542 
L 370.177636 30.044649 
L 370.548989 30.919693 
L 370.920342 31.127492 
L 371.291695 31.058232 
L 371.663049 32.230162 
L 372.034402 31.751169 
L 372.405755 32.101277 
L 372.777108 32.152367 
L 373.148461 32.427897 
L 373.519814 31.486037 
L 373.891168 33.098829 
L 375.005227 32.96169 
L 375.37658 32.848618 
L 375.747933 31.728793 
L 376.119287 31.33837 
L 376.49064 31.990933 
L 376.861993 31.733249 
L 377.233346 30.651876 
L 377.604699 30.680886 
L 377.976052 29.581355 
L 378.347406 29.255195 
L 378.718759 29.549748 
L 379.090112 27.468451 
L 379.461465 26.783158 
L 379.832818 27.425792 
L 381.318231 24.912142 
L 381.689584 23.894943 
L 382.060937 24.694072 
L 382.803644 24.933365 
L 383.54635 24.21217 
L 383.917703 23.394372 
L 384.289056 24.700613 
L 384.66041 24.564975 
L 385.031763 24.980428 
L 385.774469 24.481043 
L 386.145822 26.441817 
L 386.517175 26.899137 
L 386.888529 26.638025 
L 387.259882 27.324903 
L 387.631235 27.253095 
L 388.373941 29.301473 
L 388.745294 29.259408 
L 389.116648 29.383988 
L 389.859354 30.265214 
L 390.230707 30.174811 
L 390.60206 30.23238 
L 390.973413 30.152923 
L 391.71612 30.716249 
L 392.087473 30.331101 
L 392.458826 29.494311 
L 392.830179 30.106443 
L 393.201532 29.057512 
L 393.572886 28.908539 
L 393.944239 28.117487 
L 394.315592 26.870828 
L 394.686945 26.746616 
L 395.058298 26.132369 
L 395.429651 26.131805 
L 395.801005 24.393216 
L 396.172358 23.761162 
L 396.543711 22.353409 
L 396.915064 22.958298 
L 397.286417 22.126825 
L 397.65777 21.599388 
L 398.029124 20.495998 
L 398.400477 20.952637 
L 399.143183 20.104564 
L 399.514536 20.191601 
L 399.88589 20.470527 
L 400.628596 19.903549 
L 400.999949 21.156441 
L 401.371302 20.867536 
L 401.742655 21.630143 
L 402.114009 21.097643 
L 402.485362 22.895654 
L 403.599421 22.886216 
L 403.970774 24.216002 
L 404.342128 24.967988 
L 404.713481 24.247104 
L 405.084834 26.346219 
L 405.456187 27.123178 
L 405.82754 26.167012 
L 406.198893 26.921455 
L 406.570247 27.397145 
L 406.9416 26.684701 
L 408.055659 27.626252 
L 408.427012 26.386243 
L 408.798366 26.246109 
L 409.169719 26.295241 
L 409.541072 24.943835 
L 409.912425 25.941628 
L 410.283778 25.670141 
L 411.397838 23.09564 
L 411.769191 22.734678 
L 412.140544 21.840356 
L 412.511897 22.044841 
L 412.883251 20.141529 
L 413.254604 20.359051 
L 413.625957 19.26614 
L 413.99731 19.197607 
L 414.740016 18.346484 
L 415.482723 17.820916 
L 415.854076 17.335232 
L 416.225429 17.816388 
L 416.596782 17.547235 
L 416.968135 17.988726 
L 417.339489 17.334179 
L 417.710842 18.537018 
L 418.082195 17.51037 
L 418.824901 19.617899 
L 419.196254 19.137017 
L 419.567608 19.842563 
L 419.938961 19.399133 
L 420.310314 20.445584 
L 420.681667 20.639155 
L 421.05302 21.630955 
L 421.424373 21.170632 
L 421.795727 22.366577 
L 422.16708 22.133277 
L 422.538433 21.113867 
L 422.909786 21.198511 
L 423.281139 21.427888 
L 423.652492 22.121204 
L 424.023846 21.622864 
L 424.395199 21.512312 
L 424.766552 21.952182 
L 425.137905 20.462105 
L 425.509258 20.564198 
L 425.880612 20.868972 
L 426.623318 20.106123 
L 426.994671 20.920881 
L 427.366024 19.724461 
L 428.108731 19.481297 
L 428.480084 18.826552 
L 428.851437 17.512788 
L 429.594143 18.1742 
L 430.33685 16.782533 
L 430.708203 16.849931 
L 431.450909 17.374533 
L 431.450909 17.374533 
" clip-path="url(#p97b3872a5c)" style="fill: none; stroke: #1f77b4; stroke-width: 1.5; stroke-linecap: square"/>
   </g>
   <g id="patch_3">
    <path d="M 41.92 67.479633 
L 41.92 14.368386 
" style="fill: none; stroke: #000000; stroke-width: 0.8; stroke-linejoin: miter; stroke-linecap: square"/>
   </g>
   <g id="patch_4">
    <path d="M 450 67.479633 
L 450 14.368386 
" style="fill: none; stroke: #000000; stroke-width: 0.8; stroke-linejoin: miter; stroke-linecap: square"/>
   </g>
   <g id="patch_5">
    <path d="M 41.92 67.479633 
L 450 67.479633 
" style="fill: none; stroke: #000000; stroke-width: 0.8; stroke-linejoin: miter; stroke-linecap: square"/>
   </g>
   <g id="patch_6">
    <path d="M 41.92 14.368386 
L 450 14.368386 
" style="fill: none; stroke: #000000; stroke-width: 0.8; stroke-linejoin: miter; stroke-linecap: square"/>
   </g>
  </g>
  <g id="axes_2">
   <g id="patch_7">
    <path d="M 41.92 150.893088 
L 450 150.893088 
L 450 97.781841 
L 41.92 97.781841 
z
" style="fill: #ffffff"/>
   </g>
   <g id="matplotlib.axis_3">
    <g id="xtick_7">
     <g id="line2d_10">
      <g>
       <use xlink:href="#mbcb02aef95" x="60.469091" y="150.893088" style="stroke: #000000; stroke-width: 0.8"/>
      </g>
     </g>
     <g id="text_9">
      <!-- 0 -->
      <g transform="translate(57.287841 165.491526) scale(0.1 -0.1)">
       <use xlink:href="#DejaVuSans-30"/>
      </g>
     </g>
    </g>
    <g id="xtick_8">
     <g id="line2d_11">
      <g>
       <use xlink:href="#mbcb02aef95" x="134.739725" y="150.893088" style="stroke: #000000; stroke-width: 0.8"/>
      </g>
     </g>
     <g id="text_10">
      <!-- 200 -->
      <g transform="translate(125.195975 165.491526) scale(0.1 -0.1)">
       <use xlink:href="#DejaVuSans-32"/>
       <use xlink:href="#DejaVuSans-30" x="63.623047"/>
       <use xlink:href="#DejaVuSans-30" x="127.246094"/>
      </g>
     </g>
    </g>
    <g id="xtick_9">
     <g id="line2d_12">
      <g>
       <use xlink:href="#mbcb02aef95" x="209.010359" y="150.893088" style="stroke: #000000; stroke-width: 0.8"/>
      </g>
     </g>
     <g id="text_11">
      <!-- 400 -->
      <g transform="translate(199.466609 165.491526) scale(0.1 -0.1)">
       <use xlink:href="#DejaVuSans-34"/>
       <use xlink:href="#DejaVuSans-30" x="63.623047"/>
       <use xlink:href="#DejaVuSans-30" x="127.246094"/>
      </g>
     </g>
    </g>
    <g id="xtick_10">
     <g id="line2d_13">
      <g>
       <use xlink:href="#mbcb02aef95" x="283.280994" y="150.893088" style="stroke: #000000; stroke-width: 0.8"/>
      </g>
     </g>
     <g id="text_12">
      <!-- 600 -->
      <g transform="translate(273.737244 165.491526) scale(0.1 -0.1)">
       <use xlink:href="#DejaVuSans-36"/>
       <use xlink:href="#DejaVuSans-30" x="63.623047"/>
       <use xlink:href="#DejaVuSans-30" x="127.246094"/>
      </g>
     </g>
    </g>
    <g id="xtick_11">
     <g id="line2d_14">
      <g>
       <use xlink:href="#mbcb02aef95" x="357.551628" y="150.893088" style="stroke: #000000; stroke-width: 0.8"/>
      </g>
     </g>
     <g id="text_13">
      <!-- 800 -->
      <g transform="translate(348.007878 165.491526) scale(0.1 -0.1)">
       <use xlink:href="#DejaVuSans-38"/>
       <use xlink:href="#DejaVuSans-30" x="63.623047"/>
       <use xlink:href="#DejaVuSans-30" x="127.246094"/>
      </g>
     </g>
    </g>
    <g id="xtick_12">
     <g id="line2d_15">
      <g>
       <use xlink:href="#mbcb02aef95" x="431.822262" y="150.893088" style="stroke: #000000; stroke-width: 0.8"/>
      </g>
     </g>
     <g id="text_14">
      <!-- 1000 -->
      <g transform="translate(419.097262 165.491526) scale(0.1 -0.1)">
       <use xlink:href="#DejaVuSans-31"/>
       <use xlink:href="#DejaVuSans-30" x="63.623047"/>
       <use xlink:href="#DejaVuSans-30" x="127.246094"/>
       <use xlink:href="#DejaVuSans-30" x="190.869141"/>
      </g>
     </g>
    </g>
   </g>
   <g id="matplotlib.axis_4">
    <g id="ytick_3">
     <g id="line2d_16">
      <g>
       <use xlink:href="#me5179b328b" x="41.92" y="148.478941" style="stroke: #000000; stroke-width: 0.8"/>
      </g>
     </g>
     <g id="text_15">
      <!-- 0 -->
      <g transform="translate(28.5575 152.27816) scale(0.1 -0.1)">
       <use xlink:href="#DejaVuSans-30"/>
      </g>
     </g>
    </g>
    <g id="ytick_4">
     <g id="line2d_17">
      <g>
       <use xlink:href="#me5179b328b" x="41.92" y="122.729009" style="stroke: #000000; stroke-width: 0.8"/>
      </g>
     </g>
     <g id="text_16">
      <!-- 25 -->
      <g transform="translate(22.195 126.528228) scale(0.1 -0.1)">
       <use xlink:href="#DejaVuSans-32"/>
       <use xlink:href="#DejaVuSans-35" x="63.623047"/>
      </g>
     </g>
    </g>
   </g>
   <g id="line2d_18">
    <path d="M 60.469091 148.478941 
L 80.522162 147.837663 
L 100.575233 146.971401 
L 120.628305 145.880155 
L 140.681376 144.563924 
L 160.734447 143.02271 
L 180.787518 141.256511 
L 200.84059 139.265328 
L 220.893661 137.049161 
L 240.946732 134.60801 
L 260.999803 131.941874 
L 281.052875 129.050755 
L 301.105946 125.934651 
L 321.159017 122.593564 
L 341.212088 119.027492 
L 361.26516 115.236435 
L 381.318231 111.220395 
L 401.371302 106.979371 
L 421.424373 102.513362 
L 431.450909 100.195989 
L 431.450909 100.195989 
" clip-path="url(#p132331da30)" style="fill: none; stroke: #1f77b4; stroke-width: 1.5; stroke-linecap: square"/>
   </g>
   <g id="patch_8">
    <path d="M 41.92 150.893088 
L 41.92 97.781841 
" style="fill: none; stroke: #000000; stroke-width: 0.8; stroke-linejoin: miter; stroke-linecap: square"/>
   </g>
   <g id="patch_9">
    <path d="M 450 150.893088 
L 450 97.781841 
" style="fill: none; stroke: #000000; stroke-width: 0.8; stroke-linejoin: miter; stroke-linecap: square"/>
   </g>
   <g id="patch_10">
    <path d="M 41.92 150.893088 
L 450 150.893088 
" style="fill: none; stroke: #000000; stroke-width: 0.8; stroke-linejoin: miter; stroke-linecap: square"/>
   </g>
   <g id="patch_11">
    <path d="M 41.92 97.781841 
L 450 97.781841 
" style="fill: none; stroke: #000000; stroke-width: 0.8; stroke-linejoin: miter; stroke-linecap: square"/>
   </g>
  </g>
  <g id="axes_3">
   <g id="patch_12">
    <path d="M 41.92 234.306544 
L 450 234.306544 
L 450 181.195297 
L 41.92 181.195297 
z
" style="fill: #ffffff"/>
   </g>
   <g id="matplotlib.axis_5">
    <g id="xtick_13">
     <g id="line2d_19">
      <g>
       <use xlink:href="#mbcb02aef95" x="60.469091" y="234.306544" style="stroke: #000000; stroke-width: 0.8"/>
      </g>
     </g>
     <g id="text_17">
      <!-- 0 -->
      <g transform="translate(57.287841 248.904982) scale(0.1 -0.1)">
       <use xlink:href="#DejaVuSans-30"/>
      </g>
     </g>
    </g>
    <g id="xtick_14">
     <g id="line2d_20">
      <g>
       <use xlink:href="#mbcb02aef95" x="134.739725" y="234.306544" style="stroke: #000000; stroke-width: 0.8"/>
      </g>
     </g>
     <g id="text_18">
      <!-- 200 -->
      <g transform="translate(125.195975 248.904982) scale(0.1 -0.1)">
       <use xlink:href="#DejaVuSans-32"/>
       <use xlink:href="#DejaVuSans-30" x="63.623047"/>
       <use xlink:href="#DejaVuSans-30" x="127.246094"/>
      </g>
     </g>
    </g>
    <g id="xtick_15">
     <g id="line2d_21">
      <g>
       <use xlink:href="#mbcb02aef95" x="209.010359" y="234.306544" style="stroke: #000000; stroke-width: 0.8"/>
      </g>
     </g>
     <g id="text_19">
      <!-- 400 -->
      <g transform="translate(199.466609 248.904982) scale(0.1 -0.1)">
       <use xlink:href="#DejaVuSans-34"/>
       <use xlink:href="#DejaVuSans-30" x="63.623047"/>
       <use xlink:href="#DejaVuSans-30" x="127.246094"/>
      </g>
     </g>
    </g>
    <g id="xtick_16">
     <g id="line2d_22">
      <g>
       <use xlink:href="#mbcb02aef95" x="283.280994" y="234.306544" style="stroke: #000000; stroke-width: 0.8"/>
      </g>
     </g>
     <g id="text_20">
      <!-- 600 -->
      <g transform="translate(273.737244 248.904982) scale(0.1 -0.1)">
       <use xlink:href="#DejaVuSans-36"/>
       <use xlink:href="#DejaVuSans-30" x="63.623047"/>
       <use xlink:href="#DejaVuSans-30" x="127.246094"/>
      </g>
     </g>
    </g>
    <g id="xtick_17">
     <g id="line2d_23">
      <g>
       <use xlink:href="#mbcb02aef95" x="357.551628" y="234.306544" style="stroke: #000000; stroke-width: 0.8"/>
      </g>
     </g>
     <g id="text_21">
      <!-- 800 -->
      <g transform="translate(348.007878 248.904982) scale(0.1 -0.1)">
       <use xlink:href="#DejaVuSans-38"/>
       <use xlink:href="#DejaVuSans-30" x="63.623047"/>
       <use xlink:href="#DejaVuSans-30" x="127.246094"/>
      </g>
     </g>
    </g>
    <g id="xtick_18">
     <g id="line2d_24">
      <g>
       <use xlink:href="#mbcb02aef95" x="431.822262" y="234.306544" style="stroke: #000000; stroke-width: 0.8"/>
      </g>
     </g>
     <g id="text_22">
      <!-- 1000 -->
      <g transform="translate(419.097262 248.904982) scale(0.1 -0.1)">
       <use xlink:href="#DejaVuSans-31"/>
       <use xlink:href="#DejaVuSans-30" x="63.623047"/>
       <use xlink:href="#DejaVuSans-30" x="127.246094"/>
       <use xlink:href="#DejaVuSans-30" x="190.869141"/>
      </g>
     </g>
    </g>
   </g>
   <g id="matplotlib.axis_6">
    <g id="ytick_5">
     <g id="line2d_25">
      <g>
       <use xlink:href="#me5179b328b" x="41.92" y="221.526031" style="stroke: #000000; stroke-width: 0.8"/>
      </g>
     </g>
     <g id="text_23">
      <!-- −2.5 -->
      <g transform="translate(10.637188 225.32525) scale(0.1 -0.1)">
       <defs>
        <path id="DejaVuSans-2212" d="M 678 2272 
L 4684 2272 
L 4684 1741 
L 678 1741 
L 678 2272 
z
" transform="scale(0.015625)"/>
        <path id="DejaVuSans-2e" d="M 684 794 
L 1344 794 
L 1344 0 
L 684 0 
L 684 794 
z
" transform="scale(0.015625)"/>
       </defs>
       <use xlink:href="#DejaVuSans-2212"/>
       <use xlink:href="#DejaVuSans-32" x="83.789062"/>
       <use xlink:href="#DejaVuSans-2e" x="147.412109"/>
       <use xlink:href="#DejaVuSans-35" x="179.199219"/>
      </g>
     </g>
    </g>
    <g id="ytick_6">
     <g id="line2d_26">
      <g>
       <use xlink:href="#me5179b328b" x="41.92" y="207.964078" style="stroke: #000000; stroke-width: 0.8"/>
      </g>
     </g>
     <g id="text_24">
      <!-- 0.0 -->
      <g transform="translate(19.016875 211.763297) scale(0.1 -0.1)">
       <use xlink:href="#DejaVuSans-30"/>
       <use xlink:href="#DejaVuSans-2e" x="63.623047"/>
       <use xlink:href="#DejaVuSans-30" x="95.410156"/>
      </g>
     </g>
    </g>
    <g id="ytick_7">
     <g id="line2d_27">
      <g>
       <use xlink:href="#me5179b328b" x="41.92" y="194.402125" style="stroke: #000000; stroke-width: 0.8"/>
      </g>
     </g>
     <g id="text_25">
      <!-- 2.5 -->
      <g transform="translate(19.016875 198.201344) scale(0.1 -0.1)">
       <use xlink:href="#DejaVuSans-32"/>
       <use xlink:href="#DejaVuSans-2e" x="63.623047"/>
       <use xlink:href="#DejaVuSans-35" x="95.410156"/>
      </g>
     </g>
    </g>
   </g>
   <g id="line2d_28">
    <path d="M 60.469091 207.964078 
L 62.69721 207.843743 
L 66.039388 207.618593 
L 67.896154 207.782979 
L 70.124273 208.269324 
L 72.352392 208.721851 
L 73.837805 208.780504 
L 75.323218 208.563378 
L 77.179984 207.976553 
L 79.779456 207.098382 
L 80.893515 206.910275 
L 82.007575 206.907285 
L 83.121634 207.093922 
L 84.607047 207.574291 
L 87.577872 208.669333 
L 89.063285 208.922482 
L 90.177345 208.904293 
L 91.662757 208.633933 
L 96.118995 207.533125 
L 97.604408 207.502769 
L 99.832527 207.75411 
L 102.060646 207.961942 
L 103.546059 207.896342 
L 106.145531 207.481338 
L 107.630944 207.331004 
L 108.745003 207.392208 
L 109.859063 207.646945 
L 111.344475 208.261364 
L 114.315301 209.648505 
L 115.42936 209.834381 
L 116.172067 209.767191 
L 116.914773 209.529767 
L 118.028832 208.863542 
L 119.142892 207.899345 
L 121.742364 205.442644 
L 122.485071 204.971735 
L 123.227777 204.711583 
L 123.970483 204.701916 
L 124.71319 204.963054 
L 125.455896 205.492737 
L 126.198602 206.264856 
L 127.312662 207.764555 
L 129.912134 211.45768 
L 130.65484 212.156983 
L 131.397547 212.553903 
L 132.140253 212.600086 
L 132.882959 212.274627 
L 133.625666 211.58711 
L 134.368372 210.578094 
L 135.482432 208.62012 
L 137.710551 204.391525 
L 138.453257 203.311456 
L 139.195963 202.567338 
L 139.93867 202.229666 
L 140.310023 202.226751 
L 141.052729 202.560457 
L 141.795435 203.330105 
L 142.538142 204.483875 
L 143.652201 206.74217 
L 145.88032 211.648372 
L 146.623027 212.917131 
L 147.365733 213.812133 
L 148.108439 214.257574 
L 148.479793 214.297745 
L 148.851146 214.213659 
L 149.593852 213.680257 
L 150.336558 212.697229 
L 151.079265 211.341359 
L 152.564677 207.962874 
L 154.05009 204.601431 
L 154.792796 203.264677 
L 155.535503 202.304508 
L 156.278209 201.794191 
L 156.649562 201.720496 
L 157.020915 201.769604 
L 157.763622 202.226547 
L 158.506328 203.121489 
L 159.249034 204.375675 
L 160.734447 207.515423 
L 162.21986 210.631569 
L 162.962566 211.869119 
L 163.705273 212.762994 
L 164.447979 213.252817 
L 165.190685 213.313673 
L 165.933392 212.957235 
L 166.676098 212.229647 
L 167.790157 210.613731 
L 170.760983 205.726783 
L 171.503689 204.917934 
L 172.246395 204.410616 
L 172.989102 204.225308 
L 173.731808 204.352351 
L 174.474515 204.754435 
L 175.588574 205.737706 
L 178.559399 208.714647 
L 179.302106 209.163703 
L 180.044812 209.417418 
L 180.787518 209.476946 
L 181.901578 209.259018 
L 183.758344 208.487661 
L 184.872403 208.099753 
L 185.986463 207.962456 
L 187.100522 208.13736 
L 188.214582 208.577673 
L 190.442701 209.608517 
L 191.185407 209.764896 
L 191.928114 209.731614 
L 192.67082 209.47383 
L 193.413526 208.980669 
L 194.527586 207.843292 
L 197.869764 203.733343 
L 198.612471 203.288638 
L 199.355177 203.205692 
L 200.097883 203.532529 
L 200.84059 204.28184 
L 201.583296 205.426979 
L 202.697356 207.731624 
L 205.296828 213.671164 
L 206.039534 214.841468 
L 206.78224 215.526069 
L 207.153594 215.656095 
L 207.524947 215.633859 
L 207.8963 215.455105 
L 208.267653 215.118841 
L 209.010359 213.986717 
L 209.753066 212.2971 
L 210.867125 208.972454 
L 213.466598 200.648327 
L 214.209304 199.020712 
L 214.95201 198.043086 
L 215.323363 197.833285 
L 215.694717 197.821177 
L 216.06607 198.0106 
L 216.437423 198.401264 
L 217.180129 199.764212 
L 217.922836 201.825002 
L 219.036895 205.891829 
L 221.636367 216.083983 
L 222.379074 218.109258 
L 223.12178 219.375847 
L 223.493133 219.685595 
L 223.864486 219.767243 
L 224.235839 219.617194 
L 224.607193 219.23657 
L 224.978546 218.631221 
L 225.721252 216.792791 
L 226.463959 214.237581 
L 227.578018 209.501991 
L 229.434784 201.316471 
L 230.17749 198.703484 
L 230.920197 196.804943 
L 231.29155 196.174019 
L 231.662903 195.773814 
L 232.034256 195.612392 
L 232.405609 195.692943 
L 232.776962 196.013726 
L 233.148316 196.568098 
L 233.891022 198.327493 
L 234.633728 200.827837 
L 235.747788 205.511965 
L 237.604554 213.671939 
L 238.34726 216.303248 
L 239.089966 218.247326 
L 239.832673 219.360825 
L 240.204026 219.580194 
L 240.575379 219.570121 
L 240.946732 219.333126 
L 241.318085 218.876371 
L 242.060792 217.35417 
L 242.803498 215.143993 
L 243.917558 210.971942 
L 245.774323 203.702764 
L 246.51703 201.360536 
L 247.259736 199.621345 
L 248.002442 198.600702 
L 248.373796 198.378597 
L 248.745149 198.350348 
L 249.116502 198.512096 
L 249.487855 198.85604 
L 250.230561 200.041161 
L 250.973268 201.775693 
L 252.087327 205.028765 
L 253.944093 210.561794 
L 254.6868 212.288935 
L 255.429506 213.539403 
L 256.172212 214.244952 
L 256.543565 214.38655 
L 256.914919 214.390314 
L 257.286272 214.262347 
L 258.028978 213.649556 
L 258.771684 212.648062 
L 259.885744 210.70144 
L 261.74251 207.438197 
L 262.485216 206.476918 
L 263.227922 205.826997 
L 263.970629 205.511724 
L 264.713335 205.514161 
L 265.456041 205.781443 
L 266.570101 206.497486 
L 268.055514 207.519548 
L 268.79822 207.850434 
L 269.540926 207.973642 
L 270.283633 207.862471 
L 271.026339 207.526607 
L 272.140399 206.70964 
L 273.997164 205.254087 
L 274.739871 204.948251 
L 275.482577 204.944147 
L 276.225283 205.303488 
L 276.96799 206.049716 
L 277.710696 207.162074 
L 278.824756 209.360435 
L 281.052875 214.047638 
L 281.795581 215.106232 
L 282.538287 215.658101 
L 282.909641 215.708427 
L 283.280994 215.595201 
L 283.652347 215.312858 
L 284.395053 214.237563 
L 285.13776 212.515889 
L 286.251819 208.949816 
L 289.222644 198.325752 
L 289.965351 196.685332 
L 290.336704 196.163684 
L 290.708057 195.865459 
L 291.07941 195.803615 
L 291.450763 195.986348 
L 291.822117 196.416795 
L 292.19347 197.09284 
L 292.936176 199.146656 
L 293.678883 202.025796 
L 294.792942 207.439367 
L 297.021061 218.640267 
L 297.763767 221.340767 
L 298.506474 223.073374 
L 298.877827 223.518245 
L 299.24918 223.66169 
L 299.620533 223.49582 
L 299.991886 223.019052 
L 300.36324 222.236233 
L 301.105946 219.803782 
L 301.848652 216.361974 
L 302.962712 209.876468 
L 305.190831 196.436796 
L 305.933537 193.152433 
L 306.676244 190.977063 
L 307.047597 190.369297 
L 307.41895 190.103169 
L 307.790303 190.186425 
L 308.161656 190.619713 
L 308.533009 191.396534 
L 309.275716 193.91971 
L 310.018422 197.568133 
L 311.132482 204.51528 
L 313.360601 219.053055 
L 314.103307 222.669484 
L 314.846013 225.138577 
L 315.217366 225.877835 
L 315.58872 226.265437 
L 315.960073 226.294186 
L 316.331426 225.964207 
L 316.702779 225.282932 
L 317.445485 222.931595 
L 318.188192 219.435681 
L 319.302251 212.69211 
L 321.53037 198.4427 
L 322.273077 194.849157 
L 323.015783 192.33933 
L 323.387136 191.550439 
L 323.758489 191.09111 
L 324.129843 190.966952 
L 324.501196 191.176635 
L 324.872549 191.71199 
L 325.243902 192.558251 
L 325.986608 195.093841 
L 326.729315 198.550893 
L 328.214727 206.981589 
L 329.70014 215.113647 
L 330.442846 218.262437 
L 331.185553 220.479466 
L 331.556906 221.191975 
L 331.928259 221.627254 
L 332.299612 221.782892 
L 332.670966 221.662433 
L 333.042319 221.275186 
L 333.413672 220.635904 
L 334.156378 218.684752 
L 334.899085 216.016877 
L 336.75585 207.957561 
L 337.86991 203.552162 
L 338.612616 201.285985 
L 339.355323 199.735573 
L 339.726676 199.254378 
L 340.098029 198.97334 
L 340.469382 198.889705 
L 340.840735 198.99625 
L 341.212088 199.281597 
L 341.954795 200.324913 
L 342.697501 201.862835 
L 346.03968 209.752912 
L 346.782386 210.741785 
L 347.525092 211.263772 
L 348.267799 211.334006 
L 349.010505 211.019457 
L 349.753211 210.42822 
L 351.98133 208.362725 
L 352.724037 208.005729 
L 353.466743 207.958625 
L 354.209449 208.241214 
L 354.952156 208.821962 
L 356.066215 210.066292 
L 357.551628 211.731169 
L 358.294334 212.228081 
L 359.037041 212.31998 
L 359.408394 212.182897 
L 360.1511 211.507306 
L 360.893807 210.292194 
L 361.636513 208.587841 
L 362.750572 205.37578 
L 364.607338 199.868288 
L 365.350045 198.27164 
L 366.092751 197.344075 
L 366.464104 197.183608 
L 366.835457 197.245626 
L 367.20681 197.539597 
L 367.578164 198.069898 
L 368.32087 199.829992 
L 369.063576 202.451542 
L 370.177636 207.626199 
L 372.777108 220.580123 
L 373.519814 223.041852 
L 373.891168 223.88053 
L 374.262521 224.421725 
L 374.633874 224.645426 
L 375.005227 224.537951 
L 375.37658 224.092406 
L 375.747933 223.30899 
L 376.49064 220.765627 
L 377.233346 217.053443 
L 378.347406 209.87146 
L 380.575525 194.433588 
L 381.318231 190.527091 
L 382.060937 187.87261 
L 382.43229 187.100385 
L 382.803644 186.72978 
L 383.174997 186.774624 
L 383.54635 187.240327 
L 383.917703 188.123642 
L 384.66041 191.086774 
L 385.403116 195.467892 
L 386.517175 203.974022 
L 388.745294 222.289213 
L 389.488001 226.97561 
L 390.230707 230.24081 
L 390.60206 231.247107 
L 390.973413 231.802292 
L 391.344767 231.892397 
L 391.71612 231.512877 
L 392.087473 230.668759 
L 392.458826 229.374584 
L 393.201532 225.540062 
L 393.944239 220.301331 
L 395.429651 207.327763 
L 396.915064 194.474609 
L 397.65777 189.382872 
L 398.400477 185.747377 
L 398.77183 184.570097 
L 399.143183 183.853028 
L 399.514536 183.609445 
L 399.88589 183.842952 
L 400.257243 184.547433 
L 400.628596 185.707198 
L 401.371302 189.284287 
L 402.114009 194.275473 
L 403.228068 203.49397 
L 405.084834 219.271296 
L 405.82754 224.268949 
L 406.570247 227.903166 
L 406.9416 229.122665 
L 407.312953 229.914359 
L 407.684306 230.26734 
L 408.055659 230.179824 
L 408.427012 229.659087 
L 408.798366 228.721214 
L 409.541072 225.699662 
L 410.283778 221.399208 
L 411.397838 213.400471 
L 413.254604 199.711283 
L 413.99731 195.378088 
L 414.740016 192.209664 
L 415.11137 191.130066 
L 415.482723 190.408109 
L 415.854076 190.049956 
L 416.225429 190.053954 
L 416.596782 190.410823 
L 416.968135 191.104021 
L 417.710842 193.400149 
L 418.453548 196.687704 
L 419.938961 204.899342 
L 421.424373 212.8785 
L 422.16708 215.975858 
L 422.909786 218.178903 
L 423.281139 218.906281 
L 423.652492 219.375803 
L 424.023846 219.588806 
L 424.395199 219.552517 
L 424.766552 219.279693 
L 425.137905 218.788138 
L 425.880612 217.24161 
L 426.994671 213.94342 
L 428.851437 207.958349 
L 429.594143 206.066043 
L 430.33685 204.700024 
L 431.079556 203.926818 
L 431.450909 203.763038 
L 431.450909 203.763038 
" clip-path="url(#p860d12243b)" style="fill: none; stroke: #1f77b4; stroke-width: 1.5; stroke-linecap: square"/>
   </g>
   <g id="patch_13">
    <path d="M 41.92 234.306544 
L 41.92 181.195297 
" style="fill: none; stroke: #000000; stroke-width: 0.8; stroke-linejoin: miter; stroke-linecap: square"/>
   </g>
   <g id="patch_14">
    <path d="M 450 234.306544 
L 450 181.195297 
" style="fill: none; stroke: #000000; stroke-width: 0.8; stroke-linejoin: miter; stroke-linecap: square"/>
   </g>
   <g id="patch_15">
    <path d="M 41.92 234.306544 
L 450 234.306544 
" style="fill: none; stroke: #000000; stroke-width: 0.8; stroke-linejoin: miter; stroke-linecap: square"/>
   </g>
   <g id="patch_16">
    <path d="M 41.92 181.195297 
L 450 181.195297 
" style="fill: none; stroke: #000000; stroke-width: 0.8; stroke-linejoin: miter; stroke-linecap: square"/>
   </g>
  </g>
  <g id="axes_4">
   <g id="patch_17">
    <path d="M 41.92 317.72 
L 450 317.72 
L 450 264.608753 
L 41.92 264.608753 
z
" style="fill: #ffffff"/>
   </g>
   <g id="matplotlib.axis_7">
    <g id="xtick_19">
     <g id="line2d_29">
      <g>
       <use xlink:href="#mbcb02aef95" x="60.469091" y="317.72" style="stroke: #000000; stroke-width: 0.8"/>
      </g>
     </g>
     <g id="text_26">
      <!-- 0 -->
      <g transform="translate(57.287841 332.318437) scale(0.1 -0.1)">
       <use xlink:href="#DejaVuSans-30"/>
      </g>
     </g>
    </g>
    <g id="xtick_20">
     <g id="line2d_30">
      <g>
       <use xlink:href="#mbcb02aef95" x="134.739725" y="317.72" style="stroke: #000000; stroke-width: 0.8"/>
      </g>
     </g>
     <g id="text_27">
      <!-- 200 -->
      <g transform="translate(125.195975 332.318437) scale(0.1 -0.1)">
       <use xlink:href="#DejaVuSans-32"/>
       <use xlink:href="#DejaVuSans-30" x="63.623047"/>
       <use xlink:href="#DejaVuSans-30" x="127.246094"/>
      </g>
     </g>
    </g>
    <g id="xtick_21">
     <g id="line2d_31">
      <g>
       <use xlink:href="#mbcb02aef95" x="209.010359" y="317.72" style="stroke: #000000; stroke-width: 0.8"/>
      </g>
     </g>
     <g id="text_28">
      <!-- 400 -->
      <g transform="translate(199.466609 332.318437) scale(0.1 -0.1)">
       <use xlink:href="#DejaVuSans-34"/>
       <use xlink:href="#DejaVuSans-30" x="63.623047"/>
       <use xlink:href="#DejaVuSans-30" x="127.246094"/>
      </g>
     </g>
    </g>
    <g id="xtick_22">
     <g id="line2d_32">
      <g>
       <use xlink:href="#mbcb02aef95" x="283.280994" y="317.72" style="stroke: #000000; stroke-width: 0.8"/>
      </g>
     </g>
     <g id="text_29">
      <!-- 600 -->
      <g transform="translate(273.737244 332.318437) scale(0.1 -0.1)">
       <use xlink:href="#DejaVuSans-36"/>
       <use xlink:href="#DejaVuSans-30" x="63.623047"/>
       <use xlink:href="#DejaVuSans-30" x="127.246094"/>
      </g>
     </g>
    </g>
    <g id="xtick_23">
     <g id="line2d_33">
      <g>
       <use xlink:href="#mbcb02aef95" x="357.551628" y="317.72" style="stroke: #000000; stroke-width: 0.8"/>
      </g>
     </g>
     <g id="text_30">
      <!-- 800 -->
      <g transform="translate(348.007878 332.318437) scale(0.1 -0.1)">
       <use xlink:href="#DejaVuSans-38"/>
       <use xlink:href="#DejaVuSans-30" x="63.623047"/>
       <use xlink:href="#DejaVuSans-30" x="127.246094"/>
      </g>
     </g>
    </g>
    <g id="xtick_24">
     <g id="line2d_34">
      <g>
       <use xlink:href="#mbcb02aef95" x="431.822262" y="317.72" style="stroke: #000000; stroke-width: 0.8"/>
      </g>
     </g>
     <g id="text_31">
      <!-- 1000 -->
      <g transform="translate(419.097262 332.318437) scale(0.1 -0.1)">
       <use xlink:href="#DejaVuSans-31"/>
       <use xlink:href="#DejaVuSans-30" x="63.623047"/>
       <use xlink:href="#DejaVuSans-30" x="127.246094"/>
       <use xlink:href="#DejaVuSans-30" x="190.869141"/>
      </g>
     </g>
    </g>
   </g>
   <g id="matplotlib.axis_8">
    <g id="ytick_8">
     <g id="line2d_35">
      <g>
       <use xlink:href="#me5179b328b" x="41.92" y="293.245241" style="stroke: #000000; stroke-width: 0.8"/>
      </g>
     </g>
     <g id="text_32">
      <!-- 0 -->
      <g transform="translate(28.5575 297.044459) scale(0.1 -0.1)">
       <use xlink:href="#DejaVuSans-30"/>
      </g>
     </g>
    </g>
    <g id="ytick_9">
     <g id="line2d_36">
      <g>
       <use xlink:href="#me5179b328b" x="41.92" y="266.020566" style="stroke: #000000; stroke-width: 0.8"/>
      </g>
     </g>
     <g id="text_33">
      <!-- 2 -->
      <g transform="translate(28.5575 269.819785) scale(0.1 -0.1)">
       <use xlink:href="#DejaVuSans-32"/>
      </g>
     </g>
    </g>
   </g>
   <g id="line2d_37">
    <path d="M 60.469091 294.838928 
L 60.840444 294.838816 
L 61.211797 282.496852 
L 61.58315 288.02195 
L 61.954504 296.440562 
L 62.325857 289.552485 
L 62.69721 296.399339 
L 63.068563 296.415076 
L 63.439916 291.598405 
L 63.811269 306.267348 
L 64.182623 304.985322 
L 64.553976 297.072264 
L 64.925329 300.13874 
L 65.296682 291.10642 
L 65.668035 299.425405 
L 66.039388 302.857618 
L 66.410742 283.269788 
L 66.782095 294.781912 
L 67.153448 292.785632 
L 67.524801 302.942317 
L 68.267508 292.490283 
L 68.638861 301.079097 
L 69.010214 290.688176 
L 69.381567 297.333289 
L 69.75292 295.230557 
L 70.124273 297.340557 
L 70.495627 280.638323 
L 70.86698 293.337105 
L 71.238333 300.444199 
L 71.609686 287.646861 
L 71.981039 301.554508 
L 72.352392 291.82368 
L 72.723746 306.583086 
L 73.095099 302.285099 
L 73.466452 291.90537 
L 73.837805 288.219112 
L 74.209158 292.078879 
L 74.580511 294.032362 
L 74.951865 295.294603 
L 75.323218 303.30831 
L 75.694571 298.144622 
L 76.065924 296.380426 
L 76.437277 286.050288 
L 76.80863 290.906517 
L 77.179984 305.244789 
L 77.551337 291.03947 
L 77.92269 295.866175 
L 78.294043 297.852486 
L 78.665396 289.082069 
L 79.036749 286.228084 
L 79.408103 286.906791 
L 79.779456 298.957096 
L 80.522162 290.990606 
L 80.893515 286.605516 
L 81.264869 296.506581 
L 81.636222 294.508867 
L 82.007575 300.775143 
L 82.378928 301.386824 
L 82.750281 287.715053 
L 83.121634 284.014442 
L 83.492988 293.735354 
L 83.864341 286.415026 
L 84.235694 290.783885 
L 84.607047 297.636034 
L 85.349753 282.777104 
L 85.721107 293.489079 
L 86.09246 282.596012 
L 86.463813 311.075667 
L 86.835166 287.651234 
L 87.206519 292.652783 
L 87.577872 295.280335 
L 87.949226 292.620701 
L 88.320579 306.77297 
L 88.691932 294.740364 
L 89.063285 290.814672 
L 89.434638 283.186445 
L 89.805991 296.772675 
L 90.177345 298.747984 
L 90.548698 296.660284 
L 90.920051 287.014859 
L 91.291404 291.007705 
L 91.662757 296.850878 
L 92.03411 289.751856 
L 92.405464 292.584514 
L 92.776817 286.652479 
L 93.14817 298.023532 
L 93.519523 295.475364 
L 93.890876 295.913995 
L 94.26223 303.20617 
L 94.633583 291.229796 
L 95.004936 291.468454 
L 95.747642 294.84188 
L 96.118995 302.878492 
L 96.490349 296.108223 
L 96.861702 295.577813 
L 97.233055 298.705675 
L 97.975761 290.495202 
L 98.347114 280.407541 
L 98.718468 292.057034 
L 99.089821 291.492309 
L 99.461174 293.751932 
L 99.832527 306.304721 
L 100.20388 293.425698 
L 100.575233 292.835304 
L 100.946587 276.479999 
L 101.31794 294.554482 
L 101.689293 291.192858 
L 102.060646 293.481495 
L 102.431999 301.19946 
L 102.803352 285.466996 
L 103.174706 288.127458 
L 103.546059 287.861344 
L 103.917412 299.434685 
L 104.288765 283.697586 
L 104.660118 302.786475 
L 105.402825 278.33663 
L 105.774178 299.986998 
L 106.145531 297.099558 
L 106.516884 292.566997 
L 106.888237 296.671981 
L 107.25959 303.799317 
L 107.630944 292.778589 
L 108.002297 300.475459 
L 108.37365 290.021891 
L 108.745003 299.502997 
L 109.116356 282.696126 
L 109.48771 298.576194 
L 109.859063 295.437245 
L 110.230416 287.708305 
L 110.601769 301.622711 
L 111.344475 284.348607 
L 111.715829 304.186042 
L 112.087182 291.988591 
L 112.458535 291.476434 
L 112.829888 287.924022 
L 113.201241 301.664136 
L 113.572594 302.232491 
L 113.943948 289.692818 
L 114.315301 291.223913 
L 114.686654 291.540344 
L 115.058007 290.887256 
L 115.42936 297.873603 
L 115.800713 291.664483 
L 116.172067 291.25054 
L 116.54342 298.107237 
L 116.914773 280.546465 
L 117.657479 301.353453 
L 118.028832 288.776626 
L 118.400186 299.879088 
L 118.771539 287.88821 
L 119.142892 285.359644 
L 119.514245 298.830943 
L 119.885598 286.68834 
L 120.256951 290.435784 
L 120.628305 287.65016 
L 120.999658 280.335348 
L 121.371011 294.915393 
L 121.742364 298.375296 
L 122.113717 299.299426 
L 122.485071 298.797783 
L 122.856424 293.770008 
L 123.227777 290.923303 
L 123.59913 291.362036 
L 123.970483 287.615292 
L 124.341836 293.156747 
L 124.71319 283.352243 
L 125.084543 295.04654 
L 125.455896 274.731311 
L 126.198602 299.079199 
L 126.569955 300.533915 
L 126.941309 289.961452 
L 127.312662 294.766166 
L 127.684015 288.385633 
L 128.055368 290.024305 
L 128.426721 293.740926 
L 129.169428 303.555546 
L 129.912134 287.416446 
L 130.283487 291.788082 
L 130.65484 301.723949 
L 131.026193 292.066542 
L 131.397547 290.622705 
L 131.7689 299.260923 
L 132.140253 292.198962 
L 132.511606 292.849062 
L 132.882959 301.024489 
L 133.254312 290.810079 
L 133.625666 289.428446 
L 133.997019 285.873811 
L 134.368372 286.072886 
L 134.739725 302.62189 
L 135.111078 299.628236 
L 135.482432 289.739824 
L 136.225138 289.739739 
L 136.596491 267.022901 
L 136.967844 289.359663 
L 137.339197 285.516389 
L 137.710551 286.752144 
L 138.081904 288.811762 
L 138.453257 295.391016 
L 138.82461 288.079568 
L 139.195963 298.505219 
L 139.567316 294.857068 
L 139.93867 296.548707 
L 140.310023 292.687991 
L 140.681376 277.491284 
L 141.052729 305.954162 
L 141.424082 288.574438 
L 141.795435 304.221657 
L 142.166789 296.457288 
L 142.538142 285.833659 
L 143.280848 300.580553 
L 143.652201 298.113718 
L 144.023554 288.619784 
L 144.394908 298.216239 
L 144.766261 291.771987 
L 145.137614 292.935071 
L 145.508967 297.680142 
L 145.88032 278.653196 
L 146.251673 288.930681 
L 146.623027 307.028702 
L 146.99438 291.976201 
L 147.365733 297.749471 
L 147.737086 287.443436 
L 148.108439 298.63927 
L 148.851146 289.808212 
L 149.222499 287.352765 
L 149.593852 301.41466 
L 149.965205 295.521912 
L 150.707912 297.691909 
L 151.079265 281.229261 
L 151.821971 301.827029 
L 152.193324 286.998117 
L 152.564677 278.801488 
L 152.936031 286.218108 
L 153.307384 303.586329 
L 153.678737 296.541019 
L 154.05009 284.62243 
L 154.421443 298.061758 
L 154.792796 290.224531 
L 155.16415 287.972951 
L 155.535503 299.554086 
L 155.906856 293.65038 
L 156.278209 315.305852 
L 156.649562 300.217395 
L 157.020915 294.964262 
L 157.392269 301.737863 
L 157.763622 282.134774 
L 158.134975 302.979024 
L 158.506328 296.240257 
L 158.877681 292.355398 
L 159.249034 283.435692 
L 159.620388 303.01796 
L 159.991741 285.328552 
L 160.734447 299.925554 
L 161.1058 290.100086 
L 161.477154 291.890407 
L 161.848507 297.330418 
L 162.21986 292.770156 
L 162.591213 295.86775 
L 163.333919 288.738668 
L 163.705273 282.450543 
L 164.076626 301.670021 
L 164.447979 278.727456 
L 164.819332 306.531479 
L 165.190685 294.278315 
L 165.562038 289.241054 
L 165.933392 291.332762 
L 166.304745 297.483438 
L 166.676098 294.661756 
L 167.047451 296.600688 
L 167.418804 297.256556 
L 167.790157 287.462705 
L 168.161511 290.815333 
L 168.532864 297.9613 
L 168.904217 287.122412 
L 169.27557 291.153708 
L 169.646923 287.712764 
L 170.018276 288.95988 
L 170.38963 298.88752 
L 170.760983 297.057927 
L 171.132336 288.159034 
L 171.503689 289.090958 
L 171.875042 293.3875 
L 172.246395 292.446691 
L 172.617749 284.549238 
L 172.989102 297.271575 
L 173.360455 289.521604 
L 173.731808 294.621398 
L 174.103161 294.726815 
L 174.474515 285.76678 
L 174.845868 287.627318 
L 175.217221 287.708357 
L 175.588574 284.359932 
L 175.959927 293.102285 
L 176.33128 288.603754 
L 176.702634 295.356968 
L 177.073987 291.03891 
L 177.44534 294.131016 
L 177.816693 292.58507 
L 178.188046 289.194501 
L 178.559399 298.814188 
L 178.930753 279.0041 
L 179.302106 300.092364 
L 179.673459 301.509213 
L 180.044812 285.362943 
L 180.416165 287.857051 
L 180.787518 288.997376 
L 181.158872 288.968615 
L 181.530225 293.328594 
L 181.901578 299.352105 
L 182.272931 292.729302 
L 182.644284 297.854117 
L 183.015637 286.608411 
L 183.386991 294.246138 
L 183.758344 298.863714 
L 184.129697 295.432647 
L 184.50105 290.434759 
L 184.872403 297.082045 
L 185.243756 298.841411 
L 185.61511 291.586664 
L 185.986463 291.577957 
L 186.357816 296.695581 
L 186.729169 296.451207 
L 187.100522 291.66587 
L 187.471876 303.101147 
L 187.843229 302.824676 
L 188.585935 294.697998 
L 188.957288 291.129151 
L 189.328641 283.203717 
L 189.699995 287.407865 
L 190.071348 294.333809 
L 190.442701 293.374668 
L 190.814054 300.068624 
L 191.185407 293.371244 
L 191.55676 295.2099 
L 191.928114 291.048764 
L 192.299467 298.875514 
L 193.042173 282.813161 
L 193.413526 293.98548 
L 193.784879 290.511123 
L 194.156233 288.548004 
L 194.527586 295.976015 
L 194.898939 291.720029 
L 195.270292 293.159535 
L 195.641645 292.580441 
L 196.012998 298.506475 
L 196.384352 293.07842 
L 196.755705 289.85578 
L 197.127058 283.368512 
L 197.498411 286.716282 
L 197.869764 278.590318 
L 198.241117 298.467937 
L 198.612471 287.308079 
L 198.983824 291.997384 
L 199.355177 278.341073 
L 199.72653 298.746655 
L 200.097883 298.960529 
L 200.469237 297.324808 
L 200.84059 307.700833 
L 201.211943 296.823618 
L 201.583296 298.412025 
L 201.954649 292.221635 
L 202.326002 290.919192 
L 202.697356 280.475706 
L 203.068709 286.776496 
L 203.440062 297.171744 
L 203.811415 299.360002 
L 204.182768 289.897156 
L 204.554121 302.23097 
L 204.925475 280.780023 
L 205.296828 285.217772 
L 206.039534 304.905123 
L 206.410887 284.030557 
L 206.78224 294.024818 
L 207.153594 284.820454 
L 207.524947 304.097184 
L 207.8963 297.324688 
L 208.267653 293.209551 
L 208.639006 292.925483 
L 209.010359 296.308462 
L 209.381713 289.006019 
L 209.753066 300.511645 
L 210.124419 294.214299 
L 210.495772 292.426488 
L 210.867125 289.743883 
L 211.238478 288.40187 
L 211.609832 300.899744 
L 211.981185 303.68668 
L 212.352538 284.549157 
L 213.095244 298.339566 
L 213.466598 282.687839 
L 213.837951 292.457939 
L 214.209304 285.218745 
L 214.580657 292.785698 
L 214.95201 279.219443 
L 215.323363 281.298095 
L 215.694717 294.939732 
L 216.06607 286.632565 
L 216.437423 288.852703 
L 216.808776 283.930103 
L 217.180129 299.812672 
L 217.551482 288.575859 
L 217.922836 286.041425 
L 218.294189 305.215518 
L 218.665542 301.298697 
L 219.036895 307.124598 
L 219.408248 295.078869 
L 220.150955 283.019945 
L 220.522308 292.740939 
L 220.893661 282.160609 
L 221.265014 302.638444 
L 221.636367 304.838749 
L 222.00772 293.623308 
L 222.379074 290.631226 
L 222.750427 293.467766 
L 223.12178 307.3166 
L 223.493133 293.851807 
L 223.864486 302.12368 
L 224.235839 288.687336 
L 224.607193 290.750111 
L 224.978546 299.642221 
L 225.349899 296.742705 
L 225.721252 300.454426 
L 226.463959 286.744381 
L 226.835312 299.954258 
L 227.206665 289.814615 
L 227.578018 296.854263 
L 227.949371 298.641667 
L 228.320724 293.973707 
L 228.692078 300.291274 
L 229.063431 297.013471 
L 229.434784 301.398199 
L 229.806137 279.87299 
L 230.17749 293.005231 
L 230.548843 298.00769 
L 230.920197 291.788857 
L 231.29155 294.009764 
L 231.662903 294.749197 
L 232.034256 289.065118 
L 232.405609 288.089515 
L 232.776962 296.855921 
L 233.148316 297.164357 
L 233.519669 295.117289 
L 233.891022 308.912504 
L 234.262375 303.557886 
L 234.633728 283.942064 
L 235.005081 282.049313 
L 235.376435 294.940222 
L 235.747788 289.321097 
L 236.119141 291.126819 
L 236.490494 272.289859 
L 236.861847 285.625225 
L 237.2332 294.115869 
L 237.975907 304.178985 
L 238.34726 291.860433 
L 238.718613 298.393091 
L 239.089966 302.925339 
L 239.46132 297.645925 
L 239.832673 300.606439 
L 240.204026 281.76227 
L 240.946732 293.299504 
L 241.318085 283.172491 
L 241.689439 292.718659 
L 242.060792 299.107286 
L 242.432145 282.878601 
L 242.803498 289.577328 
L 243.174851 300.304913 
L 243.546204 294.540718 
L 244.288911 302.656809 
L 244.660264 286.94152 
L 245.031617 280.249429 
L 245.40297 302.764127 
L 245.774323 289.413577 
L 246.145677 297.673624 
L 246.51703 296.560698 
L 246.888383 297.277173 
L 247.259736 299.125707 
L 247.631089 292.914994 
L 248.002442 298.900827 
L 248.373796 291.404466 
L 248.745149 293.58717 
L 249.116502 294.871561 
L 249.487855 299.422272 
L 249.859208 297.170843 
L 250.230561 288.10392 
L 250.601915 289.835914 
L 250.973268 299.898646 
L 251.344621 292.569168 
L 251.715974 288.131173 
L 252.087327 304.607494 
L 252.45868 289.547039 
L 252.830034 297.75517 
L 253.201387 289.36165 
L 253.944093 305.529572 
L 254.315446 304.322569 
L 254.6868 292.917966 
L 255.058153 291.477525 
L 255.429506 299.400172 
L 255.800859 288.898873 
L 256.172212 304.553826 
L 256.543565 293.694991 
L 256.914919 301.487621 
L 257.657625 292.922637 
L 258.028978 299.101359 
L 258.400331 295.86259 
L 258.771684 286.396242 
L 259.143038 297.171664 
L 259.514391 287.557379 
L 259.885744 300.934216 
L 260.257097 289.639304 
L 260.62845 283.433681 
L 260.999803 310.06767 
L 261.74251 289.31759 
L 262.113863 294.627202 
L 262.485216 290.719159 
L 262.856569 297.356066 
L 263.227922 292.655896 
L 263.599276 294.304806 
L 263.970629 285.297119 
L 264.341982 291.513609 
L 264.713335 290.94746 
L 265.084688 296.048545 
L 265.456041 296.563971 
L 265.827395 296.189304 
L 266.198748 290.560533 
L 266.570101 296.110532 
L 266.941454 291.272984 
L 267.312807 279.119713 
L 268.055514 295.464212 
L 268.426867 285.069576 
L 269.169573 307.11706 
L 269.540926 300.106446 
L 269.91228 305.978166 
L 270.283633 295.637701 
L 270.654986 293.119882 
L 271.026339 281.835126 
L 271.397692 291.020118 
L 271.769045 294.736476 
L 272.140399 287.600166 
L 272.511752 308.2946 
L 272.883105 291.641608 
L 273.254458 287.998602 
L 273.625811 303.308748 
L 273.997164 285.460658 
L 274.739871 296.07176 
L 275.111224 288.93842 
L 275.482577 277.790522 
L 275.85393 292.007428 
L 276.225283 291.555809 
L 276.596637 296.371728 
L 276.96799 299.029425 
L 277.339343 287.593835 
L 277.710696 299.071891 
L 278.082049 292.758149 
L 278.453402 296.496258 
L 278.824756 289.985223 
L 279.196109 290.97428 
L 279.567462 286.183569 
L 279.938815 296.716498 
L 280.310168 295.082055 
L 280.681522 299.906871 
L 281.052875 296.269175 
L 281.424228 290.67727 
L 281.795581 288.093048 
L 282.166934 299.521653 
L 282.538287 287.326556 
L 282.909641 284.018541 
L 283.280994 290.431333 
L 283.652347 280.471452 
L 284.0237 298.51178 
L 284.766406 305.35151 
L 285.13776 283.062911 
L 285.880466 293.623559 
L 286.251819 291.339727 
L 286.623172 300.905509 
L 286.994525 276.59904 
L 287.365879 292.365739 
L 287.737232 292.500681 
L 288.108585 288.305551 
L 288.851291 291.721448 
L 289.222644 298.625343 
L 289.965351 280.435865 
L 290.336704 284.088085 
L 290.708057 282.401744 
L 291.07941 296.724661 
L 291.450763 299.980658 
L 291.822117 294.101367 
L 292.19347 292.865967 
L 292.564823 285.797989 
L 292.936176 304.76444 
L 293.307529 282.834863 
L 293.678883 294.320669 
L 294.050236 296.150665 
L 294.792942 304.508474 
L 295.164295 287.642603 
L 295.535648 292.746226 
L 295.907002 302.024932 
L 296.278355 302.059765 
L 296.649708 295.530648 
L 297.021061 281.885599 
L 297.392414 295.012063 
L 297.763767 303.475885 
L 298.135121 294.917809 
L 298.506474 295.101443 
L 298.877827 311.600706 
L 299.24918 293.614781 
L 299.620533 294.81702 
L 300.36324 280.660934 
L 300.734593 285.577649 
L 301.105946 295.075342 
L 301.477299 300.776442 
L 301.848652 275.73052 
L 302.220005 292.84219 
L 302.962712 293.40944 
L 303.334065 291.897042 
L 304.076771 297.149681 
L 304.448124 296.967255 
L 304.819478 293.468165 
L 305.190831 296.943881 
L 305.562184 298.096989 
L 305.933537 292.520858 
L 306.30489 294.980658 
L 306.676244 283.008811 
L 307.047597 311.288188 
L 307.41895 285.816261 
L 307.790303 284.764175 
L 308.161656 307.357084 
L 308.533009 295.57763 
L 308.904363 295.77333 
L 309.275716 302.825002 
L 309.647069 298.539192 
L 310.018422 300.804007 
L 310.389775 281.318992 
L 310.761128 286.876856 
L 311.132482 284.590822 
L 311.503835 288.333419 
L 311.875188 300.929757 
L 312.246541 296.815214 
L 312.617894 289.914475 
L 312.989247 301.563248 
L 313.360601 288.392453 
L 313.731954 294.880936 
L 314.103307 295.796334 
L 314.47466 288.406327 
L 314.846013 290.22151 
L 315.217366 295.702037 
L 315.58872 285.354646 
L 315.960073 300.60314 
L 316.331426 289.053079 
L 316.702779 289.208493 
L 317.074132 295.352066 
L 317.445485 291.025524 
L 317.816839 301.76053 
L 318.188192 286.956157 
L 318.559545 294.503716 
L 318.930898 296.802982 
L 319.302251 286.105507 
L 319.673605 298.039122 
L 320.044958 302.831466 
L 320.416311 303.839921 
L 320.787664 289.120635 
L 321.159017 301.960059 
L 321.53037 281.301816 
L 321.901724 307.415203 
L 322.273077 281.698872 
L 322.64443 291.80902 
L 323.015783 293.903486 
L 323.387136 296.954052 
L 323.758489 290.528653 
L 324.129843 293.501389 
L 324.501196 285.735982 
L 324.872549 292.467788 
L 325.243902 292.222261 
L 325.615255 295.720047 
L 326.357962 291.15029 
L 326.729315 304.884935 
L 327.100668 302.421218 
L 327.472021 288.18646 
L 327.843374 292.082302 
L 328.214727 294.497462 
L 328.586081 293.119776 
L 328.957434 290.879541 
L 329.328787 296.918936 
L 329.70014 298.542514 
L 330.071493 291.912285 
L 330.442846 299.904211 
L 330.8142 290.466603 
L 331.185553 304.833312 
L 331.556906 286.240634 
L 331.928259 290.028662 
L 332.299612 291.502659 
L 333.042319 281.909741 
L 333.413672 286.341267 
L 333.785025 305.774541 
L 334.527731 297.497861 
L 335.270438 289.721966 
L 335.641791 298.184775 
L 336.013144 291.974074 
L 336.384497 298.386504 
L 336.75585 297.407334 
L 337.127204 302.819213 
L 337.498557 299.528922 
L 337.86991 302.445034 
L 338.241263 299.887198 
L 338.612616 286.073977 
L 338.983969 299.707009 
L 339.355323 275.328804 
L 339.726676 289.887636 
L 340.098029 291.987215 
L 340.469382 299.087368 
L 340.840735 288.478813 
L 341.212088 297.163129 
L 341.583442 292.414821 
L 341.954795 275.820874 
L 342.326148 293.89904 
L 342.697501 285.423093 
L 343.068854 298.031178 
L 343.440207 293.483378 
L 343.811561 281.192873 
L 344.182914 297.512484 
L 344.554267 280.90941 
L 345.296973 297.073484 
L 345.668327 288.940967 
L 346.03968 286.625871 
L 346.411033 289.013097 
L 346.782386 303.932455 
L 347.153739 298.194259 
L 347.525092 294.929894 
L 347.896446 293.751847 
L 348.267799 289.020842 
L 348.639152 292.035778 
L 349.010505 302.333819 
L 349.381858 290.65755 
L 349.753211 289.089491 
L 350.124565 289.435212 
L 350.495918 285.889265 
L 350.867271 287.569426 
L 351.238624 290.119983 
L 351.609977 293.7228 
L 351.98133 304.550021 
L 352.352684 290.321186 
L 352.724037 291.831683 
L 353.09539 291.396829 
L 353.466743 301.935007 
L 353.838096 300.603094 
L 354.209449 286.077305 
L 354.580803 293.51446 
L 354.952156 288.606832 
L 355.323509 293.052501 
L 355.694862 293.042715 
L 356.066215 286.859123 
L 356.437568 296.757528 
L 356.808922 292.591026 
L 357.180275 296.391564 
L 357.551628 296.202495 
L 357.922981 295.349518 
L 358.294334 291.733361 
L 358.665688 296.503684 
L 359.037041 284.698353 
L 359.408394 299.334089 
L 359.779747 294.51712 
L 360.1511 296.238124 
L 360.522453 283.396865 
L 360.893807 291.907456 
L 361.26516 286.222333 
L 361.636513 303.356215 
L 362.007866 291.427651 
L 362.379219 287.190263 
L 362.750572 292.685202 
L 363.121926 285.993401 
L 363.493279 296.765993 
L 363.864632 283.652984 
L 364.235985 277.598552 
L 364.607338 295.714781 
L 364.978691 296.277406 
L 365.350045 283.353261 
L 365.721398 282.494406 
L 366.092751 296.803914 
L 366.464104 296.105103 
L 366.835457 295.163114 
L 367.20681 302.395797 
L 367.578164 299.497741 
L 367.949517 300.079592 
L 368.32087 298.471 
L 368.692223 293.481312 
L 369.063576 291.651136 
L 369.434929 282.692273 
L 369.806283 300.040206 
L 370.177636 286.545776 
L 370.548989 294.701685 
L 370.920342 293.581899 
L 371.291695 288.652305 
L 371.663049 300.886676 
L 372.034402 290.642495 
L 372.405755 292.112339 
L 372.777108 289.893534 
L 373.148461 291.27711 
L 373.519814 276.534054 
L 373.891168 297.585806 
L 374.262521 296.859295 
L 374.633874 297.48644 
L 375.005227 297.025911 
L 375.37658 297.583405 
L 375.747933 285.152594 
L 376.119287 283.577049 
L 376.49064 297.129836 
L 376.861993 298.910393 
L 377.233346 290.036707 
L 377.604699 297.003764 
L 377.976052 288.9374 
L 378.347406 291.864112 
L 378.718759 303.56165 
L 379.090112 282.712659 
L 379.461465 281.022194 
L 379.832818 297.415984 
L 380.204171 295.884003 
L 380.575525 291.299592 
L 380.946878 290.968871 
L 381.318231 288.763077 
L 381.689584 279.56345 
L 382.060937 294.449573 
L 382.803644 302.63312 
L 383.54635 293.470708 
L 383.917703 281.031177 
L 384.289056 296.76819 
L 384.66041 291.722102 
L 385.031763 293.357018 
L 385.774469 276.046512 
L 386.145822 296.858423 
L 386.517175 296.576448 
L 386.888529 286.138506 
L 387.259882 288.604172 
L 387.631235 280.676239 
L 388.373941 295.690643 
L 388.745294 289.225144 
L 389.116648 285.699217 
L 389.859354 289.792648 
L 390.230707 285.985273 
L 390.60206 285.286818 
L 390.973413 283.838033 
L 391.71612 294.382674 
L 392.087473 292.246682 
L 392.458826 285.033537 
L 392.830179 298.805442 
L 393.201532 290.735988 
L 393.572886 295.922371 
L 393.944239 293.049598 
L 394.315592 284.543882 
L 394.686945 291.944588 
L 395.058298 292.929186 
L 395.429651 302.500651 
L 395.801005 288.166113 
L 396.172358 288.851966 
L 396.543711 278.521764 
L 396.915064 295.340031 
L 397.286417 291.753666 
L 397.65777 291.547893 
L 398.029124 282.508828 
L 398.400477 293.893838 
L 399.143183 289.107794 
L 399.514536 291.975147 
L 399.88589 296.283743 
L 400.257243 291.924231 
L 400.628596 285.937922 
L 400.999949 300.231877 
L 401.371302 292.340226 
L 401.742655 298.010381 
L 402.114009 285.111552 
L 402.485362 303.612307 
L 403.599421 282.59002 
L 403.970774 293.692748 
L 404.342128 297.024022 
L 404.713481 280.441768 
L 405.084834 303.100667 
L 405.456187 308.210685 
L 405.82754 290.250428 
L 406.198893 296.662306 
L 406.570247 300.195923 
L 406.9416 288.424047 
L 407.312953 291.585892 
L 408.055659 301.959208 
L 408.427012 287.307149 
L 408.798366 288.819862 
L 409.169719 293.920248 
L 409.541072 280.676718 
L 409.912425 300.528418 
L 410.283778 303.628222 
L 411.026485 293.555507 
L 411.397838 291.589031 
L 411.769191 294.887134 
L 412.140544 290.849092 
L 412.511897 301.763429 
L 412.883251 283.418735 
L 413.254604 293.804375 
L 413.625957 285.640737 
L 413.99731 290.912594 
L 414.740016 289.367308 
L 415.11137 290.198061 
L 415.482723 288.870761 
L 415.854076 284.198804 
L 416.225429 291.907684 
L 416.596782 288.419641 
L 416.968135 293.855997 
L 417.339489 283.44356 
L 417.710842 297.848881 
L 418.082195 280.987736 
L 418.824901 302.983337 
L 419.196254 292.37334 
L 419.567608 297.880593 
L 419.938961 287.523679 
L 420.310314 297.687109 
L 420.681667 296.28204 
L 421.05302 306.105773 
L 421.424373 296.323714 
L 421.795727 309.742572 
L 422.16708 304.02555 
L 422.538433 288.06973 
L 422.909786 287.896952 
L 423.281139 290.349505 
L 423.652492 299.826643 
L 424.023846 293.569972 
L 424.395199 293.26976 
L 424.766552 301.129266 
L 425.137905 283.012858 
L 425.509258 287.273765 
L 425.880612 294.74916 
L 426.623318 291.826952 
L 426.994671 307.141632 
L 427.366024 294.927571 
L 428.108731 300.062435 
L 428.480084 295.158456 
L 428.851437 281.009883 
L 429.594143 297.132781 
L 430.33685 283.720992 
L 430.708203 286.952028 
L 431.450909 297.648401 
L 431.450909 297.648401 
" clip-path="url(#p3b3df87127)" style="fill: none; stroke: #1f77b4; stroke-width: 1.5; stroke-linecap: square"/>
   </g>
   <g id="patch_18">
    <path d="M 41.92 317.72 
L 41.92 264.608753 
" style="fill: none; stroke: #000000; stroke-width: 0.8; stroke-linejoin: miter; stroke-linecap: square"/>
   </g>
   <g id="patch_19">
    <path d="M 450 317.72 
L 450 264.608753 
" style="fill: none; stroke: #000000; stroke-width: 0.8; stroke-linejoin: miter; stroke-linecap: square"/>
   </g>
   <g id="patch_20">
    <path d="M 41.92 317.72 
L 450 317.72 
" style="fill: none; stroke: #000000; stroke-width: 0.8; stroke-linejoin: miter; stroke-linecap: square"/>
   </g>
   <g id="patch_21">
    <path d="M 41.92 264.608753 
L 450 264.608753 
" style="fill: none; stroke: #000000; stroke-width: 0.8; stroke-linejoin: miter; stroke-linecap: square"/>
   </g>
  </g>
 </g>
 <defs>
  <clipPath id="p97b3872a5c">
   <rect x="41.92" y="14.368386" width="408.08" height="53.111247"/>
  </clipPath>
  <clipPath id="p132331da30">
   <rect x="41.92" y="97.781841" width="408.08" height="53.111247"/>
  </clipPath>
  <clipPath id="p860d12243b">
   <rect x="41.92" y="181.195297" width="408.08" height="53.111247"/>
  </clipPath>
  <clipPath id="p3b3df87127">
   <rect x="41.92" y="264.608753" width="408.08" height="53.111247"/>
  </clipPath>
 </defs>
</svg>
