<?xml version="1.0" encoding="utf-8" standalone="no"?>
<!DOCTYPE svg PUBLIC "-//W3C//DTD SVG 1.1//EN"
  "http://www.w3.org/Graphics/SVG/1.1/DTD/svg11.dtd">
<svg xmlns:xlink="http://www.w3.org/1999/xlink" width="460.8pt" height="345.6pt" viewBox="0 0 460.8 345.6" xmlns="http://www.w3.org/2000/svg" version="1.1">
 <metadata>
  <rdf:RDF xmlns:dc="http://purl.org/dc/elements/1.1/" xmlns:cc="http://creativecommons.org/ns#" xmlns:rdf="http://www.w3.org/1999/02/22-rdf-syntax-ns#">
   <cc:Work>
    <dc:type rdf:resource="http://purl.org/dc/dcmitype/StillImage"/>
    <dc:format>image/svg+xml</dc:format>
    <dc:creator>
     <cc:Agent>
      <dc:title>Matplotlib v3.8.4, https://matplotlib.org/</dc:title>
     </cc:Agent>
    </dc:creator>
   </cc:Work>
  </rdf:RDF>
 </metadata>
 <defs>
  <style type="text/css">*{stroke-linejoin: round; stroke-linecap: butt}</style>
 </defs>
 <g id="figure_1">
  <g id="patch_1">
   <path d="M 0 345.6 
L 460.8 345.6 
L 460.8 0 
L 0 0 
z
" style="fill: #ffffff"/>
  </g>
  <g id="axes_1">
   <g id="patch_2">
    <path d="M 57.6 307.584 
L 414.72 307.584 
L 414.72 41.472 
L 57.6 41.472 
z
" style="fill: #ffffff"/>
   </g>
   <g id="matplotlib.axis_1">
    <g id="xtick_1">
     <g id="line2d_1">
      <defs>
       <path id="mbcb02aef95" d="M 0 0 
L 0 3.5 
" style="stroke: #000000; stroke-width: 0.8"/>
      </defs>
      <g>
       <use xlink:href="#mbcb02aef95" x="73.832727" y="307.584" style="stroke: #000000; stroke-width: 0.8"/>
      </g>
     </g>
     <g id="text_1">
      <!-- 0 -->
      <g transform="translate(70.651477 322.182437) scale(0.1 -0.1)">
       <defs>
        <path id="DejaVuSans-30" d="M 2034 4250 
Q 1547 4250 1301 3770 
Q 1056 3291 1056 2328 
Q 1056 1369 1301 889 
Q 1547 409 2034 409 
Q 2525 409 2770 889 
Q 3016 1369 3016 2328 
Q 3016 3291 2770 3770 
Q 2525 4250 2034 4250 
z
M 2034 4750 
Q 2819 4750 3233 4129 
Q 3647 3509 3647 2328 
Q 3647 1150 3233 529 
Q 2819 -91 2034 -91 
Q 1250 -91 836 529 
Q 422 1150 422 2328 
Q 422 3509 836 4129 
Q 1250 4750 2034 4750 
z
" transform="scale(0.015625)"/>
       </defs>
       <use xlink:href="#DejaVuSans-30"/>
      </g>
     </g>
    </g>
    <g id="xtick_2">
     <g id="line2d_2">
      <g>
       <use xlink:href="#mbcb02aef95" x="138.828632" y="307.584" style="stroke: #000000; stroke-width: 0.8"/>
      </g>
     </g>
     <g id="text_2">
      <!-- 200 -->
      <g transform="translate(129.284882 322.182437) scale(0.1 -0.1)">
       <defs>
        <path id="DejaVuSans-32" d="M 1228 531 
L 3431 531 
L 3431 0 
L 469 0 
L 469 531 
Q 828 903 1448 1529 
Q 2069 2156 2228 2338 
Q 2531 2678 2651 2914 
Q 2772 3150 2772 3378 
Q 2772 3750 2511 3984 
Q 2250 4219 1831 4219 
Q 1534 4219 1204 4116 
Q 875 4013 500 3803 
L 500 4441 
Q 881 4594 1212 4672 
Q 1544 4750 1819 4750 
Q 2544 4750 2975 4387 
Q 3406 4025 3406 3419 
Q 3406 3131 3298 2873 
Q 3191 2616 2906 2266 
Q 2828 2175 2409 1742 
Q 1991 1309 1228 531 
z
" transform="scale(0.015625)"/>
       </defs>
       <use xlink:href="#DejaVuSans-32"/>
       <use xlink:href="#DejaVuSans-30" x="63.623047"/>
       <use xlink:href="#DejaVuSans-30" x="127.246094"/>
      </g>
     </g>
    </g>
    <g id="xtick_3">
     <g id="line2d_3">
      <g>
       <use xlink:href="#mbcb02aef95" x="203.824537" y="307.584" style="stroke: #000000; stroke-width: 0.8"/>
      </g>
     </g>
     <g id="text_3">
      <!-- 400 -->
      <g transform="translate(194.280787 322.182437) scale(0.1 -0.1)">
       <defs>
        <path id="DejaVuSans-34" d="M 2419 4116 
L 825 1625 
L 2419 1625 
L 2419 4116 
z
M 2253 4666 
L 3047 4666 
L 3047 1625 
L 3713 1625 
L 3713 1100 
L 3047 1100 
L 3047 0 
L 2419 0 
L 2419 1100 
L 313 1100 
L 313 1709 
L 2253 4666 
z
" transform="scale(0.015625)"/>
       </defs>
       <use xlink:href="#DejaVuSans-34"/>
       <use xlink:href="#DejaVuSans-30" x="63.623047"/>
       <use xlink:href="#DejaVuSans-30" x="127.246094"/>
      </g>
     </g>
    </g>
    <g id="xtick_4">
     <g id="line2d_4">
      <g>
       <use xlink:href="#mbcb02aef95" x="268.820442" y="307.584" style="stroke: #000000; stroke-width: 0.8"/>
      </g>
     </g>
     <g id="text_4">
      <!-- 600 -->
      <g transform="translate(259.276692 322.182437) scale(0.1 -0.1)">
       <defs>
        <path id="DejaVuSans-36" d="M 2113 2584 
Q 1688 2584 1439 2293 
Q 1191 2003 1191 1497 
Q 1191 994 1439 701 
Q 1688 409 2113 409 
Q 2538 409 2786 701 
Q 3034 994 3034 1497 
Q 3034 2003 2786 2293 
Q 2538 2584 2113 2584 
z
M 3366 4563 
L 3366 3988 
Q 3128 4100 2886 4159 
Q 2644 4219 2406 4219 
Q 1781 4219 1451 3797 
Q 1122 3375 1075 2522 
Q 1259 2794 1537 2939 
Q 1816 3084 2150 3084 
Q 2853 3084 3261 2657 
Q 3669 2231 3669 1497 
Q 3669 778 3244 343 
Q 2819 -91 2113 -91 
Q 1303 -91 875 529 
Q 447 1150 447 2328 
Q 447 3434 972 4092 
Q 1497 4750 2381 4750 
Q 2619 4750 2861 4703 
Q 3103 4656 3366 4563 
z
" transform="scale(0.015625)"/>
       </defs>
       <use xlink:href="#DejaVuSans-36"/>
       <use xlink:href="#DejaVuSans-30" x="63.623047"/>
       <use xlink:href="#DejaVuSans-30" x="127.246094"/>
      </g>
     </g>
    </g>
    <g id="xtick_5">
     <g id="line2d_5">
      <g>
       <use xlink:href="#mbcb02aef95" x="333.816347" y="307.584" style="stroke: #000000; stroke-width: 0.8"/>
      </g>
     </g>
     <g id="text_5">
      <!-- 800 -->
      <g transform="translate(324.272597 322.182437) scale(0.1 -0.1)">
       <defs>
        <path id="DejaVuSans-38" d="M 2034 2216 
Q 1584 2216 1326 1975 
Q 1069 1734 1069 1313 
Q 1069 891 1326 650 
Q 1584 409 2034 409 
Q 2484 409 2743 651 
Q 3003 894 3003 1313 
Q 3003 1734 2745 1975 
Q 2488 2216 2034 2216 
z
M 1403 2484 
Q 997 2584 770 2862 
Q 544 3141 544 3541 
Q 544 4100 942 4425 
Q 1341 4750 2034 4750 
Q 2731 4750 3128 4425 
Q 3525 4100 3525 3541 
Q 3525 3141 3298 2862 
Q 3072 2584 2669 2484 
Q 3125 2378 3379 2068 
Q 3634 1759 3634 1313 
Q 3634 634 3220 271 
Q 2806 -91 2034 -91 
Q 1263 -91 848 271 
Q 434 634 434 1313 
Q 434 1759 690 2068 
Q 947 2378 1403 2484 
z
M 1172 3481 
Q 1172 3119 1398 2916 
Q 1625 2713 2034 2713 
Q 2441 2713 2670 2916 
Q 2900 3119 2900 3481 
Q 2900 3844 2670 4047 
Q 2441 4250 2034 4250 
Q 1625 4250 1398 4047 
Q 1172 3844 1172 3481 
z
" transform="scale(0.015625)"/>
       </defs>
       <use xlink:href="#DejaVuSans-38"/>
       <use xlink:href="#DejaVuSans-30" x="63.623047"/>
       <use xlink:href="#DejaVuSans-30" x="127.246094"/>
      </g>
     </g>
    </g>
    <g id="xtick_6">
     <g id="line2d_6">
      <g>
       <use xlink:href="#mbcb02aef95" x="398.812252" y="307.584" style="stroke: #000000; stroke-width: 0.8"/>
      </g>
     </g>
     <g id="text_6">
      <!-- 1000 -->
      <g transform="translate(386.087252 322.182437) scale(0.1 -0.1)">
       <defs>
        <path id="DejaVuSans-31" d="M 794 531 
L 1825 531 
L 1825 4091 
L 703 3866 
L 703 4441 
L 1819 4666 
L 2450 4666 
L 2450 531 
L 3481 531 
L 3481 0 
L 794 0 
L 794 531 
z
" transform="scale(0.015625)"/>
       </defs>
       <use xlink:href="#DejaVuSans-31"/>
       <use xlink:href="#DejaVuSans-30" x="63.623047"/>
       <use xlink:href="#DejaVuSans-30" x="127.246094"/>
       <use xlink:href="#DejaVuSans-30" x="190.869141"/>
      </g>
     </g>
    </g>
    <g id="text_7">
     <!-- Time -->
     <g transform="translate(223.926406 335.860562) scale(0.1 -0.1)">
      <defs>
       <path id="DejaVuSans-54" d="M -19 4666 
L 3928 4666 
L 3928 4134 
L 2272 4134 
L 2272 0 
L 1638 0 
L 1638 4134 
L -19 4134 
L -19 4666 
z
" transform="scale(0.015625)"/>
       <path id="DejaVuSans-69" d="M 603 3500 
L 1178 3500 
L 1178 0 
L 603 0 
L 603 3500 
z
M 603 4863 
L 1178 4863 
L 1178 4134 
L 603 4134 
L 603 4863 
z
" transform="scale(0.015625)"/>
       <path id="DejaVuSans-6d" d="M 3328 2828 
Q 3544 3216 3844 3400 
Q 4144 3584 4550 3584 
Q 5097 3584 5394 3201 
Q 5691 2819 5691 2113 
L 5691 0 
L 5113 0 
L 5113 2094 
Q 5113 2597 4934 2840 
Q 4756 3084 4391 3084 
Q 3944 3084 3684 2787 
Q 3425 2491 3425 1978 
L 3425 0 
L 2847 0 
L 2847 2094 
Q 2847 2600 2669 2842 
Q 2491 3084 2119 3084 
Q 1678 3084 1418 2786 
Q 1159 2488 1159 1978 
L 1159 0 
L 581 0 
L 581 3500 
L 1159 3500 
L 1159 2956 
Q 1356 3278 1631 3431 
Q 1906 3584 2284 3584 
Q 2666 3584 2933 3390 
Q 3200 3197 3328 2828 
z
" transform="scale(0.015625)"/>
       <path id="DejaVuSans-65" d="M 3597 1894 
L 3597 1613 
L 953 1613 
Q 991 1019 1311 708 
Q 1631 397 2203 397 
Q 2534 397 2845 478 
Q 3156 559 3463 722 
L 3463 178 
Q 3153 47 2828 -22 
Q 2503 -91 2169 -91 
Q 1331 -91 842 396 
Q 353 884 353 1716 
Q 353 2575 817 3079 
Q 1281 3584 2069 3584 
Q 2775 3584 3186 3129 
Q 3597 2675 3597 1894 
z
M 3022 2063 
Q 3016 2534 2758 2815 
Q 2500 3097 2075 3097 
Q 1594 3097 1305 2825 
Q 1016 2553 972 2059 
L 3022 2063 
z
" transform="scale(0.015625)"/>
      </defs>
      <use xlink:href="#DejaVuSans-54"/>
      <use xlink:href="#DejaVuSans-69" x="57.958984"/>
      <use xlink:href="#DejaVuSans-6d" x="85.742188"/>
      <use xlink:href="#DejaVuSans-65" x="183.154297"/>
     </g>
    </g>
   </g>
   <g id="matplotlib.axis_2">
    <g id="ytick_1">
     <g id="line2d_7">
      <defs>
       <path id="me5179b328b" d="M 0 0 
L -3.5 0 
" style="stroke: #000000; stroke-width: 0.8"/>
      </defs>
      <g>
       <use xlink:href="#me5179b328b" x="57.6" y="291.390998" style="stroke: #000000; stroke-width: 0.8"/>
      </g>
     </g>
     <g id="text_8">
      <!-- 0 -->
      <g transform="translate(44.2375 295.190217) scale(0.1 -0.1)">
       <use xlink:href="#DejaVuSans-30"/>
      </g>
     </g>
    </g>
    <g id="ytick_2">
     <g id="line2d_8">
      <g>
       <use xlink:href="#me5179b328b" x="57.6" y="241.767484" style="stroke: #000000; stroke-width: 0.8"/>
      </g>
     </g>
     <g id="text_9">
      <!-- 10 -->
      <g transform="translate(37.875 245.566703) scale(0.1 -0.1)">
       <use xlink:href="#DejaVuSans-31"/>
       <use xlink:href="#DejaVuSans-30" x="63.623047"/>
      </g>
     </g>
    </g>
    <g id="ytick_3">
     <g id="line2d_9">
      <g>
       <use xlink:href="#me5179b328b" x="57.6" y="192.143969" style="stroke: #000000; stroke-width: 0.8"/>
      </g>
     </g>
     <g id="text_10">
      <!-- 20 -->
      <g transform="translate(37.875 195.943188) scale(0.1 -0.1)">
       <use xlink:href="#DejaVuSans-32"/>
       <use xlink:href="#DejaVuSans-30" x="63.623047"/>
      </g>
     </g>
    </g>
    <g id="ytick_4">
     <g id="line2d_10">
      <g>
       <use xlink:href="#me5179b328b" x="57.6" y="142.520455" style="stroke: #000000; stroke-width: 0.8"/>
      </g>
     </g>
     <g id="text_11">
      <!-- 30 -->
      <g transform="translate(37.875 146.319674) scale(0.1 -0.1)">
       <defs>
        <path id="DejaVuSans-33" d="M 2597 2516 
Q 3050 2419 3304 2112 
Q 3559 1806 3559 1356 
Q 3559 666 3084 287 
Q 2609 -91 1734 -91 
Q 1441 -91 1130 -33 
Q 819 25 488 141 
L 488 750 
Q 750 597 1062 519 
Q 1375 441 1716 441 
Q 2309 441 2620 675 
Q 2931 909 2931 1356 
Q 2931 1769 2642 2001 
Q 2353 2234 1838 2234 
L 1294 2234 
L 1294 2753 
L 1863 2753 
Q 2328 2753 2575 2939 
Q 2822 3125 2822 3475 
Q 2822 3834 2567 4026 
Q 2313 4219 1838 4219 
Q 1578 4219 1281 4162 
Q 984 4106 628 3988 
L 628 4550 
Q 988 4650 1302 4700 
Q 1616 4750 1894 4750 
Q 2613 4750 3031 4423 
Q 3450 4097 3450 3541 
Q 3450 3153 3228 2886 
Q 3006 2619 2597 2516 
z
" transform="scale(0.015625)"/>
       </defs>
       <use xlink:href="#DejaVuSans-33"/>
       <use xlink:href="#DejaVuSans-30" x="63.623047"/>
      </g>
     </g>
    </g>
    <g id="ytick_5">
     <g id="line2d_11">
      <g>
       <use xlink:href="#me5179b328b" x="57.6" y="92.896941" style="stroke: #000000; stroke-width: 0.8"/>
      </g>
     </g>
     <g id="text_12">
      <!-- 40 -->
      <g transform="translate(37.875 96.696159) scale(0.1 -0.1)">
       <use xlink:href="#DejaVuSans-34"/>
       <use xlink:href="#DejaVuSans-30" x="63.623047"/>
      </g>
     </g>
    </g>
    <g id="ytick_6">
     <g id="line2d_12">
      <g>
       <use xlink:href="#me5179b328b" x="57.6" y="43.273426" style="stroke: #000000; stroke-width: 0.8"/>
      </g>
     </g>
     <g id="text_13">
      <!-- 50 -->
      <g transform="translate(37.875 47.072645) scale(0.1 -0.1)">
       <defs>
        <path id="DejaVuSans-35" d="M 691 4666 
L 3169 4666 
L 3169 4134 
L 1269 4134 
L 1269 2991 
Q 1406 3038 1543 3061 
Q 1681 3084 1819 3084 
Q 2600 3084 3056 2656 
Q 3513 2228 3513 1497 
Q 3513 744 3044 326 
Q 2575 -91 1722 -91 
Q 1428 -91 1123 -41 
Q 819 9 494 109 
L 494 744 
Q 775 591 1075 516 
Q 1375 441 1709 441 
Q 2250 441 2565 725 
Q 2881 1009 2881 1497 
Q 2881 1984 2565 2268 
Q 2250 2553 1709 2553 
Q 1456 2553 1204 2497 
Q 953 2441 691 2322 
L 691 4666 
z
" transform="scale(0.015625)"/>
       </defs>
       <use xlink:href="#DejaVuSans-35"/>
       <use xlink:href="#DejaVuSans-30" x="63.623047"/>
      </g>
     </g>
    </g>
   </g>
   <g id="line2d_13">
    <path d="M 73.832727 291.921124 
L 74.157707 287.363949 
L 74.482686 289.31346 
L 74.807666 292.311745 
L 75.132645 289.72486 
L 75.457625 292.140984 
L 75.782604 292.064092 
L 76.107584 290.224231 
L 76.432563 295.488 
L 76.757543 294.938609 
L 77.082523 291.975166 
L 77.407502 293.019048 
L 77.732482 289.658466 
L 78.057461 292.630612 
L 78.382441 293.829652 
L 78.70742 286.645917 
L 79.0324 290.809258 
L 79.357379 290.058001 
L 79.682359 293.746859 
L 80.332318 289.9365 
L 80.657297 293.079448 
L 80.982277 289.309701 
L 81.307256 291.755178 
L 81.632236 291.014644 
L 81.957215 291.8109 
L 82.282195 285.748163 
L 82.607174 290.400334 
L 82.932154 293.008723 
L 83.257133 288.353523 
L 83.582113 293.424088 
L 83.907093 289.865939 
L 84.232072 295.222652 
L 84.557052 293.61763 
L 84.882031 289.780032 
L 85.207011 288.366289 
L 85.53199 289.686817 
L 85.85697 290.295802 
L 86.181949 290.636588 
L 86.506929 293.423197 
L 86.831908 291.391783 
L 87.156888 290.586963 
L 87.481867 286.648637 
L 87.806847 288.23783 
L 88.131826 293.277455 
L 88.456806 287.907939 
L 88.781785 289.475608 
L 89.106765 290.009705 
L 89.431744 286.627135 
L 89.756724 285.408783 
L 90.081704 285.488237 
L 90.406683 289.725534 
L 91.381622 284.849522 
L 91.706601 288.370457 
L 92.031581 287.573049 
L 92.35656 289.807757 
L 92.68154 290.000293 
L 93.006519 285.004281 
L 93.331499 283.660518 
L 93.656478 287.225244 
L 93.981458 284.591364 
L 94.306437 286.230222 
L 94.631417 288.78328 
L 95.281376 283.492313 
L 95.606355 287.462178 
L 95.931335 283.553285 
L 96.256314 293.992058 
L 96.581294 285.50095 
L 96.906274 287.361583 
L 97.231253 288.343598 
L 97.556233 287.38304 
L 97.881212 292.534499 
L 98.206192 288.122398 
L 98.531171 286.646991 
L 98.856151 283.802862 
L 99.18113 288.673596 
L 99.50611 289.293353 
L 99.831089 288.414718 
L 100.156069 284.765099 
L 100.481048 286.073207 
L 100.806028 288.043819 
L 101.131007 285.286645 
L 101.455987 286.142786 
L 101.780966 283.799101 
L 102.105946 287.761176 
L 102.430925 286.649576 
L 102.755905 286.629854 
L 103.080885 289.113954 
L 103.405864 284.58122 
L 103.730844 284.510748 
L 104.380803 285.459042 
L 104.705782 288.266611 
L 105.030762 285.689304 
L 105.355741 285.399571 
L 105.680721 286.455798 
L 106.33068 283.32776 
L 106.655659 279.596638 
L 106.980639 283.796614 
L 107.305618 283.54877 
L 107.630598 284.333244 
L 107.955577 288.870569 
L 108.280557 284.135072 
L 108.605536 283.875544 
L 108.930516 277.86315 
L 109.255495 284.394517 
L 109.580475 283.102364 
L 109.905455 283.859831 
L 110.230434 286.58561 
L 110.555414 280.751282 
L 110.880393 281.610834 
L 111.205373 281.392792 
L 111.530352 285.481028 
L 111.855332 279.60488 
L 112.180311 286.417806 
L 112.83027 277.201454 
L 113.15525 284.941677 
L 113.480229 283.73975 
L 113.805209 281.943934 
L 114.130188 283.305503 
L 114.455168 285.780081 
L 114.780147 281.652459 
L 115.105127 284.364077 
L 115.430106 280.476527 
L 115.755086 283.874984 
L 116.080066 277.709878 
L 116.405045 283.480656 
L 116.730025 282.337667 
L 117.055004 279.540027 
L 117.379984 284.649466 
L 118.029943 278.467929 
L 118.354922 285.772283 
L 118.679902 281.403366 
L 119.004881 281.295112 
L 119.329861 280.074879 
L 119.65484 285.15027 
L 119.97982 285.410838 
L 120.304799 280.8751 
L 120.629779 281.446482 
L 120.954758 281.548448 
L 121.279738 281.266515 
L 121.604717 283.735741 
L 121.929697 281.358124 
L 122.254676 281.054725 
L 122.579656 283.3623 
L 122.904636 276.728775 
L 123.554595 283.734829 
L 123.879574 278.806921 
L 124.204554 282.480003 
L 124.529533 277.707643 
L 124.854513 276.363206 
L 125.179492 280.835939 
L 125.504472 275.962241 
L 125.829451 276.879401 
L 126.154431 275.420567 
L 126.47941 272.323876 
L 126.80439 277.229807 
L 127.129369 278.110281 
L 127.454349 278.101846 
L 127.779328 277.615764 
L 128.104308 275.527727 
L 128.429287 274.287908 
L 128.754267 274.302981 
L 129.079247 272.852396 
L 129.404226 274.849691 
L 129.729206 271.31496 
L 130.054185 275.678961 
L 130.379165 268.433032 
L 131.029124 277.790108 
L 131.354103 278.630296 
L 131.679083 275.1227 
L 132.004062 277.249069 
L 132.329042 275.316797 
L 132.654021 276.316811 
L 133.30398 280.381716 
L 133.62896 282.404704 
L 134.278919 277.140333 
L 134.603898 278.967925 
L 134.928878 282.761675 
L 135.253857 279.342891 
L 135.578837 278.842214 
L 135.903817 281.935952 
L 136.228796 279.221985 
L 136.553776 279.233632 
L 136.878755 281.903015 
L 137.203735 277.784801 
L 137.528714 276.80672 
L 137.853694 274.962165 
L 138.178673 274.418897 
L 138.503653 279.777575 
L 138.828632 277.963742 
L 139.153612 273.59948 
L 139.803571 272.019551 
L 140.12855 262.94425 
L 140.45353 270.308686 
L 140.778509 268.158362 
L 141.103489 267.901913 
L 141.428468 268.000656 
L 141.753448 269.813463 
L 142.078428 266.639259 
L 142.403407 270.016832 
L 142.728387 268.356863 
L 143.053366 268.741993 
L 143.378346 267.204999 
L 143.703325 261.638884 
L 144.028305 272.091476 
L 144.353284 265.932084 
L 144.678264 271.907509 
L 145.003243 269.436232 
L 145.328223 266.001706 
L 145.978182 272.447634 
L 146.303161 272.154511 
L 146.628141 269.328228 
L 146.95312 273.474714 
L 147.2781 271.771432 
L 147.603079 272.823572 
L 147.928059 275.148281 
L 148.253038 268.758843 
L 148.578018 272.990191 
L 148.902998 279.997595 
L 149.227977 274.83377 
L 149.552957 277.166 
L 149.877936 273.53285 
L 150.202916 277.628781 
L 151.177854 272.878316 
L 151.502834 277.569851 
L 151.827813 274.88323 
L 152.477772 274.31957 
L 152.802752 267.523245 
L 153.452711 273.272595 
L 153.77769 266.931846 
L 154.10267 262.993232 
L 154.427649 264.747043 
L 154.752629 270.145599 
L 155.077609 266.677042 
L 155.402588 261.479913 
L 155.727568 265.589091 
L 156.052547 262.016899 
L 156.377527 260.567148 
L 156.702506 264.255718 
L 157.027486 261.673267 
L 157.352465 269.245759 
L 157.677445 263.534611 
L 158.002424 261.520873 
L 158.327404 264.001776 
L 158.652383 256.973506 
L 158.977363 264.790538 
L 159.302342 262.644407 
L 159.627322 261.620851 
L 159.952301 258.832434 
L 160.277281 266.491963 
L 160.60226 260.607722 
L 161.252219 267.12869 
L 161.577199 264.151403 
L 161.902179 265.391452 
L 162.227158 267.930143 
L 162.552138 266.777574 
L 162.877117 268.358277 
L 163.527076 266.443516 
L 163.852056 264.366223 
L 164.177035 271.494393 
L 164.502015 263.155272 
L 164.826994 273.216723 
L 165.151974 268.576714 
L 165.476953 266.470949 
L 165.801933 266.872116 
L 166.126912 268.667298 
L 166.451892 267.113892 
L 166.776871 267.227663 
L 167.101851 266.816091 
L 167.42683 262.549182 
L 167.75181 263.041297 
L 168.07679 264.895608 
L 168.401769 260.185893 
L 168.726749 260.90221 
L 169.051728 258.912042 
L 169.376708 258.660057 
L 169.701687 261.612391 
L 170.026667 260.328002 
L 170.351646 256.523992 
L 170.676626 256.367859 
L 171.001605 257.507307 
L 171.326585 256.809725 
L 171.651564 253.649817 
L 171.976544 258.080242 
L 172.301523 255.118984 
L 172.626503 256.909976 
L 172.951482 256.943132 
L 173.276462 253.728003 
L 173.601441 254.506542 
L 173.926421 254.677058 
L 174.2514 253.629032 
L 174.57638 257.010889 
L 174.90136 255.578402 
L 175.226339 258.250771 
L 175.551319 256.880964 
L 175.876298 258.197687 
L 176.201278 257.800881 
L 176.526257 256.701929 
L 176.851237 260.310296 
L 177.176216 253.14993 
L 177.501196 260.855516 
L 177.826175 261.344534 
L 178.151155 255.385022 
L 178.476134 256.175717 
L 178.801114 256.429914 
L 179.126093 256.218273 
L 179.451073 257.571297 
L 179.776052 259.500842 
L 180.101032 256.796343 
L 180.426011 258.357162 
L 180.750991 253.939805 
L 181.075971 256.403054 
L 181.40095 257.768899 
L 181.72593 256.21077 
L 182.050909 254.097615 
L 182.375889 256.251114 
L 182.700868 256.648526 
L 183.025848 253.788975 
L 183.350827 253.602232 
L 183.675807 255.316487 
L 184.000786 255.107897 
L 184.325766 253.274145 
L 184.650745 257.380964 
L 184.975725 257.241639 
L 185.625684 254.250808 
L 185.950663 252.947331 
L 186.275643 250.053926 
L 186.600622 251.572987 
L 186.925602 254.067226 
L 187.250581 253.66237 
L 187.575561 256.015668 
L 187.900541 253.448868 
L 188.22552 253.949855 
L 188.5505 252.214977 
L 188.875479 254.798201 
L 189.525438 248.239939 
L 189.850418 251.88058 
L 190.500377 248.885738 
L 190.825356 251.02337 
L 191.150336 248.868307 
L 191.475315 248.764888 
L 191.800295 247.910789 
L 192.125274 249.424097 
L 193.100213 242.056956 
L 193.425192 242.731775 
L 193.750172 239.278473 
L 194.075152 246.099006 
L 194.400131 241.679548 
L 194.725111 243.120639 
L 195.05009 237.963109 
L 195.37507 245.316629 
L 195.700049 245.405723 
L 196.025029 244.917364 
L 196.350008 248.902788 
L 196.674988 245.23111 
L 196.999967 246.187975 
L 197.324947 244.384594 
L 197.649926 244.427779 
L 197.974906 241.190546 
L 198.299885 244.094907 
L 198.624865 248.513563 
L 198.949844 249.945122 
L 199.274824 247.116387 
L 199.599803 252.202678 
L 199.924783 244.923947 
L 200.249762 247.016554 
L 200.899722 254.879042 
L 201.224701 247.450921 
L 201.549681 251.152364 
L 201.87466 247.722051 
L 202.19964 254.534813 
L 202.849599 249.705129 
L 203.174578 248.95676 
L 203.499558 249.408226 
L 203.824537 245.835734 
L 204.149517 249.002426 
L 204.474496 245.575953 
L 205.449435 239.623679 
L 205.774414 242.823953 
L 206.099394 242.483048 
L 206.424373 234.172406 
L 206.749353 235.230601 
L 207.074333 236.694935 
L 207.399312 229.864327 
L 207.724292 232.414654 
L 208.049271 228.896698 
L 208.374251 230.92527 
L 208.69923 225.412491 
L 209.02421 225.776344 
L 209.349189 230.53593 
L 209.674169 227.478102 
L 209.999148 228.441696 
L 210.324128 226.981031 
L 210.649107 233.276553 
L 210.974087 229.845851 
L 211.299066 229.732562 
L 211.624046 237.659695 
L 211.949025 237.274447 
L 212.274005 240.522512 
L 212.598984 237.311367 
L 212.923964 236.071263 
L 213.248943 235.333056 
L 213.573923 240.057657 
L 213.898903 237.324862 
L 214.223882 245.830137 
L 214.548862 247.562123 
L 214.873841 244.269022 
L 215.198821 243.817678 
L 215.5238 245.316423 
L 215.84878 250.63968 
L 216.173759 245.804282 
L 216.498739 248.683918 
L 216.823718 243.437546 
L 217.148698 243.630055 
L 217.473677 246.106246 
L 217.798657 244.087485 
L 218.123636 244.296176 
L 218.773595 236.534882 
L 219.098575 239.776622 
L 219.423554 234.412817 
L 219.748534 235.246829 
L 220.073514 234.131396 
L 220.398493 230.658872 
L 220.723473 231.218439 
L 221.048452 228.338056 
L 221.373432 228.338652 
L 221.698411 219.00933 
L 222.023391 222.455402 
L 222.34837 223.10162 
L 222.67335 219.840422 
L 222.998329 219.854925 
L 223.323309 219.540039 
L 223.648288 217.10153 
L 223.973268 216.600463 
L 224.298247 219.870207 
L 224.623227 220.26992 
L 224.948206 220.013816 
L 225.273186 225.721304 
L 225.598165 224.617691 
L 225.923145 218.463297 
L 226.248124 218.893137 
L 226.573104 224.808407 
L 226.898084 224.042831 
L 227.223063 226.020533 
L 227.548043 220.47853 
L 228.198002 230.978424 
L 228.847961 236.852804 
L 229.17294 233.272419 
L 229.822899 238.63326 
L 230.147879 237.092547 
L 230.472858 238.353795 
L 230.797838 231.457955 
L 231.447797 234.982901 
L 231.772776 230.645278 
L 232.097756 233.288695 
L 232.422735 234.60468 
L 232.747715 227.5171 
L 233.072695 228.650138 
L 233.397674 231.137884 
L 233.722654 227.525151 
L 234.047633 227.652674 
L 234.372613 227.304891 
L 234.697592 219.964563 
L 235.022572 215.936405 
L 235.347551 222.605347 
L 235.672531 216.275076 
L 235.99751 217.921889 
L 236.32249 216.271904 
L 236.647469 215.427166 
L 236.972449 215.148475 
L 237.297428 212.096675 
L 237.622408 213.663806 
L 237.947387 210.492768 
L 238.597346 211.40753 
L 238.922326 213.144911 
L 239.247305 212.558362 
L 239.572285 209.629414 
L 239.897265 210.76304 
L 240.222244 215.040835 
L 240.547224 213.065061 
L 240.872203 212.208254 
L 241.197183 219.017921 
L 241.522162 214.350113 
L 241.847142 218.161221 
L 242.172121 215.894543 
L 242.82208 223.215862 
L 243.14706 223.373544 
L 243.472039 219.715807 
L 243.797019 219.580388 
L 244.121998 222.738838 
L 244.446978 219.055118 
L 244.771957 224.777592 
L 245.096937 220.705293 
L 245.421916 223.305892 
L 246.071876 219.348732 
L 246.396855 221.025247 
L 246.721835 219.178962 
L 247.046814 214.986889 
L 247.371794 218.113742 
L 247.696773 213.763564 
L 248.021753 217.767294 
L 248.346732 212.766009 
L 248.671712 209.625045 
L 248.996691 218.475858 
L 249.64665 209.3088 
L 249.97163 210.523099 
L 250.296609 208.44236 
L 250.621589 210.277177 
L 250.946568 208.054345 
L 251.271548 208.222798 
L 251.596527 204.582302 
L 251.921507 206.564555 
L 252.246486 206.141848 
L 252.571466 207.845718 
L 252.896446 207.929842 
L 253.221425 207.731472 
L 253.546405 205.648776 
L 253.871384 207.660772 
L 254.196364 205.8937 
L 254.521343 201.455713 
L 255.171302 207.343192 
L 255.496282 203.471019 
L 256.146241 211.2097 
L 256.47122 208.428045 
L 256.7962 210.288119 
L 257.121179 206.183622 
L 257.446159 204.87858 
L 257.771138 200.329543 
L 258.096118 203.200908 
L 258.421097 204.044897 
L 258.746077 200.908351 
L 259.071057 207.904104 
L 259.396036 201.283421 
L 259.721016 199.416463 
L 260.045995 204.482502 
L 260.370975 197.496983 
L 261.020934 200.562899 
L 261.345913 197.659969 
L 261.670893 193.37069 
L 261.995872 198.4114 
L 262.320852 198.191958 
L 262.645831 199.981532 
L 262.970811 201.072029 
L 263.29579 197.108864 
L 263.62077 201.576522 
L 263.945749 199.627021 
L 264.270729 201.399387 
L 264.595708 199.479384 
L 264.920688 200.321969 
L 265.245667 199.068886 
L 265.570647 203.39501 
L 265.895627 203.259419 
L 266.220606 205.432963 
L 266.545586 204.456648 
L 266.870565 202.684437 
L 267.195545 201.90771 
L 267.520524 206.122552 
L 267.845504 201.594923 
L 268.170483 200.165376 
L 268.495463 202.12955 
L 268.820442 197.970023 
L 269.145422 203.8612 
L 269.795381 204.525201 
L 270.12036 195.270891 
L 270.44534 196.10333 
L 270.770319 196.498372 
L 271.095299 194.208223 
L 271.420278 196.168937 
L 271.745258 185.737267 
L 272.070238 189.896299 
L 272.395217 188.36664 
L 272.720197 185.296734 
L 273.370156 183.689159 
L 273.695135 184.948391 
L 274.345094 176.263809 
L 274.670074 176.840951 
L 274.995053 175.675938 
L 275.320033 180.562928 
L 275.645012 181.638849 
L 275.969992 179.610746 
L 276.294971 179.499855 
L 276.619951 177.480189 
L 276.94493 185.157155 
L 277.26991 178.115034 
L 277.594889 183.423116 
L 277.919869 185.355002 
L 278.569828 191.245632 
L 278.894808 186.61057 
L 279.219787 189.998194 
L 279.544767 194.884682 
L 279.869746 196.341001 
L 280.194726 195.307462 
L 280.519705 191.547508 
L 281.169664 201.319834 
L 281.494644 198.830092 
L 281.819623 199.281702 
L 282.144603 205.41779 
L 282.469582 198.706265 
L 282.794562 198.706429 
L 283.444521 191.819766 
L 283.7695 192.338907 
L 284.09448 194.274049 
L 284.419459 194.592678 
L 284.744439 183.496669 
L 285.069419 187.594453 
L 285.719378 183.140769 
L 286.044357 180.14869 
L 286.694316 177.173699 
L 287.019296 174.745054 
L 287.344275 171.219418 
L 287.669255 170.389066 
L 287.994234 168.902417 
L 288.319214 165.187244 
L 288.644193 164.656041 
L 288.969173 159.143199 
L 289.294152 168.602621 
L 289.619132 158.779251 
L 289.944111 158.177316 
L 290.269091 166.514942 
L 290.59407 162.636065 
L 290.91905 163.424179 
L 291.244029 166.994454 
L 291.569009 166.689982 
L 291.893989 169.001918 
L 292.218968 163.578666 
L 292.543948 167.439601 
L 292.868927 168.553784 
L 293.193907 171.933848 
L 293.518886 178.563582 
L 293.843866 179.076782 
L 294.168845 178.503385 
L 294.493825 184.57636 
L 294.818804 181.442955 
L 295.143784 185.27839 
L 295.468763 186.848795 
L 295.793743 185.127381 
L 296.118722 186.472252 
L 296.443702 188.844417 
L 296.768681 185.124494 
L 297.093661 190.406866 
L 297.41864 185.591356 
L 297.74362 184.721333 
L 298.0686 185.725888 
L 298.393579 182.624756 
L 298.718559 184.750841 
L 299.043538 177.333808 
L 299.368518 177.867617 
L 299.693497 176.3298 
L 300.018477 169.937856 
L 300.343456 171.724169 
L 300.668436 170.880827 
L 300.993415 168.677562 
L 301.318395 160.805377 
L 301.643374 163.08775 
L 301.968354 153.307654 
L 302.293333 160.764706 
L 302.618313 149.547448 
L 302.943292 151.639464 
L 303.268272 151.081513 
L 303.593251 151.161778 
L 303.918231 148.088697 
L 304.24321 148.747914 
L 304.56819 145.797573 
L 304.89317 148.429704 
L 305.218149 148.802292 
L 305.543129 150.804332 
L 306.193088 151.284479 
L 306.518067 157.648421 
L 306.843047 158.249309 
L 307.168026 154.66241 
L 307.817985 160.31594 
L 308.467944 162.27601 
L 308.792924 165.991533 
L 309.117903 167.965679 
L 309.442883 166.767452 
L 309.767862 170.708366 
L 310.092842 168.080685 
L 310.417821 173.897721 
L 310.742801 167.45322 
L 311.067781 168.913594 
L 311.39276 169.274216 
L 312.042719 164.673412 
L 312.367699 165.383923 
L 312.692678 171.350447 
L 313.667617 162.326193 
L 313.992596 159.390851 
L 314.317576 160.686725 
L 314.642555 156.592705 
L 314.967535 157.092528 
L 315.292514 154.921863 
L 315.617494 155.135657 
L 315.942473 152.260063 
L 316.267453 151.755597 
L 316.592432 149.386583 
L 316.917412 143.064111 
L 317.242391 146.911492 
L 317.567371 137.076795 
L 317.892351 141.617488 
L 318.21733 141.798908 
L 318.54231 143.98348 
L 318.867289 139.885974 
L 319.192269 142.984835 
L 319.517248 141.336207 
L 319.842228 135.501797 
L 320.167207 142.420259 
L 320.492187 139.750465 
L 320.817166 144.836256 
L 321.142146 143.714073 
L 321.467125 139.792093 
L 321.792105 146.29979 
L 322.117084 140.783688 
L 322.767043 147.604869 
L 323.092023 144.998504 
L 323.417002 144.424212 
L 323.741982 145.465774 
L 324.066962 150.971067 
L 324.391941 148.837719 
L 324.716921 147.498401 
L 325.0419 146.815212 
L 325.36688 144.738736 
L 325.691859 145.397065 
L 326.016839 148.632956 
L 326.341818 143.794127 
L 326.666798 142.591172 
L 326.991777 142.052819 
L 327.316757 140.079197 
L 327.641736 140.010643 
L 327.966716 140.275216 
L 328.291695 140.954091 
L 328.616675 144.310678 
L 328.941654 138.58863 
L 329.266634 138.668969 
L 329.591613 138.11133 
L 329.916593 141.62884 
L 330.241572 140.894902 
L 330.566552 135.424772 
L 330.891532 138.029707 
L 331.216511 136.19499 
L 331.541491 137.820124 
L 331.86647 137.858371 
L 332.19145 135.668597 
L 332.516429 139.347902 
L 332.841409 137.889062 
L 333.166388 139.306054 
L 333.491368 139.22242 
L 333.816347 138.833449 
L 334.141327 137.357908 
L 334.466306 138.846109 
L 334.791286 134.186037 
L 335.116265 139.049842 
L 335.441245 136.700509 
L 335.766224 136.609645 
L 336.091204 131.085472 
L 336.416183 133.224322 
L 336.741163 130.074993 
L 337.066143 135.142337 
L 337.391122 129.52773 
L 337.716102 126.647485 
L 338.041081 127.266386 
L 338.366061 123.416964 
L 338.69104 125.933447 
L 339.01602 119.768038 
L 339.340999 116.228308 
L 339.665979 121.579366 
L 339.990958 120.636951 
L 340.315938 114.908478 
L 340.640917 113.7317 
L 340.965897 118.257929 
L 341.615856 116.862772 
L 341.940835 119.414311 
L 342.265815 118.488522 
L 342.590794 119.046232 
L 342.915774 119.014359 
L 343.240753 117.947796 
L 343.565733 118.214858 
L 343.890713 116.044172 
L 344.215692 123.599301 
L 344.540672 120.017354 
L 344.865651 124.401731 
L 345.190631 125.442899 
L 345.51561 125.095877 
L 345.84059 130.967791 
L 346.165569 128.567811 
L 346.490549 130.322018 
L 346.815528 130.578001 
L 347.140508 131.958534 
L 347.465487 127.239378 
L 347.790467 135.320216 
L 348.115446 135.189334 
L 348.440426 135.261123 
L 349.090385 134.066544 
L 349.415364 128.455699 
L 349.740344 126.499501 
L 350.065324 129.769143 
L 350.390303 128.478026 
L 350.715283 123.059847 
L 351.040262 123.205198 
L 351.365242 117.696036 
L 351.690221 116.061825 
L 352.015201 117.537674 
L 352.34018 107.109407 
L 352.66516 103.675774 
L 352.990139 106.895664 
L 354.290057 94.301114 
L 354.615037 89.204473 
L 354.940016 93.208482 
L 355.264996 93.67449 
L 355.589975 94.407449 
L 356.239934 90.79393 
L 356.564914 86.696381 
L 356.889894 93.241253 
L 357.214873 92.561645 
L 357.539853 94.643259 
L 358.189812 92.141105 
L 358.514791 101.965497 
L 358.839771 104.256883 
L 359.16475 102.948587 
L 359.48973 106.390166 
L 359.814709 106.030373 
L 360.464668 116.2937 
L 360.789648 116.082933 
L 361.114627 116.707136 
L 361.764586 121.122486 
L 362.089566 120.669529 
L 362.414545 120.957974 
L 362.739525 120.559859 
L 363.389484 123.382383 
L 363.714464 121.452611 
L 364.039443 117.259909 
L 364.364423 120.326972 
L 364.689402 115.07134 
L 365.014382 114.324918 
L 365.339361 110.36138 
L 365.664341 104.115038 
L 365.98932 103.49268 
L 366.3143 100.415017 
L 366.639279 100.41219 
L 366.964259 91.701054 
L 367.289238 88.534168 
L 367.614218 81.480672 
L 367.939197 84.511449 
L 368.264177 80.345383 
L 368.589156 77.702679 
L 368.914136 72.174182 
L 369.239115 74.462156 
L 369.889075 70.212916 
L 370.214054 70.649013 
L 370.539034 72.046561 
L 371.188993 69.205739 
L 371.513972 75.483306 
L 371.838952 74.03576 
L 372.163931 77.856773 
L 372.488911 75.188702 
L 372.81389 84.197573 
L 373.13887 84.245447 
L 373.463849 84.481417 
L 373.788829 84.150284 
L 374.113808 90.813127 
L 374.438788 94.58093 
L 374.763767 90.968965 
L 375.088747 101.486504 
L 375.413726 105.379432 
L 375.738706 100.588597 
L 376.063686 104.368703 
L 376.388665 106.752132 
L 376.713645 103.182454 
L 377.688583 107.900064 
L 378.013563 101.687042 
L 378.338542 100.984909 
L 378.663522 101.23108 
L 378.988501 94.459912 
L 379.313481 99.459315 
L 379.63846 98.099041 
L 380.613399 85.199598 
L 380.938378 83.391008 
L 381.263358 78.910042 
L 381.588337 79.934606 
L 381.913317 70.398126 
L 382.238296 71.488017 
L 382.563276 66.012023 
L 382.888256 65.66864 
L 383.538215 61.40412 
L 383.863194 60.317416 
L 384.188174 58.770781 
L 384.513153 56.337278 
L 384.838133 58.748093 
L 385.163112 57.39951 
L 385.488092 59.611587 
L 385.813071 56.331999 
L 386.138051 62.358781 
L 386.46303 57.214802 
L 387.112989 67.774501 
L 387.437969 65.365057 
L 387.762948 68.90017 
L 388.087928 66.67838 
L 388.412907 71.921582 
L 388.737887 72.891465 
L 389.062867 77.860844 
L 389.387846 75.554414 
L 389.712826 81.546652 
L 390.037805 80.377708 
L 390.362785 75.269992 
L 390.687764 75.694098 
L 391.012744 76.843383 
L 391.337723 80.317219 
L 391.662703 77.820302 
L 391.987682 77.266387 
L 392.312662 79.470339 
L 392.637641 72.004363 
L 392.962621 72.515894 
L 393.2876 74.042956 
L 393.937559 70.220727 
L 394.262539 74.303045 
L 394.587518 68.308426 
L 394.912498 67.833622 
L 395.237477 67.090061 
L 395.562457 63.809484 
L 395.887437 57.226913 
L 396.537396 60.540895 
L 397.187355 53.568 
L 397.512334 53.905696 
L 398.162293 56.534192 
L 398.162293 56.534192 
" clip-path="url(#p0f834e2270)" style="fill: none; stroke: #1f77b4; stroke-width: 1.5; stroke-linecap: square"/>
   </g>
   <g id="line2d_14">
    <path d="M 73.832727 291.971974 
L 74.157707 291.94179 
L 74.482686 289.224413 
L 74.807666 289.277271 
L 75.132645 291.078515 
L 75.457625 290.274994 
L 75.782604 291.382634 
L 76.107584 291.787143 
L 76.432563 290.859409 
L 76.757543 293.606911 
L 77.082523 294.397399 
L 77.407502 292.959577 
L 77.732482 292.994879 
L 78.057461 291.014405 
L 78.70742 293.075412 
L 79.0324 289.258905 
L 79.357379 290.179185 
L 79.682359 290.107251 
L 80.007338 292.267699 
L 80.332318 291.846513 
L 80.657297 290.712741 
L 80.982277 292.117603 
L 81.307256 290.45085 
L 81.632236 291.225091 
L 81.957215 291.100171 
L 82.282195 291.522055 
L 82.607174 288.09471 
L 82.932154 289.463313 
L 83.257133 291.567846 
L 83.582113 289.659845 
L 83.907093 291.894275 
L 84.232072 290.690268 
L 84.557052 293.380662 
L 84.882031 293.521325 
L 85.53199 289.558778 
L 85.85697 289.634781 
L 86.506929 290.388912 
L 86.831908 292.190044 
L 87.156888 291.716201 
L 87.481867 291.045893 
L 87.806847 288.43571 
L 88.131826 288.31825 
L 88.456806 291.262002 
L 88.781785 289.271052 
L 89.106765 289.392475 
L 89.431744 289.758859 
L 90.081704 286.421184 
L 90.406683 285.867393 
L 90.731663 288.15756 
L 91.056642 288.223911 
L 91.381622 287.233438 
L 91.706601 285.818361 
L 92.031581 287.333269 
L 92.35656 287.475601 
L 92.68154 288.859954 
L 93.006519 289.536852 
L 93.656478 284.955259 
L 93.981458 286.302707 
L 94.306437 285.286865 
L 94.631417 285.846836 
L 94.956396 287.58989 
L 95.281376 286.852249 
L 95.606355 284.857812 
L 95.931335 286.403747 
L 96.256314 284.711731 
L 96.581294 290.220474 
L 96.906274 287.418995 
L 97.231253 287.384915 
L 97.556233 287.953983 
L 97.881212 287.615075 
L 98.206192 290.535213 
L 98.856151 287.645122 
L 99.18113 285.364381 
L 99.50611 287.32871 
L 99.831089 288.49491 
L 100.156069 288.447309 
L 100.481048 286.261573 
L 100.806028 286.14976 
L 101.131007 287.274061 
L 101.455987 286.094343 
L 101.780966 286.123099 
L 102.105946 284.743589 
L 102.430925 286.534809 
L 103.080885 286.618913 
L 103.405864 288.099954 
L 103.730844 286.011256 
L 104.055823 285.120564 
L 104.380803 285.048459 
L 104.705782 285.292178 
L 105.030762 287.057783 
L 105.355741 286.245463 
L 105.680721 285.743347 
L 106.0057 286.166253 
L 106.33068 285.350988 
L 106.655659 284.150013 
L 106.980639 281.447159 
L 107.305618 282.84178 
L 107.630598 283.261445 
L 107.955577 283.897658 
L 108.280557 286.849546 
L 108.605536 285.238251 
L 108.930516 284.429357 
L 109.255495 280.531699 
L 109.580475 282.824643 
L 109.905455 282.989496 
L 110.230434 283.506121 
L 110.555414 285.334086 
L 110.880393 282.613763 
L 111.530352 281.647056 
L 111.855332 283.922877 
L 112.180311 281.359742 
L 112.505291 284.362176 
L 112.83027 282.564067 
L 113.15525 279.380854 
L 113.480229 282.681723 
L 113.805209 283.309761 
L 114.130188 282.499015 
L 114.455168 282.977741 
L 114.780147 284.641192 
L 115.105127 282.867099 
L 115.430106 283.755696 
L 115.755086 281.809202 
L 116.080066 283.035437 
L 116.405045 279.874219 
L 116.730025 282.014977 
L 117.055004 282.206524 
L 117.379984 280.623708 
L 117.704963 283.013372 
L 118.029943 281.86747 
L 118.354922 279.849524 
L 118.679902 283.365236 
L 119.004881 282.200682 
L 119.329861 281.663142 
L 119.65484 280.720359 
L 119.97982 283.349926 
L 120.304799 284.57327 
L 120.629779 282.37806 
L 120.954758 281.825081 
L 121.604717 281.426785 
L 121.929697 282.797367 
L 122.254676 281.943041 
L 122.579656 281.415743 
L 122.904636 282.571207 
L 123.229615 279.103177 
L 123.554595 279.583042 
L 123.879574 282.047516 
L 124.204554 280.12392 
L 124.529533 281.522476 
L 125.179492 277.539675 
L 125.504472 279.496316 
L 125.829451 277.398511 
L 126.154431 277.090371 
L 126.47941 276.099186 
L 126.80439 273.858186 
L 127.454349 277.195573 
L 127.779328 277.733531 
L 128.104308 277.663625 
L 128.754267 275.144557 
L 129.079247 274.645003 
L 129.404226 273.580923 
L 129.729206 274.334056 
L 130.054185 272.54194 
L 130.379165 274.404056 
L 130.704144 270.859694 
L 131.029124 272.631878 
L 131.354103 275.69377 
L 131.679083 277.436873 
L 132.004062 276.063195 
L 132.329042 276.767122 
L 132.654021 275.906218 
L 132.979001 276.149943 
L 133.30398 277.291297 
L 133.953939 281.072116 
L 134.278919 280.486506 
L 134.603898 278.500239 
L 134.928878 278.777854 
L 135.253857 281.142625 
L 135.903817 279.342947 
L 136.228796 280.882138 
L 136.553776 279.896682 
L 136.878755 279.5031 
L 137.203735 280.927674 
L 137.853694 277.723315 
L 138.178673 276.084314 
L 138.503653 275.095733 
L 138.828632 277.874844 
L 139.153612 277.927614 
L 139.478591 275.358461 
L 140.12855 272.763753 
L 140.45353 266.934959 
L 140.778509 268.937582 
L 141.428468 268.134836 
L 141.753448 268.055188 
L 142.078428 269.098889 
L 142.403407 267.638868 
L 142.728387 269.050412 
L 143.053366 268.638726 
L 143.378346 268.700024 
L 143.703325 267.812587 
L 144.028305 264.147916 
L 144.353284 268.863163 
L 144.678264 267.123293 
L 145.003243 269.963173 
L 145.328223 269.650384 
L 145.653202 267.484552 
L 145.978182 268.41432 
L 146.303161 270.808469 
L 146.628141 271.607471 
L 146.95312 270.254527 
L 147.2781 272.166009 
L 147.603079 271.931791 
L 147.928059 272.461147 
L 148.253038 274.056212 
L 148.578018 270.911728 
L 148.902998 272.14549 
L 149.227977 276.806449 
L 149.552957 275.63548 
L 149.877936 276.543987 
L 150.202916 274.756595 
L 150.527895 276.461506 
L 150.852875 276.09777 
L 151.502834 273.70447 
L 151.827813 275.998936 
L 152.477772 274.897824 
L 152.802752 274.554576 
L 153.127731 270.380823 
L 153.452711 270.180025 
L 153.77769 272.015755 
L 154.427649 265.4336 
L 154.752629 265.026064 
L 155.077609 268.064987 
L 155.402588 267.241112 
L 155.727568 263.821301 
L 156.052547 264.87065 
L 156.702506 261.627679 
L 157.027486 263.187666 
L 157.352465 262.288728 
L 157.677445 266.418377 
L 158.327404 262.81557 
L 158.652383 263.519694 
L 158.977363 259.633919 
L 159.302342 262.694855 
L 159.627322 262.664909 
L 159.952301 262.045163 
L 160.277281 260.138107 
L 160.60226 263.909715 
L 160.92724 261.949673 
L 161.252219 263.203216 
L 161.577199 265.533352 
L 161.902179 264.713036 
L 162.227158 265.115739 
L 162.552138 266.786351 
L 162.877117 266.781141 
L 163.202097 267.717319 
L 163.527076 267.589723 
L 163.852056 266.909342 
L 164.177035 265.399763 
L 164.502015 269.017496 
L 164.826994 265.537717 
L 165.151974 270.095926 
L 165.476953 269.194132 
L 165.801933 267.577668 
L 166.126912 267.158857 
L 166.451892 268.054258 
L 166.776871 267.496063 
L 167.101851 267.336742 
L 167.42683 267.027687 
L 167.75181 264.369275 
L 168.07679 263.580996 
L 168.401769 264.361341 
L 168.726749 261.882822 
L 169.051728 261.300737 
L 169.376708 259.882823 
L 169.701687 259.156997 
L 170.026667 260.614503 
L 170.351646 260.444438 
L 170.676626 258.117287 
L 171.001605 257.078837 
L 171.326585 257.333174 
L 171.651564 257.022458 
L 171.976544 255.02048 
L 172.301523 256.836735 
L 172.626503 255.817089 
L 172.951482 256.46582 
L 173.276462 256.749149 
L 173.601441 254.955816 
L 173.926421 254.68913 
L 174.2514 254.681964 
L 174.57638 254.056951 
L 174.90136 255.81039 
L 175.226339 255.672683 
L 175.551319 257.203019 
L 175.876298 257.011849 
L 176.201278 257.715755 
L 176.526257 257.766285 
L 176.851237 257.13449 
L 177.176216 259.019628 
L 177.501196 255.535413 
L 177.826175 258.693392 
L 178.151155 260.267093 
L 178.476134 257.369127 
L 178.801114 256.660726 
L 179.451073 256.342407 
L 179.776052 257.071868 
L 180.101032 258.513691 
L 180.426011 257.494284 
L 180.750991 258.006483 
L 181.075971 255.592529 
L 181.40095 256.073651 
L 181.72593 257.079939 
L 182.050909 256.564006 
L 182.375889 255.099972 
L 183.025848 256.296886 
L 183.350827 254.808206 
L 183.675807 254.092347 
L 184.000786 254.818989 
L 184.325766 254.990483 
L 184.650745 253.971675 
L 184.975725 255.995407 
L 185.300704 256.735163 
L 185.625684 256.008977 
L 186.275643 253.767462 
L 186.600622 251.563131 
L 186.925602 251.568981 
L 187.250581 253.051923 
L 187.575561 253.414281 
L 187.900541 254.958448 
L 188.22552 254.062371 
L 188.5505 253.995582 
L 188.875479 252.938627 
L 189.200459 254.042458 
L 189.525438 252.315436 
L 189.850418 249.896247 
L 190.175397 251.074134 
L 190.500377 250.514275 
L 190.825356 249.547586 
L 191.150336 250.423601 
L 191.475315 249.500389 
L 191.800295 249.0638 
L 192.125274 248.37938 
L 192.450254 248.999517 
L 193.100213 246.102564 
L 193.425192 243.701117 
L 193.750172 243.125722 
L 194.075152 240.84202 
L 194.400131 243.962533 
L 194.725111 242.607368 
L 195.05009 242.912043 
L 195.37507 239.974387 
L 195.700049 243.145508 
L 196.025029 244.487157 
L 196.350008 244.742525 
L 196.674988 247.212031 
L 196.999967 246.036169 
L 197.324947 246.12628 
L 197.649926 245.092427 
L 197.974906 244.697896 
L 198.299885 242.615955 
L 198.624865 243.493852 
L 199.274824 248.534241 
L 199.599803 247.692612 
L 199.924783 250.369758 
L 200.249762 247.13716 
L 200.574742 247.065569 
L 201.224701 252.773106 
L 201.549681 249.613891 
L 201.87466 250.527118 
L 202.19964 248.862048 
L 202.524619 252.229365 
L 202.849599 251.919786 
L 203.499558 249.626689 
L 203.824537 249.49701 
L 204.149517 247.3237 
L 204.474496 248.320181 
L 205.124455 244.919799 
L 205.774414 240.93763 
L 206.099394 242.057339 
L 206.424373 242.310037 
L 206.749353 237.479592 
L 207.074333 236.144605 
L 207.399312 236.471278 
L 207.724292 232.549434 
L 208.049271 232.46943 
L 208.374251 230.348679 
L 208.69923 230.69094 
L 209.02421 227.557686 
L 209.349189 226.500293 
L 209.674169 228.895821 
L 209.999148 228.054272 
L 210.324128 228.284244 
L 210.649107 227.510665 
L 210.974087 230.93326 
L 211.299066 230.287781 
L 211.624046 229.958206 
L 211.949025 234.529761 
L 212.274005 236.158989 
L 212.598984 238.749148 
L 213.573923 235.934402 
L 213.898903 238.38194 
L 214.223882 237.754465 
L 214.548862 242.548132 
L 214.873841 245.524405 
L 215.5238 244.208454 
L 215.84878 244.866137 
L 216.173759 248.293275 
L 216.498739 246.815825 
L 216.823718 247.924713 
L 217.148698 245.261159 
L 217.473677 244.292946 
L 217.798657 245.36931 
L 218.123636 244.608426 
L 218.448616 244.423077 
L 218.773595 242.102691 
L 219.098575 238.797676 
L 219.423554 239.378772 
L 219.748534 236.431013 
L 220.398493 234.780302 
L 220.723473 232.333848 
L 221.048452 231.671748 
L 221.373432 229.69289 
L 221.698411 228.889023 
L 222.023391 223.024501 
L 222.34837 222.686687 
L 222.67335 222.932989 
L 222.998329 221.097261 
L 223.648288 219.873203 
L 223.973268 218.227956 
L 224.298247 217.261886 
L 224.623227 218.810169 
L 224.948206 219.676668 
L 225.273186 219.876797 
L 225.598165 223.346059 
L 225.923145 224.100892 
L 226.248124 220.754452 
L 226.573104 219.649587 
L 226.898084 222.711829 
L 227.223063 223.501904 
L 227.548043 224.996946 
L 227.873022 222.314843 
L 228.198002 224.881893 
L 229.17294 234.831152 
L 229.49792 233.905898 
L 230.147879 237.315113 
L 230.472858 237.182999 
L 230.797838 237.877976 
L 231.122817 234.067093 
L 231.447797 233.564297 
L 231.772776 234.406371 
L 232.097756 232.173811 
L 232.422735 232.835599 
L 232.747715 233.885714 
L 233.072695 230.105346 
L 233.397674 229.241544 
L 233.722654 230.367199 
L 234.047633 228.680178 
L 234.697592 227.615941 
L 235.347551 218.837223 
L 235.672531 221.073957 
L 235.99751 218.225372 
L 236.32249 218.045226 
L 236.972449 216.063365 
L 237.297428 215.520292 
L 237.622408 213.488055 
L 237.947387 213.592379 
L 238.272367 211.75247 
L 238.597346 211.321938 
L 238.922326 211.372745 
L 239.247305 212.424691 
L 239.572285 212.504037 
L 239.897265 210.797679 
L 240.222244 210.777118 
L 240.547224 213.308033 
L 240.872203 213.163806 
L 241.197183 212.596597 
L 241.522162 216.408254 
L 241.847142 215.186554 
L 242.172121 216.952297 
L 242.497101 216.324421 
L 243.472039 222.526751 
L 243.797019 220.858193 
L 244.121998 220.099696 
L 244.446978 221.666274 
L 244.771957 220.116308 
L 245.096937 222.883217 
L 245.421916 221.590415 
L 245.746896 222.608711 
L 246.071876 221.984663 
L 246.396855 220.419992 
L 246.721835 220.779267 
L 247.046814 219.829336 
L 247.371794 216.95489 
L 247.696773 217.642777 
L 248.021753 215.340101 
L 248.346732 216.780867 
L 248.996691 211.564672 
L 249.321671 215.667108 
L 249.64665 214.378352 
L 249.97163 211.369098 
L 250.296609 210.866918 
L 250.621589 209.427716 
L 250.946568 209.931951 
L 251.271548 208.817416 
L 251.596527 208.464455 
L 251.921507 206.160033 
L 252.246486 206.400155 
L 252.571466 206.246825 
L 252.896446 207.195918 
L 253.221425 207.631571 
L 253.546405 207.690871 
L 253.871384 206.478696 
L 254.196364 207.180369 
L 254.521343 206.416611 
L 254.846323 203.471854 
L 255.171302 204.035284 
L 255.496282 205.998837 
L 255.821261 204.498341 
L 256.146241 206.184404 
L 256.47122 209.167388 
L 256.7962 208.728518 
L 257.121179 209.654288 
L 257.771138 205.982194 
L 258.096118 202.626817 
L 258.421097 202.967593 
L 258.746077 203.607074 
L 259.071057 202.005129 
L 259.396036 205.506723 
L 260.045995 200.872753 
L 260.370975 203.015477 
L 260.695954 199.739735 
L 261.020934 199.338715 
L 261.345913 200.065383 
L 261.670893 198.637545 
L 261.995872 195.511173 
L 262.320852 197.232729 
L 262.645831 197.802121 
L 263.29579 200.268879 
L 263.62077 198.393114 
L 263.945749 200.282765 
L 264.270729 199.89352 
L 264.595708 200.787393 
L 264.920688 200.010967 
L 265.245667 200.195576 
L 265.570647 199.52678 
L 265.895627 201.822936 
L 266.220606 202.675623 
L 266.545586 204.312362 
L 266.870565 204.398009 
L 267.520524 202.506401 
L 267.845504 204.652925 
L 268.495463 201.251431 
L 268.820442 201.772677 
L 269.145422 199.515446 
L 269.470401 202.095058 
L 269.795381 203.338217 
L 270.12036 204.042803 
L 270.44534 198.835852 
L 270.770319 197.213844 
L 271.095299 196.789145 
L 271.420278 195.257126 
L 271.745258 195.798372 
L 272.070238 189.826164 
L 272.395217 189.867796 
L 272.720197 188.976719 
L 273.045176 186.792304 
L 273.695135 184.38047 
L 274.020115 184.717584 
L 274.345094 182.33638 
L 274.670074 178.731741 
L 275.320033 176.461702 
L 275.969992 180.524204 
L 276.294971 179.981981 
L 276.619951 179.695794 
L 276.94493 178.380625 
L 277.26991 182.40313 
L 277.594889 179.857744 
L 278.569828 186.477712 
L 278.894808 189.307919 
L 279.219787 187.70679 
L 279.544767 189.066953 
L 280.194726 194.788252 
L 280.519705 195.096451 
L 280.844685 192.989821 
L 281.494644 198.993916 
L 281.819623 198.896672 
L 282.144603 199.125223 
L 282.469582 202.860451 
L 282.794562 200.394553 
L 283.119541 199.392493 
L 283.444521 197.190652 
L 283.7695 194.002528 
L 284.09448 193.015013 
L 284.744439 194.255235 
L 285.069419 187.869019 
L 285.394398 187.706038 
L 285.719378 186.353269 
L 286.369337 181.895287 
L 287.344275 176.182992 
L 287.669255 173.236646 
L 288.319214 169.976925 
L 288.644193 167.133801 
L 288.969173 165.663019 
L 289.294152 161.792896 
L 289.619132 165.835105 
L 289.944111 161.646795 
L 290.269091 159.587335 
L 290.59407 163.699518 
L 290.91905 163.068259 
L 291.244029 163.279531 
L 291.569009 165.484686 
L 291.893989 166.200142 
L 292.218968 167.863258 
L 292.543948 165.319952 
L 293.193907 167.750879 
L 293.518886 170.233862 
L 293.843866 175.178331 
L 294.168845 177.492426 
L 294.493825 178.092525 
L 294.818804 181.941288 
L 295.143784 181.645481 
L 295.793743 185.610539 
L 296.118722 185.32374 
L 296.443702 186.005489 
L 296.768681 187.690659 
L 297.093661 186.1674 
L 297.41864 188.68392 
L 298.0686 185.585703 
L 298.393579 185.668916 
L 298.718559 183.861922 
L 299.043538 184.389579 
L 299.368518 180.201318 
L 300.018477 177.340227 
L 300.343456 172.946227 
L 300.993415 171.425409 
L 301.318395 169.794304 
L 301.643374 164.458535 
L 301.968354 163.644846 
L 302.293333 157.508755 
L 302.618313 159.441467 
L 302.943292 153.568441 
L 303.593251 151.62687 
L 303.918231 151.350794 
L 304.24321 149.414434 
L 304.56819 149.018792 
L 304.89317 147.106697 
L 305.543129 148.432354 
L 305.868108 149.840345 
L 306.518067 150.97993 
L 306.843047 154.938304 
L 307.168026 156.903695 
L 307.493006 155.573283 
L 307.817985 156.8642 
L 308.467944 160.438256 
L 308.792924 161.529135 
L 309.442883 166.426336 
L 309.767862 166.628821 
L 310.092842 169.050413 
L 310.417821 168.474788 
L 310.742801 171.693806 
L 311.067781 169.176621 
L 311.39276 169.02049 
L 311.71774 169.1711 
L 312.042719 167.907036 
L 312.367699 165.987578 
L 312.692678 165.629252 
L 313.017658 169.025317 
L 313.342637 168.802088 
L 313.667617 166.872364 
L 314.317576 161.334666 
L 314.642555 160.950053 
L 314.967535 158.363559 
L 315.292514 157.609083 
L 315.617494 156.013967 
L 315.942473 155.492608 
L 316.267453 153.57379 
L 316.592432 152.494522 
L 316.917412 150.649669 
L 317.242391 146.146931 
L 317.567371 146.60077 
L 317.892351 140.947399 
L 318.54231 141.614502 
L 318.867289 143.020712 
L 319.192269 141.159952 
L 319.517248 142.243191 
L 319.842228 141.704811 
L 320.167207 138.022742 
L 320.492187 140.63308 
L 320.817166 140.109165 
L 321.142146 142.915136 
L 321.467125 143.38938 
L 321.792105 141.254054 
L 322.117084 144.24917 
L 322.442064 142.192082 
L 322.767043 143.276557 
L 323.092023 145.845815 
L 323.741982 144.797555 
L 324.066962 145.194206 
L 324.391941 148.623314 
L 324.716921 148.750584 
L 325.36688 147.299682 
L 325.691859 145.779521 
L 326.016839 145.552498 
L 326.341818 147.381038 
L 326.991777 143.672497 
L 327.316757 142.711066 
L 327.641736 141.148805 
L 327.966716 140.473199 
L 328.291695 140.355678 
L 328.616675 140.710892 
L 328.941654 142.847702 
L 329.266634 140.319544 
L 329.916593 138.610577 
L 330.241572 140.402199 
L 330.566552 140.694664 
L 330.891532 137.56649 
L 331.216511 137.841453 
L 331.541491 136.864123 
L 331.86647 137.431599 
L 332.19145 137.684928 
L 332.516429 136.488047 
L 332.841409 138.185638 
L 333.166388 138.009593 
L 333.491368 138.779164 
L 333.816347 139.042278 
L 334.141327 138.918318 
L 334.466306 137.992069 
L 334.791286 138.499021 
L 335.116265 135.938861 
L 335.441245 137.78552 
L 335.766224 137.141464 
L 336.091204 136.82578 
L 336.416183 133.41837 
L 336.741163 133.303184 
L 337.066143 131.386951 
L 337.391122 133.616124 
L 338.041081 128.493299 
L 338.366061 127.765011 
L 338.69104 125.184039 
L 339.01602 125.628883 
L 339.665979 118.63489 
L 339.990958 120.382712 
L 340.315938 120.533627 
L 340.640917 117.194574 
L 340.965897 115.139034 
L 341.290876 116.99039 
L 341.615856 117.294732 
L 341.940835 117.038323 
L 342.265815 118.448695 
L 342.590794 118.472336 
L 342.915774 118.812997 
L 343.240753 118.932524 
L 343.565733 118.347996 
L 343.890713 118.268966 
L 344.215692 116.948343 
L 344.540672 120.896309 
L 344.865651 120.374567 
L 345.51561 124.354611 
L 345.84059 124.794621 
L 346.165569 128.458975 
L 346.490549 128.52358 
L 346.815528 129.591121 
L 347.140508 130.176927 
L 347.465487 131.234477 
L 347.790467 128.863012 
L 348.115446 132.695967 
L 348.440426 134.176013 
L 348.765405 134.820127 
L 349.090385 134.709101 
L 349.415364 134.327683 
L 350.065324 128.264365 
L 350.390303 129.157592 
L 350.715283 128.754206 
L 351.040262 125.374071 
L 351.365242 124.086642 
L 352.015201 117.781491 
L 352.34018 117.636762 
L 352.990139 106.809987 
L 353.315119 106.860845 
L 353.640098 104.979765 
L 354.940016 92.053529 
L 355.914955 93.955075 
L 356.239934 93.073358 
L 356.564914 91.720304 
L 356.889894 88.738136 
L 357.214873 91.411157 
L 357.539853 92.09408 
L 357.864832 93.607256 
L 358.189812 93.50312 
L 358.514791 92.694636 
L 358.839771 98.19776 
L 359.16475 101.794416 
L 359.48973 102.479524 
L 359.814709 104.800856 
L 360.139689 105.53069 
L 360.789648 113.389218 
L 361.114627 114.98819 
L 361.439607 116.008545 
L 362.089566 119.777218 
L 362.739525 120.693369 
L 363.064505 120.614118 
L 363.714464 122.611914 
L 364.039443 121.923759 
L 364.364423 119.155327 
L 364.689402 119.850808 
L 365.014382 117.013746 
L 365.339361 115.417675 
L 365.664341 112.416291 
L 365.98932 107.48872 
L 366.964259 101.189897 
L 367.939197 85.507255 
L 368.264177 84.916151 
L 368.914136 79.531627 
L 369.239115 75.164295 
L 369.564095 74.74751 
L 370.214054 71.410087 
L 370.539034 70.958318 
L 370.864013 71.604292 
L 371.188993 71.07619 
L 371.513972 69.965902 
L 371.838952 73.240998 
L 372.163931 73.712764 
L 372.488911 76.172621 
L 372.81389 75.588573 
L 373.13887 80.69882 
L 373.463849 82.804075 
L 373.788829 83.799734 
L 374.113808 84.007818 
L 374.763767 91.925664 
L 375.088747 91.357774 
L 375.738706 102.124398 
L 376.063686 101.212756 
L 376.713645 105.262235 
L 377.038624 104.027691 
L 377.363604 104.406069 
L 378.013563 107.008854 
L 378.338542 103.849861 
L 378.663522 102.149244 
L 378.988501 101.604228 
L 379.313481 97.363408 
L 379.63846 98.607525 
L 379.96344 98.305692 
L 380.613399 91.508678 
L 381.588337 81.453347 
L 381.913317 80.551832 
L 382.238296 74.524657 
L 382.563276 72.722127 
L 382.888256 68.739052 
L 384.838133 57.747905 
L 385.163112 58.34161 
L 385.488092 57.782386 
L 385.813071 58.868188 
L 386.138051 57.362722 
L 386.46303 60.328351 
L 386.78801 58.480168 
L 387.112989 61.149574 
L 387.437969 65.082088 
L 387.762948 65.250057 
L 388.087928 67.416741 
L 388.412907 66.978454 
L 388.737887 69.912664 
L 389.062867 71.680861 
L 389.387846 75.349259 
L 389.712826 75.471038 
L 390.037805 79.077483 
L 390.362785 79.849288 
L 390.687764 77.131048 
L 391.012744 76.278084 
L 391.337723 76.613642 
L 391.662703 78.812061 
L 392.312662 77.655307 
L 392.637641 78.732698 
L 392.962621 74.738801 
L 393.2876 73.419298 
L 393.61258 73.789497 
L 393.937559 72.786711 
L 394.262539 71.263559 
L 394.587518 73.067779 
L 394.912498 70.242657 
L 395.562457 67.79014 
L 395.887437 65.427248 
L 396.212416 60.559582 
L 396.537396 59.49248 
L 396.862375 60.114813 
L 397.837314 54.504757 
L 398.162293 55.006033 
L 398.487273 55.913138 
L 398.487273 55.913138 
" clip-path="url(#p0f834e2270)" style="fill: none; stroke: #ff7f0e; stroke-width: 1.5; stroke-linecap: square"/>
   </g>
   <g id="line2d_15">
    <path d="M 317.567371 307.584 
L 317.567371 41.472 
" clip-path="url(#p0f834e2270)" style="fill: none; stroke-dasharray: 5.55,2.4; stroke-dashoffset: 0; stroke: #ff0000; stroke-width: 1.5"/>
   </g>
   <g id="patch_3">
    <path d="M 57.6 307.584 
L 57.6 41.472 
" style="fill: none; stroke: #000000; stroke-width: 0.8; stroke-linejoin: miter; stroke-linecap: square"/>
   </g>
   <g id="patch_4">
    <path d="M 414.72 307.584 
L 414.72 41.472 
" style="fill: none; stroke: #000000; stroke-width: 0.8; stroke-linejoin: miter; stroke-linecap: square"/>
   </g>
   <g id="patch_5">
    <path d="M 57.6 307.584 
L 414.72 307.584 
" style="fill: none; stroke: #000000; stroke-width: 0.8; stroke-linejoin: miter; stroke-linecap: square"/>
   </g>
   <g id="patch_6">
    <path d="M 57.6 41.472 
L 414.72 41.472 
" style="fill: none; stroke: #000000; stroke-width: 0.8; stroke-linejoin: miter; stroke-linecap: square"/>
   </g>
   <g id="text_14">
    <!-- Train data -->
    <g transform="translate(220.073514 131.866299) scale(0.1 -0.1)">
     <defs>
      <path id="DejaVuSans-72" d="M 2631 2963 
Q 2534 3019 2420 3045 
Q 2306 3072 2169 3072 
Q 1681 3072 1420 2755 
Q 1159 2438 1159 1844 
L 1159 0 
L 581 0 
L 581 3500 
L 1159 3500 
L 1159 2956 
Q 1341 3275 1631 3429 
Q 1922 3584 2338 3584 
Q 2397 3584 2469 3576 
Q 2541 3569 2628 3553 
L 2631 2963 
z
" transform="scale(0.015625)"/>
      <path id="DejaVuSans-61" d="M 2194 1759 
Q 1497 1759 1228 1600 
Q 959 1441 959 1056 
Q 959 750 1161 570 
Q 1363 391 1709 391 
Q 2188 391 2477 730 
Q 2766 1069 2766 1631 
L 2766 1759 
L 2194 1759 
z
M 3341 1997 
L 3341 0 
L 2766 0 
L 2766 531 
Q 2569 213 2275 61 
Q 1981 -91 1556 -91 
Q 1019 -91 701 211 
Q 384 513 384 1019 
Q 384 1609 779 1909 
Q 1175 2209 1959 2209 
L 2766 2209 
L 2766 2266 
Q 2766 2663 2505 2880 
Q 2244 3097 1772 3097 
Q 1472 3097 1187 3025 
Q 903 2953 641 2809 
L 641 3341 
Q 956 3463 1253 3523 
Q 1550 3584 1831 3584 
Q 2591 3584 2966 3190 
Q 3341 2797 3341 1997 
z
" transform="scale(0.015625)"/>
      <path id="DejaVuSans-6e" d="M 3513 2113 
L 3513 0 
L 2938 0 
L 2938 2094 
Q 2938 2591 2744 2837 
Q 2550 3084 2163 3084 
Q 1697 3084 1428 2787 
Q 1159 2491 1159 1978 
L 1159 0 
L 581 0 
L 581 3500 
L 1159 3500 
L 1159 2956 
Q 1366 3272 1645 3428 
Q 1925 3584 2291 3584 
Q 2894 3584 3203 3211 
Q 3513 2838 3513 2113 
z
" transform="scale(0.015625)"/>
      <path id="DejaVuSans-20" transform="scale(0.015625)"/>
      <path id="DejaVuSans-64" d="M 2906 2969 
L 2906 4863 
L 3481 4863 
L 3481 0 
L 2906 0 
L 2906 525 
Q 2725 213 2448 61 
Q 2172 -91 1784 -91 
Q 1150 -91 751 415 
Q 353 922 353 1747 
Q 353 2572 751 3078 
Q 1150 3584 1784 3584 
Q 2172 3584 2448 3432 
Q 2725 3281 2906 2969 
z
M 947 1747 
Q 947 1113 1208 752 
Q 1469 391 1925 391 
Q 2381 391 2643 752 
Q 2906 1113 2906 1747 
Q 2906 2381 2643 2742 
Q 2381 3103 1925 3103 
Q 1469 3103 1208 2742 
Q 947 2381 947 1747 
z
" transform="scale(0.015625)"/>
      <path id="DejaVuSans-74" d="M 1172 4494 
L 1172 3500 
L 2356 3500 
L 2356 3053 
L 1172 3053 
L 1172 1153 
Q 1172 725 1289 603 
Q 1406 481 1766 481 
L 2356 481 
L 2356 0 
L 1766 0 
Q 1100 0 847 248 
Q 594 497 594 1153 
L 594 3053 
L 172 3053 
L 172 3500 
L 594 3500 
L 594 4494 
L 1172 4494 
z
" transform="scale(0.015625)"/>
     </defs>
     <use xlink:href="#DejaVuSans-54"/>
     <use xlink:href="#DejaVuSans-72" x="46.333984"/>
     <use xlink:href="#DejaVuSans-61" x="87.447266"/>
     <use xlink:href="#DejaVuSans-69" x="148.726562"/>
     <use xlink:href="#DejaVuSans-6e" x="176.509766"/>
     <use xlink:href="#DejaVuSans-20" x="239.888672"/>
     <use xlink:href="#DejaVuSans-64" x="271.675781"/>
     <use xlink:href="#DejaVuSans-61" x="335.152344"/>
     <use xlink:href="#DejaVuSans-74" x="396.431641"/>
     <use xlink:href="#DejaVuSans-61" x="435.640625"/>
    </g>
    <!-- MSE=0.427 -->
    <g transform="translate(220.073514 143.064111) scale(0.1 -0.1)">
     <defs>
      <path id="DejaVuSans-4d" d="M 628 4666 
L 1569 4666 
L 2759 1491 
L 3956 4666 
L 4897 4666 
L 4897 0 
L 4281 0 
L 4281 4097 
L 3078 897 
L 2444 897 
L 1241 4097 
L 1241 0 
L 628 0 
L 628 4666 
z
" transform="scale(0.015625)"/>
      <path id="DejaVuSans-53" d="M 3425 4513 
L 3425 3897 
Q 3066 4069 2747 4153 
Q 2428 4238 2131 4238 
Q 1616 4238 1336 4038 
Q 1056 3838 1056 3469 
Q 1056 3159 1242 3001 
Q 1428 2844 1947 2747 
L 2328 2669 
Q 3034 2534 3370 2195 
Q 3706 1856 3706 1288 
Q 3706 609 3251 259 
Q 2797 -91 1919 -91 
Q 1588 -91 1214 -16 
Q 841 59 441 206 
L 441 856 
Q 825 641 1194 531 
Q 1563 422 1919 422 
Q 2459 422 2753 634 
Q 3047 847 3047 1241 
Q 3047 1584 2836 1778 
Q 2625 1972 2144 2069 
L 1759 2144 
Q 1053 2284 737 2584 
Q 422 2884 422 3419 
Q 422 4038 858 4394 
Q 1294 4750 2059 4750 
Q 2388 4750 2728 4690 
Q 3069 4631 3425 4513 
z
" transform="scale(0.015625)"/>
      <path id="DejaVuSans-45" d="M 628 4666 
L 3578 4666 
L 3578 4134 
L 1259 4134 
L 1259 2753 
L 3481 2753 
L 3481 2222 
L 1259 2222 
L 1259 531 
L 3634 531 
L 3634 0 
L 628 0 
L 628 4666 
z
" transform="scale(0.015625)"/>
      <path id="DejaVuSans-3d" d="M 678 2906 
L 4684 2906 
L 4684 2381 
L 678 2381 
L 678 2906 
z
M 678 1631 
L 4684 1631 
L 4684 1100 
L 678 1100 
L 678 1631 
z
" transform="scale(0.015625)"/>
      <path id="DejaVuSans-2e" d="M 684 794 
L 1344 794 
L 1344 0 
L 684 0 
L 684 794 
z
" transform="scale(0.015625)"/>
      <path id="DejaVuSans-37" d="M 525 4666 
L 3525 4666 
L 3525 4397 
L 1831 0 
L 1172 0 
L 2766 4134 
L 525 4134 
L 525 4666 
z
" transform="scale(0.015625)"/>
     </defs>
     <use xlink:href="#DejaVuSans-4d"/>
     <use xlink:href="#DejaVuSans-53" x="86.279297"/>
     <use xlink:href="#DejaVuSans-45" x="149.755859"/>
     <use xlink:href="#DejaVuSans-3d" x="212.939453"/>
     <use xlink:href="#DejaVuSans-30" x="296.728516"/>
     <use xlink:href="#DejaVuSans-2e" x="360.351562"/>
     <use xlink:href="#DejaVuSans-34" x="392.138672"/>
     <use xlink:href="#DejaVuSans-32" x="455.761719"/>
     <use xlink:href="#DejaVuSans-37" x="519.384766"/>
    </g>
   </g>
   <g id="text_15">
    <!-- Test data -->
    <g transform="translate(333.816347 164.585012) scale(0.1 -0.1)">
     <defs>
      <path id="DejaVuSans-73" d="M 2834 3397 
L 2834 2853 
Q 2591 2978 2328 3040 
Q 2066 3103 1784 3103 
Q 1356 3103 1142 2972 
Q 928 2841 928 2578 
Q 928 2378 1081 2264 
Q 1234 2150 1697 2047 
L 1894 2003 
Q 2506 1872 2764 1633 
Q 3022 1394 3022 966 
Q 3022 478 2636 193 
Q 2250 -91 1575 -91 
Q 1294 -91 989 -36 
Q 684 19 347 128 
L 347 722 
Q 666 556 975 473 
Q 1284 391 1588 391 
Q 1994 391 2212 530 
Q 2431 669 2431 922 
Q 2431 1156 2273 1281 
Q 2116 1406 1581 1522 
L 1381 1569 
Q 847 1681 609 1914 
Q 372 2147 372 2553 
Q 372 3047 722 3315 
Q 1072 3584 1716 3584 
Q 2034 3584 2315 3537 
Q 2597 3491 2834 3397 
z
" transform="scale(0.015625)"/>
     </defs>
     <use xlink:href="#DejaVuSans-54"/>
     <use xlink:href="#DejaVuSans-65" x="44.083984"/>
     <use xlink:href="#DejaVuSans-73" x="105.607422"/>
     <use xlink:href="#DejaVuSans-74" x="157.707031"/>
     <use xlink:href="#DejaVuSans-20" x="196.916016"/>
     <use xlink:href="#DejaVuSans-64" x="228.703125"/>
     <use xlink:href="#DejaVuSans-61" x="292.179688"/>
     <use xlink:href="#DejaVuSans-74" x="353.458984"/>
     <use xlink:href="#DejaVuSans-61" x="392.667969"/>
    </g>
    <!-- MSE=0.597 -->
    <g transform="translate(333.816347 175.782825) scale(0.1 -0.1)">
     <defs>
      <path id="DejaVuSans-39" d="M 703 97 
L 703 672 
Q 941 559 1184 500 
Q 1428 441 1663 441 
Q 2288 441 2617 861 
Q 2947 1281 2994 2138 
Q 2813 1869 2534 1725 
Q 2256 1581 1919 1581 
Q 1219 1581 811 2004 
Q 403 2428 403 3163 
Q 403 3881 828 4315 
Q 1253 4750 1959 4750 
Q 2769 4750 3195 4129 
Q 3622 3509 3622 2328 
Q 3622 1225 3098 567 
Q 2575 -91 1691 -91 
Q 1453 -91 1209 -44 
Q 966 3 703 97 
z
M 1959 2075 
Q 2384 2075 2632 2365 
Q 2881 2656 2881 3163 
Q 2881 3666 2632 3958 
Q 2384 4250 1959 4250 
Q 1534 4250 1286 3958 
Q 1038 3666 1038 3163 
Q 1038 2656 1286 2365 
Q 1534 2075 1959 2075 
z
" transform="scale(0.015625)"/>
     </defs>
     <use xlink:href="#DejaVuSans-4d"/>
     <use xlink:href="#DejaVuSans-53" x="86.279297"/>
     <use xlink:href="#DejaVuSans-45" x="149.755859"/>
     <use xlink:href="#DejaVuSans-3d" x="212.939453"/>
     <use xlink:href="#DejaVuSans-30" x="296.728516"/>
     <use xlink:href="#DejaVuSans-2e" x="360.351562"/>
     <use xlink:href="#DejaVuSans-35" x="392.138672"/>
     <use xlink:href="#DejaVuSans-39" x="455.761719"/>
     <use xlink:href="#DejaVuSans-37" x="519.384766"/>
    </g>
   </g>
   <g id="text_16">
    <!-- MSE = 0.469 -->
    <g transform="translate(197.364375 22.034625) scale(0.12 -0.12)">
     <use xlink:href="#DejaVuSans-4d"/>
     <use xlink:href="#DejaVuSans-53" x="86.279297"/>
     <use xlink:href="#DejaVuSans-45" x="149.755859"/>
     <use xlink:href="#DejaVuSans-20" x="212.939453"/>
     <use xlink:href="#DejaVuSans-3d" x="244.726562"/>
     <use xlink:href="#DejaVuSans-20" x="328.515625"/>
     <use xlink:href="#DejaVuSans-30" x="360.302734"/>
     <use xlink:href="#DejaVuSans-2e" x="423.925781"/>
     <use xlink:href="#DejaVuSans-34" x="455.712891"/>
     <use xlink:href="#DejaVuSans-36" x="519.335938"/>
     <use xlink:href="#DejaVuSans-39" x="582.958984"/>
    </g>
    <!-- Alpha = 0.594 -->
    <g transform="translate(193.081875 35.472) scale(0.12 -0.12)">
     <defs>
      <path id="DejaVuSans-41" d="M 2188 4044 
L 1331 1722 
L 3047 1722 
L 2188 4044 
z
M 1831 4666 
L 2547 4666 
L 4325 0 
L 3669 0 
L 3244 1197 
L 1141 1197 
L 716 0 
L 50 0 
L 1831 4666 
z
" transform="scale(0.015625)"/>
      <path id="DejaVuSans-6c" d="M 603 4863 
L 1178 4863 
L 1178 0 
L 603 0 
L 603 4863 
z
" transform="scale(0.015625)"/>
      <path id="DejaVuSans-70" d="M 1159 525 
L 1159 -1331 
L 581 -1331 
L 581 3500 
L 1159 3500 
L 1159 2969 
Q 1341 3281 1617 3432 
Q 1894 3584 2278 3584 
Q 2916 3584 3314 3078 
Q 3713 2572 3713 1747 
Q 3713 922 3314 415 
Q 2916 -91 2278 -91 
Q 1894 -91 1617 61 
Q 1341 213 1159 525 
z
M 3116 1747 
Q 3116 2381 2855 2742 
Q 2594 3103 2138 3103 
Q 1681 3103 1420 2742 
Q 1159 2381 1159 1747 
Q 1159 1113 1420 752 
Q 1681 391 2138 391 
Q 2594 391 2855 752 
Q 3116 1113 3116 1747 
z
" transform="scale(0.015625)"/>
      <path id="DejaVuSans-68" d="M 3513 2113 
L 3513 0 
L 2938 0 
L 2938 2094 
Q 2938 2591 2744 2837 
Q 2550 3084 2163 3084 
Q 1697 3084 1428 2787 
Q 1159 2491 1159 1978 
L 1159 0 
L 581 0 
L 581 4863 
L 1159 4863 
L 1159 2956 
Q 1366 3272 1645 3428 
Q 1925 3584 2291 3584 
Q 2894 3584 3203 3211 
Q 3513 2838 3513 2113 
z
" transform="scale(0.015625)"/>
     </defs>
     <use xlink:href="#DejaVuSans-41"/>
     <use xlink:href="#DejaVuSans-6c" x="68.408203"/>
     <use xlink:href="#DejaVuSans-70" x="96.191406"/>
     <use xlink:href="#DejaVuSans-68" x="159.667969"/>
     <use xlink:href="#DejaVuSans-61" x="223.046875"/>
     <use xlink:href="#DejaVuSans-20" x="284.326172"/>
     <use xlink:href="#DejaVuSans-3d" x="316.113281"/>
     <use xlink:href="#DejaVuSans-20" x="399.902344"/>
     <use xlink:href="#DejaVuSans-30" x="431.689453"/>
     <use xlink:href="#DejaVuSans-2e" x="495.3125"/>
     <use xlink:href="#DejaVuSans-35" x="527.099609"/>
     <use xlink:href="#DejaVuSans-39" x="590.722656"/>
     <use xlink:href="#DejaVuSans-34" x="654.345703"/>
    </g>
   </g>
   <g id="legend_1">
    <g id="patch_7">
     <path d="M 64.6 78.82825 
L 146.273438 78.82825 
Q 148.273438 78.82825 148.273438 76.82825 
L 148.273438 48.472 
Q 148.273438 46.472 146.273438 46.472 
L 64.6 46.472 
Q 62.6 46.472 62.6 48.472 
L 62.6 76.82825 
Q 62.6 78.82825 64.6 78.82825 
z
" style="fill: #ffffff; opacity: 0.8; stroke: #cccccc; stroke-linejoin: miter"/>
    </g>
    <g id="line2d_16">
     <path d="M 66.6 54.570437 
L 76.6 54.570437 
L 86.6 54.570437 
" style="fill: none; stroke: #1f77b4; stroke-width: 1.5; stroke-linecap: square"/>
    </g>
    <g id="text_17">
     <!-- Series -->
     <g transform="translate(94.6 58.070437) scale(0.1 -0.1)">
      <use xlink:href="#DejaVuSans-53"/>
      <use xlink:href="#DejaVuSans-65" x="63.476562"/>
      <use xlink:href="#DejaVuSans-72" x="125"/>
      <use xlink:href="#DejaVuSans-69" x="166.113281"/>
      <use xlink:href="#DejaVuSans-65" x="193.896484"/>
      <use xlink:href="#DejaVuSans-73" x="255.419922"/>
     </g>
    </g>
    <g id="line2d_17">
     <path d="M 66.6 69.248562 
L 76.6 69.248562 
L 86.6 69.248562 
" style="fill: none; stroke: #ff7f0e; stroke-width: 1.5; stroke-linecap: square"/>
    </g>
    <g id="text_18">
     <!-- Prediction -->
     <g transform="translate(94.6 72.748562) scale(0.1 -0.1)">
      <defs>
       <path id="DejaVuSans-50" d="M 1259 4147 
L 1259 2394 
L 2053 2394 
Q 2494 2394 2734 2622 
Q 2975 2850 2975 3272 
Q 2975 3691 2734 3919 
Q 2494 4147 2053 4147 
L 1259 4147 
z
M 628 4666 
L 2053 4666 
Q 2838 4666 3239 4311 
Q 3641 3956 3641 3272 
Q 3641 2581 3239 2228 
Q 2838 1875 2053 1875 
L 1259 1875 
L 1259 0 
L 628 0 
L 628 4666 
z
" transform="scale(0.015625)"/>
       <path id="DejaVuSans-63" d="M 3122 3366 
L 3122 2828 
Q 2878 2963 2633 3030 
Q 2388 3097 2138 3097 
Q 1578 3097 1268 2742 
Q 959 2388 959 1747 
Q 959 1106 1268 751 
Q 1578 397 2138 397 
Q 2388 397 2633 464 
Q 2878 531 3122 666 
L 3122 134 
Q 2881 22 2623 -34 
Q 2366 -91 2075 -91 
Q 1284 -91 818 406 
Q 353 903 353 1747 
Q 353 2603 823 3093 
Q 1294 3584 2113 3584 
Q 2378 3584 2631 3529 
Q 2884 3475 3122 3366 
z
" transform="scale(0.015625)"/>
       <path id="DejaVuSans-6f" d="M 1959 3097 
Q 1497 3097 1228 2736 
Q 959 2375 959 1747 
Q 959 1119 1226 758 
Q 1494 397 1959 397 
Q 2419 397 2687 759 
Q 2956 1122 2956 1747 
Q 2956 2369 2687 2733 
Q 2419 3097 1959 3097 
z
M 1959 3584 
Q 2709 3584 3137 3096 
Q 3566 2609 3566 1747 
Q 3566 888 3137 398 
Q 2709 -91 1959 -91 
Q 1206 -91 779 398 
Q 353 888 353 1747 
Q 353 2609 779 3096 
Q 1206 3584 1959 3584 
z
" transform="scale(0.015625)"/>
      </defs>
      <use xlink:href="#DejaVuSans-50"/>
      <use xlink:href="#DejaVuSans-72" x="58.552734"/>
      <use xlink:href="#DejaVuSans-65" x="97.416016"/>
      <use xlink:href="#DejaVuSans-64" x="158.939453"/>
      <use xlink:href="#DejaVuSans-69" x="222.416016"/>
      <use xlink:href="#DejaVuSans-63" x="250.199219"/>
      <use xlink:href="#DejaVuSans-74" x="305.179688"/>
      <use xlink:href="#DejaVuSans-69" x="344.388672"/>
      <use xlink:href="#DejaVuSans-6f" x="372.171875"/>
      <use xlink:href="#DejaVuSans-6e" x="433.353516"/>
     </g>
    </g>
   </g>
  </g>
 </g>
 <defs>
  <clipPath id="p0f834e2270">
   <rect x="57.6" y="41.472" width="357.12" height="266.112"/>
  </clipPath>
 </defs>
</svg>
