<?xml version="1.0" encoding="utf-8" standalone="no"?>
<!DOCTYPE svg PUBLIC "-//W3C//DTD SVG 1.1//EN"
  "http://www.w3.org/Graphics/SVG/1.1/DTD/svg11.dtd">
<svg xmlns:xlink="http://www.w3.org/1999/xlink" width="460.8pt" height="345.6pt" viewBox="0 0 460.8 345.6" xmlns="http://www.w3.org/2000/svg" version="1.1">
 <metadata>
  <rdf:RDF xmlns:dc="http://purl.org/dc/elements/1.1/" xmlns:cc="http://creativecommons.org/ns#" xmlns:rdf="http://www.w3.org/1999/02/22-rdf-syntax-ns#">
   <cc:Work>
    <dc:type rdf:resource="http://purl.org/dc/dcmitype/StillImage"/>
    <dc:format>image/svg+xml</dc:format>
    <dc:creator>
     <cc:Agent>
      <dc:title>Matplotlib v3.8.4, https://matplotlib.org/</dc:title>
     </cc:Agent>
    </dc:creator>
   </cc:Work>
  </rdf:RDF>
 </metadata>
 <defs>
  <style type="text/css">*{stroke-linejoin: round; stroke-linecap: butt}</style>
 </defs>
 <g id="figure_1">
  <g id="patch_1">
   <path d="M 0 345.6 
L 460.8 345.6 
L 460.8 0 
L 0 0 
z
" style="fill: #ffffff"/>
  </g>
  <g id="axes_1">
   <g id="patch_2">
    <path d="M 57.6 307.584 
L 414.72 307.584 
L 414.72 41.472 
L 57.6 41.472 
z
" style="fill: #ffffff"/>
   </g>
   <g id="matplotlib.axis_1">
    <g id="xtick_1">
     <g id="line2d_1">
      <defs>
       <path id="mbcb02aef95" d="M 0 0 
L 0 3.5 
" style="stroke: #000000; stroke-width: 0.8"/>
      </defs>
      <g>
       <use xlink:href="#mbcb02aef95" x="73.832727" y="307.584" style="stroke: #000000; stroke-width: 0.8"/>
      </g>
     </g>
     <g id="text_1">
      <!-- 0 -->
      <g transform="translate(70.651477 322.182437) scale(0.1 -0.1)">
       <defs>
        <path id="DejaVuSans-30" d="M 2034 4250 
Q 1547 4250 1301 3770 
Q 1056 3291 1056 2328 
Q 1056 1369 1301 889 
Q 1547 409 2034 409 
Q 2525 409 2770 889 
Q 3016 1369 3016 2328 
Q 3016 3291 2770 3770 
Q 2525 4250 2034 4250 
z
M 2034 4750 
Q 2819 4750 3233 4129 
Q 3647 3509 3647 2328 
Q 3647 1150 3233 529 
Q 2819 -91 2034 -91 
Q 1250 -91 836 529 
Q 422 1150 422 2328 
Q 422 3509 836 4129 
Q 1250 4750 2034 4750 
z
" transform="scale(0.015625)"/>
       </defs>
       <use xlink:href="#DejaVuSans-30"/>
      </g>
     </g>
    </g>
    <g id="xtick_2">
     <g id="line2d_2">
      <g>
       <use xlink:href="#mbcb02aef95" x="138.828632" y="307.584" style="stroke: #000000; stroke-width: 0.8"/>
      </g>
     </g>
     <g id="text_2">
      <!-- 200 -->
      <g transform="translate(129.284882 322.182437) scale(0.1 -0.1)">
       <defs>
        <path id="DejaVuSans-32" d="M 1228 531 
L 3431 531 
L 3431 0 
L 469 0 
L 469 531 
Q 828 903 1448 1529 
Q 2069 2156 2228 2338 
Q 2531 2678 2651 2914 
Q 2772 3150 2772 3378 
Q 2772 3750 2511 3984 
Q 2250 4219 1831 4219 
Q 1534 4219 1204 4116 
Q 875 4013 500 3803 
L 500 4441 
Q 881 4594 1212 4672 
Q 1544 4750 1819 4750 
Q 2544 4750 2975 4387 
Q 3406 4025 3406 3419 
Q 3406 3131 3298 2873 
Q 3191 2616 2906 2266 
Q 2828 2175 2409 1742 
Q 1991 1309 1228 531 
z
" transform="scale(0.015625)"/>
       </defs>
       <use xlink:href="#DejaVuSans-32"/>
       <use xlink:href="#DejaVuSans-30" x="63.623047"/>
       <use xlink:href="#DejaVuSans-30" x="127.246094"/>
      </g>
     </g>
    </g>
    <g id="xtick_3">
     <g id="line2d_3">
      <g>
       <use xlink:href="#mbcb02aef95" x="203.824537" y="307.584" style="stroke: #000000; stroke-width: 0.8"/>
      </g>
     </g>
     <g id="text_3">
      <!-- 400 -->
      <g transform="translate(194.280787 322.182437) scale(0.1 -0.1)">
       <defs>
        <path id="DejaVuSans-34" d="M 2419 4116 
L 825 1625 
L 2419 1625 
L 2419 4116 
z
M 2253 4666 
L 3047 4666 
L 3047 1625 
L 3713 1625 
L 3713 1100 
L 3047 1100 
L 3047 0 
L 2419 0 
L 2419 1100 
L 313 1100 
L 313 1709 
L 2253 4666 
z
" transform="scale(0.015625)"/>
       </defs>
       <use xlink:href="#DejaVuSans-34"/>
       <use xlink:href="#DejaVuSans-30" x="63.623047"/>
       <use xlink:href="#DejaVuSans-30" x="127.246094"/>
      </g>
     </g>
    </g>
    <g id="xtick_4">
     <g id="line2d_4">
      <g>
       <use xlink:href="#mbcb02aef95" x="268.820442" y="307.584" style="stroke: #000000; stroke-width: 0.8"/>
      </g>
     </g>
     <g id="text_4">
      <!-- 600 -->
      <g transform="translate(259.276692 322.182437) scale(0.1 -0.1)">
       <defs>
        <path id="DejaVuSans-36" d="M 2113 2584 
Q 1688 2584 1439 2293 
Q 1191 2003 1191 1497 
Q 1191 994 1439 701 
Q 1688 409 2113 409 
Q 2538 409 2786 701 
Q 3034 994 3034 1497 
Q 3034 2003 2786 2293 
Q 2538 2584 2113 2584 
z
M 3366 4563 
L 3366 3988 
Q 3128 4100 2886 4159 
Q 2644 4219 2406 4219 
Q 1781 4219 1451 3797 
Q 1122 3375 1075 2522 
Q 1259 2794 1537 2939 
Q 1816 3084 2150 3084 
Q 2853 3084 3261 2657 
Q 3669 2231 3669 1497 
Q 3669 778 3244 343 
Q 2819 -91 2113 -91 
Q 1303 -91 875 529 
Q 447 1150 447 2328 
Q 447 3434 972 4092 
Q 1497 4750 2381 4750 
Q 2619 4750 2861 4703 
Q 3103 4656 3366 4563 
z
" transform="scale(0.015625)"/>
       </defs>
       <use xlink:href="#DejaVuSans-36"/>
       <use xlink:href="#DejaVuSans-30" x="63.623047"/>
       <use xlink:href="#DejaVuSans-30" x="127.246094"/>
      </g>
     </g>
    </g>
    <g id="xtick_5">
     <g id="line2d_5">
      <g>
       <use xlink:href="#mbcb02aef95" x="333.816347" y="307.584" style="stroke: #000000; stroke-width: 0.8"/>
      </g>
     </g>
     <g id="text_5">
      <!-- 800 -->
      <g transform="translate(324.272597 322.182437) scale(0.1 -0.1)">
       <defs>
        <path id="DejaVuSans-38" d="M 2034 2216 
Q 1584 2216 1326 1975 
Q 1069 1734 1069 1313 
Q 1069 891 1326 650 
Q 1584 409 2034 409 
Q 2484 409 2743 651 
Q 3003 894 3003 1313 
Q 3003 1734 2745 1975 
Q 2488 2216 2034 2216 
z
M 1403 2484 
Q 997 2584 770 2862 
Q 544 3141 544 3541 
Q 544 4100 942 4425 
Q 1341 4750 2034 4750 
Q 2731 4750 3128 4425 
Q 3525 4100 3525 3541 
Q 3525 3141 3298 2862 
Q 3072 2584 2669 2484 
Q 3125 2378 3379 2068 
Q 3634 1759 3634 1313 
Q 3634 634 3220 271 
Q 2806 -91 2034 -91 
Q 1263 -91 848 271 
Q 434 634 434 1313 
Q 434 1759 690 2068 
Q 947 2378 1403 2484 
z
M 1172 3481 
Q 1172 3119 1398 2916 
Q 1625 2713 2034 2713 
Q 2441 2713 2670 2916 
Q 2900 3119 2900 3481 
Q 2900 3844 2670 4047 
Q 2441 4250 2034 4250 
Q 1625 4250 1398 4047 
Q 1172 3844 1172 3481 
z
" transform="scale(0.015625)"/>
       </defs>
       <use xlink:href="#DejaVuSans-38"/>
       <use xlink:href="#DejaVuSans-30" x="63.623047"/>
       <use xlink:href="#DejaVuSans-30" x="127.246094"/>
      </g>
     </g>
    </g>
    <g id="xtick_6">
     <g id="line2d_6">
      <g>
       <use xlink:href="#mbcb02aef95" x="398.812252" y="307.584" style="stroke: #000000; stroke-width: 0.8"/>
      </g>
     </g>
     <g id="text_6">
      <!-- 1000 -->
      <g transform="translate(386.087252 322.182437) scale(0.1 -0.1)">
       <defs>
        <path id="DejaVuSans-31" d="M 794 531 
L 1825 531 
L 1825 4091 
L 703 3866 
L 703 4441 
L 1819 4666 
L 2450 4666 
L 2450 531 
L 3481 531 
L 3481 0 
L 794 0 
L 794 531 
z
" transform="scale(0.015625)"/>
       </defs>
       <use xlink:href="#DejaVuSans-31"/>
       <use xlink:href="#DejaVuSans-30" x="63.623047"/>
       <use xlink:href="#DejaVuSans-30" x="127.246094"/>
       <use xlink:href="#DejaVuSans-30" x="190.869141"/>
      </g>
     </g>
    </g>
   </g>
   <g id="matplotlib.axis_2">
    <g id="ytick_1">
     <g id="line2d_7">
      <defs>
       <path id="me5179b328b" d="M 0 0 
L -3.5 0 
" style="stroke: #000000; stroke-width: 0.8"/>
      </defs>
      <g>
       <use xlink:href="#me5179b328b" x="57.6" y="289.926867" style="stroke: #000000; stroke-width: 0.8"/>
      </g>
     </g>
     <g id="text_7">
      <!-- 0 -->
      <g transform="translate(44.2375 293.726086) scale(0.1 -0.1)">
       <use xlink:href="#DejaVuSans-30"/>
      </g>
     </g>
    </g>
    <g id="ytick_2">
     <g id="line2d_8">
      <g>
       <use xlink:href="#me5179b328b" x="57.6" y="240.608854" style="stroke: #000000; stroke-width: 0.8"/>
      </g>
     </g>
     <g id="text_8">
      <!-- 10 -->
      <g transform="translate(37.875 244.408073) scale(0.1 -0.1)">
       <use xlink:href="#DejaVuSans-31"/>
       <use xlink:href="#DejaVuSans-30" x="63.623047"/>
      </g>
     </g>
    </g>
    <g id="ytick_3">
     <g id="line2d_9">
      <g>
       <use xlink:href="#me5179b328b" x="57.6" y="191.290842" style="stroke: #000000; stroke-width: 0.8"/>
      </g>
     </g>
     <g id="text_9">
      <!-- 20 -->
      <g transform="translate(37.875 195.09006) scale(0.1 -0.1)">
       <use xlink:href="#DejaVuSans-32"/>
       <use xlink:href="#DejaVuSans-30" x="63.623047"/>
      </g>
     </g>
    </g>
    <g id="ytick_4">
     <g id="line2d_10">
      <g>
       <use xlink:href="#me5179b328b" x="57.6" y="141.972829" style="stroke: #000000; stroke-width: 0.8"/>
      </g>
     </g>
     <g id="text_10">
      <!-- 30 -->
      <g transform="translate(37.875 145.772048) scale(0.1 -0.1)">
       <defs>
        <path id="DejaVuSans-33" d="M 2597 2516 
Q 3050 2419 3304 2112 
Q 3559 1806 3559 1356 
Q 3559 666 3084 287 
Q 2609 -91 1734 -91 
Q 1441 -91 1130 -33 
Q 819 25 488 141 
L 488 750 
Q 750 597 1062 519 
Q 1375 441 1716 441 
Q 2309 441 2620 675 
Q 2931 909 2931 1356 
Q 2931 1769 2642 2001 
Q 2353 2234 1838 2234 
L 1294 2234 
L 1294 2753 
L 1863 2753 
Q 2328 2753 2575 2939 
Q 2822 3125 2822 3475 
Q 2822 3834 2567 4026 
Q 2313 4219 1838 4219 
Q 1578 4219 1281 4162 
Q 984 4106 628 3988 
L 628 4550 
Q 988 4650 1302 4700 
Q 1616 4750 1894 4750 
Q 2613 4750 3031 4423 
Q 3450 4097 3450 3541 
Q 3450 3153 3228 2886 
Q 3006 2619 2597 2516 
z
" transform="scale(0.015625)"/>
       </defs>
       <use xlink:href="#DejaVuSans-33"/>
       <use xlink:href="#DejaVuSans-30" x="63.623047"/>
      </g>
     </g>
    </g>
    <g id="ytick_5">
     <g id="line2d_11">
      <g>
       <use xlink:href="#me5179b328b" x="57.6" y="92.654816" style="stroke: #000000; stroke-width: 0.8"/>
      </g>
     </g>
     <g id="text_11">
      <!-- 40 -->
      <g transform="translate(37.875 96.454035) scale(0.1 -0.1)">
       <use xlink:href="#DejaVuSans-34"/>
       <use xlink:href="#DejaVuSans-30" x="63.623047"/>
      </g>
     </g>
    </g>
    <g id="ytick_6">
     <g id="line2d_12">
      <g>
       <use xlink:href="#me5179b328b" x="57.6" y="43.336804" style="stroke: #000000; stroke-width: 0.8"/>
      </g>
     </g>
     <g id="text_12">
      <!-- 50 -->
      <g transform="translate(37.875 47.136022) scale(0.1 -0.1)">
       <defs>
        <path id="DejaVuSans-35" d="M 691 4666 
L 3169 4666 
L 3169 4134 
L 1269 4134 
L 1269 2991 
Q 1406 3038 1543 3061 
Q 1681 3084 1819 3084 
Q 2600 3084 3056 2656 
Q 3513 2228 3513 1497 
Q 3513 744 3044 326 
Q 2575 -91 1722 -91 
Q 1428 -91 1123 -41 
Q 819 9 494 109 
L 494 744 
Q 775 591 1075 516 
Q 1375 441 1709 441 
Q 2250 441 2565 725 
Q 2881 1009 2881 1497 
Q 2881 1984 2565 2268 
Q 2250 2553 1709 2553 
Q 1456 2553 1204 2497 
Q 953 2441 691 2322 
L 691 4666 
z
" transform="scale(0.015625)"/>
       </defs>
       <use xlink:href="#DejaVuSans-35"/>
       <use xlink:href="#DejaVuSans-30" x="63.623047"/>
      </g>
     </g>
    </g>
   </g>
   <g id="line2d_13">
    <path d="M 73.832727 290.504266 
L 74.157707 290.453729 
L 74.482686 285.92461 
L 74.807666 287.862119 
L 75.132645 290.841946 
L 75.457625 288.270986 
L 75.782604 290.672236 
L 76.107584 290.595817 
L 76.432563 288.767283 
L 76.757543 293.998646 
L 77.082523 293.452638 
L 77.407502 290.507439 
L 77.732482 291.544894 
L 78.057461 288.205001 
L 78.382441 291.158849 
L 78.70742 292.350508 
L 79.0324 285.210999 
L 79.357379 289.348708 
L 79.682359 288.602076 
L 80.007338 292.268224 
L 80.657297 288.481323 
L 80.982277 291.604922 
L 81.307256 287.858383 
L 81.632236 290.288805 
L 81.957215 289.55283 
L 82.282195 290.344184 
L 82.607174 284.318772 
L 82.932154 288.942301 
L 83.257133 291.534632 
L 83.582113 286.908092 
L 83.907093 291.94744 
L 84.232072 288.411197 
L 84.557052 293.734932 
L 84.882031 292.139791 
L 85.207011 288.325818 
L 85.53199 286.920779 
L 85.85697 288.233178 
L 86.181949 288.838414 
L 86.506929 289.177101 
L 86.831908 291.946555 
L 87.156888 289.927647 
L 87.481867 289.127782 
L 87.806847 285.213702 
L 88.131826 286.793111 
L 88.456806 291.80171 
L 88.781785 286.465251 
L 89.106765 288.023268 
L 89.431744 288.554078 
L 89.756724 285.192332 
L 90.081704 283.98148 
L 90.406683 284.060446 
L 90.731663 288.271656 
L 91.706601 283.425663 
L 92.031581 286.924922 
L 92.35656 286.132423 
L 92.68154 288.353373 
L 93.006519 288.544723 
L 93.331499 283.579469 
L 93.656478 282.243979 
L 93.981458 285.786759 
L 94.306437 283.169094 
L 94.631417 284.797863 
L 94.956396 287.335203 
L 95.606355 282.076809 
L 95.931335 286.022235 
L 96.256314 282.137406 
L 96.581294 292.511914 
L 96.906274 284.07308 
L 97.231253 285.922258 
L 97.556233 286.898228 
L 97.881212 285.943583 
L 98.206192 291.063328 
L 98.531171 286.67839 
L 98.856151 285.212066 
L 99.18113 282.385446 
L 99.50611 287.226195 
L 99.831089 287.842136 
L 100.156069 286.96891 
L 100.481048 283.34176 
L 100.806028 284.641814 
L 101.131007 286.600294 
L 101.455987 283.860094 
L 101.780966 284.710965 
L 102.105946 282.381709 
L 102.430925 286.319392 
L 102.755905 285.214635 
L 103.080885 285.195034 
L 103.405864 287.663842 
L 103.730844 283.159012 
L 104.055823 283.088974 
L 104.705782 284.03143 
L 105.030762 286.821715 
L 105.355741 284.260275 
L 105.680721 283.972325 
L 106.0057 285.022049 
L 106.655659 281.913269 
L 106.980639 278.205117 
L 107.305618 282.379236 
L 107.630598 282.132919 
L 107.955577 282.912563 
L 108.280557 287.421955 
L 108.605536 282.715611 
L 108.930516 282.457681 
L 109.255495 276.482302 
L 109.580475 282.973458 
L 109.905455 281.689261 
L 110.230434 282.442065 
L 110.555414 285.151063 
L 110.880393 279.352653 
L 111.205373 280.206913 
L 111.530352 279.990214 
L 111.855332 284.053281 
L 112.180311 278.213309 
L 112.505291 284.984292 
L 113.15525 275.824679 
L 113.480229 283.51725 
L 113.805209 282.322723 
L 114.130188 280.537963 
L 114.455168 281.89115 
L 114.780147 284.350493 
L 115.105127 280.248282 
L 115.430106 282.943206 
L 115.755086 279.07959 
L 116.080066 282.457124 
L 116.405045 276.329973 
L 116.730025 282.065224 
L 117.055004 280.929272 
L 117.379984 278.148855 
L 117.704963 283.226838 
L 118.354922 277.083358 
L 118.679902 284.342743 
L 119.004881 280.000722 
L 119.329861 279.893136 
L 119.65484 278.680414 
L 119.97982 283.724559 
L 120.304799 283.983523 
L 120.629779 279.475708 
L 120.954758 280.043573 
L 121.279738 280.144912 
L 121.604717 279.864714 
L 121.929697 282.318739 
L 122.254676 279.955759 
L 122.579656 279.654228 
L 122.904636 281.947597 
L 123.229615 275.35491 
L 123.879574 282.317832 
L 124.204554 277.420262 
L 124.529533 281.070732 
L 124.854513 276.327752 
L 125.179492 274.991591 
L 125.504472 279.436789 
L 125.829451 274.593095 
L 126.154431 275.504609 
L 126.47941 274.054756 
L 126.80439 270.977129 
L 127.129369 275.852858 
L 127.454349 276.727911 
L 127.779328 276.719528 
L 128.104308 276.236438 
L 128.429287 274.161257 
L 128.754267 272.92907 
L 129.079247 272.94405 
L 129.404226 271.502396 
L 129.729206 273.487395 
L 130.054185 269.974424 
L 130.379165 274.31156 
L 130.704144 267.110239 
L 131.354103 276.409709 
L 131.679083 277.244725 
L 132.004062 273.758723 
L 132.329042 275.872002 
L 132.654021 273.951625 
L 132.979001 274.945482 
L 133.62896 278.985362 
L 133.953939 280.995896 
L 134.603898 275.763935 
L 134.928878 277.580275 
L 135.253857 281.350669 
L 135.578837 277.952933 
L 135.903817 277.455338 
L 136.228796 280.53003 
L 136.553776 277.832771 
L 136.878755 277.844347 
L 137.203735 280.497296 
L 137.528714 276.404435 
L 137.853694 275.432376 
L 138.178673 273.599177 
L 138.503653 273.059253 
L 138.828632 278.384941 
L 139.153612 276.582274 
L 139.478591 272.244881 
L 140.12855 270.674678 
L 140.45353 261.655248 
L 140.778509 268.974346 
L 141.103489 266.83726 
L 141.428468 266.582389 
L 141.753448 266.680525 
L 142.078428 268.482172 
L 142.403407 265.327509 
L 142.728387 268.684288 
L 143.053366 267.034539 
L 143.378346 267.417298 
L 143.703325 265.889766 
L 144.028305 260.357919 
L 144.353284 270.746161 
L 144.678264 264.624688 
L 145.003243 270.563326 
L 145.328223 268.107263 
L 145.653202 264.693881 
L 146.303161 271.100125 
L 146.628141 270.808807 
L 146.95312 267.999923 
L 147.2781 272.120883 
L 147.603079 270.428086 
L 147.928059 271.47375 
L 148.253038 273.784146 
L 148.578018 267.434045 
L 148.902998 271.639342 
L 149.227977 278.603606 
L 149.552957 273.471572 
L 149.877936 275.789444 
L 150.202916 272.17866 
L 150.527895 276.249376 
L 151.502834 271.528156 
L 151.827813 276.190809 
L 152.152793 273.520727 
L 152.802752 272.960537 
L 153.127731 266.206053 
L 153.77769 271.920008 
L 154.10267 265.618295 
L 154.427649 261.703929 
L 154.752629 263.446943 
L 155.077609 268.812263 
L 155.402588 265.36506 
L 155.727568 260.199927 
L 156.052547 264.283806 
L 156.377527 260.733606 
L 156.702506 259.292781 
L 157.027486 262.958642 
L 157.352465 260.392089 
L 157.677445 267.917963 
L 158.002424 262.241974 
L 158.327404 260.240634 
L 158.652383 262.706264 
L 158.977363 255.721262 
L 159.302342 263.49017 
L 159.627322 261.357251 
L 159.952301 260.339997 
L 160.277281 257.568746 
L 160.60226 265.18112 
L 160.92724 259.333104 
L 161.577199 265.813927 
L 161.902179 262.854969 
L 162.227158 264.087384 
L 162.552138 266.610446 
L 162.877117 265.464973 
L 163.202097 267.035944 
L 163.852056 265.132971 
L 164.177035 263.068467 
L 164.502015 270.152753 
L 164.826994 261.864971 
L 165.151974 271.86448 
L 165.476953 267.253037 
L 165.801933 265.160235 
L 166.126912 265.558932 
L 166.451892 267.343063 
L 166.776871 265.799221 
L 167.101851 265.912291 
L 167.42683 265.503253 
L 167.75181 261.262612 
L 168.07679 261.751697 
L 168.401769 263.594593 
L 168.726749 258.913873 
L 169.051728 259.62578 
L 169.376708 257.647864 
L 169.701687 257.39743 
L 170.026667 260.331589 
L 170.351646 259.055107 
L 170.676626 255.274516 
L 171.001605 255.119344 
L 171.326585 256.251777 
L 171.651564 255.55849 
L 171.976544 252.418035 
L 172.301523 256.821185 
L 172.626503 253.878158 
L 172.951482 255.658124 
L 173.276462 255.691075 
L 173.601441 252.49574 
L 173.926421 253.269486 
L 174.2514 253.438953 
L 174.57638 252.397378 
L 174.90136 255.758416 
L 175.226339 254.334747 
L 175.551319 256.990664 
L 175.876298 255.62929 
L 176.201278 256.937907 
L 176.526257 256.543544 
L 176.851237 255.451357 
L 177.176216 259.037509 
L 177.501196 251.921225 
L 177.826175 259.579373 
L 178.151155 260.065381 
L 178.476134 254.142557 
L 178.801114 254.928385 
L 179.126093 255.181016 
L 179.451073 254.970679 
L 179.776052 256.315373 
L 180.101032 258.233039 
L 180.426011 255.54519 
L 180.750991 257.0964 
L 181.075971 252.706238 
L 181.40095 255.154322 
L 181.72593 256.511758 
L 182.050909 254.963222 
L 182.375889 252.863077 
L 182.700868 255.003318 
L 183.025848 255.398283 
L 183.350827 252.556337 
L 183.675807 252.370743 
L 184.000786 254.074445 
L 184.325766 253.867138 
L 184.650745 252.044676 
L 184.975725 256.126212 
L 185.300704 255.987745 
L 185.950663 253.015326 
L 186.275643 251.719874 
L 186.600622 248.844282 
L 186.925602 250.353991 
L 187.250581 252.832874 
L 187.575561 252.430511 
L 187.900541 254.769321 
L 188.22552 252.218323 
L 188.5505 252.716226 
L 188.875479 250.992029 
L 189.200459 253.55935 
L 189.850418 247.041463 
L 190.175397 250.65969 
L 190.825356 247.683285 
L 191.150336 249.807757 
L 191.475315 247.665963 
L 191.800295 247.56318 
L 192.125274 246.714339 
L 192.450254 248.21833 
L 193.425192 240.896544 
L 193.750172 241.567209 
L 194.075152 238.135167 
L 194.400131 244.91371 
L 194.725111 240.52146 
L 195.05009 241.953679 
L 195.37507 236.827901 
L 195.700049 244.136149 
L 196.025029 244.224695 
L 196.350008 243.739342 
L 196.674988 247.700231 
L 196.999967 244.051157 
L 197.324947 245.002132 
L 197.649926 243.209853 
L 197.974906 243.252772 
L 198.299885 240.035468 
L 198.624865 242.921949 
L 198.949844 247.313402 
L 199.274824 248.736148 
L 199.599803 245.924828 
L 199.924783 250.979806 
L 200.249762 243.745885 
L 200.574742 245.825609 
L 201.224701 253.639692 
L 201.549681 246.257302 
L 201.87466 249.935957 
L 202.19964 246.526763 
L 202.524619 253.297582 
L 203.174578 248.497633 
L 203.499558 247.753871 
L 203.824537 248.202557 
L 204.149517 244.652059 
L 204.474496 247.799255 
L 204.799476 244.393877 
L 205.774414 238.478248 
L 206.099394 241.658819 
L 206.424373 241.320013 
L 206.749353 233.060535 
L 207.074333 234.112215 
L 207.399312 235.567534 
L 207.724292 228.778978 
L 208.049271 231.313605 
L 208.374251 227.817306 
L 208.69923 229.833389 
L 209.02421 224.354549 
L 209.349189 224.716163 
L 209.674169 229.446447 
L 209.999148 226.407443 
L 210.324128 227.365105 
L 210.649107 225.913433 
L 210.974087 232.170197 
L 211.299066 228.760616 
L 211.624046 228.648024 
L 211.949025 236.526355 
L 212.274005 236.143478 
L 212.598984 239.371547 
L 212.923964 236.180171 
L 213.248943 234.947702 
L 213.573923 234.214039 
L 213.898903 238.909554 
L 214.223882 236.193583 
L 214.548862 244.646497 
L 214.873841 246.367819 
L 215.198821 243.094992 
L 215.5238 242.646427 
L 215.84878 244.135945 
L 216.173759 249.42643 
L 216.498739 244.620801 
L 216.823718 247.482708 
L 217.148698 242.268635 
L 217.473677 242.459959 
L 217.798657 244.920906 
L 218.123636 242.914572 
L 218.448616 243.121979 
L 219.098575 235.408467 
L 219.423554 238.630249 
L 219.748534 233.299466 
L 220.073514 234.128343 
L 220.398493 233.019778 
L 220.723473 229.568632 
L 221.048452 230.124754 
L 221.373432 227.262103 
L 221.698411 227.262696 
L 222.023391 217.990809 
L 222.34837 221.415666 
L 222.67335 222.057905 
L 222.998329 218.816784 
L 223.323309 218.831197 
L 223.648288 218.518251 
L 223.973268 216.094754 
L 224.298247 215.596772 
L 224.623227 218.846386 
L 224.948206 219.243638 
L 225.273186 218.989111 
L 225.598165 224.661461 
L 225.923145 223.564642 
L 226.248124 217.448138 
L 226.573104 217.875331 
L 226.898084 223.754184 
L 227.223063 222.993322 
L 227.548043 224.958848 
L 227.873022 219.450964 
L 228.522981 229.886217 
L 229.17294 235.724431 
L 229.49792 232.166089 
L 230.147879 237.493926 
L 230.472858 235.962698 
L 230.797838 237.216182 
L 231.122817 230.362795 
L 231.772776 233.86604 
L 232.097756 229.555122 
L 232.422735 232.182265 
L 232.747715 233.490148 
L 233.072695 226.446202 
L 233.397674 227.572264 
L 233.722654 230.044695 
L 234.047633 226.454203 
L 234.372613 226.58094 
L 234.697592 226.235299 
L 235.022572 218.940161 
L 235.347551 214.936802 
L 235.672531 221.564687 
L 235.99751 215.273388 
L 236.32249 216.910062 
L 236.647469 215.270235 
L 236.972449 214.430698 
L 237.297428 214.153722 
L 237.622408 211.12071 
L 237.947387 212.678193 
L 238.272367 209.526677 
L 238.922326 210.435809 
L 239.247305 212.162493 
L 239.572285 211.579555 
L 239.897265 208.668639 
L 240.222244 209.795286 
L 240.547224 214.046745 
L 240.872203 212.083134 
L 241.197183 211.231603 
L 241.522162 217.999347 
L 241.847142 213.360275 
L 242.172121 217.147921 
L 242.497101 214.895197 
L 243.14706 222.171444 
L 243.472039 222.328155 
L 243.797019 218.692936 
L 244.121998 218.558351 
L 244.446978 221.697356 
L 244.771957 218.036314 
L 245.096937 223.723559 
L 245.421916 219.676331 
L 245.746896 222.260919 
L 246.396855 218.328122 
L 246.721835 219.994314 
L 247.046814 218.159396 
L 247.371794 213.993131 
L 247.696773 217.100734 
L 248.021753 212.777337 
L 248.346732 216.756419 
L 248.671712 211.785924 
L 248.996691 208.664297 
L 249.321671 217.460621 
L 249.97163 208.349999 
L 250.296609 209.556822 
L 250.621589 207.488893 
L 250.946568 209.312415 
L 251.271548 207.103266 
L 251.596527 207.270683 
L 251.921507 203.652599 
L 252.246486 205.622649 
L 252.571466 205.202544 
L 252.896446 206.895924 
L 253.221425 206.979531 
L 253.546405 206.782381 
L 253.871384 204.712507 
L 254.196364 206.712117 
L 254.521343 204.955924 
L 254.846323 200.545259 
L 255.496282 206.396492 
L 255.821261 202.548158 
L 256.47122 210.239197 
L 256.7962 207.474666 
L 257.121179 209.323289 
L 257.446159 205.244061 
L 257.771138 203.947053 
L 258.096118 199.426022 
L 258.421097 202.279709 
L 258.746077 203.118502 
L 259.071057 200.001266 
L 259.396036 206.95395 
L 259.721016 200.374027 
L 260.045995 198.518563 
L 260.370975 203.553413 
L 260.695954 196.6109 
L 261.345913 199.657941 
L 261.670893 196.772883 
L 261.995872 192.51001 
L 262.320852 197.519687 
L 262.645831 197.301597 
L 262.970811 199.080153 
L 263.29579 200.163937 
L 263.62077 196.22517 
L 263.945749 200.665324 
L 264.270729 198.727825 
L 264.595708 200.489279 
L 264.920688 198.581097 
L 265.245667 199.418494 
L 265.570647 198.173126 
L 265.895627 202.472616 
L 266.220606 202.33786 
L 266.545586 204.498023 
L 266.870565 203.527719 
L 267.195545 201.766418 
L 267.520524 200.994473 
L 267.845504 205.183367 
L 268.170483 200.683611 
L 268.495463 199.262865 
L 268.820442 201.214947 
L 269.145422 197.081028 
L 269.470401 202.935937 
L 270.12036 203.595849 
L 270.44534 194.398513 
L 270.770319 195.225827 
L 271.095299 195.618437 
L 271.420278 193.342387 
L 271.745258 195.29103 
L 272.070238 184.923582 
L 272.395217 189.057009 
L 272.720197 187.536767 
L 273.045176 184.485761 
L 273.695135 182.888082 
L 274.020115 184.139562 
L 274.670074 175.508446 
L 274.995053 176.082035 
L 275.320033 174.924194 
L 275.645012 179.781097 
L 275.969992 180.850395 
L 276.294971 178.834777 
L 276.619951 178.724569 
L 276.94493 176.717338 
L 277.26991 184.347041 
L 277.594889 177.348274 
L 277.919869 182.623677 
L 278.244848 184.543669 
L 278.894808 190.398035 
L 279.219787 185.791508 
L 279.544767 189.158277 
L 279.869746 194.014681 
L 280.194726 195.462035 
L 280.519705 194.434858 
L 280.844685 190.698052 
L 281.494644 200.410216 
L 281.819623 197.935802 
L 282.144603 198.384632 
L 282.469582 204.482943 
L 282.794562 197.812737 
L 283.119541 197.8129 
L 283.7695 190.968634 
L 284.09448 191.484579 
L 284.419459 193.407808 
L 284.744439 193.724476 
L 285.069419 182.696777 
L 285.394398 186.769334 
L 286.044357 182.343069 
L 286.369337 179.36941 
L 287.019296 176.412734 
L 287.344275 173.99904 
L 287.669255 170.49511 
L 287.994234 169.66987 
L 288.319214 168.192373 
L 288.644193 164.500072 
L 288.969173 163.97214 
L 289.294152 158.493237 
L 289.619132 167.894423 
L 289.944111 158.13153 
L 290.269091 157.5333 
L 290.59407 165.819597 
L 290.91905 161.9646 
L 291.244029 162.747861 
L 291.569009 166.296157 
L 291.893989 165.993559 
L 292.218968 168.291261 
L 292.543948 162.901398 
L 292.868927 166.738563 
L 293.193907 167.845887 
L 293.518886 171.205141 
L 293.843866 177.794061 
L 294.168845 178.304101 
L 294.493825 177.734234 
L 294.818804 183.769821 
L 295.143784 180.655707 
L 295.468763 184.46753 
L 295.793743 186.028266 
L 296.118722 184.31745 
L 296.443702 185.654042 
L 296.768681 188.011603 
L 297.093661 184.314581 
L 297.41864 189.564433 
L 297.74362 184.778569 
L 298.0686 183.913902 
L 298.393579 184.912272 
L 298.718559 181.830232 
L 299.043538 183.943228 
L 299.368518 176.571857 
L 299.693497 177.10238 
L 300.018477 175.57403 
L 300.343456 169.221437 
L 300.668436 170.996754 
L 300.993415 170.158603 
L 301.318395 167.968902 
L 301.643374 160.145182 
L 301.968354 162.413504 
L 302.293333 152.693618 
L 302.618313 160.104761 
L 302.943292 148.956561 
L 303.268272 151.035698 
L 303.593251 150.481182 
L 303.918231 150.560953 
L 304.24321 147.50679 
L 304.56819 148.161949 
L 304.89317 145.229772 
L 305.218149 147.845698 
L 305.543129 148.215992 
L 305.868108 150.205707 
L 306.518067 150.682898 
L 306.843047 157.007661 
L 307.168026 157.60485 
L 307.493006 154.040033 
L 308.142965 159.658758 
L 308.792924 161.606761 
L 309.117903 165.29941 
L 309.442883 167.261403 
L 309.767862 166.070553 
L 310.092842 169.987204 
L 310.417821 167.3757 
L 310.742801 173.156924 
L 311.067781 166.752098 
L 311.39276 168.203481 
L 311.71774 168.561883 
L 312.367699 163.989404 
L 312.692678 164.695541 
L 313.017658 170.625333 
L 313.992596 161.656635 
L 314.317576 158.739364 
L 314.642555 160.02726 
L 314.967535 155.958445 
L 315.292514 156.45519 
L 315.617494 154.297889 
L 315.942473 154.510367 
L 316.267453 151.652476 
L 316.592432 151.151115 
L 316.917412 148.796686 
L 317.242391 142.513138 
L 317.567371 146.336833 
L 317.892351 136.562683 
L 318.21733 141.075421 
L 318.54231 141.255724 
L 318.867289 143.426847 
L 319.192269 139.354567 
L 319.517248 142.43435 
L 319.842228 140.795872 
L 320.167207 134.997381 
L 320.492187 141.87325 
L 320.817166 139.219892 
L 321.142146 144.274373 
L 321.467125 143.159098 
L 321.792105 139.261264 
L 322.117084 145.728897 
L 322.442064 140.246754 
L 323.092023 147.025941 
L 323.417002 144.435622 
L 323.741982 143.864866 
L 324.066962 144.900015 
L 324.391941 150.371416 
L 324.716921 148.251202 
L 325.0419 146.920129 
L 325.36688 146.241146 
L 325.691859 144.177453 
L 326.016839 144.83173 
L 326.341818 148.047699 
L 326.666798 143.23866 
L 326.991777 142.043111 
L 327.316757 141.508072 
L 327.641736 139.5466 
L 327.966716 139.478468 
L 328.291695 139.741412 
L 328.616675 140.416108 
L 328.941654 143.75203 
L 329.266634 138.06521 
L 329.591613 138.145054 
L 329.916593 137.590849 
L 330.241572 141.086703 
L 330.566552 140.357284 
L 330.891532 134.92083 
L 331.216511 137.509728 
L 331.541491 135.686306 
L 331.86647 137.301435 
L 332.19145 137.339447 
L 332.516429 135.163153 
L 332.841409 138.819807 
L 333.166388 137.369949 
L 333.491368 138.778217 
L 333.816347 138.695098 
L 334.141327 138.308521 
L 334.466306 136.842064 
L 334.791286 138.321103 
L 335.116265 133.689721 
L 335.441245 138.523583 
L 335.766224 136.188713 
L 336.091204 136.098409 
L 336.416183 130.608244 
L 336.741163 132.733927 
L 337.066143 129.603986 
L 337.391122 134.640133 
L 337.716102 129.060092 
L 338.041081 126.197579 
L 338.366061 126.81267 
L 338.69104 122.986947 
L 339.01602 125.487937 
L 339.340999 119.360484 
L 339.665979 115.842547 
L 339.990958 121.160661 
L 340.315938 120.224048 
L 340.640917 114.530842 
L 340.965897 113.361309 
L 341.290876 117.859672 
L 341.940835 116.473104 
L 342.265815 119.008936 
L 342.590794 118.088846 
L 342.915774 118.643123 
L 343.240753 118.611445 
L 343.565733 117.551449 
L 343.890713 117.816867 
L 344.215692 115.659545 
L 344.540672 123.168161 
L 344.865651 119.608266 
L 345.190631 123.965651 
L 345.51561 125.00041 
L 345.84059 124.655523 
L 346.165569 130.491288 
L 346.490549 128.106083 
L 346.815528 129.849491 
L 347.140508 130.103897 
L 347.465487 131.475931 
L 347.790467 126.785828 
L 348.115446 134.816917 
L 348.440426 134.686841 
L 348.765405 134.758188 
L 349.415364 133.570964 
L 349.740344 127.994661 
L 350.065324 126.050506 
L 350.390303 129.30002 
L 350.715283 128.016851 
L 351.040262 122.632028 
L 351.365242 122.776484 
L 351.690221 117.301239 
L 352.015201 115.677089 
L 352.34018 117.143851 
L 352.66516 106.779785 
L 352.990139 103.367291 
L 353.315119 106.567358 
L 354.615037 94.050345 
L 354.940016 88.985081 
L 355.264996 92.96444 
L 355.589975 93.427578 
L 355.914955 94.156025 
L 356.564914 90.564753 
L 356.889894 86.49243 
L 357.214873 92.997009 
L 357.539853 92.321585 
L 357.864832 94.390383 
L 358.514791 91.903634 
L 358.839771 101.667543 
L 359.16475 103.944822 
L 359.48973 102.64458 
L 359.814709 106.064972 
L 360.139689 105.707395 
L 360.789648 115.907537 
L 361.114627 115.698066 
L 361.439607 116.318426 
L 362.089566 120.706595 
L 362.414545 120.256426 
L 362.739525 120.543096 
L 363.064505 120.147431 
L 363.714464 122.952578 
L 364.039443 121.034687 
L 364.364423 116.867797 
L 364.689402 119.915978 
L 365.014382 114.692701 
L 365.339361 113.950875 
L 365.664341 110.011738 
L 365.98932 103.80385 
L 366.3143 103.185324 
L 366.639279 100.126608 
L 366.964259 100.123799 
L 367.289238 91.466292 
L 367.614218 88.318903 
L 367.939197 81.30883 
L 368.264177 84.320949 
L 368.589156 80.180531 
L 368.914136 77.554097 
L 369.239115 72.059635 
L 369.564095 74.333523 
L 370.214054 70.110443 
L 370.539034 70.543855 
L 370.864013 71.9328 
L 371.513972 69.109467 
L 371.838952 75.348387 
L 372.163931 73.909753 
L 372.488911 77.707242 
L 372.81389 75.055596 
L 373.13887 84.009005 
L 373.463849 84.056585 
L 373.788829 84.291102 
L 374.113808 83.962007 
L 374.438788 90.583831 
L 374.763767 94.328438 
L 375.088747 90.73871 
L 375.413726 101.191499 
L 375.738706 105.060461 
L 376.063686 100.29912 
L 376.388665 104.055954 
L 376.713645 106.424709 
L 377.038624 102.877008 
L 378.013563 107.565575 
L 378.338542 101.390803 
L 378.663522 100.692992 
L 378.988501 100.937648 
L 379.313481 94.208166 
L 379.63846 99.176791 
L 379.96344 97.82489 
L 380.938378 85.004861 
L 381.263358 83.207406 
L 381.588337 78.754026 
L 381.913317 79.772283 
L 382.238296 70.294513 
L 382.563276 71.377694 
L 382.888256 65.935413 
L 383.213235 65.594144 
L 383.863194 61.355878 
L 384.188174 60.275864 
L 384.513153 58.73875 
L 384.838133 56.320229 
L 385.163112 58.716202 
L 385.488092 57.375922 
L 385.813071 59.57438 
L 386.138051 56.314983 
L 386.46303 62.304661 
L 386.78801 57.19235 
L 387.437969 67.68704 
L 387.762948 65.29243 
L 388.087928 68.80578 
L 388.412907 66.597667 
L 388.737887 71.808591 
L 389.062867 72.772502 
L 389.387846 77.711287 
L 389.712826 75.419057 
L 390.037805 81.374404 
L 390.362785 80.212657 
L 390.687764 75.136386 
L 391.012744 75.557882 
L 391.337723 76.70009 
L 391.662703 80.15254 
L 391.987682 77.670995 
L 392.312662 77.12049 
L 392.637641 79.310874 
L 392.962621 71.890862 
L 393.2876 72.399243 
L 393.61258 73.916904 
L 394.262539 70.118206 
L 394.587518 74.175392 
L 394.912498 68.217678 
L 395.237477 67.745798 
L 395.562457 67.006814 
L 395.887437 63.746434 
L 396.212416 57.204388 
L 396.862375 60.497967 
L 397.512334 53.568 
L 397.837314 53.903617 
L 398.487273 56.51593 
L 398.487273 56.51593 
" clip-path="url(#p0f834e2270)" style="fill: none; stroke: #1f77b4; stroke-width: 1.5; stroke-linecap: square"/>
   </g>
   <g id="line2d_14">
    <path d="M 78.70742 289.567032 
L 79.0324 289.922912 
L 79.357379 283.623997 
L 80.007338 287.688686 
L 80.657297 289.521646 
L 80.982277 289.542172 
L 81.307256 292.840135 
L 81.632236 291.070875 
L 81.957215 293.287808 
L 82.282195 290.41474 
L 82.607174 289.232819 
L 82.932154 286.024782 
L 83.257133 290.305532 
L 83.582113 290.142557 
L 83.907093 286.18365 
L 84.232072 291.042191 
L 84.557052 289.875717 
L 84.882031 295.488 
L 86.181949 287.119754 
L 86.506929 286.741293 
L 86.831908 286.698457 
L 87.156888 287.711571 
L 87.481867 287.904125 
L 87.806847 292.348199 
L 88.131826 287.872869 
L 88.456806 287.610197 
L 88.781785 289.553536 
L 89.106765 286.175601 
L 89.431744 289.04157 
L 89.756724 288.901723 
L 90.731663 284.397914 
L 91.056642 286.760912 
L 91.381622 287.135019 
L 91.706601 286.790606 
L 92.031581 287.825214 
L 92.35656 289.37659 
L 92.68154 286.775137 
L 93.006519 290.305219 
L 93.331499 290.894761 
L 93.656478 287.081354 
L 93.981458 286.771903 
L 94.306437 286.942809 
L 94.631417 283.493142 
L 94.956396 281.82733 
L 95.606355 287.237107 
L 95.931335 286.128931 
L 96.256314 287.024556 
L 96.581294 285.189982 
L 96.906274 291.198541 
L 97.231253 286.637521 
L 97.556233 289.843599 
L 97.881212 290.63949 
L 98.206192 287.324586 
L 98.531171 291.809624 
L 99.18113 285.612024 
L 99.50611 284.232438 
L 99.831089 287.3225 
L 100.156069 285.891007 
L 100.481048 285.221469 
L 100.806028 282.137967 
L 101.455987 289.154545 
L 101.780966 284.40166 
L 102.105946 286.154277 
L 102.430925 282.354787 
L 102.755905 287.355883 
L 103.080885 288.765643 
L 103.405864 287.414207 
L 103.730844 288.747526 
L 104.055823 286.727134 
L 104.380803 288.085452 
L 104.705782 287.067862 
L 105.030762 284.382987 
L 105.680721 286.225294 
L 106.0057 285.952032 
L 106.33068 287.406894 
L 106.655659 285.057525 
L 106.980639 283.780309 
L 107.305618 281.472218 
L 107.630598 280.829799 
L 108.280557 283.178052 
L 108.605536 287.235517 
L 109.255495 287.851357 
L 109.580475 283.927377 
L 109.905455 286.043263 
L 110.230434 282.827366 
L 110.555414 282.510468 
L 110.880393 285.396125 
L 111.205373 284.011163 
L 111.530352 284.455448 
L 111.855332 282.574437 
L 112.180311 285.67494 
L 112.505291 280.608164 
L 112.83027 285.276312 
L 113.15525 284.345449 
L 113.480229 281.789756 
L 113.805209 283.67663 
L 114.130188 282.464141 
L 114.455168 284.437247 
L 114.780147 283.301688 
L 115.105127 287.742798 
L 115.755086 286.138099 
L 116.080066 281.482551 
L 116.405045 284.97977 
L 116.730025 279.14916 
L 117.055004 280.582531 
L 117.379984 284.00686 
L 117.704963 279.059264 
L 118.029943 283.188181 
L 118.354922 283.826777 
L 118.679902 282.947339 
L 119.004881 285.148332 
L 119.329861 284.012976 
L 119.65484 285.05707 
L 119.97982 282.838186 
L 120.304799 284.309831 
L 120.629779 288.021453 
L 120.954758 283.976507 
L 121.279738 281.897015 
L 121.604717 285.479608 
L 121.929697 281.910096 
L 122.579656 282.541904 
L 122.904636 280.416579 
L 123.229615 283.403151 
L 123.554595 280.53068 
L 123.879574 281.455651 
L 124.204554 281.925405 
L 124.529533 278.728729 
L 124.854513 285.540926 
L 125.504472 278.820116 
L 125.829451 282.826235 
L 126.154431 278.044886 
L 126.47941 278.537682 
L 126.80439 278.066464 
L 127.129369 274.481384 
L 127.454349 279.946669 
L 127.779328 280.123276 
L 128.104308 279.829846 
L 128.429287 283.743757 
L 128.754267 281.7356 
L 129.079247 282.356826 
L 129.404226 281.094477 
L 129.729206 274.182528 
L 130.054185 276.409274 
L 130.379165 273.897084 
L 130.704144 276.108796 
L 131.029124 274.265319 
L 131.354103 275.019629 
L 132.004062 283.133165 
L 132.329042 282.285316 
L 132.654021 284.592684 
L 133.30398 282.113781 
L 133.62896 281.474275 
L 133.953939 279.980674 
L 134.278919 283.790001 
L 134.603898 282.905209 
L 134.928878 282.364988 
L 135.253857 282.438686 
L 135.578837 280.363099 
L 135.903817 279.412268 
L 136.228796 279.795459 
L 136.553776 280.753833 
L 136.878755 279.884018 
L 137.528714 281.220317 
L 137.853694 279.343156 
L 138.178673 278.164016 
L 138.828632 277.043727 
L 139.153612 278.946093 
L 139.478591 277.780906 
L 139.803571 277.736264 
L 140.12855 278.885879 
L 140.45353 276.846828 
L 140.778509 270.538891 
L 141.103489 272.0291 
L 141.428468 268.571853 
L 142.728387 277.1654 
L 143.053366 278.060509 
L 143.378346 277.968178 
L 143.703325 279.350842 
L 144.028305 276.488991 
L 144.353284 270.318104 
L 144.678264 277.195378 
L 145.003243 270.752328 
L 145.328223 273.738315 
L 145.653202 275.555016 
L 145.978182 273.585689 
L 146.303161 276.096579 
L 146.628141 276.903356 
L 146.95312 277.034186 
L 147.2781 274.299603 
L 147.603079 276.837419 
L 147.928059 277.596263 
L 148.253038 279.599174 
L 148.578018 275.94683 
L 148.902998 274.02485 
L 149.552957 279.344388 
L 149.877936 280.522454 
L 150.202916 280.418635 
L 150.527895 277.502296 
L 150.852875 281.258213 
L 151.177854 281.445868 
L 151.502834 276.092273 
L 151.827813 273.774306 
L 152.152793 277.589723 
L 152.477772 276.693313 
L 152.802752 277.449375 
L 153.127731 276.603678 
L 153.452711 270.616027 
L 153.77769 273.796821 
L 154.10267 275.315259 
L 154.752629 266.549411 
L 155.077609 267.085398 
L 155.402588 274.780866 
L 155.727568 273.217532 
L 156.052547 268.060687 
L 156.377527 273.039169 
L 156.702506 273.737732 
L 157.027486 270.986179 
L 157.352465 272.5735 
L 157.677445 268.951721 
L 158.002424 273.815712 
L 158.327404 275.011077 
L 158.652383 275.152535 
L 158.977363 273.731988 
L 159.302342 264.760901 
L 159.627322 270.677373 
L 159.952301 270.414513 
L 160.277281 265.162197 
L 160.60226 264.746085 
L 160.92724 272.313658 
L 161.252219 268.803735 
L 161.577199 271.227477 
L 162.227158 272.875276 
L 162.552138 276.67695 
L 162.877117 274.675701 
L 163.202097 276.312815 
L 163.527076 273.682421 
L 163.852056 272.416322 
L 164.177035 275.028976 
L 164.502015 271.127306 
L 164.826994 271.590013 
L 165.151974 268.885521 
L 165.476953 275.704454 
L 165.801933 271.833304 
L 166.451892 273.564894 
L 167.75181 271.054631 
L 168.07679 268.584689 
L 168.401769 269.729731 
L 169.051728 266.529464 
L 169.701687 264.812344 
L 170.026667 267.666043 
L 170.351646 267.957769 
L 170.676626 268.063073 
L 171.001605 267.217451 
L 171.326585 267.775099 
L 171.651564 267.756804 
L 171.976544 267.858039 
L 172.301523 264.281227 
L 172.626503 265.242844 
L 172.951482 265.804916 
L 173.276462 267.523477 
L 173.601441 267.123884 
L 173.926421 265.081583 
L 174.2514 265.084239 
L 174.90136 263.915742 
L 175.226339 265.001157 
L 175.551319 263.510815 
L 175.876298 266.767105 
L 176.201278 268.777548 
L 176.526257 268.261045 
L 176.851237 268.180995 
L 177.176216 267.560713 
L 177.501196 268.511348 
L 177.826175 264.179585 
L 178.151155 266.746359 
L 178.476134 267.185568 
L 178.801114 264.625196 
L 179.451073 263.959434 
L 179.776052 263.698267 
L 180.101032 263.814104 
L 180.426011 265.684018 
L 180.750991 265.373816 
L 181.075971 268.179358 
L 181.40095 264.575649 
L 181.72593 267.317453 
L 182.050909 266.050259 
L 182.375889 262.845207 
L 182.700868 265.495333 
L 183.025848 265.535446 
L 183.350827 265.203037 
L 183.675807 263.990788 
L 184.000786 263.221251 
L 184.325766 263.662835 
L 184.650745 264.824241 
L 184.975725 263.478889 
L 185.300704 266.656218 
L 185.625684 266.884801 
L 185.950663 266.105463 
L 186.275643 266.546888 
L 186.600622 264.131676 
L 186.925602 260.833639 
L 187.250581 259.018772 
L 187.575561 260.410018 
L 187.900541 261.114611 
L 188.22552 263.236993 
L 188.5505 264.243824 
L 188.875479 267.504945 
L 189.200459 265.137198 
L 189.525438 265.191002 
L 189.850418 263.355741 
L 190.175397 259.125039 
L 190.500377 260.003944 
L 191.150336 258.046393 
L 191.475315 258.327357 
L 191.800295 259.331439 
L 192.125274 260.961244 
L 192.450254 260.457162 
L 192.775233 261.00935 
L 193.100213 260.054254 
L 193.750172 254.51641 
L 194.075152 255.484487 
L 194.400131 250.166132 
L 194.725111 253.96301 
L 195.05009 254.561254 
L 195.37507 256.151902 
L 195.700049 254.659785 
L 196.025029 259.688342 
L 196.350008 261.615911 
L 196.674988 260.463993 
L 196.999967 263.865842 
L 197.324947 263.52796 
L 197.649926 263.812916 
L 197.974906 259.559126 
L 198.299885 257.952095 
L 198.624865 251.933461 
L 198.949844 251.560178 
L 199.274824 256.100202 
L 199.599803 259.029653 
L 199.924783 258.097001 
L 200.249762 262.425885 
L 200.574742 262.852288 
L 200.899722 260.654503 
L 201.224701 261.864884 
L 201.549681 263.844502 
L 201.87466 260.086075 
L 202.19964 261.18661 
L 202.524619 260.302402 
L 202.849599 263.932092 
L 203.174578 259.857531 
L 203.499558 258.989529 
L 203.824537 261.4444 
L 204.474496 256.845741 
L 204.799476 258.298769 
L 205.124455 252.852804 
L 205.449435 251.93875 
L 205.774414 254.016882 
L 206.099394 251.717574 
L 206.424373 252.572376 
L 206.749353 252.538551 
L 207.074333 249.58967 
L 207.399312 251.643664 
L 207.724292 250.817719 
L 208.049271 247.497291 
L 208.374251 248.041282 
L 208.69923 244.077214 
L 209.02421 247.419911 
L 209.674169 243.705755 
L 209.999148 248.867406 
L 210.324128 246.879304 
L 210.649107 248.280814 
L 210.974087 250.333844 
L 211.299066 253.968079 
L 211.624046 251.289285 
L 211.949025 251.984274 
L 212.274005 255.918708 
L 212.598984 256.375022 
L 212.923964 258.475316 
L 213.573923 256.022999 
L 213.898903 249.920295 
L 214.223882 251.308431 
L 214.548862 248.203712 
L 215.198821 254.880974 
L 215.84878 260.498052 
L 216.173759 257.373122 
L 216.498739 261.564664 
L 216.823718 258.428362 
L 217.148698 258.56953 
L 217.473677 255.867477 
L 218.448616 252.40855 
L 218.773595 252.675612 
L 219.098575 250.000943 
L 219.423554 250.561501 
L 219.748534 252.176936 
L 220.073514 247.624857 
L 220.398493 244.97589 
L 220.723473 247.012998 
L 221.048452 246.46416 
L 221.373432 247.543336 
L 221.698411 246.693981 
L 222.023391 245.506377 
L 222.34837 240.472881 
L 222.67335 240.70128 
L 222.998329 241.522317 
L 223.648288 238.725467 
L 223.973268 241.077748 
L 224.298247 241.881179 
L 224.623227 239.712277 
L 224.948206 242.587375 
L 225.598165 243.870533 
L 225.923145 247.961036 
L 226.248124 250.529069 
L 226.898084 240.89132 
L 227.223063 244.480387 
L 227.873022 241.360082 
L 228.198002 238.434874 
L 228.522981 244.069158 
L 229.17294 249.769421 
L 229.49792 254.959558 
L 229.822899 252.915281 
L 230.472858 259.632527 
L 230.797838 255.242812 
L 231.447797 244.136573 
L 231.772776 245.064021 
L 232.097756 245.109191 
L 232.422735 239.209408 
L 232.747715 240.0141 
L 233.072695 244.281206 
L 233.397674 242.221589 
L 233.722654 245.798379 
L 234.047633 246.131196 
L 234.372613 243.476463 
L 234.697592 246.384133 
L 235.022572 245.872398 
L 235.347551 242.356305 
L 235.672531 237.439675 
L 235.99751 237.984801 
L 236.647469 236.255541 
L 236.972449 234.282289 
L 237.297428 239.082675 
L 237.622408 240.356659 
L 237.947387 235.816724 
L 238.272367 237.831115 
L 238.597346 235.236103 
L 238.922326 234.21789 
L 239.572285 237.532125 
L 239.897265 234.736531 
L 240.222244 234.159558 
L 240.547224 236.935726 
L 240.872203 238.41968 
L 241.197183 236.763334 
L 241.522162 235.886693 
L 241.847142 241.886623 
L 242.172121 238.30117 
L 242.497101 240.994839 
L 242.82208 239.525919 
L 243.14706 240.082812 
L 243.472039 243.012295 
L 243.797019 243.684818 
L 244.121998 242.482346 
L 244.446978 240.023247 
L 244.771957 239.880814 
L 245.096937 237.721252 
L 245.421916 240.100886 
L 245.746896 234.856866 
L 246.071876 239.900238 
L 246.396855 240.512172 
L 246.721835 238.255275 
L 247.046814 239.520192 
L 247.371794 235.962074 
L 247.696773 234.638406 
L 248.021753 236.743434 
L 248.346732 233.845201 
L 248.671712 234.878858 
L 248.996691 233.770631 
L 249.321671 231.583104 
L 249.64665 238.973915 
L 250.296609 234.623639 
L 250.621589 236.458716 
L 250.946568 232.743958 
L 251.271548 234.309108 
L 251.921507 230.030047 
L 252.246486 229.897685 
L 252.571466 230.226752 
L 252.896446 230.370692 
L 253.221425 233.25273 
L 253.546405 229.871479 
L 254.196364 235.249523 
L 254.846323 231.888535 
L 255.171302 226.822176 
L 255.496282 227.593747 
L 255.821261 229.089084 
L 256.146241 226.963938 
L 257.121179 235.068658 
L 257.446159 237.865954 
L 257.771138 233.832801 
L 258.096118 231.756539 
L 258.421097 226.260249 
L 258.746077 223.212804 
L 259.071057 223.821772 
L 259.396036 220.156142 
L 259.721016 225.202486 
L 260.045995 227.206962 
L 260.370975 227.43336 
L 260.695954 229.140633 
L 261.020934 226.170906 
L 261.345913 226.348717 
L 261.670893 226.039031 
L 262.320852 222.050089 
L 262.645831 223.199267 
L 262.970811 222.863866 
L 263.29579 228.30506 
L 263.945749 227.672235 
L 264.270729 233.905713 
L 264.595708 228.772969 
L 264.920688 229.920068 
L 265.570647 225.094334 
L 265.895627 225.420417 
L 266.220606 228.026073 
L 266.545586 226.985441 
L 267.195545 229.76677 
L 267.520524 229.813035 
L 267.845504 229.588462 
L 268.170483 228.422416 
L 268.820442 223.517997 
L 269.145422 223.623646 
L 269.470401 221.952175 
L 269.795381 225.104554 
L 270.12036 225.981491 
L 270.44534 229.064481 
L 270.770319 225.626041 
L 271.095299 224.239798 
L 271.420278 224.015786 
L 271.745258 220.015929 
L 272.070238 218.25608 
L 272.395217 212.062979 
L 272.720197 216.448871 
L 273.045176 214.793186 
L 274.020115 212.257553 
L 274.345094 216.145894 
L 274.670074 216.473915 
L 275.320033 208.925437 
L 275.645012 209.391307 
L 275.969992 211.775463 
L 276.294971 215.418652 
L 276.619951 214.905421 
L 277.26991 218.049376 
L 277.594889 221.192798 
L 277.919869 215.230361 
L 278.244848 214.833323 
L 278.569828 217.38448 
L 278.894808 221.621511 
L 279.219787 223.121745 
L 279.544767 218.977904 
L 279.869746 220.721228 
L 280.519705 225.604945 
L 280.844685 223.692123 
L 281.169664 219.631467 
L 281.494644 221.030752 
L 281.819623 225.87046 
L 282.144603 223.978818 
L 282.469582 221.145503 
L 282.794562 227.548319 
L 283.119541 225.981861 
L 283.444521 226.937342 
L 284.09448 213.705389 
L 284.419459 213.384605 
L 284.744439 214.086549 
L 285.069419 216.940494 
L 285.394398 209.678493 
L 285.719378 211.395102 
L 286.044357 215.597741 
L 286.369337 215.173617 
L 286.694316 208.892758 
L 287.019296 209.386812 
L 287.344275 211.597035 
L 288.969173 201.308728 
L 289.294152 204.440548 
L 289.619132 198.211907 
L 289.944111 201.013087 
L 290.269091 199.756616 
L 290.59407 199.890268 
L 290.91905 204.189237 
L 291.244029 202.5101 
L 291.569009 206.524695 
L 291.893989 208.7675 
L 292.218968 208.75012 
L 292.543948 210.820551 
L 292.868927 206.3306 
L 293.193907 205.556841 
L 293.518886 206.587512 
L 293.843866 204.127339 
L 294.493825 214.902299 
L 294.818804 212.750966 
L 295.143784 219.662915 
L 296.118722 217.014663 
L 296.443702 213.493469 
L 296.768681 215.430565 
L 297.093661 214.184004 
L 297.41864 210.163575 
L 297.74362 215.019626 
L 298.0686 210.24142 
L 298.393579 210.841342 
L 298.718559 213.896528 
L 299.043538 208.450502 
L 299.368518 211.198529 
L 299.693497 206.94519 
L 300.018477 205.589043 
L 300.343456 206.537478 
L 300.668436 201.150976 
L 301.318395 203.050536 
L 301.643374 201.587799 
L 301.968354 199.277189 
L 302.293333 200.680182 
L 302.618313 192.903773 
L 302.943292 198.061275 
L 303.268272 189.054048 
L 303.918231 192.184119 
L 304.24321 191.046033 
L 304.56819 194.538598 
L 305.218149 191.640595 
L 305.543129 194.882661 
L 305.868108 195.90169 
L 306.193088 195.501315 
L 306.518067 197.435691 
L 306.843047 195.966739 
L 307.168026 202.419312 
L 307.493006 204.006452 
L 307.817985 198.578604 
L 308.142965 200.832388 
L 308.467944 200.33014 
L 308.792924 200.776042 
L 309.117903 199.024955 
L 309.442883 199.302023 
L 309.767862 202.300016 
L 310.092842 203.088838 
L 310.417821 205.013188 
L 310.742801 204.200864 
L 311.067781 205.155583 
L 311.39276 201.463804 
L 311.71774 203.487504 
L 312.367699 196.891138 
L 312.692678 195.977023 
L 313.017658 196.2445 
L 313.342637 200.628692 
L 313.667617 200.968537 
L 313.992596 202.813838 
L 314.967535 197.686595 
L 315.292514 193.26527 
L 315.617494 192.323749 
L 315.942473 190.358935 
L 316.267453 193.284756 
L 316.917412 192.822081 
L 317.567371 187.201966 
L 317.892351 189.737582 
L 318.21733 181.798412 
L 318.54231 182.598762 
L 318.867289 181.818477 
L 319.192269 185.784862 
L 319.517248 186.692315 
L 319.842228 189.592031 
L 320.167207 191.089992 
L 320.492187 187.53271 
L 320.817166 189.725315 
L 321.142146 185.951773 
L 321.467125 189.801172 
L 321.792105 187.561123 
L 322.117084 187.583608 
L 322.442064 191.853128 
L 322.767043 185.572007 
L 323.092023 187.102341 
L 323.417002 189.257371 
L 323.741982 187.35851 
L 324.066962 186.288893 
L 324.391941 188.521327 
L 324.716921 189.964544 
L 325.0419 189.75559 
L 325.36688 188.750386 
L 325.691859 188.639969 
L 326.016839 188.790871 
L 326.341818 184.770453 
L 326.666798 187.074801 
L 327.316757 180.891516 
L 327.641736 183.456457 
L 327.966716 182.869376 
L 328.616675 180.024779 
L 328.941654 182.894716 
L 329.266634 188.817034 
L 329.591613 185.878347 
L 329.916593 186.711561 
L 330.241572 186.680918 
L 330.566552 186.153043 
L 330.891532 187.193771 
L 331.216511 183.589562 
L 331.541491 182.537669 
L 331.86647 181.947128 
L 332.19145 182.631546 
L 332.516429 181.573106 
L 332.841409 179.087593 
L 333.491368 184.915136 
L 333.816347 185.939154 
L 334.141327 184.52427 
L 334.466306 184.141496 
L 334.791286 183.092584 
L 335.116265 185.391675 
L 335.441245 179.948934 
L 335.766224 180.596863 
L 336.091204 179.724562 
L 336.416183 179.712721 
L 337.391122 174.311113 
L 337.716102 177.941288 
L 338.041081 174.842661 
L 338.366061 173.189433 
L 338.69104 174.189932 
L 339.01602 171.049116 
L 339.340999 173.907479 
L 339.665979 167.839117 
L 339.990958 164.414376 
L 340.315938 169.469634 
L 340.640917 170.461081 
L 341.290876 166.053924 
L 341.940835 171.922862 
L 342.265815 172.929031 
L 342.590794 172.15786 
L 342.915774 174.323072 
L 343.565733 174.975997 
L 343.890713 173.677803 
L 344.215692 168.455521 
L 344.540672 166.099767 
L 344.865651 172.646904 
L 345.190631 170.467226 
L 345.51561 170.574703 
L 346.165569 177.025361 
L 346.490549 181.11483 
L 346.815528 178.550525 
L 347.140508 180.152178 
L 347.465487 179.476127 
L 347.790467 179.20826 
L 348.115446 175.442882 
L 348.440426 177.992824 
L 348.765405 176.04713 
L 349.090385 179.26951 
L 349.415364 180.939204 
L 350.065324 176.264256 
L 350.390303 170.930159 
L 350.715283 171.24472 
L 351.040262 169.385369 
L 351.365242 165.471895 
L 351.690221 166.519766 
L 352.015201 165.717953 
L 352.34018 163.544048 
L 352.66516 163.39078 
L 352.990139 158.21297 
L 353.315119 155.45375 
L 353.640098 157.176514 
L 354.290057 155.80322 
L 354.615037 152.060158 
L 355.264996 153.041628 
L 355.589975 152.660481 
L 355.914955 153.143873 
L 356.239934 156.491962 
L 356.564914 155.749044 
L 356.889894 158.150829 
L 357.539853 154.730487 
L 357.864832 153.492726 
L 358.189812 155.744017 
L 358.514791 155.362012 
L 358.839771 153.090518 
L 359.16475 160.522035 
L 359.48973 162.57981 
L 359.814709 161.426786 
L 360.139689 164.534997 
L 360.464668 165.612707 
L 360.789648 168.702681 
L 361.114627 170.422962 
L 361.439607 167.974489 
L 361.764586 167.791238 
L 362.414545 171.095959 
L 362.739525 170.823253 
L 363.064505 165.241478 
L 363.389484 164.536841 
L 363.714464 168.38209 
L 364.364423 165.96528 
L 364.689402 163.255839 
L 365.014382 164.6586 
L 365.664341 161.87809 
L 366.3143 152.685226 
L 366.639279 152.845756 
L 366.964259 151.041876 
L 367.289238 150.24133 
L 367.614218 145.370219 
L 367.939197 144.897974 
L 368.264177 141.922713 
L 368.589156 143.646394 
L 368.914136 139.667298 
L 369.564095 138.550907 
L 370.214054 142.345587 
L 370.539034 139.67066 
L 370.864013 140.257483 
L 371.513972 143.896192 
L 371.838952 142.445913 
L 372.163931 145.136381 
L 372.488911 143.842779 
L 372.81389 146.375224 
L 373.13887 145.487465 
L 373.463849 150.23457 
L 373.788829 150.37567 
L 374.113808 149.095866 
L 374.438788 149.680225 
L 375.088747 152.335427 
L 375.413726 149.867836 
L 375.738706 156.962647 
L 376.063686 159.341744 
L 376.388665 158.74538 
L 376.713645 160.800819 
L 377.038624 161.246479 
L 377.363604 156.985172 
L 377.688583 154.550353 
L 378.013563 155.393323 
L 378.338542 155.693134 
L 378.663522 151.081627 
L 378.988501 148.997413 
L 379.313481 152.481541 
L 379.63846 145.523004 
L 379.96344 146.279699 
L 380.288419 150.247521 
L 380.613399 148.585512 
L 380.938378 145.511527 
L 381.263358 144.799156 
L 381.588337 143.697933 
L 381.913317 137.583595 
L 382.238296 136.847155 
L 382.563276 134.273197 
L 382.888256 134.857795 
L 383.213235 129.440585 
L 383.538215 132.623847 
L 383.863194 130.5938 
L 384.188174 127.528112 
L 384.513153 131.989601 
L 384.838133 132.439824 
L 385.163112 130.268892 
L 385.488092 130.767552 
L 385.813071 131.774778 
L 386.138051 132.402216 
L 386.46303 131.384784 
L 386.78801 135.442933 
L 387.112989 132.65488 
L 387.437969 134.481574 
L 387.762948 137.473311 
L 388.087928 137.566691 
L 388.412907 138.305115 
L 388.737887 136.675711 
L 389.062867 140.273455 
L 389.387846 138.406545 
L 389.712826 139.53385 
L 390.037805 139.123785 
L 390.362785 143.596284 
L 390.687764 142.457735 
L 391.662703 132.16235 
L 391.987682 135.945092 
L 392.312662 134.206828 
L 392.637641 134.485338 
L 392.962621 137.44106 
L 393.2876 135.010536 
L 393.61258 135.148166 
L 393.937559 134.929363 
L 394.262539 133.283507 
L 394.587518 132.730776 
L 394.912498 138.025007 
L 395.237477 135.58324 
L 395.562457 135.218213 
L 395.887437 132.943655 
L 396.212416 132.225527 
L 396.862375 123.346892 
L 397.187355 125.896778 
L 397.512334 124.125605 
L 397.837314 120.489754 
L 398.162293 122.556007 
L 398.487273 126.225198 
L 398.487273 126.225198 
" clip-path="url(#p0f834e2270)" style="fill: none; stroke: #ff7f0e; stroke-width: 1.5; stroke-linecap: square"/>
   </g>
   <g id="line2d_15">
    <path d="M 268.820442 307.584 
L 268.820442 41.472 
" clip-path="url(#p0f834e2270)" style="fill: none; stroke-dasharray: 5.55,2.4; stroke-dashoffset: 0; stroke: #ff0000; stroke-width: 1.5"/>
   </g>
   <g id="patch_3">
    <path d="M 57.6 307.584 
L 57.6 41.472 
" style="fill: none; stroke: #000000; stroke-width: 0.8; stroke-linejoin: miter; stroke-linecap: square"/>
   </g>
   <g id="patch_4">
    <path d="M 414.72 307.584 
L 414.72 41.472 
" style="fill: none; stroke: #000000; stroke-width: 0.8; stroke-linejoin: miter; stroke-linecap: square"/>
   </g>
   <g id="patch_5">
    <path d="M 57.6 307.584 
L 414.72 307.584 
" style="fill: none; stroke: #000000; stroke-width: 0.8; stroke-linejoin: miter; stroke-linecap: square"/>
   </g>
   <g id="patch_6">
    <path d="M 57.6 41.472 
L 414.72 41.472 
" style="fill: none; stroke: #000000; stroke-width: 0.8; stroke-linejoin: miter; stroke-linecap: square"/>
   </g>
   <g id="text_13">
    <!--  -->
    <g style="fill: #ff0000" transform="translate(203.824537 181.312197) scale(0.1 -0.1)"/>
    <!-- MSE: 8.49 -->
    <g style="fill: #ff0000" transform="translate(203.824537 192.51001) scale(0.1 -0.1)">
     <defs>
      <path id="DejaVuSans-4d" d="M 628 4666 
L 1569 4666 
L 2759 1491 
L 3956 4666 
L 4897 4666 
L 4897 0 
L 4281 0 
L 4281 4097 
L 3078 897 
L 2444 897 
L 1241 4097 
L 1241 0 
L 628 0 
L 628 4666 
z
" transform="scale(0.015625)"/>
      <path id="DejaVuSans-53" d="M 3425 4513 
L 3425 3897 
Q 3066 4069 2747 4153 
Q 2428 4238 2131 4238 
Q 1616 4238 1336 4038 
Q 1056 3838 1056 3469 
Q 1056 3159 1242 3001 
Q 1428 2844 1947 2747 
L 2328 2669 
Q 3034 2534 3370 2195 
Q 3706 1856 3706 1288 
Q 3706 609 3251 259 
Q 2797 -91 1919 -91 
Q 1588 -91 1214 -16 
Q 841 59 441 206 
L 441 856 
Q 825 641 1194 531 
Q 1563 422 1919 422 
Q 2459 422 2753 634 
Q 3047 847 3047 1241 
Q 3047 1584 2836 1778 
Q 2625 1972 2144 2069 
L 1759 2144 
Q 1053 2284 737 2584 
Q 422 2884 422 3419 
Q 422 4038 858 4394 
Q 1294 4750 2059 4750 
Q 2388 4750 2728 4690 
Q 3069 4631 3425 4513 
z
" transform="scale(0.015625)"/>
      <path id="DejaVuSans-45" d="M 628 4666 
L 3578 4666 
L 3578 4134 
L 1259 4134 
L 1259 2753 
L 3481 2753 
L 3481 2222 
L 1259 2222 
L 1259 531 
L 3634 531 
L 3634 0 
L 628 0 
L 628 4666 
z
" transform="scale(0.015625)"/>
      <path id="DejaVuSans-3a" d="M 750 794 
L 1409 794 
L 1409 0 
L 750 0 
L 750 794 
z
M 750 3309 
L 1409 3309 
L 1409 2516 
L 750 2516 
L 750 3309 
z
" transform="scale(0.015625)"/>
      <path id="DejaVuSans-20" transform="scale(0.015625)"/>
      <path id="DejaVuSans-2e" d="M 684 794 
L 1344 794 
L 1344 0 
L 684 0 
L 684 794 
z
" transform="scale(0.015625)"/>
      <path id="DejaVuSans-39" d="M 703 97 
L 703 672 
Q 941 559 1184 500 
Q 1428 441 1663 441 
Q 2288 441 2617 861 
Q 2947 1281 2994 2138 
Q 2813 1869 2534 1725 
Q 2256 1581 1919 1581 
Q 1219 1581 811 2004 
Q 403 2428 403 3163 
Q 403 3881 828 4315 
Q 1253 4750 1959 4750 
Q 2769 4750 3195 4129 
Q 3622 3509 3622 2328 
Q 3622 1225 3098 567 
Q 2575 -91 1691 -91 
Q 1453 -91 1209 -44 
Q 966 3 703 97 
z
M 1959 2075 
Q 2384 2075 2632 2365 
Q 2881 2656 2881 3163 
Q 2881 3666 2632 3958 
Q 2384 4250 1959 4250 
Q 1534 4250 1286 3958 
Q 1038 3666 1038 3163 
Q 1038 2656 1286 2365 
Q 1534 2075 1959 2075 
z
" transform="scale(0.015625)"/>
     </defs>
     <use xlink:href="#DejaVuSans-4d"/>
     <use xlink:href="#DejaVuSans-53" x="86.279297"/>
     <use xlink:href="#DejaVuSans-45" x="149.755859"/>
     <use xlink:href="#DejaVuSans-3a" x="212.939453"/>
     <use xlink:href="#DejaVuSans-20" x="246.630859"/>
     <use xlink:href="#DejaVuSans-38" x="278.417969"/>
     <use xlink:href="#DejaVuSans-2e" x="342.041016"/>
     <use xlink:href="#DejaVuSans-34" x="373.828125"/>
     <use xlink:href="#DejaVuSans-39" x="437.451172"/>
    </g>
   </g>
   <g id="text_14">
    <!--  -->
    <g style="fill: #ff0000" transform="translate(285.069419 265.668519) scale(0.1 -0.1)"/>
    <!-- MSE: 98.34 -->
    <g style="fill: #ff0000" transform="translate(285.069419 276.866332) scale(0.1 -0.1)">
     <use xlink:href="#DejaVuSans-4d"/>
     <use xlink:href="#DejaVuSans-53" x="86.279297"/>
     <use xlink:href="#DejaVuSans-45" x="149.755859"/>
     <use xlink:href="#DejaVuSans-3a" x="212.939453"/>
     <use xlink:href="#DejaVuSans-20" x="246.630859"/>
     <use xlink:href="#DejaVuSans-39" x="278.417969"/>
     <use xlink:href="#DejaVuSans-38" x="342.041016"/>
     <use xlink:href="#DejaVuSans-2e" x="405.664062"/>
     <use xlink:href="#DejaVuSans-33" x="437.451172"/>
     <use xlink:href="#DejaVuSans-34" x="501.074219"/>
    </g>
   </g>
   <g id="text_15">
    <!-- AR: 15, 500, MA: 15, 500 -->
    <g transform="translate(161.425313 22.034625) scale(0.12 -0.12)">
     <defs>
      <path id="DejaVuSans-41" d="M 2188 4044 
L 1331 1722 
L 3047 1722 
L 2188 4044 
z
M 1831 4666 
L 2547 4666 
L 4325 0 
L 3669 0 
L 3244 1197 
L 1141 1197 
L 716 0 
L 50 0 
L 1831 4666 
z
" transform="scale(0.015625)"/>
      <path id="DejaVuSans-52" d="M 2841 2188 
Q 3044 2119 3236 1894 
Q 3428 1669 3622 1275 
L 4263 0 
L 3584 0 
L 2988 1197 
Q 2756 1666 2539 1819 
Q 2322 1972 1947 1972 
L 1259 1972 
L 1259 0 
L 628 0 
L 628 4666 
L 2053 4666 
Q 2853 4666 3247 4331 
Q 3641 3997 3641 3322 
Q 3641 2881 3436 2590 
Q 3231 2300 2841 2188 
z
M 1259 4147 
L 1259 2491 
L 2053 2491 
Q 2509 2491 2742 2702 
Q 2975 2913 2975 3322 
Q 2975 3731 2742 3939 
Q 2509 4147 2053 4147 
L 1259 4147 
z
" transform="scale(0.015625)"/>
      <path id="DejaVuSans-2c" d="M 750 794 
L 1409 794 
L 1409 256 
L 897 -744 
L 494 -744 
L 750 256 
L 750 794 
z
" transform="scale(0.015625)"/>
     </defs>
     <use xlink:href="#DejaVuSans-41"/>
     <use xlink:href="#DejaVuSans-52" x="68.408203"/>
     <use xlink:href="#DejaVuSans-3a" x="134.765625"/>
     <use xlink:href="#DejaVuSans-20" x="168.457031"/>
     <use xlink:href="#DejaVuSans-31" x="200.244141"/>
     <use xlink:href="#DejaVuSans-35" x="263.867188"/>
     <use xlink:href="#DejaVuSans-2c" x="327.490234"/>
     <use xlink:href="#DejaVuSans-20" x="359.277344"/>
     <use xlink:href="#DejaVuSans-35" x="391.064453"/>
     <use xlink:href="#DejaVuSans-30" x="454.6875"/>
     <use xlink:href="#DejaVuSans-30" x="518.310547"/>
     <use xlink:href="#DejaVuSans-2c" x="581.933594"/>
     <use xlink:href="#DejaVuSans-20" x="613.720703"/>
     <use xlink:href="#DejaVuSans-4d" x="645.507812"/>
     <use xlink:href="#DejaVuSans-41" x="731.787109"/>
     <use xlink:href="#DejaVuSans-3a" x="798.445312"/>
     <use xlink:href="#DejaVuSans-20" x="832.136719"/>
     <use xlink:href="#DejaVuSans-31" x="863.923828"/>
     <use xlink:href="#DejaVuSans-35" x="927.546875"/>
     <use xlink:href="#DejaVuSans-2c" x="991.169922"/>
     <use xlink:href="#DejaVuSans-20" x="1022.957031"/>
     <use xlink:href="#DejaVuSans-35" x="1054.744141"/>
     <use xlink:href="#DejaVuSans-30" x="1118.367188"/>
     <use xlink:href="#DejaVuSans-30" x="1181.990234"/>
    </g>
    <!-- MSE = 44.98 -->
    <g transform="translate(197.364375 35.472) scale(0.12 -0.12)">
     <defs>
      <path id="DejaVuSans-3d" d="M 678 2906 
L 4684 2906 
L 4684 2381 
L 678 2381 
L 678 2906 
z
M 678 1631 
L 4684 1631 
L 4684 1100 
L 678 1100 
L 678 1631 
z
" transform="scale(0.015625)"/>
     </defs>
     <use xlink:href="#DejaVuSans-4d"/>
     <use xlink:href="#DejaVuSans-53" x="86.279297"/>
     <use xlink:href="#DejaVuSans-45" x="149.755859"/>
     <use xlink:href="#DejaVuSans-20" x="212.939453"/>
     <use xlink:href="#DejaVuSans-3d" x="244.726562"/>
     <use xlink:href="#DejaVuSans-20" x="328.515625"/>
     <use xlink:href="#DejaVuSans-34" x="360.302734"/>
     <use xlink:href="#DejaVuSans-34" x="423.925781"/>
     <use xlink:href="#DejaVuSans-2e" x="487.548828"/>
     <use xlink:href="#DejaVuSans-39" x="519.335938"/>
     <use xlink:href="#DejaVuSans-38" x="582.958984"/>
    </g>
   </g>
   <g id="legend_1">
    <g id="patch_7">
     <path d="M 64.6 78.82825 
L 146.273438 78.82825 
Q 148.273438 78.82825 148.273438 76.82825 
L 148.273438 48.472 
Q 148.273438 46.472 146.273438 46.472 
L 64.6 46.472 
Q 62.6 46.472 62.6 48.472 
L 62.6 76.82825 
Q 62.6 78.82825 64.6 78.82825 
z
" style="fill: #ffffff; opacity: 0.8; stroke: #cccccc; stroke-linejoin: miter"/>
    </g>
    <g id="line2d_16">
     <path d="M 66.6 54.570437 
L 76.6 54.570437 
L 86.6 54.570437 
" style="fill: none; stroke: #1f77b4; stroke-width: 1.5; stroke-linecap: square"/>
    </g>
    <g id="text_16">
     <!-- Series -->
     <g transform="translate(94.6 58.070437) scale(0.1 -0.1)">
      <defs>
       <path id="DejaVuSans-65" d="M 3597 1894 
L 3597 1613 
L 953 1613 
Q 991 1019 1311 708 
Q 1631 397 2203 397 
Q 2534 397 2845 478 
Q 3156 559 3463 722 
L 3463 178 
Q 3153 47 2828 -22 
Q 2503 -91 2169 -91 
Q 1331 -91 842 396 
Q 353 884 353 1716 
Q 353 2575 817 3079 
Q 1281 3584 2069 3584 
Q 2775 3584 3186 3129 
Q 3597 2675 3597 1894 
z
M 3022 2063 
Q 3016 2534 2758 2815 
Q 2500 3097 2075 3097 
Q 1594 3097 1305 2825 
Q 1016 2553 972 2059 
L 3022 2063 
z
" transform="scale(0.015625)"/>
       <path id="DejaVuSans-72" d="M 2631 2963 
Q 2534 3019 2420 3045 
Q 2306 3072 2169 3072 
Q 1681 3072 1420 2755 
Q 1159 2438 1159 1844 
L 1159 0 
L 581 0 
L 581 3500 
L 1159 3500 
L 1159 2956 
Q 1341 3275 1631 3429 
Q 1922 3584 2338 3584 
Q 2397 3584 2469 3576 
Q 2541 3569 2628 3553 
L 2631 2963 
z
" transform="scale(0.015625)"/>
       <path id="DejaVuSans-69" d="M 603 3500 
L 1178 3500 
L 1178 0 
L 603 0 
L 603 3500 
z
M 603 4863 
L 1178 4863 
L 1178 4134 
L 603 4134 
L 603 4863 
z
" transform="scale(0.015625)"/>
       <path id="DejaVuSans-73" d="M 2834 3397 
L 2834 2853 
Q 2591 2978 2328 3040 
Q 2066 3103 1784 3103 
Q 1356 3103 1142 2972 
Q 928 2841 928 2578 
Q 928 2378 1081 2264 
Q 1234 2150 1697 2047 
L 1894 2003 
Q 2506 1872 2764 1633 
Q 3022 1394 3022 966 
Q 3022 478 2636 193 
Q 2250 -91 1575 -91 
Q 1294 -91 989 -36 
Q 684 19 347 128 
L 347 722 
Q 666 556 975 473 
Q 1284 391 1588 391 
Q 1994 391 2212 530 
Q 2431 669 2431 922 
Q 2431 1156 2273 1281 
Q 2116 1406 1581 1522 
L 1381 1569 
Q 847 1681 609 1914 
Q 372 2147 372 2553 
Q 372 3047 722 3315 
Q 1072 3584 1716 3584 
Q 2034 3584 2315 3537 
Q 2597 3491 2834 3397 
z
" transform="scale(0.015625)"/>
      </defs>
      <use xlink:href="#DejaVuSans-53"/>
      <use xlink:href="#DejaVuSans-65" x="63.476562"/>
      <use xlink:href="#DejaVuSans-72" x="125"/>
      <use xlink:href="#DejaVuSans-69" x="166.113281"/>
      <use xlink:href="#DejaVuSans-65" x="193.896484"/>
      <use xlink:href="#DejaVuSans-73" x="255.419922"/>
     </g>
    </g>
    <g id="line2d_17">
     <path d="M 66.6 69.248562 
L 76.6 69.248562 
L 86.6 69.248562 
" style="fill: none; stroke: #ff7f0e; stroke-width: 1.5; stroke-linecap: square"/>
    </g>
    <g id="text_17">
     <!-- Prediction -->
     <g transform="translate(94.6 72.748562) scale(0.1 -0.1)">
      <defs>
       <path id="DejaVuSans-50" d="M 1259 4147 
L 1259 2394 
L 2053 2394 
Q 2494 2394 2734 2622 
Q 2975 2850 2975 3272 
Q 2975 3691 2734 3919 
Q 2494 4147 2053 4147 
L 1259 4147 
z
M 628 4666 
L 2053 4666 
Q 2838 4666 3239 4311 
Q 3641 3956 3641 3272 
Q 3641 2581 3239 2228 
Q 2838 1875 2053 1875 
L 1259 1875 
L 1259 0 
L 628 0 
L 628 4666 
z
" transform="scale(0.015625)"/>
       <path id="DejaVuSans-64" d="M 2906 2969 
L 2906 4863 
L 3481 4863 
L 3481 0 
L 2906 0 
L 2906 525 
Q 2725 213 2448 61 
Q 2172 -91 1784 -91 
Q 1150 -91 751 415 
Q 353 922 353 1747 
Q 353 2572 751 3078 
Q 1150 3584 1784 3584 
Q 2172 3584 2448 3432 
Q 2725 3281 2906 2969 
z
M 947 1747 
Q 947 1113 1208 752 
Q 1469 391 1925 391 
Q 2381 391 2643 752 
Q 2906 1113 2906 1747 
Q 2906 2381 2643 2742 
Q 2381 3103 1925 3103 
Q 1469 3103 1208 2742 
Q 947 2381 947 1747 
z
" transform="scale(0.015625)"/>
       <path id="DejaVuSans-63" d="M 3122 3366 
L 3122 2828 
Q 2878 2963 2633 3030 
Q 2388 3097 2138 3097 
Q 1578 3097 1268 2742 
Q 959 2388 959 1747 
Q 959 1106 1268 751 
Q 1578 397 2138 397 
Q 2388 397 2633 464 
Q 2878 531 3122 666 
L 3122 134 
Q 2881 22 2623 -34 
Q 2366 -91 2075 -91 
Q 1284 -91 818 406 
Q 353 903 353 1747 
Q 353 2603 823 3093 
Q 1294 3584 2113 3584 
Q 2378 3584 2631 3529 
Q 2884 3475 3122 3366 
z
" transform="scale(0.015625)"/>
       <path id="DejaVuSans-74" d="M 1172 4494 
L 1172 3500 
L 2356 3500 
L 2356 3053 
L 1172 3053 
L 1172 1153 
Q 1172 725 1289 603 
Q 1406 481 1766 481 
L 2356 481 
L 2356 0 
L 1766 0 
Q 1100 0 847 248 
Q 594 497 594 1153 
L 594 3053 
L 172 3053 
L 172 3500 
L 594 3500 
L 594 4494 
L 1172 4494 
z
" transform="scale(0.015625)"/>
       <path id="DejaVuSans-6f" d="M 1959 3097 
Q 1497 3097 1228 2736 
Q 959 2375 959 1747 
Q 959 1119 1226 758 
Q 1494 397 1959 397 
Q 2419 397 2687 759 
Q 2956 1122 2956 1747 
Q 2956 2369 2687 2733 
Q 2419 3097 1959 3097 
z
M 1959 3584 
Q 2709 3584 3137 3096 
Q 3566 2609 3566 1747 
Q 3566 888 3137 398 
Q 2709 -91 1959 -91 
Q 1206 -91 779 398 
Q 353 888 353 1747 
Q 353 2609 779 3096 
Q 1206 3584 1959 3584 
z
" transform="scale(0.015625)"/>
       <path id="DejaVuSans-6e" d="M 3513 2113 
L 3513 0 
L 2938 0 
L 2938 2094 
Q 2938 2591 2744 2837 
Q 2550 3084 2163 3084 
Q 1697 3084 1428 2787 
Q 1159 2491 1159 1978 
L 1159 0 
L 581 0 
L 581 3500 
L 1159 3500 
L 1159 2956 
Q 1366 3272 1645 3428 
Q 1925 3584 2291 3584 
Q 2894 3584 3203 3211 
Q 3513 2838 3513 2113 
z
" transform="scale(0.015625)"/>
      </defs>
      <use xlink:href="#DejaVuSans-50"/>
      <use xlink:href="#DejaVuSans-72" x="58.552734"/>
      <use xlink:href="#DejaVuSans-65" x="97.416016"/>
      <use xlink:href="#DejaVuSans-64" x="158.939453"/>
      <use xlink:href="#DejaVuSans-69" x="222.416016"/>
      <use xlink:href="#DejaVuSans-63" x="250.199219"/>
      <use xlink:href="#DejaVuSans-74" x="305.179688"/>
      <use xlink:href="#DejaVuSans-69" x="344.388672"/>
      <use xlink:href="#DejaVuSans-6f" x="372.171875"/>
      <use xlink:href="#DejaVuSans-6e" x="433.353516"/>
     </g>
    </g>
   </g>
  </g>
 </g>
 <defs>
  <clipPath id="p0f834e2270">
   <rect x="57.6" y="41.472" width="357.12" height="266.112"/>
  </clipPath>
 </defs>
</svg>
