<?xml version="1.0" encoding="utf-8" standalone="no"?>
<!DOCTYPE svg PUBLIC "-//W3C//DTD SVG 1.1//EN"
  "http://www.w3.org/Graphics/SVG/1.1/DTD/svg11.dtd">
<svg xmlns:xlink="http://www.w3.org/1999/xlink" width="460.8pt" height="345.6pt" viewBox="0 0 460.8 345.6" xmlns="http://www.w3.org/2000/svg" version="1.1">
 <metadata>
  <rdf:RDF xmlns:dc="http://purl.org/dc/elements/1.1/" xmlns:cc="http://creativecommons.org/ns#" xmlns:rdf="http://www.w3.org/1999/02/22-rdf-syntax-ns#">
   <cc:Work>
    <dc:type rdf:resource="http://purl.org/dc/dcmitype/StillImage"/>
    <dc:format>image/svg+xml</dc:format>
    <dc:creator>
     <cc:Agent>
      <dc:title>Matplotlib v3.8.4, https://matplotlib.org/</dc:title>
     </cc:Agent>
    </dc:creator>
   </cc:Work>
  </rdf:RDF>
 </metadata>
 <defs>
  <style type="text/css">*{stroke-linejoin: round; stroke-linecap: butt}</style>
 </defs>
 <g id="figure_1">
  <g id="patch_1">
   <path d="M 0 345.6 
L 460.8 345.6 
L 460.8 0 
L 0 0 
z
" style="fill: #ffffff"/>
  </g>
  <g id="axes_1">
   <g id="patch_2">
    <path d="M 57.6 119.740235 
L 414.72 119.740235 
L 414.72 41.472 
L 57.6 41.472 
z
" style="fill: #ffffff"/>
   </g>
   <g id="matplotlib.axis_1">
    <g id="xtick_1">
     <g id="line2d_1">
      <defs>
       <path id="mbcb02aef95" d="M 0 0 
L 0 3.5 
" style="stroke: #000000; stroke-width: 0.8"/>
      </defs>
      <g>
       <use xlink:href="#mbcb02aef95" x="73.832727" y="119.740235" style="stroke: #000000; stroke-width: 0.8"/>
      </g>
     </g>
     <g id="text_1">
      <!-- 0.00 -->
      <g transform="translate(62.699915 134.338673) scale(0.1 -0.1)">
       <defs>
        <path id="DejaVuSans-30" d="M 2034 4250 
Q 1547 4250 1301 3770 
Q 1056 3291 1056 2328 
Q 1056 1369 1301 889 
Q 1547 409 2034 409 
Q 2525 409 2770 889 
Q 3016 1369 3016 2328 
Q 3016 3291 2770 3770 
Q 2525 4250 2034 4250 
z
M 2034 4750 
Q 2819 4750 3233 4129 
Q 3647 3509 3647 2328 
Q 3647 1150 3233 529 
Q 2819 -91 2034 -91 
Q 1250 -91 836 529 
Q 422 1150 422 2328 
Q 422 3509 836 4129 
Q 1250 4750 2034 4750 
z
" transform="scale(0.015625)"/>
        <path id="DejaVuSans-2e" d="M 684 794 
L 1344 794 
L 1344 0 
L 684 0 
L 684 794 
z
" transform="scale(0.015625)"/>
       </defs>
       <use xlink:href="#DejaVuSans-30"/>
       <use xlink:href="#DejaVuSans-2e" x="63.623047"/>
       <use xlink:href="#DejaVuSans-30" x="95.410156"/>
       <use xlink:href="#DejaVuSans-30" x="159.033203"/>
      </g>
     </g>
    </g>
    <g id="xtick_2">
     <g id="line2d_2">
      <g>
       <use xlink:href="#mbcb02aef95" x="138.763636" y="119.740235" style="stroke: #000000; stroke-width: 0.8"/>
      </g>
     </g>
     <g id="text_2">
      <!-- 0.02 -->
      <g transform="translate(127.630824 134.338673) scale(0.1 -0.1)">
       <defs>
        <path id="DejaVuSans-32" d="M 1228 531 
L 3431 531 
L 3431 0 
L 469 0 
L 469 531 
Q 828 903 1448 1529 
Q 2069 2156 2228 2338 
Q 2531 2678 2651 2914 
Q 2772 3150 2772 3378 
Q 2772 3750 2511 3984 
Q 2250 4219 1831 4219 
Q 1534 4219 1204 4116 
Q 875 4013 500 3803 
L 500 4441 
Q 881 4594 1212 4672 
Q 1544 4750 1819 4750 
Q 2544 4750 2975 4387 
Q 3406 4025 3406 3419 
Q 3406 3131 3298 2873 
Q 3191 2616 2906 2266 
Q 2828 2175 2409 1742 
Q 1991 1309 1228 531 
z
" transform="scale(0.015625)"/>
       </defs>
       <use xlink:href="#DejaVuSans-30"/>
       <use xlink:href="#DejaVuSans-2e" x="63.623047"/>
       <use xlink:href="#DejaVuSans-30" x="95.410156"/>
       <use xlink:href="#DejaVuSans-32" x="159.033203"/>
      </g>
     </g>
    </g>
    <g id="xtick_3">
     <g id="line2d_3">
      <g>
       <use xlink:href="#mbcb02aef95" x="203.694545" y="119.740235" style="stroke: #000000; stroke-width: 0.8"/>
      </g>
     </g>
     <g id="text_3">
      <!-- 0.04 -->
      <g transform="translate(192.561733 134.338673) scale(0.1 -0.1)">
       <defs>
        <path id="DejaVuSans-34" d="M 2419 4116 
L 825 1625 
L 2419 1625 
L 2419 4116 
z
M 2253 4666 
L 3047 4666 
L 3047 1625 
L 3713 1625 
L 3713 1100 
L 3047 1100 
L 3047 0 
L 2419 0 
L 2419 1100 
L 313 1100 
L 313 1709 
L 2253 4666 
z
" transform="scale(0.015625)"/>
       </defs>
       <use xlink:href="#DejaVuSans-30"/>
       <use xlink:href="#DejaVuSans-2e" x="63.623047"/>
       <use xlink:href="#DejaVuSans-30" x="95.410156"/>
       <use xlink:href="#DejaVuSans-34" x="159.033203"/>
      </g>
     </g>
    </g>
    <g id="xtick_4">
     <g id="line2d_4">
      <g>
       <use xlink:href="#mbcb02aef95" x="268.625455" y="119.740235" style="stroke: #000000; stroke-width: 0.8"/>
      </g>
     </g>
     <g id="text_4">
      <!-- 0.06 -->
      <g transform="translate(257.492642 134.338673) scale(0.1 -0.1)">
       <defs>
        <path id="DejaVuSans-36" d="M 2113 2584 
Q 1688 2584 1439 2293 
Q 1191 2003 1191 1497 
Q 1191 994 1439 701 
Q 1688 409 2113 409 
Q 2538 409 2786 701 
Q 3034 994 3034 1497 
Q 3034 2003 2786 2293 
Q 2538 2584 2113 2584 
z
M 3366 4563 
L 3366 3988 
Q 3128 4100 2886 4159 
Q 2644 4219 2406 4219 
Q 1781 4219 1451 3797 
Q 1122 3375 1075 2522 
Q 1259 2794 1537 2939 
Q 1816 3084 2150 3084 
Q 2853 3084 3261 2657 
Q 3669 2231 3669 1497 
Q 3669 778 3244 343 
Q 2819 -91 2113 -91 
Q 1303 -91 875 529 
Q 447 1150 447 2328 
Q 447 3434 972 4092 
Q 1497 4750 2381 4750 
Q 2619 4750 2861 4703 
Q 3103 4656 3366 4563 
z
" transform="scale(0.015625)"/>
       </defs>
       <use xlink:href="#DejaVuSans-30"/>
       <use xlink:href="#DejaVuSans-2e" x="63.623047"/>
       <use xlink:href="#DejaVuSans-30" x="95.410156"/>
       <use xlink:href="#DejaVuSans-36" x="159.033203"/>
      </g>
     </g>
    </g>
    <g id="xtick_5">
     <g id="line2d_5">
      <g>
       <use xlink:href="#mbcb02aef95" x="333.556364" y="119.740235" style="stroke: #000000; stroke-width: 0.8"/>
      </g>
     </g>
     <g id="text_5">
      <!-- 0.08 -->
      <g transform="translate(322.423551 134.338673) scale(0.1 -0.1)">
       <defs>
        <path id="DejaVuSans-38" d="M 2034 2216 
Q 1584 2216 1326 1975 
Q 1069 1734 1069 1313 
Q 1069 891 1326 650 
Q 1584 409 2034 409 
Q 2484 409 2743 651 
Q 3003 894 3003 1313 
Q 3003 1734 2745 1975 
Q 2488 2216 2034 2216 
z
M 1403 2484 
Q 997 2584 770 2862 
Q 544 3141 544 3541 
Q 544 4100 942 4425 
Q 1341 4750 2034 4750 
Q 2731 4750 3128 4425 
Q 3525 4100 3525 3541 
Q 3525 3141 3298 2862 
Q 3072 2584 2669 2484 
Q 3125 2378 3379 2068 
Q 3634 1759 3634 1313 
Q 3634 634 3220 271 
Q 2806 -91 2034 -91 
Q 1263 -91 848 271 
Q 434 634 434 1313 
Q 434 1759 690 2068 
Q 947 2378 1403 2484 
z
M 1172 3481 
Q 1172 3119 1398 2916 
Q 1625 2713 2034 2713 
Q 2441 2713 2670 2916 
Q 2900 3119 2900 3481 
Q 2900 3844 2670 4047 
Q 2441 4250 2034 4250 
Q 1625 4250 1398 4047 
Q 1172 3844 1172 3481 
z
" transform="scale(0.015625)"/>
       </defs>
       <use xlink:href="#DejaVuSans-30"/>
       <use xlink:href="#DejaVuSans-2e" x="63.623047"/>
       <use xlink:href="#DejaVuSans-30" x="95.410156"/>
       <use xlink:href="#DejaVuSans-38" x="159.033203"/>
      </g>
     </g>
    </g>
    <g id="xtick_6">
     <g id="line2d_6">
      <g>
       <use xlink:href="#mbcb02aef95" x="398.487273" y="119.740235" style="stroke: #000000; stroke-width: 0.8"/>
      </g>
     </g>
     <g id="text_6">
      <!-- 0.10 -->
      <g transform="translate(387.35446 134.338673) scale(0.1 -0.1)">
       <defs>
        <path id="DejaVuSans-31" d="M 794 531 
L 1825 531 
L 1825 4091 
L 703 3866 
L 703 4441 
L 1819 4666 
L 2450 4666 
L 2450 531 
L 3481 531 
L 3481 0 
L 794 0 
L 794 531 
z
" transform="scale(0.015625)"/>
       </defs>
       <use xlink:href="#DejaVuSans-30"/>
       <use xlink:href="#DejaVuSans-2e" x="63.623047"/>
       <use xlink:href="#DejaVuSans-31" x="95.410156"/>
       <use xlink:href="#DejaVuSans-30" x="159.033203"/>
      </g>
     </g>
    </g>
   </g>
   <g id="matplotlib.axis_2">
    <g id="ytick_1">
     <g id="line2d_7">
      <defs>
       <path id="me5179b328b" d="M 0 0 
L -3.5 0 
" style="stroke: #000000; stroke-width: 0.8"/>
      </defs>
      <g>
       <use xlink:href="#me5179b328b" x="57.6" y="109.204567" style="stroke: #000000; stroke-width: 0.8"/>
      </g>
     </g>
     <g id="text_7">
      <!-- −250 -->
      <g transform="translate(23.132812 113.003785) scale(0.1 -0.1)">
       <defs>
        <path id="DejaVuSans-2212" d="M 678 2272 
L 4684 2272 
L 4684 1741 
L 678 1741 
L 678 2272 
z
" transform="scale(0.015625)"/>
        <path id="DejaVuSans-35" d="M 691 4666 
L 3169 4666 
L 3169 4134 
L 1269 4134 
L 1269 2991 
Q 1406 3038 1543 3061 
Q 1681 3084 1819 3084 
Q 2600 3084 3056 2656 
Q 3513 2228 3513 1497 
Q 3513 744 3044 326 
Q 2575 -91 1722 -91 
Q 1428 -91 1123 -41 
Q 819 9 494 109 
L 494 744 
Q 775 591 1075 516 
Q 1375 441 1709 441 
Q 2250 441 2565 725 
Q 2881 1009 2881 1497 
Q 2881 1984 2565 2268 
Q 2250 2553 1709 2553 
Q 1456 2553 1204 2497 
Q 953 2441 691 2322 
L 691 4666 
z
" transform="scale(0.015625)"/>
       </defs>
       <use xlink:href="#DejaVuSans-2212"/>
       <use xlink:href="#DejaVuSans-32" x="83.789062"/>
       <use xlink:href="#DejaVuSans-35" x="147.412109"/>
       <use xlink:href="#DejaVuSans-30" x="211.035156"/>
      </g>
     </g>
    </g>
    <g id="ytick_2">
     <g id="line2d_8">
      <g>
       <use xlink:href="#me5179b328b" x="57.6" y="80.606118" style="stroke: #000000; stroke-width: 0.8"/>
      </g>
     </g>
     <g id="text_8">
      <!-- 0 -->
      <g transform="translate(44.2375 84.405336) scale(0.1 -0.1)">
       <use xlink:href="#DejaVuSans-30"/>
      </g>
     </g>
    </g>
    <g id="ytick_3">
     <g id="line2d_9">
      <g>
       <use xlink:href="#me5179b328b" x="57.6" y="52.007669" style="stroke: #000000; stroke-width: 0.8"/>
      </g>
     </g>
     <g id="text_9">
      <!-- 250 -->
      <g transform="translate(31.5125 55.806887) scale(0.1 -0.1)">
       <use xlink:href="#DejaVuSans-32"/>
       <use xlink:href="#DejaVuSans-35" x="63.623047"/>
       <use xlink:href="#DejaVuSans-30" x="127.246094"/>
      </g>
     </g>
    </g>
   </g>
   <g id="line2d_10">
    <path d="M 73.832727 80.606118 
L 77.549376 65.724255 
L 79.476852 58.923106 
L 81.032598 54.20825 
L 82.359463 50.860718 
L 83.514909 48.51734 
L 84.530755 46.932405 
L 85.42875 45.920505 
L 86.229349 45.335833 
L 86.9569 45.068614 
L 87.64387 45.048974 
L 88.328243 45.254275 
L 89.046379 45.709593 
L 89.827499 46.480064 
L 90.693678 47.662152 
L 91.664396 49.381919 
L 92.759782 51.797152 
L 94.007755 55.113532 
L 95.453768 59.619345 
L 97.192294 65.805618 
L 99.522018 74.989621 
L 105.203478 97.699863 
L 106.999793 103.790401 
L 108.481843 108.069007 
L 109.756113 111.103151 
L 110.86968 113.210848 
L 111.850137 114.616865 
L 112.718589 115.494922 
L 113.495813 115.980324 
L 114.20843 116.172399 
L 114.890855 116.128186 
L 115.581396 115.856513 
L 116.314791 115.31999 
L 117.117987 114.443921 
L 118.012087 113.123172 
L 119.01592 111.223861 
L 120.151238 108.576604 
L 121.449532 104.957463 
L 122.965021 100.040611 
L 124.821723 93.215594 
L 127.517007 82.36037 
L 131.709925 65.531434 
L 133.625389 58.794142 
L 135.174642 54.117181 
L 136.496961 50.796501 
L 137.648836 48.473169 
L 138.66176 46.903304 
L 139.557482 45.90255 
L 140.356133 45.326338 
L 141.082386 45.065509 
L 141.769031 45.051223 
L 142.453729 45.261938 
L 143.173164 45.723889 
L 143.955907 46.502703 
L 144.824358 47.695926 
L 145.797674 49.429931 
L 146.896306 51.863794 
L 148.148175 55.203978 
L 149.599382 59.741369 
L 151.346999 65.977183 
L 153.700423 75.272556 
L 159.250398 97.474169 
L 161.059374 103.63488 
L 162.549216 107.959126 
L 163.828681 111.02518 
L 164.946792 113.157766 
L 165.931145 114.582646 
L 166.802844 115.474702 
L 167.582665 115.970424 
L 168.296581 116.170223 
L 168.97933 116.132792 
L 169.669222 115.868272 
L 170.400994 115.340562 
L 171.201593 114.476284 
L 172.092446 113.171146 
L 173.092707 111.291605 
L 174.223805 108.669594 
L 175.516256 105.084768 
L 177.023953 100.213846 
L 178.866694 93.462934 
L 181.511657 82.8324 
L 185.852293 65.407024 
L 187.76029 58.710005 
L 189.305322 54.057726 
L 190.62472 50.754478 
L 191.774322 48.444157 
L 192.785298 46.884238 
L 193.679397 45.890925 
L 194.47675 45.320234 
L 195.202353 45.063521 
L 195.888674 45.052768 
L 196.573695 45.267092 
L 197.29378 45.73328 
L 198.077821 46.517828 
L 198.947896 47.718642 
L 199.92316 49.462616 
L 201.024064 51.909309 
L 202.278855 55.266503 
L 203.733959 59.826737 
L 205.487744 66.096482 
L 207.857725 75.469556 
L 213.318095 97.323415 
L 215.135838 103.531973 
L 216.630549 107.885659 
L 217.913909 110.973943 
L 219.034618 113.12222 
L 220.021569 114.559699 
L 220.895215 115.460926 
L 221.676659 115.963568 
L 222.391874 116.168675 
L 223.074948 116.135692 
L 223.76419 115.875963 
L 224.494664 115.354285 
L 225.293639 114.497762 
L 226.182544 113.202659 
L 227.180209 111.33664 
L 228.308384 108.731717 
L 229.597264 105.168824 
L 231.099767 100.328408 
L 232.933418 93.625976 
L 235.546889 83.13684 
L 239.987194 65.310688 
L 241.889022 58.646108 
L 243.431133 54.011796 
L 244.748258 50.722052 
L 245.896237 48.421546 
L 246.905589 46.869522 
L 247.79839 45.882002 
L 248.594769 45.315548 
L 249.319723 45.062045 
L 250.005719 45.053968 
L 250.691065 45.271053 
L 251.411799 45.740598 
L 252.196814 46.529558 
L 253.067863 47.735804 
L 254.044425 49.48696 
L 255.146953 51.943038 
L 256.403692 55.312204 
L 257.861717 59.889384 
L 259.620048 66.184093 
L 262.00269 75.61625 
L 267.39748 97.214988 
L 269.221391 103.457532 
L 270.719673 107.832639 
L 272.005631 110.936502 
L 273.128612 113.096864 
L 274.117186 114.543039 
L 274.992456 115.451083 
L 275.774874 115.958562 
L 276.490738 116.167468 
L 277.173812 116.137836 
L 277.86273 115.881647 
L 278.592554 115.364182 
L 279.390556 114.513023 
L 280.278162 113.224919 
L 281.274203 111.368017 
L 282.400431 108.774781 
L 283.686713 105.227459 
L 285.185645 100.408148 
L 287.013127 93.738858 
L 289.605496 83.344824 
L 294.116251 65.236257 
L 296.013534 58.596021 
L 297.553048 53.976636 
L 298.868549 50.69697 
L 300.01523 48.404136 
L 301.023608 46.857832 
L 301.915435 45.874867 
L 302.711164 45.311743 
L 303.435469 45.060883 
L 304.12114 45.054944 
L 304.806487 45.274104 
L 305.527545 45.746078 
L 306.31321 46.53824 
L 307.185233 47.748903 
L 308.162769 49.505504 
L 309.266595 51.968879 
L 310.524958 55.347598 
L 311.984931 59.936841 
L 313.746832 66.250943 
L 316.139214 75.728487 
L 321.484657 97.134874 
L 323.313113 103.402491 
L 324.814317 107.794184 
L 326.102223 110.909481 
L 327.226827 113.078535 
L 328.2167 114.531145 
L 329.092944 115.443895 
L 329.876336 115.955017 
L 330.592524 116.166576 
L 331.275923 116.13927 
L 331.964516 115.885551 
L 332.693691 115.371175 
L 333.490718 114.524171 
L 334.377026 113.241761 
L 335.371769 111.391907 
L 336.496373 108.807927 
L 337.780708 105.272439 
L 339.276718 100.469945 
L 341.09933 93.826688 
L 343.675466 83.50593 
L 348.242062 65.173993 
L 350.135774 58.553372 
L 351.673339 53.945975 
L 352.987217 50.675564 
L 354.1326 48.389612 
L 355.140004 46.848295 
L 356.030857 45.869209 
L 356.825937 45.308801 
L 357.549917 45.059962 
L 358.235588 45.055785 
L 358.921259 45.276859 
L 359.642967 45.75131 
L 360.429281 46.546559 
L 361.302278 47.761517 
L 362.280788 49.52343 
L 363.385913 51.993967 
L 364.645574 55.38115 
L 366.107495 59.982169 
L 367.872643 66.31417 
L 370.274115 75.834127 
L 375.573457 97.0606 
L 377.406458 103.352513 
L 378.909935 107.758252 
L 380.199464 110.883806 
L 381.325367 113.060703 
L 382.316538 114.519615 
L 383.193756 115.436946 
L 383.977797 115.951444 
L 384.694635 116.165699 
L 385.378034 116.140681 
L 386.066302 115.88943 
L 386.794828 115.378138 
L 387.591206 114.534879 
L 388.47654 113.257492 
L 389.470308 111.41373 
L 390.59329 108.838559 
L 391.875676 105.314449 
L 393.369413 100.5261 
L 395.187805 93.905718 
L 397.749657 83.649606 
L 398.487273 80.606118 
L 398.487273 80.606118 
" clip-path="url(#pe1596cb1e6)" style="fill: none; stroke: #1f77b4; stroke-width: 1.5; stroke-linecap: square"/>
   </g>
   <g id="patch_3">
    <path d="M 57.6 119.740235 
L 57.6 41.472 
" style="fill: none; stroke: #000000; stroke-width: 0.8; stroke-linejoin: miter; stroke-linecap: square"/>
   </g>
   <g id="patch_4">
    <path d="M 414.72 119.740235 
L 414.72 41.472 
" style="fill: none; stroke: #000000; stroke-width: 0.8; stroke-linejoin: miter; stroke-linecap: square"/>
   </g>
   <g id="patch_5">
    <path d="M 57.6 119.740235 
L 414.72 119.740235 
" style="fill: none; stroke: #000000; stroke-width: 0.8; stroke-linejoin: miter; stroke-linecap: square"/>
   </g>
   <g id="patch_6">
    <path d="M 57.6 41.472 
L 414.72 41.472 
" style="fill: none; stroke: #000000; stroke-width: 0.8; stroke-linejoin: miter; stroke-linecap: square"/>
   </g>
  </g>
  <g id="axes_2">
   <g id="patch_7">
    <path d="M 57.6 213.662118 
L 414.72 213.662118 
L 414.72 135.393882 
L 57.6 135.393882 
z
" style="fill: #ffffff"/>
   </g>
   <g id="matplotlib.axis_3">
    <g id="xtick_7">
     <g id="line2d_11">
      <g>
       <use xlink:href="#mbcb02aef95" x="73.832727" y="213.662118" style="stroke: #000000; stroke-width: 0.8"/>
      </g>
     </g>
     <g id="text_10">
      <!-- 0.00 -->
      <g transform="translate(62.699915 228.260555) scale(0.1 -0.1)">
       <use xlink:href="#DejaVuSans-30"/>
       <use xlink:href="#DejaVuSans-2e" x="63.623047"/>
       <use xlink:href="#DejaVuSans-30" x="95.410156"/>
       <use xlink:href="#DejaVuSans-30" x="159.033203"/>
      </g>
     </g>
    </g>
    <g id="xtick_8">
     <g id="line2d_12">
      <g>
       <use xlink:href="#mbcb02aef95" x="138.763636" y="213.662118" style="stroke: #000000; stroke-width: 0.8"/>
      </g>
     </g>
     <g id="text_11">
      <!-- 0.02 -->
      <g transform="translate(127.630824 228.260555) scale(0.1 -0.1)">
       <use xlink:href="#DejaVuSans-30"/>
       <use xlink:href="#DejaVuSans-2e" x="63.623047"/>
       <use xlink:href="#DejaVuSans-30" x="95.410156"/>
       <use xlink:href="#DejaVuSans-32" x="159.033203"/>
      </g>
     </g>
    </g>
    <g id="xtick_9">
     <g id="line2d_13">
      <g>
       <use xlink:href="#mbcb02aef95" x="203.694545" y="213.662118" style="stroke: #000000; stroke-width: 0.8"/>
      </g>
     </g>
     <g id="text_12">
      <!-- 0.04 -->
      <g transform="translate(192.561733 228.260555) scale(0.1 -0.1)">
       <use xlink:href="#DejaVuSans-30"/>
       <use xlink:href="#DejaVuSans-2e" x="63.623047"/>
       <use xlink:href="#DejaVuSans-30" x="95.410156"/>
       <use xlink:href="#DejaVuSans-34" x="159.033203"/>
      </g>
     </g>
    </g>
    <g id="xtick_10">
     <g id="line2d_14">
      <g>
       <use xlink:href="#mbcb02aef95" x="268.625455" y="213.662118" style="stroke: #000000; stroke-width: 0.8"/>
      </g>
     </g>
     <g id="text_13">
      <!-- 0.06 -->
      <g transform="translate(257.492642 228.260555) scale(0.1 -0.1)">
       <use xlink:href="#DejaVuSans-30"/>
       <use xlink:href="#DejaVuSans-2e" x="63.623047"/>
       <use xlink:href="#DejaVuSans-30" x="95.410156"/>
       <use xlink:href="#DejaVuSans-36" x="159.033203"/>
      </g>
     </g>
    </g>
    <g id="xtick_11">
     <g id="line2d_15">
      <g>
       <use xlink:href="#mbcb02aef95" x="333.556364" y="213.662118" style="stroke: #000000; stroke-width: 0.8"/>
      </g>
     </g>
     <g id="text_14">
      <!-- 0.08 -->
      <g transform="translate(322.423551 228.260555) scale(0.1 -0.1)">
       <use xlink:href="#DejaVuSans-30"/>
       <use xlink:href="#DejaVuSans-2e" x="63.623047"/>
       <use xlink:href="#DejaVuSans-30" x="95.410156"/>
       <use xlink:href="#DejaVuSans-38" x="159.033203"/>
      </g>
     </g>
    </g>
    <g id="xtick_12">
     <g id="line2d_16">
      <g>
       <use xlink:href="#mbcb02aef95" x="398.487273" y="213.662118" style="stroke: #000000; stroke-width: 0.8"/>
      </g>
     </g>
     <g id="text_15">
      <!-- 0.10 -->
      <g transform="translate(387.35446 228.260555) scale(0.1 -0.1)">
       <use xlink:href="#DejaVuSans-30"/>
       <use xlink:href="#DejaVuSans-2e" x="63.623047"/>
       <use xlink:href="#DejaVuSans-31" x="95.410156"/>
       <use xlink:href="#DejaVuSans-30" x="159.033203"/>
      </g>
     </g>
    </g>
   </g>
   <g id="matplotlib.axis_4">
    <g id="ytick_4">
     <g id="line2d_17">
      <g>
       <use xlink:href="#me5179b328b" x="57.6" y="203.126449" style="stroke: #000000; stroke-width: 0.8"/>
      </g>
     </g>
     <g id="text_16">
      <!-- −250 -->
      <g transform="translate(23.132812 206.925668) scale(0.1 -0.1)">
       <use xlink:href="#DejaVuSans-2212"/>
       <use xlink:href="#DejaVuSans-32" x="83.789062"/>
       <use xlink:href="#DejaVuSans-35" x="147.412109"/>
       <use xlink:href="#DejaVuSans-30" x="211.035156"/>
      </g>
     </g>
    </g>
    <g id="ytick_5">
     <g id="line2d_18">
      <g>
       <use xlink:href="#me5179b328b" x="57.6" y="174.528" style="stroke: #000000; stroke-width: 0.8"/>
      </g>
     </g>
     <g id="text_17">
      <!-- 0 -->
      <g transform="translate(44.2375 178.327219) scale(0.1 -0.1)">
       <use xlink:href="#DejaVuSans-30"/>
      </g>
     </g>
    </g>
    <g id="ytick_6">
     <g id="line2d_19">
      <g>
       <use xlink:href="#me5179b328b" x="57.6" y="145.929551" style="stroke: #000000; stroke-width: 0.8"/>
      </g>
     </g>
     <g id="text_18">
      <!-- 250 -->
      <g transform="translate(31.5125 149.72877) scale(0.1 -0.1)">
       <use xlink:href="#DejaVuSans-32"/>
       <use xlink:href="#DejaVuSans-35" x="63.623047"/>
       <use xlink:href="#DejaVuSans-30" x="127.246094"/>
      </g>
     </g>
    </g>
   </g>
   <g id="line2d_20">
    <path d="M 73.832727 174.031684 
L 77.432825 159.632659 
L 79.359652 152.835351 
L 80.914749 148.123781 
L 82.241288 144.778138 
L 83.39641 142.43629 
L 84.412256 140.852096 
L 85.310251 139.840877 
L 86.11085 139.256827 
L 86.838401 138.990179 
L 87.525371 138.97108 
L 88.209744 139.17692 
L 88.92788 139.632798 
L 89.709 140.403867 
L 90.575504 141.587106 
L 91.546546 143.308344 
L 92.642256 145.725382 
L 93.890554 149.043896 
L 95.336892 153.552129 
L 97.076393 159.743437 
L 99.408389 168.938079 
L 105.077512 191.600646 
L 106.875126 197.698104 
L 108.358149 201.981564 
L 109.632744 205.01817 
L 110.746635 207.127934 
L 111.727418 208.535624 
L 112.596194 209.414984 
L 113.373743 209.901358 
L 114.08636 210.09409 
L 114.768784 210.050507 
L 115.459325 209.77947 
L 116.192396 209.243907 
L 116.995268 208.369088 
L 117.889042 207.049914 
L 118.892551 205.152527 
L 120.027544 202.507547 
L 121.32519 198.89199 
L 122.840029 193.979268 
L 124.695107 187.162474 
L 127.385197 176.330388 
L 131.592725 159.442304 
L 133.507539 152.708539 
L 135.056467 148.033634 
L 136.378462 144.714676 
L 137.530337 142.392137 
L 138.543261 140.823011 
L 139.438659 139.823233 
L 140.23731 139.247518 
L 140.963563 138.987147 
L 141.649883 138.973249 
L 142.33458 139.184289 
L 143.054015 139.64658 
L 143.837083 140.426139 
L 144.705859 141.620389 
L 145.679499 143.355733 
L 146.778456 145.791262 
L 148.03065 149.133435 
L 149.482506 153.674187 
L 151.230773 159.913817 
L 153.586144 169.218394 
L 159.125081 191.377232 
L 160.935356 197.544559 
L 162.425847 201.872486 
L 163.705961 204.941542 
L 164.824072 207.075353 
L 165.808751 208.501769 
L 166.680449 209.394737 
L 167.46027 209.89129 
L 168.174511 210.091895 
L 168.85726 210.055094 
L 169.546827 209.791387 
L 170.278274 209.264745 
L 171.078873 208.401421 
L 171.969401 207.097852 
L 172.969338 205.220228 
L 174.100111 202.600488 
L 175.392238 199.018264 
L 176.899286 194.15132 
L 178.740728 187.407242 
L 181.381146 176.797028 
L 185.735417 159.316703 
L 187.64244 152.62442 
L 189.187148 147.974194 
L 190.506221 144.672665 
L 191.655823 142.363136 
L 192.666799 140.803956 
L 193.560574 139.811615 
L 194.357926 139.241421 
L 195.083205 138.985224 
L 195.769201 138.97475 
L 196.454222 139.189294 
L 197.174307 139.655711 
L 197.958348 140.440503 
L 198.828423 141.641581 
L 199.803687 143.385838 
L 200.904591 145.832829 
L 202.159382 149.190329 
L 203.614486 153.750868 
L 205.368271 160.020893 
L 207.738576 169.395506 
L 213.196999 191.241822 
L 215.015066 197.451871 
L 216.509777 201.805876 
L 217.793138 204.894473 
L 218.914171 207.043593 
L 219.901122 208.481207 
L 220.774768 209.382557 
L 221.556212 209.885312 
L 222.271427 210.090522 
L 222.954501 210.057639 
L 223.643743 209.79801 
L 224.374217 209.276437 
L 225.173192 208.420026 
L 226.062097 207.125044 
L 227.059762 205.259155 
L 228.187937 202.654368 
L 229.476817 199.091613 
L 230.97932 194.251334 
L 232.812971 187.549025 
L 235.426118 177.061311 
L 239.867396 159.23128 
L 241.769225 152.566867 
L 243.31101 147.93362 
L 244.628135 144.643887 
L 245.776115 142.343391 
L 246.785467 140.791376 
L 247.678268 139.803865 
L 248.474646 139.237419 
L 249.199601 138.983924 
L 249.885596 138.975853 
L 250.570943 139.192946 
L 251.291677 139.662498 
L 252.076692 140.451465 
L 252.947741 141.65772 
L 253.924303 143.408885 
L 255.026831 145.864972 
L 256.28357 149.234147 
L 257.741595 153.811337 
L 259.499926 160.106055 
L 261.882568 169.538219 
L 267.277358 191.136948 
L 269.101269 197.379481 
L 270.599551 201.754578 
L 271.885509 204.858429 
L 273.00849 207.018782 
L 273.997064 208.464947 
L 274.872334 209.372983 
L 275.654752 209.880454 
L 276.370616 210.089353 
L 277.05369 210.059714 
L 277.742607 209.803518 
L 278.472432 209.286046 
L 279.270433 208.434879 
L 280.15804 207.146766 
L 281.154081 205.289855 
L 282.280309 202.696611 
L 283.566591 199.149279 
L 285.065523 194.329958 
L 286.893005 187.660659 
L 289.485374 177.266619 
L 293.996129 159.158061 
L 295.893412 152.517835 
L 297.432925 147.89846 
L 298.748427 144.618805 
L 299.895108 142.325981 
L 300.903486 140.779687 
L 301.795313 139.79673 
L 302.591042 139.233614 
L 303.315347 138.982761 
L 304.001018 138.97683 
L 304.686364 139.195997 
L 305.407423 139.667978 
L 306.193088 140.460147 
L 307.065111 141.670819 
L 308.042646 143.427428 
L 309.146473 145.890813 
L 310.404835 149.269541 
L 311.864808 153.858795 
L 313.62671 160.172906 
L 316.019092 169.650455 
L 321.364534 191.056834 
L 323.192991 197.32444 
L 324.694195 201.716122 
L 325.982101 204.831409 
L 327.106705 207.000453 
L 328.096578 208.453054 
L 328.972821 209.365795 
L 329.756213 209.876909 
L 330.472402 210.088461 
L 331.155801 210.061148 
L 331.844394 209.807422 
L 332.573568 209.293039 
L 333.370596 208.446027 
L 334.256904 207.163609 
L 335.251646 205.313746 
L 336.376251 202.729756 
L 337.660586 199.194259 
L 339.156595 194.391755 
L 340.979208 187.74849 
L 343.555344 177.427726 
L 348.121939 159.095797 
L 350.015651 152.475185 
L 351.553217 147.867799 
L 352.867095 144.597399 
L 354.012477 142.311457 
L 355.019881 140.77015 
L 355.910734 139.791073 
L 356.705814 139.230672 
L 357.429795 138.981841 
L 358.115466 138.977671 
L 358.801137 139.198751 
L 359.522845 139.673209 
L 360.309159 140.468467 
L 361.182156 141.683432 
L 362.160665 143.445355 
L 363.265791 145.915901 
L 364.525451 149.303094 
L 365.987372 153.904123 
L 367.752521 160.236132 
L 370.153993 169.756096 
L 375.453334 190.982559 
L 377.286336 197.274462 
L 378.789812 201.680191 
L 380.079342 204.805734 
L 381.205245 206.982621 
L 382.196416 208.441523 
L 383.073633 209.358846 
L 383.857675 209.873336 
L 384.574513 210.087584 
L 385.257911 210.062559 
L 385.94618 209.811301 
L 386.674705 209.300002 
L 387.471084 208.456735 
L 388.356418 207.17934 
L 389.350186 205.335569 
L 390.473167 202.760388 
L 391.755554 199.236268 
L 393.249291 194.44791 
L 395.067683 187.827519 
L 397.629535 177.571401 
L 398.487273 174.031684 
L 398.487273 174.031684 
" clip-path="url(#p1e985ffe1f)" style="fill: none; stroke: #1f77b4; stroke-width: 1.5; stroke-linecap: square"/>
   </g>
   <g id="patch_8">
    <path d="M 57.6 213.662118 
L 57.6 135.393882 
" style="fill: none; stroke: #000000; stroke-width: 0.8; stroke-linejoin: miter; stroke-linecap: square"/>
   </g>
   <g id="patch_9">
    <path d="M 414.72 213.662118 
L 414.72 135.393882 
" style="fill: none; stroke: #000000; stroke-width: 0.8; stroke-linejoin: miter; stroke-linecap: square"/>
   </g>
   <g id="patch_10">
    <path d="M 57.6 213.662118 
L 414.72 213.662118 
" style="fill: none; stroke: #000000; stroke-width: 0.8; stroke-linejoin: miter; stroke-linecap: square"/>
   </g>
   <g id="patch_11">
    <path d="M 57.6 135.393882 
L 414.72 135.393882 
" style="fill: none; stroke: #000000; stroke-width: 0.8; stroke-linejoin: miter; stroke-linecap: square"/>
   </g>
  </g>
  <g id="axes_3">
   <g id="patch_12">
    <path d="M 57.6 307.584 
L 414.72 307.584 
L 414.72 229.315765 
L 57.6 229.315765 
z
" style="fill: #ffffff"/>
   </g>
   <g id="matplotlib.axis_5">
    <g id="xtick_13">
     <g id="line2d_21">
      <g>
       <use xlink:href="#mbcb02aef95" x="73.832727" y="307.584" style="stroke: #000000; stroke-width: 0.8"/>
      </g>
     </g>
     <g id="text_19">
      <!-- 0.00 -->
      <g transform="translate(62.699915 322.182437) scale(0.1 -0.1)">
       <use xlink:href="#DejaVuSans-30"/>
       <use xlink:href="#DejaVuSans-2e" x="63.623047"/>
       <use xlink:href="#DejaVuSans-30" x="95.410156"/>
       <use xlink:href="#DejaVuSans-30" x="159.033203"/>
      </g>
     </g>
    </g>
    <g id="xtick_14">
     <g id="line2d_22">
      <g>
       <use xlink:href="#mbcb02aef95" x="138.763636" y="307.584" style="stroke: #000000; stroke-width: 0.8"/>
      </g>
     </g>
     <g id="text_20">
      <!-- 0.02 -->
      <g transform="translate(127.630824 322.182437) scale(0.1 -0.1)">
       <use xlink:href="#DejaVuSans-30"/>
       <use xlink:href="#DejaVuSans-2e" x="63.623047"/>
       <use xlink:href="#DejaVuSans-30" x="95.410156"/>
       <use xlink:href="#DejaVuSans-32" x="159.033203"/>
      </g>
     </g>
    </g>
    <g id="xtick_15">
     <g id="line2d_23">
      <g>
       <use xlink:href="#mbcb02aef95" x="203.694545" y="307.584" style="stroke: #000000; stroke-width: 0.8"/>
      </g>
     </g>
     <g id="text_21">
      <!-- 0.04 -->
      <g transform="translate(192.561733 322.182437) scale(0.1 -0.1)">
       <use xlink:href="#DejaVuSans-30"/>
       <use xlink:href="#DejaVuSans-2e" x="63.623047"/>
       <use xlink:href="#DejaVuSans-30" x="95.410156"/>
       <use xlink:href="#DejaVuSans-34" x="159.033203"/>
      </g>
     </g>
    </g>
    <g id="xtick_16">
     <g id="line2d_24">
      <g>
       <use xlink:href="#mbcb02aef95" x="268.625455" y="307.584" style="stroke: #000000; stroke-width: 0.8"/>
      </g>
     </g>
     <g id="text_22">
      <!-- 0.06 -->
      <g transform="translate(257.492642 322.182437) scale(0.1 -0.1)">
       <use xlink:href="#DejaVuSans-30"/>
       <use xlink:href="#DejaVuSans-2e" x="63.623047"/>
       <use xlink:href="#DejaVuSans-30" x="95.410156"/>
       <use xlink:href="#DejaVuSans-36" x="159.033203"/>
      </g>
     </g>
    </g>
    <g id="xtick_17">
     <g id="line2d_25">
      <g>
       <use xlink:href="#mbcb02aef95" x="333.556364" y="307.584" style="stroke: #000000; stroke-width: 0.8"/>
      </g>
     </g>
     <g id="text_23">
      <!-- 0.08 -->
      <g transform="translate(322.423551 322.182437) scale(0.1 -0.1)">
       <use xlink:href="#DejaVuSans-30"/>
       <use xlink:href="#DejaVuSans-2e" x="63.623047"/>
       <use xlink:href="#DejaVuSans-30" x="95.410156"/>
       <use xlink:href="#DejaVuSans-38" x="159.033203"/>
      </g>
     </g>
    </g>
    <g id="xtick_18">
     <g id="line2d_26">
      <g>
       <use xlink:href="#mbcb02aef95" x="398.487273" y="307.584" style="stroke: #000000; stroke-width: 0.8"/>
      </g>
     </g>
     <g id="text_24">
      <!-- 0.10 -->
      <g transform="translate(387.35446 322.182437) scale(0.1 -0.1)">
       <use xlink:href="#DejaVuSans-30"/>
       <use xlink:href="#DejaVuSans-2e" x="63.623047"/>
       <use xlink:href="#DejaVuSans-31" x="95.410156"/>
       <use xlink:href="#DejaVuSans-30" x="159.033203"/>
      </g>
     </g>
    </g>
   </g>
   <g id="matplotlib.axis_6">
    <g id="ytick_7">
     <g id="line2d_27">
      <g>
       <use xlink:href="#me5179b328b" x="57.6" y="297.048331" style="stroke: #000000; stroke-width: 0.8"/>
      </g>
     </g>
     <g id="text_25">
      <!-- −250 -->
      <g transform="translate(23.132812 300.84755) scale(0.1 -0.1)">
       <use xlink:href="#DejaVuSans-2212"/>
       <use xlink:href="#DejaVuSans-32" x="83.789062"/>
       <use xlink:href="#DejaVuSans-35" x="147.412109"/>
       <use xlink:href="#DejaVuSans-30" x="211.035156"/>
      </g>
     </g>
    </g>
    <g id="ytick_8">
     <g id="line2d_28">
      <g>
       <use xlink:href="#me5179b328b" x="57.6" y="268.449882" style="stroke: #000000; stroke-width: 0.8"/>
      </g>
     </g>
     <g id="text_26">
      <!-- 0 -->
      <g transform="translate(44.2375 272.249101) scale(0.1 -0.1)">
       <use xlink:href="#DejaVuSans-30"/>
      </g>
     </g>
    </g>
    <g id="ytick_9">
     <g id="line2d_29">
      <g>
       <use xlink:href="#me5179b328b" x="57.6" y="239.851433" style="stroke: #000000; stroke-width: 0.8"/>
      </g>
     </g>
     <g id="text_27">
      <!-- 250 -->
      <g transform="translate(31.5125 243.650652) scale(0.1 -0.1)">
       <use xlink:href="#DejaVuSans-32"/>
       <use xlink:href="#DejaVuSans-35" x="63.623047"/>
       <use xlink:href="#DejaVuSans-30" x="127.246094"/>
      </g>
     </g>
    </g>
   </g>
   <g id="line2d_30">
    <path d="M 73.832727 268.449882 
L 77.549376 253.56802 
L 79.476852 246.766871 
L 81.032598 242.052015 
L 82.359463 238.704482 
L 83.514909 236.361105 
L 84.530755 234.77617 
L 85.42875 233.764269 
L 86.229349 233.179598 
L 86.9569 232.912379 
L 87.64387 232.892738 
L 88.328243 233.098039 
L 89.046379 233.553358 
L 89.827499 234.323828 
L 90.693678 235.505917 
L 91.664396 237.225684 
L 92.759782 239.640917 
L 94.007755 242.957296 
L 95.453768 247.46311 
L 97.192294 253.649383 
L 99.522018 262.833386 
L 105.203478 285.543628 
L 106.999793 291.634165 
L 108.481843 295.912771 
L 109.756113 298.946916 
L 110.86968 301.054613 
L 111.850137 302.46063 
L 112.718589 303.338687 
L 113.495813 303.824089 
L 114.20843 304.016163 
L 114.890855 303.97195 
L 115.581396 303.700278 
L 116.314791 303.163754 
L 117.117987 302.287685 
L 118.012087 300.966937 
L 119.01592 299.067626 
L 120.151238 296.420369 
L 121.449532 292.801228 
L 122.965021 287.884376 
L 124.821723 281.059359 
L 127.517007 270.204134 
L 131.709925 253.375198 
L 133.625389 246.637906 
L 135.174642 241.960946 
L 136.496961 238.640265 
L 137.648836 236.316934 
L 138.66176 234.747069 
L 139.557482 233.746315 
L 140.356133 233.170103 
L 141.082386 232.909274 
L 141.769031 232.894988 
L 142.453729 233.105702 
L 143.173164 233.567654 
L 143.955907 234.346468 
L 144.824358 235.539691 
L 145.797674 237.273696 
L 146.896306 239.707559 
L 148.148175 243.047743 
L 149.599382 247.585134 
L 151.346999 253.820948 
L 153.700423 263.11632 
L 159.250398 285.317934 
L 161.059374 291.478645 
L 162.549216 295.802891 
L 163.828681 298.868945 
L 164.946792 301.001531 
L 165.931145 302.426411 
L 166.802844 303.318466 
L 167.582665 303.814188 
L 168.296581 304.013988 
L 168.97933 303.976557 
L 169.669222 303.712037 
L 170.400994 303.184327 
L 171.201593 302.320048 
L 172.092446 301.014911 
L 173.092707 299.13537 
L 174.223805 296.513359 
L 175.516256 292.928533 
L 177.023953 288.057611 
L 178.866694 281.306699 
L 181.511657 270.676164 
L 185.852293 253.250789 
L 187.76029 246.55377 
L 189.305322 241.90149 
L 190.62472 238.598242 
L 191.774322 236.287922 
L 192.785298 234.728003 
L 193.679397 233.73469 
L 194.47675 233.163998 
L 195.202353 232.907285 
L 195.888674 232.896533 
L 196.573695 233.110857 
L 197.29378 233.577045 
L 198.077821 234.361592 
L 198.947896 235.562407 
L 199.92316 237.306381 
L 201.024064 239.753074 
L 202.278855 243.110268 
L 203.733959 247.670502 
L 205.487744 253.940247 
L 207.857725 263.313321 
L 213.318095 285.16718 
L 215.135838 291.375738 
L 216.630549 295.729424 
L 217.913909 298.817708 
L 219.034618 300.965984 
L 220.021569 302.403464 
L 220.895215 303.30469 
L 221.676659 303.807333 
L 222.391874 304.01244 
L 223.074948 303.979457 
L 223.76419 303.719728 
L 224.494664 303.19805 
L 225.293639 302.341527 
L 226.182544 301.046424 
L 227.180209 299.180405 
L 228.308384 296.575482 
L 229.597264 293.012589 
L 231.099767 288.172173 
L 232.933418 281.46974 
L 235.546889 270.980604 
L 239.987194 253.154452 
L 241.889022 246.489873 
L 243.431133 241.85556 
L 244.748258 238.565816 
L 245.896237 236.265311 
L 246.905589 234.713286 
L 247.79839 233.725766 
L 248.594769 233.159313 
L 249.319723 232.90581 
L 250.005719 232.897732 
L 250.691065 233.114818 
L 251.411799 233.584363 
L 252.196814 234.373322 
L 253.067863 235.579569 
L 254.044425 237.330725 
L 255.146953 239.786802 
L 256.403692 243.155968 
L 257.861717 247.733148 
L 259.620048 254.027858 
L 262.00269 263.460015 
L 267.39748 285.058753 
L 269.221391 291.301297 
L 270.719673 295.676404 
L 272.005631 298.780266 
L 273.128612 300.940628 
L 274.117186 302.386803 
L 274.992456 303.294847 
L 275.774874 303.802327 
L 276.490738 304.011233 
L 277.173812 303.981601 
L 277.86273 303.725412 
L 278.592554 303.207947 
L 279.390556 302.356787 
L 280.278162 301.068683 
L 281.274203 299.211781 
L 282.400431 296.618546 
L 283.686713 293.071224 
L 285.185645 288.251913 
L 287.013127 281.582623 
L 289.605496 271.188588 
L 294.116251 253.080022 
L 296.013534 246.439786 
L 297.553048 241.820401 
L 298.868549 238.540735 
L 300.01523 236.2479 
L 301.023608 234.701597 
L 301.915435 233.718631 
L 302.711164 233.155507 
L 303.435469 232.904647 
L 304.12114 232.898709 
L 304.806487 233.117869 
L 305.527545 233.589843 
L 306.31321 234.382005 
L 307.185233 235.592668 
L 308.162769 237.349268 
L 309.266595 239.812644 
L 310.524958 243.191362 
L 311.984931 247.780606 
L 313.746832 254.094708 
L 316.139214 263.572251 
L 321.484657 284.978639 
L 323.313113 291.246255 
L 324.814317 295.637949 
L 326.102223 298.753246 
L 327.226827 300.922299 
L 328.2167 302.37491 
L 329.092944 303.28766 
L 329.876336 303.798782 
L 330.592524 304.010341 
L 331.275923 303.983035 
L 331.964516 303.729316 
L 332.693691 303.21494 
L 333.490718 302.367935 
L 334.377026 301.085526 
L 335.371769 299.235672 
L 336.496373 296.651692 
L 337.780708 293.116204 
L 339.276718 288.31371 
L 341.09933 281.670453 
L 343.675466 271.349695 
L 348.242062 253.017758 
L 350.135774 246.397136 
L 351.673339 241.78974 
L 352.987217 238.519329 
L 354.1326 236.233377 
L 355.140004 234.69206 
L 356.030857 233.712974 
L 356.825937 233.152565 
L 357.549917 232.903727 
L 358.235588 232.89955 
L 358.921259 233.120623 
L 359.642967 233.595074 
L 360.429281 234.390324 
L 361.302278 235.605281 
L 362.280788 237.367195 
L 363.385913 239.837732 
L 364.645574 243.224915 
L 366.107495 247.825934 
L 367.872643 254.157935 
L 370.274115 263.677892 
L 375.573457 284.904364 
L 377.406458 291.196277 
L 378.909935 295.602017 
L 380.199464 298.72757 
L 381.325367 300.904468 
L 382.316538 302.363379 
L 383.193756 303.28071 
L 383.977797 303.795208 
L 384.694635 304.009464 
L 385.378034 303.984446 
L 386.066302 303.733195 
L 386.794828 303.221903 
L 387.591206 302.378644 
L 388.47654 301.101257 
L 389.470308 299.257495 
L 390.59329 296.682323 
L 391.875676 293.158213 
L 393.369413 288.369864 
L 395.187805 281.749483 
L 397.749657 271.49337 
L 398.487273 268.449882 
L 398.487273 268.449882 
" clip-path="url(#p4b28241f59)" style="fill: none; stroke: #1f77b4; stroke-width: 1.5; stroke-linecap: square"/>
   </g>
   <g id="line2d_31">
    <path d="M 73.832727 267.953566 
L 77.432825 253.554541 
L 79.359652 246.757233 
L 80.914749 242.045663 
L 82.241288 238.700021 
L 83.39641 236.358172 
L 84.412256 234.773979 
L 85.310251 233.762759 
L 86.11085 233.178709 
L 86.838401 232.912062 
L 87.525371 232.892963 
L 88.209744 233.098802 
L 88.92788 233.55468 
L 89.709 234.325749 
L 90.575504 235.508989 
L 91.546546 237.230226 
L 92.642256 239.647265 
L 93.890554 242.965778 
L 95.336892 247.474012 
L 97.076393 253.665319 
L 99.408389 262.859961 
L 105.077512 285.522528 
L 106.875126 291.619986 
L 108.358149 295.903446 
L 109.632744 298.940052 
L 110.746635 301.049816 
L 111.727418 302.457506 
L 112.596194 303.336866 
L 113.373743 303.82324 
L 114.08636 304.015972 
L 114.768784 303.97239 
L 115.459325 303.701352 
L 116.192396 303.165789 
L 116.995268 302.29097 
L 117.889042 300.971797 
L 118.892551 299.074409 
L 120.027544 296.42943 
L 121.32519 292.813872 
L 122.840029 287.901151 
L 124.695107 281.084357 
L 127.385197 270.25227 
L 131.592725 253.364187 
L 133.507539 246.630421 
L 135.056467 241.955517 
L 136.378462 238.636558 
L 137.530337 236.314019 
L 138.543261 234.744894 
L 139.438659 233.745115 
L 140.23731 233.169401 
L 140.963563 232.90903 
L 141.649883 232.895132 
L 142.33458 233.106172 
L 143.054015 233.568462 
L 143.837083 234.348021 
L 144.705859 235.542272 
L 145.679499 237.277615 
L 146.778456 239.713144 
L 148.03065 243.055318 
L 149.482506 247.596069 
L 151.230773 253.8357 
L 153.586144 263.140277 
L 159.125081 285.299114 
L 160.935356 291.466441 
L 162.425847 295.794369 
L 163.705961 298.863424 
L 164.824072 300.997235 
L 165.808751 302.423652 
L 166.680449 303.316619 
L 167.46027 303.813173 
L 168.174511 304.013777 
L 168.85726 303.976977 
L 169.546827 303.713269 
L 170.278274 303.186627 
L 171.078873 302.323303 
L 171.969401 301.019734 
L 172.969338 299.14211 
L 174.100111 296.52237 
L 175.392238 292.940146 
L 176.899286 288.073203 
L 178.740728 281.329124 
L 181.381146 270.71891 
L 185.735417 253.238585 
L 187.64244 246.546302 
L 189.187148 241.896076 
L 190.506221 238.594547 
L 191.655823 236.285019 
L 192.666799 234.725838 
L 193.560574 233.733498 
L 194.357926 233.163303 
L 195.083205 232.907106 
L 195.769201 232.896633 
L 196.454222 233.111176 
L 197.174307 233.577593 
L 197.958348 234.362385 
L 198.828423 235.563463 
L 199.803687 237.30772 
L 200.904591 239.754711 
L 202.159382 243.112212 
L 203.614486 247.67275 
L 205.368271 253.942776 
L 207.738576 263.317388 
L 213.196999 285.163705 
L 215.015066 291.373753 
L 216.509777 295.727758 
L 217.793138 298.816356 
L 218.914171 300.965475 
L 219.901122 302.40309 
L 220.774768 303.304439 
L 221.556212 303.807194 
L 222.271427 304.012405 
L 222.954501 303.979521 
L 223.643743 303.719892 
L 224.374217 303.198319 
L 225.173192 302.341908 
L 226.062097 301.046927 
L 227.059762 299.181037 
L 228.187937 296.57625 
L 229.476817 293.013496 
L 230.97932 288.173217 
L 232.812971 281.470907 
L 235.426118 270.983193 
L 239.867396 253.153163 
L 241.769225 246.488749 
L 243.31101 241.855503 
L 244.628135 238.565769 
L 245.776115 236.265274 
L 246.785467 234.713259 
L 247.678268 233.725747 
L 248.474646 233.159302 
L 249.199601 232.905806 
L 249.885596 232.897736 
L 250.570943 233.114828 
L 251.291677 233.58438 
L 252.076692 234.373347 
L 252.947741 235.579602 
L 253.924303 237.330767 
L 255.026831 239.786854 
L 256.28357 243.15603 
L 257.741595 247.733219 
L 259.499926 254.027937 
L 261.882568 263.460101 
L 267.277358 285.05883 
L 269.101269 291.301364 
L 270.599551 295.67646 
L 271.885509 298.780312 
L 273.00849 300.940664 
L 273.997064 302.386829 
L 274.872334 303.294865 
L 275.654752 303.802337 
L 276.370616 304.011236 
L 277.05369 303.981596 
L 277.742607 303.7254 
L 278.472432 303.207928 
L 279.270433 302.356761 
L 280.15804 301.068649 
L 281.154081 299.211738 
L 282.280309 296.618493 
L 283.566591 293.071161 
L 285.065523 288.251841 
L 286.893005 281.582542 
L 289.485374 271.188502 
L 293.996129 253.079943 
L 295.893412 246.439718 
L 297.432925 241.820343 
L 298.748427 238.540688 
L 299.895108 236.247863 
L 300.903486 234.701569 
L 301.795313 233.718612 
L 302.591042 233.155497 
L 303.315347 232.904644 
L 304.001018 232.898712 
L 304.686364 233.117879 
L 305.407423 233.58986 
L 306.193088 234.38203 
L 307.065111 235.592701 
L 308.042646 237.349311 
L 309.146473 239.812696 
L 310.404835 243.191424 
L 311.864808 247.780677 
L 313.62671 254.094788 
L 316.019092 263.572338 
L 321.364534 284.978716 
L 323.192991 291.246322 
L 324.694195 295.638005 
L 325.982101 298.753292 
L 327.106705 300.922335 
L 328.096578 302.374936 
L 328.972821 303.287677 
L 329.756213 303.798791 
L 330.472402 304.010343 
L 331.155801 303.98303 
L 331.844394 303.729305 
L 332.573568 303.214921 
L 333.370596 302.367909 
L 334.256904 301.085491 
L 335.251646 299.235628 
L 336.376251 296.651638 
L 337.660586 293.116141 
L 339.156595 288.313638 
L 340.979208 281.670372 
L 343.555344 271.349608 
L 348.121939 253.017679 
L 350.015651 246.397068 
L 351.553217 241.789682 
L 352.867095 238.519282 
L 354.012477 236.23334 
L 355.019881 234.692032 
L 355.910734 233.712955 
L 356.705814 233.152554 
L 357.429795 232.903723 
L 358.115466 232.899553 
L 358.801137 233.120634 
L 359.522845 233.595092 
L 360.309159 234.390349 
L 361.182156 235.605315 
L 362.160665 237.367237 
L 363.265791 239.837784 
L 364.525451 243.224976 
L 365.987372 247.826005 
L 367.752521 254.158014 
L 370.153993 263.677978 
L 375.453334 284.904442 
L 377.286336 291.196345 
L 378.789812 295.602073 
L 380.079342 298.727616 
L 381.205245 300.904504 
L 382.196416 302.363406 
L 383.073633 303.280728 
L 383.857675 303.795218 
L 384.574513 304.009467 
L 385.257911 303.984441 
L 385.94618 303.733183 
L 386.674705 303.221884 
L 387.471084 302.378617 
L 388.356418 301.101222 
L 389.350186 299.257451 
L 390.473167 296.68227 
L 391.755554 293.158151 
L 393.249291 288.369792 
L 395.067683 281.749402 
L 397.629535 271.493283 
L 398.487273 267.953566 
L 398.487273 267.953566 
" clip-path="url(#p4b28241f59)" style="fill: none; stroke: #ff7f0e; stroke-width: 1.5; stroke-linecap: square"/>
   </g>
   <g id="patch_13">
    <path d="M 57.6 307.584 
L 57.6 229.315765 
" style="fill: none; stroke: #000000; stroke-width: 0.8; stroke-linejoin: miter; stroke-linecap: square"/>
   </g>
   <g id="patch_14">
    <path d="M 414.72 307.584 
L 414.72 229.315765 
" style="fill: none; stroke: #000000; stroke-width: 0.8; stroke-linejoin: miter; stroke-linecap: square"/>
   </g>
   <g id="patch_15">
    <path d="M 57.6 307.584 
L 414.72 307.584 
" style="fill: none; stroke: #000000; stroke-width: 0.8; stroke-linejoin: miter; stroke-linecap: square"/>
   </g>
   <g id="patch_16">
    <path d="M 57.6 229.315765 
L 414.72 229.315765 
" style="fill: none; stroke: #000000; stroke-width: 0.8; stroke-linejoin: miter; stroke-linecap: square"/>
   </g>
  </g>
 </g>
 <defs>
  <clipPath id="pe1596cb1e6">
   <rect x="57.6" y="41.472" width="357.12" height="78.268235"/>
  </clipPath>
  <clipPath id="p1e985ffe1f">
   <rect x="57.6" y="135.393882" width="357.12" height="78.268235"/>
  </clipPath>
  <clipPath id="p4b28241f59">
   <rect x="57.6" y="229.315765" width="357.12" height="78.268235"/>
  </clipPath>
 </defs>
</svg>
