<?xml version="1.0" encoding="utf-8" standalone="no"?>
<!DOCTYPE svg PUBLIC "-//W3C//DTD SVG 1.1//EN"
  "http://www.w3.org/Graphics/SVG/1.1/DTD/svg11.dtd">
<svg xmlns:xlink="http://www.w3.org/1999/xlink" width="460.8pt" height="345.6pt" viewBox="0 0 460.8 345.6" xmlns="http://www.w3.org/2000/svg" version="1.1">
 <metadata>
  <rdf:RDF xmlns:dc="http://purl.org/dc/elements/1.1/" xmlns:cc="http://creativecommons.org/ns#" xmlns:rdf="http://www.w3.org/1999/02/22-rdf-syntax-ns#">
   <cc:Work>
    <dc:type rdf:resource="http://purl.org/dc/dcmitype/StillImage"/>
    <dc:format>image/svg+xml</dc:format>
    <dc:creator>
     <cc:Agent>
      <dc:title>Matplotlib v3.8.4, https://matplotlib.org/</dc:title>
     </cc:Agent>
    </dc:creator>
   </cc:Work>
  </rdf:RDF>
 </metadata>
 <defs>
  <style type="text/css">*{stroke-linejoin: round; stroke-linecap: butt}</style>
 </defs>
 <g id="figure_1">
  <g id="patch_1">
   <path d="M 0 345.6 
L 460.8 345.6 
L 460.8 0 
L 0 0 
z
" style="fill: #ffffff"/>
  </g>
  <g id="axes_1">
   <g id="patch_2">
    <path d="M 55.296 303.64 
L 221.289892 303.64 
L 221.289892 14.76 
L 55.296 14.76 
z
" style="fill: #ffffff"/>
   </g>
   <g id="matplotlib.axis_1">
    <g id="xtick_1">
     <g id="line2d_1">
      <defs>
       <path id="mbcb02aef95" d="M 0 0 
L 0 3.5 
" style="stroke: #000000; stroke-width: 0.8"/>
      </defs>
      <g>
       <use xlink:href="#mbcb02aef95" x="55.296" y="303.64" style="stroke: #000000; stroke-width: 0.8"/>
      </g>
     </g>
     <g id="text_1">
      <!-- 0.0 -->
      <g transform="translate(47.344437 318.238437) scale(0.1 -0.1)">
       <defs>
        <path id="DejaVuSans-30" d="M 2034 4250 
Q 1547 4250 1301 3770 
Q 1056 3291 1056 2328 
Q 1056 1369 1301 889 
Q 1547 409 2034 409 
Q 2525 409 2770 889 
Q 3016 1369 3016 2328 
Q 3016 3291 2770 3770 
Q 2525 4250 2034 4250 
z
M 2034 4750 
Q 2819 4750 3233 4129 
Q 3647 3509 3647 2328 
Q 3647 1150 3233 529 
Q 2819 -91 2034 -91 
Q 1250 -91 836 529 
Q 422 1150 422 2328 
Q 422 3509 836 4129 
Q 1250 4750 2034 4750 
z
" transform="scale(0.015625)"/>
        <path id="DejaVuSans-2e" d="M 684 794 
L 1344 794 
L 1344 0 
L 684 0 
L 684 794 
z
" transform="scale(0.015625)"/>
       </defs>
       <use xlink:href="#DejaVuSans-30"/>
       <use xlink:href="#DejaVuSans-2e" x="63.623047"/>
       <use xlink:href="#DejaVuSans-30" x="95.410156"/>
      </g>
     </g>
    </g>
    <g id="xtick_2">
     <g id="line2d_2">
      <g>
       <use xlink:href="#mbcb02aef95" x="88.494778" y="303.64" style="stroke: #000000; stroke-width: 0.8"/>
      </g>
     </g>
     <g id="text_2">
      <!-- 0.2 -->
      <g transform="translate(80.543216 318.238437) scale(0.1 -0.1)">
       <defs>
        <path id="DejaVuSans-32" d="M 1228 531 
L 3431 531 
L 3431 0 
L 469 0 
L 469 531 
Q 828 903 1448 1529 
Q 2069 2156 2228 2338 
Q 2531 2678 2651 2914 
Q 2772 3150 2772 3378 
Q 2772 3750 2511 3984 
Q 2250 4219 1831 4219 
Q 1534 4219 1204 4116 
Q 875 4013 500 3803 
L 500 4441 
Q 881 4594 1212 4672 
Q 1544 4750 1819 4750 
Q 2544 4750 2975 4387 
Q 3406 4025 3406 3419 
Q 3406 3131 3298 2873 
Q 3191 2616 2906 2266 
Q 2828 2175 2409 1742 
Q 1991 1309 1228 531 
z
" transform="scale(0.015625)"/>
       </defs>
       <use xlink:href="#DejaVuSans-30"/>
       <use xlink:href="#DejaVuSans-2e" x="63.623047"/>
       <use xlink:href="#DejaVuSans-32" x="95.410156"/>
      </g>
     </g>
    </g>
    <g id="xtick_3">
     <g id="line2d_3">
      <g>
       <use xlink:href="#mbcb02aef95" x="121.693557" y="303.64" style="stroke: #000000; stroke-width: 0.8"/>
      </g>
     </g>
     <g id="text_3">
      <!-- 0.4 -->
      <g transform="translate(113.741994 318.238437) scale(0.1 -0.1)">
       <defs>
        <path id="DejaVuSans-34" d="M 2419 4116 
L 825 1625 
L 2419 1625 
L 2419 4116 
z
M 2253 4666 
L 3047 4666 
L 3047 1625 
L 3713 1625 
L 3713 1100 
L 3047 1100 
L 3047 0 
L 2419 0 
L 2419 1100 
L 313 1100 
L 313 1709 
L 2253 4666 
z
" transform="scale(0.015625)"/>
       </defs>
       <use xlink:href="#DejaVuSans-30"/>
       <use xlink:href="#DejaVuSans-2e" x="63.623047"/>
       <use xlink:href="#DejaVuSans-34" x="95.410156"/>
      </g>
     </g>
    </g>
    <g id="xtick_4">
     <g id="line2d_4">
      <g>
       <use xlink:href="#mbcb02aef95" x="154.892335" y="303.64" style="stroke: #000000; stroke-width: 0.8"/>
      </g>
     </g>
     <g id="text_4">
      <!-- 0.6 -->
      <g transform="translate(146.940772 318.238437) scale(0.1 -0.1)">
       <defs>
        <path id="DejaVuSans-36" d="M 2113 2584 
Q 1688 2584 1439 2293 
Q 1191 2003 1191 1497 
Q 1191 994 1439 701 
Q 1688 409 2113 409 
Q 2538 409 2786 701 
Q 3034 994 3034 1497 
Q 3034 2003 2786 2293 
Q 2538 2584 2113 2584 
z
M 3366 4563 
L 3366 3988 
Q 3128 4100 2886 4159 
Q 2644 4219 2406 4219 
Q 1781 4219 1451 3797 
Q 1122 3375 1075 2522 
Q 1259 2794 1537 2939 
Q 1816 3084 2150 3084 
Q 2853 3084 3261 2657 
Q 3669 2231 3669 1497 
Q 3669 778 3244 343 
Q 2819 -91 2113 -91 
Q 1303 -91 875 529 
Q 447 1150 447 2328 
Q 447 3434 972 4092 
Q 1497 4750 2381 4750 
Q 2619 4750 2861 4703 
Q 3103 4656 3366 4563 
z
" transform="scale(0.015625)"/>
       </defs>
       <use xlink:href="#DejaVuSans-30"/>
       <use xlink:href="#DejaVuSans-2e" x="63.623047"/>
       <use xlink:href="#DejaVuSans-36" x="95.410156"/>
      </g>
     </g>
    </g>
    <g id="xtick_5">
     <g id="line2d_5">
      <g>
       <use xlink:href="#mbcb02aef95" x="188.091113" y="303.64" style="stroke: #000000; stroke-width: 0.8"/>
      </g>
     </g>
     <g id="text_5">
      <!-- 0.8 -->
      <g transform="translate(180.139551 318.238437) scale(0.1 -0.1)">
       <defs>
        <path id="DejaVuSans-38" d="M 2034 2216 
Q 1584 2216 1326 1975 
Q 1069 1734 1069 1313 
Q 1069 891 1326 650 
Q 1584 409 2034 409 
Q 2484 409 2743 651 
Q 3003 894 3003 1313 
Q 3003 1734 2745 1975 
Q 2488 2216 2034 2216 
z
M 1403 2484 
Q 997 2584 770 2862 
Q 544 3141 544 3541 
Q 544 4100 942 4425 
Q 1341 4750 2034 4750 
Q 2731 4750 3128 4425 
Q 3525 4100 3525 3541 
Q 3525 3141 3298 2862 
Q 3072 2584 2669 2484 
Q 3125 2378 3379 2068 
Q 3634 1759 3634 1313 
Q 3634 634 3220 271 
Q 2806 -91 2034 -91 
Q 1263 -91 848 271 
Q 434 634 434 1313 
Q 434 1759 690 2068 
Q 947 2378 1403 2484 
z
M 1172 3481 
Q 1172 3119 1398 2916 
Q 1625 2713 2034 2713 
Q 2441 2713 2670 2916 
Q 2900 3119 2900 3481 
Q 2900 3844 2670 4047 
Q 2441 4250 2034 4250 
Q 1625 4250 1398 4047 
Q 1172 3844 1172 3481 
z
" transform="scale(0.015625)"/>
       </defs>
       <use xlink:href="#DejaVuSans-30"/>
       <use xlink:href="#DejaVuSans-2e" x="63.623047"/>
       <use xlink:href="#DejaVuSans-38" x="95.410156"/>
      </g>
     </g>
    </g>
    <g id="xtick_6">
     <g id="line2d_6">
      <g>
       <use xlink:href="#mbcb02aef95" x="221.289892" y="303.64" style="stroke: #000000; stroke-width: 0.8"/>
      </g>
     </g>
     <g id="text_6">
      <!-- 1.0 -->
      <g transform="translate(213.338329 318.238437) scale(0.1 -0.1)">
       <defs>
        <path id="DejaVuSans-31" d="M 794 531 
L 1825 531 
L 1825 4091 
L 703 3866 
L 703 4441 
L 1819 4666 
L 2450 4666 
L 2450 531 
L 3481 531 
L 3481 0 
L 794 0 
L 794 531 
z
" transform="scale(0.015625)"/>
       </defs>
       <use xlink:href="#DejaVuSans-31"/>
       <use xlink:href="#DejaVuSans-2e" x="63.623047"/>
       <use xlink:href="#DejaVuSans-30" x="95.410156"/>
      </g>
     </g>
    </g>
    <g id="text_7">
     <!-- Time -->
     <g transform="translate(126.059352 331.916562) scale(0.1 -0.1)">
      <defs>
       <path id="DejaVuSans-54" d="M -19 4666 
L 3928 4666 
L 3928 4134 
L 2272 4134 
L 2272 0 
L 1638 0 
L 1638 4134 
L -19 4134 
L -19 4666 
z
" transform="scale(0.015625)"/>
       <path id="DejaVuSans-69" d="M 603 3500 
L 1178 3500 
L 1178 0 
L 603 0 
L 603 3500 
z
M 603 4863 
L 1178 4863 
L 1178 4134 
L 603 4134 
L 603 4863 
z
" transform="scale(0.015625)"/>
       <path id="DejaVuSans-6d" d="M 3328 2828 
Q 3544 3216 3844 3400 
Q 4144 3584 4550 3584 
Q 5097 3584 5394 3201 
Q 5691 2819 5691 2113 
L 5691 0 
L 5113 0 
L 5113 2094 
Q 5113 2597 4934 2840 
Q 4756 3084 4391 3084 
Q 3944 3084 3684 2787 
Q 3425 2491 3425 1978 
L 3425 0 
L 2847 0 
L 2847 2094 
Q 2847 2600 2669 2842 
Q 2491 3084 2119 3084 
Q 1678 3084 1418 2786 
Q 1159 2488 1159 1978 
L 1159 0 
L 581 0 
L 581 3500 
L 1159 3500 
L 1159 2956 
Q 1356 3278 1631 3431 
Q 1906 3584 2284 3584 
Q 2666 3584 2933 3390 
Q 3200 3197 3328 2828 
z
" transform="scale(0.015625)"/>
       <path id="DejaVuSans-65" d="M 3597 1894 
L 3597 1613 
L 953 1613 
Q 991 1019 1311 708 
Q 1631 397 2203 397 
Q 2534 397 2845 478 
Q 3156 559 3463 722 
L 3463 178 
Q 3153 47 2828 -22 
Q 2503 -91 2169 -91 
Q 1331 -91 842 396 
Q 353 884 353 1716 
Q 353 2575 817 3079 
Q 1281 3584 2069 3584 
Q 2775 3584 3186 3129 
Q 3597 2675 3597 1894 
z
M 3022 2063 
Q 3016 2534 2758 2815 
Q 2500 3097 2075 3097 
Q 1594 3097 1305 2825 
Q 1016 2553 972 2059 
L 3022 2063 
z
" transform="scale(0.015625)"/>
      </defs>
      <use xlink:href="#DejaVuSans-54"/>
      <use xlink:href="#DejaVuSans-69" x="57.958984"/>
      <use xlink:href="#DejaVuSans-6d" x="85.742188"/>
      <use xlink:href="#DejaVuSans-65" x="183.154297"/>
     </g>
    </g>
   </g>
   <g id="matplotlib.axis_2">
    <g id="ytick_1">
     <g id="line2d_7">
      <defs>
       <path id="me5179b328b" d="M 0 0 
L -3.5 0 
" style="stroke: #000000; stroke-width: 0.8"/>
      </defs>
      <g>
       <use xlink:href="#me5179b328b" x="55.296" y="298.059427" style="stroke: #000000; stroke-width: 0.8"/>
      </g>
     </g>
     <g id="text_8">
      <!-- −8 -->
      <g transform="translate(33.553812 301.858646) scale(0.1 -0.1)">
       <defs>
        <path id="DejaVuSans-2212" d="M 678 2272 
L 4684 2272 
L 4684 1741 
L 678 1741 
L 678 2272 
z
" transform="scale(0.015625)"/>
       </defs>
       <use xlink:href="#DejaVuSans-2212"/>
       <use xlink:href="#DejaVuSans-38" x="83.789062"/>
      </g>
     </g>
    </g>
    <g id="ytick_2">
     <g id="line2d_8">
      <g>
       <use xlink:href="#me5179b328b" x="55.296" y="258.385193" style="stroke: #000000; stroke-width: 0.8"/>
      </g>
     </g>
     <g id="text_9">
      <!-- −6 -->
      <g transform="translate(33.553812 262.184412) scale(0.1 -0.1)">
       <use xlink:href="#DejaVuSans-2212"/>
       <use xlink:href="#DejaVuSans-36" x="83.789062"/>
      </g>
     </g>
    </g>
    <g id="ytick_3">
     <g id="line2d_9">
      <g>
       <use xlink:href="#me5179b328b" x="55.296" y="218.710959" style="stroke: #000000; stroke-width: 0.8"/>
      </g>
     </g>
     <g id="text_10">
      <!-- −4 -->
      <g transform="translate(33.553812 222.510178) scale(0.1 -0.1)">
       <use xlink:href="#DejaVuSans-2212"/>
       <use xlink:href="#DejaVuSans-34" x="83.789062"/>
      </g>
     </g>
    </g>
    <g id="ytick_4">
     <g id="line2d_10">
      <g>
       <use xlink:href="#me5179b328b" x="55.296" y="179.036725" style="stroke: #000000; stroke-width: 0.8"/>
      </g>
     </g>
     <g id="text_11">
      <!-- −2 -->
      <g transform="translate(33.553812 182.835943) scale(0.1 -0.1)">
       <use xlink:href="#DejaVuSans-2212"/>
       <use xlink:href="#DejaVuSans-32" x="83.789062"/>
      </g>
     </g>
    </g>
    <g id="ytick_5">
     <g id="line2d_11">
      <g>
       <use xlink:href="#me5179b328b" x="55.296" y="139.362491" style="stroke: #000000; stroke-width: 0.8"/>
      </g>
     </g>
     <g id="text_12">
      <!-- 0 -->
      <g transform="translate(41.9335 143.161709) scale(0.1 -0.1)">
       <use xlink:href="#DejaVuSans-30"/>
      </g>
     </g>
    </g>
    <g id="ytick_6">
     <g id="line2d_12">
      <g>
       <use xlink:href="#me5179b328b" x="55.296" y="99.688256" style="stroke: #000000; stroke-width: 0.8"/>
      </g>
     </g>
     <g id="text_13">
      <!-- 2 -->
      <g transform="translate(41.9335 103.487475) scale(0.1 -0.1)">
       <use xlink:href="#DejaVuSans-32"/>
      </g>
     </g>
    </g>
    <g id="ytick_7">
     <g id="line2d_13">
      <g>
       <use xlink:href="#me5179b328b" x="55.296" y="60.014022" style="stroke: #000000; stroke-width: 0.8"/>
      </g>
     </g>
     <g id="text_14">
      <!-- 4 -->
      <g transform="translate(41.9335 63.813241) scale(0.1 -0.1)">
       <use xlink:href="#DejaVuSans-34"/>
      </g>
     </g>
    </g>
    <g id="ytick_8">
     <g id="line2d_14">
      <g>
       <use xlink:href="#me5179b328b" x="55.296" y="20.339788" style="stroke: #000000; stroke-width: 0.8"/>
      </g>
     </g>
     <g id="text_15">
      <!-- 6 -->
      <g transform="translate(41.9335 24.139007) scale(0.1 -0.1)">
       <use xlink:href="#DejaVuSans-36"/>
      </g>
     </g>
    </g>
    <g id="text_16">
     <!-- Amplitude -->
     <g transform="translate(27.474125 184.822656) rotate(-90) scale(0.1 -0.1)">
      <defs>
       <path id="DejaVuSans-41" d="M 2188 4044 
L 1331 1722 
L 3047 1722 
L 2188 4044 
z
M 1831 4666 
L 2547 4666 
L 4325 0 
L 3669 0 
L 3244 1197 
L 1141 1197 
L 716 0 
L 50 0 
L 1831 4666 
z
" transform="scale(0.015625)"/>
       <path id="DejaVuSans-70" d="M 1159 525 
L 1159 -1331 
L 581 -1331 
L 581 3500 
L 1159 3500 
L 1159 2969 
Q 1341 3281 1617 3432 
Q 1894 3584 2278 3584 
Q 2916 3584 3314 3078 
Q 3713 2572 3713 1747 
Q 3713 922 3314 415 
Q 2916 -91 2278 -91 
Q 1894 -91 1617 61 
Q 1341 213 1159 525 
z
M 3116 1747 
Q 3116 2381 2855 2742 
Q 2594 3103 2138 3103 
Q 1681 3103 1420 2742 
Q 1159 2381 1159 1747 
Q 1159 1113 1420 752 
Q 1681 391 2138 391 
Q 2594 391 2855 752 
Q 3116 1113 3116 1747 
z
" transform="scale(0.015625)"/>
       <path id="DejaVuSans-6c" d="M 603 4863 
L 1178 4863 
L 1178 0 
L 603 0 
L 603 4863 
z
" transform="scale(0.015625)"/>
       <path id="DejaVuSans-74" d="M 1172 4494 
L 1172 3500 
L 2356 3500 
L 2356 3053 
L 1172 3053 
L 1172 1153 
Q 1172 725 1289 603 
Q 1406 481 1766 481 
L 2356 481 
L 2356 0 
L 1766 0 
Q 1100 0 847 248 
Q 594 497 594 1153 
L 594 3053 
L 172 3053 
L 172 3500 
L 594 3500 
L 594 4494 
L 1172 4494 
z
" transform="scale(0.015625)"/>
       <path id="DejaVuSans-75" d="M 544 1381 
L 544 3500 
L 1119 3500 
L 1119 1403 
Q 1119 906 1312 657 
Q 1506 409 1894 409 
Q 2359 409 2629 706 
Q 2900 1003 2900 1516 
L 2900 3500 
L 3475 3500 
L 3475 0 
L 2900 0 
L 2900 538 
Q 2691 219 2414 64 
Q 2138 -91 1772 -91 
Q 1169 -91 856 284 
Q 544 659 544 1381 
z
M 1991 3584 
L 1991 3584 
z
" transform="scale(0.015625)"/>
       <path id="DejaVuSans-64" d="M 2906 2969 
L 2906 4863 
L 3481 4863 
L 3481 0 
L 2906 0 
L 2906 525 
Q 2725 213 2448 61 
Q 2172 -91 1784 -91 
Q 1150 -91 751 415 
Q 353 922 353 1747 
Q 353 2572 751 3078 
Q 1150 3584 1784 3584 
Q 2172 3584 2448 3432 
Q 2725 3281 2906 2969 
z
M 947 1747 
Q 947 1113 1208 752 
Q 1469 391 1925 391 
Q 2381 391 2643 752 
Q 2906 1113 2906 1747 
Q 2906 2381 2643 2742 
Q 2381 3103 1925 3103 
Q 1469 3103 1208 2742 
Q 947 2381 947 1747 
z
" transform="scale(0.015625)"/>
      </defs>
      <use xlink:href="#DejaVuSans-41"/>
      <use xlink:href="#DejaVuSans-6d" x="68.408203"/>
      <use xlink:href="#DejaVuSans-70" x="165.820312"/>
      <use xlink:href="#DejaVuSans-6c" x="229.296875"/>
      <use xlink:href="#DejaVuSans-69" x="257.080078"/>
      <use xlink:href="#DejaVuSans-74" x="284.863281"/>
      <use xlink:href="#DejaVuSans-75" x="324.072266"/>
      <use xlink:href="#DejaVuSans-64" x="387.451172"/>
      <use xlink:href="#DejaVuSans-65" x="450.927734"/>
     </g>
    </g>
   </g>
   <g id="line2d_15">
    <path d="M 55.296 139.362491 
L 221.289892 139.362491 
" clip-path="url(#p2bdac6fa71)" style="fill: none; stroke: #000000; stroke-width: 1.5; stroke-linecap: square"/>
   </g>
   <g id="line2d_16">
    <path d="M 55.296 118.079025 
L 56.192546 101.502289 
L 56.856655 92.841008 
L 57.387941 88.477111 
L 57.786406 86.798299 
L 58.05205 86.45666 
L 58.218077 86.560723 
L 58.417309 87.007308 
L 58.716158 88.329556 
L 59.114623 91.284516 
L 59.612705 96.806922 
L 60.243607 106.461044 
L 61.073743 122.92226 
L 62.335549 153.106701 
L 64.294669 199.595246 
L 65.15801 214.951266 
L 65.822118 223.117602 
L 66.320199 226.797721 
L 66.685459 228.059201 
L 66.884691 228.217172 
L 67.050718 228.058871 
L 67.283156 227.391699 
L 67.582005 225.769159 
L 67.98047 222.278149 
L 68.478552 215.837243 
L 69.109454 204.568176 
L 69.906385 185.98205 
L 71.002163 154.532311 
L 74.189884 59.413041 
L 75.020019 42.59746 
L 75.650922 33.819684 
L 76.149003 29.610576 
L 76.514263 28.12274 
L 76.746701 27.892191 
L 76.912728 28.06962 
L 77.145166 28.7955 
L 77.47722 30.789352 
L 77.908891 35.024596 
L 78.440177 42.663137 
L 79.104286 55.630657 
L 79.967627 77.199529 
L 81.262638 115.989353 
L 83.553812 184.767672 
L 84.516769 206.821493 
L 85.247288 219.031328 
L 85.844986 225.740819 
L 86.309862 228.835232 
L 86.641916 229.907021 
L 86.874354 230.102037 
L 87.040381 229.967148 
L 87.272819 229.403734 
L 87.604873 227.86781 
L 88.036544 224.664583 
L 88.601036 218.638904 
L 89.36476 207.815273 
L 90.593361 186.632296 
L 92.220426 159.313788 
L 93.017356 149.415014 
L 93.615054 144.431689 
L 94.046724 142.353197 
L 94.345573 141.717179 
L 94.544806 141.670311 
L 94.744038 141.929874 
L 95.009682 142.756276 
L 95.374941 144.788991 
L 95.839817 148.854065 
L 96.404309 155.914504 
L 97.134828 168.159473 
L 98.097786 188.517741 
L 101.61756 267.251825 
L 102.281668 276.025953 
L 102.812955 280.431295 
L 103.178215 281.976202 
L 103.410653 282.299128 
L 103.57668 282.208248 
L 103.775912 281.741148 
L 104.074761 280.302174 
L 104.473226 277.002196 
L 104.971307 270.684061 
L 105.569005 260.013317 
L 106.33273 241.914204 
L 107.295687 213.257495 
L 108.856342 158.884106 
L 110.68264 97.20418 
L 111.645597 71.646997 
L 112.409321 56.778447 
L 113.007019 49.010048 
L 113.471895 45.466127 
L 113.803949 44.298755 
L 114.003182 44.143552 
L 114.169209 44.32417 
L 114.401647 45.044925 
L 114.733701 47.002199 
L 115.165371 51.115329 
L 115.729863 58.978556 
L 116.427177 72.084234 
L 117.390134 94.864969 
L 120.943114 183.687272 
L 121.673633 194.946823 
L 122.238126 200.742088 
L 122.669796 203.337156 
L 123.00185 204.222202 
L 123.201083 204.287827 
L 123.36711 204.077322 
L 123.599548 203.381741 
L 123.931602 201.592515 
L 124.363272 197.921147 
L 124.927764 190.994479 
L 125.658284 178.947417 
L 126.654446 158.43145 
L 129.543318 96.593333 
L 130.307042 85.717128 
L 130.90474 80.103762 
L 131.33641 77.81765 
L 131.635259 77.147084 
L 131.834492 77.122599 
L 132.033724 77.438262 
L 132.299368 78.387974 
L 132.664627 80.671492 
L 133.129503 85.171459 
L 133.727201 93.423075 
L 134.45772 106.830211 
L 135.453882 129.604385 
L 138.840835 211.055781 
L 139.60456 222.710512 
L 140.202257 228.69142 
L 140.633928 231.134547 
L 140.932777 231.870019 
L 141.132009 231.921051 
L 141.298036 231.694972 
L 141.56368 230.828017 
L 141.895734 228.881878 
L 142.327404 224.963611 
L 142.891896 217.61901 
L 143.622416 204.831546 
L 144.585373 183.675454 
L 147.839504 108.498914 
L 148.570023 97.927833 
L 149.134515 92.693936 
L 149.53298 90.705356 
L 149.798624 90.201908 
L 149.964651 90.228122 
L 150.163883 90.60885 
L 150.429527 91.711384 
L 150.794786 94.334205 
L 151.259662 99.493755 
L 151.85736 108.987551 
L 152.587879 124.537359 
L 153.550836 150.36581 
L 155.177902 201.314574 
L 156.771762 248.668728 
L 157.701513 270.068914 
L 158.398827 281.560262 
L 158.963319 287.533819 
L 159.361784 289.833528 
L 159.660633 290.48884 
L 159.82666 290.453922 
L 160.025893 290.036102 
L 160.291536 288.844816 
L 160.656796 286.041124 
L 161.121672 280.584234 
L 161.719369 270.661493 
L 162.483094 253.806972 
L 163.479256 226.435071 
L 167.29788 115.972795 
L 168.09481 101.516013 
L 168.725713 93.723745 
L 169.223794 89.979636 
L 169.589054 88.593075 
L 169.821492 88.300991 
L 169.987519 88.367907 
L 170.186751 88.744805 
L 170.4856 89.898487 
L 170.884065 92.478525 
L 171.415352 97.60193 
L 172.112665 106.772242 
L 173.108828 123.161678 
L 175.366797 161.185428 
L 176.130521 170.132469 
L 176.695013 174.470571 
L 177.126684 176.289961 
L 177.392327 176.722298 
L 177.558354 176.719019 
L 177.757587 176.433797 
L 178.02323 175.573028 
L 178.38849 173.493313 
L 178.853366 169.370044 
L 179.417858 162.243626 
L 180.148377 149.925218 
L 181.111334 129.499026 
L 184.597903 51.408836 
L 185.295217 42.198687 
L 185.826504 37.870773 
L 186.191763 36.382702 
L 186.424201 36.097046 
L 186.590228 36.214928 
L 186.789461 36.714723 
L 187.08831 38.203042 
L 187.486775 41.568637 
L 187.984856 47.966908 
L 188.582554 58.728182 
L 189.346278 76.928683 
L 190.309235 105.681074 
L 191.86989 160.111409 
L 193.662983 220.6983 
L 194.62594 246.371795 
L 195.389664 261.354871 
L 195.987362 269.221675 
L 196.452238 272.844825 
L 196.784292 274.069114 
L 196.983525 274.258272 
L 197.149552 274.10571 
L 197.38199 273.423704 
L 197.680838 271.758943 
L 198.079303 268.20806 
L 198.61059 261.255831 
L 199.274699 249.403898 
L 200.171245 229.003414 
L 201.7319 187.235584 
L 203.259349 148.510856 
L 204.155895 130.971893 
L 204.853209 121.287156 
L 205.384496 116.575387 
L 205.782961 114.641915 
L 206.048604 114.127941 
L 206.214631 114.121621 
L 206.413864 114.431757 
L 206.679507 115.377922 
L 207.044767 117.64869 
L 207.509643 122.086581 
L 208.10734 130.115949 
L 208.90427 144.216106 
L 210.06646 169.346465 
L 212.224812 216.277053 
L 213.054948 229.56164 
L 213.685851 236.586273 
L 214.183932 239.964276 
L 214.549191 241.141862 
L 214.781629 241.30235 
L 214.947657 241.133852 
L 215.180094 240.500942 
L 215.512149 238.797519 
L 215.943819 235.203752 
L 216.475106 228.735922 
L 217.139214 217.765709 
L 218.002555 199.557894 
L 219.363977 165.35441 
L 221.223481 119.495083 
L 221.289892 118.079025 
L 221.289892 118.079025 
" clip-path="url(#p2bdac6fa71)" style="fill: none; stroke: #008000; stroke-width: 1.5; stroke-linecap: square"/>
   </g>
   <g id="line2d_17">
    <path d="M 90.16169 194.357333 
L 90.16169 139.362491 
" clip-path="url(#p2bdac6fa71)" style="fill: none; stroke: #ff0000; stroke-width: 1.5; stroke-linecap: square"/>
    <defs>
     <path id="m24430a847c" d="M 0 3 
C 0.795609 3 1.55874 2.683901 2.12132 2.12132 
C 2.683901 1.55874 3 0.795609 3 0 
C 3 -0.795609 2.683901 -1.55874 2.12132 -2.12132 
C 1.55874 -2.683901 0.795609 -3 0 -3 
C -0.795609 -3 -1.55874 -2.683901 -2.12132 -2.12132 
C -2.683901 -1.55874 -3 -0.795609 -3 0 
C -3 0.795609 -2.683901 1.55874 -2.12132 2.12132 
C -1.55874 2.683901 -0.795609 3 0 3 
z
" style="stroke: #ff0000"/>
    </defs>
    <g clip-path="url(#p2bdac6fa71)">
     <use xlink:href="#m24430a847c" x="90.16169" y="194.357333" style="fill: #ff0000; stroke: #ff0000"/>
    </g>
   </g>
   <g id="patch_3">
    <path d="M 55.296 303.64 
L 55.296 14.76 
" style="fill: none; stroke: #000000; stroke-width: 0.8; stroke-linejoin: miter; stroke-linecap: square"/>
   </g>
   <g id="patch_4">
    <path d="M 221.289892 303.64 
L 221.289892 14.76 
" style="fill: none; stroke: #000000; stroke-width: 0.8; stroke-linejoin: miter; stroke-linecap: square"/>
   </g>
   <g id="patch_5">
    <path d="M 55.296 303.64 
L 221.289892 303.64 
" style="fill: none; stroke: #000000; stroke-width: 0.8; stroke-linejoin: miter; stroke-linecap: square"/>
   </g>
   <g id="patch_6">
    <path d="M 55.296 14.76 
L 221.289892 14.76 
" style="fill: none; stroke: #000000; stroke-width: 0.8; stroke-linejoin: miter; stroke-linecap: square"/>
   </g>
  </g>
  <g id="axes_2">
   <g id="patch_7">
    <path d="M 284.006108 242.196946 
L 450 242.196946 
L 450 76.203054 
L 284.006108 76.203054 
z
" style="fill: #ffffff"/>
   </g>
   <g id="matplotlib.axis_3">
    <g id="xtick_7">
     <g id="line2d_18">
      <g>
       <use xlink:href="#mbcb02aef95" x="317.490013" y="242.196946" style="stroke: #000000; stroke-width: 0.8"/>
      </g>
     </g>
     <g id="text_17">
      <!-- −5 -->
      <g transform="translate(310.118919 256.795383) scale(0.1 -0.1)">
       <defs>
        <path id="DejaVuSans-35" d="M 691 4666 
L 3169 4666 
L 3169 4134 
L 1269 4134 
L 1269 2991 
Q 1406 3038 1543 3061 
Q 1681 3084 1819 3084 
Q 2600 3084 3056 2656 
Q 3513 2228 3513 1497 
Q 3513 744 3044 326 
Q 2575 -91 1722 -91 
Q 1428 -91 1123 -41 
Q 819 9 494 109 
L 494 744 
Q 775 591 1075 516 
Q 1375 441 1709 441 
Q 2250 441 2565 725 
Q 2881 1009 2881 1497 
Q 2881 1984 2565 2268 
Q 2250 2553 1709 2553 
Q 1456 2553 1204 2497 
Q 953 2441 691 2322 
L 691 4666 
z
" transform="scale(0.015625)"/>
       </defs>
       <use xlink:href="#DejaVuSans-2212"/>
       <use xlink:href="#DejaVuSans-35" x="83.789062"/>
      </g>
     </g>
    </g>
    <g id="xtick_8">
     <g id="line2d_19">
      <g>
       <use xlink:href="#mbcb02aef95" x="367.003054" y="242.196946" style="stroke: #000000; stroke-width: 0.8"/>
      </g>
     </g>
     <g id="text_18">
      <!-- 0 -->
      <g transform="translate(363.821804 256.795383) scale(0.1 -0.1)">
       <use xlink:href="#DejaVuSans-30"/>
      </g>
     </g>
    </g>
    <g id="xtick_9">
     <g id="line2d_20">
      <g>
       <use xlink:href="#mbcb02aef95" x="416.516096" y="242.196946" style="stroke: #000000; stroke-width: 0.8"/>
      </g>
     </g>
     <g id="text_19">
      <!-- 5 -->
      <g transform="translate(413.334846 256.795383) scale(0.1 -0.1)">
       <use xlink:href="#DejaVuSans-35"/>
      </g>
     </g>
    </g>
    <g id="text_20">
     <!-- Real -->
     <g transform="translate(356.224148 270.473508) scale(0.1 -0.1)">
      <defs>
       <path id="DejaVuSans-52" d="M 2841 2188 
Q 3044 2119 3236 1894 
Q 3428 1669 3622 1275 
L 4263 0 
L 3584 0 
L 2988 1197 
Q 2756 1666 2539 1819 
Q 2322 1972 1947 1972 
L 1259 1972 
L 1259 0 
L 628 0 
L 628 4666 
L 2053 4666 
Q 2853 4666 3247 4331 
Q 3641 3997 3641 3322 
Q 3641 2881 3436 2590 
Q 3231 2300 2841 2188 
z
M 1259 4147 
L 1259 2491 
L 2053 2491 
Q 2509 2491 2742 2702 
Q 2975 2913 2975 3322 
Q 2975 3731 2742 3939 
Q 2509 4147 2053 4147 
L 1259 4147 
z
" transform="scale(0.015625)"/>
       <path id="DejaVuSans-61" d="M 2194 1759 
Q 1497 1759 1228 1600 
Q 959 1441 959 1056 
Q 959 750 1161 570 
Q 1363 391 1709 391 
Q 2188 391 2477 730 
Q 2766 1069 2766 1631 
L 2766 1759 
L 2194 1759 
z
M 3341 1997 
L 3341 0 
L 2766 0 
L 2766 531 
Q 2569 213 2275 61 
Q 1981 -91 1556 -91 
Q 1019 -91 701 211 
Q 384 513 384 1019 
Q 384 1609 779 1909 
Q 1175 2209 1959 2209 
L 2766 2209 
L 2766 2266 
Q 2766 2663 2505 2880 
Q 2244 3097 1772 3097 
Q 1472 3097 1187 3025 
Q 903 2953 641 2809 
L 641 3341 
Q 956 3463 1253 3523 
Q 1550 3584 1831 3584 
Q 2591 3584 2966 3190 
Q 3341 2797 3341 1997 
z
" transform="scale(0.015625)"/>
      </defs>
      <use xlink:href="#DejaVuSans-52"/>
      <use xlink:href="#DejaVuSans-65" x="64.982422"/>
      <use xlink:href="#DejaVuSans-61" x="126.505859"/>
      <use xlink:href="#DejaVuSans-6c" x="187.785156"/>
     </g>
    </g>
   </g>
   <g id="matplotlib.axis_4">
    <g id="ytick_9">
     <g id="line2d_21">
      <g>
       <use xlink:href="#me5179b328b" x="284.006108" y="233.469562" style="stroke: #000000; stroke-width: 0.8"/>
      </g>
     </g>
     <g id="text_21">
      <!-- −7.5 -->
      <g transform="translate(252.723296 237.268781) scale(0.1 -0.1)">
       <defs>
        <path id="DejaVuSans-37" d="M 525 4666 
L 3525 4666 
L 3525 4397 
L 1831 0 
L 1172 0 
L 2766 4134 
L 525 4134 
L 525 4666 
z
" transform="scale(0.015625)"/>
       </defs>
       <use xlink:href="#DejaVuSans-2212"/>
       <use xlink:href="#DejaVuSans-37" x="83.789062"/>
       <use xlink:href="#DejaVuSans-2e" x="147.412109"/>
       <use xlink:href="#DejaVuSans-35" x="179.199219"/>
      </g>
     </g>
    </g>
    <g id="ytick_10">
     <g id="line2d_22">
      <g>
       <use xlink:href="#me5179b328b" x="284.006108" y="208.713041" style="stroke: #000000; stroke-width: 0.8"/>
      </g>
     </g>
     <g id="text_22">
      <!-- −5.0 -->
      <g transform="translate(252.723296 212.51226) scale(0.1 -0.1)">
       <use xlink:href="#DejaVuSans-2212"/>
       <use xlink:href="#DejaVuSans-35" x="83.789062"/>
       <use xlink:href="#DejaVuSans-2e" x="147.412109"/>
       <use xlink:href="#DejaVuSans-30" x="179.199219"/>
      </g>
     </g>
    </g>
    <g id="ytick_11">
     <g id="line2d_23">
      <g>
       <use xlink:href="#me5179b328b" x="284.006108" y="183.956521" style="stroke: #000000; stroke-width: 0.8"/>
      </g>
     </g>
     <g id="text_23">
      <!-- −2.5 -->
      <g transform="translate(252.723296 187.755739) scale(0.1 -0.1)">
       <use xlink:href="#DejaVuSans-2212"/>
       <use xlink:href="#DejaVuSans-32" x="83.789062"/>
       <use xlink:href="#DejaVuSans-2e" x="147.412109"/>
       <use xlink:href="#DejaVuSans-35" x="179.199219"/>
      </g>
     </g>
    </g>
    <g id="ytick_12">
     <g id="line2d_24">
      <g>
       <use xlink:href="#me5179b328b" x="284.006108" y="159.2" style="stroke: #000000; stroke-width: 0.8"/>
      </g>
     </g>
     <g id="text_24">
      <!-- 0.0 -->
      <g transform="translate(261.102983 162.999219) scale(0.1 -0.1)">
       <use xlink:href="#DejaVuSans-30"/>
       <use xlink:href="#DejaVuSans-2e" x="63.623047"/>
       <use xlink:href="#DejaVuSans-30" x="95.410156"/>
      </g>
     </g>
    </g>
    <g id="ytick_13">
     <g id="line2d_25">
      <g>
       <use xlink:href="#me5179b328b" x="284.006108" y="134.443479" style="stroke: #000000; stroke-width: 0.8"/>
      </g>
     </g>
     <g id="text_25">
      <!-- 2.5 -->
      <g transform="translate(261.102983 138.242698) scale(0.1 -0.1)">
       <use xlink:href="#DejaVuSans-32"/>
       <use xlink:href="#DejaVuSans-2e" x="63.623047"/>
       <use xlink:href="#DejaVuSans-35" x="95.410156"/>
      </g>
     </g>
    </g>
    <g id="ytick_14">
     <g id="line2d_26">
      <g>
       <use xlink:href="#me5179b328b" x="284.006108" y="109.686959" style="stroke: #000000; stroke-width: 0.8"/>
      </g>
     </g>
     <g id="text_26">
      <!-- 5.0 -->
      <g transform="translate(261.102983 113.486177) scale(0.1 -0.1)">
       <use xlink:href="#DejaVuSans-35"/>
       <use xlink:href="#DejaVuSans-2e" x="63.623047"/>
       <use xlink:href="#DejaVuSans-30" x="95.410156"/>
      </g>
     </g>
    </g>
    <g id="ytick_15">
     <g id="line2d_27">
      <g>
       <use xlink:href="#me5179b328b" x="284.006108" y="84.930438" style="stroke: #000000; stroke-width: 0.8"/>
      </g>
     </g>
     <g id="text_27">
      <!-- 7.5 -->
      <g transform="translate(261.102983 88.729657) scale(0.1 -0.1)">
       <use xlink:href="#DejaVuSans-37"/>
       <use xlink:href="#DejaVuSans-2e" x="63.623047"/>
       <use xlink:href="#DejaVuSans-35" x="95.410156"/>
      </g>
     </g>
    </g>
    <g id="text_28">
     <!-- Imaginary -->
     <g transform="translate(246.643608 184.420312) rotate(-90) scale(0.1 -0.1)">
      <defs>
       <path id="DejaVuSans-49" d="M 628 4666 
L 1259 4666 
L 1259 0 
L 628 0 
L 628 4666 
z
" transform="scale(0.015625)"/>
       <path id="DejaVuSans-67" d="M 2906 1791 
Q 2906 2416 2648 2759 
Q 2391 3103 1925 3103 
Q 1463 3103 1205 2759 
Q 947 2416 947 1791 
Q 947 1169 1205 825 
Q 1463 481 1925 481 
Q 2391 481 2648 825 
Q 2906 1169 2906 1791 
z
M 3481 434 
Q 3481 -459 3084 -895 
Q 2688 -1331 1869 -1331 
Q 1566 -1331 1297 -1286 
Q 1028 -1241 775 -1147 
L 775 -588 
Q 1028 -725 1275 -790 
Q 1522 -856 1778 -856 
Q 2344 -856 2625 -561 
Q 2906 -266 2906 331 
L 2906 616 
Q 2728 306 2450 153 
Q 2172 0 1784 0 
Q 1141 0 747 490 
Q 353 981 353 1791 
Q 353 2603 747 3093 
Q 1141 3584 1784 3584 
Q 2172 3584 2450 3431 
Q 2728 3278 2906 2969 
L 2906 3500 
L 3481 3500 
L 3481 434 
z
" transform="scale(0.015625)"/>
       <path id="DejaVuSans-6e" d="M 3513 2113 
L 3513 0 
L 2938 0 
L 2938 2094 
Q 2938 2591 2744 2837 
Q 2550 3084 2163 3084 
Q 1697 3084 1428 2787 
Q 1159 2491 1159 1978 
L 1159 0 
L 581 0 
L 581 3500 
L 1159 3500 
L 1159 2956 
Q 1366 3272 1645 3428 
Q 1925 3584 2291 3584 
Q 2894 3584 3203 3211 
Q 3513 2838 3513 2113 
z
" transform="scale(0.015625)"/>
       <path id="DejaVuSans-72" d="M 2631 2963 
Q 2534 3019 2420 3045 
Q 2306 3072 2169 3072 
Q 1681 3072 1420 2755 
Q 1159 2438 1159 1844 
L 1159 0 
L 581 0 
L 581 3500 
L 1159 3500 
L 1159 2956 
Q 1341 3275 1631 3429 
Q 1922 3584 2338 3584 
Q 2397 3584 2469 3576 
Q 2541 3569 2628 3553 
L 2631 2963 
z
" transform="scale(0.015625)"/>
       <path id="DejaVuSans-79" d="M 2059 -325 
Q 1816 -950 1584 -1140 
Q 1353 -1331 966 -1331 
L 506 -1331 
L 506 -850 
L 844 -850 
Q 1081 -850 1212 -737 
Q 1344 -625 1503 -206 
L 1606 56 
L 191 3500 
L 800 3500 
L 1894 763 
L 2988 3500 
L 3597 3500 
L 2059 -325 
z
" transform="scale(0.015625)"/>
      </defs>
      <use xlink:href="#DejaVuSans-49"/>
      <use xlink:href="#DejaVuSans-6d" x="29.492188"/>
      <use xlink:href="#DejaVuSans-61" x="126.904297"/>
      <use xlink:href="#DejaVuSans-67" x="188.183594"/>
      <use xlink:href="#DejaVuSans-69" x="251.660156"/>
      <use xlink:href="#DejaVuSans-6e" x="279.443359"/>
      <use xlink:href="#DejaVuSans-61" x="342.822266"/>
      <use xlink:href="#DejaVuSans-72" x="404.101562"/>
      <use xlink:href="#DejaVuSans-79" x="445.214844"/>
     </g>
    </g>
   </g>
   <g id="line2d_28">
    <path d="M 284.006108 159.2 
L 450 159.2 
" clip-path="url(#p78e649b1c9)" style="fill: none; stroke: #000000; stroke-width: 1.5; stroke-linecap: square"/>
   </g>
   <g id="line2d_29">
    <path d="M 367.003054 242.196946 
L 367.003054 76.203054 
" clip-path="url(#p78e649b1c9)" style="fill: none; stroke: #000000; stroke-width: 1.5; stroke-linecap: square"/>
   </g>
   <g id="line2d_30">
    <path d="M 377.627674 159.2 
L 382.534386 159.492852 
L 386.64373 159.940935 
L 389.835042 160.492756 
L 391.903569 161.049925 
L 392.937183 161.520501 
L 393.252792 161.848371 
L 393.224072 162.078733 
L 392.95635 162.280665 
L 392.265304 162.488832 
L 390.904246 162.64832 
L 388.597761 162.67663 
L 385.3337 162.483023 
L 381.04491 161.989085 
L 376.075909 161.180601 
L 370.589187 160.053986 
L 364.763161 158.621771 
L 358.786523 156.912841 
L 352.852285 154.97197 
L 347.52074 153.003552 
L 342.54239 150.943484 
L 338.056876 148.8586 
L 334.190151 146.821888 
L 331.249181 145.040921 
L 329.007738 143.430344 
L 327.699107 142.246475 
L 326.998983 141.34484 
L 326.782668 140.761102 
L 326.846591 140.361104 
L 327.089659 140.106578 
L 327.591708 139.918833 
L 328.450024 139.855916 
L 329.77034 139.988146 
L 331.66206 140.398096 
L 334.231508 141.179398 
L 337.572944 142.433823 
L 341.416541 144.107869 
L 346.065371 146.384298 
L 351.121406 149.11868 
L 356.477025 152.274464 
L 362.019065 155.802848 
L 367.631532 159.643589 
L 373.198329 163.726163 
L 378.605958 167.971203 
L 383.746116 172.292225 
L 388.518124 176.597575 
L 392.83114 180.792552 
L 396.606094 184.781675 
L 399.556058 188.199938 
L 401.950835 191.291708 
L 403.761078 193.990346 
L 404.891613 196.066691 
L 405.475735 197.588151 
L 405.641783 198.636074 
L 405.538731 199.229413 
L 405.291892 199.578074 
L 404.90211 199.775534 
L 404.271884 199.811259 
L 403.329103 199.591784 
L 401.999714 199.010261 
L 400.212677 197.948906 
L 397.90624 196.283309 
L 395.28731 194.110947 
L 392.132001 191.191026 
L 388.731349 187.737488 
L 385.15542 183.80213 
L 381.165892 179.066495 
L 377.142946 173.926687 
L 373.172605 168.481448 
L 369.335787 162.83688 
L 365.706487 157.103982 
L 362.350194 151.396044 
L 359.32258 145.825952 
L 356.668486 140.503485 
L 354.421238 135.53266 
L 352.60228 131.009193 
L 351.221151 127.018152 
L 350.275779 123.631846 
L 349.778761 121.092973 
L 349.624423 119.290388 
L 349.718099 118.101927 
L 349.978506 117.404303 
L 350.287097 117.10557 
L 350.680654 117.01843 
L 351.151591 117.13964 
L 351.774387 117.527158 
L 352.661823 118.370976 
L 353.750521 119.733673 
L 355.035302 121.694514 
L 356.608031 124.528142 
L 358.312933 128.094603 
L 360.076143 132.332245 
L 361.806418 137.100677 
L 363.402724 142.168822 
L 364.827935 147.459647 
L 365.977347 152.604615 
L 366.769447 157.160831 
L 366.902984 158.061454 
L 366.877865 157.200557 
L 366.842601 152.737591 
L 367.021405 147.519763 
L 367.452225 141.556056 
L 368.115945 135.447352 
L 369.010769 129.247264 
L 370.095952 123.23342 
L 371.412059 117.217281 
L 372.829596 111.769894 
L 374.400307 106.643034 
L 375.962029 102.299728 
L 377.458173 98.746572 
L 378.971522 95.713742 
L 380.341825 93.451631 
L 381.546907 91.866234 
L 382.578042 90.848386 
L 383.437371 90.283631 
L 384.135019 90.059798 
L 384.773532 90.093141 
L 385.267766 90.328715 
L 385.775702 90.846337 
L 386.202713 91.625303 
L 386.582779 92.833295 
L 386.86137 94.591029 
L 386.970563 96.759771 
L 386.880633 99.63222 
L 386.557365 102.964994 
L 385.922641 107.12271 
L 384.989882 111.744959 
L 383.758638 116.77276 
L 382.081327 122.643598 
L 380.069704 128.828439 
L 377.74647 135.230878 
L 375.142197 141.75112 
L 372.294896 148.287914 
L 369.249393 154.740508 
L 366.056531 161.010569 
L 362.772204 167.004046 
L 359.180448 173.082957 
L 355.631252 178.632415 
L 352.206019 183.563418 
L 348.985864 187.801467 
L 346.049502 191.288022 
L 343.655182 193.803177 
L 341.619458 195.623132 
L 340.109045 196.675077 
L 339.149113 197.100156 
L 338.51689 197.154662 
L 338.141156 196.958702 
L 337.954422 196.614787 
L 337.89733 196.015032 
L 338.046643 195.078666 
L 338.489627 193.723318 
L 339.42434 191.666746 
L 340.926791 188.975934 
L 342.911443 185.886661 
L 345.567977 182.177781 
L 348.698429 178.190256 
L 352.236419 174.027079 
L 356.413373 169.465277 
L 360.86457 164.944417 
L 365.471949 160.583092 
L 370.11116 156.490134 
L 374.655046 152.761897 
L 379.274252 149.264469 
L 383.489525 146.35843 
L 387.162272 144.099561 
L 389.992007 142.603269 
L 392.026504 141.749257 
L 393.34938 141.411239 
L 394.021053 141.447995 
L 394.250976 141.638189 
L 394.280126 141.957178 
L 394.066395 142.470756 
L 393.430211 143.319581 
L 392.135612 144.608872 
L 390.105742 146.287371 
L 387.241712 148.35102 
L 383.750131 150.598552 
L 379.422173 153.114533 
L 374.623118 155.642657 
L 369.50918 158.087093 
L 364.249013 160.361346 
L 359.018337 162.39113 
L 353.994273 164.116683 
L 349.349574 165.494429 
L 345.246947 166.497951 
L 341.833639 167.118258 
L 339.382056 167.358273 
L 337.815971 167.304776 
L 337.110342 167.097415 
L 336.870904 166.837391 
L 336.903239 166.547977 
L 337.219203 166.154283 
L 338.032882 165.581425 
L 339.458993 164.869178 
L 341.839588 163.95202 
L 345.197397 162.921801 
L 349.303849 161.901321 
L 354.061398 160.942774 
L 359.353822 160.093345 
L 365.049357 159.393391 
L 371.004284 158.874911 
L 377.066869 158.560362 
L 383.081549 158.461858 
L 388.89324 158.580781 
L 394.351641 158.907809 
L 399.315426 159.423375 
L 403.656185 160.098523 
L 407.030923 160.836003 
L 409.697285 161.644281 
L 411.356613 162.355038 
L 412.367194 163.000529 
L 412.860645 163.564769 
L 412.968902 163.983507 
L 412.835831 164.377657 
L 412.462974 164.74102 
L 411.747374 165.110966 
L 410.582162 165.459377 
L 408.660926 165.772467 
L 405.980374 165.953548 
L 402.744955 165.949715 
L 398.692322 165.722354 
L 393.801728 165.209137 
L 388.49941 164.419078 
L 382.933217 163.36581 
L 377.257765 162.075351 
L 371.234175 160.472887 
L 365.456306 158.702692 
L 360.106629 156.838317 
L 355.061752 154.840497 
L 350.875713 152.941948 
L 347.697659 151.258467 
L 345.734725 149.978435 
L 344.91632 149.225201 
L 344.753068 148.846877 
L 344.894909 148.675272 
L 345.271116 148.618841 
L 346.209928 148.750632 
L 347.942783 149.258601 
L 350.528915 150.262085 
L 354.072526 151.887268 
L 358.312339 154.081166 
L 363.138555 156.831247 
L 368.427037 160.107684 
L 374.042837 163.863544 
L 379.426557 167.725319 
L 384.85394 171.883657 
L 390.209233 176.266138 
L 395.379791 180.791817 
L 400.258643 185.37299 
L 404.417598 189.571092 
L 408.173521 193.662925 
L 411.46501 197.57333 
L 414.240432 201.228339 
L 416.295991 204.293518 
L 417.860008 207.032493 
L 418.842408 209.199158 
L 419.36386 210.858067 
L 419.538692 212.083451 
L 419.470628 212.952641 
L 419.199344 213.624538 
L 418.808257 214.038663 
L 418.27436 214.300032 
L 417.476383 214.408576 
L 416.496941 214.30302 
L 415.166284 213.918437 
L 413.416966 213.149453 
L 411.422166 212.027918 
L 408.947739 210.377344 
L 405.954196 208.08819 
L 402.725699 205.330529 
L 398.99838 201.830231 
L 395.125554 197.871514 
L 391.178019 193.519728 
L 387.225216 188.848072 
L 383.014301 183.518635 
L 378.954674 178.014962 
L 375.118258 172.448883 
L 371.308445 166.514912 
L 367.89601 160.780101 
L 364.931587 155.37906 
L 362.291894 150.104832 
L 360.22882 145.495342 
L 358.744065 141.667062 
L 357.819608 138.711252 
L 357.430787 136.795663 
L 357.429893 135.823894 
L 357.610439 135.50394 
L 357.84751 135.495304 
L 358.211383 135.738187 
L 358.788199 136.409778 
L 359.703481 137.862409 
L 360.841153 140.096826 
L 362.250794 143.385314 
L 363.686356 147.299363 
L 365.144077 151.932846 
L 366.446771 156.814161 
L 367.527073 161.686564 
L 368.37927 166.55082 
L 368.908671 170.826905 
L 369.121629 174.252329 
L 369.06281 176.506107 
L 368.840334 177.583985 
L 368.6253 177.790948 
L 368.452189 177.683542 
L 368.211976 177.235682 
L 367.879807 176.09534 
L 367.50992 173.993112 
L 367.182605 170.860566 
L 366.968167 166.601849 
L 366.945328 161.524975 
L 367.156164 155.794845 
L 367.590632 150.000942 
L 368.263822 143.978683 
L 369.17077 137.915269 
L 370.211224 132.388482 
L 371.411515 127.148787 
L 372.734469 122.346525 
L 374.133762 118.122677 
L 375.45431 114.83031 
L 376.648965 112.4092 
L 377.688414 110.763425 
L 378.559607 109.77566 
L 379.18926 109.349148 
L 379.680729 109.248094 
L 380.051453 109.366567 
L 380.418161 109.745872 
L 380.706921 110.385254 
L 380.932446 111.432926 
L 381.041288 113.01033 
L 380.967681 115.245867 
L 380.633292 118.268176 
L 380.018427 121.845601 
L 379.015245 126.328959 
L 377.658564 131.351686 
L 375.949192 136.835732 
L 373.896002 142.694805 
L 371.516026 148.836069 
L 368.834356 155.161957 
L 365.883852 161.572077 
L 362.704644 167.965152 
L 359.343466 174.240966 
L 355.8528 180.302278 
L 352.289873 186.056653 
L 348.715516 191.418179 
L 345.192906 196.309043 
L 341.786232 200.660918 
L 338.559295 204.416153 
L 335.812167 207.294795 
L 333.313629 209.60693 
L 331.293588 211.202507 
L 329.542885 212.309001 
L 328.218838 212.886383 
L 327.255712 213.070076 
L 326.586025 212.980787 
L 326.144866 212.722581 
L 325.829248 212.300931 
L 325.622481 211.608818 
L 325.591712 210.709446 
L 325.773386 209.440507 
L 326.253681 207.725353 
L 327.125471 205.493041 
L 328.483827 202.685572 
L 330.240821 199.563696 
L 332.57982 195.869026 
L 335.315754 191.950404 
L 338.66526 187.5467 
L 342.339115 183.078338 
L 346.557778 178.30868 
L 350.932749 173.698443 
L 355.65223 169.058844 
L 360.251956 164.84399 
L 364.852122 160.92592 
L 369.197648 157.514842 
L 372.977954 154.823311 
L 375.840353 153.045335 
L 377.32742 152.351227 
L 377.605872 152.375707 
L 377.606856 152.393907 
L 377.4676 152.630913 
L 376.768272 153.273329 
L 375.079213 154.504462 
L 372.122685 156.368005 
L 368.161946 158.590909 
L 363.34739 161.022751 
L 358.204996 163.368045 
L 352.656684 165.646563 
L 347.265265 167.62565 
L 341.868473 169.373613 
L 336.643668 170.827251 
L 332.07626 171.87642 
L 327.945636 172.602652 
L 324.610172 172.977228 
L 322.037964 173.066946 
L 320.160691 172.939626 
L 318.886785 172.658862 
L 318.112627 172.280943 
L 317.731492 171.853427 
L 317.640254 171.414942 
L 317.77781 170.922276 
L 318.216313 170.3007 
L 319.066748 169.538307 
L 320.448233 168.62963 
L 322.482151 167.578622 
L 325.283719 166.401651 
L 328.646881 165.226847 
L 332.855146 163.995285 
L 337.563816 162.844631 
L 343.077775 161.735426 
L 348.914866 160.795558 
L 354.926025 160.051457 
L 360.956694 159.51948 
L 367.262834 159.191181 
L 373.225118 159.106148 
L 377.627674 159.2 
L 377.627674 159.2 
" clip-path="url(#p78e649b1c9)" style="fill: none; stroke: #1f77b4; stroke-width: 1.5; stroke-linecap: square"/>
   </g>
   <g id="line2d_31">
    <path d="M 360.182739 132.60749 
L 367.003054 159.2 
" clip-path="url(#p78e649b1c9)" style="fill: none; stroke: #ff0000; stroke-width: 1.5; stroke-linecap: square"/>
    <g clip-path="url(#p78e649b1c9)">
     <use xlink:href="#m24430a847c" x="360.182739" y="132.60749" style="fill: #ff0000; stroke: #ff0000"/>
    </g>
   </g>
   <g id="patch_8">
    <path d="M 284.006108 242.196946 
L 284.006108 76.203054 
" style="fill: none; stroke: #000000; stroke-width: 0.8; stroke-linejoin: miter; stroke-linecap: square"/>
   </g>
   <g id="patch_9">
    <path d="M 450 242.196946 
L 450 76.203054 
" style="fill: none; stroke: #000000; stroke-width: 0.8; stroke-linejoin: miter; stroke-linecap: square"/>
   </g>
   <g id="patch_10">
    <path d="M 284.006108 242.196946 
L 450 242.196946 
" style="fill: none; stroke: #000000; stroke-width: 0.8; stroke-linejoin: miter; stroke-linecap: square"/>
   </g>
   <g id="patch_11">
    <path d="M 284.006108 76.203054 
L 450 76.203054 
" style="fill: none; stroke: #000000; stroke-width: 0.8; stroke-linejoin: miter; stroke-linecap: square"/>
   </g>
  </g>
 </g>
 <defs>
  <clipPath id="p2bdac6fa71">
   <rect x="55.296" y="14.76" width="165.993892" height="288.88"/>
  </clipPath>
  <clipPath id="p78e649b1c9">
   <rect x="284.006108" y="76.203054" width="165.993892" height="165.993892"/>
  </clipPath>
 </defs>
</svg>
