<?xml version="1.0" encoding="utf-8" standalone="no"?>
<!DOCTYPE svg PUBLIC "-//W3C//DTD SVG 1.1//EN"
  "http://www.w3.org/Graphics/SVG/1.1/DTD/svg11.dtd">
<svg xmlns:xlink="http://www.w3.org/1999/xlink" width="460.8pt" height="345.6pt" viewBox="0 0 460.8 345.6" xmlns="http://www.w3.org/2000/svg" version="1.1">
 <metadata>
  <rdf:RDF xmlns:dc="http://purl.org/dc/elements/1.1/" xmlns:cc="http://creativecommons.org/ns#" xmlns:rdf="http://www.w3.org/1999/02/22-rdf-syntax-ns#">
   <cc:Work>
    <dc:type rdf:resource="http://purl.org/dc/dcmitype/StillImage"/>
    <dc:format>image/svg+xml</dc:format>
    <dc:creator>
     <cc:Agent>
      <dc:title>Matplotlib v3.8.4, https://matplotlib.org/</dc:title>
     </cc:Agent>
    </dc:creator>
   </cc:Work>
  </rdf:RDF>
 </metadata>
 <defs>
  <style type="text/css">*{stroke-linejoin: round; stroke-linecap: butt}</style>
 </defs>
 <g id="figure_1">
  <g id="patch_1">
   <path d="M 0 345.6 
L 460.8 345.6 
L 460.8 0 
L 0 0 
z
" style="fill: #ffffff"/>
  </g>
  <g id="axes_1">
   <g id="patch_2">
    <path d="M 57.6 307.584 
L 414.72 307.584 
L 414.72 41.472 
L 57.6 41.472 
z
" style="fill: #ffffff"/>
   </g>
   <g id="matplotlib.axis_1">
    <g id="xtick_1">
     <g id="line2d_1">
      <defs>
       <path id="mbcb02aef95" d="M 0 0 
L 0 3.5 
" style="stroke: #000000; stroke-width: 0.8"/>
      </defs>
      <g>
       <use xlink:href="#mbcb02aef95" x="86.818909" y="307.584" style="stroke: #000000; stroke-width: 0.8"/>
      </g>
     </g>
     <g id="text_1">
      <!-- 1960 -->
      <g transform="translate(74.093909 322.182437) scale(0.1 -0.1)">
       <defs>
        <path id="DejaVuSans-31" d="M 794 531 
L 1825 531 
L 1825 4091 
L 703 3866 
L 703 4441 
L 1819 4666 
L 2450 4666 
L 2450 531 
L 3481 531 
L 3481 0 
L 794 0 
L 794 531 
z
" transform="scale(0.015625)"/>
        <path id="DejaVuSans-39" d="M 703 97 
L 703 672 
Q 941 559 1184 500 
Q 1428 441 1663 441 
Q 2288 441 2617 861 
Q 2947 1281 2994 2138 
Q 2813 1869 2534 1725 
Q 2256 1581 1919 1581 
Q 1219 1581 811 2004 
Q 403 2428 403 3163 
Q 403 3881 828 4315 
Q 1253 4750 1959 4750 
Q 2769 4750 3195 4129 
Q 3622 3509 3622 2328 
Q 3622 1225 3098 567 
Q 2575 -91 1691 -91 
Q 1453 -91 1209 -44 
Q 966 3 703 97 
z
M 1959 2075 
Q 2384 2075 2632 2365 
Q 2881 2656 2881 3163 
Q 2881 3666 2632 3958 
Q 2384 4250 1959 4250 
Q 1534 4250 1286 3958 
Q 1038 3666 1038 3163 
Q 1038 2656 1286 2365 
Q 1534 2075 1959 2075 
z
" transform="scale(0.015625)"/>
        <path id="DejaVuSans-36" d="M 2113 2584 
Q 1688 2584 1439 2293 
Q 1191 2003 1191 1497 
Q 1191 994 1439 701 
Q 1688 409 2113 409 
Q 2538 409 2786 701 
Q 3034 994 3034 1497 
Q 3034 2003 2786 2293 
Q 2538 2584 2113 2584 
z
M 3366 4563 
L 3366 3988 
Q 3128 4100 2886 4159 
Q 2644 4219 2406 4219 
Q 1781 4219 1451 3797 
Q 1122 3375 1075 2522 
Q 1259 2794 1537 2939 
Q 1816 3084 2150 3084 
Q 2853 3084 3261 2657 
Q 3669 2231 3669 1497 
Q 3669 778 3244 343 
Q 2819 -91 2113 -91 
Q 1303 -91 875 529 
Q 447 1150 447 2328 
Q 447 3434 972 4092 
Q 1497 4750 2381 4750 
Q 2619 4750 2861 4703 
Q 3103 4656 3366 4563 
z
" transform="scale(0.015625)"/>
        <path id="DejaVuSans-30" d="M 2034 4250 
Q 1547 4250 1301 3770 
Q 1056 3291 1056 2328 
Q 1056 1369 1301 889 
Q 1547 409 2034 409 
Q 2525 409 2770 889 
Q 3016 1369 3016 2328 
Q 3016 3291 2770 3770 
Q 2525 4250 2034 4250 
z
M 2034 4750 
Q 2819 4750 3233 4129 
Q 3647 3509 3647 2328 
Q 3647 1150 3233 529 
Q 2819 -91 2034 -91 
Q 1250 -91 836 529 
Q 422 1150 422 2328 
Q 422 3509 836 4129 
Q 1250 4750 2034 4750 
z
" transform="scale(0.015625)"/>
       </defs>
       <use xlink:href="#DejaVuSans-31"/>
       <use xlink:href="#DejaVuSans-39" x="63.623047"/>
       <use xlink:href="#DejaVuSans-36" x="127.246094"/>
       <use xlink:href="#DejaVuSans-30" x="190.869141"/>
      </g>
     </g>
    </g>
    <g id="xtick_2">
     <g id="line2d_2">
      <g>
       <use xlink:href="#mbcb02aef95" x="161.025662" y="307.584" style="stroke: #000000; stroke-width: 0.8"/>
      </g>
     </g>
     <g id="text_2">
      <!-- 1970 -->
      <g transform="translate(148.300662 322.182437) scale(0.1 -0.1)">
       <defs>
        <path id="DejaVuSans-37" d="M 525 4666 
L 3525 4666 
L 3525 4397 
L 1831 0 
L 1172 0 
L 2766 4134 
L 525 4134 
L 525 4666 
z
" transform="scale(0.015625)"/>
       </defs>
       <use xlink:href="#DejaVuSans-31"/>
       <use xlink:href="#DejaVuSans-39" x="63.623047"/>
       <use xlink:href="#DejaVuSans-37" x="127.246094"/>
       <use xlink:href="#DejaVuSans-30" x="190.869141"/>
      </g>
     </g>
    </g>
    <g id="xtick_3">
     <g id="line2d_3">
      <g>
       <use xlink:href="#mbcb02aef95" x="235.232416" y="307.584" style="stroke: #000000; stroke-width: 0.8"/>
      </g>
     </g>
     <g id="text_3">
      <!-- 1980 -->
      <g transform="translate(222.507416 322.182437) scale(0.1 -0.1)">
       <defs>
        <path id="DejaVuSans-38" d="M 2034 2216 
Q 1584 2216 1326 1975 
Q 1069 1734 1069 1313 
Q 1069 891 1326 650 
Q 1584 409 2034 409 
Q 2484 409 2743 651 
Q 3003 894 3003 1313 
Q 3003 1734 2745 1975 
Q 2488 2216 2034 2216 
z
M 1403 2484 
Q 997 2584 770 2862 
Q 544 3141 544 3541 
Q 544 4100 942 4425 
Q 1341 4750 2034 4750 
Q 2731 4750 3128 4425 
Q 3525 4100 3525 3541 
Q 3525 3141 3298 2862 
Q 3072 2584 2669 2484 
Q 3125 2378 3379 2068 
Q 3634 1759 3634 1313 
Q 3634 634 3220 271 
Q 2806 -91 2034 -91 
Q 1263 -91 848 271 
Q 434 634 434 1313 
Q 434 1759 690 2068 
Q 947 2378 1403 2484 
z
M 1172 3481 
Q 1172 3119 1398 2916 
Q 1625 2713 2034 2713 
Q 2441 2713 2670 2916 
Q 2900 3119 2900 3481 
Q 2900 3844 2670 4047 
Q 2441 4250 2034 4250 
Q 1625 4250 1398 4047 
Q 1172 3844 1172 3481 
z
" transform="scale(0.015625)"/>
       </defs>
       <use xlink:href="#DejaVuSans-31"/>
       <use xlink:href="#DejaVuSans-39" x="63.623047"/>
       <use xlink:href="#DejaVuSans-38" x="127.246094"/>
       <use xlink:href="#DejaVuSans-30" x="190.869141"/>
      </g>
     </g>
    </g>
    <g id="xtick_4">
     <g id="line2d_4">
      <g>
       <use xlink:href="#mbcb02aef95" x="309.439169" y="307.584" style="stroke: #000000; stroke-width: 0.8"/>
      </g>
     </g>
     <g id="text_4">
      <!-- 1990 -->
      <g transform="translate(296.714169 322.182437) scale(0.1 -0.1)">
       <use xlink:href="#DejaVuSans-31"/>
       <use xlink:href="#DejaVuSans-39" x="63.623047"/>
       <use xlink:href="#DejaVuSans-39" x="127.246094"/>
       <use xlink:href="#DejaVuSans-30" x="190.869141"/>
      </g>
     </g>
    </g>
    <g id="xtick_5">
     <g id="line2d_5">
      <g>
       <use xlink:href="#mbcb02aef95" x="383.645922" y="307.584" style="stroke: #000000; stroke-width: 0.8"/>
      </g>
     </g>
     <g id="text_5">
      <!-- 2000 -->
      <g transform="translate(370.920922 322.182437) scale(0.1 -0.1)">
       <defs>
        <path id="DejaVuSans-32" d="M 1228 531 
L 3431 531 
L 3431 0 
L 469 0 
L 469 531 
Q 828 903 1448 1529 
Q 2069 2156 2228 2338 
Q 2531 2678 2651 2914 
Q 2772 3150 2772 3378 
Q 2772 3750 2511 3984 
Q 2250 4219 1831 4219 
Q 1534 4219 1204 4116 
Q 875 4013 500 3803 
L 500 4441 
Q 881 4594 1212 4672 
Q 1544 4750 1819 4750 
Q 2544 4750 2975 4387 
Q 3406 4025 3406 3419 
Q 3406 3131 3298 2873 
Q 3191 2616 2906 2266 
Q 2828 2175 2409 1742 
Q 1991 1309 1228 531 
z
" transform="scale(0.015625)"/>
       </defs>
       <use xlink:href="#DejaVuSans-32"/>
       <use xlink:href="#DejaVuSans-30" x="63.623047"/>
       <use xlink:href="#DejaVuSans-30" x="127.246094"/>
       <use xlink:href="#DejaVuSans-30" x="190.869141"/>
      </g>
     </g>
    </g>
    <g id="text_6">
     <!-- Year -->
     <g transform="translate(225.5725 335.860562) scale(0.1 -0.1)">
      <defs>
       <path id="DejaVuSans-59" d="M -13 4666 
L 666 4666 
L 1959 2747 
L 3244 4666 
L 3922 4666 
L 2272 2222 
L 2272 0 
L 1638 0 
L 1638 2222 
L -13 4666 
z
" transform="scale(0.015625)"/>
       <path id="DejaVuSans-65" d="M 3597 1894 
L 3597 1613 
L 953 1613 
Q 991 1019 1311 708 
Q 1631 397 2203 397 
Q 2534 397 2845 478 
Q 3156 559 3463 722 
L 3463 178 
Q 3153 47 2828 -22 
Q 2503 -91 2169 -91 
Q 1331 -91 842 396 
Q 353 884 353 1716 
Q 353 2575 817 3079 
Q 1281 3584 2069 3584 
Q 2775 3584 3186 3129 
Q 3597 2675 3597 1894 
z
M 3022 2063 
Q 3016 2534 2758 2815 
Q 2500 3097 2075 3097 
Q 1594 3097 1305 2825 
Q 1016 2553 972 2059 
L 3022 2063 
z
" transform="scale(0.015625)"/>
       <path id="DejaVuSans-61" d="M 2194 1759 
Q 1497 1759 1228 1600 
Q 959 1441 959 1056 
Q 959 750 1161 570 
Q 1363 391 1709 391 
Q 2188 391 2477 730 
Q 2766 1069 2766 1631 
L 2766 1759 
L 2194 1759 
z
M 3341 1997 
L 3341 0 
L 2766 0 
L 2766 531 
Q 2569 213 2275 61 
Q 1981 -91 1556 -91 
Q 1019 -91 701 211 
Q 384 513 384 1019 
Q 384 1609 779 1909 
Q 1175 2209 1959 2209 
L 2766 2209 
L 2766 2266 
Q 2766 2663 2505 2880 
Q 2244 3097 1772 3097 
Q 1472 3097 1187 3025 
Q 903 2953 641 2809 
L 641 3341 
Q 956 3463 1253 3523 
Q 1550 3584 1831 3584 
Q 2591 3584 2966 3190 
Q 3341 2797 3341 1997 
z
" transform="scale(0.015625)"/>
       <path id="DejaVuSans-72" d="M 2631 2963 
Q 2534 3019 2420 3045 
Q 2306 3072 2169 3072 
Q 1681 3072 1420 2755 
Q 1159 2438 1159 1844 
L 1159 0 
L 581 0 
L 581 3500 
L 1159 3500 
L 1159 2956 
Q 1341 3275 1631 3429 
Q 1922 3584 2338 3584 
Q 2397 3584 2469 3576 
Q 2541 3569 2628 3553 
L 2631 2963 
z
" transform="scale(0.015625)"/>
      </defs>
      <use xlink:href="#DejaVuSans-59"/>
      <use xlink:href="#DejaVuSans-65" x="47.833984"/>
      <use xlink:href="#DejaVuSans-61" x="109.357422"/>
      <use xlink:href="#DejaVuSans-72" x="170.636719"/>
     </g>
    </g>
   </g>
   <g id="matplotlib.axis_2">
    <g id="ytick_1">
     <g id="line2d_6">
      <defs>
       <path id="me5179b328b" d="M 0 0 
L -3.5 0 
" style="stroke: #000000; stroke-width: 0.8"/>
      </defs>
      <g>
       <use xlink:href="#me5179b328b" x="57.6" y="269.053033" style="stroke: #000000; stroke-width: 0.8"/>
      </g>
     </g>
     <g id="text_7">
      <!-- 320 -->
      <g transform="translate(31.5125 272.852252) scale(0.1 -0.1)">
       <defs>
        <path id="DejaVuSans-33" d="M 2597 2516 
Q 3050 2419 3304 2112 
Q 3559 1806 3559 1356 
Q 3559 666 3084 287 
Q 2609 -91 1734 -91 
Q 1441 -91 1130 -33 
Q 819 25 488 141 
L 488 750 
Q 750 597 1062 519 
Q 1375 441 1716 441 
Q 2309 441 2620 675 
Q 2931 909 2931 1356 
Q 2931 1769 2642 2001 
Q 2353 2234 1838 2234 
L 1294 2234 
L 1294 2753 
L 1863 2753 
Q 2328 2753 2575 2939 
Q 2822 3125 2822 3475 
Q 2822 3834 2567 4026 
Q 2313 4219 1838 4219 
Q 1578 4219 1281 4162 
Q 984 4106 628 3988 
L 628 4550 
Q 988 4650 1302 4700 
Q 1616 4750 1894 4750 
Q 2613 4750 3031 4423 
Q 3450 4097 3450 3541 
Q 3450 3153 3228 2886 
Q 3006 2619 2597 2516 
z
" transform="scale(0.015625)"/>
       </defs>
       <use xlink:href="#DejaVuSans-33"/>
       <use xlink:href="#DejaVuSans-32" x="63.623047"/>
       <use xlink:href="#DejaVuSans-30" x="127.246094"/>
      </g>
     </g>
    </g>
    <g id="ytick_2">
     <g id="line2d_7">
      <g>
       <use xlink:href="#me5179b328b" x="57.6" y="229.000053" style="stroke: #000000; stroke-width: 0.8"/>
      </g>
     </g>
     <g id="text_8">
      <!-- 330 -->
      <g transform="translate(31.5125 232.799272) scale(0.1 -0.1)">
       <use xlink:href="#DejaVuSans-33"/>
       <use xlink:href="#DejaVuSans-33" x="63.623047"/>
       <use xlink:href="#DejaVuSans-30" x="127.246094"/>
      </g>
     </g>
    </g>
    <g id="ytick_3">
     <g id="line2d_8">
      <g>
       <use xlink:href="#me5179b328b" x="57.6" y="188.947073" style="stroke: #000000; stroke-width: 0.8"/>
      </g>
     </g>
     <g id="text_9">
      <!-- 340 -->
      <g transform="translate(31.5125 192.746292) scale(0.1 -0.1)">
       <defs>
        <path id="DejaVuSans-34" d="M 2419 4116 
L 825 1625 
L 2419 1625 
L 2419 4116 
z
M 2253 4666 
L 3047 4666 
L 3047 1625 
L 3713 1625 
L 3713 1100 
L 3047 1100 
L 3047 0 
L 2419 0 
L 2419 1100 
L 313 1100 
L 313 1709 
L 2253 4666 
z
" transform="scale(0.015625)"/>
       </defs>
       <use xlink:href="#DejaVuSans-33"/>
       <use xlink:href="#DejaVuSans-34" x="63.623047"/>
       <use xlink:href="#DejaVuSans-30" x="127.246094"/>
      </g>
     </g>
    </g>
    <g id="ytick_4">
     <g id="line2d_9">
      <g>
       <use xlink:href="#me5179b328b" x="57.6" y="148.894093" style="stroke: #000000; stroke-width: 0.8"/>
      </g>
     </g>
     <g id="text_10">
      <!-- 350 -->
      <g transform="translate(31.5125 152.693311) scale(0.1 -0.1)">
       <defs>
        <path id="DejaVuSans-35" d="M 691 4666 
L 3169 4666 
L 3169 4134 
L 1269 4134 
L 1269 2991 
Q 1406 3038 1543 3061 
Q 1681 3084 1819 3084 
Q 2600 3084 3056 2656 
Q 3513 2228 3513 1497 
Q 3513 744 3044 326 
Q 2575 -91 1722 -91 
Q 1428 -91 1123 -41 
Q 819 9 494 109 
L 494 744 
Q 775 591 1075 516 
Q 1375 441 1709 441 
Q 2250 441 2565 725 
Q 2881 1009 2881 1497 
Q 2881 1984 2565 2268 
Q 2250 2553 1709 2553 
Q 1456 2553 1204 2497 
Q 953 2441 691 2322 
L 691 4666 
z
" transform="scale(0.015625)"/>
       </defs>
       <use xlink:href="#DejaVuSans-33"/>
       <use xlink:href="#DejaVuSans-35" x="63.623047"/>
       <use xlink:href="#DejaVuSans-30" x="127.246094"/>
      </g>
     </g>
    </g>
    <g id="ytick_5">
     <g id="line2d_10">
      <g>
       <use xlink:href="#me5179b328b" x="57.6" y="108.841113" style="stroke: #000000; stroke-width: 0.8"/>
      </g>
     </g>
     <g id="text_11">
      <!-- 360 -->
      <g transform="translate(31.5125 112.640331) scale(0.1 -0.1)">
       <use xlink:href="#DejaVuSans-33"/>
       <use xlink:href="#DejaVuSans-36" x="63.623047"/>
       <use xlink:href="#DejaVuSans-30" x="127.246094"/>
      </g>
     </g>
    </g>
    <g id="ytick_6">
     <g id="line2d_11">
      <g>
       <use xlink:href="#me5179b328b" x="57.6" y="68.788132" style="stroke: #000000; stroke-width: 0.8"/>
      </g>
     </g>
     <g id="text_12">
      <!-- 370 -->
      <g transform="translate(31.5125 72.587351) scale(0.1 -0.1)">
       <use xlink:href="#DejaVuSans-33"/>
       <use xlink:href="#DejaVuSans-37" x="63.623047"/>
       <use xlink:href="#DejaVuSans-30" x="127.246094"/>
      </g>
     </g>
    </g>
    <g id="text_13">
     <!-- Montly CO2 Average (ppm) -->
     <g transform="translate(25.432812 242.407688) rotate(-90) scale(0.1 -0.1)">
      <defs>
       <path id="DejaVuSans-4d" d="M 628 4666 
L 1569 4666 
L 2759 1491 
L 3956 4666 
L 4897 4666 
L 4897 0 
L 4281 0 
L 4281 4097 
L 3078 897 
L 2444 897 
L 1241 4097 
L 1241 0 
L 628 0 
L 628 4666 
z
" transform="scale(0.015625)"/>
       <path id="DejaVuSans-6f" d="M 1959 3097 
Q 1497 3097 1228 2736 
Q 959 2375 959 1747 
Q 959 1119 1226 758 
Q 1494 397 1959 397 
Q 2419 397 2687 759 
Q 2956 1122 2956 1747 
Q 2956 2369 2687 2733 
Q 2419 3097 1959 3097 
z
M 1959 3584 
Q 2709 3584 3137 3096 
Q 3566 2609 3566 1747 
Q 3566 888 3137 398 
Q 2709 -91 1959 -91 
Q 1206 -91 779 398 
Q 353 888 353 1747 
Q 353 2609 779 3096 
Q 1206 3584 1959 3584 
z
" transform="scale(0.015625)"/>
       <path id="DejaVuSans-6e" d="M 3513 2113 
L 3513 0 
L 2938 0 
L 2938 2094 
Q 2938 2591 2744 2837 
Q 2550 3084 2163 3084 
Q 1697 3084 1428 2787 
Q 1159 2491 1159 1978 
L 1159 0 
L 581 0 
L 581 3500 
L 1159 3500 
L 1159 2956 
Q 1366 3272 1645 3428 
Q 1925 3584 2291 3584 
Q 2894 3584 3203 3211 
Q 3513 2838 3513 2113 
z
" transform="scale(0.015625)"/>
       <path id="DejaVuSans-74" d="M 1172 4494 
L 1172 3500 
L 2356 3500 
L 2356 3053 
L 1172 3053 
L 1172 1153 
Q 1172 725 1289 603 
Q 1406 481 1766 481 
L 2356 481 
L 2356 0 
L 1766 0 
Q 1100 0 847 248 
Q 594 497 594 1153 
L 594 3053 
L 172 3053 
L 172 3500 
L 594 3500 
L 594 4494 
L 1172 4494 
z
" transform="scale(0.015625)"/>
       <path id="DejaVuSans-6c" d="M 603 4863 
L 1178 4863 
L 1178 0 
L 603 0 
L 603 4863 
z
" transform="scale(0.015625)"/>
       <path id="DejaVuSans-79" d="M 2059 -325 
Q 1816 -950 1584 -1140 
Q 1353 -1331 966 -1331 
L 506 -1331 
L 506 -850 
L 844 -850 
Q 1081 -850 1212 -737 
Q 1344 -625 1503 -206 
L 1606 56 
L 191 3500 
L 800 3500 
L 1894 763 
L 2988 3500 
L 3597 3500 
L 2059 -325 
z
" transform="scale(0.015625)"/>
       <path id="DejaVuSans-20" transform="scale(0.015625)"/>
       <path id="DejaVuSans-43" d="M 4122 4306 
L 4122 3641 
Q 3803 3938 3442 4084 
Q 3081 4231 2675 4231 
Q 1875 4231 1450 3742 
Q 1025 3253 1025 2328 
Q 1025 1406 1450 917 
Q 1875 428 2675 428 
Q 3081 428 3442 575 
Q 3803 722 4122 1019 
L 4122 359 
Q 3791 134 3420 21 
Q 3050 -91 2638 -91 
Q 1578 -91 968 557 
Q 359 1206 359 2328 
Q 359 3453 968 4101 
Q 1578 4750 2638 4750 
Q 3056 4750 3426 4639 
Q 3797 4528 4122 4306 
z
" transform="scale(0.015625)"/>
       <path id="DejaVuSans-4f" d="M 2522 4238 
Q 1834 4238 1429 3725 
Q 1025 3213 1025 2328 
Q 1025 1447 1429 934 
Q 1834 422 2522 422 
Q 3209 422 3611 934 
Q 4013 1447 4013 2328 
Q 4013 3213 3611 3725 
Q 3209 4238 2522 4238 
z
M 2522 4750 
Q 3503 4750 4090 4092 
Q 4678 3434 4678 2328 
Q 4678 1225 4090 567 
Q 3503 -91 2522 -91 
Q 1538 -91 948 565 
Q 359 1222 359 2328 
Q 359 3434 948 4092 
Q 1538 4750 2522 4750 
z
" transform="scale(0.015625)"/>
       <path id="DejaVuSans-41" d="M 2188 4044 
L 1331 1722 
L 3047 1722 
L 2188 4044 
z
M 1831 4666 
L 2547 4666 
L 4325 0 
L 3669 0 
L 3244 1197 
L 1141 1197 
L 716 0 
L 50 0 
L 1831 4666 
z
" transform="scale(0.015625)"/>
       <path id="DejaVuSans-76" d="M 191 3500 
L 800 3500 
L 1894 563 
L 2988 3500 
L 3597 3500 
L 2284 0 
L 1503 0 
L 191 3500 
z
" transform="scale(0.015625)"/>
       <path id="DejaVuSans-67" d="M 2906 1791 
Q 2906 2416 2648 2759 
Q 2391 3103 1925 3103 
Q 1463 3103 1205 2759 
Q 947 2416 947 1791 
Q 947 1169 1205 825 
Q 1463 481 1925 481 
Q 2391 481 2648 825 
Q 2906 1169 2906 1791 
z
M 3481 434 
Q 3481 -459 3084 -895 
Q 2688 -1331 1869 -1331 
Q 1566 -1331 1297 -1286 
Q 1028 -1241 775 -1147 
L 775 -588 
Q 1028 -725 1275 -790 
Q 1522 -856 1778 -856 
Q 2344 -856 2625 -561 
Q 2906 -266 2906 331 
L 2906 616 
Q 2728 306 2450 153 
Q 2172 0 1784 0 
Q 1141 0 747 490 
Q 353 981 353 1791 
Q 353 2603 747 3093 
Q 1141 3584 1784 3584 
Q 2172 3584 2450 3431 
Q 2728 3278 2906 2969 
L 2906 3500 
L 3481 3500 
L 3481 434 
z
" transform="scale(0.015625)"/>
       <path id="DejaVuSans-28" d="M 1984 4856 
Q 1566 4138 1362 3434 
Q 1159 2731 1159 2009 
Q 1159 1288 1364 580 
Q 1569 -128 1984 -844 
L 1484 -844 
Q 1016 -109 783 600 
Q 550 1309 550 2009 
Q 550 2706 781 3412 
Q 1013 4119 1484 4856 
L 1984 4856 
z
" transform="scale(0.015625)"/>
       <path id="DejaVuSans-70" d="M 1159 525 
L 1159 -1331 
L 581 -1331 
L 581 3500 
L 1159 3500 
L 1159 2969 
Q 1341 3281 1617 3432 
Q 1894 3584 2278 3584 
Q 2916 3584 3314 3078 
Q 3713 2572 3713 1747 
Q 3713 922 3314 415 
Q 2916 -91 2278 -91 
Q 1894 -91 1617 61 
Q 1341 213 1159 525 
z
M 3116 1747 
Q 3116 2381 2855 2742 
Q 2594 3103 2138 3103 
Q 1681 3103 1420 2742 
Q 1159 2381 1159 1747 
Q 1159 1113 1420 752 
Q 1681 391 2138 391 
Q 2594 391 2855 752 
Q 3116 1113 3116 1747 
z
" transform="scale(0.015625)"/>
       <path id="DejaVuSans-6d" d="M 3328 2828 
Q 3544 3216 3844 3400 
Q 4144 3584 4550 3584 
Q 5097 3584 5394 3201 
Q 5691 2819 5691 2113 
L 5691 0 
L 5113 0 
L 5113 2094 
Q 5113 2597 4934 2840 
Q 4756 3084 4391 3084 
Q 3944 3084 3684 2787 
Q 3425 2491 3425 1978 
L 3425 0 
L 2847 0 
L 2847 2094 
Q 2847 2600 2669 2842 
Q 2491 3084 2119 3084 
Q 1678 3084 1418 2786 
Q 1159 2488 1159 1978 
L 1159 0 
L 581 0 
L 581 3500 
L 1159 3500 
L 1159 2956 
Q 1356 3278 1631 3431 
Q 1906 3584 2284 3584 
Q 2666 3584 2933 3390 
Q 3200 3197 3328 2828 
z
" transform="scale(0.015625)"/>
       <path id="DejaVuSans-29" d="M 513 4856 
L 1013 4856 
Q 1481 4119 1714 3412 
Q 1947 2706 1947 2009 
Q 1947 1309 1714 600 
Q 1481 -109 1013 -844 
L 513 -844 
Q 928 -128 1133 580 
Q 1338 1288 1338 2009 
Q 1338 2731 1133 3434 
Q 928 4138 513 4856 
z
" transform="scale(0.015625)"/>
      </defs>
      <use xlink:href="#DejaVuSans-4d"/>
      <use xlink:href="#DejaVuSans-6f" x="86.279297"/>
      <use xlink:href="#DejaVuSans-6e" x="147.460938"/>
      <use xlink:href="#DejaVuSans-74" x="210.839844"/>
      <use xlink:href="#DejaVuSans-6c" x="250.048828"/>
      <use xlink:href="#DejaVuSans-79" x="277.832031"/>
      <use xlink:href="#DejaVuSans-20" x="337.011719"/>
      <use xlink:href="#DejaVuSans-43" x="368.798828"/>
      <use xlink:href="#DejaVuSans-4f" x="438.623047"/>
      <use xlink:href="#DejaVuSans-32" x="517.333984"/>
      <use xlink:href="#DejaVuSans-20" x="580.957031"/>
      <use xlink:href="#DejaVuSans-41" x="612.744141"/>
      <use xlink:href="#DejaVuSans-76" x="675.277344"/>
      <use xlink:href="#DejaVuSans-65" x="734.457031"/>
      <use xlink:href="#DejaVuSans-72" x="795.980469"/>
      <use xlink:href="#DejaVuSans-61" x="837.09375"/>
      <use xlink:href="#DejaVuSans-67" x="898.373047"/>
      <use xlink:href="#DejaVuSans-65" x="961.849609"/>
      <use xlink:href="#DejaVuSans-20" x="1023.373047"/>
      <use xlink:href="#DejaVuSans-28" x="1055.160156"/>
      <use xlink:href="#DejaVuSans-70" x="1094.173828"/>
      <use xlink:href="#DejaVuSans-70" x="1157.650391"/>
      <use xlink:href="#DejaVuSans-6d" x="1221.126953"/>
      <use xlink:href="#DejaVuSans-29" x="1318.539062"/>
     </g>
    </g>
   </g>
   <g id="line2d_12">
    <path d="M 73.832727 284.673695 
L 74.451117 280.267868 
L 75.069506 279.333298 
L 76.306286 286.576212 
L 76.924675 289.279788 
L 77.543065 295.08747 
L 78.779844 295.387868 
L 79.398234 290.281113 
L 80.016623 287.076874 
L 80.635013 282.270517 
L 81.253403 282.137007 
L 81.871792 278.365351 
L 82.490182 275.761907 
L 83.108571 276.963497 
L 84.345351 289.480053 
L 84.96374 293.785748 
L 85.58213 295.488 
L 86.200519 289.580185 
L 86.818909 286.976742 
L 87.437299 283.552212 
L 88.674078 278.765881 
L 89.292468 272.577695 
L 89.910857 269.35343 
L 90.529247 271.255947 
L 91.147636 276.823311 
L 91.766026 285.975417 
L 92.384416 292.383894 
L 93.002805 293.725669 
L 94.239584 284.273166 
L 95.476364 278.465483 
L 96.713143 271.376106 
L 97.331532 267.150517 
L 97.949922 270.054358 
L 99.186701 281.970119 
L 99.805091 288.919311 
L 100.423481 287.677669 
L 101.04187 284.87396 
L 102.278649 277.364026 
L 102.897039 274.560318 
L 104.133818 266.850119 
L 104.752208 265.448265 
L 105.370597 267.050384 
L 105.988987 271.356079 
L 107.225766 284.807205 
L 107.844156 287.177007 
L 109.699325 274.159788 
L 110.317714 273.191841 
L 110.936104 269.613775 
L 111.554494 263.946278 
L 112.172883 260.641907 
L 112.791273 263.205298 
L 114.646442 284.47343 
L 115.264831 284.87396 
L 115.883221 281.068927 
L 116.50161 275.661775 
L 117.12 271.456212 
L 119.593558 261.042437 
L 120.211948 262.043762 
L 120.830338 267.851444 
L 122.067117 282.671046 
L 122.685506 281.229139 
L 123.303896 278.165086 
L 123.922286 274.360053 
L 124.540675 271.456212 
L 125.159065 267.250649 
L 125.777455 265.348132 
L 126.395844 261.042437 
L 127.014234 260.802119 
L 127.632623 261.943629 
L 128.251013 264.887523 
L 128.869403 274.159788 
L 129.487792 277.764556 
L 130.106182 279.707126 
L 130.724571 273.558993 
L 131.342961 271.756609 
L 132.57974 262.744689 
L 133.19813 259.54045 
L 133.816519 254.393642 
L 134.434909 252.931709 
L 135.053299 254.23343 
L 135.671688 257.637934 
L 136.290078 268.251974 
L 136.908468 274.259921 
L 137.526857 276.342675 
L 138.145247 269.453563 
L 139.382026 259.440318 
L 140.000416 259.340185 
L 140.618805 257.037139 
L 141.237195 251.910358 
L 141.855584 249.226808 
L 142.473974 252.731444 
L 144.329143 271.856742 
L 144.947532 271.255947 
L 146.184312 261.362861 
L 146.802701 258.839523 
L 147.421091 256.836874 
L 148.039481 253.352265 
L 148.65787 249.126675 
L 149.27626 247.124026 
L 149.894649 247.985166 
L 150.513039 252.931709 
L 151.131429 261.282755 
L 151.749818 268.051709 
L 152.368208 267.951576 
L 152.986597 263.76604 
L 153.604987 257.337536 
L 154.223377 253.332238 
L 154.841766 251.930384 
L 155.460156 246.623364 
L 156.078545 242.718199 
L 156.696935 239.894464 
L 157.933714 245.822305 
L 158.552104 254.874278 
L 159.170494 259.440318 
L 159.788883 261.843497 
L 160.407273 257.758093 
L 161.025662 252.531179 
L 163.499221 236.710252 
L 164.11761 237.331073 
L 164.736 238.813033 
L 165.35439 243.819656 
L 166.591169 256.436344 
L 167.209558 256.476397 
L 168.446338 248.626013 
L 169.064727 244.460503 
L 170.919896 238.312371 
L 171.538286 233.726305 
L 172.156675 235.108132 
L 172.775065 240.134781 
L 174.011844 255.43502 
L 174.630234 254.874278 
L 175.867013 245.321642 
L 177.103792 238.512636 
L 177.722182 238.112106 
L 178.340571 230.44196 
L 178.958961 229.000053 
L 180.19574 236.850437 
L 180.81413 244.019921 
L 181.432519 249.587285 
L 182.050909 247.824954 
L 183.906078 234.807735 
L 185.142857 227.47804 
L 185.761247 222.691709 
L 186.379636 219.387338 
L 186.998026 221.229775 
L 188.234805 231.703629 
L 188.853195 239.013298 
L 189.471584 240.114755 
L 190.089974 236.810384 
L 191.326753 231.703629 
L 191.945143 226.496742 
L 192.563532 222.992106 
L 193.181922 218.486146 
L 193.800312 217.084291 
L 194.418701 220.348609 
L 195.037091 224.694358 
L 196.27387 239.51396 
L 196.89226 239.51396 
L 197.510649 235.40853 
L 198.129039 230.301775 
L 198.747429 227.998728 
L 199.365818 223.793166 
L 199.984208 220.989457 
L 200.602597 215.882702 
L 201.220987 213.539603 
L 201.839377 215.38204 
L 203.694545 234.907868 
L 204.312935 235.708927 
L 204.931325 231.24302 
L 205.549714 225.895947 
L 206.786494 218.786543 
L 208.023273 211.176477 
L 208.641662 209.934834 
L 209.260052 211.376742 
L 209.878442 217.544901 
L 210.496831 226.096212 
L 211.115221 231.603497 
L 211.73361 232.604821 
L 213.588779 217.464795 
L 214.207169 215.281907 
L 215.443948 204.808053 
L 216.062338 202.264689 
L 216.680727 204.167205 
L 217.299117 209.774623 
L 217.917506 217.484821 
L 218.535896 222.691709 
L 219.154286 224.193695 
L 219.772675 219.587603 
L 220.391065 213.539603 
L 221.009455 208.87343 
L 221.627844 207.571709 
L 222.864623 198.399576 
L 223.483013 197.157934 
L 224.101403 197.258066 
L 224.719792 202.965616 
L 225.956571 218.025536 
L 226.574961 218.386013 
L 228.43013 204.067073 
L 229.048519 202.164556 
L 229.666909 196.957669 
L 230.285299 193.453033 
L 230.903688 191.450384 
L 231.522078 191.991099 
L 233.377247 213.058967 
L 233.995636 213.179126 
L 234.614026 208.372768 
L 235.850805 197.258066 
L 236.469195 196.056477 
L 237.087584 188.706755 
L 238.324364 183.579974 
L 238.942753 185.14204 
L 240.179532 198.559788 
L 240.797922 205.468927 
L 241.416312 204.868132 
L 243.271481 192.071205 
L 243.88987 187.144689 
L 245.126649 179.134093 
L 245.745039 177.652132 
L 246.363429 180.435815 
L 246.981818 187.244821 
L 248.218597 202.164556 
L 248.836987 201.203285 
L 249.455377 195.255417 
L 250.692156 186.143364 
L 251.310545 182.738861 
L 251.928935 178.232901 
L 252.547325 175.028662 
L 253.165714 173.086093 
L 253.784104 175.729589 
L 254.402494 181.256901 
L 255.020883 190.44906 
L 255.639273 196.857536 
L 256.257662 197.358199 
L 257.494442 187.244821 
L 258.112831 183.579974 
L 258.731221 178.933828 
L 259.34961 176.330384 
L 259.968 169.321113 
L 260.58639 166.317139 
L 261.204779 167.819126 
L 262.441558 180.335682 
L 263.059948 189.447735 
L 263.678338 188.866967 
L 264.296727 184.34098 
L 264.915117 177.011285 
L 266.770286 168.219656 
L 267.388675 159.307868 
L 268.007065 159.508132 
L 268.625455 162.271788 
L 269.243844 168.119523 
L 270.480623 184.461139 
L 271.099013 183.039258 
L 272.335792 172.365139 
L 272.954182 169.22098 
L 273.572571 165.415947 
L 274.190961 159.147656 
L 274.809351 155.602967 
L 275.42774 153.600318 
L 276.04613 156.183735 
L 276.664519 163.112901 
L 277.282909 171.724291 
L 277.901299 176.931179 
L 278.519688 177.732238 
L 279.756468 166.617536 
L 280.993247 161.610914 
L 281.611636 157.946066 
L 282.230026 150.796609 
L 282.848416 148.573669 
L 283.466805 151.397404 
L 284.085195 157.605616 
L 284.703584 165.636238 
L 285.321974 169.721642 
L 285.940364 172.525351 
L 287.177143 161.410649 
L 287.795532 156.904689 
L 288.413922 154.90204 
L 289.032312 150.996874 
L 289.650701 145.489589 
L 290.269091 141.924874 
L 290.887481 144.288 
L 291.50587 151.097007 
L 292.12426 156.584265 
L 292.742649 163.313166 
L 293.361039 163.152954 
L 293.979429 157.205086 
L 294.597818 153.199788 
L 295.834597 141.784689 
L 296.452987 140.382834 
L 297.071377 134.555126 
L 297.689766 132.171974 
L 298.308156 133.874225 
L 298.926545 140.002331 
L 299.544935 147.692503 
L 300.163325 153.900715 
L 300.781714 153.059603 
L 301.400104 148.894093 
L 302.636883 137.779391 
L 303.255273 136.878199 
L 303.873662 134.47502 
L 304.492052 127.425695 
L 305.110442 126.464424 
L 305.728831 128.36694 
L 306.347221 133.433642 
L 306.96561 142.585748 
L 307.584 149.454834 
L 308.20239 148.693828 
L 310.675948 130.269457 
L 312.531117 120.556609 
L 313.149506 124.541881 
L 313.767896 130.169325 
L 315.004675 145.129113 
L 315.623065 143.987603 
L 316.859844 132.312159 
L 317.478234 130.169325 
L 318.096623 126.264159 
L 319.333403 114.44853 
L 319.951792 111.845086 
L 320.570182 116.130755 
L 322.425351 140.382834 
L 323.04374 139.882172 
L 324.280519 128.76747 
L 325.517299 122.138702 
L 326.754078 112.546013 
L 327.372468 110.68355 
L 327.990857 112.345748 
L 329.846026 136.778066 
L 330.464416 135.195974 
L 331.082805 132.071841 
L 332.319584 122.138702 
L 332.937974 120.156079 
L 333.556364 115.149457 
L 334.793143 108.120159 
L 335.411532 110.843762 
L 336.648312 127.565881 
L 337.266701 133.774093 
L 337.885091 132.632583 
L 339.12187 121.758199 
L 339.74026 115.570013 
L 340.358649 113.24694 
L 340.977039 109.14151 
L 341.595429 103.954649 
L 342.213818 102.232371 
L 342.832208 105.236344 
L 343.450597 111.003974 
L 344.068987 119.35502 
L 344.687377 125.162702 
L 345.305766 124.782199 
L 346.542545 112.606093 
L 347.779325 105.136212 
L 348.397714 102.532768 
L 349.016104 95.383311 
L 349.634494 94.02151 
L 350.252883 95.823894 
L 350.871273 101.631576 
L 351.489662 111.344424 
L 352.108052 116.851709 
L 352.726442 117.452503 
L 353.344831 110.943894 
L 355.2 96.124291 
L 355.81839 92.579603 
L 357.055169 87.512901 
L 357.673558 89.295258 
L 358.291948 94.922702 
L 359.528727 111.244291 
L 360.147117 110.343099 
L 360.765506 105.877192 
L 361.383896 99.32853 
L 363.239065 90.576954 
L 363.857455 83.507603 
L 364.475844 82.085722 
L 365.712623 91.317934 
L 366.331013 98.988079 
L 366.949403 108.240318 
L 367.567792 105.837139 
L 368.804571 91.818596 
L 369.422961 87.452821 
L 370.041351 84.008265 
L 371.27813 74.695947 
L 371.896519 72.232689 
L 372.514909 73.794755 
L 373.133299 78.400848 
L 374.370078 93.120318 
L 374.988468 91.538225 
L 376.843636 76.318093 
L 378.080416 70.390252 
L 378.698805 64.882967 
L 379.317195 65.423682 
L 379.935584 67.786808 
L 380.553974 72.79343 
L 381.790753 90.116344 
L 382.409143 88.253881 
L 383.645922 77.199258 
L 384.264312 72.713325 
L 384.882701 71.291444 
L 386.119481 62.619974 
L 386.73787 62.179391 
L 387.35626 62.279523 
L 387.974649 69.02845 
L 388.593039 76.998993 
L 389.211429 82.646464 
L 389.829818 81.905483 
L 391.066597 71.031099 
L 391.684987 68.087205 
L 392.303377 63.481113 
L 393.540156 57.67343 
L 394.158545 53.568 
L 394.776935 56.531921 
L 396.632104 77.279364 
L 397.250494 76.598464 
L 397.868883 71.291444 
L 398.487273 64.702728 
L 398.487273 64.702728 
" clip-path="url(#p0f834e2270)" style="fill: none; stroke: #000000; stroke-width: 1.5; stroke-linecap: square"/>
   </g>
   <g id="patch_3">
    <path d="M 57.6 307.584 
L 57.6 41.472 
" style="fill: none; stroke: #000000; stroke-width: 0.8; stroke-linejoin: miter; stroke-linecap: square"/>
   </g>
   <g id="patch_4">
    <path d="M 414.72 307.584 
L 414.72 41.472 
" style="fill: none; stroke: #000000; stroke-width: 0.8; stroke-linejoin: miter; stroke-linecap: square"/>
   </g>
   <g id="patch_5">
    <path d="M 57.6 307.584 
L 414.72 307.584 
" style="fill: none; stroke: #000000; stroke-width: 0.8; stroke-linejoin: miter; stroke-linecap: square"/>
   </g>
   <g id="patch_6">
    <path d="M 57.6 41.472 
L 414.72 41.472 
" style="fill: none; stroke: #000000; stroke-width: 0.8; stroke-linejoin: miter; stroke-linecap: square"/>
   </g>
  </g>
 </g>
 <defs>
  <clipPath id="p0f834e2270">
   <rect x="57.6" y="41.472" width="357.12" height="266.112"/>
  </clipPath>
 </defs>
</svg>
