<?xml version="1.0" encoding="utf-8" standalone="no"?>
<!DOCTYPE svg PUBLIC "-//W3C//DTD SVG 1.1//EN"
  "http://www.w3.org/Graphics/SVG/1.1/DTD/svg11.dtd">
<svg xmlns:xlink="http://www.w3.org/1999/xlink" width="460.8pt" height="345.6pt" viewBox="0 0 460.8 345.6" xmlns="http://www.w3.org/2000/svg" version="1.1">
 <metadata>
  <rdf:RDF xmlns:dc="http://purl.org/dc/elements/1.1/" xmlns:cc="http://creativecommons.org/ns#" xmlns:rdf="http://www.w3.org/1999/02/22-rdf-syntax-ns#">
   <cc:Work>
    <dc:type rdf:resource="http://purl.org/dc/dcmitype/StillImage"/>
    <dc:format>image/svg+xml</dc:format>
    <dc:creator>
     <cc:Agent>
      <dc:title>Matplotlib v3.8.4, https://matplotlib.org/</dc:title>
     </cc:Agent>
    </dc:creator>
   </cc:Work>
  </rdf:RDF>
 </metadata>
 <defs>
  <style type="text/css">*{stroke-linejoin: round; stroke-linecap: butt}</style>
 </defs>
 <g id="figure_1">
  <g id="patch_1">
   <path d="M 0 345.6 
L 460.8 345.6 
L 460.8 0 
L 0 0 
z
" style="fill: #ffffff"/>
  </g>
  <g id="axes_1">
   <g id="patch_2">
    <path d="M 57.6 307.584 
L 414.72 307.584 
L 414.72 41.472 
L 57.6 41.472 
z
" style="fill: #ffffff"/>
   </g>
   <g id="matplotlib.axis_1">
    <g id="xtick_1">
     <g id="line2d_1">
      <defs>
       <path id="mbcb02aef95" d="M 0 0 
L 0 3.5 
" style="stroke: #000000; stroke-width: 0.8"/>
      </defs>
      <g>
       <use xlink:href="#mbcb02aef95" x="73.832727" y="307.584" style="stroke: #000000; stroke-width: 0.8"/>
      </g>
     </g>
     <g id="text_1">
      <!-- day 1 -->
      <g transform="translate(59.864759 322.182437) scale(0.1 -0.1)">
       <defs>
        <path id="DejaVuSans-64" d="M 2906 2969 
L 2906 4863 
L 3481 4863 
L 3481 0 
L 2906 0 
L 2906 525 
Q 2725 213 2448 61 
Q 2172 -91 1784 -91 
Q 1150 -91 751 415 
Q 353 922 353 1747 
Q 353 2572 751 3078 
Q 1150 3584 1784 3584 
Q 2172 3584 2448 3432 
Q 2725 3281 2906 2969 
z
M 947 1747 
Q 947 1113 1208 752 
Q 1469 391 1925 391 
Q 2381 391 2643 752 
Q 2906 1113 2906 1747 
Q 2906 2381 2643 2742 
Q 2381 3103 1925 3103 
Q 1469 3103 1208 2742 
Q 947 2381 947 1747 
z
" transform="scale(0.015625)"/>
        <path id="DejaVuSans-61" d="M 2194 1759 
Q 1497 1759 1228 1600 
Q 959 1441 959 1056 
Q 959 750 1161 570 
Q 1363 391 1709 391 
Q 2188 391 2477 730 
Q 2766 1069 2766 1631 
L 2766 1759 
L 2194 1759 
z
M 3341 1997 
L 3341 0 
L 2766 0 
L 2766 531 
Q 2569 213 2275 61 
Q 1981 -91 1556 -91 
Q 1019 -91 701 211 
Q 384 513 384 1019 
Q 384 1609 779 1909 
Q 1175 2209 1959 2209 
L 2766 2209 
L 2766 2266 
Q 2766 2663 2505 2880 
Q 2244 3097 1772 3097 
Q 1472 3097 1187 3025 
Q 903 2953 641 2809 
L 641 3341 
Q 956 3463 1253 3523 
Q 1550 3584 1831 3584 
Q 2591 3584 2966 3190 
Q 3341 2797 3341 1997 
z
" transform="scale(0.015625)"/>
        <path id="DejaVuSans-79" d="M 2059 -325 
Q 1816 -950 1584 -1140 
Q 1353 -1331 966 -1331 
L 506 -1331 
L 506 -850 
L 844 -850 
Q 1081 -850 1212 -737 
Q 1344 -625 1503 -206 
L 1606 56 
L 191 3500 
L 800 3500 
L 1894 763 
L 2988 3500 
L 3597 3500 
L 2059 -325 
z
" transform="scale(0.015625)"/>
        <path id="DejaVuSans-20" transform="scale(0.015625)"/>
        <path id="DejaVuSans-31" d="M 794 531 
L 1825 531 
L 1825 4091 
L 703 3866 
L 703 4441 
L 1819 4666 
L 2450 4666 
L 2450 531 
L 3481 531 
L 3481 0 
L 794 0 
L 794 531 
z
" transform="scale(0.015625)"/>
       </defs>
       <use xlink:href="#DejaVuSans-64"/>
       <use xlink:href="#DejaVuSans-61" x="63.476562"/>
       <use xlink:href="#DejaVuSans-79" x="124.755859"/>
       <use xlink:href="#DejaVuSans-20" x="183.935547"/>
       <use xlink:href="#DejaVuSans-31" x="215.722656"/>
      </g>
     </g>
    </g>
    <g id="xtick_2">
     <g id="line2d_2">
      <g>
       <use xlink:href="#mbcb02aef95" x="118.98635" y="307.584" style="stroke: #000000; stroke-width: 0.8"/>
      </g>
     </g>
     <g id="text_2">
      <!-- day 5 -->
      <g transform="translate(105.018381 322.182437) scale(0.1 -0.1)">
       <defs>
        <path id="DejaVuSans-35" d="M 691 4666 
L 3169 4666 
L 3169 4134 
L 1269 4134 
L 1269 2991 
Q 1406 3038 1543 3061 
Q 1681 3084 1819 3084 
Q 2600 3084 3056 2656 
Q 3513 2228 3513 1497 
Q 3513 744 3044 326 
Q 2575 -91 1722 -91 
Q 1428 -91 1123 -41 
Q 819 9 494 109 
L 494 744 
Q 775 591 1075 516 
Q 1375 441 1709 441 
Q 2250 441 2565 725 
Q 2881 1009 2881 1497 
Q 2881 1984 2565 2268 
Q 2250 2553 1709 2553 
Q 1456 2553 1204 2497 
Q 953 2441 691 2322 
L 691 4666 
z
" transform="scale(0.015625)"/>
       </defs>
       <use xlink:href="#DejaVuSans-64"/>
       <use xlink:href="#DejaVuSans-61" x="63.476562"/>
       <use xlink:href="#DejaVuSans-79" x="124.755859"/>
       <use xlink:href="#DejaVuSans-20" x="183.935547"/>
       <use xlink:href="#DejaVuSans-35" x="215.722656"/>
      </g>
     </g>
    </g>
    <g id="xtick_3">
     <g id="line2d_3">
      <g>
       <use xlink:href="#mbcb02aef95" x="164.139972" y="307.584" style="stroke: #000000; stroke-width: 0.8"/>
      </g>
     </g>
     <g id="text_3">
      <!-- day 9 -->
      <g transform="translate(150.172003 322.182437) scale(0.1 -0.1)">
       <defs>
        <path id="DejaVuSans-39" d="M 703 97 
L 703 672 
Q 941 559 1184 500 
Q 1428 441 1663 441 
Q 2288 441 2617 861 
Q 2947 1281 2994 2138 
Q 2813 1869 2534 1725 
Q 2256 1581 1919 1581 
Q 1219 1581 811 2004 
Q 403 2428 403 3163 
Q 403 3881 828 4315 
Q 1253 4750 1959 4750 
Q 2769 4750 3195 4129 
Q 3622 3509 3622 2328 
Q 3622 1225 3098 567 
Q 2575 -91 1691 -91 
Q 1453 -91 1209 -44 
Q 966 3 703 97 
z
M 1959 2075 
Q 2384 2075 2632 2365 
Q 2881 2656 2881 3163 
Q 2881 3666 2632 3958 
Q 2384 4250 1959 4250 
Q 1534 4250 1286 3958 
Q 1038 3666 1038 3163 
Q 1038 2656 1286 2365 
Q 1534 2075 1959 2075 
z
" transform="scale(0.015625)"/>
       </defs>
       <use xlink:href="#DejaVuSans-64"/>
       <use xlink:href="#DejaVuSans-61" x="63.476562"/>
       <use xlink:href="#DejaVuSans-79" x="124.755859"/>
       <use xlink:href="#DejaVuSans-20" x="183.935547"/>
       <use xlink:href="#DejaVuSans-39" x="215.722656"/>
      </g>
     </g>
    </g>
    <g id="xtick_4">
     <g id="line2d_4">
      <g>
       <use xlink:href="#mbcb02aef95" x="209.293595" y="307.584" style="stroke: #000000; stroke-width: 0.8"/>
      </g>
     </g>
     <g id="text_4">
      <!-- day 14 -->
      <g transform="translate(192.144376 322.182437) scale(0.1 -0.1)">
       <defs>
        <path id="DejaVuSans-34" d="M 2419 4116 
L 825 1625 
L 2419 1625 
L 2419 4116 
z
M 2253 4666 
L 3047 4666 
L 3047 1625 
L 3713 1625 
L 3713 1100 
L 3047 1100 
L 3047 0 
L 2419 0 
L 2419 1100 
L 313 1100 
L 313 1709 
L 2253 4666 
z
" transform="scale(0.015625)"/>
       </defs>
       <use xlink:href="#DejaVuSans-64"/>
       <use xlink:href="#DejaVuSans-61" x="63.476562"/>
       <use xlink:href="#DejaVuSans-79" x="124.755859"/>
       <use xlink:href="#DejaVuSans-20" x="183.935547"/>
       <use xlink:href="#DejaVuSans-31" x="215.722656"/>
       <use xlink:href="#DejaVuSans-34" x="279.345703"/>
      </g>
     </g>
    </g>
    <g id="xtick_5">
     <g id="line2d_5">
      <g>
       <use xlink:href="#mbcb02aef95" x="254.447217" y="307.584" style="stroke: #000000; stroke-width: 0.8"/>
      </g>
     </g>
     <g id="text_5">
      <!-- day 18 -->
      <g transform="translate(237.297998 322.182437) scale(0.1 -0.1)">
       <defs>
        <path id="DejaVuSans-38" d="M 2034 2216 
Q 1584 2216 1326 1975 
Q 1069 1734 1069 1313 
Q 1069 891 1326 650 
Q 1584 409 2034 409 
Q 2484 409 2743 651 
Q 3003 894 3003 1313 
Q 3003 1734 2745 1975 
Q 2488 2216 2034 2216 
z
M 1403 2484 
Q 997 2584 770 2862 
Q 544 3141 544 3541 
Q 544 4100 942 4425 
Q 1341 4750 2034 4750 
Q 2731 4750 3128 4425 
Q 3525 4100 3525 3541 
Q 3525 3141 3298 2862 
Q 3072 2584 2669 2484 
Q 3125 2378 3379 2068 
Q 3634 1759 3634 1313 
Q 3634 634 3220 271 
Q 2806 -91 2034 -91 
Q 1263 -91 848 271 
Q 434 634 434 1313 
Q 434 1759 690 2068 
Q 947 2378 1403 2484 
z
M 1172 3481 
Q 1172 3119 1398 2916 
Q 1625 2713 2034 2713 
Q 2441 2713 2670 2916 
Q 2900 3119 2900 3481 
Q 2900 3844 2670 4047 
Q 2441 4250 2034 4250 
Q 1625 4250 1398 4047 
Q 1172 3844 1172 3481 
z
" transform="scale(0.015625)"/>
       </defs>
       <use xlink:href="#DejaVuSans-64"/>
       <use xlink:href="#DejaVuSans-61" x="63.476562"/>
       <use xlink:href="#DejaVuSans-79" x="124.755859"/>
       <use xlink:href="#DejaVuSans-20" x="183.935547"/>
       <use xlink:href="#DejaVuSans-31" x="215.722656"/>
       <use xlink:href="#DejaVuSans-38" x="279.345703"/>
      </g>
     </g>
    </g>
    <g id="xtick_6">
     <g id="line2d_6">
      <g>
       <use xlink:href="#mbcb02aef95" x="299.60084" y="307.584" style="stroke: #000000; stroke-width: 0.8"/>
      </g>
     </g>
     <g id="text_6">
      <!-- day 22 -->
      <g transform="translate(282.451621 322.182437) scale(0.1 -0.1)">
       <defs>
        <path id="DejaVuSans-32" d="M 1228 531 
L 3431 531 
L 3431 0 
L 469 0 
L 469 531 
Q 828 903 1448 1529 
Q 2069 2156 2228 2338 
Q 2531 2678 2651 2914 
Q 2772 3150 2772 3378 
Q 2772 3750 2511 3984 
Q 2250 4219 1831 4219 
Q 1534 4219 1204 4116 
Q 875 4013 500 3803 
L 500 4441 
Q 881 4594 1212 4672 
Q 1544 4750 1819 4750 
Q 2544 4750 2975 4387 
Q 3406 4025 3406 3419 
Q 3406 3131 3298 2873 
Q 3191 2616 2906 2266 
Q 2828 2175 2409 1742 
Q 1991 1309 1228 531 
z
" transform="scale(0.015625)"/>
       </defs>
       <use xlink:href="#DejaVuSans-64"/>
       <use xlink:href="#DejaVuSans-61" x="63.476562"/>
       <use xlink:href="#DejaVuSans-79" x="124.755859"/>
       <use xlink:href="#DejaVuSans-20" x="183.935547"/>
       <use xlink:href="#DejaVuSans-32" x="215.722656"/>
       <use xlink:href="#DejaVuSans-32" x="279.345703"/>
      </g>
     </g>
    </g>
    <g id="xtick_7">
     <g id="line2d_7">
      <g>
       <use xlink:href="#mbcb02aef95" x="344.754462" y="307.584" style="stroke: #000000; stroke-width: 0.8"/>
      </g>
     </g>
     <g id="text_7">
      <!-- day 26 -->
      <g transform="translate(327.605243 322.182437) scale(0.1 -0.1)">
       <defs>
        <path id="DejaVuSans-36" d="M 2113 2584 
Q 1688 2584 1439 2293 
Q 1191 2003 1191 1497 
Q 1191 994 1439 701 
Q 1688 409 2113 409 
Q 2538 409 2786 701 
Q 3034 994 3034 1497 
Q 3034 2003 2786 2293 
Q 2538 2584 2113 2584 
z
M 3366 4563 
L 3366 3988 
Q 3128 4100 2886 4159 
Q 2644 4219 2406 4219 
Q 1781 4219 1451 3797 
Q 1122 3375 1075 2522 
Q 1259 2794 1537 2939 
Q 1816 3084 2150 3084 
Q 2853 3084 3261 2657 
Q 3669 2231 3669 1497 
Q 3669 778 3244 343 
Q 2819 -91 2113 -91 
Q 1303 -91 875 529 
Q 447 1150 447 2328 
Q 447 3434 972 4092 
Q 1497 4750 2381 4750 
Q 2619 4750 2861 4703 
Q 3103 4656 3366 4563 
z
" transform="scale(0.015625)"/>
       </defs>
       <use xlink:href="#DejaVuSans-64"/>
       <use xlink:href="#DejaVuSans-61" x="63.476562"/>
       <use xlink:href="#DejaVuSans-79" x="124.755859"/>
       <use xlink:href="#DejaVuSans-20" x="183.935547"/>
       <use xlink:href="#DejaVuSans-32" x="215.722656"/>
       <use xlink:href="#DejaVuSans-36" x="279.345703"/>
      </g>
     </g>
    </g>
    <g id="xtick_8">
     <g id="line2d_8">
      <g>
       <use xlink:href="#mbcb02aef95" x="389.908084" y="307.584" style="stroke: #000000; stroke-width: 0.8"/>
      </g>
     </g>
     <g id="text_8">
      <!-- day 30 -->
      <g transform="translate(372.758866 322.182437) scale(0.1 -0.1)">
       <defs>
        <path id="DejaVuSans-33" d="M 2597 2516 
Q 3050 2419 3304 2112 
Q 3559 1806 3559 1356 
Q 3559 666 3084 287 
Q 2609 -91 1734 -91 
Q 1441 -91 1130 -33 
Q 819 25 488 141 
L 488 750 
Q 750 597 1062 519 
Q 1375 441 1716 441 
Q 2309 441 2620 675 
Q 2931 909 2931 1356 
Q 2931 1769 2642 2001 
Q 2353 2234 1838 2234 
L 1294 2234 
L 1294 2753 
L 1863 2753 
Q 2328 2753 2575 2939 
Q 2822 3125 2822 3475 
Q 2822 3834 2567 4026 
Q 2313 4219 1838 4219 
Q 1578 4219 1281 4162 
Q 984 4106 628 3988 
L 628 4550 
Q 988 4650 1302 4700 
Q 1616 4750 1894 4750 
Q 2613 4750 3031 4423 
Q 3450 4097 3450 3541 
Q 3450 3153 3228 2886 
Q 3006 2619 2597 2516 
z
" transform="scale(0.015625)"/>
        <path id="DejaVuSans-30" d="M 2034 4250 
Q 1547 4250 1301 3770 
Q 1056 3291 1056 2328 
Q 1056 1369 1301 889 
Q 1547 409 2034 409 
Q 2525 409 2770 889 
Q 3016 1369 3016 2328 
Q 3016 3291 2770 3770 
Q 2525 4250 2034 4250 
z
M 2034 4750 
Q 2819 4750 3233 4129 
Q 3647 3509 3647 2328 
Q 3647 1150 3233 529 
Q 2819 -91 2034 -91 
Q 1250 -91 836 529 
Q 422 1150 422 2328 
Q 422 3509 836 4129 
Q 1250 4750 2034 4750 
z
" transform="scale(0.015625)"/>
       </defs>
       <use xlink:href="#DejaVuSans-64"/>
       <use xlink:href="#DejaVuSans-61" x="63.476562"/>
       <use xlink:href="#DejaVuSans-79" x="124.755859"/>
       <use xlink:href="#DejaVuSans-20" x="183.935547"/>
       <use xlink:href="#DejaVuSans-33" x="215.722656"/>
       <use xlink:href="#DejaVuSans-30" x="279.345703"/>
      </g>
     </g>
    </g>
   </g>
   <g id="matplotlib.axis_2">
    <g id="ytick_1">
     <g id="line2d_9">
      <defs>
       <path id="me5179b328b" d="M 0 0 
L -3.5 0 
" style="stroke: #000000; stroke-width: 0.8"/>
      </defs>
      <g>
       <use xlink:href="#me5179b328b" x="57.6" y="301.943201" style="stroke: #000000; stroke-width: 0.8"/>
      </g>
     </g>
     <g id="text_9">
      <!-- −140 -->
      <g transform="translate(23.132812 305.74242) scale(0.1 -0.1)">
       <defs>
        <path id="DejaVuSans-2212" d="M 678 2272 
L 4684 2272 
L 4684 1741 
L 678 1741 
L 678 2272 
z
" transform="scale(0.015625)"/>
       </defs>
       <use xlink:href="#DejaVuSans-2212"/>
       <use xlink:href="#DejaVuSans-31" x="83.789062"/>
       <use xlink:href="#DejaVuSans-34" x="147.412109"/>
       <use xlink:href="#DejaVuSans-30" x="211.035156"/>
      </g>
     </g>
    </g>
    <g id="ytick_2">
     <g id="line2d_10">
      <g>
       <use xlink:href="#me5179b328b" x="57.6" y="259.501096" style="stroke: #000000; stroke-width: 0.8"/>
      </g>
     </g>
     <g id="text_10">
      <!-- −120 -->
      <g transform="translate(23.132812 263.300314) scale(0.1 -0.1)">
       <use xlink:href="#DejaVuSans-2212"/>
       <use xlink:href="#DejaVuSans-31" x="83.789062"/>
       <use xlink:href="#DejaVuSans-32" x="147.412109"/>
       <use xlink:href="#DejaVuSans-30" x="211.035156"/>
      </g>
     </g>
    </g>
    <g id="ytick_3">
     <g id="line2d_11">
      <g>
       <use xlink:href="#me5179b328b" x="57.6" y="217.05899" style="stroke: #000000; stroke-width: 0.8"/>
      </g>
     </g>
     <g id="text_11">
      <!-- −100 -->
      <g transform="translate(23.132812 220.858209) scale(0.1 -0.1)">
       <use xlink:href="#DejaVuSans-2212"/>
       <use xlink:href="#DejaVuSans-31" x="83.789062"/>
       <use xlink:href="#DejaVuSans-30" x="147.412109"/>
       <use xlink:href="#DejaVuSans-30" x="211.035156"/>
      </g>
     </g>
    </g>
    <g id="ytick_4">
     <g id="line2d_12">
      <g>
       <use xlink:href="#me5179b328b" x="57.6" y="174.616885" style="stroke: #000000; stroke-width: 0.8"/>
      </g>
     </g>
     <g id="text_12">
      <!-- −80 -->
      <g transform="translate(29.495313 178.416104) scale(0.1 -0.1)">
       <use xlink:href="#DejaVuSans-2212"/>
       <use xlink:href="#DejaVuSans-38" x="83.789062"/>
       <use xlink:href="#DejaVuSans-30" x="147.412109"/>
      </g>
     </g>
    </g>
    <g id="ytick_5">
     <g id="line2d_13">
      <g>
       <use xlink:href="#me5179b328b" x="57.6" y="132.17478" style="stroke: #000000; stroke-width: 0.8"/>
      </g>
     </g>
     <g id="text_13">
      <!-- −60 -->
      <g transform="translate(29.495313 135.973999) scale(0.1 -0.1)">
       <use xlink:href="#DejaVuSans-2212"/>
       <use xlink:href="#DejaVuSans-36" x="83.789062"/>
       <use xlink:href="#DejaVuSans-30" x="147.412109"/>
      </g>
     </g>
    </g>
    <g id="ytick_6">
     <g id="line2d_14">
      <g>
       <use xlink:href="#me5179b328b" x="57.6" y="89.732675" style="stroke: #000000; stroke-width: 0.8"/>
      </g>
     </g>
     <g id="text_14">
      <!-- −40 -->
      <g transform="translate(29.495313 93.531893) scale(0.1 -0.1)">
       <use xlink:href="#DejaVuSans-2212"/>
       <use xlink:href="#DejaVuSans-34" x="83.789062"/>
       <use xlink:href="#DejaVuSans-30" x="147.412109"/>
      </g>
     </g>
    </g>
    <g id="ytick_7">
     <g id="line2d_15">
      <g>
       <use xlink:href="#me5179b328b" x="57.6" y="47.290569" style="stroke: #000000; stroke-width: 0.8"/>
      </g>
     </g>
     <g id="text_15">
      <!-- −20 -->
      <g transform="translate(29.495313 51.089788) scale(0.1 -0.1)">
       <use xlink:href="#DejaVuSans-2212"/>
       <use xlink:href="#DejaVuSans-32" x="83.789062"/>
       <use xlink:href="#DejaVuSans-30" x="147.412109"/>
      </g>
     </g>
    </g>
   </g>
   <g id="line2d_16">
    <path d="M 73.832727 282.755368 
L 74.284263 265.778526 
L 74.7358 257.290105 
L 75.187336 261.534316 
L 75.638872 282.755368 
L 76.090408 282.755368 
L 76.541945 291.243789 
L 76.993481 270.022737 
L 77.445017 257.290105 
L 77.896553 261.534316 
L 78.34809 244.557474 
L 78.799626 231.824842 
L 79.251162 223.336421 
L 79.702698 236.069053 
L 80.154234 219.092211 
L 80.605771 206.359579 
L 81.057307 219.092211 
L 81.508843 223.336421 
L 81.960379 248.801684 
L 82.411916 236.069053 
L 82.863452 206.359579 
L 83.314988 214.848 
L 83.766524 240.313263 
L 84.21806 253.045895 
L 84.669597 236.069053 
L 85.121133 244.557474 
L 85.572669 240.313263 
L 86.024205 240.313263 
L 86.475742 274.266947 
L 86.927278 274.266947 
L 87.378814 265.778526 
L 87.83035 274.266947 
L 88.281886 231.824842 
L 88.733423 261.534316 
L 89.184959 240.313263 
L 89.636495 155.429053 
L 90.088031 117.231158 
L 90.539568 202.115368 
L 90.991104 163.917474 
L 91.44264 219.092211 
L 91.894176 155.429053 
L 92.345712 210.603789 
L 92.797249 202.115368 
L 93.248785 210.603789 
L 93.700321 168.161684 
L 94.151857 197.871158 
L 94.603394 185.138526 
L 95.05493 168.161684 
L 95.506466 193.626947 
L 95.958002 244.557474 
L 96.409539 231.824842 
L 97.312611 278.511158 
L 97.764147 282.755368 
L 98.215683 270.022737 
L 98.66722 274.266947 
L 99.570292 291.243789 
L 100.021828 282.755368 
L 100.473365 214.848 
L 100.924901 202.115368 
L 101.376437 240.313263 
L 101.827973 151.184842 
L 102.279509 155.429053 
L 103.182582 202.115368 
L 103.634118 206.359579 
L 104.085654 189.382737 
L 104.537191 236.069053 
L 104.988727 210.603789 
L 105.440263 210.603789 
L 106.343335 244.557474 
L 106.794872 231.824842 
L 107.697944 231.824842 
L 108.14948 253.045895 
L 108.601017 265.778526 
L 109.052553 291.243789 
L 109.504089 253.045895 
L 109.955625 248.801684 
L 110.407161 231.824842 
L 110.858698 219.092211 
L 111.310234 236.069053 
L 111.76177 219.092211 
L 112.213306 227.580632 
L 112.664843 214.848 
L 113.116379 206.359579 
L 113.567915 206.359579 
L 114.019451 197.871158 
L 114.470987 227.580632 
L 114.922524 223.336421 
L 115.37406 193.626947 
L 115.825596 223.336421 
L 116.277132 206.359579 
L 116.728669 96.010105 
L 117.631741 197.871158 
L 118.083277 214.848 
L 118.534814 244.557474 
L 118.98635 261.534316 
L 119.437886 253.045895 
L 119.889422 248.801684 
L 120.340958 278.511158 
L 120.792495 240.313263 
L 121.244031 274.266947 
L 121.695567 231.824842 
L 122.147103 206.359579 
L 122.59864 193.626947 
L 123.050176 197.871158 
L 123.501712 236.069053 
L 123.953248 185.138526 
L 124.404784 227.580632 
L 124.856321 210.603789 
L 125.307857 219.092211 
L 125.759393 206.359579 
L 126.210929 219.092211 
L 126.662466 214.848 
L 127.114002 180.894316 
L 127.565538 236.069053 
L 128.017074 244.557474 
L 128.46861 236.069053 
L 128.920147 261.534316 
L 129.371683 231.824842 
L 129.823219 274.266947 
L 130.274755 257.290105 
L 130.726292 282.755368 
L 131.177828 265.778526 
L 131.629364 253.045895 
L 132.0809 270.022737 
L 132.532436 274.266947 
L 132.983973 244.557474 
L 133.435509 278.511158 
L 133.887045 265.778526 
L 134.338581 265.778526 
L 134.790118 261.534316 
L 135.241654 265.778526 
L 135.69319 236.069053 
L 136.144726 278.511158 
L 136.596262 265.778526 
L 137.047799 244.557474 
L 137.499335 257.290105 
L 137.950871 261.534316 
L 138.402407 214.848 
L 138.853944 253.045895 
L 139.30548 244.557474 
L 139.757016 265.778526 
L 140.208552 274.266947 
L 140.660089 270.022737 
L 141.111625 274.266947 
L 141.563161 286.999579 
L 142.014697 286.999579 
L 142.466233 295.488 
L 144.272378 295.488 
L 144.723915 278.511158 
L 145.175451 265.778526 
L 145.626987 257.290105 
L 146.078523 244.557474 
L 146.530059 265.778526 
L 146.981596 270.022737 
L 147.884668 244.557474 
L 148.336204 265.778526 
L 148.787741 227.580632 
L 149.239277 265.778526 
L 149.690813 253.045895 
L 150.142349 291.243789 
L 150.593885 265.778526 
L 151.045422 261.534316 
L 151.496958 270.022737 
L 151.948494 295.488 
L 152.40003 274.266947 
L 152.851567 282.755368 
L 153.303103 248.801684 
L 153.754639 248.801684 
L 154.206175 231.824842 
L 154.657711 206.359579 
L 155.109248 87.521684 
L 155.560784 248.801684 
L 156.01232 180.894316 
L 156.463856 185.138526 
L 156.915393 206.359579 
L 157.366929 189.382737 
L 157.818465 240.313263 
L 158.270001 176.650105 
L 158.721537 214.848 
L 159.173074 142.696421 
L 159.62461 96.010105 
L 160.076146 189.382737 
L 160.527682 121.475368 
L 160.979219 236.069053 
L 161.882291 274.266947 
L 162.333827 261.534316 
L 162.785364 257.290105 
L 163.2369 261.534316 
L 163.688436 257.290105 
L 164.139972 240.313263 
L 164.591508 253.045895 
L 165.043045 214.848 
L 165.494581 189.382737 
L 165.946117 244.557474 
L 166.397653 244.557474 
L 166.84919 223.336421 
L 167.300726 219.092211 
L 167.752262 240.313263 
L 168.203798 176.650105 
L 168.655334 197.871158 
L 169.106871 189.382737 
L 169.558407 193.626947 
L 170.009943 206.359579 
L 170.461479 180.894316 
L 170.913016 197.871158 
L 171.364552 227.580632 
L 171.816088 240.313263 
L 172.267624 231.824842 
L 172.71916 253.045895 
L 173.170697 253.045895 
L 173.622233 244.557474 
L 174.073769 231.824842 
L 174.525305 240.313263 
L 174.976842 253.045895 
L 175.428378 223.336421 
L 175.879914 286.999579 
L 176.33145 295.488 
L 176.782986 295.488 
L 177.234523 257.290105 
L 177.686059 240.313263 
L 178.137595 231.824842 
L 178.589131 265.778526 
L 179.040668 185.138526 
L 179.492204 261.534316 
L 179.94374 240.313263 
L 180.395276 202.115368 
L 181.298349 219.092211 
L 181.749885 185.138526 
L 182.201421 236.069053 
L 182.652957 253.045895 
L 183.104494 257.290105 
L 183.55603 219.092211 
L 184.007566 261.534316 
L 184.459102 270.022737 
L 184.910639 265.778526 
L 185.362175 248.801684 
L 185.813711 261.534316 
L 186.265247 223.336421 
L 186.716783 240.313263 
L 187.16832 185.138526 
L 187.619856 223.336421 
L 188.071392 231.824842 
L 188.974465 223.336421 
L 189.426001 202.115368 
L 189.877537 227.580632 
L 190.780609 180.894316 
L 191.232146 155.429053 
L 191.683682 219.092211 
L 192.135218 202.115368 
L 192.586754 172.405895 
L 193.038291 206.359579 
L 193.489827 219.092211 
L 193.941363 236.069053 
L 194.392899 257.290105 
L 194.844435 286.999579 
L 195.295972 265.778526 
L 195.747508 261.534316 
L 196.199044 274.266947 
L 196.65058 248.801684 
L 197.553653 231.824842 
L 198.005189 193.626947 
L 198.456725 214.848 
L 198.908261 223.336421 
L 199.359798 197.871158 
L 199.811334 219.092211 
L 200.714406 210.603789 
L 201.165943 231.824842 
L 201.617479 185.138526 
L 202.069015 189.382737 
L 202.520551 214.848 
L 202.972087 163.917474 
L 203.423624 197.871158 
L 203.87516 202.115368 
L 204.326696 180.894316 
L 204.778232 189.382737 
L 206.132841 274.266947 
L 206.584377 253.045895 
L 207.48745 261.534316 
L 207.938986 248.801684 
L 208.390522 227.580632 
L 208.842058 219.092211 
L 209.293595 223.336421 
L 209.745131 219.092211 
L 210.648203 253.045895 
L 211.09974 214.848 
L 211.551276 244.557474 
L 212.002812 261.534316 
L 212.905884 176.650105 
L 213.357421 248.801684 
L 213.808957 214.848 
L 214.260493 223.336421 
L 214.712029 227.580632 
L 215.163566 274.266947 
L 215.615102 274.266947 
L 216.066638 257.290105 
L 216.518174 270.022737 
L 216.96971 261.534316 
L 217.421247 286.999579 
L 217.872783 257.290105 
L 218.324319 248.801684 
L 218.775855 248.801684 
L 219.227392 236.069053 
L 219.678928 253.045895 
L 220.130464 248.801684 
L 220.582 253.045895 
L 221.033536 244.557474 
L 221.485073 223.336421 
L 221.936609 248.801684 
L 222.388145 257.290105 
L 222.839681 231.824842 
L 223.291218 223.336421 
L 223.742754 231.824842 
L 224.19429 214.848 
L 224.645826 236.069053 
L 225.097362 248.801684 
L 225.548899 223.336421 
L 226.000435 248.801684 
L 226.451971 265.778526 
L 226.903507 274.266947 
L 227.355044 261.534316 
L 227.80658 265.778526 
L 228.258116 265.778526 
L 228.709652 274.266947 
L 229.161189 257.290105 
L 229.612725 214.848 
L 230.064261 210.603789 
L 230.515797 231.824842 
L 230.967333 206.359579 
L 231.41887 244.557474 
L 231.870406 227.580632 
L 232.321942 244.557474 
L 232.773478 210.603789 
L 233.225015 193.626947 
L 233.676551 159.673263 
L 234.128087 231.824842 
L 234.579623 214.848 
L 235.031159 210.603789 
L 235.482696 176.650105 
L 235.934232 197.871158 
L 236.385768 185.138526 
L 236.837304 236.069053 
L 237.288841 223.336421 
L 237.740377 236.069053 
L 238.191913 257.290105 
L 238.643449 270.022737 
L 239.094985 257.290105 
L 239.546522 240.313263 
L 239.998058 270.022737 
L 240.90113 214.848 
L 241.352667 189.382737 
L 241.804203 189.382737 
L 242.255739 236.069053 
L 242.707275 202.115368 
L 243.158811 176.650105 
L 243.610348 210.603789 
L 244.061884 155.429053 
L 244.51342 210.603789 
L 244.964956 193.626947 
L 245.416493 180.894316 
L 245.868029 53.568 
L 246.319565 66.300632 
L 246.771101 180.894316 
L 247.222638 210.603789 
L 247.674174 206.359579 
L 248.12571 248.801684 
L 248.577246 227.580632 
L 249.028782 278.511158 
L 249.480319 265.778526 
L 249.931855 274.266947 
L 250.383391 261.534316 
L 250.834927 274.266947 
L 251.286464 227.580632 
L 251.738 146.940632 
L 252.189536 193.626947 
L 252.641072 210.603789 
L 253.544145 129.963789 
L 253.995681 206.359579 
L 254.447217 185.138526 
L 254.898753 193.626947 
L 255.35029 180.894316 
L 255.801826 155.429053 
L 256.253362 189.382737 
L 256.704898 206.359579 
L 257.156434 214.848 
L 257.607971 240.313263 
L 258.059507 197.871158 
L 258.511043 240.313263 
L 258.962579 236.069053 
L 259.414116 278.511158 
L 259.865652 274.266947 
L 260.317188 261.534316 
L 260.768724 257.290105 
L 261.22026 257.290105 
L 261.671797 248.801684 
L 262.123333 248.801684 
L 262.574869 210.603789 
L 263.026405 185.138526 
L 263.477942 180.894316 
L 263.929478 197.871158 
L 264.381014 155.429053 
L 265.284086 202.115368 
L 265.735623 197.871158 
L 266.187159 227.580632 
L 266.638695 193.626947 
L 267.541768 210.603789 
L 267.993304 197.871158 
L 268.44484 112.986947 
L 268.896376 214.848 
L 269.347913 206.359579 
L 269.799449 214.848 
L 270.250985 219.092211 
L 271.154057 274.266947 
L 271.605594 253.045895 
L 272.05713 257.290105 
L 272.508666 244.557474 
L 272.960202 244.557474 
L 273.411739 270.022737 
L 274.314811 180.894316 
L 274.766347 244.557474 
L 275.217883 163.917474 
L 276.120956 197.871158 
L 276.572492 185.138526 
L 277.024028 227.580632 
L 277.475565 193.626947 
L 277.927101 223.336421 
L 278.378637 197.871158 
L 278.830173 236.069053 
L 279.281709 206.359579 
L 279.733246 206.359579 
L 280.184782 253.045895 
L 280.636318 253.045895 
L 281.087854 257.290105 
L 281.539391 274.266947 
L 281.990927 244.557474 
L 282.442463 261.534316 
L 282.893999 253.045895 
L 283.345535 231.824842 
L 283.797072 257.290105 
L 284.248608 244.557474 
L 284.700144 248.801684 
L 285.15168 219.092211 
L 286.054753 257.290105 
L 286.506289 214.848 
L 286.957825 206.359579 
L 287.409361 202.115368 
L 287.860898 240.313263 
L 288.312434 248.801684 
L 288.76397 270.022737 
L 289.667043 253.045895 
L 290.118579 240.313263 
L 290.570115 240.313263 
L 291.021651 278.511158 
L 291.473188 286.999579 
L 291.924724 240.313263 
L 292.37626 270.022737 
L 292.827796 282.755368 
L 293.279332 270.022737 
L 293.730869 270.022737 
L 294.182405 261.534316 
L 294.633941 231.824842 
L 295.085477 270.022737 
L 295.537014 257.290105 
L 295.98855 223.336421 
L 296.440086 248.801684 
L 296.891622 231.824842 
L 297.343158 248.801684 
L 297.794695 240.313263 
L 298.246231 253.045895 
L 298.697767 248.801684 
L 299.149303 240.313263 
L 299.60084 236.069053 
L 300.052376 210.603789 
L 300.503912 253.045895 
L 300.955448 223.336421 
L 301.406984 210.603789 
L 301.858521 253.045895 
L 302.310057 244.557474 
L 302.761593 261.534316 
L 303.213129 270.022737 
L 303.664666 253.045895 
L 304.116202 244.557474 
L 304.567738 261.534316 
L 305.019274 244.557474 
L 305.47081 231.824842 
L 305.922347 121.475368 
L 306.373883 74.789053 
L 306.825419 125.719579 
L 307.276955 206.359579 
L 307.728492 129.963789 
L 308.180028 155.429053 
L 308.631564 146.940632 
L 309.0831 146.940632 
L 309.534636 151.184842 
L 309.986173 108.742737 
L 310.437709 146.940632 
L 310.889245 151.184842 
L 311.340781 104.498526 
L 311.792318 206.359579 
L 312.243854 125.719579 
L 312.69539 214.848 
L 313.146926 240.313263 
L 313.598463 227.580632 
L 314.049999 244.557474 
L 314.501535 244.557474 
L 314.953071 261.534316 
L 315.404607 240.313263 
L 315.856144 261.534316 
L 316.30768 189.382737 
L 316.759216 202.115368 
L 317.210752 151.184842 
L 317.662289 159.673263 
L 318.113825 189.382737 
L 318.565361 138.452211 
L 319.016897 168.161684 
L 319.468433 172.405895 
L 320.371506 96.010105 
L 320.823042 91.765895 
L 321.274578 138.452211 
L 321.726115 142.696421 
L 322.177651 176.650105 
L 322.629187 172.405895 
L 323.080723 159.673263 
L 323.532259 206.359579 
L 323.983796 219.092211 
L 324.435332 236.069053 
L 324.886868 236.069053 
L 325.338404 261.534316 
L 325.789941 261.534316 
L 326.241477 240.313263 
L 326.693013 244.557474 
L 327.144549 231.824842 
L 327.596085 197.871158 
L 328.047622 219.092211 
L 328.499158 151.184842 
L 328.950694 185.138526 
L 329.40223 129.963789 
L 329.853767 142.696421 
L 330.305303 197.871158 
L 330.756839 214.848 
L 331.208375 210.603789 
L 331.659911 197.871158 
L 332.111448 197.871158 
L 332.562984 180.894316 
L 333.01452 172.405895 
L 333.466056 176.650105 
L 333.917593 176.650105 
L 334.369129 210.603789 
L 334.820665 206.359579 
L 335.272201 253.045895 
L 335.723738 257.290105 
L 336.175274 270.022737 
L 336.62681 278.511158 
L 337.078346 240.313263 
L 337.529882 253.045895 
L 337.981419 223.336421 
L 338.432955 240.313263 
L 338.884491 193.626947 
L 339.336027 219.092211 
L 339.787564 180.894316 
L 340.2391 155.429053 
L 340.690636 202.115368 
L 341.142172 231.824842 
L 341.593708 231.824842 
L 342.045245 197.871158 
L 342.948317 189.382737 
L 343.399853 180.894316 
L 343.85139 151.184842 
L 344.302926 172.405895 
L 344.754462 159.673263 
L 345.205998 231.824842 
L 345.657534 210.603789 
L 346.109071 248.801684 
L 346.560607 257.290105 
L 347.012143 248.801684 
L 347.463679 261.534316 
L 347.915216 244.557474 
L 348.366752 278.511158 
L 348.818288 197.871158 
L 349.269824 231.824842 
L 349.72136 189.382737 
L 350.172897 231.824842 
L 351.075969 197.871158 
L 351.527505 202.115368 
L 351.979042 227.580632 
L 352.430578 231.824842 
L 352.882114 202.115368 
L 353.33365 185.138526 
L 353.785186 193.626947 
L 354.236723 159.673263 
L 354.688259 244.557474 
L 355.139795 240.313263 
L 355.591331 244.557474 
L 356.042868 253.045895 
L 356.494404 265.778526 
L 356.94594 240.313263 
L 357.397476 278.511158 
L 357.849013 265.778526 
L 358.300549 282.755368 
L 358.752085 278.511158 
L 359.203621 282.755368 
L 359.655157 274.266947 
L 360.106694 240.313263 
L 360.55823 274.266947 
L 361.009766 240.313263 
L 361.912839 240.313263 
L 362.364375 236.069053 
L 362.815911 265.778526 
L 363.267447 253.045895 
L 363.718983 265.778526 
L 364.17052 231.824842 
L 364.622056 219.092211 
L 365.073592 257.290105 
L 365.525128 253.045895 
L 365.976665 261.534316 
L 366.428201 227.580632 
L 366.879737 270.022737 
L 367.331273 265.778526 
L 367.782809 278.511158 
L 368.685882 278.511158 
L 369.137418 261.534316 
L 369.588954 253.045895 
L 370.040491 274.266947 
L 370.492027 257.290105 
L 370.943563 261.534316 
L 371.395099 248.801684 
L 371.846635 261.534316 
L 372.298172 244.557474 
L 372.749708 240.313263 
L 373.201244 261.534316 
L 373.65278 248.801684 
L 374.104317 261.534316 
L 374.555853 286.999579 
L 375.007389 236.069053 
L 375.458925 261.534316 
L 375.910461 248.801684 
L 376.361998 244.557474 
L 376.813534 257.290105 
L 377.26507 244.557474 
L 377.716606 257.290105 
L 378.168143 265.778526 
L 378.619679 278.511158 
L 379.071215 244.557474 
L 379.522751 274.266947 
L 379.974288 286.999579 
L 380.425824 286.999579 
L 380.87736 282.755368 
L 381.780432 240.313263 
L 382.231969 185.138526 
L 382.683505 180.894316 
L 383.135041 236.069053 
L 383.586577 189.382737 
L 384.038114 197.871158 
L 384.48965 219.092211 
L 384.941186 193.626947 
L 385.392722 248.801684 
L 385.844258 214.848 
L 386.295795 172.405895 
L 386.747331 227.580632 
L 387.198867 172.405895 
L 387.650403 134.208 
L 388.10194 236.069053 
L 388.553476 223.336421 
L 389.005012 236.069053 
L 389.456548 244.557474 
L 389.908084 257.290105 
L 390.359621 248.801684 
L 390.811157 257.290105 
L 391.262693 257.290105 
L 391.714229 219.092211 
L 392.165766 231.824842 
L 392.617302 202.115368 
L 393.068838 142.696421 
L 393.520374 146.940632 
L 393.97191 206.359579 
L 394.423447 163.917474 
L 394.874983 146.940632 
L 395.326519 189.382737 
L 395.778055 197.871158 
L 396.229592 168.161684 
L 396.681128 176.650105 
L 397.132664 193.626947 
L 397.5842 168.161684 
L 398.035737 197.871158 
L 398.487273 163.917474 
L 398.487273 163.917474 
" clip-path="url(#p0f834e2270)" style="fill: none; stroke: #1f77b4; stroke-width: 1.5; stroke-linecap: square"/>
   </g>
   <g id="line2d_17">
    <path d="M 73.832727 229.95593 
L 74.7358 252.076218 
L 75.638872 267.806262 
L 76.090408 272.271473 
L 76.541945 274.211356 
L 76.993481 273.629177 
L 77.445017 270.686573 
L 77.896553 265.691698 
L 78.799626 251.372671 
L 80.154234 227.636452 
L 80.605771 221.423023 
L 81.057307 216.840996 
L 81.508843 214.188101 
L 81.960379 213.615599 
L 82.411916 215.118108 
L 82.863452 218.53416 
L 83.766524 229.758287 
L 85.121133 249.945751 
L 85.572669 255.254804 
L 86.024205 258.963057 
L 86.475742 260.667769 
L 86.927278 260.098666 
L 87.378814 257.138984 
L 87.83035 251.836294 
L 88.733423 235.201403 
L 90.991104 182.717394 
L 91.44264 175.423792 
L 91.894176 170.507703 
L 92.345712 168.3084 
L 92.797249 169.002001 
L 93.248785 172.588178 
L 93.700321 178.888244 
L 94.603394 198.092588 
L 96.861075 255.542394 
L 97.312611 263.207962 
L 97.764147 268.332538 
L 98.215683 270.644793 
L 98.66722 270.050987 
L 99.118756 266.640495 
L 99.570292 260.679533 
L 100.473365 242.939047 
L 102.279509 202.185265 
L 102.731046 194.832646 
L 103.182582 189.711577 
L 103.634118 187.142661 
L 104.085654 187.276874 
L 104.537191 190.086739 
L 104.988727 195.369157 
L 105.891799 211.757005 
L 107.697944 251.041736 
L 108.14948 258.402986 
L 108.601017 263.670812 
L 109.052553 266.49645 
L 109.504089 266.690569 
L 109.955625 264.234476 
L 110.407161 259.280088 
L 111.310234 243.259652 
L 113.567915 193.868579 
L 114.019451 187.254909 
L 114.470987 182.833877 
L 114.922524 180.827761 
L 115.37406 181.299551 
L 115.825596 184.151034 
L 116.277132 189.131582 
L 117.180205 203.836734 
L 118.98635 236.795671 
L 119.437886 242.544658 
L 119.889422 246.453318 
L 120.340958 248.309249 
L 120.792495 248.047381 
L 121.244031 245.752684 
L 121.695567 241.652728 
L 122.59864 229.549997 
L 123.953248 209.248053 
L 124.404784 204.054646 
L 124.856321 200.420447 
L 125.307857 198.668106 
L 125.759393 198.993621 
L 126.210929 201.454011 
L 126.662466 205.964505 
L 127.565538 220.13773 
L 130.274755 271.507736 
L 130.726292 276.384144 
L 131.177828 279.34866 
L 131.629364 280.334451 
L 132.0809 279.407327 
L 132.532436 276.759181 
L 132.983973 272.692903 
L 134.338581 256.16806 
L 135.241654 246.213571 
L 135.69319 242.827024 
L 136.144726 240.899424 
L 136.596262 240.596204 
L 137.047799 241.962599 
L 137.499335 244.922292 
L 137.950871 249.284614 
L 138.853944 260.98055 
L 140.208552 279.881254 
L 141.111625 288.643565 
L 141.563161 290.961888 
L 142.014697 291.715445 
L 142.466233 290.901896 
L 142.91777 288.631088 
L 143.369306 285.115746 
L 144.272378 275.609616 
L 145.626987 260.934631 
L 146.078523 257.420936 
L 146.530059 255.060784 
L 146.981596 253.996138 
L 147.433132 254.257451 
L 147.884668 255.759575 
L 148.336204 258.306138 
L 150.593885 274.210443 
L 151.045422 275.071877 
L 151.496958 274.285071 
L 151.948494 271.62951 
L 152.40003 267.003505 
L 152.851567 260.435767 
L 153.754639 242.250053 
L 156.463856 178.870708 
L 156.915393 172.579509 
L 157.366929 168.670323 
L 157.818465 167.341444 
L 158.270001 168.645255 
L 158.721537 172.483252 
L 159.173074 178.610665 
L 160.076146 196.11588 
L 161.882291 236.443427 
L 162.785364 250.03933 
L 163.2369 253.679322 
L 163.688436 254.959198 
L 164.139972 253.874325 
L 164.591508 250.569741 
L 165.043045 245.329395 
L 165.946117 230.746878 
L 167.300726 206.726307 
L 167.752262 200.366894 
L 168.203798 195.613516 
L 168.655334 192.788129 
L 169.106871 192.084115 
L 169.558407 193.555686 
L 170.009943 197.116521 
L 170.461479 202.547635 
L 171.364552 217.587605 
L 173.170697 250.919127 
L 173.622233 257.101123 
L 174.073769 261.674745 
L 174.525305 264.443086 
L 174.976842 265.333471 
L 175.428378 264.399405 
L 175.879914 261.813875 
L 176.33145 257.854588 
L 177.234523 247.31351 
L 178.589131 231.386015 
L 179.040668 227.636285 
L 179.492204 225.144496 
L 179.94374 224.051647 
L 180.395276 224.385793 
L 180.846812 226.061497 
L 181.298349 228.887417 
L 182.201421 236.792245 
L 183.104494 245.174423 
L 183.55603 248.547874 
L 184.007566 250.90167 
L 184.459102 251.963264 
L 184.910639 251.552656 
L 185.362175 249.596513 
L 185.813711 246.134732 
L 186.716783 235.403239 
L 188.974465 202.819887 
L 189.426001 198.635018 
L 189.877537 196.037765 
L 190.329073 195.210865 
L 190.780609 196.223063 
L 191.232146 199.023231 
L 191.683682 203.442602 
L 192.586754 215.944244 
L 194.392899 243.636405 
L 194.844435 248.475816 
L 195.295972 251.738454 
L 195.747508 253.205827 
L 196.199044 252.77475 
L 196.65058 250.463884 
L 197.102117 246.412202 
L 198.005189 234.179599 
L 199.811334 204.721668 
L 200.714406 194.556798 
L 201.165943 191.813176 
L 201.617479 190.84388 
L 202.069015 191.668397 
L 202.520551 194.192114 
L 202.972087 198.214771 
L 203.87516 209.526184 
L 205.681305 234.235714 
L 206.132841 238.646828 
L 206.584377 241.811723 
L 207.035914 243.615444 
L 207.48745 244.046461 
L 207.938986 243.195216 
L 208.390522 241.245459 
L 209.293595 235.155523 
L 210.196667 228.413803 
L 210.648203 225.673757 
L 211.09974 223.760963 
L 211.551276 222.902331 
L 212.002812 223.241394 
L 212.454348 224.827919 
L 212.905884 227.614397 
L 213.808957 236.139313 
L 215.615102 256.849555 
L 216.066638 260.805766 
L 216.518174 263.675436 
L 216.96971 265.268585 
L 217.421247 265.48447 
L 217.872783 264.319529 
L 218.324319 261.868308 
L 219.227392 253.931916 
L 221.033536 234.961859 
L 221.485073 231.637861 
L 221.936609 229.464828 
L 222.388145 228.607685 
L 222.839681 229.133612 
L 223.291218 231.005857 
L 223.742754 234.084923 
L 224.645826 242.849909 
L 226.000435 257.118456 
L 226.451971 260.593457 
L 226.903507 262.841276 
L 227.355044 263.610305 
L 227.80658 262.744965 
L 228.258116 260.198489 
L 228.709652 256.03831 
L 229.612725 243.694972 
L 231.870406 206.924024 
L 232.321942 202.011087 
L 232.773478 198.741927 
L 233.225015 197.298496 
L 233.676551 197.743769 
L 234.128087 200.015948 
L 234.579623 203.931019 
L 235.482696 215.41525 
L 236.837304 235.110725 
L 237.288841 240.383296 
L 237.740377 244.274886 
L 238.191913 246.457977 
L 238.643449 246.714422 
L 239.094985 244.950722 
L 239.546522 241.205115 
L 239.998058 235.645957 
L 240.90113 220.341404 
L 242.707275 185.924001 
L 243.158811 179.441266 
L 243.610348 174.646047 
L 244.061884 171.796063 
L 244.51342 171.024509 
L 244.964956 172.331608 
L 245.416493 175.585012 
L 245.868029 180.529048 
L 246.771101 193.961568 
L 248.12571 215.758841 
L 248.577246 221.511363 
L 249.028782 225.835079 
L 249.480319 228.467631 
L 249.931855 229.268148 
L 250.383391 228.226347 
L 250.834927 225.462755 
L 251.286464 221.220016 
L 252.189536 209.769017 
L 253.544145 192.176025 
L 253.995681 188.094913 
L 254.447217 185.552267 
L 254.898753 184.794235 
L 255.35029 185.944407 
L 255.801826 188.994437 
L 256.253362 193.8036 
L 257.156434 207.534254 
L 258.962579 238.807856 
L 259.414116 244.499132 
L 259.865652 248.480259 
L 260.317188 250.479608 
L 260.768724 250.350752 
L 261.22026 248.082747 
L 261.671797 243.801444 
L 262.574869 230.331261 
L 264.83255 189.665534 
L 265.284086 184.367467 
L 265.735623 180.940523 
L 266.187159 179.575588 
L 266.638695 180.330846 
L 267.090231 183.129103 
L 267.541768 187.764066 
L 268.44484 201.169545 
L 270.250985 231.415318 
L 270.702521 236.906697 
L 271.154057 240.824815 
L 271.605594 242.970652 
L 272.05713 243.269186 
L 272.508666 241.772718 
L 272.960202 238.655564 
L 273.863275 228.778278 
L 275.66942 206.328328 
L 276.120956 202.692232 
L 276.572492 200.522989 
L 277.024028 199.997128 
L 277.475565 201.175882 
L 277.927101 204.002501 
L 278.378637 208.307778 
L 279.281709 220.201764 
L 281.087854 246.129506 
L 281.539391 250.756795 
L 281.990927 254.051296 
L 282.442463 255.873956 
L 282.893999 256.194627 
L 283.345535 255.092938 
L 283.797072 252.751295 
L 284.700144 245.499295 
L 286.054753 233.744426 
L 286.506289 231.087521 
L 286.957825 229.561657 
L 287.409361 229.347612 
L 287.860898 230.524883 
L 288.312434 233.065687 
L 288.76397 236.836796 
L 289.667043 247.074187 
L 291.021651 263.852246 
L 291.473188 268.280273 
L 291.924724 271.562995 
L 292.37626 273.46664 
L 292.827796 273.854231 
L 293.279332 272.696409 
L 293.730869 270.074403 
L 294.182405 266.174857 
L 295.085477 255.731559 
L 296.440086 239.246869 
L 296.891622 235.107602 
L 297.343158 232.173384 
L 297.794695 230.630214 
L 298.246231 230.550791 
L 298.697767 231.885671 
L 299.149303 234.463137 
L 300.052376 242.108831 
L 300.955448 250.206146 
L 301.406984 253.198871 
L 301.858521 254.850647 
L 302.310057 254.756029 
L 302.761593 252.606203 
L 303.213129 248.215088 
L 303.664666 241.537846 
L 304.567738 221.898729 
L 305.922347 182.535708 
L 306.825419 156.513383 
L 307.728492 136.737014 
L 308.180028 130.559762 
L 308.631564 127.348101 
L 309.0831 127.272989 
L 309.534636 130.328297 
L 309.986173 136.327665 
L 310.889245 155.572047 
L 313.146926 215.641534 
L 313.598463 223.927218 
L 314.049999 229.577816 
L 314.501535 232.26572 
L 314.953071 231.845561 
L 315.404607 228.363369 
L 315.856144 222.053807 
L 316.759216 202.735971 
L 318.565361 155.980394 
L 319.016897 146.88213 
L 319.468433 140.092144 
L 319.91997 136.030313 
L 320.371506 134.945346 
L 320.823042 136.900301 
L 321.274578 141.769959 
L 321.726115 149.250158 
L 322.629187 170.064841 
L 324.435332 216.410589 
L 324.886868 224.990806 
L 325.338404 231.284247 
L 325.789941 234.987135 
L 326.241477 235.968054 
L 326.693013 234.274341 
L 327.144549 230.126826 
L 327.596085 223.903319 
L 328.499158 207.356739 
L 329.853767 181.902328 
L 330.305303 175.766177 
L 330.756839 171.640181 
L 331.208375 169.833667 
L 331.659911 170.496716 
L 332.111448 173.611691 
L 332.562984 178.995912 
L 333.466056 195.107488 
L 335.272201 233.210127 
L 335.723738 240.444691 
L 336.175274 245.747717 
L 336.62681 248.805417 
L 337.078346 249.452778 
L 337.529882 247.683165 
L 337.981419 243.64733 
L 338.432955 237.641986 
L 339.336027 221.505341 
L 340.690636 195.425036 
L 341.593708 183.313643 
L 342.045245 180.112462 
L 342.496781 179.100065 
L 342.948317 180.30892 
L 343.399853 183.623982 
L 343.85139 188.792585 
L 344.754462 203.113638 
L 346.109071 226.942088 
L 347.012143 238.4558 
L 347.463679 241.743487 
L 347.915216 243.128956 
L 348.366752 242.589107 
L 348.818288 240.238092 
L 349.269824 236.318077 
L 350.172897 225.265104 
L 351.527505 207.815164 
L 351.979042 203.715994 
L 352.430578 201.147606 
L 352.882114 200.372099 
L 353.33365 201.530013 
L 353.785186 204.631505 
L 354.236723 209.556475 
L 355.139795 223.807359 
L 357.397476 265.097437 
L 357.849013 270.691364 
L 358.300549 274.599124 
L 358.752085 276.676406 
L 359.203621 276.900999 
L 359.655157 275.372213 
L 360.106694 272.301974 
L 361.009766 262.842348 
L 362.364375 246.573045 
L 362.815911 242.273695 
L 363.267447 239.10764 
L 363.718983 237.293512 
L 364.17052 236.945009 
L 364.622056 238.064934 
L 365.073592 240.547221 
L 365.976665 248.695973 
L 367.782809 268.156923 
L 368.234346 271.56719 
L 368.685882 273.824882 
L 369.137418 274.783045 
L 369.588954 274.395362 
L 370.040491 272.718901 
L 370.492027 269.909153 
L 371.395099 261.923703 
L 372.749708 249.156926 
L 373.201244 246.093203 
L 373.65278 244.09708 
L 374.104317 243.336964 
L 374.555853 243.882257 
L 375.007389 245.696393 
L 375.458925 248.637657 
L 376.361998 256.867924 
L 377.716606 269.582832 
L 378.168143 272.316556 
L 378.619679 273.709544 
L 379.071215 273.515655 
L 379.522751 271.590095 
L 379.974288 267.902312 
L 380.425824 262.540998 
L 381.328896 247.720464 
L 383.586577 205.607861 
L 384.038114 199.936383 
L 384.48965 196.025169 
L 384.941186 194.044602 
L 385.392722 194.037589 
L 385.844258 195.915003 
L 386.295795 199.460153 
L 387.198867 210.137089 
L 388.553476 227.990096 
L 389.005012 232.410089 
L 389.456548 235.335438 
L 389.908084 236.464036 
L 390.359621 235.618516 
L 390.811157 232.760631 
L 391.262693 227.996381 
L 392.165766 213.856984 
L 393.97191 180.46028 
L 394.423447 174.317771 
L 394.874983 170.084754 
L 395.326519 168.120231 
L 395.778055 168.649707 
L 396.229592 171.748523 
L 396.681128 177.33492 
L 397.5842 194.887971 
L 398.487273 217.884941 
L 398.487273 217.884941 
" clip-path="url(#p0f834e2270)" style="fill: none; stroke: #ff7f0e; stroke-width: 1.5; stroke-linecap: square"/>
   </g>
   <g id="patch_3">
    <path d="M 57.6 307.584 
L 57.6 41.472 
" style="fill: none; stroke: #000000; stroke-width: 0.8; stroke-linejoin: miter; stroke-linecap: square"/>
   </g>
   <g id="patch_4">
    <path d="M 414.72 307.584 
L 414.72 41.472 
" style="fill: none; stroke: #000000; stroke-width: 0.8; stroke-linejoin: miter; stroke-linecap: square"/>
   </g>
   <g id="patch_5">
    <path d="M 57.6 307.584 
L 414.72 307.584 
" style="fill: none; stroke: #000000; stroke-width: 0.8; stroke-linejoin: miter; stroke-linecap: square"/>
   </g>
   <g id="patch_6">
    <path d="M 57.6 41.472 
L 414.72 41.472 
" style="fill: none; stroke: #000000; stroke-width: 0.8; stroke-linejoin: miter; stroke-linecap: square"/>
   </g>
   <g id="legend_1">
    <g id="patch_7">
     <path d="M 64.6 78.82825 
L 168.164062 78.82825 
Q 170.164062 78.82825 170.164062 76.82825 
L 170.164062 48.472 
Q 170.164062 46.472 168.164062 46.472 
L 64.6 46.472 
Q 62.6 46.472 62.6 48.472 
L 62.6 76.82825 
Q 62.6 78.82825 64.6 78.82825 
z
" style="fill: #ffffff; opacity: 0.8; stroke: #cccccc; stroke-linejoin: miter"/>
    </g>
    <g id="line2d_18">
     <path d="M 66.6 54.570437 
L 76.6 54.570437 
L 86.6 54.570437 
" style="fill: none; stroke: #1f77b4; stroke-width: 1.5; stroke-linecap: square"/>
    </g>
    <g id="text_16">
     <!-- Month -->
     <g transform="translate(94.6 58.070437) scale(0.1 -0.1)">
      <defs>
       <path id="DejaVuSans-4d" d="M 628 4666 
L 1569 4666 
L 2759 1491 
L 3956 4666 
L 4897 4666 
L 4897 0 
L 4281 0 
L 4281 4097 
L 3078 897 
L 2444 897 
L 1241 4097 
L 1241 0 
L 628 0 
L 628 4666 
z
" transform="scale(0.015625)"/>
       <path id="DejaVuSans-6f" d="M 1959 3097 
Q 1497 3097 1228 2736 
Q 959 2375 959 1747 
Q 959 1119 1226 758 
Q 1494 397 1959 397 
Q 2419 397 2687 759 
Q 2956 1122 2956 1747 
Q 2956 2369 2687 2733 
Q 2419 3097 1959 3097 
z
M 1959 3584 
Q 2709 3584 3137 3096 
Q 3566 2609 3566 1747 
Q 3566 888 3137 398 
Q 2709 -91 1959 -91 
Q 1206 -91 779 398 
Q 353 888 353 1747 
Q 353 2609 779 3096 
Q 1206 3584 1959 3584 
z
" transform="scale(0.015625)"/>
       <path id="DejaVuSans-6e" d="M 3513 2113 
L 3513 0 
L 2938 0 
L 2938 2094 
Q 2938 2591 2744 2837 
Q 2550 3084 2163 3084 
Q 1697 3084 1428 2787 
Q 1159 2491 1159 1978 
L 1159 0 
L 581 0 
L 581 3500 
L 1159 3500 
L 1159 2956 
Q 1366 3272 1645 3428 
Q 1925 3584 2291 3584 
Q 2894 3584 3203 3211 
Q 3513 2838 3513 2113 
z
" transform="scale(0.015625)"/>
       <path id="DejaVuSans-74" d="M 1172 4494 
L 1172 3500 
L 2356 3500 
L 2356 3053 
L 1172 3053 
L 1172 1153 
Q 1172 725 1289 603 
Q 1406 481 1766 481 
L 2356 481 
L 2356 0 
L 1766 0 
Q 1100 0 847 248 
Q 594 497 594 1153 
L 594 3053 
L 172 3053 
L 172 3500 
L 594 3500 
L 594 4494 
L 1172 4494 
z
" transform="scale(0.015625)"/>
       <path id="DejaVuSans-68" d="M 3513 2113 
L 3513 0 
L 2938 0 
L 2938 2094 
Q 2938 2591 2744 2837 
Q 2550 3084 2163 3084 
Q 1697 3084 1428 2787 
Q 1159 2491 1159 1978 
L 1159 0 
L 581 0 
L 581 4863 
L 1159 4863 
L 1159 2956 
Q 1366 3272 1645 3428 
Q 1925 3584 2291 3584 
Q 2894 3584 3203 3211 
Q 3513 2838 3513 2113 
z
" transform="scale(0.015625)"/>
      </defs>
      <use xlink:href="#DejaVuSans-4d"/>
      <use xlink:href="#DejaVuSans-6f" x="86.279297"/>
      <use xlink:href="#DejaVuSans-6e" x="147.460938"/>
      <use xlink:href="#DejaVuSans-74" x="210.839844"/>
      <use xlink:href="#DejaVuSans-68" x="250.048828"/>
     </g>
    </g>
    <g id="line2d_19">
     <path d="M 66.6 69.248562 
L 76.6 69.248562 
L 86.6 69.248562 
" style="fill: none; stroke: #ff7f0e; stroke-width: 1.5; stroke-linecap: square"/>
    </g>
    <g id="text_17">
     <!-- Filtered Month -->
     <g transform="translate(94.6 72.748562) scale(0.1 -0.1)">
      <defs>
       <path id="DejaVuSans-46" d="M 628 4666 
L 3309 4666 
L 3309 4134 
L 1259 4134 
L 1259 2759 
L 3109 2759 
L 3109 2228 
L 1259 2228 
L 1259 0 
L 628 0 
L 628 4666 
z
" transform="scale(0.015625)"/>
       <path id="DejaVuSans-69" d="M 603 3500 
L 1178 3500 
L 1178 0 
L 603 0 
L 603 3500 
z
M 603 4863 
L 1178 4863 
L 1178 4134 
L 603 4134 
L 603 4863 
z
" transform="scale(0.015625)"/>
       <path id="DejaVuSans-6c" d="M 603 4863 
L 1178 4863 
L 1178 0 
L 603 0 
L 603 4863 
z
" transform="scale(0.015625)"/>
       <path id="DejaVuSans-65" d="M 3597 1894 
L 3597 1613 
L 953 1613 
Q 991 1019 1311 708 
Q 1631 397 2203 397 
Q 2534 397 2845 478 
Q 3156 559 3463 722 
L 3463 178 
Q 3153 47 2828 -22 
Q 2503 -91 2169 -91 
Q 1331 -91 842 396 
Q 353 884 353 1716 
Q 353 2575 817 3079 
Q 1281 3584 2069 3584 
Q 2775 3584 3186 3129 
Q 3597 2675 3597 1894 
z
M 3022 2063 
Q 3016 2534 2758 2815 
Q 2500 3097 2075 3097 
Q 1594 3097 1305 2825 
Q 1016 2553 972 2059 
L 3022 2063 
z
" transform="scale(0.015625)"/>
       <path id="DejaVuSans-72" d="M 2631 2963 
Q 2534 3019 2420 3045 
Q 2306 3072 2169 3072 
Q 1681 3072 1420 2755 
Q 1159 2438 1159 1844 
L 1159 0 
L 581 0 
L 581 3500 
L 1159 3500 
L 1159 2956 
Q 1341 3275 1631 3429 
Q 1922 3584 2338 3584 
Q 2397 3584 2469 3576 
Q 2541 3569 2628 3553 
L 2631 2963 
z
" transform="scale(0.015625)"/>
      </defs>
      <use xlink:href="#DejaVuSans-46"/>
      <use xlink:href="#DejaVuSans-69" x="50.269531"/>
      <use xlink:href="#DejaVuSans-6c" x="78.052734"/>
      <use xlink:href="#DejaVuSans-74" x="105.835938"/>
      <use xlink:href="#DejaVuSans-65" x="145.044922"/>
      <use xlink:href="#DejaVuSans-72" x="206.568359"/>
      <use xlink:href="#DejaVuSans-65" x="245.431641"/>
      <use xlink:href="#DejaVuSans-64" x="306.955078"/>
      <use xlink:href="#DejaVuSans-20" x="370.431641"/>
      <use xlink:href="#DejaVuSans-4d" x="402.21875"/>
      <use xlink:href="#DejaVuSans-6f" x="488.498047"/>
      <use xlink:href="#DejaVuSans-6e" x="549.679688"/>
      <use xlink:href="#DejaVuSans-74" x="613.058594"/>
      <use xlink:href="#DejaVuSans-68" x="652.267578"/>
     </g>
    </g>
   </g>
  </g>
 </g>
 <defs>
  <clipPath id="p0f834e2270">
   <rect x="57.6" y="41.472" width="357.12" height="266.112"/>
  </clipPath>
 </defs>
</svg>
