<?xml version="1.0" encoding="utf-8" standalone="no"?>
<!DOCTYPE svg PUBLIC "-//W3C//DTD SVG 1.1//EN"
  "http://www.w3.org/Graphics/SVG/1.1/DTD/svg11.dtd">
<svg xmlns:xlink="http://www.w3.org/1999/xlink" width="460.8pt" height="345.6pt" viewBox="0 0 460.8 345.6" xmlns="http://www.w3.org/2000/svg" version="1.1">
 <metadata>
  <rdf:RDF xmlns:dc="http://purl.org/dc/elements/1.1/" xmlns:cc="http://creativecommons.org/ns#" xmlns:rdf="http://www.w3.org/1999/02/22-rdf-syntax-ns#">
   <cc:Work>
    <dc:type rdf:resource="http://purl.org/dc/dcmitype/StillImage"/>
    <dc:format>image/svg+xml</dc:format>
    <dc:creator>
     <cc:Agent>
      <dc:title>Matplotlib v3.8.4, https://matplotlib.org/</dc:title>
     </cc:Agent>
    </dc:creator>
   </cc:Work>
  </rdf:RDF>
 </metadata>
 <defs>
  <style type="text/css">*{stroke-linejoin: round; stroke-linecap: butt}</style>
 </defs>
 <g id="figure_1">
  <g id="patch_1">
   <path d="M 0 345.6 
L 460.8 345.6 
L 460.8 0 
L 0 0 
z
" style="fill: #ffffff"/>
  </g>
  <g id="axes_1">
   <g id="patch_2">
    <path d="M 57.6 307.584 
L 414.72 307.584 
L 414.72 41.472 
L 57.6 41.472 
z
" style="fill: #ffffff"/>
   </g>
   <g id="matplotlib.axis_1">
    <g id="xtick_1">
     <g id="line2d_1">
      <defs>
       <path id="mbcb02aef95" d="M 0 0 
L 0 3.5 
" style="stroke: #000000; stroke-width: 0.8"/>
      </defs>
      <g>
       <use xlink:href="#mbcb02aef95" x="73.832727" y="307.584" style="stroke: #000000; stroke-width: 0.8"/>
      </g>
     </g>
     <g id="text_1">
      <!-- 0 -->
      <g transform="translate(70.651477 322.182437) scale(0.1 -0.1)">
       <defs>
        <path id="DejaVuSans-30" d="M 2034 4250 
Q 1547 4250 1301 3770 
Q 1056 3291 1056 2328 
Q 1056 1369 1301 889 
Q 1547 409 2034 409 
Q 2525 409 2770 889 
Q 3016 1369 3016 2328 
Q 3016 3291 2770 3770 
Q 2525 4250 2034 4250 
z
M 2034 4750 
Q 2819 4750 3233 4129 
Q 3647 3509 3647 2328 
Q 3647 1150 3233 529 
Q 2819 -91 2034 -91 
Q 1250 -91 836 529 
Q 422 1150 422 2328 
Q 422 3509 836 4129 
Q 1250 4750 2034 4750 
z
" transform="scale(0.015625)"/>
       </defs>
       <use xlink:href="#DejaVuSans-30"/>
      </g>
     </g>
    </g>
    <g id="xtick_2">
     <g id="line2d_2">
      <g>
       <use xlink:href="#mbcb02aef95" x="138.828632" y="307.584" style="stroke: #000000; stroke-width: 0.8"/>
      </g>
     </g>
     <g id="text_2">
      <!-- 200 -->
      <g transform="translate(129.284882 322.182437) scale(0.1 -0.1)">
       <defs>
        <path id="DejaVuSans-32" d="M 1228 531 
L 3431 531 
L 3431 0 
L 469 0 
L 469 531 
Q 828 903 1448 1529 
Q 2069 2156 2228 2338 
Q 2531 2678 2651 2914 
Q 2772 3150 2772 3378 
Q 2772 3750 2511 3984 
Q 2250 4219 1831 4219 
Q 1534 4219 1204 4116 
Q 875 4013 500 3803 
L 500 4441 
Q 881 4594 1212 4672 
Q 1544 4750 1819 4750 
Q 2544 4750 2975 4387 
Q 3406 4025 3406 3419 
Q 3406 3131 3298 2873 
Q 3191 2616 2906 2266 
Q 2828 2175 2409 1742 
Q 1991 1309 1228 531 
z
" transform="scale(0.015625)"/>
       </defs>
       <use xlink:href="#DejaVuSans-32"/>
       <use xlink:href="#DejaVuSans-30" x="63.623047"/>
       <use xlink:href="#DejaVuSans-30" x="127.246094"/>
      </g>
     </g>
    </g>
    <g id="xtick_3">
     <g id="line2d_3">
      <g>
       <use xlink:href="#mbcb02aef95" x="203.824537" y="307.584" style="stroke: #000000; stroke-width: 0.8"/>
      </g>
     </g>
     <g id="text_3">
      <!-- 400 -->
      <g transform="translate(194.280787 322.182437) scale(0.1 -0.1)">
       <defs>
        <path id="DejaVuSans-34" d="M 2419 4116 
L 825 1625 
L 2419 1625 
L 2419 4116 
z
M 2253 4666 
L 3047 4666 
L 3047 1625 
L 3713 1625 
L 3713 1100 
L 3047 1100 
L 3047 0 
L 2419 0 
L 2419 1100 
L 313 1100 
L 313 1709 
L 2253 4666 
z
" transform="scale(0.015625)"/>
       </defs>
       <use xlink:href="#DejaVuSans-34"/>
       <use xlink:href="#DejaVuSans-30" x="63.623047"/>
       <use xlink:href="#DejaVuSans-30" x="127.246094"/>
      </g>
     </g>
    </g>
    <g id="xtick_4">
     <g id="line2d_4">
      <g>
       <use xlink:href="#mbcb02aef95" x="268.820442" y="307.584" style="stroke: #000000; stroke-width: 0.8"/>
      </g>
     </g>
     <g id="text_4">
      <!-- 600 -->
      <g transform="translate(259.276692 322.182437) scale(0.1 -0.1)">
       <defs>
        <path id="DejaVuSans-36" d="M 2113 2584 
Q 1688 2584 1439 2293 
Q 1191 2003 1191 1497 
Q 1191 994 1439 701 
Q 1688 409 2113 409 
Q 2538 409 2786 701 
Q 3034 994 3034 1497 
Q 3034 2003 2786 2293 
Q 2538 2584 2113 2584 
z
M 3366 4563 
L 3366 3988 
Q 3128 4100 2886 4159 
Q 2644 4219 2406 4219 
Q 1781 4219 1451 3797 
Q 1122 3375 1075 2522 
Q 1259 2794 1537 2939 
Q 1816 3084 2150 3084 
Q 2853 3084 3261 2657 
Q 3669 2231 3669 1497 
Q 3669 778 3244 343 
Q 2819 -91 2113 -91 
Q 1303 -91 875 529 
Q 447 1150 447 2328 
Q 447 3434 972 4092 
Q 1497 4750 2381 4750 
Q 2619 4750 2861 4703 
Q 3103 4656 3366 4563 
z
" transform="scale(0.015625)"/>
       </defs>
       <use xlink:href="#DejaVuSans-36"/>
       <use xlink:href="#DejaVuSans-30" x="63.623047"/>
       <use xlink:href="#DejaVuSans-30" x="127.246094"/>
      </g>
     </g>
    </g>
    <g id="xtick_5">
     <g id="line2d_5">
      <g>
       <use xlink:href="#mbcb02aef95" x="333.816347" y="307.584" style="stroke: #000000; stroke-width: 0.8"/>
      </g>
     </g>
     <g id="text_5">
      <!-- 800 -->
      <g transform="translate(324.272597 322.182437) scale(0.1 -0.1)">
       <defs>
        <path id="DejaVuSans-38" d="M 2034 2216 
Q 1584 2216 1326 1975 
Q 1069 1734 1069 1313 
Q 1069 891 1326 650 
Q 1584 409 2034 409 
Q 2484 409 2743 651 
Q 3003 894 3003 1313 
Q 3003 1734 2745 1975 
Q 2488 2216 2034 2216 
z
M 1403 2484 
Q 997 2584 770 2862 
Q 544 3141 544 3541 
Q 544 4100 942 4425 
Q 1341 4750 2034 4750 
Q 2731 4750 3128 4425 
Q 3525 4100 3525 3541 
Q 3525 3141 3298 2862 
Q 3072 2584 2669 2484 
Q 3125 2378 3379 2068 
Q 3634 1759 3634 1313 
Q 3634 634 3220 271 
Q 2806 -91 2034 -91 
Q 1263 -91 848 271 
Q 434 634 434 1313 
Q 434 1759 690 2068 
Q 947 2378 1403 2484 
z
M 1172 3481 
Q 1172 3119 1398 2916 
Q 1625 2713 2034 2713 
Q 2441 2713 2670 2916 
Q 2900 3119 2900 3481 
Q 2900 3844 2670 4047 
Q 2441 4250 2034 4250 
Q 1625 4250 1398 4047 
Q 1172 3844 1172 3481 
z
" transform="scale(0.015625)"/>
       </defs>
       <use xlink:href="#DejaVuSans-38"/>
       <use xlink:href="#DejaVuSans-30" x="63.623047"/>
       <use xlink:href="#DejaVuSans-30" x="127.246094"/>
      </g>
     </g>
    </g>
    <g id="xtick_6">
     <g id="line2d_6">
      <g>
       <use xlink:href="#mbcb02aef95" x="398.812252" y="307.584" style="stroke: #000000; stroke-width: 0.8"/>
      </g>
     </g>
     <g id="text_6">
      <!-- 1000 -->
      <g transform="translate(386.087252 322.182437) scale(0.1 -0.1)">
       <defs>
        <path id="DejaVuSans-31" d="M 794 531 
L 1825 531 
L 1825 4091 
L 703 3866 
L 703 4441 
L 1819 4666 
L 2450 4666 
L 2450 531 
L 3481 531 
L 3481 0 
L 794 0 
L 794 531 
z
" transform="scale(0.015625)"/>
       </defs>
       <use xlink:href="#DejaVuSans-31"/>
       <use xlink:href="#DejaVuSans-30" x="63.623047"/>
       <use xlink:href="#DejaVuSans-30" x="127.246094"/>
       <use xlink:href="#DejaVuSans-30" x="190.869141"/>
      </g>
     </g>
    </g>
   </g>
   <g id="matplotlib.axis_2">
    <g id="ytick_1">
     <g id="line2d_7">
      <defs>
       <path id="me5179b328b" d="M 0 0 
L -3.5 0 
" style="stroke: #000000; stroke-width: 0.8"/>
      </defs>
      <g>
       <use xlink:href="#me5179b328b" x="57.6" y="291.390998" style="stroke: #000000; stroke-width: 0.8"/>
      </g>
     </g>
     <g id="text_7">
      <!-- 0 -->
      <g transform="translate(44.2375 295.190217) scale(0.1 -0.1)">
       <use xlink:href="#DejaVuSans-30"/>
      </g>
     </g>
    </g>
    <g id="ytick_2">
     <g id="line2d_8">
      <g>
       <use xlink:href="#me5179b328b" x="57.6" y="241.767484" style="stroke: #000000; stroke-width: 0.8"/>
      </g>
     </g>
     <g id="text_8">
      <!-- 10 -->
      <g transform="translate(37.875 245.566703) scale(0.1 -0.1)">
       <use xlink:href="#DejaVuSans-31"/>
       <use xlink:href="#DejaVuSans-30" x="63.623047"/>
      </g>
     </g>
    </g>
    <g id="ytick_3">
     <g id="line2d_9">
      <g>
       <use xlink:href="#me5179b328b" x="57.6" y="192.143969" style="stroke: #000000; stroke-width: 0.8"/>
      </g>
     </g>
     <g id="text_9">
      <!-- 20 -->
      <g transform="translate(37.875 195.943188) scale(0.1 -0.1)">
       <use xlink:href="#DejaVuSans-32"/>
       <use xlink:href="#DejaVuSans-30" x="63.623047"/>
      </g>
     </g>
    </g>
    <g id="ytick_4">
     <g id="line2d_10">
      <g>
       <use xlink:href="#me5179b328b" x="57.6" y="142.520455" style="stroke: #000000; stroke-width: 0.8"/>
      </g>
     </g>
     <g id="text_10">
      <!-- 30 -->
      <g transform="translate(37.875 146.319674) scale(0.1 -0.1)">
       <defs>
        <path id="DejaVuSans-33" d="M 2597 2516 
Q 3050 2419 3304 2112 
Q 3559 1806 3559 1356 
Q 3559 666 3084 287 
Q 2609 -91 1734 -91 
Q 1441 -91 1130 -33 
Q 819 25 488 141 
L 488 750 
Q 750 597 1062 519 
Q 1375 441 1716 441 
Q 2309 441 2620 675 
Q 2931 909 2931 1356 
Q 2931 1769 2642 2001 
Q 2353 2234 1838 2234 
L 1294 2234 
L 1294 2753 
L 1863 2753 
Q 2328 2753 2575 2939 
Q 2822 3125 2822 3475 
Q 2822 3834 2567 4026 
Q 2313 4219 1838 4219 
Q 1578 4219 1281 4162 
Q 984 4106 628 3988 
L 628 4550 
Q 988 4650 1302 4700 
Q 1616 4750 1894 4750 
Q 2613 4750 3031 4423 
Q 3450 4097 3450 3541 
Q 3450 3153 3228 2886 
Q 3006 2619 2597 2516 
z
" transform="scale(0.015625)"/>
       </defs>
       <use xlink:href="#DejaVuSans-33"/>
       <use xlink:href="#DejaVuSans-30" x="63.623047"/>
      </g>
     </g>
    </g>
    <g id="ytick_5">
     <g id="line2d_11">
      <g>
       <use xlink:href="#me5179b328b" x="57.6" y="92.896941" style="stroke: #000000; stroke-width: 0.8"/>
      </g>
     </g>
     <g id="text_11">
      <!-- 40 -->
      <g transform="translate(37.875 96.696159) scale(0.1 -0.1)">
       <use xlink:href="#DejaVuSans-34"/>
       <use xlink:href="#DejaVuSans-30" x="63.623047"/>
      </g>
     </g>
    </g>
    <g id="ytick_6">
     <g id="line2d_12">
      <g>
       <use xlink:href="#me5179b328b" x="57.6" y="43.273426" style="stroke: #000000; stroke-width: 0.8"/>
      </g>
     </g>
     <g id="text_12">
      <!-- 50 -->
      <g transform="translate(37.875 47.072645) scale(0.1 -0.1)">
       <defs>
        <path id="DejaVuSans-35" d="M 691 4666 
L 3169 4666 
L 3169 4134 
L 1269 4134 
L 1269 2991 
Q 1406 3038 1543 3061 
Q 1681 3084 1819 3084 
Q 2600 3084 3056 2656 
Q 3513 2228 3513 1497 
Q 3513 744 3044 326 
Q 2575 -91 1722 -91 
Q 1428 -91 1123 -41 
Q 819 9 494 109 
L 494 744 
Q 775 591 1075 516 
Q 1375 441 1709 441 
Q 2250 441 2565 725 
Q 2881 1009 2881 1497 
Q 2881 1984 2565 2268 
Q 2250 2553 1709 2553 
Q 1456 2553 1204 2497 
Q 953 2441 691 2322 
L 691 4666 
z
" transform="scale(0.015625)"/>
       </defs>
       <use xlink:href="#DejaVuSans-35"/>
       <use xlink:href="#DejaVuSans-30" x="63.623047"/>
      </g>
     </g>
    </g>
   </g>
   <g id="line2d_13">
    <path d="M 73.832727 291.971974 
L 74.157707 291.921124 
L 74.482686 287.363949 
L 74.807666 289.31346 
L 75.132645 292.311745 
L 75.457625 289.72486 
L 75.782604 292.140984 
L 76.107584 292.064092 
L 76.432563 290.224231 
L 76.757543 295.488 
L 77.082523 294.938609 
L 77.407502 291.975166 
L 77.732482 293.019048 
L 78.057461 289.658466 
L 78.382441 292.630612 
L 78.70742 293.829652 
L 79.0324 286.645917 
L 79.357379 290.809258 
L 79.682359 290.058001 
L 80.007338 293.746859 
L 80.657297 289.9365 
L 80.982277 293.079448 
L 81.307256 289.309701 
L 81.632236 291.755178 
L 81.957215 291.014644 
L 82.282195 291.8109 
L 82.607174 285.748163 
L 82.932154 290.400334 
L 83.257133 293.008723 
L 83.582113 288.353523 
L 83.907093 293.424088 
L 84.232072 289.865939 
L 84.557052 295.222652 
L 84.882031 293.61763 
L 85.207011 289.780032 
L 85.53199 288.366289 
L 85.85697 289.686817 
L 86.181949 290.295802 
L 86.506929 290.636588 
L 86.831908 293.423197 
L 87.156888 291.391783 
L 87.481867 290.586963 
L 87.806847 286.648637 
L 88.131826 288.23783 
L 88.456806 293.277455 
L 88.781785 287.907939 
L 89.106765 289.475608 
L 89.431744 290.009705 
L 89.756724 286.627135 
L 90.081704 285.408783 
L 90.406683 285.488237 
L 90.731663 289.725534 
L 91.706601 284.849522 
L 92.031581 288.370457 
L 92.35656 287.573049 
L 92.68154 289.807757 
L 93.006519 290.000293 
L 93.331499 285.004281 
L 93.656478 283.660518 
L 93.981458 287.225244 
L 94.306437 284.591364 
L 94.631417 286.230222 
L 94.956396 288.78328 
L 95.606355 283.492313 
L 95.931335 287.462178 
L 96.256314 283.553285 
L 96.581294 293.992058 
L 96.906274 285.50095 
L 97.231253 287.361583 
L 97.556233 288.343598 
L 97.881212 287.38304 
L 98.206192 292.534499 
L 98.531171 288.122398 
L 98.856151 286.646991 
L 99.18113 283.802862 
L 99.50611 288.673596 
L 99.831089 289.293353 
L 100.156069 288.414718 
L 100.481048 284.765099 
L 100.806028 286.073207 
L 101.131007 288.043819 
L 101.455987 285.286645 
L 101.780966 286.142786 
L 102.105946 283.799101 
L 102.430925 287.761176 
L 102.755905 286.649576 
L 103.080885 286.629854 
L 103.405864 289.113954 
L 103.730844 284.58122 
L 104.055823 284.510748 
L 104.705782 285.459042 
L 105.030762 288.266611 
L 105.355741 285.689304 
L 105.680721 285.399571 
L 106.0057 286.455798 
L 106.655659 283.32776 
L 106.980639 279.596638 
L 107.305618 283.796614 
L 107.630598 283.54877 
L 107.955577 284.333244 
L 108.280557 288.870569 
L 108.605536 284.135072 
L 108.930516 283.875544 
L 109.255495 277.86315 
L 109.580475 284.394517 
L 109.905455 283.102364 
L 110.230434 283.859831 
L 110.555414 286.58561 
L 110.880393 280.751282 
L 111.205373 281.610834 
L 111.530352 281.392792 
L 111.855332 285.481028 
L 112.180311 279.60488 
L 112.505291 286.417806 
L 113.15525 277.201454 
L 113.480229 284.941677 
L 113.805209 283.73975 
L 114.130188 281.943934 
L 114.455168 283.305503 
L 114.780147 285.780081 
L 115.105127 281.652459 
L 115.430106 284.364077 
L 115.755086 280.476527 
L 116.080066 283.874984 
L 116.405045 277.709878 
L 116.730025 283.480656 
L 117.055004 282.337667 
L 117.379984 279.540027 
L 117.704963 284.649466 
L 118.354922 278.467929 
L 118.679902 285.772283 
L 119.004881 281.403366 
L 119.329861 281.295112 
L 119.65484 280.074879 
L 119.97982 285.15027 
L 120.304799 285.410838 
L 120.629779 280.8751 
L 120.954758 281.446482 
L 121.279738 281.548448 
L 121.604717 281.266515 
L 121.929697 283.735741 
L 122.254676 281.358124 
L 122.579656 281.054725 
L 122.904636 283.3623 
L 123.229615 276.728775 
L 123.879574 283.734829 
L 124.204554 278.806921 
L 124.529533 282.480003 
L 124.854513 277.707643 
L 125.179492 276.363206 
L 125.504472 280.835939 
L 125.829451 275.962241 
L 126.154431 276.879401 
L 126.47941 275.420567 
L 126.80439 272.323876 
L 127.129369 277.229807 
L 127.454349 278.110281 
L 127.779328 278.101846 
L 128.104308 277.615764 
L 128.429287 275.527727 
L 128.754267 274.287908 
L 129.079247 274.302981 
L 129.404226 272.852396 
L 129.729206 274.849691 
L 130.054185 271.31496 
L 130.379165 275.678961 
L 130.704144 268.433032 
L 131.354103 277.790108 
L 131.679083 278.630296 
L 132.004062 275.1227 
L 132.329042 277.249069 
L 132.654021 275.316797 
L 132.979001 276.316811 
L 133.62896 280.381716 
L 133.953939 282.404704 
L 134.603898 277.140333 
L 134.928878 278.967925 
L 135.253857 282.761675 
L 135.578837 279.342891 
L 135.903817 278.842214 
L 136.228796 281.935952 
L 136.553776 279.221985 
L 136.878755 279.233632 
L 137.203735 281.903015 
L 137.528714 277.784801 
L 137.853694 276.80672 
L 138.178673 274.962165 
L 138.503653 274.418897 
L 138.828632 279.777575 
L 139.153612 277.963742 
L 139.478591 273.59948 
L 140.12855 272.019551 
L 140.45353 262.94425 
L 140.778509 270.308686 
L 141.103489 268.158362 
L 141.428468 267.901913 
L 141.753448 268.000656 
L 142.078428 269.813463 
L 142.403407 266.639259 
L 142.728387 270.016832 
L 143.053366 268.356863 
L 143.378346 268.741993 
L 143.703325 267.204999 
L 144.028305 261.638884 
L 144.353284 272.091476 
L 144.678264 265.932084 
L 145.003243 271.907509 
L 145.328223 269.436232 
L 145.653202 266.001706 
L 146.303161 272.447634 
L 146.628141 272.154511 
L 146.95312 269.328228 
L 147.2781 273.474714 
L 147.603079 271.771432 
L 147.928059 272.823572 
L 148.253038 275.148281 
L 148.578018 268.758843 
L 148.902998 272.990191 
L 149.227977 279.997595 
L 149.552957 274.83377 
L 149.877936 277.166 
L 150.202916 273.53285 
L 150.527895 277.628781 
L 151.502834 272.878316 
L 151.827813 277.569851 
L 152.152793 274.88323 
L 152.802752 274.31957 
L 153.127731 267.523245 
L 153.77769 273.272595 
L 154.10267 266.931846 
L 154.427649 262.993232 
L 154.752629 264.747043 
L 155.077609 270.145599 
L 155.402588 266.677042 
L 155.727568 261.479913 
L 156.052547 265.589091 
L 156.377527 262.016899 
L 156.702506 260.567148 
L 157.027486 264.255718 
L 157.352465 261.673267 
L 157.677445 269.245759 
L 158.002424 263.534611 
L 158.327404 261.520873 
L 158.652383 264.001776 
L 158.977363 256.973506 
L 159.302342 264.790538 
L 159.627322 262.644407 
L 159.952301 261.620851 
L 160.277281 258.832434 
L 160.60226 266.491963 
L 160.92724 260.607722 
L 161.577199 267.12869 
L 161.902179 264.151403 
L 162.227158 265.391452 
L 162.552138 267.930143 
L 162.877117 266.777574 
L 163.202097 268.358277 
L 163.852056 266.443516 
L 164.177035 264.366223 
L 164.502015 271.494393 
L 164.826994 263.155272 
L 165.151974 273.216723 
L 165.476953 268.576714 
L 165.801933 266.470949 
L 166.126912 266.872116 
L 166.451892 268.667298 
L 166.776871 267.113892 
L 167.101851 267.227663 
L 167.42683 266.816091 
L 167.75181 262.549182 
L 168.07679 263.041297 
L 168.401769 264.895608 
L 168.726749 260.185893 
L 169.051728 260.90221 
L 169.376708 258.912042 
L 169.701687 258.660057 
L 170.026667 261.612391 
L 170.351646 260.328002 
L 170.676626 256.523992 
L 171.001605 256.367859 
L 171.326585 257.507307 
L 171.651564 256.809725 
L 171.976544 253.649817 
L 172.301523 258.080242 
L 172.626503 255.118984 
L 172.951482 256.909976 
L 173.276462 256.943132 
L 173.601441 253.728003 
L 173.926421 254.506542 
L 174.2514 254.677058 
L 174.57638 253.629032 
L 174.90136 257.010889 
L 175.226339 255.578402 
L 175.551319 258.250771 
L 175.876298 256.880964 
L 176.201278 258.197687 
L 176.526257 257.800881 
L 176.851237 256.701929 
L 177.176216 260.310296 
L 177.501196 253.14993 
L 177.826175 260.855516 
L 178.151155 261.344534 
L 178.476134 255.385022 
L 178.801114 256.175717 
L 179.126093 256.429914 
L 179.451073 256.218273 
L 179.776052 257.571297 
L 180.101032 259.500842 
L 180.426011 256.796343 
L 180.750991 258.357162 
L 181.075971 253.939805 
L 181.40095 256.403054 
L 181.72593 257.768899 
L 182.050909 256.21077 
L 182.375889 254.097615 
L 182.700868 256.251114 
L 183.025848 256.648526 
L 183.350827 253.788975 
L 183.675807 253.602232 
L 184.000786 255.316487 
L 184.325766 255.107897 
L 184.650745 253.274145 
L 184.975725 257.380964 
L 185.300704 257.241639 
L 185.950663 254.250808 
L 186.275643 252.947331 
L 186.600622 250.053926 
L 186.925602 251.572987 
L 187.250581 254.067226 
L 187.575561 253.66237 
L 187.900541 256.015668 
L 188.22552 253.448868 
L 188.5505 253.949855 
L 188.875479 252.214977 
L 189.200459 254.798201 
L 189.850418 248.239939 
L 190.175397 251.88058 
L 190.825356 248.885738 
L 191.150336 251.02337 
L 191.475315 248.868307 
L 191.800295 248.764888 
L 192.125274 247.910789 
L 192.450254 249.424097 
L 193.425192 242.056956 
L 193.750172 242.731775 
L 194.075152 239.278473 
L 194.400131 246.099006 
L 194.725111 241.679548 
L 195.05009 243.120639 
L 195.37507 237.963109 
L 195.700049 245.316629 
L 196.025029 245.405723 
L 196.350008 244.917364 
L 196.674988 248.902788 
L 196.999967 245.23111 
L 197.324947 246.187975 
L 197.649926 244.384594 
L 197.974906 244.427779 
L 198.299885 241.190546 
L 198.624865 244.094907 
L 198.949844 248.513563 
L 199.274824 249.945122 
L 199.599803 247.116387 
L 199.924783 252.202678 
L 200.249762 244.923947 
L 200.574742 247.016554 
L 201.224701 254.879042 
L 201.549681 247.450921 
L 201.87466 251.152364 
L 202.19964 247.722051 
L 202.524619 254.534813 
L 203.174578 249.705129 
L 203.499558 248.95676 
L 203.824537 249.408226 
L 204.149517 245.835734 
L 204.474496 249.002426 
L 204.799476 245.575953 
L 205.774414 239.623679 
L 206.099394 242.823953 
L 206.424373 242.483048 
L 206.749353 234.172406 
L 207.074333 235.230601 
L 207.399312 236.694935 
L 207.724292 229.864327 
L 208.049271 232.414654 
L 208.374251 228.896698 
L 208.69923 230.92527 
L 209.02421 225.412491 
L 209.349189 225.776344 
L 209.674169 230.53593 
L 209.999148 227.478102 
L 210.324128 228.441696 
L 210.649107 226.981031 
L 210.974087 233.276553 
L 211.299066 229.845851 
L 211.624046 229.732562 
L 211.949025 237.659695 
L 212.274005 237.274447 
L 212.598984 240.522512 
L 212.923964 237.311367 
L 213.248943 236.071263 
L 213.573923 235.333056 
L 213.898903 240.057657 
L 214.223882 237.324862 
L 214.548862 245.830137 
L 214.873841 247.562123 
L 215.198821 244.269022 
L 215.5238 243.817678 
L 215.84878 245.316423 
L 216.173759 250.63968 
L 216.498739 245.804282 
L 216.823718 248.683918 
L 217.148698 243.437546 
L 217.473677 243.630055 
L 217.798657 246.106246 
L 218.123636 244.087485 
L 218.448616 244.296176 
L 219.098575 236.534882 
L 219.423554 239.776622 
L 219.748534 234.412817 
L 220.073514 235.246829 
L 220.398493 234.131396 
L 220.723473 230.658872 
L 221.048452 231.218439 
L 221.373432 228.338056 
L 221.698411 228.338652 
L 222.023391 219.00933 
L 222.34837 222.455402 
L 222.67335 223.10162 
L 222.998329 219.840422 
L 223.323309 219.854925 
L 223.648288 219.540039 
L 223.973268 217.10153 
L 224.298247 216.600463 
L 224.623227 219.870207 
L 224.948206 220.26992 
L 225.273186 220.013816 
L 225.598165 225.721304 
L 225.923145 224.617691 
L 226.248124 218.463297 
L 226.573104 218.893137 
L 226.898084 224.808407 
L 227.223063 224.042831 
L 227.548043 226.020533 
L 227.873022 220.47853 
L 228.522981 230.978424 
L 229.17294 236.852804 
L 229.49792 233.272419 
L 230.147879 238.63326 
L 230.472858 237.092547 
L 230.797838 238.353795 
L 231.122817 231.457955 
L 231.772776 234.982901 
L 232.097756 230.645278 
L 232.422735 233.288695 
L 232.747715 234.60468 
L 233.072695 227.5171 
L 233.397674 228.650138 
L 233.722654 231.137884 
L 234.047633 227.525151 
L 234.372613 227.652674 
L 234.697592 227.304891 
L 235.022572 219.964563 
L 235.347551 215.936405 
L 235.672531 222.605347 
L 235.99751 216.275076 
L 236.32249 217.921889 
L 236.647469 216.271904 
L 236.972449 215.427166 
L 237.297428 215.148475 
L 237.622408 212.096675 
L 237.947387 213.663806 
L 238.272367 210.492768 
L 238.922326 211.40753 
L 239.247305 213.144911 
L 239.572285 212.558362 
L 239.897265 209.629414 
L 240.222244 210.76304 
L 240.547224 215.040835 
L 240.872203 213.065061 
L 241.197183 212.208254 
L 241.522162 219.017921 
L 241.847142 214.350113 
L 242.172121 218.161221 
L 242.497101 215.894543 
L 243.14706 223.215862 
L 243.472039 223.373544 
L 243.797019 219.715807 
L 244.121998 219.580388 
L 244.446978 222.738838 
L 244.771957 219.055118 
L 245.096937 224.777592 
L 245.421916 220.705293 
L 245.746896 223.305892 
L 246.396855 219.348732 
L 246.721835 221.025247 
L 247.046814 219.178962 
L 247.371794 214.986889 
L 247.696773 218.113742 
L 248.021753 213.763564 
L 248.346732 217.767294 
L 248.671712 212.766009 
L 248.996691 209.625045 
L 249.321671 218.475858 
L 249.97163 209.3088 
L 250.296609 210.523099 
L 250.621589 208.44236 
L 250.946568 210.277177 
L 251.271548 208.054345 
L 251.596527 208.222798 
L 251.921507 204.582302 
L 252.246486 206.564555 
L 252.571466 206.141848 
L 252.896446 207.845718 
L 253.221425 207.929842 
L 253.546405 207.731472 
L 253.871384 205.648776 
L 254.196364 207.660772 
L 254.521343 205.8937 
L 254.846323 201.455713 
L 255.496282 207.343192 
L 255.821261 203.471019 
L 256.47122 211.2097 
L 256.7962 208.428045 
L 257.121179 210.288119 
L 257.446159 206.183622 
L 257.771138 204.87858 
L 258.096118 200.329543 
L 258.421097 203.200908 
L 258.746077 204.044897 
L 259.071057 200.908351 
L 259.396036 207.904104 
L 259.721016 201.283421 
L 260.045995 199.416463 
L 260.370975 204.482502 
L 260.695954 197.496983 
L 261.345913 200.562899 
L 261.670893 197.659969 
L 261.995872 193.37069 
L 262.320852 198.4114 
L 262.645831 198.191958 
L 262.970811 199.981532 
L 263.29579 201.072029 
L 263.62077 197.108864 
L 263.945749 201.576522 
L 264.270729 199.627021 
L 264.595708 201.399387 
L 264.920688 199.479384 
L 265.245667 200.321969 
L 265.570647 199.068886 
L 265.895627 203.39501 
L 266.220606 203.259419 
L 266.545586 205.432963 
L 266.870565 204.456648 
L 267.195545 202.684437 
L 267.520524 201.90771 
L 267.845504 206.122552 
L 268.170483 201.594923 
L 268.495463 200.165376 
L 268.820442 202.12955 
L 269.145422 197.970023 
L 269.470401 203.8612 
L 270.12036 204.525201 
L 270.44534 195.270891 
L 270.770319 196.10333 
L 271.095299 196.498372 
L 271.420278 194.208223 
L 271.745258 196.168937 
L 272.070238 185.737267 
L 272.395217 189.896299 
L 272.720197 188.36664 
L 273.045176 185.296734 
L 273.695135 183.689159 
L 274.020115 184.948391 
L 274.670074 176.263809 
L 274.995053 176.840951 
L 275.320033 175.675938 
L 275.645012 180.562928 
L 275.969992 181.638849 
L 276.294971 179.610746 
L 276.619951 179.499855 
L 276.94493 177.480189 
L 277.26991 185.157155 
L 277.594889 178.115034 
L 277.919869 183.423116 
L 278.244848 185.355002 
L 278.894808 191.245632 
L 279.219787 186.61057 
L 279.544767 189.998194 
L 279.869746 194.884682 
L 280.194726 196.341001 
L 280.519705 195.307462 
L 280.844685 191.547508 
L 281.494644 201.319834 
L 281.819623 198.830092 
L 282.144603 199.281702 
L 282.469582 205.41779 
L 282.794562 198.706265 
L 283.119541 198.706429 
L 283.7695 191.819766 
L 284.09448 192.338907 
L 284.419459 194.274049 
L 284.744439 194.592678 
L 285.069419 183.496669 
L 285.394398 187.594453 
L 286.044357 183.140769 
L 286.369337 180.14869 
L 287.019296 177.173699 
L 287.344275 174.745054 
L 287.669255 171.219418 
L 287.994234 170.389066 
L 288.319214 168.902417 
L 288.644193 165.187244 
L 288.969173 164.656041 
L 289.294152 159.143199 
L 289.619132 168.602621 
L 289.944111 158.779251 
L 290.269091 158.177316 
L 290.59407 166.514942 
L 290.91905 162.636065 
L 291.244029 163.424179 
L 291.569009 166.994454 
L 291.893989 166.689982 
L 292.218968 169.001918 
L 292.543948 163.578666 
L 292.868927 167.439601 
L 293.193907 168.553784 
L 293.518886 171.933848 
L 293.843866 178.563582 
L 294.168845 179.076782 
L 294.493825 178.503385 
L 294.818804 184.57636 
L 295.143784 181.442955 
L 295.468763 185.27839 
L 295.793743 186.848795 
L 296.118722 185.127381 
L 296.443702 186.472252 
L 296.768681 188.844417 
L 297.093661 185.124494 
L 297.41864 190.406866 
L 297.74362 185.591356 
L 298.0686 184.721333 
L 298.393579 185.725888 
L 298.718559 182.624756 
L 299.043538 184.750841 
L 299.368518 177.333808 
L 299.693497 177.867617 
L 300.018477 176.3298 
L 300.343456 169.937856 
L 300.668436 171.724169 
L 300.993415 170.880827 
L 301.318395 168.677562 
L 301.643374 160.805377 
L 301.968354 163.08775 
L 302.293333 153.307654 
L 302.618313 160.764706 
L 302.943292 149.547448 
L 303.268272 151.639464 
L 303.593251 151.081513 
L 303.918231 151.161778 
L 304.24321 148.088697 
L 304.56819 148.747914 
L 304.89317 145.797573 
L 305.218149 148.429704 
L 305.543129 148.802292 
L 305.868108 150.804332 
L 306.518067 151.284479 
L 306.843047 157.648421 
L 307.168026 158.249309 
L 307.493006 154.66241 
L 308.142965 160.31594 
L 308.792924 162.27601 
L 309.117903 165.991533 
L 309.442883 167.965679 
L 309.767862 166.767452 
L 310.092842 170.708366 
L 310.417821 168.080685 
L 310.742801 173.897721 
L 311.067781 167.45322 
L 311.39276 168.913594 
L 311.71774 169.274216 
L 312.367699 164.673412 
L 312.692678 165.383923 
L 313.017658 171.350447 
L 313.992596 162.326193 
L 314.317576 159.390851 
L 314.642555 160.686725 
L 314.967535 156.592705 
L 315.292514 157.092528 
L 315.617494 154.921863 
L 315.942473 155.135657 
L 316.267453 152.260063 
L 316.592432 151.755597 
L 316.917412 149.386583 
L 317.242391 143.064111 
L 317.567371 146.911492 
L 317.892351 137.076795 
L 318.21733 141.617488 
L 318.54231 141.798908 
L 318.867289 143.98348 
L 319.192269 139.885974 
L 319.517248 142.984835 
L 319.842228 141.336207 
L 320.167207 135.501797 
L 320.492187 142.420259 
L 320.817166 139.750465 
L 321.142146 144.836256 
L 321.467125 143.714073 
L 321.792105 139.792093 
L 322.117084 146.29979 
L 322.442064 140.783688 
L 323.092023 147.604869 
L 323.417002 144.998504 
L 323.741982 144.424212 
L 324.066962 145.465774 
L 324.391941 150.971067 
L 324.716921 148.837719 
L 325.0419 147.498401 
L 325.36688 146.815212 
L 325.691859 144.738736 
L 326.016839 145.397065 
L 326.341818 148.632956 
L 326.666798 143.794127 
L 326.991777 142.591172 
L 327.316757 142.052819 
L 327.641736 140.079197 
L 327.966716 140.010643 
L 328.291695 140.275216 
L 328.616675 140.954091 
L 328.941654 144.310678 
L 329.266634 138.58863 
L 329.591613 138.668969 
L 329.916593 138.11133 
L 330.241572 141.62884 
L 330.566552 140.894902 
L 330.891532 135.424772 
L 331.216511 138.029707 
L 331.541491 136.19499 
L 331.86647 137.820124 
L 332.19145 137.858371 
L 332.516429 135.668597 
L 332.841409 139.347902 
L 333.166388 137.889062 
L 333.491368 139.306054 
L 333.816347 139.22242 
L 334.141327 138.833449 
L 334.466306 137.357908 
L 334.791286 138.846109 
L 335.116265 134.186037 
L 335.441245 139.049842 
L 335.766224 136.700509 
L 336.091204 136.609645 
L 336.416183 131.085472 
L 336.741163 133.224322 
L 337.066143 130.074993 
L 337.391122 135.142337 
L 337.716102 129.52773 
L 338.041081 126.647485 
L 338.366061 127.266386 
L 338.69104 123.416964 
L 339.01602 125.933447 
L 339.340999 119.768038 
L 339.665979 116.228308 
L 339.990958 121.579366 
L 340.315938 120.636951 
L 340.640917 114.908478 
L 340.965897 113.7317 
L 341.290876 118.257929 
L 341.940835 116.862772 
L 342.265815 119.414311 
L 342.590794 118.488522 
L 342.915774 119.046232 
L 343.240753 119.014359 
L 343.565733 117.947796 
L 343.890713 118.214858 
L 344.215692 116.044172 
L 344.540672 123.599301 
L 344.865651 120.017354 
L 345.190631 124.401731 
L 345.51561 125.442899 
L 345.84059 125.095877 
L 346.165569 130.967791 
L 346.490549 128.567811 
L 346.815528 130.322018 
L 347.140508 130.578001 
L 347.465487 131.958534 
L 347.790467 127.239378 
L 348.115446 135.320216 
L 348.440426 135.189334 
L 348.765405 135.261123 
L 349.415364 134.066544 
L 349.740344 128.455699 
L 350.065324 126.499501 
L 350.390303 129.769143 
L 350.715283 128.478026 
L 351.040262 123.059847 
L 351.365242 123.205198 
L 351.690221 117.696036 
L 352.015201 116.061825 
L 352.34018 117.537674 
L 352.66516 107.109407 
L 352.990139 103.675774 
L 353.315119 106.895664 
L 354.615037 94.301114 
L 354.940016 89.204473 
L 355.264996 93.208482 
L 355.589975 93.67449 
L 355.914955 94.407449 
L 356.564914 90.79393 
L 356.889894 86.696381 
L 357.214873 93.241253 
L 357.539853 92.561645 
L 357.864832 94.643259 
L 358.514791 92.141105 
L 358.839771 101.965497 
L 359.16475 104.256883 
L 359.48973 102.948587 
L 359.814709 106.390166 
L 360.139689 106.030373 
L 360.789648 116.2937 
L 361.114627 116.082933 
L 361.439607 116.707136 
L 362.089566 121.122486 
L 362.414545 120.669529 
L 362.739525 120.957974 
L 363.064505 120.559859 
L 363.714464 123.382383 
L 364.039443 121.452611 
L 364.364423 117.259909 
L 364.689402 120.326972 
L 365.014382 115.07134 
L 365.339361 114.324918 
L 365.664341 110.36138 
L 365.98932 104.115038 
L 366.3143 103.49268 
L 366.639279 100.415017 
L 366.964259 100.41219 
L 367.289238 91.701054 
L 367.614218 88.534168 
L 367.939197 81.480672 
L 368.264177 84.511449 
L 368.589156 80.345383 
L 368.914136 77.702679 
L 369.239115 72.174182 
L 369.564095 74.462156 
L 370.214054 70.212916 
L 370.539034 70.649013 
L 370.864013 72.046561 
L 371.513972 69.205739 
L 371.838952 75.483306 
L 372.163931 74.03576 
L 372.488911 77.856773 
L 372.81389 75.188702 
L 373.13887 84.197573 
L 373.463849 84.245447 
L 373.788829 84.481417 
L 374.113808 84.150284 
L 374.438788 90.813127 
L 374.763767 94.58093 
L 375.088747 90.968965 
L 375.413726 101.486504 
L 375.738706 105.379432 
L 376.063686 100.588597 
L 376.388665 104.368703 
L 376.713645 106.752132 
L 377.038624 103.182454 
L 378.013563 107.900064 
L 378.338542 101.687042 
L 378.663522 100.984909 
L 378.988501 101.23108 
L 379.313481 94.459912 
L 379.63846 99.459315 
L 379.96344 98.099041 
L 380.938378 85.199598 
L 381.263358 83.391008 
L 381.588337 78.910042 
L 381.913317 79.934606 
L 382.238296 70.398126 
L 382.563276 71.488017 
L 382.888256 66.012023 
L 383.213235 65.66864 
L 383.863194 61.40412 
L 384.188174 60.317416 
L 384.513153 58.770781 
L 384.838133 56.337278 
L 385.163112 58.748093 
L 385.488092 57.39951 
L 385.813071 59.611587 
L 386.138051 56.331999 
L 386.46303 62.358781 
L 386.78801 57.214802 
L 387.437969 67.774501 
L 387.762948 65.365057 
L 388.087928 68.90017 
L 388.412907 66.67838 
L 388.737887 71.921582 
L 389.062867 72.891465 
L 389.387846 77.860844 
L 389.712826 75.554414 
L 390.037805 81.546652 
L 390.362785 80.377708 
L 390.687764 75.269992 
L 391.012744 75.694098 
L 391.337723 76.843383 
L 391.662703 80.317219 
L 391.987682 77.820302 
L 392.312662 77.266387 
L 392.637641 79.470339 
L 392.962621 72.004363 
L 393.2876 72.515894 
L 393.61258 74.042956 
L 394.262539 70.220727 
L 394.587518 74.303045 
L 394.912498 68.308426 
L 395.237477 67.833622 
L 395.562457 67.090061 
L 395.887437 63.809484 
L 396.212416 57.226913 
L 396.862375 60.540895 
L 397.512334 53.568 
L 397.837314 53.905696 
L 398.487273 56.534192 
L 398.487273 56.534192 
" clip-path="url(#p0f834e2270)" style="fill: none; stroke: #1f77b4; stroke-width: 1.5; stroke-linecap: square"/>
   </g>
   <g id="line2d_14">
    <path d="M 74.807666 290.392477 
L 75.132645 289.844705 
L 75.457625 289.568187 
L 75.782604 290.243944 
L 76.107584 291.574971 
L 76.432563 291.156024 
L 76.757543 291.467375 
L 77.082523 292.743233 
L 77.407502 293.202603 
L 77.732482 294.135866 
L 78.057461 293.499431 
L 78.382441 291.263769 
L 78.70742 292.826772 
L 79.357379 291.148703 
L 79.682359 291.970182 
L 80.007338 288.281928 
L 80.332318 291.254305 
L 80.657297 291.039065 
L 80.982277 290.664401 
L 81.307256 292.300324 
L 81.632236 290.730134 
L 82.282195 290.456669 
L 82.607174 291.289759 
L 82.932154 288.813671 
L 83.257133 290.106716 
L 83.582113 289.438622 
L 83.907093 291.697472 
L 84.232072 291.65399 
L 84.557052 289.475398 
L 84.882031 293.936187 
L 85.207011 291.889426 
L 85.53199 292.807361 
L 86.181949 289.657124 
L 86.506929 288.63894 
L 86.831908 290.643253 
L 87.156888 291.747207 
L 87.481867 291.512015 
L 87.806847 292.641002 
L 88.131826 289.49197 
L 88.456806 289.766385 
L 88.781785 288.469328 
L 89.106765 288.283171 
L 89.431744 289.917739 
L 89.756724 289.113645 
L 90.081704 289.489475 
L 90.406683 288.432992 
L 90.731663 285.740865 
L 91.056642 286.208403 
L 91.381622 286.911408 
L 91.706601 287.015296 
L 92.031581 286.99891 
L 92.35656 287.863943 
L 92.68154 286.576891 
L 93.006519 288.275518 
L 93.331499 288.068315 
L 93.656478 287.59741 
L 94.306437 285.462061 
L 94.956396 286.458582 
L 95.281376 285.775711 
L 95.931335 287.351722 
L 96.581294 284.81809 
L 96.906274 288.649815 
L 97.231253 285.45236 
L 97.556233 288.922074 
L 97.881212 287.624059 
L 98.206192 287.72391 
L 98.531171 289.989725 
L 98.856151 288.644084 
L 99.18113 289.371682 
L 99.50611 286.243978 
L 99.831089 287.035468 
L 100.156069 287.091945 
L 100.481048 290.23327 
L 100.806028 286.525423 
L 101.131007 287.412859 
L 101.455987 286.491947 
L 101.780966 286.26119 
L 102.105946 286.969154 
L 102.430925 283.871632 
L 102.755905 285.956544 
L 103.080885 285.076645 
L 103.405864 287.591411 
L 103.730844 287.705474 
L 104.055823 286.287431 
L 104.705782 284.75046 
L 105.030762 284.958734 
L 105.355741 286.06734 
L 105.680721 286.05317 
L 106.33068 287.206961 
L 106.655659 285.518099 
L 106.980639 285.156532 
L 107.305618 282.481542 
L 107.630598 281.831338 
L 107.955577 281.961561 
L 108.605536 285.770233 
L 108.930516 285.774228 
L 109.255495 285.93833 
L 109.580475 281.634443 
L 109.905455 282.096032 
L 110.230434 280.480239 
L 110.555414 283.135525 
L 111.530352 284.817016 
L 111.855332 281.683885 
L 112.180311 282.978641 
L 112.505291 280.765662 
L 112.83027 283.423976 
L 113.15525 280.73409 
L 113.480229 283.773244 
L 114.130188 281.402259 
L 114.455168 283.87382 
L 114.780147 281.911352 
L 115.430106 283.591777 
L 115.755086 285.350265 
L 116.080066 281.081181 
L 116.405045 284.359627 
L 116.730025 279.921446 
L 117.055004 281.613621 
L 117.379984 281.15509 
L 117.704963 282.322702 
L 118.029943 282.880432 
L 118.354922 280.963789 
L 118.679902 282.603412 
L 119.329861 280.521942 
L 119.65484 282.484702 
L 119.97982 281.440739 
L 120.304799 281.093688 
L 120.629779 284.457041 
L 121.929697 281.340453 
L 122.254676 282.026571 
L 122.579656 282.128816 
L 122.904636 282.457685 
L 123.229615 282.597824 
L 123.554595 279.872265 
L 123.879574 281.584843 
L 124.204554 280.053682 
L 124.529533 279.184456 
L 124.854513 281.910625 
L 125.179492 279.063456 
L 125.504472 279.7273 
L 125.829451 279.13211 
L 126.154431 276.461171 
L 126.47941 278.066551 
L 127.129369 273.982463 
L 127.454349 276.133628 
L 127.779328 275.555219 
L 128.104308 277.253954 
L 128.429287 278.160784 
L 128.754267 275.817703 
L 129.079247 275.975462 
L 129.404226 274.961561 
L 129.729206 272.908876 
L 130.054185 274.255211 
L 130.379165 272.354411 
L 130.704144 274.345657 
L 131.029124 272.612805 
L 131.354103 273.733309 
L 131.679083 273.151523 
L 132.004062 275.658736 
L 132.654021 276.777539 
L 132.979001 275.678985 
L 133.30398 276.719579 
L 133.62896 276.654284 
L 133.953939 277.204975 
L 134.278919 280.950356 
L 134.603898 280.126336 
L 134.928878 281.2782 
L 135.253857 280.490907 
L 135.578837 280.509336 
L 135.903817 279.625311 
L 136.228796 280.49514 
L 136.553776 280.099484 
L 137.203735 281.340218 
L 137.853694 279.885163 
L 138.178673 278.74487 
L 138.503653 275.781641 
L 138.828632 275.325485 
L 139.153612 277.200379 
L 139.478591 276.342945 
L 139.803571 277.015294 
L 140.12855 275.531816 
L 140.778509 269.085789 
L 141.103489 268.7887 
L 141.428468 265.200678 
L 141.753448 268.49589 
L 142.078428 267.667955 
L 142.728387 269.140974 
L 143.053366 268.46606 
L 143.378346 266.281689 
L 143.703325 267.757813 
L 144.028305 267.233759 
L 144.353284 264.581337 
L 144.678264 268.675744 
L 145.003243 265.965493 
L 145.328223 271.272431 
L 145.653202 268.252118 
L 145.978182 269.641974 
L 146.303161 268.987221 
L 146.628141 268.897573 
L 146.95312 270.887183 
L 147.2781 271.809791 
L 147.603079 271.605737 
L 147.928059 270.971396 
L 148.253038 274.959086 
L 148.578018 272.465502 
L 148.902998 272.834117 
L 149.227977 272.652532 
L 149.552957 273.474569 
L 149.877936 275.592117 
L 150.202916 278.767863 
L 150.527895 275.425245 
L 150.852875 276.544728 
L 151.502834 275.636097 
L 151.827813 274.654571 
L 152.152793 275.117941 
L 152.477772 274.731699 
L 152.802752 276.693355 
L 153.127731 275.901371 
L 153.452711 272.22536 
L 153.77769 271.522042 
L 154.10267 268.698089 
L 154.427649 270.056849 
L 154.752629 268.083236 
L 155.077609 264.715825 
L 155.727568 267.37568 
L 156.052547 265.296609 
L 156.377527 264.097152 
L 156.702506 262.023187 
L 157.677445 261.481345 
L 158.002424 265.119274 
L 158.327404 262.80087 
L 158.652383 265.051853 
L 158.977363 264.765277 
L 159.302342 260.261944 
L 159.627322 261.528549 
L 159.952301 260.672051 
L 160.277281 263.02775 
L 160.60226 261.828654 
L 160.92724 263.373623 
L 161.252219 262.073285 
L 161.577199 265.541992 
L 161.902179 262.116594 
L 162.552138 266.017131 
L 162.877117 264.43946 
L 163.202097 267.886004 
L 163.527076 268.299781 
L 163.852056 267.391353 
L 164.177035 266.975398 
L 164.502015 267.60373 
L 164.826994 267.483986 
L 165.151974 266.399037 
L 165.476953 270.711281 
L 165.801933 268.042934 
L 166.126912 270.302768 
L 166.451892 268.258941 
L 166.776871 267.408946 
L 167.101851 267.541915 
L 167.42683 267.367871 
L 168.07679 265.724343 
L 168.401769 265.748111 
L 168.726749 262.709323 
L 169.051728 263.640694 
L 169.701687 259.329964 
L 170.026667 259.244304 
L 170.351646 260.119237 
L 171.001605 259.137974 
L 171.651564 255.893111 
L 171.976544 256.305747 
L 172.301523 255.579741 
L 172.626503 255.704243 
L 172.951482 254.928014 
L 173.276462 256.997542 
L 173.601441 256.279851 
L 173.926421 256.082914 
L 174.2514 255.374274 
L 174.57638 253.529676 
L 174.90136 253.896894 
L 175.226339 255.503606 
L 175.551319 255.269583 
L 175.876298 256.953834 
L 176.526257 257.836006 
L 176.851237 257.900042 
L 177.176216 257.250326 
L 177.501196 257.967899 
L 177.826175 256.424178 
L 178.151155 259.168876 
L 178.476134 258.328423 
L 178.801114 260.041776 
L 179.126093 258.619658 
L 179.451073 256.399803 
L 179.776052 256.600847 
L 180.101032 257.022664 
L 180.426011 257.087538 
L 180.750991 257.829617 
L 181.075971 259.500821 
L 181.40095 255.519128 
L 181.72593 257.6488 
L 182.050909 255.752126 
L 182.375889 255.510781 
L 182.700868 255.506554 
L 183.025848 255.669234 
L 183.350827 256.250166 
L 183.675807 256.090272 
L 184.325766 253.957429 
L 184.650745 254.536176 
L 184.975725 253.633459 
L 185.300704 255.746905 
L 185.625684 255.799606 
L 185.950663 257.109906 
L 187.250581 251.310553 
L 187.575561 251.34559 
L 188.22552 255.22283 
L 188.5505 254.160737 
L 188.875479 255.672276 
L 189.200459 253.299993 
L 189.525438 253.12339 
L 189.850418 251.478401 
L 190.175397 251.220041 
L 190.500377 250.519824 
L 190.825356 250.308571 
L 191.150336 251.688615 
L 191.800295 249.461625 
L 192.125274 249.454546 
L 192.450254 248.322864 
L 192.775233 247.946511 
L 193.100213 248.323661 
L 193.425192 246.881942 
L 193.750172 244.380113 
L 194.075152 243.945715 
L 194.400131 241.323458 
L 194.725111 242.635272 
L 195.05009 241.332422 
L 195.37507 243.808038 
L 195.700049 240.920523 
L 196.025029 242.269321 
L 196.350008 242.413833 
L 196.674988 244.245962 
L 196.999967 245.239409 
L 197.324947 245.100894 
L 197.649926 247.712141 
L 197.974906 245.055773 
L 198.299885 246.256916 
L 198.624865 243.513295 
L 198.949844 244.079566 
L 199.274824 243.869039 
L 199.599803 248.840778 
L 199.924783 249.509344 
L 200.249762 250.665976 
L 200.574742 248.595819 
L 200.899722 248.755613 
L 201.224701 247.332928 
L 201.87466 251.274556 
L 202.19964 251.552135 
L 202.524619 249.722726 
L 202.849599 253.443286 
L 203.174578 251.575406 
L 203.499558 250.939676 
L 203.824537 250.813252 
L 204.149517 248.944054 
L 204.474496 248.916333 
L 204.799476 249.397902 
L 205.774414 243.732449 
L 206.099394 241.24426 
L 206.424373 242.590457 
L 206.749353 240.423319 
L 207.399312 237.747361 
L 207.724292 234.926145 
L 208.049271 233.230571 
L 208.374251 233.121329 
L 208.69923 228.536943 
L 209.02421 230.448383 
L 209.349189 227.707259 
L 209.674169 227.050977 
L 209.999148 227.576998 
L 210.324128 226.879039 
L 210.649107 227.557079 
L 210.974087 226.542119 
L 211.299066 229.535701 
L 211.624046 228.954708 
L 211.949025 230.958826 
L 212.274005 231.738435 
L 212.923964 238.040337 
L 213.248943 238.154476 
L 213.573923 239.604559 
L 213.898903 237.534521 
L 214.223882 238.161763 
L 214.548862 237.591357 
L 214.873841 243.192049 
L 215.198821 243.376741 
L 215.5238 246.94233 
L 215.84878 247.904893 
L 216.173759 245.636128 
L 216.498739 247.309876 
L 216.823718 245.981086 
L 217.148698 248.082836 
L 217.473677 245.736257 
L 217.798657 247.638495 
L 218.123636 245.570766 
L 218.448616 246.031794 
L 218.773595 245.47296 
L 219.423554 240.328179 
L 219.748534 239.626662 
L 220.398493 236.397015 
L 221.048452 232.200968 
L 221.373432 232.194729 
L 221.698411 229.315424 
L 222.023391 228.861324 
L 222.34837 224.568785 
L 222.67335 222.695927 
L 222.998329 220.084807 
L 223.323309 221.495104 
L 223.973268 218.983827 
L 224.298247 218.656757 
L 224.623227 217.465599 
L 224.948206 217.099496 
L 225.273186 217.353525 
L 225.598165 219.637029 
L 225.923145 220.200941 
L 226.248124 223.117564 
L 226.573104 223.831156 
L 226.898084 221.465216 
L 227.223063 220.486523 
L 227.548043 222.41771 
L 227.873022 225.083521 
L 228.198002 223.372093 
L 228.522981 226.744755 
L 228.847961 227.567573 
L 229.49792 234.395296 
L 229.822899 234.636204 
L 230.472858 235.999288 
L 230.797838 238.599814 
L 231.122817 239.323486 
L 231.447797 236.281248 
L 231.772776 235.278619 
L 232.097756 235.340529 
L 232.422735 234.339333 
L 232.747715 235.005497 
L 233.397674 231.772766 
L 233.722654 231.778266 
L 234.047633 229.005442 
L 234.372613 228.564189 
L 234.697592 228.452129 
L 235.022572 225.212044 
L 235.347551 224.812353 
L 236.32249 217.335449 
L 236.647469 219.199652 
L 236.972449 215.171123 
L 237.297428 216.312903 
L 237.622408 216.295306 
L 237.947387 213.730699 
L 238.272367 213.176057 
L 238.597346 211.178541 
L 238.922326 210.789505 
L 239.247305 209.565626 
L 239.572285 212.266559 
L 239.897265 212.230007 
L 240.222244 212.061564 
L 240.547224 210.768368 
L 240.872203 212.006404 
L 241.197183 212.298287 
L 241.522162 212.794281 
L 241.847142 215.11763 
L 242.172121 214.812248 
L 242.497101 218.582139 
L 242.82208 216.159532 
L 243.14706 219.042563 
L 243.472039 219.853963 
L 244.121998 222.657621 
L 244.446978 222.958623 
L 244.771957 221.717478 
L 245.096937 220.986716 
L 245.421916 223.90628 
L 245.746896 220.865671 
L 246.071876 224.515186 
L 246.396855 222.008428 
L 246.721835 222.952146 
L 247.046814 221.998481 
L 247.696773 218.040699 
L 248.021753 217.406107 
L 248.346732 215.526684 
L 248.671712 217.074598 
L 249.321671 213.091101 
L 249.64665 214.536017 
L 249.97163 211.954882 
L 250.296609 213.609189 
L 250.946568 208.685266 
L 251.271548 209.976473 
L 251.596527 208.613743 
L 251.921507 208.090496 
L 252.246486 207.796313 
L 252.571466 206.194251 
L 252.896446 205.181138 
L 253.221425 208.035562 
L 253.546405 206.597749 
L 253.871384 207.237597 
L 254.196364 206.827788 
L 254.521343 207.345919 
L 254.846323 206.802599 
L 255.171302 204.719101 
L 255.496282 204.507508 
L 255.821261 203.861001 
L 257.446159 210.70179 
L 257.771138 207.505292 
L 258.096118 207.906651 
L 258.421097 204.074369 
L 258.746077 202.623633 
L 259.396036 203.831995 
L 259.721016 205.150727 
L 260.045995 203.551997 
L 260.370975 204.669188 
L 261.020934 199.278589 
L 261.345913 199.95777 
L 261.670893 198.151112 
L 261.995872 197.811114 
L 262.320852 198.577882 
L 262.970811 195.960836 
L 263.29579 199.666973 
L 263.62077 198.20255 
L 263.945749 198.466765 
L 264.270729 200.897502 
L 264.595708 198.686877 
L 264.920688 201.441886 
L 265.245667 200.184934 
L 265.570647 200.597264 
L 265.895627 199.607235 
L 266.220606 201.839774 
L 266.545586 202.480432 
L 266.870565 205.258862 
L 267.195545 204.647313 
L 267.520524 204.594624 
L 267.845504 204.399097 
L 268.170483 203.652503 
L 268.495463 203.525206 
L 268.820442 202.974368 
L 269.145422 202.064905 
L 269.470401 200.555736 
L 269.795381 203.291291 
L 270.12036 201.65792 
L 270.44534 204.441888 
L 270.770319 201.240136 
L 271.095299 199.231188 
L 271.420278 195.962701 
L 271.745258 196.045761 
L 272.070238 195.163988 
L 272.395217 191.046628 
L 272.720197 192.253656 
L 273.045176 187.927209 
L 273.370156 188.801735 
L 274.020115 183.971374 
L 274.345094 182.508279 
L 274.670074 182.32881 
L 275.320033 178.123302 
L 275.645012 176.046376 
L 275.969992 175.980899 
L 276.294971 178.479887 
L 276.94493 180.387647 
L 277.26991 178.58458 
L 277.594889 181.020137 
L 277.919869 179.696096 
L 278.244848 182.045411 
L 278.569828 181.015422 
L 279.219787 189.259934 
L 279.544767 189.989373 
L 279.869746 191.36359 
L 280.194726 190.958711 
L 280.844685 195.514074 
L 281.169664 196.36499 
L 281.494644 195.915375 
L 281.819623 198.616107 
L 282.469582 201.607345 
L 282.794562 202.050324 
L 283.119541 200.847015 
L 283.444521 202.839952 
L 283.7695 198.756441 
L 284.09448 197.07898 
L 284.744439 192.167004 
L 285.069419 194.440293 
L 285.719378 189.716949 
L 286.044357 185.211253 
L 286.369337 186.088533 
L 286.694316 181.596425 
L 287.344275 177.448477 
L 287.669255 176.322995 
L 287.994234 173.873287 
L 288.644193 170.236194 
L 288.969173 165.819272 
L 289.294152 165.695875 
L 289.619132 162.314104 
L 289.944111 164.486009 
L 290.269091 160.167716 
L 290.59407 162.256046 
L 290.91905 161.024871 
L 291.244029 160.802056 
L 291.569009 163.856162 
L 291.893989 163.258303 
L 292.218968 164.75643 
L 292.543948 167.731543 
L 292.868927 166.217536 
L 293.193907 166.616179 
L 293.518886 168.334495 
L 293.843866 168.686664 
L 294.493825 177.469695 
L 295.143784 182.46357 
L 295.468763 182.109992 
L 295.793743 185.5085 
L 296.118722 185.046243 
L 296.443702 185.222971 
L 296.768681 188.411543 
L 297.41864 188.863897 
L 297.74362 191.41229 
L 298.0686 187.702174 
L 298.393579 188.066342 
L 298.718559 186.715644 
L 299.043538 184.351738 
L 299.368518 186.051224 
L 299.693497 181.672666 
L 300.018477 180.982814 
L 300.668436 174.669539 
L 302.293333 164.170746 
L 302.618313 158.233267 
L 302.943292 159.831168 
L 303.268272 151.404198 
L 303.593251 153.997726 
L 303.918231 149.853099 
L 304.56819 150.096385 
L 304.89317 148.727589 
L 305.218149 146.711299 
L 305.543129 146.238519 
L 305.868108 146.479164 
L 306.193088 147.475984 
L 306.518067 150.852938 
L 306.843047 149.537535 
L 307.168026 154.380984 
L 307.493006 155.200052 
L 307.817985 157.473041 
L 308.142965 157.360199 
L 308.467944 157.759021 
L 309.117903 162.803552 
L 309.442883 164.510181 
L 309.767862 167.282215 
L 310.417821 169.635184 
L 310.742801 170.363745 
L 311.067781 172.363643 
L 311.39276 169.777229 
L 311.71774 171.573664 
L 312.042719 170.218222 
L 312.367699 169.976146 
L 313.017658 166.916825 
L 313.342637 168.15326 
L 313.667617 168.189094 
L 313.992596 169.16273 
L 314.317576 165.678962 
L 314.642555 163.724891 
L 314.967535 160.426674 
L 315.292514 158.342531 
L 315.617494 157.768129 
L 315.942473 155.835462 
L 316.267453 155.703114 
L 316.592432 154.543299 
L 316.917412 154.344825 
L 317.567371 147.17348 
L 317.892351 145.585428 
L 318.21733 141.067767 
L 318.54231 142.751172 
L 318.867289 139.391119 
L 319.192269 142.387192 
L 319.517248 141.556025 
L 319.842228 142.183356 
L 320.167207 140.416799 
L 320.492187 139.620295 
L 320.817166 139.217025 
L 321.142146 137.202332 
L 321.467125 143.206757 
L 321.792105 141.527959 
L 322.117084 143.913719 
L 322.442064 144.883022 
L 322.767043 143.166603 
L 323.092023 144.106176 
L 323.417002 144.314428 
L 324.066962 146.528761 
L 324.391941 146.702829 
L 324.716921 148.138617 
L 325.0419 150.20017 
L 325.691859 147.824899 
L 326.016839 147.736561 
L 326.341818 146.128577 
L 326.666798 147.117169 
L 327.316757 146.28067 
L 327.641736 143.451425 
L 327.966716 142.187754 
L 328.291695 142.353234 
L 328.616675 139.848517 
L 328.941654 139.699111 
L 329.266634 141.807697 
L 329.591613 140.792326 
L 329.916593 141.118048 
L 330.241572 139.065574 
L 330.566552 138.86605 
L 330.891532 139.244903 
L 331.216511 138.513609 
L 331.541491 138.811955 
L 331.86647 137.146017 
L 332.19145 138.265893 
L 333.166388 137.611777 
L 333.491368 137.556616 
L 333.816347 139.214678 
L 334.141327 139.822475 
L 334.466306 139.578976 
L 334.791286 138.288678 
L 335.116265 138.990004 
L 335.441245 136.762575 
L 335.766224 138.664688 
L 336.091204 136.642243 
L 336.416183 138.043364 
L 337.391122 132.321702 
L 337.716102 133.340368 
L 338.041081 130.943136 
L 338.366061 130.85411 
L 338.69104 128.844172 
L 339.01602 125.469713 
L 339.340999 126.876672 
L 339.665979 122.09626 
L 339.990958 120.990498 
L 340.315938 118.672718 
L 340.640917 118.861129 
L 340.965897 118.909322 
L 341.290876 117.443231 
L 341.615856 114.854496 
L 342.265815 116.92911 
L 342.590794 116.67398 
L 342.915774 118.422103 
L 343.240753 118.584515 
L 343.565733 118.606727 
L 343.890713 119.395637 
L 344.215692 119.411589 
L 344.540672 117.195095 
L 344.865651 119.53456 
L 345.190631 120.722449 
L 345.51561 124.612756 
L 345.84059 123.859629 
L 346.490549 128.526158 
L 346.815528 127.952324 
L 347.140508 130.608622 
L 347.465487 130.338121 
L 347.790467 131.663552 
L 348.115446 130.765341 
L 348.440426 134.278638 
L 348.765405 132.77831 
L 349.090385 136.90979 
L 349.415364 135.961454 
L 349.740344 135.805634 
L 350.065324 134.597803 
L 350.390303 130.860017 
L 350.715283 129.295871 
L 351.040262 128.436403 
L 351.365242 128.124625 
L 352.66516 117.46062 
L 352.990139 112.042461 
L 353.315119 109.838931 
L 353.640098 104.861917 
L 353.965078 103.359444 
L 354.290057 104.037071 
L 354.940016 95.798928 
L 355.589975 90.940447 
L 355.914955 89.84337 
L 356.239934 92.82422 
L 356.564914 91.639637 
L 356.889894 91.862379 
L 357.214873 90.552351 
L 357.539853 90.784642 
L 357.864832 89.208992 
L 358.189812 92.205561 
L 358.839771 93.851909 
L 359.16475 98.068641 
L 359.48973 100.170473 
L 359.814709 104.027277 
L 360.464668 105.294625 
L 361.439607 115.431292 
L 361.764586 118.78884 
L 362.089566 118.850078 
L 362.414545 120.45515 
L 362.739525 123.268907 
L 363.389484 122.200192 
L 364.039443 123.760031 
L 364.364423 124.649171 
L 365.014382 121.295057 
L 365.339361 118.157189 
L 365.664341 117.63561 
L 366.964259 102.778929 
L 367.289238 101.911362 
L 367.939197 93.451771 
L 368.264177 86.293107 
L 368.589156 85.081955 
L 368.914136 80.267633 
L 369.239115 79.676473 
L 369.564095 75.110185 
L 370.539034 70.994594 
L 370.864013 69.970173 
L 371.188993 68.452966 
L 371.513972 69.714906 
L 371.838952 69.282277 
L 372.163931 72.257013 
L 372.488911 72.073064 
L 372.81389 76.112263 
L 373.13887 74.661622 
L 373.463849 80.27924 
L 373.788829 81.467561 
L 374.113808 85.078145 
L 374.438788 85.579924 
L 375.413726 93.038565 
L 375.738706 98.350972 
L 376.063686 100.068452 
L 376.388665 104.943214 
L 376.713645 105.276153 
L 377.038624 106.358958 
L 377.688583 106.95095 
L 378.013563 105.339809 
L 378.338542 109.007617 
L 378.663522 108.146343 
L 378.988501 105.171055 
L 379.313481 104.239424 
L 379.63846 100.913393 
L 379.96344 99.261413 
L 380.288419 96.481354 
L 380.613399 97.714658 
L 382.238296 78.775973 
L 382.563276 74.756706 
L 382.888256 74.623101 
L 383.213235 68.158123 
L 383.538215 68.385875 
L 383.863194 64.703088 
L 384.513153 59.798205 
L 384.838133 58.562548 
L 385.488092 57.039315 
L 385.813071 56.770312 
L 386.138051 57.449921 
L 386.46303 57.297065 
L 386.78801 58.569485 
L 387.112989 58.517874 
L 387.437969 61.240463 
L 387.762948 62.421162 
L 388.412907 68.674655 
L 388.737887 67.350938 
L 389.062867 71.077322 
L 389.387846 71.665972 
L 389.712826 75.536789 
L 390.037805 76.044431 
L 390.362785 80.971408 
L 390.687764 80.140822 
L 391.012744 81.765252 
L 391.337723 80.103221 
L 391.662703 77.340785 
L 391.987682 79.306117 
L 392.312662 78.699657 
L 392.637641 80.685917 
L 392.962621 80.045616 
L 393.2876 78.4236 
L 394.262539 72.273471 
L 394.587518 71.707499 
L 394.912498 71.724836 
L 395.237477 71.208768 
L 395.562457 72.469223 
L 395.887437 67.572877 
L 396.212416 65.9944 
L 396.862375 59.147522 
L 397.187355 58.444887 
L 397.512334 59.281545 
L 397.837314 57.878926 
L 398.162293 55.136394 
L 398.487273 55.24706 
L 398.487273 55.24706 
" clip-path="url(#p0f834e2270)" style="fill: none; stroke: #ff7f0e; stroke-width: 1.5; stroke-linecap: square"/>
   </g>
   <g id="line2d_15">
    <path d="M 268.820442 307.584 
L 268.820442 41.472 
" clip-path="url(#p0f834e2270)" style="fill: none; stroke-dasharray: 5.55,2.4; stroke-dashoffset: 0; stroke: #ff0000; stroke-width: 1.5"/>
   </g>
   <g id="patch_3">
    <path d="M 57.6 307.584 
L 57.6 41.472 
" style="fill: none; stroke: #000000; stroke-width: 0.8; stroke-linejoin: miter; stroke-linecap: square"/>
   </g>
   <g id="patch_4">
    <path d="M 414.72 307.584 
L 414.72 41.472 
" style="fill: none; stroke: #000000; stroke-width: 0.8; stroke-linejoin: miter; stroke-linecap: square"/>
   </g>
   <g id="patch_5">
    <path d="M 57.6 307.584 
L 414.72 307.584 
" style="fill: none; stroke: #000000; stroke-width: 0.8; stroke-linejoin: miter; stroke-linecap: square"/>
   </g>
   <g id="patch_6">
    <path d="M 57.6 41.472 
L 414.72 41.472 
" style="fill: none; stroke: #000000; stroke-width: 0.8; stroke-linejoin: miter; stroke-linecap: square"/>
   </g>
   <g id="text_13">
    <!-- Train -->
    <g style="fill: #ff0000" transform="translate(203.824537 182.172877) scale(0.1 -0.1)">
     <defs>
      <path id="DejaVuSans-54" d="M -19 4666 
L 3928 4666 
L 3928 4134 
L 2272 4134 
L 2272 0 
L 1638 0 
L 1638 4134 
L -19 4134 
L -19 4666 
z
" transform="scale(0.015625)"/>
      <path id="DejaVuSans-72" d="M 2631 2963 
Q 2534 3019 2420 3045 
Q 2306 3072 2169 3072 
Q 1681 3072 1420 2755 
Q 1159 2438 1159 1844 
L 1159 0 
L 581 0 
L 581 3500 
L 1159 3500 
L 1159 2956 
Q 1341 3275 1631 3429 
Q 1922 3584 2338 3584 
Q 2397 3584 2469 3576 
Q 2541 3569 2628 3553 
L 2631 2963 
z
" transform="scale(0.015625)"/>
      <path id="DejaVuSans-61" d="M 2194 1759 
Q 1497 1759 1228 1600 
Q 959 1441 959 1056 
Q 959 750 1161 570 
Q 1363 391 1709 391 
Q 2188 391 2477 730 
Q 2766 1069 2766 1631 
L 2766 1759 
L 2194 1759 
z
M 3341 1997 
L 3341 0 
L 2766 0 
L 2766 531 
Q 2569 213 2275 61 
Q 1981 -91 1556 -91 
Q 1019 -91 701 211 
Q 384 513 384 1019 
Q 384 1609 779 1909 
Q 1175 2209 1959 2209 
L 2766 2209 
L 2766 2266 
Q 2766 2663 2505 2880 
Q 2244 3097 1772 3097 
Q 1472 3097 1187 3025 
Q 903 2953 641 2809 
L 641 3341 
Q 956 3463 1253 3523 
Q 1550 3584 1831 3584 
Q 2591 3584 2966 3190 
Q 3341 2797 3341 1997 
z
" transform="scale(0.015625)"/>
      <path id="DejaVuSans-69" d="M 603 3500 
L 1178 3500 
L 1178 0 
L 603 0 
L 603 3500 
z
M 603 4863 
L 1178 4863 
L 1178 4134 
L 603 4134 
L 603 4863 
z
" transform="scale(0.015625)"/>
      <path id="DejaVuSans-6e" d="M 3513 2113 
L 3513 0 
L 2938 0 
L 2938 2094 
Q 2938 2591 2744 2837 
Q 2550 3084 2163 3084 
Q 1697 3084 1428 2787 
Q 1159 2491 1159 1978 
L 1159 0 
L 581 0 
L 581 3500 
L 1159 3500 
L 1159 2956 
Q 1366 3272 1645 3428 
Q 1925 3584 2291 3584 
Q 2894 3584 3203 3211 
Q 3513 2838 3513 2113 
z
" transform="scale(0.015625)"/>
     </defs>
     <use xlink:href="#DejaVuSans-54"/>
     <use xlink:href="#DejaVuSans-72" x="46.333984"/>
     <use xlink:href="#DejaVuSans-61" x="87.447266"/>
     <use xlink:href="#DejaVuSans-69" x="148.726562"/>
     <use xlink:href="#DejaVuSans-6e" x="176.509766"/>
    </g>
    <!-- MSE: 0.38 -->
    <g style="fill: #ff0000" transform="translate(203.824537 193.37069) scale(0.1 -0.1)">
     <defs>
      <path id="DejaVuSans-4d" d="M 628 4666 
L 1569 4666 
L 2759 1491 
L 3956 4666 
L 4897 4666 
L 4897 0 
L 4281 0 
L 4281 4097 
L 3078 897 
L 2444 897 
L 1241 4097 
L 1241 0 
L 628 0 
L 628 4666 
z
" transform="scale(0.015625)"/>
      <path id="DejaVuSans-53" d="M 3425 4513 
L 3425 3897 
Q 3066 4069 2747 4153 
Q 2428 4238 2131 4238 
Q 1616 4238 1336 4038 
Q 1056 3838 1056 3469 
Q 1056 3159 1242 3001 
Q 1428 2844 1947 2747 
L 2328 2669 
Q 3034 2534 3370 2195 
Q 3706 1856 3706 1288 
Q 3706 609 3251 259 
Q 2797 -91 1919 -91 
Q 1588 -91 1214 -16 
Q 841 59 441 206 
L 441 856 
Q 825 641 1194 531 
Q 1563 422 1919 422 
Q 2459 422 2753 634 
Q 3047 847 3047 1241 
Q 3047 1584 2836 1778 
Q 2625 1972 2144 2069 
L 1759 2144 
Q 1053 2284 737 2584 
Q 422 2884 422 3419 
Q 422 4038 858 4394 
Q 1294 4750 2059 4750 
Q 2388 4750 2728 4690 
Q 3069 4631 3425 4513 
z
" transform="scale(0.015625)"/>
      <path id="DejaVuSans-45" d="M 628 4666 
L 3578 4666 
L 3578 4134 
L 1259 4134 
L 1259 2753 
L 3481 2753 
L 3481 2222 
L 1259 2222 
L 1259 531 
L 3634 531 
L 3634 0 
L 628 0 
L 628 4666 
z
" transform="scale(0.015625)"/>
      <path id="DejaVuSans-3a" d="M 750 794 
L 1409 794 
L 1409 0 
L 750 0 
L 750 794 
z
M 750 3309 
L 1409 3309 
L 1409 2516 
L 750 2516 
L 750 3309 
z
" transform="scale(0.015625)"/>
      <path id="DejaVuSans-20" transform="scale(0.015625)"/>
      <path id="DejaVuSans-2e" d="M 684 794 
L 1344 794 
L 1344 0 
L 684 0 
L 684 794 
z
" transform="scale(0.015625)"/>
     </defs>
     <use xlink:href="#DejaVuSans-4d"/>
     <use xlink:href="#DejaVuSans-53" x="86.279297"/>
     <use xlink:href="#DejaVuSans-45" x="149.755859"/>
     <use xlink:href="#DejaVuSans-3a" x="212.939453"/>
     <use xlink:href="#DejaVuSans-20" x="246.630859"/>
     <use xlink:href="#DejaVuSans-30" x="278.417969"/>
     <use xlink:href="#DejaVuSans-2e" x="342.041016"/>
     <use xlink:href="#DejaVuSans-33" x="373.828125"/>
     <use xlink:href="#DejaVuSans-38" x="437.451172"/>
    </g>
   </g>
   <g id="text_14">
    <!-- Test -->
    <g style="fill: #ff0000" transform="translate(285.069419 242.867589) scale(0.1 -0.1)">
     <defs>
      <path id="DejaVuSans-65" d="M 3597 1894 
L 3597 1613 
L 953 1613 
Q 991 1019 1311 708 
Q 1631 397 2203 397 
Q 2534 397 2845 478 
Q 3156 559 3463 722 
L 3463 178 
Q 3153 47 2828 -22 
Q 2503 -91 2169 -91 
Q 1331 -91 842 396 
Q 353 884 353 1716 
Q 353 2575 817 3079 
Q 1281 3584 2069 3584 
Q 2775 3584 3186 3129 
Q 3597 2675 3597 1894 
z
M 3022 2063 
Q 3016 2534 2758 2815 
Q 2500 3097 2075 3097 
Q 1594 3097 1305 2825 
Q 1016 2553 972 2059 
L 3022 2063 
z
" transform="scale(0.015625)"/>
      <path id="DejaVuSans-73" d="M 2834 3397 
L 2834 2853 
Q 2591 2978 2328 3040 
Q 2066 3103 1784 3103 
Q 1356 3103 1142 2972 
Q 928 2841 928 2578 
Q 928 2378 1081 2264 
Q 1234 2150 1697 2047 
L 1894 2003 
Q 2506 1872 2764 1633 
Q 3022 1394 3022 966 
Q 3022 478 2636 193 
Q 2250 -91 1575 -91 
Q 1294 -91 989 -36 
Q 684 19 347 128 
L 347 722 
Q 666 556 975 473 
Q 1284 391 1588 391 
Q 1994 391 2212 530 
Q 2431 669 2431 922 
Q 2431 1156 2273 1281 
Q 2116 1406 1581 1522 
L 1381 1569 
Q 847 1681 609 1914 
Q 372 2147 372 2553 
Q 372 3047 722 3315 
Q 1072 3584 1716 3584 
Q 2034 3584 2315 3537 
Q 2597 3491 2834 3397 
z
" transform="scale(0.015625)"/>
      <path id="DejaVuSans-74" d="M 1172 4494 
L 1172 3500 
L 2356 3500 
L 2356 3053 
L 1172 3053 
L 1172 1153 
Q 1172 725 1289 603 
Q 1406 481 1766 481 
L 2356 481 
L 2356 0 
L 1766 0 
Q 1100 0 847 248 
Q 594 497 594 1153 
L 594 3053 
L 172 3053 
L 172 3500 
L 594 3500 
L 594 4494 
L 1172 4494 
z
" transform="scale(0.015625)"/>
     </defs>
     <use xlink:href="#DejaVuSans-54"/>
     <use xlink:href="#DejaVuSans-65" x="44.083984"/>
     <use xlink:href="#DejaVuSans-73" x="105.607422"/>
     <use xlink:href="#DejaVuSans-74" x="157.707031"/>
    </g>
    <!-- MSE: 0.72 -->
    <g style="fill: #ff0000" transform="translate(285.069419 254.065402) scale(0.1 -0.1)">
     <defs>
      <path id="DejaVuSans-37" d="M 525 4666 
L 3525 4666 
L 3525 4397 
L 1831 0 
L 1172 0 
L 2766 4134 
L 525 4134 
L 525 4666 
z
" transform="scale(0.015625)"/>
     </defs>
     <use xlink:href="#DejaVuSans-4d"/>
     <use xlink:href="#DejaVuSans-53" x="86.279297"/>
     <use xlink:href="#DejaVuSans-45" x="149.755859"/>
     <use xlink:href="#DejaVuSans-3a" x="212.939453"/>
     <use xlink:href="#DejaVuSans-20" x="246.630859"/>
     <use xlink:href="#DejaVuSans-30" x="278.417969"/>
     <use xlink:href="#DejaVuSans-2e" x="342.041016"/>
     <use xlink:href="#DejaVuSans-37" x="373.828125"/>
     <use xlink:href="#DejaVuSans-32" x="437.451172"/>
    </g>
   </g>
   <g id="text_15">
    <!-- AR: 3, 416, MA: 14, 571 -->
    <g transform="translate(165.242813 22.034625) scale(0.12 -0.12)">
     <defs>
      <path id="DejaVuSans-41" d="M 2188 4044 
L 1331 1722 
L 3047 1722 
L 2188 4044 
z
M 1831 4666 
L 2547 4666 
L 4325 0 
L 3669 0 
L 3244 1197 
L 1141 1197 
L 716 0 
L 50 0 
L 1831 4666 
z
" transform="scale(0.015625)"/>
      <path id="DejaVuSans-52" d="M 2841 2188 
Q 3044 2119 3236 1894 
Q 3428 1669 3622 1275 
L 4263 0 
L 3584 0 
L 2988 1197 
Q 2756 1666 2539 1819 
Q 2322 1972 1947 1972 
L 1259 1972 
L 1259 0 
L 628 0 
L 628 4666 
L 2053 4666 
Q 2853 4666 3247 4331 
Q 3641 3997 3641 3322 
Q 3641 2881 3436 2590 
Q 3231 2300 2841 2188 
z
M 1259 4147 
L 1259 2491 
L 2053 2491 
Q 2509 2491 2742 2702 
Q 2975 2913 2975 3322 
Q 2975 3731 2742 3939 
Q 2509 4147 2053 4147 
L 1259 4147 
z
" transform="scale(0.015625)"/>
      <path id="DejaVuSans-2c" d="M 750 794 
L 1409 794 
L 1409 256 
L 897 -744 
L 494 -744 
L 750 256 
L 750 794 
z
" transform="scale(0.015625)"/>
     </defs>
     <use xlink:href="#DejaVuSans-41"/>
     <use xlink:href="#DejaVuSans-52" x="68.408203"/>
     <use xlink:href="#DejaVuSans-3a" x="134.765625"/>
     <use xlink:href="#DejaVuSans-20" x="168.457031"/>
     <use xlink:href="#DejaVuSans-33" x="200.244141"/>
     <use xlink:href="#DejaVuSans-2c" x="263.867188"/>
     <use xlink:href="#DejaVuSans-20" x="295.654297"/>
     <use xlink:href="#DejaVuSans-34" x="327.441406"/>
     <use xlink:href="#DejaVuSans-31" x="391.064453"/>
     <use xlink:href="#DejaVuSans-36" x="454.6875"/>
     <use xlink:href="#DejaVuSans-2c" x="518.310547"/>
     <use xlink:href="#DejaVuSans-20" x="550.097656"/>
     <use xlink:href="#DejaVuSans-4d" x="581.884766"/>
     <use xlink:href="#DejaVuSans-41" x="668.164062"/>
     <use xlink:href="#DejaVuSans-3a" x="734.822266"/>
     <use xlink:href="#DejaVuSans-20" x="768.513672"/>
     <use xlink:href="#DejaVuSans-31" x="800.300781"/>
     <use xlink:href="#DejaVuSans-34" x="863.923828"/>
     <use xlink:href="#DejaVuSans-2c" x="927.546875"/>
     <use xlink:href="#DejaVuSans-20" x="959.333984"/>
     <use xlink:href="#DejaVuSans-35" x="991.121094"/>
     <use xlink:href="#DejaVuSans-37" x="1054.744141"/>
     <use xlink:href="#DejaVuSans-31" x="1118.367188"/>
    </g>
    <!-- MSE = 0.51 -->
    <g transform="translate(201.181875 35.472) scale(0.12 -0.12)">
     <defs>
      <path id="DejaVuSans-3d" d="M 678 2906 
L 4684 2906 
L 4684 2381 
L 678 2381 
L 678 2906 
z
M 678 1631 
L 4684 1631 
L 4684 1100 
L 678 1100 
L 678 1631 
z
" transform="scale(0.015625)"/>
     </defs>
     <use xlink:href="#DejaVuSans-4d"/>
     <use xlink:href="#DejaVuSans-53" x="86.279297"/>
     <use xlink:href="#DejaVuSans-45" x="149.755859"/>
     <use xlink:href="#DejaVuSans-20" x="212.939453"/>
     <use xlink:href="#DejaVuSans-3d" x="244.726562"/>
     <use xlink:href="#DejaVuSans-20" x="328.515625"/>
     <use xlink:href="#DejaVuSans-30" x="360.302734"/>
     <use xlink:href="#DejaVuSans-2e" x="423.925781"/>
     <use xlink:href="#DejaVuSans-35" x="455.712891"/>
     <use xlink:href="#DejaVuSans-31" x="519.335938"/>
    </g>
   </g>
   <g id="legend_1">
    <g id="patch_7">
     <path d="M 64.6 78.82825 
L 146.273438 78.82825 
Q 148.273438 78.82825 148.273438 76.82825 
L 148.273438 48.472 
Q 148.273438 46.472 146.273438 46.472 
L 64.6 46.472 
Q 62.6 46.472 62.6 48.472 
L 62.6 76.82825 
Q 62.6 78.82825 64.6 78.82825 
z
" style="fill: #ffffff; opacity: 0.8; stroke: #cccccc; stroke-linejoin: miter"/>
    </g>
    <g id="line2d_16">
     <path d="M 66.6 54.570437 
L 76.6 54.570437 
L 86.6 54.570437 
" style="fill: none; stroke: #1f77b4; stroke-width: 1.5; stroke-linecap: square"/>
    </g>
    <g id="text_16">
     <!-- Series -->
     <g transform="translate(94.6 58.070437) scale(0.1 -0.1)">
      <use xlink:href="#DejaVuSans-53"/>
      <use xlink:href="#DejaVuSans-65" x="63.476562"/>
      <use xlink:href="#DejaVuSans-72" x="125"/>
      <use xlink:href="#DejaVuSans-69" x="166.113281"/>
      <use xlink:href="#DejaVuSans-65" x="193.896484"/>
      <use xlink:href="#DejaVuSans-73" x="255.419922"/>
     </g>
    </g>
    <g id="line2d_17">
     <path d="M 66.6 69.248562 
L 76.6 69.248562 
L 86.6 69.248562 
" style="fill: none; stroke: #ff7f0e; stroke-width: 1.5; stroke-linecap: square"/>
    </g>
    <g id="text_17">
     <!-- Prediction -->
     <g transform="translate(94.6 72.748562) scale(0.1 -0.1)">
      <defs>
       <path id="DejaVuSans-50" d="M 1259 4147 
L 1259 2394 
L 2053 2394 
Q 2494 2394 2734 2622 
Q 2975 2850 2975 3272 
Q 2975 3691 2734 3919 
Q 2494 4147 2053 4147 
L 1259 4147 
z
M 628 4666 
L 2053 4666 
Q 2838 4666 3239 4311 
Q 3641 3956 3641 3272 
Q 3641 2581 3239 2228 
Q 2838 1875 2053 1875 
L 1259 1875 
L 1259 0 
L 628 0 
L 628 4666 
z
" transform="scale(0.015625)"/>
       <path id="DejaVuSans-64" d="M 2906 2969 
L 2906 4863 
L 3481 4863 
L 3481 0 
L 2906 0 
L 2906 525 
Q 2725 213 2448 61 
Q 2172 -91 1784 -91 
Q 1150 -91 751 415 
Q 353 922 353 1747 
Q 353 2572 751 3078 
Q 1150 3584 1784 3584 
Q 2172 3584 2448 3432 
Q 2725 3281 2906 2969 
z
M 947 1747 
Q 947 1113 1208 752 
Q 1469 391 1925 391 
Q 2381 391 2643 752 
Q 2906 1113 2906 1747 
Q 2906 2381 2643 2742 
Q 2381 3103 1925 3103 
Q 1469 3103 1208 2742 
Q 947 2381 947 1747 
z
" transform="scale(0.015625)"/>
       <path id="DejaVuSans-63" d="M 3122 3366 
L 3122 2828 
Q 2878 2963 2633 3030 
Q 2388 3097 2138 3097 
Q 1578 3097 1268 2742 
Q 959 2388 959 1747 
Q 959 1106 1268 751 
Q 1578 397 2138 397 
Q 2388 397 2633 464 
Q 2878 531 3122 666 
L 3122 134 
Q 2881 22 2623 -34 
Q 2366 -91 2075 -91 
Q 1284 -91 818 406 
Q 353 903 353 1747 
Q 353 2603 823 3093 
Q 1294 3584 2113 3584 
Q 2378 3584 2631 3529 
Q 2884 3475 3122 3366 
z
" transform="scale(0.015625)"/>
       <path id="DejaVuSans-6f" d="M 1959 3097 
Q 1497 3097 1228 2736 
Q 959 2375 959 1747 
Q 959 1119 1226 758 
Q 1494 397 1959 397 
Q 2419 397 2687 759 
Q 2956 1122 2956 1747 
Q 2956 2369 2687 2733 
Q 2419 3097 1959 3097 
z
M 1959 3584 
Q 2709 3584 3137 3096 
Q 3566 2609 3566 1747 
Q 3566 888 3137 398 
Q 2709 -91 1959 -91 
Q 1206 -91 779 398 
Q 353 888 353 1747 
Q 353 2609 779 3096 
Q 1206 3584 1959 3584 
z
" transform="scale(0.015625)"/>
      </defs>
      <use xlink:href="#DejaVuSans-50"/>
      <use xlink:href="#DejaVuSans-72" x="58.552734"/>
      <use xlink:href="#DejaVuSans-65" x="97.416016"/>
      <use xlink:href="#DejaVuSans-64" x="158.939453"/>
      <use xlink:href="#DejaVuSans-69" x="222.416016"/>
      <use xlink:href="#DejaVuSans-63" x="250.199219"/>
      <use xlink:href="#DejaVuSans-74" x="305.179688"/>
      <use xlink:href="#DejaVuSans-69" x="344.388672"/>
      <use xlink:href="#DejaVuSans-6f" x="372.171875"/>
      <use xlink:href="#DejaVuSans-6e" x="433.353516"/>
     </g>
    </g>
   </g>
  </g>
 </g>
 <defs>
  <clipPath id="p0f834e2270">
   <rect x="57.6" y="41.472" width="357.12" height="266.112"/>
  </clipPath>
 </defs>
</svg>
