<?xml version="1.0" encoding="utf-8" standalone="no"?>
<!DOCTYPE svg PUBLIC "-//W3C//DTD SVG 1.1//EN"
  "http://www.w3.org/Graphics/SVG/1.1/DTD/svg11.dtd">
<svg xmlns:xlink="http://www.w3.org/1999/xlink" width="460.8pt" height="345.6pt" viewBox="0 0 460.8 345.6" xmlns="http://www.w3.org/2000/svg" version="1.1">
 <metadata>
  <rdf:RDF xmlns:dc="http://purl.org/dc/elements/1.1/" xmlns:cc="http://creativecommons.org/ns#" xmlns:rdf="http://www.w3.org/1999/02/22-rdf-syntax-ns#">
   <cc:Work>
    <dc:type rdf:resource="http://purl.org/dc/dcmitype/StillImage"/>
    <dc:format>image/svg+xml</dc:format>
    <dc:creator>
     <cc:Agent>
      <dc:title>Matplotlib v3.8.4, https://matplotlib.org/</dc:title>
     </cc:Agent>
    </dc:creator>
   </cc:Work>
  </rdf:RDF>
 </metadata>
 <defs>
  <style type="text/css">*{stroke-linejoin: round; stroke-linecap: butt}</style>
 </defs>
 <g id="figure_1">
  <g id="patch_1">
   <path d="M 0 345.6 
L 460.8 345.6 
L 460.8 0 
L 0 0 
z
" style="fill: #ffffff"/>
  </g>
  <g id="axes_1">
   <g id="patch_2">
    <path d="M 57.6 307.584 
L 414.72 307.584 
L 414.72 41.472 
L 57.6 41.472 
z
" style="fill: #ffffff"/>
   </g>
   <g id="matplotlib.axis_1">
    <g id="xtick_1">
     <g id="line2d_1">
      <defs>
       <path id="mbcb02aef95" d="M 0 0 
L 0 3.5 
" style="stroke: #000000; stroke-width: 0.8"/>
      </defs>
      <g>
       <use xlink:href="#mbcb02aef95" x="73.832727" y="307.584" style="stroke: #000000; stroke-width: 0.8"/>
      </g>
     </g>
     <g id="text_1">
      <!-- 0.0 -->
      <g transform="translate(65.881165 322.182437) scale(0.1 -0.1)">
       <defs>
        <path id="DejaVuSans-30" d="M 2034 4250 
Q 1547 4250 1301 3770 
Q 1056 3291 1056 2328 
Q 1056 1369 1301 889 
Q 1547 409 2034 409 
Q 2525 409 2770 889 
Q 3016 1369 3016 2328 
Q 3016 3291 2770 3770 
Q 2525 4250 2034 4250 
z
M 2034 4750 
Q 2819 4750 3233 4129 
Q 3647 3509 3647 2328 
Q 3647 1150 3233 529 
Q 2819 -91 2034 -91 
Q 1250 -91 836 529 
Q 422 1150 422 2328 
Q 422 3509 836 4129 
Q 1250 4750 2034 4750 
z
" transform="scale(0.015625)"/>
        <path id="DejaVuSans-2e" d="M 684 794 
L 1344 794 
L 1344 0 
L 684 0 
L 684 794 
z
" transform="scale(0.015625)"/>
       </defs>
       <use xlink:href="#DejaVuSans-30"/>
       <use xlink:href="#DejaVuSans-2e" x="63.623047"/>
       <use xlink:href="#DejaVuSans-30" x="95.410156"/>
      </g>
     </g>
    </g>
    <g id="xtick_2">
     <g id="line2d_2">
      <g>
       <use xlink:href="#mbcb02aef95" x="138.763701" y="307.584" style="stroke: #000000; stroke-width: 0.8"/>
      </g>
     </g>
     <g id="text_2">
      <!-- 0.2 -->
      <g transform="translate(130.812139 322.182437) scale(0.1 -0.1)">
       <defs>
        <path id="DejaVuSans-32" d="M 1228 531 
L 3431 531 
L 3431 0 
L 469 0 
L 469 531 
Q 828 903 1448 1529 
Q 2069 2156 2228 2338 
Q 2531 2678 2651 2914 
Q 2772 3150 2772 3378 
Q 2772 3750 2511 3984 
Q 2250 4219 1831 4219 
Q 1534 4219 1204 4116 
Q 875 4013 500 3803 
L 500 4441 
Q 881 4594 1212 4672 
Q 1544 4750 1819 4750 
Q 2544 4750 2975 4387 
Q 3406 4025 3406 3419 
Q 3406 3131 3298 2873 
Q 3191 2616 2906 2266 
Q 2828 2175 2409 1742 
Q 1991 1309 1228 531 
z
" transform="scale(0.015625)"/>
       </defs>
       <use xlink:href="#DejaVuSans-30"/>
       <use xlink:href="#DejaVuSans-2e" x="63.623047"/>
       <use xlink:href="#DejaVuSans-32" x="95.410156"/>
      </g>
     </g>
    </g>
    <g id="xtick_3">
     <g id="line2d_3">
      <g>
       <use xlink:href="#mbcb02aef95" x="203.694675" y="307.584" style="stroke: #000000; stroke-width: 0.8"/>
      </g>
     </g>
     <g id="text_3">
      <!-- 0.4 -->
      <g transform="translate(195.743113 322.182437) scale(0.1 -0.1)">
       <defs>
        <path id="DejaVuSans-34" d="M 2419 4116 
L 825 1625 
L 2419 1625 
L 2419 4116 
z
M 2253 4666 
L 3047 4666 
L 3047 1625 
L 3713 1625 
L 3713 1100 
L 3047 1100 
L 3047 0 
L 2419 0 
L 2419 1100 
L 313 1100 
L 313 1709 
L 2253 4666 
z
" transform="scale(0.015625)"/>
       </defs>
       <use xlink:href="#DejaVuSans-30"/>
       <use xlink:href="#DejaVuSans-2e" x="63.623047"/>
       <use xlink:href="#DejaVuSans-34" x="95.410156"/>
      </g>
     </g>
    </g>
    <g id="xtick_4">
     <g id="line2d_4">
      <g>
       <use xlink:href="#mbcb02aef95" x="268.625649" y="307.584" style="stroke: #000000; stroke-width: 0.8"/>
      </g>
     </g>
     <g id="text_4">
      <!-- 0.6 -->
      <g transform="translate(260.674087 322.182437) scale(0.1 -0.1)">
       <defs>
        <path id="DejaVuSans-36" d="M 2113 2584 
Q 1688 2584 1439 2293 
Q 1191 2003 1191 1497 
Q 1191 994 1439 701 
Q 1688 409 2113 409 
Q 2538 409 2786 701 
Q 3034 994 3034 1497 
Q 3034 2003 2786 2293 
Q 2538 2584 2113 2584 
z
M 3366 4563 
L 3366 3988 
Q 3128 4100 2886 4159 
Q 2644 4219 2406 4219 
Q 1781 4219 1451 3797 
Q 1122 3375 1075 2522 
Q 1259 2794 1537 2939 
Q 1816 3084 2150 3084 
Q 2853 3084 3261 2657 
Q 3669 2231 3669 1497 
Q 3669 778 3244 343 
Q 2819 -91 2113 -91 
Q 1303 -91 875 529 
Q 447 1150 447 2328 
Q 447 3434 972 4092 
Q 1497 4750 2381 4750 
Q 2619 4750 2861 4703 
Q 3103 4656 3366 4563 
z
" transform="scale(0.015625)"/>
       </defs>
       <use xlink:href="#DejaVuSans-30"/>
       <use xlink:href="#DejaVuSans-2e" x="63.623047"/>
       <use xlink:href="#DejaVuSans-36" x="95.410156"/>
      </g>
     </g>
    </g>
    <g id="xtick_5">
     <g id="line2d_5">
      <g>
       <use xlink:href="#mbcb02aef95" x="333.556623" y="307.584" style="stroke: #000000; stroke-width: 0.8"/>
      </g>
     </g>
     <g id="text_5">
      <!-- 0.8 -->
      <g transform="translate(325.605061 322.182437) scale(0.1 -0.1)">
       <defs>
        <path id="DejaVuSans-38" d="M 2034 2216 
Q 1584 2216 1326 1975 
Q 1069 1734 1069 1313 
Q 1069 891 1326 650 
Q 1584 409 2034 409 
Q 2484 409 2743 651 
Q 3003 894 3003 1313 
Q 3003 1734 2745 1975 
Q 2488 2216 2034 2216 
z
M 1403 2484 
Q 997 2584 770 2862 
Q 544 3141 544 3541 
Q 544 4100 942 4425 
Q 1341 4750 2034 4750 
Q 2731 4750 3128 4425 
Q 3525 4100 3525 3541 
Q 3525 3141 3298 2862 
Q 3072 2584 2669 2484 
Q 3125 2378 3379 2068 
Q 3634 1759 3634 1313 
Q 3634 634 3220 271 
Q 2806 -91 2034 -91 
Q 1263 -91 848 271 
Q 434 634 434 1313 
Q 434 1759 690 2068 
Q 947 2378 1403 2484 
z
M 1172 3481 
Q 1172 3119 1398 2916 
Q 1625 2713 2034 2713 
Q 2441 2713 2670 2916 
Q 2900 3119 2900 3481 
Q 2900 3844 2670 4047 
Q 2441 4250 2034 4250 
Q 1625 4250 1398 4047 
Q 1172 3844 1172 3481 
z
" transform="scale(0.015625)"/>
       </defs>
       <use xlink:href="#DejaVuSans-30"/>
       <use xlink:href="#DejaVuSans-2e" x="63.623047"/>
       <use xlink:href="#DejaVuSans-38" x="95.410156"/>
      </g>
     </g>
    </g>
    <g id="xtick_6">
     <g id="line2d_6">
      <g>
       <use xlink:href="#mbcb02aef95" x="398.487597" y="307.584" style="stroke: #000000; stroke-width: 0.8"/>
      </g>
     </g>
     <g id="text_6">
      <!-- 1.0 -->
      <g transform="translate(390.536035 322.182437) scale(0.1 -0.1)">
       <defs>
        <path id="DejaVuSans-31" d="M 794 531 
L 1825 531 
L 1825 4091 
L 703 3866 
L 703 4441 
L 1819 4666 
L 2450 4666 
L 2450 531 
L 3481 531 
L 3481 0 
L 794 0 
L 794 531 
z
" transform="scale(0.015625)"/>
       </defs>
       <use xlink:href="#DejaVuSans-31"/>
       <use xlink:href="#DejaVuSans-2e" x="63.623047"/>
       <use xlink:href="#DejaVuSans-30" x="95.410156"/>
      </g>
     </g>
    </g>
    <g id="text_7">
     <!-- 1e6 -->
     <g transform="translate(395.841875 334.860562) scale(0.1 -0.1)">
      <defs>
       <path id="DejaVuSans-65" d="M 3597 1894 
L 3597 1613 
L 953 1613 
Q 991 1019 1311 708 
Q 1631 397 2203 397 
Q 2534 397 2845 478 
Q 3156 559 3463 722 
L 3463 178 
Q 3153 47 2828 -22 
Q 2503 -91 2169 -91 
Q 1331 -91 842 396 
Q 353 884 353 1716 
Q 353 2575 817 3079 
Q 1281 3584 2069 3584 
Q 2775 3584 3186 3129 
Q 3597 2675 3597 1894 
z
M 3022 2063 
Q 3016 2534 2758 2815 
Q 2500 3097 2075 3097 
Q 1594 3097 1305 2825 
Q 1016 2553 972 2059 
L 3022 2063 
z
" transform="scale(0.015625)"/>
      </defs>
      <use xlink:href="#DejaVuSans-31"/>
      <use xlink:href="#DejaVuSans-65" x="63.623047"/>
      <use xlink:href="#DejaVuSans-36" x="125.146484"/>
     </g>
    </g>
   </g>
   <g id="matplotlib.axis_2">
    <g id="ytick_1">
     <g id="line2d_7">
      <defs>
       <path id="me5179b328b" d="M 0 0 
L -3.5 0 
" style="stroke: #000000; stroke-width: 0.8"/>
      </defs>
      <g>
       <use xlink:href="#me5179b328b" x="57.6" y="295.488002" style="stroke: #000000; stroke-width: 0.8"/>
      </g>
     </g>
     <g id="text_8">
      <!-- −1.00 -->
      <g transform="translate(19.954687 299.28722) scale(0.1 -0.1)">
       <defs>
        <path id="DejaVuSans-2212" d="M 678 2272 
L 4684 2272 
L 4684 1741 
L 678 1741 
L 678 2272 
z
" transform="scale(0.015625)"/>
       </defs>
       <use xlink:href="#DejaVuSans-2212"/>
       <use xlink:href="#DejaVuSans-31" x="83.789062"/>
       <use xlink:href="#DejaVuSans-2e" x="147.412109"/>
       <use xlink:href="#DejaVuSans-30" x="179.199219"/>
       <use xlink:href="#DejaVuSans-30" x="242.822266"/>
      </g>
     </g>
    </g>
    <g id="ytick_2">
     <g id="line2d_8">
      <g>
       <use xlink:href="#me5179b328b" x="57.6" y="265.248001" style="stroke: #000000; stroke-width: 0.8"/>
      </g>
     </g>
     <g id="text_9">
      <!-- −0.75 -->
      <g transform="translate(19.954687 269.04722) scale(0.1 -0.1)">
       <defs>
        <path id="DejaVuSans-37" d="M 525 4666 
L 3525 4666 
L 3525 4397 
L 1831 0 
L 1172 0 
L 2766 4134 
L 525 4134 
L 525 4666 
z
" transform="scale(0.015625)"/>
        <path id="DejaVuSans-35" d="M 691 4666 
L 3169 4666 
L 3169 4134 
L 1269 4134 
L 1269 2991 
Q 1406 3038 1543 3061 
Q 1681 3084 1819 3084 
Q 2600 3084 3056 2656 
Q 3513 2228 3513 1497 
Q 3513 744 3044 326 
Q 2575 -91 1722 -91 
Q 1428 -91 1123 -41 
Q 819 9 494 109 
L 494 744 
Q 775 591 1075 516 
Q 1375 441 1709 441 
Q 2250 441 2565 725 
Q 2881 1009 2881 1497 
Q 2881 1984 2565 2268 
Q 2250 2553 1709 2553 
Q 1456 2553 1204 2497 
Q 953 2441 691 2322 
L 691 4666 
z
" transform="scale(0.015625)"/>
       </defs>
       <use xlink:href="#DejaVuSans-2212"/>
       <use xlink:href="#DejaVuSans-30" x="83.789062"/>
       <use xlink:href="#DejaVuSans-2e" x="147.412109"/>
       <use xlink:href="#DejaVuSans-37" x="179.199219"/>
       <use xlink:href="#DejaVuSans-35" x="242.822266"/>
      </g>
     </g>
    </g>
    <g id="ytick_3">
     <g id="line2d_9">
      <g>
       <use xlink:href="#me5179b328b" x="57.6" y="235.008001" style="stroke: #000000; stroke-width: 0.8"/>
      </g>
     </g>
     <g id="text_10">
      <!-- −0.50 -->
      <g transform="translate(19.954687 238.80722) scale(0.1 -0.1)">
       <use xlink:href="#DejaVuSans-2212"/>
       <use xlink:href="#DejaVuSans-30" x="83.789062"/>
       <use xlink:href="#DejaVuSans-2e" x="147.412109"/>
       <use xlink:href="#DejaVuSans-35" x="179.199219"/>
       <use xlink:href="#DejaVuSans-30" x="242.822266"/>
      </g>
     </g>
    </g>
    <g id="ytick_4">
     <g id="line2d_10">
      <g>
       <use xlink:href="#me5179b328b" x="57.6" y="204.768" style="stroke: #000000; stroke-width: 0.8"/>
      </g>
     </g>
     <g id="text_11">
      <!-- −0.25 -->
      <g transform="translate(19.954687 208.567219) scale(0.1 -0.1)">
       <use xlink:href="#DejaVuSans-2212"/>
       <use xlink:href="#DejaVuSans-30" x="83.789062"/>
       <use xlink:href="#DejaVuSans-2e" x="147.412109"/>
       <use xlink:href="#DejaVuSans-32" x="179.199219"/>
       <use xlink:href="#DejaVuSans-35" x="242.822266"/>
      </g>
     </g>
    </g>
    <g id="ytick_5">
     <g id="line2d_11">
      <g>
       <use xlink:href="#me5179b328b" x="57.6" y="174.528" style="stroke: #000000; stroke-width: 0.8"/>
      </g>
     </g>
     <g id="text_12">
      <!-- 0.00 -->
      <g transform="translate(28.334375 178.327219) scale(0.1 -0.1)">
       <use xlink:href="#DejaVuSans-30"/>
       <use xlink:href="#DejaVuSans-2e" x="63.623047"/>
       <use xlink:href="#DejaVuSans-30" x="95.410156"/>
       <use xlink:href="#DejaVuSans-30" x="159.033203"/>
      </g>
     </g>
    </g>
    <g id="ytick_6">
     <g id="line2d_12">
      <g>
       <use xlink:href="#me5179b328b" x="57.6" y="144.288" style="stroke: #000000; stroke-width: 0.8"/>
      </g>
     </g>
     <g id="text_13">
      <!-- 0.25 -->
      <g transform="translate(28.334375 148.087218) scale(0.1 -0.1)">
       <use xlink:href="#DejaVuSans-30"/>
       <use xlink:href="#DejaVuSans-2e" x="63.623047"/>
       <use xlink:href="#DejaVuSans-32" x="95.410156"/>
       <use xlink:href="#DejaVuSans-35" x="159.033203"/>
      </g>
     </g>
    </g>
    <g id="ytick_7">
     <g id="line2d_13">
      <g>
       <use xlink:href="#me5179b328b" x="57.6" y="114.047999" style="stroke: #000000; stroke-width: 0.8"/>
      </g>
     </g>
     <g id="text_14">
      <!-- 0.50 -->
      <g transform="translate(28.334375 117.847218) scale(0.1 -0.1)">
       <use xlink:href="#DejaVuSans-30"/>
       <use xlink:href="#DejaVuSans-2e" x="63.623047"/>
       <use xlink:href="#DejaVuSans-35" x="95.410156"/>
       <use xlink:href="#DejaVuSans-30" x="159.033203"/>
      </g>
     </g>
    </g>
    <g id="ytick_8">
     <g id="line2d_14">
      <g>
       <use xlink:href="#me5179b328b" x="57.6" y="83.807999" style="stroke: #000000; stroke-width: 0.8"/>
      </g>
     </g>
     <g id="text_15">
      <!-- 0.75 -->
      <g transform="translate(28.334375 87.607218) scale(0.1 -0.1)">
       <use xlink:href="#DejaVuSans-30"/>
       <use xlink:href="#DejaVuSans-2e" x="63.623047"/>
       <use xlink:href="#DejaVuSans-37" x="95.410156"/>
       <use xlink:href="#DejaVuSans-35" x="159.033203"/>
      </g>
     </g>
    </g>
    <g id="ytick_9">
     <g id="line2d_15">
      <g>
       <use xlink:href="#me5179b328b" x="57.6" y="53.567998" style="stroke: #000000; stroke-width: 0.8"/>
      </g>
     </g>
     <g id="text_16">
      <!-- 1.00 -->
      <g transform="translate(28.334375 57.367217) scale(0.1 -0.1)">
       <use xlink:href="#DejaVuSans-31"/>
       <use xlink:href="#DejaVuSans-2e" x="63.623047"/>
       <use xlink:href="#DejaVuSans-30" x="95.410156"/>
       <use xlink:href="#DejaVuSans-30" x="159.033203"/>
      </g>
     </g>
    </g>
   </g>
   <g id="line2d_16">
    <path d="M 73.832727 174.528 
L 154.996769 174.432998 
L 155.570435 66.129193 
L 155.802238 53.575519 
L 155.808731 53.56812 
L 155.838924 53.784567 
L 155.92236 56.518576 
L 156.085987 70.655375 
L 156.366813 117.675772 
L 157.326168 292.994131 
L 157.431356 295.488 
L 157.479081 294.970612 
L 157.58297 290.312371 
L 157.774192 269.812878 
L 158.109236 205.472958 
L 158.850098 62.913831 
L 159.054631 53.568 
L 159.06437 53.589864 
L 159.112095 54.317473 
L 159.226373 60.194872 
L 159.43188 84.413631 
L 159.802311 159.613897 
L 160.447075 283.626071 
L 160.675308 295.486574 
L 160.679853 295.487064 
L 160.701929 295.35633 
L 160.775626 293.327375 
L 160.925941 281.807515 
L 161.184691 241.807543 
L 162.261247 53.927451 
L 162.301179 53.568 
L 162.355072 54.227504 
L 162.465779 59.660215 
L 162.666091 82.51345 
L 163.023212 153.677157 
L 163.700767 284.338047 
L 163.924454 295.488 
L 163.925428 295.487745 
L 163.949127 295.349108 
L 164.023798 293.255139 
L 164.175412 281.48946 
L 164.436434 240.79296 
L 165.500653 54.067705 
L 165.547728 53.568 
L 165.602595 54.251575 
L 165.714276 59.804166 
L 165.915887 83.009086 
L 166.276578 155.251817 
L 166.945367 284.146358 
L 167.171002 295.488 
L 167.193079 295.376678 
L 167.263854 293.536334 
L 167.410273 282.739314 
L 167.662855 244.683172 
L 168.775447 53.647503 
L 168.794601 53.568038 
L 168.840053 54.044348 
L 168.941995 58.483747 
L 169.130295 78.269885 
L 169.45917 140.656785 
L 170.220486 286.805229 
L 170.417551 295.487999 
L 170.430862 295.447283 
L 170.486053 294.423557 
L 170.611045 287.097033 
L 170.831486 258.689305 
L 171.250291 169.566495 
L 171.803827 66.060146 
L 172.035306 53.574655 
L 172.041799 53.568259 
L 172.071018 53.775793 
L 172.153805 56.453037 
L 172.316457 70.385701 
L 172.595661 116.875732 
L 173.563132 293.190508 
L 173.6641 295.487999 
L 173.712798 294.948974 
L 173.817986 290.156179 
L 174.010831 269.246 
L 174.349771 203.702482 
L 175.078946 63.267031 
L 175.287374 53.568001 
L 175.295491 53.583296 
L 175.339319 54.181111 
L 175.447754 59.355374 
L 175.645144 81.438898 
L 175.994797 150.320047 
L 176.69248 284.874838 
L 176.910649 295.487999 
L 176.91422 295.484943 
L 176.945711 295.207973 
L 177.034667 292.014789 
L 177.20576 276.27668 
L 177.499897 224.974414 
L 178.396269 57.82866 
L 178.533923 53.568001 
L 178.571258 53.885401 
L 178.663136 57.336546 
L 178.8378 73.903783 
L 179.13908 127.490056 
L 180.004609 290.259122 
L 180.157197 295.487999 
L 180.189013 295.257229 
L 180.273748 292.418218 
L 180.438998 277.927383 
L 180.722746 229.961498 
L 181.667492 56.442569 
L 181.780472 53.568001 
L 181.825923 54.037901 
L 181.927216 58.420466 
L 182.114866 78.042069 
L 182.442443 140.003594 
L 183.208304 286.947174 
L 183.403746 295.487999 
L 183.417706 295.443161 
L 183.474196 294.361928 
L 183.601136 286.758939 
L 183.824499 257.53344 
L 184.254017 165.46648 
L 184.791646 65.891158 
L 185.022475 53.572452 
L 185.027994 53.568265 
L 185.055265 53.7501 
L 185.13513 56.211415 
L 185.293887 69.358438 
L 185.566597 113.763719 
L 186.567508 293.942955 
L 186.650295 295.487999 
L 186.702889 294.859238 
L 186.811973 289.606534 
L 187.010337 267.274783 
L 187.362263 197.689925 
L 188.053453 64.367634 
L 188.273569 53.568001 
L 188.276166 53.569664 
L 188.304411 53.785022 
L 188.387848 56.520244 
L 188.551474 70.65927 
L 188.8323 117.68248 
L 189.791655 292.995667 
L 189.896843 295.487998 
L 189.944568 294.96991 
L 190.048457 290.310171 
L 190.239679 269.808197 
L 190.575047 205.392131 
L 191.31526 62.940213 
L 191.520118 53.568002 
L 191.529857 53.590009 
L 191.577582 54.318318 
L 191.69186 60.197353 
L 191.897367 84.418701 
L 192.268123 159.696864 
L 192.912562 283.629353 
L 193.140795 295.486611 
L 193.14534 295.487033 
L 193.167416 295.355975 
L 193.241113 293.325944 
L 193.391428 281.804004 
L 193.650178 241.801227 
L 194.726734 53.926865 
L 194.766666 53.568002 
L 194.820559 54.228296 
L 194.931266 59.662597 
L 195.131578 82.518383 
L 195.488699 153.684643 
L 196.166254 284.341234 
L 196.389941 295.487998 
L 196.390915 295.487729 
L 196.414615 295.348744 
L 196.489285 293.253686 
L 196.640899 281.48591 
L 196.901921 240.786602 
L 197.96614 54.067015 
L 198.013215 53.568002 
L 198.068082 54.252382 
L 198.179763 59.806576 
L 198.381374 83.014056 
L 198.742065 155.25932 
L 199.41053 284.117422 
L 199.636165 295.487993 
L 199.658241 295.379592 
L 199.728691 293.562085 
L 199.874461 282.871441 
L 200.126069 245.10971 
L 201.24418 53.62211 
L 201.260088 53.568045 
L 201.302943 53.992599 
L 201.401963 58.127853 
L 201.586367 76.955706 
L 201.906801 136.67217 
L 202.697336 287.770311 
L 202.883038 295.487998 
L 202.901219 295.412066 
L 202.9655 293.946041 
L 203.103154 284.66481 
L 203.3421 250.784461 
L 203.859925 136.470476 
L 204.302105 62.880466 
L 204.506312 53.568002 
L 204.516377 53.591543 
L 204.565075 54.352852 
L 204.680652 60.398326 
L 204.887782 85.082872 
L 205.263408 161.814058 
L 205.896809 283.432989 
L 206.126016 295.485323 
L 206.130885 295.487538 
L 206.155559 295.333663 
L 206.232178 293.10549 
L 206.386389 280.839088 
L 206.651632 238.801094 
L 207.692151 54.398308 
L 207.752861 53.568003 
L 207.808053 54.260723 
L 207.920058 59.855577 
L 208.122318 83.214635 
L 208.484309 155.862061 
L 209.149526 284.053963 
L 209.375486 295.487942 
L 209.389771 295.445044 
L 209.397887 295.379496 
L 209.468338 293.561679 
L 209.614108 282.870427 
L 209.865715 245.107858 
L 210.983502 53.624337 
L 210.999735 53.568047 
L 211.042589 53.99279 
L 211.141609 58.128473 
L 211.326013 76.957054 
L 211.646447 136.674336 
L 212.436982 287.771112 
L 212.622684 295.487997 
L 212.640865 295.411985 
L 212.705147 293.945678 
L 212.8428 284.663867 
L 213.081746 250.782691 
L 213.599571 136.468311 
L 214.041751 62.879588 
L 214.245959 53.568003 
L 214.256023 53.591588 
L 214.304721 54.353112 
L 214.420298 60.399081 
L 214.627428 85.084407 
L 215.003054 161.816326 
L 215.636455 283.433982 
L 215.865662 295.485338 
L 215.870532 295.487531 
L 215.895205 295.333548 
L 215.971824 293.105039 
L 216.12636 280.801724 
L 216.391927 238.670342 
L 217.431148 54.415913 
L 217.492507 53.568003 
L 217.547699 54.260966 
L 217.659705 59.856303 
L 217.861965 83.216131 
L 218.223955 155.864314 
L 218.889173 284.05493 
L 219.115132 295.487944 
L 219.129742 295.442933 
L 219.137534 295.379399 
L 219.207984 293.561274 
L 219.353754 282.869413 
L 219.605361 245.106006 
L 220.723148 53.624268 
L 220.739381 53.568049 
L 220.782235 53.992981 
L 220.881255 58.129093 
L 221.065659 76.958401 
L 221.386093 136.676501 
L 222.176628 287.771913 
L 222.36233 295.487997 
L 222.380511 295.411904 
L 222.444793 293.945315 
L 222.582446 284.662925 
L 222.821392 250.780921 
L 223.339217 136.466147 
L 223.781397 62.878711 
L 223.985605 53.568004 
L 223.995669 53.591633 
L 224.044367 54.353371 
L 224.159944 60.399836 
L 224.367074 85.085942 
L 224.7427 161.818593 
L 225.376102 283.434974 
L 225.605308 295.485353 
L 225.610178 295.487525 
L 225.634851 295.333433 
L 225.71147 293.104589 
L 225.866006 280.800635 
L 226.131573 238.668409 
L 227.170794 54.415643 
L 227.232153 53.568004 
L 227.287345 54.26121 
L 227.399351 59.857028 
L 227.601611 83.217626 
L 227.963601 155.866567 
L 228.628819 284.055898 
L 228.854778 295.487946 
L 228.870037 295.438623 
L 228.87718 295.379303 
L 228.94763 293.560869 
L 229.0934 282.868399 
L 229.345007 245.104155 
L 230.462794 53.624198 
L 230.478702 53.568004 
L 230.521881 53.993172 
L 230.620901 58.129713 
L 230.805305 76.959749 
L 231.125739 136.678667 
L 231.916274 287.772715 
L 232.101976 295.487996 
L 232.120157 295.411823 
L 232.184763 293.932828 
L 232.322742 284.59904 
L 232.562337 250.542916 
L 233.084707 135.167918 
L 233.523315 62.67424 
L 233.725251 53.568004 
L 233.736289 53.596404 
L 233.786935 54.433384 
L 233.905434 60.861155 
L 234.116785 86.690532 
L 234.504422 166.970398 
L 235.112501 283.103107 
L 235.343655 295.48298 
L 235.349499 295.487709 
L 235.377095 295.301053 
L 235.457609 292.794497 
L 235.617015 279.503464 
L 235.891023 234.689651 
L 236.885441 55.247135 
L 236.9718 53.568005 
L 237.023744 54.182564 
L 237.132179 59.359788 
L 237.329569 81.44812 
L 237.679547 150.408665 
L 238.376581 284.849608 
L 238.595074 295.487995 
L 238.59832 295.485365 
L 238.628838 295.227319 
L 238.71617 292.172289 
L 238.884991 276.921418 
L 239.175232 226.887632 
L 240.089785 57.283368 
L 240.218348 53.568005 
L 240.25893 53.943941 
L 240.354703 57.76561 
L 240.534887 75.587054 
L 240.84688 132.591414 
L 241.669555 288.855669 
L 241.841623 295.487995 
L 241.865647 295.355442 
L 241.939668 293.309462 
L 242.090308 281.728411 
L 242.349707 241.538872 
L 243.423016 53.961903 
L 243.464897 53.568005 
L 243.519114 54.237448 
L 243.630146 59.713915 
L 243.831108 82.723441 
L 244.189527 154.295061 
L 244.86351 284.250236 
L 245.088171 295.487995 
L 245.088496 295.487946 
L 245.111222 295.365865 
L 245.18362 293.422696 
L 245.332312 282.21678 
L 245.588464 243.049119 
L 246.680279 53.785546 
L 246.711446 53.568005 
L 246.763066 54.175164 
L 246.871176 59.314101 
L 247.068241 81.304126 
L 247.417245 149.964219 
L 248.116877 284.912786 
L 248.33472 295.487995 
L 248.338291 295.484823 
L 248.369783 295.206835 
L 248.459063 291.992695 
L 248.630156 276.226509 
L 248.924618 224.821015 
L 249.819691 57.864322 
L 249.957994 53.568006 
L 249.995005 53.881124 
L 250.086558 57.303114 
L 250.260897 73.786683 
L 250.561528 127.155576 
L 251.429979 290.351995 
L 251.581269 295.487994 
L 251.613409 295.251469 
L 251.698794 292.363193 
L 251.865017 277.681286 
L 252.150389 229.202208 
L 253.087667 56.639824 
L 253.204543 53.568006 
L 253.248696 54.012942 
L 253.34869 58.256057 
L 253.534392 77.41407 
L 253.857749 138.057918 
L 254.637894 287.423637 
L 254.827817 295.487994 
L 254.84405 295.426977 
L 254.905085 294.131734 
L 255.038194 285.583076 
L 255.270647 253.686955 
L 255.743344 150.329355 
L 256.227729 64.677034 
L 256.451092 53.568006 
L 256.452066 53.568302 
L 256.47609 53.71161 
L 256.55141 55.848863 
L 256.703998 67.790433 
L 256.966319 108.918363 
L 258.022746 294.889173 
L 258.074366 295.487994 
L 258.129557 294.794018 
L 258.241563 289.196674 
L 258.443823 265.833638 
L 258.805813 193.1823 
L 259.471031 64.997038 
L 259.696991 53.568047 
L 259.713548 53.626669 
L 259.719392 53.677004 
L 259.789842 55.496415 
L 259.935937 66.224637 
L 260.187869 104.081218 
L 261.304033 295.424871 
L 261.320915 295.487994 
L 261.365068 295.042895 
L 261.465062 290.799419 
L 261.650764 271.640797 
L 261.97412 210.99627 
L 262.754266 61.631681 
L 262.943864 53.568003 
L 262.960422 53.629084 
L 263.021457 54.924549 
L 263.154565 63.473677 
L 263.387018 95.370481 
L 263.859716 198.728507 
L 264.344101 284.379762 
L 264.567139 295.487997 
L 264.568437 295.487694 
L 264.592462 295.344297 
L 264.667782 293.20677 
L 264.82037 281.264673 
L 265.082691 240.136041 
L 266.139118 54.166638 
L 266.190738 53.568007 
L 266.245929 54.262185 
L 266.357935 59.859931 
L 266.560195 83.223608 
L 266.922185 155.875578 
L 267.587403 284.059768 
L 267.813363 295.487955 
L 267.83057 295.42444 
L 267.835764 295.378916 
L 267.906214 293.559247 
L 268.052309 282.830517 
L 268.304241 244.973238 
L 269.420404 53.631068 
L 269.437287 53.568007 
L 269.48144 54.013268 
L 269.581433 58.257105 
L 269.767136 77.416335 
L 270.090492 138.061541 
L 270.870638 287.425001 
L 271.060236 295.487998 
L 271.076794 295.426856 
L 271.137829 294.131167 
L 271.270937 285.58157 
L 271.50339 253.684082 
L 271.976088 150.325631 
L 272.460473 64.675443 
L 272.683511 53.568002 
L 272.684809 53.56831 
L 272.708834 53.711795 
L 272.784154 55.849597 
L 272.936741 67.79222 
L 273.199062 108.921555 
L 274.255489 294.889551 
L 274.30711 295.487992 
L 274.362301 294.793611 
L 274.474307 289.195464 
L 274.676567 265.831146 
L 275.038557 193.178545 
L 275.703775 64.995426 
L 275.929735 53.568044 
L 275.947266 53.63411 
L 275.952136 53.677165 
L 276.022586 55.497091 
L 276.168681 66.226329 
L 276.420613 104.084307 
L 277.536776 295.424993 
L 277.553658 295.487992 
L 277.597487 295.049062 
L 277.697156 290.840194 
L 277.882534 271.774297 
L 278.205241 211.354795 
L 278.987983 61.54867 
L 279.176608 53.568002 
L 279.193815 53.634135 
L 279.256148 54.994084 
L 279.39088 63.809196 
L 279.625606 96.412842 
L 280.112588 203.329491 
L 280.582688 284.946946 
L 280.799882 295.487998 
L 280.804103 295.484188 
L 280.836893 295.179803 
L 280.928121 291.788504 
L 281.102136 275.391354 
L 281.401792 222.313037 
L 282.27414 58.571305 
L 282.423157 53.568002 
L 282.456596 53.819463 
L 282.543279 56.815752 
L 282.711126 71.857766 
L 282.999744 121.356934 
L 283.922088 291.99605 
L 284.046431 295.487999 
L 284.088636 295.086894 
L 284.186033 291.107156 
L 284.368489 272.758431 
L 284.684702 214.38071 
L 285.490496 60.779634 
L 285.669705 53.568001 
L 285.690808 53.667788 
L 285.759635 55.390835 
L 285.903457 65.724421 
L 286.151818 102.489243 
L 287.288759 295.483751 
L 287.294278 295.487682 
L 287.321225 295.308744 
L 287.400765 292.871145 
L 287.559197 279.798221 
L 287.831257 235.599896 
L 288.83574 55.037519 
L 288.916579 53.568009 
L 288.969497 54.20698 
L 289.079231 59.527322 
L 289.278244 82.041043 
L 289.632118 152.210697 
L 290.318438 284.572395 
L 290.539528 295.487999 
L 290.541801 295.48694 
L 290.568423 295.300334 
L 290.648937 292.791785 
L 290.808667 279.459257 
L 291.082676 234.612492 
L 292.07612 55.270307 
L 292.163127 53.568009 
L 292.215072 54.183865 
L 292.323832 59.387005 
L 292.521546 81.553532 
L 292.872174 150.71931 
L 293.56726 284.7925 
L 293.786077 295.487999 
L 293.789324 295.485765 
L 293.819192 295.241242 
L 293.90555 292.274532 
L 294.072747 277.357243 
L 294.360067 228.242128 
L 295.287931 56.898041 
L 295.409351 53.568001 
L 295.452206 53.981789 
L 295.550576 58.05148 
L 295.734006 76.655166 
L 296.052493 135.755934 
L 296.85017 288.016542 
L 297.032626 295.487999 
L 297.05243 295.400075 
L 297.119309 293.793815 
L 297.260209 283.953601 
L 297.504349 248.503653 
L 298.079313 121.402335 
L 298.479937 60.522365 
L 298.6559 53.568001 
L 298.678301 53.680647 
L 298.749401 55.538817 
L 298.896145 66.398488 
L 299.149376 104.645822 
L 300.258397 295.38929 
L 300.279499 295.48799 
L 300.326574 294.981509 
L 300.429814 290.390379 
L 300.620062 270.119192 
L 300.953158 206.394797 
L 301.700514 62.697109 
L 301.902449 53.568001 
L 301.913487 53.595118 
L 301.963809 54.417216 
L 302.081658 60.76297 
L 302.292035 86.33654 
L 302.677075 165.848875 
L 303.290348 283.143611 
L 303.521178 295.483124 
L 303.527022 295.487673 
L 303.554618 295.300165 
L 303.635132 292.791147 
L 303.794862 279.457745 
L 304.069195 234.543878 
L 305.06199 55.282527 
L 305.148998 53.568 
L 305.200942 54.176534 
L 305.309377 59.341445 
L 305.506443 81.361297 
L 305.855771 150.126473 
L 306.554429 284.887287 
L 306.772272 295.488 
L 306.776168 295.484723 
L 306.807984 295.200691 
L 306.897589 291.953043 
L 307.069331 276.054162 
L 307.365092 224.254946 
L 308.254971 58.022722 
L 308.395546 53.568 
L 308.431908 53.865902 
L 308.522486 57.194826 
L 308.695527 73.375506 
L 308.993561 125.91241 
L 309.873375 290.721677 
L 310.018821 295.488 
L 310.053559 295.216131 
L 310.141865 292.079404 
L 310.311984 276.546647 
L 310.604498 225.773665 
L 311.508337 57.603531 
L 311.642095 53.568 
L 311.681054 53.910129 
L 311.774554 57.51572 
L 311.951491 74.601251 
L 312.256991 129.557245 
L 313.104665 289.67854 
L 313.265369 295.488 
L 313.294264 295.300038 
L 313.374778 292.790668 
L 313.534508 279.456611 
L 313.808842 234.541899 
L 314.801636 55.282144 
L 314.888644 53.568 
L 314.940588 54.176762 
L 315.049023 59.342141 
L 315.246413 81.411242 
L 315.596067 150.277604 
L 316.29375 284.857086 
L 316.511918 295.488 
L 316.515489 295.485244 
L 316.546331 295.221099 
L 316.634313 292.114785 
L 316.803783 276.708845 
L 317.095323 226.253701 
L 317.45082 174.528 
L 398.487273 174.528 
L 398.487273 174.528 
" clip-path="url(#p0f834e2270)" style="fill: none; stroke: #1f77b4; stroke-width: 1.5; stroke-linecap: square"/>
   </g>
   <g id="line2d_17">
    <path d="M 73.832727 174.528 
L 77.501327 174.416922 
L 78.197063 174.34914 
L 78.729172 174.541977 
L 79.63853 174.898396 
L 80.021623 174.76862 
L 80.559252 174.304585 
L 81.111489 173.929662 
L 81.423807 173.974 
L 81.759176 174.272789 
L 82.854237 175.432487 
L 83.106169 175.290308 
L 83.432772 174.805791 
L 84.371024 173.274869 
L 84.59114 173.325319 
L 84.836255 173.65254 
L 85.230061 174.625555 
L 85.865411 176.099382 
L 86.101759 176.19669 
L 86.292981 176.017248 
L 86.562445 175.397647 
L 87.694192 172.381121 
L 87.86074 172.528979 
L 88.094491 173.101231 
L 88.504855 174.821048 
L 89.083065 177.001681 
L 89.310973 177.204885 
L 89.460963 177.055717 
L 89.678158 176.450412 
L 90.04729 174.631809 
L 90.710235 171.495494 
L 90.930676 171.264523 
L 91.067356 171.418158 
L 91.272213 172.065757 
L 91.616347 174.032773 
L 92.346821 178.200723 
L 92.554924 178.433078 
L 92.556223 178.432561 
L 92.683812 178.260347 
L 92.88315 177.527076 
L 93.218844 175.28239 
L 93.973666 170.180932 
L 94.169108 169.921739 
L 94.177874 169.925382 
L 94.297347 170.108208 
L 94.489867 170.90743 
L 94.813224 173.377194 
L 95.608953 179.63257 
L 95.786539 179.889626 
L 95.80407 179.880973 
L 95.919323 179.66954 
L 96.110869 178.745719 
L 96.434225 175.884872 
L 97.228007 168.662968 
L 97.403969 168.356515 
L 97.423449 168.366137 
L 97.532208 168.581827 
L 97.716937 169.557326 
L 98.027956 172.617881 
L 98.868163 181.285732 
L 99.024322 181.5622 
L 99.051918 181.544755 
L 99.161002 181.278754 
L 99.349626 180.10433 
L 99.669736 176.445651 
L 100.472932 166.968507 
L 100.643376 166.577957 
L 100.666102 166.590553 
L 100.766095 166.829264 
L 100.942708 167.958729 
L 101.240091 171.566455 
L 102.136464 183.200046 
L 102.265676 183.445012 
L 102.303661 183.411443 
L 102.414043 183.040238 
L 102.607862 181.446798 
L 102.940634 176.520283 
L 103.696755 165.210105 
L 103.88473 164.592409 
L 103.900963 164.599866 
L 103.987646 164.806155 
L 104.146726 165.898682 
L 104.414891 169.566718 
L 105.45541 185.485436 
L 105.515471 185.528521 
L 105.56417 185.45414 
L 105.685915 184.84236 
L 105.897915 182.415733 
L 106.277436 174.991057 
L 106.904994 163.484826 
L 107.127707 162.407621 
L 107.129006 162.407801 
L 107.199456 162.532653 
L 107.331591 163.369683 
L 107.558849 166.501999 
L 107.991289 176.244843 
L 108.524697 186.60217 
L 108.749683 187.812862 
L 108.750008 187.812829 
L 108.816887 187.693905 
L 108.944476 186.854008 
L 109.165566 183.634425 
L 109.574956 173.715163 
L 110.144076 161.390831 
L 110.37101 160.032043 
L 110.434967 160.145584 
L 110.558011 160.984799 
L 110.772932 164.276713 
L 111.162843 174.377199 
L 111.768 188.819991 
L 111.993959 190.280342 
L 112.055319 190.165522 
L 112.176091 189.294584 
L 112.387766 185.840274 
L 112.76891 175.236426 
L 113.392248 159.034806 
L 113.616909 157.475134 
L 113.617558 157.4752 
L 113.676646 157.594075 
L 113.795794 158.507786 
L 114.005521 162.164601 
L 114.381471 173.39664 
L 115.016172 191.259095 
L 115.239209 192.924297 
L 115.240833 192.924113 
L 115.297972 192.801771 
L 115.415497 191.847342 
L 115.623276 187.991102 
L 115.994032 176.139651 
L 116.640744 156.509127 
L 116.861834 154.746757 
L 116.864107 154.747066 
L 116.919623 154.873645 
L 117.035849 155.873434 
L 117.242005 159.94245 
L 117.608541 172.453004 
L 118.264993 193.869041 
L 118.484784 195.73434 
L 118.487706 195.733802 
L 118.541923 195.600624 
L 118.657501 194.542463 
L 118.863007 190.217341 
L 119.227919 176.913162 
L 119.888267 153.844206 
L 120.107409 151.85778 
L 120.110656 151.858408 
L 120.16325 151.993429 
L 120.277204 153.086522 
L 120.480438 157.592785 
L 120.839831 171.472792 
L 121.514139 196.638172 
L 121.730359 198.699398 
L 121.734904 198.698154 
L 121.787173 198.549259 
L 121.902101 197.358217 
L 122.106959 192.471572 
L 122.470572 177.425975 
L 123.134167 151.069633 
L 123.352984 148.819567 
L 123.356555 148.820352 
L 123.406552 148.960424 
L 123.517909 150.131949 
L 123.717896 155.043859 
L 124.069497 170.220013 
L 124.764583 199.578701 
L 124.975934 201.807769 
L 124.982751 201.805014 
L 125.035021 201.625967 
L 125.151897 200.224036 
L 125.359351 194.546798 
L 125.730756 177.057566 
L 126.375521 148.275655 
L 126.598559 145.644113 
L 126.600182 145.644298 
L 126.645958 145.76701 
L 126.750497 146.892865 
L 126.94107 151.820615 
L 127.271568 167.214896 
L 128.031261 203.014672 
L 128.221833 205.047163 
L 128.238066 205.03102 
L 128.303321 204.662179 
L 128.440326 202.33061 
L 128.676999 193.809306 
L 129.163981 166.101683 
L 129.633108 144.982277 
L 129.844458 142.34396 
L 129.851276 142.346962 
L 129.900623 142.535862 
L 130.013928 144.071449 
L 130.216837 150.423358 
L 130.576555 170.032556 
L 131.249564 205.456183 
L 131.467408 208.40483 
L 131.471304 208.40376 
L 131.515781 208.254942 
L 131.620969 206.910206 
L 131.812841 201.048528 
L 132.146261 182.769788 
L 132.895565 141.418687 
L 133.090357 138.932122 
L 133.104642 138.946068 
L 133.165028 139.305619 
L 133.295864 141.72781 
L 133.523447 150.835436 
L 133.964328 179.498333 
L 134.486049 208.331663 
L 134.712982 211.867484 
L 134.752915 211.757038 
L 134.848039 210.599234 
L 135.026274 205.17747 
L 135.332099 187.8492 
L 136.183344 137.116602 
L 136.336581 135.422076 
L 136.368073 135.496506 
L 136.453457 136.427232 
L 136.618707 141.15483 
L 136.900832 156.762911 
L 137.859537 214.663813 
L 137.959531 215.421471 
L 138.008554 215.235063 
L 138.114392 213.585743 
L 138.307237 206.433055 
L 138.643579 184.12026 
L 139.383467 134.939494 
L 139.582481 131.827649 
L 139.594818 131.840249 
L 139.650983 132.205268 
L 139.775975 134.80428 
L 139.995442 144.86369 
L 140.405481 176.095765 
L 140.973302 214.655005 
L 141.202509 219.052123 
L 141.219066 219.037004 
L 141.240818 218.94762 
L 141.330747 217.744115 
L 141.502165 211.86692 
L 141.795328 192.7842 
L 142.700791 129.566689 
L 142.828705 128.163055 
L 142.869287 128.308471 
L 142.965709 129.795342 
L 143.145893 136.691547 
L 143.455613 158.640644 
L 144.289976 220.417321 
L 144.451655 222.747058 
L 144.4799 222.673868 
L 144.560414 221.676438 
L 144.719495 216.373939 
L 144.991231 198.534539 
L 146.002206 124.931871 
L 146.074929 124.442744 
L 146.128822 124.719464 
L 146.239854 126.992356 
L 146.439841 136.518658 
L 146.79339 166.032922 
L 147.481983 222.044441 
L 147.697879 226.489736 
L 147.702424 226.487469 
L 147.742356 226.294669 
L 147.842999 224.440791 
L 148.029027 216.10838 
L 148.351084 189.833371 
L 149.139022 123.967099 
L 149.320828 120.681377 
L 149.340957 120.722866 
L 149.409459 121.475492 
L 149.552307 126.020786 
L 149.798071 142.224628 
L 150.379853 200.463256 
L 150.774958 227.323943 
L 150.943778 230.266056 
L 150.969426 230.197325 
L 151.046044 229.17596 
L 151.199931 223.530279 
L 151.463226 204.203519 
L 152.519328 117.137517 
L 152.567377 116.893859 
L 152.622244 117.22479 
L 152.73425 119.898818 
L 152.93586 131.048284 
L 153.29363 165.568982 
L 153.97086 228.801945 
L 154.190002 234.061093 
L 154.193249 234.059899 
L 154.228636 233.894411 
L 154.322137 232.12055 
L 154.498749 223.700329 
L 154.801977 196.664429 
L 155.662637 115.676429 
L 155.813276 113.095049 
L 155.845742 113.217771 
L 155.931775 114.711416 
L 156.098323 122.254915 
L 156.383046 147.075316 
L 157.326817 236.447705 
L 157.436226 237.85988 
L 157.482652 237.603946 
L 157.585243 235.238165 
L 157.773867 224.754847 
L 158.101769 191.823758 
L 158.868279 113.698618 
L 159.0595 109.30001 
L 159.075409 109.33163 
L 159.136444 110.026033 
L 159.269228 114.622922 
L 159.500382 131.775357 
L 159.960742 186.590472 
L 160.458438 235.453054 
L 160.68245 241.647424 
L 160.683424 241.647304 
L 160.713617 241.525259 
L 160.797703 239.98202 
L 160.961653 232.052089 
L 161.242155 205.740493 
L 162.207029 106.773677 
L 162.305725 105.523698 
L 162.355072 105.840299 
L 162.46091 108.624355 
L 162.654079 120.694176 
L 162.992045 158.372821 
L 163.72544 240.00561 
L 163.928674 245.408777 
L 163.939388 245.393628 
L 163.990034 244.909695 
L 164.107884 241.180801 
L 164.317935 226.148367 
L 164.69908 179.651807 
L 165.321119 108.897584 
L 165.549676 101.781652 
L 165.558442 101.786947 
L 165.580194 101.890541 
L 165.660383 103.382225 
L 165.81914 111.327812 
L 166.090876 138.10923 
L 167.100228 248.350199 
L 167.175223 249.129086 
L 167.229116 248.719768 
L 167.339823 245.358038 
L 167.53981 231.225348 
L 167.894333 187.341419 
L 168.580005 104.78365 
L 168.798173 98.086731 
L 168.801744 98.088606 
L 168.835508 98.286808 
L 168.927385 100.46955 
L 169.101725 110.946504 
L 169.401381 144.80359 
L 170.276651 249.751866 
L 170.421447 252.79369 
L 170.456185 252.615003 
L 170.544816 250.564195 
L 170.714935 240.454114 
L 171.0068 207.443234 
L 171.916807 96.882536 
L 172.044397 94.455429 
L 172.085303 94.706078 
L 172.181401 97.256682 
L 172.361584 109.116781 
L 172.672279 146.944589 
L 173.501448 252.199365 
L 173.667671 256.388113 
L 173.694293 256.27863 
L 173.771885 254.723828 
L 173.927395 246.230336 
L 174.193937 217.278101 
L 175.230884 91.461409 
L 175.290945 90.901446 
L 175.346137 91.382142 
L 175.458143 95.259628 
L 175.660078 111.439394 
L 176.019471 161.601211 
L 176.691831 252.149136 
L 176.913895 259.898169 
L 176.915843 259.897554 
L 176.944737 259.74594 
L 177.028174 257.816003 
L 177.191475 247.84267 
L 177.471003 214.690509 
L 178.439124 88.996791 
L 178.537169 87.438787 
L 178.586517 87.837937 
L 178.692354 91.348888 
L 178.885849 106.595454 
L 179.224788 154.207237 
L 179.954613 256.384911 
L 180.160119 263.310004 
L 180.169534 263.295521 
L 180.216609 262.781206 
L 180.329589 258.575268 
L 180.532823 241.141903 
L 180.896112 187.070499 
L 181.559057 92.457417 
L 181.783393 84.081133 
L 181.784043 84.081211 
L 181.810015 84.20145 
L 181.887608 85.917177 
L 182.043117 95.294019 
L 182.309659 127.250343 
L 183.345957 265.978376 
L 183.406668 266.610155 
L 183.461859 266.082475 
L 183.573865 261.817205 
L 183.7758 244.017222 
L 184.135518 188.79636 
L 184.807229 89.379542 
L 185.029618 80.841736 
L 185.031241 80.842153 
L 185.058512 80.98742 
L 185.139026 82.932888 
L 185.298432 93.253835 
L 185.571467 127.968559 
L 186.572377 268.632741 
L 186.652892 269.785604 
L 186.706135 269.279599 
L 186.815869 265.079253 
L 187.014557 247.329486 
L 187.366483 192.129036 
L 188.058647 86.163339 
L 188.276166 77.733378 
L 188.280062 77.736314 
L 188.313502 77.987795 
L 188.405379 80.752991 
L 188.580043 94.042135 
L 188.880349 136.951502 
L 189.751723 268.84997 
L 189.899116 272.823809 
L 189.933205 272.611065 
L 190.020861 270.109716 
L 190.189682 257.668029 
L 190.479274 216.922039 
L 191.398047 77.640702 
L 191.52239 74.768321 
L 191.564271 75.096072 
L 191.661343 78.357538 
L 191.843149 93.418547 
L 192.157415 141.338624 
L 192.971974 270.061721 
L 193.145665 275.712785 
L 193.16904 275.608285 
L 193.241762 273.962861 
L 193.390779 264.513467 
L 193.646932 231.573411 
L 194.740369 72.112762 
L 194.768939 71.958281 
L 194.819585 72.454778 
L 194.926721 76.72011 
L 195.122163 95.077557 
L 195.466298 152.365931 
L 196.180538 269.875846 
L 196.391889 278.441132 
L 196.398706 278.432145 
L 196.439288 278.004481 
L 196.542853 274.034956 
L 196.733101 256.558056 
L 197.065548 201.687814 
L 197.815825 77.034553 
L 198.015163 69.314324 
L 198.0275 69.344672 
L 198.081068 70.17125 
L 198.203463 76.236117 
L 198.420008 100.064392 
L 198.823554 174.287585 
L 199.402413 270.108811 
L 199.633568 280.99367 
L 199.639736 280.99765 
L 199.667656 280.825897 
L 199.749145 278.554799 
L 199.909849 266.607693 
L 200.185481 226.525838 
L 201.172756 68.428909 
L 201.261387 66.846904 
L 201.313007 67.382654 
L 201.421117 71.95122 
L 201.617858 91.504575 
L 201.965239 152.481104 
L 202.670065 274.130685 
L 202.884661 283.373535 
L 202.889856 283.367974 
L 202.926217 283.02114 
L 203.022964 279.493543 
L 203.204122 263.192353 
L 203.517738 211.198734 
L 204.334895 70.662395 
L 204.507936 64.565757 
L 204.531636 64.682595 
L 204.605008 66.506229 
L 204.754673 76.891374 
L 205.012125 113.012872 
L 206.097446 285.324121 
L 206.13121 285.558118 
L 206.183804 284.978689 
L 206.293213 280.127776 
L 206.491577 259.565524 
L 206.843178 195.527329 
L 207.535992 72.315231 
L 207.75416 62.479876 
L 207.757731 62.482515 
L 207.788898 62.732692 
L 207.877204 65.64221 
L 208.047323 80.052733 
L 208.339513 127.143357 
L 209.246274 283.926594 
L 209.377434 287.543232 
L 209.417042 287.210216 
L 209.511517 283.753858 
L 209.689752 267.488732 
L 209.997525 215.306107 
L 210.837407 66.227169 
L 211.000709 60.597507 
L 211.028304 60.761769 
L 211.10752 63.030955 
L 211.265302 75.241302 
L 211.536064 116.596302 
L 212.548338 288.101028 
L 212.623658 289.321016 
L 212.677551 288.699009 
L 212.787934 283.570882 
L 212.987921 261.938983 
L 213.343418 194.652801 
L 214.025518 69.372246 
L 214.246933 58.92606 
L 214.24888 58.926884 
L 214.275178 59.098782 
L 214.355043 61.448205 
L 214.513474 73.980991 
L 214.785535 116.33206 
L 215.790666 289.511788 
L 215.870207 290.884464 
L 215.92345 290.265102 
L 216.033184 285.135414 
L 216.232197 263.439817 
L 216.585746 195.854167 
L 217.273041 67.943146 
L 217.493481 57.472155 
L 217.496078 57.473832 
L 217.524973 57.691921 
L 217.609383 60.414388 
L 217.773983 74.333463 
L 218.056757 120.524015 
L 219.007672 289.627054 
L 219.116431 292.227406 
L 219.163181 291.747247 
L 219.265772 287.347864 
L 219.455046 267.835495 
L 219.785869 206.404924 
L 220.541017 64.874899 
L 220.739705 56.241503 
L 220.752367 56.277127 
L 220.80626 57.222133 
L 220.929304 64.120708 
L 221.146823 91.129163 
L 221.554589 175.455806 
L 222.125982 281.07876 
L 222.357461 293.338016 
L 222.363954 293.344283 
L 222.393173 293.140331 
L 222.47596 290.509644 
L 222.638287 276.853549 
L 222.917166 231.228502 
L 223.887234 57.414251 
L 223.986254 55.23899 
L 224.035277 55.779656 
L 224.14079 60.548772 
L 224.333959 81.286 
L 224.673548 146.234007 
L 225.400775 284.621321 
L 225.609204 294.231459 
L 225.61732 294.216884 
L 225.660824 293.635754 
L 225.768934 288.559494 
L 225.965675 266.850734 
L 226.313705 199.09544 
L 227.016258 64.822914 
L 227.232478 54.468542 
L 227.237023 54.473249 
L 227.271112 54.804547 
L 227.364613 58.37545 
L 227.541549 75.326143 
L 227.846725 129.829418 
L 228.696022 289.188095 
L 228.855752 294.88466 
L 228.884647 294.695029 
L 228.965486 292.174697 
L 229.125541 278.830119 
L 229.400199 233.973767 
L 230.390721 55.68226 
L 230.479027 53.93323 
L 230.530647 54.539169 
L 230.639082 59.687721 
L 230.836147 81.645582 
L 231.185151 150.165898 
L 231.884782 284.784388 
L 232.101976 295.301571 
L 232.105872 295.298216 
L 232.137688 295.013927 
L 232.227293 291.769028 
L 232.399036 275.887966 
L 232.694796 224.145762 
L 233.584675 58.07935 
L 233.725251 53.635136 
L 233.761612 53.935 
L 233.852191 57.267562 
L 234.025232 73.450753 
L 234.323265 125.981341 
L 235.202755 290.706848 
L 235.348525 295.480537 
L 235.382939 295.210477 
L 235.471245 292.078301 
L 235.641364 276.553468 
L 235.933878 225.789253 
L 236.838042 57.593588 
L 236.971475 53.575463 
L 237.010433 53.916985 
L 237.103934 57.521054 
L 237.280871 74.603158 
L 237.586371 129.549588 
L 238.434045 289.617438 
L 238.594749 295.420864 
L 238.623319 295.236599 
L 238.703509 292.754495 
L 238.862589 279.544321 
L 239.135949 234.968217 
L 240.133289 55.373227 
L 240.218024 53.754429 
L 240.270293 54.372924 
L 240.379052 59.575097 
L 240.576767 81.7155 
L 240.927719 150.832414 
L 241.621831 284.417369 
L 241.841298 295.122775 
L 241.84422 295.120678 
L 241.873763 294.88293 
L 241.959472 291.975849 
L 242.12602 277.259853 
L 242.412366 228.666342 
L 243.345099 57.363627 
L 243.464248 54.17134 
L 243.508076 54.601819 
L 243.60742 58.754609 
L 243.792474 77.627006 
L 244.114207 137.408006 
L 244.899547 286.725321 
L 245.087522 294.587458 
L 245.104729 294.521129 
L 245.167062 293.168886 
L 245.302119 284.385744 
L 245.537169 251.950216 
L 246.027398 145.192066 
L 246.494251 65.182128 
L 246.710796 54.824541 
L 246.715017 54.828634 
L 246.748132 55.137779 
L 246.840009 58.550522 
L 247.014998 74.977008 
L 247.316602 128.050701 
L 248.180184 288.573382 
L 248.334071 293.817014 
L 248.365238 293.598169 
L 248.449323 290.855205 
L 248.613598 276.773103 
L 248.896048 229.972924 
L 249.847287 58.386507 
L 249.95702 55.711461 
L 250.003446 56.188583 
L 250.105712 60.589518 
L 250.294661 80.161206 
L 250.62516 141.835117 
L 251.380632 284.087228 
L 251.580295 292.814497 
L 251.592307 292.782636 
L 251.644901 291.891683 
L 251.765997 285.260894 
L 251.981243 258.98148 
L 252.381868 177.007936 
L 252.965272 69.12546 
L 253.197401 56.836804 
L 253.204218 56.828706 
L 253.235061 57.04803 
L 253.319471 59.779955 
L 253.484396 73.786709 
L 253.767819 120.244291 
L 254.713863 288.80327 
L 254.826843 291.583847 
L 254.872295 291.128288 
L 254.973912 286.866023 
L 255.161887 267.822628 
L 255.490438 207.701934 
L 256.252403 66.571282 
L 256.449793 58.171536 
L 256.462779 58.207784 
L 256.516997 59.151608 
L 256.64069 66.012038 
L 256.859508 92.825561 
L 257.272793 176.828089 
L 257.834771 278.043653 
L 258.066899 290.121696 
L 258.074041 290.129735 
L 258.104884 289.91089 
L 258.189619 287.202342 
L 258.354868 273.371972 
L 258.638941 227.557389 
L 259.581414 62.559839 
L 259.696342 59.734984 
L 259.741144 60.167836 
L 259.841787 64.256367 
L 260.028464 82.633114 
L 260.354417 140.777114 
L 261.124823 280.466442 
L 261.319616 288.458492 
L 261.333901 288.413905 
L 261.391365 287.3568 
L 261.519604 280.021485 
L 261.744914 252.01502 
L 262.184172 163.171761 
L 262.70849 72.928484 
L 262.93867 61.516087 
L 262.944189 61.513282 
L 262.970162 61.673153 
L 263.049053 63.900707 
L 263.20651 75.921012 
L 263.477272 116.70623 
L 264.486949 285.273004 
L 264.56584 286.576124 
L 264.619084 285.981308 
L 264.728817 281.049778 
L 264.928155 260.169897 
L 265.283327 195.055502 
L 265.965427 73.739733 
L 266.189115 63.497876 
L 266.190089 63.498119 
L 266.214762 63.635842 
L 266.291056 65.655855 
L 266.444943 76.830379 
L 266.709861 115.1917 
L 267.750704 283.712535 
L 267.812389 284.490238 
L 267.86758 283.858995 
L 267.979586 278.773083 
L 268.182171 257.522819 
L 268.545784 191.339419 
L 269.206457 76.201274 
L 269.433715 65.683021 
L 269.439559 65.686047 
L 269.459038 65.79666 
L 269.532086 67.583091 
L 269.681752 77.812089 
L 269.939852 113.469284 
L 271.01868 281.888628 
L 271.058613 282.209096 
L 271.11283 281.615561 
L 271.223862 276.748541 
L 271.424824 256.309854 
L 271.784541 192.577339 
L 272.454954 78.160322 
L 272.681238 68.05797 
L 272.700717 68.129795 
L 272.704938 68.165291 
L 272.777336 69.874583 
L 272.926028 79.725274 
L 273.182505 114.161845 
L 274.270099 279.502928 
L 274.305162 279.741665 
L 274.35808 279.185226 
L 274.467814 274.559678 
L 274.667152 254.970741 
L 275.022649 193.838029 
L 275.703775 80.26598 
L 275.928111 70.614868 
L 275.928761 70.614956 
L 275.95311 70.736667 
L 276.02843 72.567182 
L 276.181017 82.802556 
L 276.443988 118.123755 
L 277.49522 276.494694 
L 277.551386 277.097724 
L 277.606577 276.510771 
L 277.718583 271.771497 
L 277.921168 251.966876 
L 278.285106 190.246743 
L 278.945129 83.158927 
L 279.172712 73.343781 
L 279.178881 73.346945 
L 279.198684 73.454543 
L 279.272706 75.166525 
L 279.42367 84.871736 
L 279.684044 118.565443 
L 280.749885 273.862156 
L 280.79761 274.287679 
L 280.852801 273.71944 
L 280.964807 269.115573 
L 281.167067 249.906611 
L 281.53068 189.991992 
L 282.191353 85.778971 
L 282.418936 76.232824 
L 282.425105 76.235614 
L 282.445558 76.345072 
L 282.520553 78.057621 
L 282.672816 87.677803 
L 282.935137 120.904198 
L 283.989292 270.781055 
L 284.044158 271.322618 
L 284.09935 270.767227 
L 284.211356 266.292553 
L 284.41394 247.60579 
L 284.778203 189.344411 
L 285.437252 88.558439 
L 285.66516 79.271091 
L 285.671329 79.273535 
L 285.692431 79.384526 
L 285.768076 81.081275 
L 285.921313 90.547266 
L 286.185257 123.13341 
L 287.230321 267.583401 
L 287.290382 268.214264 
L 287.345574 267.678947 
L 287.45758 263.352752 
L 287.660164 245.276911 
L 288.024427 188.917636 
L 288.683152 91.45899 
L 288.91106 82.446844 
L 288.917228 82.448277 
L 288.939629 82.563812 
L 289.016572 84.271735 
L 289.171433 93.665245 
L 289.438299 125.841487 
L 290.467455 264.164904 
L 290.536607 264.974867 
L 290.591473 264.466124 
L 290.703154 260.323849 
L 290.90509 242.995486 
L 291.268054 188.912728 
L 291.930025 94.396822 
L 292.157608 85.746793 
L 292.164101 85.749073 
L 292.185853 85.858832 
L 292.262796 87.502817 
L 292.417657 96.553319 
L 292.684523 127.559815 
L 293.713679 260.835026 
L 293.783155 261.617209 
L 293.837697 261.129157 
L 293.949054 257.161845 
L 294.150665 240.540103 
L 294.512979 188.637644 
L 295.176574 97.461055 
L 295.404157 89.158446 
L 295.411624 89.162677 
L 295.432402 89.268243 
L 295.50967 90.865187 
L 295.664855 99.617736 
L 295.93237 129.566634 
L 296.957631 257.351369 
L 297.029379 258.15456 
L 297.083597 257.693007 
L 297.194629 253.914424 
L 297.395915 238.031493 
L 297.757255 188.427289 
L 298.423123 100.614602 
L 298.650706 92.668341 
L 298.659147 92.674804 
L 298.678951 92.775683 
L 298.756543 94.32273 
L 298.912378 102.788369 
L 299.180867 131.696975 
L 300.200608 253.758462 
L 300.275603 254.600571 
L 300.329496 254.165219 
L 300.440203 250.57647 
L 300.64084 235.475158 
L 301.000558 188.318702 
L 301.670321 103.802747 
L 301.897254 96.262624 
L 301.907643 96.273952 
L 301.925824 96.36987 
L 302.004066 97.881623 
L 302.160874 106.097408 
L 302.430987 134.057361 
L 303.441638 250.048608 
L 303.522152 250.969258 
L 303.575071 250.56468 
L 303.685129 247.191064 
L 303.884792 232.93851 
L 304.242237 188.386088 
L 304.917843 107.039109 
L 305.144128 99.927016 
L 305.162633 99.970251 
L 305.172697 100.033905 
L 305.251913 101.516143 
L 305.41002 109.500686 
L 305.682406 136.572342 
L 306.681369 246.250117 
L 306.768376 247.274981 
L 306.820321 246.90474 
L 306.92908 243.780734 
L 307.12712 230.475509 
L 307.480669 188.817294 
L 308.16634 110.276274 
L 308.391326 103.647223 
L 308.39165 103.64724 
L 308.420869 103.763288 
L 308.502682 105.286149 
L 308.664361 113.290088 
L 308.942914 140.135629 
L 309.910061 242.12765 
L 310.0146 243.532301 
L 310.062324 243.23614 
L 310.166539 240.56825 
L 310.35841 228.8517 
L 310.697025 191.95988 
L 311.424901 113.027805 
L 311.63755 107.408576 
L 311.643718 107.413352 
L 311.684625 107.686783 
L 311.787865 110.224164 
L 311.978437 121.440135 
L 312.314131 156.812548 
L 313.051097 234.449324 
L 313.260824 239.755991 
L 313.267967 239.749505 
L 313.31147 239.441242 
L 313.418931 236.725725 
L 313.615347 225.043205 
L 313.964676 188.430628 
L 314.661385 116.990118 
L 314.883774 111.19612 
L 314.885072 111.196312 
L 314.916564 111.323381 
L 315.002922 112.869609 
L 315.170444 120.662505 
L 315.459712 146.387566 
L 316.374914 233.963455 
L 316.507048 235.960953 
L 316.546331 235.78234 
L 316.640806 233.913044 
L 316.819366 225.108032 
L 317.129736 196.778182 
L 317.955009 118.385877 
L 318.129998 114.994907 
L 318.152724 115.052339 
L 318.224797 115.992472 
L 318.373164 121.446032 
L 318.629642 140.562555 
L 319.713989 231.996767 
L 319.753597 232.162145 
L 319.80749 231.843678 
L 319.918846 229.229302 
L 320.120457 218.267427 
L 320.483746 183.982697 
L 321.144094 124.340052 
L 321.372975 118.79105 
L 321.383689 118.795754 
L 321.408687 118.899856 
L 321.494721 120.247045 
L 321.661918 127.063708 
L 321.950536 149.580487 
L 322.868011 226.641474 
L 322.999496 228.374622 
L 323.039104 228.215169 
L 323.134228 226.552859 
L 323.313762 218.749283 
L 323.62608 193.68635 
L 324.443237 125.668119 
L 324.622446 122.566256 
L 324.643549 122.60973 
L 324.713674 123.373785 
L 324.859119 127.906656 
L 325.111052 143.971721 
L 326.220722 224.555703 
L 326.246694 224.613136 
L 326.295393 224.379992 
L 326.401879 222.341514 
L 326.596997 213.52076 
L 326.944053 185.798801 
L 327.646606 130.706326 
L 327.86867 126.308939 
L 327.870293 126.309208 
L 327.90633 126.43764 
L 327.999181 127.838677 
L 328.175469 134.529891 
L 328.481618 156.171221 
L 329.322475 218.423031 
L 329.491944 220.892946 
L 329.516943 220.83733 
L 329.593237 220.000601 
L 329.747123 215.360907 
L 330.013015 199.400116 
L 331.04347 130.426088 
L 331.115219 130.003244 
L 331.169436 130.25279 
L 331.281117 132.287323 
L 331.483702 140.819531 
L 331.849913 167.523561 
L 332.503118 212.882613 
L 332.733299 217.226781 
L 332.746934 217.221583 
L 332.774205 217.122057 
L 332.865433 215.933381 
L 333.039773 210.173303 
L 333.342351 191.442454 
L 334.198141 135.649968 
L 334.361118 133.634531 
L 334.388714 133.694295 
L 334.469228 134.530632 
L 334.628634 138.98349 
L 334.903941 154.032664 
L 335.884399 212.910964 
L 335.984392 213.633908 
L 336.033091 213.456222 
L 336.139253 211.881847 
L 336.334046 205.041503 
L 336.680777 183.508238 
L 337.38398 140.623331 
L 337.607018 137.188516 
L 337.607991 137.18861 
L 337.648249 137.308453 
L 337.745645 138.525158 
L 337.928426 144.15046 
L 338.247886 162.130169 
L 339.037447 207.674917 
L 339.229967 210.123878 
L 339.244901 210.108713 
L 339.306586 209.732175 
L 339.439694 207.238571 
L 339.673121 197.910262 
L 340.162701 167.003319 
L 340.630853 143.744325 
L 340.853242 140.651179 
L 340.85454 140.651357 
L 340.89707 140.775325 
L 340.998038 141.977105 
L 341.185363 147.385358 
L 341.515213 164.567068 
L 342.269061 204.158077 
L 342.476191 206.712034 
L 342.484632 206.707323 
L 342.536902 206.487349 
L 342.655401 204.793484 
L 342.8674 197.971543 
L 343.26283 176.540911 
L 343.854676 147.370383 
L 344.089726 144.013469 
L 344.107257 144.012963 
L 344.14232 144.117238 
L 344.242638 145.181472 
L 344.429315 150.003456 
L 344.757541 165.334641 
L 345.516259 201.147253 
L 345.722091 203.411881 
L 345.731181 203.407012 
L 345.785723 203.190559 
L 345.907144 201.578133 
L 346.123689 195.174056 
L 346.534377 174.971905 
L 347.099926 150.26936 
L 347.335301 147.252646 
L 347.355105 147.253846 
L 347.389843 147.352629 
L 347.492109 148.348932 
L 347.681383 152.798757 
L 348.016102 166.919328 
L 348.754042 198.060759 
L 348.96799 200.236433 
L 348.973185 200.234894 
L 349.024805 200.078693 
L 349.140057 198.821515 
L 349.347512 193.650003 
L 349.729306 177.412718 
L 350.347449 152.99755 
L 350.581849 150.359881 
L 350.6049 150.366108 
L 350.637365 150.456342 
L 350.741904 151.384979 
L 350.934425 155.477238 
L 351.276611 168.415039 
L 351.991501 195.12885 
L 352.213889 197.19822 
L 352.214863 197.198127 
L 352.266484 197.078092 
L 352.37784 196.061947 
L 352.579775 191.779208 
L 352.945986 178.327608 
L 353.597893 155.551338 
L 353.829697 153.323245 
L 353.861513 153.347337 
L 353.885537 153.418681 
L 353.993323 154.29262 
L 354.190064 158.063314 
L 354.542963 169.947332 
L 355.227985 192.352545 
L 355.456218 194.309002 
L 355.511409 194.207137 
L 355.622441 193.330134 
L 355.823727 189.625136 
L 356.188964 177.965598 
L 356.843143 158.072161 
L 357.075271 156.13307 
L 357.115529 156.171267 
L 357.134359 156.227343 
L 357.24604 157.051402 
L 357.447975 160.520044 
L 357.81516 171.435151 
L 358.46447 189.760633 
L 358.697247 191.579307 
L 358.739777 191.540836 
L 358.758932 191.485904 
L 358.872561 190.689068 
L 359.077418 187.371619 
L 359.453044 176.929276 
L 360.083523 160.508253 
L 360.318249 158.7779 
L 360.360454 158.808601 
L 360.38318 158.868519 
L 360.498757 159.633752 
L 360.706212 162.783988 
L 361.089954 172.71178 
L 361.703551 187.395063 
L 361.939575 189.021215 
L 361.983728 188.992435 
L 362.007753 188.932465 
L 362.125603 188.195642 
L 362.336304 185.198449 
L 362.730435 175.733801 
L 363.323904 162.76328 
L 363.561226 161.246053 
L 363.6096 161.277819 
L 363.632651 161.333757 
L 363.753422 162.047392 
L 363.968344 164.910949 
L 364.376759 173.992386 
L 364.945555 185.251323 
L 365.183202 186.645502 
L 365.23742 186.607134 
L 365.257548 186.559075 
L 365.381242 185.871764 
L 365.600059 183.156195 
L 366.023734 174.485186 
L 366.568829 164.784991 
L 366.806152 163.526688 
L 366.871732 163.585538 
L 366.883095 163.613645 
L 367.010035 164.277411 
L 367.233722 166.859399 
L 367.678824 175.208835 
L 368.19535 183.362193 
L 368.430725 184.462495 
L 368.509941 184.371767 
L 368.641751 183.717433 
L 368.87258 181.228025 
L 369.356641 172.936688 
L 369.830637 166.497939 
L 370.059518 165.610157 
L 370.141331 165.715596 
L 370.281907 166.401298 
L 370.526047 168.911342 
L 371.672404 182.476871 
L 371.761359 182.389574 
L 371.901285 181.790712 
L 372.144127 179.585655 
L 373.2986 167.493133 
L 373.391451 167.588763 
L 373.539494 168.193205 
L 373.794673 170.34804 
L 374.874799 180.668686 
L 374.963105 180.686415 
L 374.997844 180.644072 
L 375.136147 180.209176 
L 375.374119 178.582566 
L 375.921811 172.794495 
L 376.344837 169.584169 
L 376.561381 169.165406 
L 376.561706 169.165487 
L 376.669167 169.307418 
L 376.846104 170.013302 
L 377.153877 172.332242 
L 377.981422 178.827658 
L 378.188227 179.13484 
L 378.191474 179.13375 
L 378.309648 178.972164 
L 378.502493 178.23419 
L 378.845328 175.864914 
L 379.556323 171.024006 
L 379.790723 170.617813 
L 379.914417 170.72762 
L 380.09947 171.280874 
L 380.421528 173.083099 
L 381.198427 177.513591 
L 381.424387 177.793685 
L 381.561066 177.660385 
L 381.767872 177.066147 
L 382.144471 175.162282 
L 382.775276 172.181579 
L 383.023961 171.84878 
L 383.173627 171.948019 
L 383.38238 172.427744 
L 383.758655 173.970143 
L 384.39368 176.407454 
L 384.646911 176.677421 
L 384.814433 176.571857 
L 385.046236 176.09666 
L 385.503351 174.519694 
L 386.017279 173.05405 
L 386.275055 172.85109 
L 386.465628 172.969282 
L 386.731845 173.454714 
L 387.835671 175.784467 
L 388.055462 175.723721 
L 388.329471 175.371175 
L 389.473555 173.622682 
L 389.732629 173.71025 
L 390.08488 174.108527 
L 390.91697 175.09224 
L 391.236756 175.119193 
L 391.596473 174.901727 
L 392.633096 174.161701 
L 393.036642 174.224798 
L 394.548884 174.698902 
L 396.464024 174.495591 
L 397.985681 174.530352 
L 398.487273 174.528 
L 398.487273 174.528 
" clip-path="url(#p0f834e2270)" style="fill: none; stroke: #ff7f0e; stroke-width: 1.5; stroke-linecap: square"/>
   </g>
   <g id="patch_3">
    <path d="M 57.6 307.584 
L 57.6 41.472 
" style="fill: none; stroke: #000000; stroke-width: 0.8; stroke-linejoin: miter; stroke-linecap: square"/>
   </g>
   <g id="patch_4">
    <path d="M 414.72 307.584 
L 414.72 41.472 
" style="fill: none; stroke: #000000; stroke-width: 0.8; stroke-linejoin: miter; stroke-linecap: square"/>
   </g>
   <g id="patch_5">
    <path d="M 57.6 307.584 
L 414.72 307.584 
" style="fill: none; stroke: #000000; stroke-width: 0.8; stroke-linejoin: miter; stroke-linecap: square"/>
   </g>
   <g id="patch_6">
    <path d="M 57.6 41.472 
L 414.72 41.472 
" style="fill: none; stroke: #000000; stroke-width: 0.8; stroke-linejoin: miter; stroke-linecap: square"/>
   </g>
   <g id="legend_1">
    <g id="patch_7">
     <path d="M 325.904375 78.82825 
L 407.72 78.82825 
Q 409.72 78.82825 409.72 76.82825 
L 409.72 48.472 
Q 409.72 46.472 407.72 46.472 
L 325.904375 46.472 
Q 323.904375 46.472 323.904375 48.472 
L 323.904375 76.82825 
Q 323.904375 78.82825 325.904375 78.82825 
z
" style="fill: #ffffff; opacity: 0.8; stroke: #cccccc; stroke-linejoin: miter"/>
    </g>
    <g id="line2d_18">
     <path d="M 327.904375 54.570437 
L 337.904375 54.570437 
L 347.904375 54.570437 
" style="fill: none; stroke: #1f77b4; stroke-width: 1.5; stroke-linecap: square"/>
    </g>
    <g id="text_17">
     <!-- Rectangle -->
     <g transform="translate(355.904375 58.070437) scale(0.1 -0.1)">
      <defs>
       <path id="DejaVuSans-52" d="M 2841 2188 
Q 3044 2119 3236 1894 
Q 3428 1669 3622 1275 
L 4263 0 
L 3584 0 
L 2988 1197 
Q 2756 1666 2539 1819 
Q 2322 1972 1947 1972 
L 1259 1972 
L 1259 0 
L 628 0 
L 628 4666 
L 2053 4666 
Q 2853 4666 3247 4331 
Q 3641 3997 3641 3322 
Q 3641 2881 3436 2590 
Q 3231 2300 2841 2188 
z
M 1259 4147 
L 1259 2491 
L 2053 2491 
Q 2509 2491 2742 2702 
Q 2975 2913 2975 3322 
Q 2975 3731 2742 3939 
Q 2509 4147 2053 4147 
L 1259 4147 
z
" transform="scale(0.015625)"/>
       <path id="DejaVuSans-63" d="M 3122 3366 
L 3122 2828 
Q 2878 2963 2633 3030 
Q 2388 3097 2138 3097 
Q 1578 3097 1268 2742 
Q 959 2388 959 1747 
Q 959 1106 1268 751 
Q 1578 397 2138 397 
Q 2388 397 2633 464 
Q 2878 531 3122 666 
L 3122 134 
Q 2881 22 2623 -34 
Q 2366 -91 2075 -91 
Q 1284 -91 818 406 
Q 353 903 353 1747 
Q 353 2603 823 3093 
Q 1294 3584 2113 3584 
Q 2378 3584 2631 3529 
Q 2884 3475 3122 3366 
z
" transform="scale(0.015625)"/>
       <path id="DejaVuSans-74" d="M 1172 4494 
L 1172 3500 
L 2356 3500 
L 2356 3053 
L 1172 3053 
L 1172 1153 
Q 1172 725 1289 603 
Q 1406 481 1766 481 
L 2356 481 
L 2356 0 
L 1766 0 
Q 1100 0 847 248 
Q 594 497 594 1153 
L 594 3053 
L 172 3053 
L 172 3500 
L 594 3500 
L 594 4494 
L 1172 4494 
z
" transform="scale(0.015625)"/>
       <path id="DejaVuSans-61" d="M 2194 1759 
Q 1497 1759 1228 1600 
Q 959 1441 959 1056 
Q 959 750 1161 570 
Q 1363 391 1709 391 
Q 2188 391 2477 730 
Q 2766 1069 2766 1631 
L 2766 1759 
L 2194 1759 
z
M 3341 1997 
L 3341 0 
L 2766 0 
L 2766 531 
Q 2569 213 2275 61 
Q 1981 -91 1556 -91 
Q 1019 -91 701 211 
Q 384 513 384 1019 
Q 384 1609 779 1909 
Q 1175 2209 1959 2209 
L 2766 2209 
L 2766 2266 
Q 2766 2663 2505 2880 
Q 2244 3097 1772 3097 
Q 1472 3097 1187 3025 
Q 903 2953 641 2809 
L 641 3341 
Q 956 3463 1253 3523 
Q 1550 3584 1831 3584 
Q 2591 3584 2966 3190 
Q 3341 2797 3341 1997 
z
" transform="scale(0.015625)"/>
       <path id="DejaVuSans-6e" d="M 3513 2113 
L 3513 0 
L 2938 0 
L 2938 2094 
Q 2938 2591 2744 2837 
Q 2550 3084 2163 3084 
Q 1697 3084 1428 2787 
Q 1159 2491 1159 1978 
L 1159 0 
L 581 0 
L 581 3500 
L 1159 3500 
L 1159 2956 
Q 1366 3272 1645 3428 
Q 1925 3584 2291 3584 
Q 2894 3584 3203 3211 
Q 3513 2838 3513 2113 
z
" transform="scale(0.015625)"/>
       <path id="DejaVuSans-67" d="M 2906 1791 
Q 2906 2416 2648 2759 
Q 2391 3103 1925 3103 
Q 1463 3103 1205 2759 
Q 947 2416 947 1791 
Q 947 1169 1205 825 
Q 1463 481 1925 481 
Q 2391 481 2648 825 
Q 2906 1169 2906 1791 
z
M 3481 434 
Q 3481 -459 3084 -895 
Q 2688 -1331 1869 -1331 
Q 1566 -1331 1297 -1286 
Q 1028 -1241 775 -1147 
L 775 -588 
Q 1028 -725 1275 -790 
Q 1522 -856 1778 -856 
Q 2344 -856 2625 -561 
Q 2906 -266 2906 331 
L 2906 616 
Q 2728 306 2450 153 
Q 2172 0 1784 0 
Q 1141 0 747 490 
Q 353 981 353 1791 
Q 353 2603 747 3093 
Q 1141 3584 1784 3584 
Q 2172 3584 2450 3431 
Q 2728 3278 2906 2969 
L 2906 3500 
L 3481 3500 
L 3481 434 
z
" transform="scale(0.015625)"/>
       <path id="DejaVuSans-6c" d="M 603 4863 
L 1178 4863 
L 1178 0 
L 603 0 
L 603 4863 
z
" transform="scale(0.015625)"/>
      </defs>
      <use xlink:href="#DejaVuSans-52"/>
      <use xlink:href="#DejaVuSans-65" x="64.982422"/>
      <use xlink:href="#DejaVuSans-63" x="126.505859"/>
      <use xlink:href="#DejaVuSans-74" x="181.486328"/>
      <use xlink:href="#DejaVuSans-61" x="220.695312"/>
      <use xlink:href="#DejaVuSans-6e" x="281.974609"/>
      <use xlink:href="#DejaVuSans-67" x="345.353516"/>
      <use xlink:href="#DejaVuSans-6c" x="408.830078"/>
      <use xlink:href="#DejaVuSans-65" x="436.613281"/>
     </g>
    </g>
    <g id="line2d_19">
     <path d="M 327.904375 69.248562 
L 337.904375 69.248562 
L 347.904375 69.248562 
" style="fill: none; stroke: #ff7f0e; stroke-width: 1.5; stroke-linecap: square"/>
    </g>
    <g id="text_18">
     <!-- Hanning -->
     <g transform="translate(355.904375 72.748562) scale(0.1 -0.1)">
      <defs>
       <path id="DejaVuSans-48" d="M 628 4666 
L 1259 4666 
L 1259 2753 
L 3553 2753 
L 3553 4666 
L 4184 4666 
L 4184 0 
L 3553 0 
L 3553 2222 
L 1259 2222 
L 1259 0 
L 628 0 
L 628 4666 
z
" transform="scale(0.015625)"/>
       <path id="DejaVuSans-69" d="M 603 3500 
L 1178 3500 
L 1178 0 
L 603 0 
L 603 3500 
z
M 603 4863 
L 1178 4863 
L 1178 4134 
L 603 4134 
L 603 4863 
z
" transform="scale(0.015625)"/>
      </defs>
      <use xlink:href="#DejaVuSans-48"/>
      <use xlink:href="#DejaVuSans-61" x="75.195312"/>
      <use xlink:href="#DejaVuSans-6e" x="136.474609"/>
      <use xlink:href="#DejaVuSans-6e" x="199.853516"/>
      <use xlink:href="#DejaVuSans-69" x="263.232422"/>
      <use xlink:href="#DejaVuSans-6e" x="291.015625"/>
      <use xlink:href="#DejaVuSans-67" x="354.394531"/>
     </g>
    </g>
   </g>
  </g>
 </g>
 <defs>
  <clipPath id="p0f834e2270">
   <rect x="57.6" y="41.472" width="357.12" height="266.112"/>
  </clipPath>
 </defs>
</svg>
