<?xml version="1.0" encoding="utf-8" standalone="no"?>
<!DOCTYPE svg PUBLIC "-//W3C//DTD SVG 1.1//EN"
  "http://www.w3.org/Graphics/SVG/1.1/DTD/svg11.dtd">
<svg xmlns:xlink="http://www.w3.org/1999/xlink" width="460.8pt" height="345.6pt" viewBox="0 0 460.8 345.6" xmlns="http://www.w3.org/2000/svg" version="1.1">
 <metadata>
  <rdf:RDF xmlns:dc="http://purl.org/dc/elements/1.1/" xmlns:cc="http://creativecommons.org/ns#" xmlns:rdf="http://www.w3.org/1999/02/22-rdf-syntax-ns#">
   <cc:Work>
    <dc:type rdf:resource="http://purl.org/dc/dcmitype/StillImage"/>
    <dc:format>image/svg+xml</dc:format>
    <dc:creator>
     <cc:Agent>
      <dc:title>Matplotlib v3.8.4, https://matplotlib.org/</dc:title>
     </cc:Agent>
    </dc:creator>
   </cc:Work>
  </rdf:RDF>
 </metadata>
 <defs>
  <style type="text/css">*{stroke-linejoin: round; stroke-linecap: butt}</style>
 </defs>
 <g id="figure_1">
  <g id="patch_1">
   <path d="M 0 345.6 
L 460.8 345.6 
L 460.8 0 
L 0 0 
z
" style="fill: #ffffff"/>
  </g>
  <g id="axes_1">
   <g id="patch_2">
    <path d="M 56 63.959633 
L 450 63.959633 
L 450 14.368386 
L 56 14.368386 
z
" style="fill: #ffffff"/>
   </g>
   <g id="matplotlib.axis_1">
    <g id="xtick_1">
     <g id="line2d_1">
      <defs>
       <path id="mbcb02aef95" d="M 0 0 
L 0 3.5 
" style="stroke: #000000; stroke-width: 0.8"/>
      </defs>
      <g>
       <use xlink:href="#mbcb02aef95" x="73.909091" y="63.959633" style="stroke: #000000; stroke-width: 0.8"/>
      </g>
     </g>
     <g id="text_1">
      <!-- 0 -->
      <g transform="translate(70.727841 78.55807) scale(0.1 -0.1)">
       <defs>
        <path id="DejaVuSans-30" d="M 2034 4250 
Q 1547 4250 1301 3770 
Q 1056 3291 1056 2328 
Q 1056 1369 1301 889 
Q 1547 409 2034 409 
Q 2525 409 2770 889 
Q 3016 1369 3016 2328 
Q 3016 3291 2770 3770 
Q 2525 4250 2034 4250 
z
M 2034 4750 
Q 2819 4750 3233 4129 
Q 3647 3509 3647 2328 
Q 3647 1150 3233 529 
Q 2819 -91 2034 -91 
Q 1250 -91 836 529 
Q 422 1150 422 2328 
Q 422 3509 836 4129 
Q 1250 4750 2034 4750 
z
" transform="scale(0.015625)"/>
       </defs>
       <use xlink:href="#DejaVuSans-30"/>
      </g>
     </g>
    </g>
    <g id="xtick_2">
     <g id="line2d_2">
      <g>
       <use xlink:href="#mbcb02aef95" x="145.617163" y="63.959633" style="stroke: #000000; stroke-width: 0.8"/>
      </g>
     </g>
     <g id="text_2">
      <!-- 200 -->
      <g transform="translate(136.073413 78.55807) scale(0.1 -0.1)">
       <defs>
        <path id="DejaVuSans-32" d="M 1228 531 
L 3431 531 
L 3431 0 
L 469 0 
L 469 531 
Q 828 903 1448 1529 
Q 2069 2156 2228 2338 
Q 2531 2678 2651 2914 
Q 2772 3150 2772 3378 
Q 2772 3750 2511 3984 
Q 2250 4219 1831 4219 
Q 1534 4219 1204 4116 
Q 875 4013 500 3803 
L 500 4441 
Q 881 4594 1212 4672 
Q 1544 4750 1819 4750 
Q 2544 4750 2975 4387 
Q 3406 4025 3406 3419 
Q 3406 3131 3298 2873 
Q 3191 2616 2906 2266 
Q 2828 2175 2409 1742 
Q 1991 1309 1228 531 
z
" transform="scale(0.015625)"/>
       </defs>
       <use xlink:href="#DejaVuSans-32"/>
       <use xlink:href="#DejaVuSans-30" x="63.623047"/>
       <use xlink:href="#DejaVuSans-30" x="127.246094"/>
      </g>
     </g>
    </g>
    <g id="xtick_3">
     <g id="line2d_3">
      <g>
       <use xlink:href="#mbcb02aef95" x="217.325234" y="63.959633" style="stroke: #000000; stroke-width: 0.8"/>
      </g>
     </g>
     <g id="text_3">
      <!-- 400 -->
      <g transform="translate(207.781484 78.55807) scale(0.1 -0.1)">
       <defs>
        <path id="DejaVuSans-34" d="M 2419 4116 
L 825 1625 
L 2419 1625 
L 2419 4116 
z
M 2253 4666 
L 3047 4666 
L 3047 1625 
L 3713 1625 
L 3713 1100 
L 3047 1100 
L 3047 0 
L 2419 0 
L 2419 1100 
L 313 1100 
L 313 1709 
L 2253 4666 
z
" transform="scale(0.015625)"/>
       </defs>
       <use xlink:href="#DejaVuSans-34"/>
       <use xlink:href="#DejaVuSans-30" x="63.623047"/>
       <use xlink:href="#DejaVuSans-30" x="127.246094"/>
      </g>
     </g>
    </g>
    <g id="xtick_4">
     <g id="line2d_4">
      <g>
       <use xlink:href="#mbcb02aef95" x="289.033306" y="63.959633" style="stroke: #000000; stroke-width: 0.8"/>
      </g>
     </g>
     <g id="text_4">
      <!-- 600 -->
      <g transform="translate(279.489556 78.55807) scale(0.1 -0.1)">
       <defs>
        <path id="DejaVuSans-36" d="M 2113 2584 
Q 1688 2584 1439 2293 
Q 1191 2003 1191 1497 
Q 1191 994 1439 701 
Q 1688 409 2113 409 
Q 2538 409 2786 701 
Q 3034 994 3034 1497 
Q 3034 2003 2786 2293 
Q 2538 2584 2113 2584 
z
M 3366 4563 
L 3366 3988 
Q 3128 4100 2886 4159 
Q 2644 4219 2406 4219 
Q 1781 4219 1451 3797 
Q 1122 3375 1075 2522 
Q 1259 2794 1537 2939 
Q 1816 3084 2150 3084 
Q 2853 3084 3261 2657 
Q 3669 2231 3669 1497 
Q 3669 778 3244 343 
Q 2819 -91 2113 -91 
Q 1303 -91 875 529 
Q 447 1150 447 2328 
Q 447 3434 972 4092 
Q 1497 4750 2381 4750 
Q 2619 4750 2861 4703 
Q 3103 4656 3366 4563 
z
" transform="scale(0.015625)"/>
       </defs>
       <use xlink:href="#DejaVuSans-36"/>
       <use xlink:href="#DejaVuSans-30" x="63.623047"/>
       <use xlink:href="#DejaVuSans-30" x="127.246094"/>
      </g>
     </g>
    </g>
    <g id="xtick_5">
     <g id="line2d_5">
      <g>
       <use xlink:href="#mbcb02aef95" x="360.741378" y="63.959633" style="stroke: #000000; stroke-width: 0.8"/>
      </g>
     </g>
     <g id="text_5">
      <!-- 800 -->
      <g transform="translate(351.197628 78.55807) scale(0.1 -0.1)">
       <defs>
        <path id="DejaVuSans-38" d="M 2034 2216 
Q 1584 2216 1326 1975 
Q 1069 1734 1069 1313 
Q 1069 891 1326 650 
Q 1584 409 2034 409 
Q 2484 409 2743 651 
Q 3003 894 3003 1313 
Q 3003 1734 2745 1975 
Q 2488 2216 2034 2216 
z
M 1403 2484 
Q 997 2584 770 2862 
Q 544 3141 544 3541 
Q 544 4100 942 4425 
Q 1341 4750 2034 4750 
Q 2731 4750 3128 4425 
Q 3525 4100 3525 3541 
Q 3525 3141 3298 2862 
Q 3072 2584 2669 2484 
Q 3125 2378 3379 2068 
Q 3634 1759 3634 1313 
Q 3634 634 3220 271 
Q 2806 -91 2034 -91 
Q 1263 -91 848 271 
Q 434 634 434 1313 
Q 434 1759 690 2068 
Q 947 2378 1403 2484 
z
M 1172 3481 
Q 1172 3119 1398 2916 
Q 1625 2713 2034 2713 
Q 2441 2713 2670 2916 
Q 2900 3119 2900 3481 
Q 2900 3844 2670 4047 
Q 2441 4250 2034 4250 
Q 1625 4250 1398 4047 
Q 1172 3844 1172 3481 
z
" transform="scale(0.015625)"/>
       </defs>
       <use xlink:href="#DejaVuSans-38"/>
       <use xlink:href="#DejaVuSans-30" x="63.623047"/>
       <use xlink:href="#DejaVuSans-30" x="127.246094"/>
      </g>
     </g>
    </g>
    <g id="xtick_6">
     <g id="line2d_6">
      <g>
       <use xlink:href="#mbcb02aef95" x="432.449449" y="63.959633" style="stroke: #000000; stroke-width: 0.8"/>
      </g>
     </g>
     <g id="text_6">
      <!-- 1000 -->
      <g transform="translate(419.724449 78.55807) scale(0.1 -0.1)">
       <defs>
        <path id="DejaVuSans-31" d="M 794 531 
L 1825 531 
L 1825 4091 
L 703 3866 
L 703 4441 
L 1819 4666 
L 2450 4666 
L 2450 531 
L 3481 531 
L 3481 0 
L 794 0 
L 794 531 
z
" transform="scale(0.015625)"/>
       </defs>
       <use xlink:href="#DejaVuSans-31"/>
       <use xlink:href="#DejaVuSans-30" x="63.623047"/>
       <use xlink:href="#DejaVuSans-30" x="127.246094"/>
       <use xlink:href="#DejaVuSans-30" x="190.869141"/>
      </g>
     </g>
    </g>
   </g>
   <g id="matplotlib.axis_2">
    <g id="ytick_1">
     <g id="line2d_7">
      <defs>
       <path id="me5179b328b" d="M 0 0 
L -3.5 0 
" style="stroke: #000000; stroke-width: 0.8"/>
      </defs>
      <g>
       <use xlink:href="#me5179b328b" x="56" y="60.941989" style="stroke: #000000; stroke-width: 0.8"/>
      </g>
     </g>
     <g id="text_7">
      <!-- 0 -->
      <g transform="translate(42.6375 64.741208) scale(0.1 -0.1)">
       <use xlink:href="#DejaVuSans-30"/>
      </g>
     </g>
    </g>
    <g id="ytick_2">
     <g id="line2d_8">
      <g>
       <use xlink:href="#me5179b328b" x="56" y="14.70409" style="stroke: #000000; stroke-width: 0.8"/>
      </g>
     </g>
     <g id="text_8">
      <!-- 50 -->
      <g transform="translate(36.275 18.503309) scale(0.1 -0.1)">
       <defs>
        <path id="DejaVuSans-35" d="M 691 4666 
L 3169 4666 
L 3169 4134 
L 1269 4134 
L 1269 2991 
Q 1406 3038 1543 3061 
Q 1681 3084 1819 3084 
Q 2600 3084 3056 2656 
Q 3513 2228 3513 1497 
Q 3513 744 3044 326 
Q 2575 -91 1722 -91 
Q 1428 -91 1123 -41 
Q 819 9 494 109 
L 494 744 
Q 775 591 1075 516 
Q 1375 441 1709 441 
Q 2250 441 2565 725 
Q 2881 1009 2881 1497 
Q 2881 1984 2565 2268 
Q 2250 2553 1709 2553 
Q 1456 2553 1204 2497 
Q 953 2441 691 2322 
L 691 4666 
z
" transform="scale(0.015625)"/>
       </defs>
       <use xlink:href="#DejaVuSans-35"/>
       <use xlink:href="#DejaVuSans-30" x="63.623047"/>
      </g>
     </g>
    </g>
    <g id="text_9">
     <!-- Series -->
     <g transform="translate(30.195313 54.540572) rotate(-90) scale(0.1 -0.1)">
      <defs>
       <path id="DejaVuSans-53" d="M 3425 4513 
L 3425 3897 
Q 3066 4069 2747 4153 
Q 2428 4238 2131 4238 
Q 1616 4238 1336 4038 
Q 1056 3838 1056 3469 
Q 1056 3159 1242 3001 
Q 1428 2844 1947 2747 
L 2328 2669 
Q 3034 2534 3370 2195 
Q 3706 1856 3706 1288 
Q 3706 609 3251 259 
Q 2797 -91 1919 -91 
Q 1588 -91 1214 -16 
Q 841 59 441 206 
L 441 856 
Q 825 641 1194 531 
Q 1563 422 1919 422 
Q 2459 422 2753 634 
Q 3047 847 3047 1241 
Q 3047 1584 2836 1778 
Q 2625 1972 2144 2069 
L 1759 2144 
Q 1053 2284 737 2584 
Q 422 2884 422 3419 
Q 422 4038 858 4394 
Q 1294 4750 2059 4750 
Q 2388 4750 2728 4690 
Q 3069 4631 3425 4513 
z
" transform="scale(0.015625)"/>
       <path id="DejaVuSans-65" d="M 3597 1894 
L 3597 1613 
L 953 1613 
Q 991 1019 1311 708 
Q 1631 397 2203 397 
Q 2534 397 2845 478 
Q 3156 559 3463 722 
L 3463 178 
Q 3153 47 2828 -22 
Q 2503 -91 2169 -91 
Q 1331 -91 842 396 
Q 353 884 353 1716 
Q 353 2575 817 3079 
Q 1281 3584 2069 3584 
Q 2775 3584 3186 3129 
Q 3597 2675 3597 1894 
z
M 3022 2063 
Q 3016 2534 2758 2815 
Q 2500 3097 2075 3097 
Q 1594 3097 1305 2825 
Q 1016 2553 972 2059 
L 3022 2063 
z
" transform="scale(0.015625)"/>
       <path id="DejaVuSans-72" d="M 2631 2963 
Q 2534 3019 2420 3045 
Q 2306 3072 2169 3072 
Q 1681 3072 1420 2755 
Q 1159 2438 1159 1844 
L 1159 0 
L 581 0 
L 581 3500 
L 1159 3500 
L 1159 2956 
Q 1341 3275 1631 3429 
Q 1922 3584 2338 3584 
Q 2397 3584 2469 3576 
Q 2541 3569 2628 3553 
L 2631 2963 
z
" transform="scale(0.015625)"/>
       <path id="DejaVuSans-69" d="M 603 3500 
L 1178 3500 
L 1178 0 
L 603 0 
L 603 3500 
z
M 603 4863 
L 1178 4863 
L 1178 4134 
L 603 4134 
L 603 4863 
z
" transform="scale(0.015625)"/>
       <path id="DejaVuSans-73" d="M 2834 3397 
L 2834 2853 
Q 2591 2978 2328 3040 
Q 2066 3103 1784 3103 
Q 1356 3103 1142 2972 
Q 928 2841 928 2578 
Q 928 2378 1081 2264 
Q 1234 2150 1697 2047 
L 1894 2003 
Q 2506 1872 2764 1633 
Q 3022 1394 3022 966 
Q 3022 478 2636 193 
Q 2250 -91 1575 -91 
Q 1294 -91 989 -36 
Q 684 19 347 128 
L 347 722 
Q 666 556 975 473 
Q 1284 391 1588 391 
Q 1994 391 2212 530 
Q 2431 669 2431 922 
Q 2431 1156 2273 1281 
Q 2116 1406 1581 1522 
L 1381 1569 
Q 847 1681 609 1914 
Q 372 2147 372 2553 
Q 372 3047 722 3315 
Q 1072 3584 1716 3584 
Q 2034 3584 2315 3537 
Q 2597 3491 2834 3397 
z
" transform="scale(0.015625)"/>
      </defs>
      <use xlink:href="#DejaVuSans-53"/>
      <use xlink:href="#DejaVuSans-65" x="63.476562"/>
      <use xlink:href="#DejaVuSans-72" x="125"/>
      <use xlink:href="#DejaVuSans-69" x="166.113281"/>
      <use xlink:href="#DejaVuSans-65" x="193.896484"/>
      <use xlink:href="#DejaVuSans-73" x="255.419922"/>
     </g>
    </g>
   </g>
   <g id="line2d_9">
    <path d="M 73.909091 61.050257 
L 74.267631 61.040781 
L 74.626172 60.191529 
L 74.984712 60.55483 
L 75.343252 61.113575 
L 75.701793 60.631496 
L 76.060333 61.081753 
L 76.418873 61.067423 
L 76.777414 60.724557 
L 77.135954 61.705485 
L 77.494494 61.603104 
L 77.853035 61.050852 
L 78.211575 61.245384 
L 78.570116 60.619123 
L 78.928656 61.172997 
L 79.287196 61.396444 
L 79.645737 60.057721 
L 80.004277 60.833579 
L 80.362817 60.693579 
L 80.721358 61.381015 
L 81.438438 60.670936 
L 81.796979 61.25664 
L 82.155519 60.554129 
L 82.51406 61.009856 
L 82.8726 60.871854 
L 83.23114 61.02024 
L 83.589681 59.89042 
L 83.948221 60.757374 
L 84.306761 61.24346 
L 84.665302 60.375941 
L 85.023842 61.320865 
L 85.382382 60.657787 
L 85.740923 61.656036 
L 86.099463 61.356933 
L 86.458003 60.641778 
L 86.816544 60.37832 
L 87.533625 60.737894 
L 87.892165 60.801401 
L 88.250705 61.320699 
L 88.609246 60.942135 
L 88.967786 60.792153 
L 89.326326 60.058227 
L 89.684867 60.354381 
L 90.043407 61.293539 
L 90.401947 60.292904 
L 90.760488 60.585047 
L 91.119028 60.684579 
L 91.477568 60.05422 
L 91.836109 59.827175 
L 92.194649 59.841981 
L 92.55319 60.631622 
L 93.628811 59.722954 
L 93.987351 60.379097 
L 94.345891 60.230496 
L 94.704432 60.646945 
L 95.062972 60.682825 
L 95.421512 59.751794 
L 95.780053 59.501377 
L 96.138593 60.165681 
L 96.497133 59.674845 
L 96.855674 59.980254 
L 97.214214 60.456028 
L 97.931295 59.470031 
L 98.289835 60.209835 
L 98.648376 59.481394 
L 99.006916 61.426709 
L 99.365456 59.84435 
L 99.723997 60.191088 
L 100.082537 60.374092 
L 100.441077 60.195087 
L 100.799618 61.155086 
L 101.158158 60.33287 
L 101.516699 60.057921 
L 101.875239 59.527904 
L 102.233779 60.435588 
L 102.59232 60.551083 
L 102.95086 60.387345 
L 103.3094 59.707221 
L 104.026481 60.318226 
L 104.385021 59.804414 
L 104.743562 59.96396 
L 105.102102 59.527203 
L 105.460642 60.265554 
L 105.819183 60.058402 
L 106.177723 60.054727 
L 106.536264 60.517651 
L 106.894804 59.672954 
L 107.611885 59.750827 
L 107.970425 59.836541 
L 108.328965 60.359745 
L 108.687506 59.879451 
L 109.046046 59.825458 
L 109.404586 60.022291 
L 110.121667 59.439366 
L 110.480207 58.744054 
L 110.838748 59.526739 
L 111.197288 59.480552 
L 111.555829 59.626743 
L 111.914369 60.472295 
L 112.272909 59.589812 
L 112.63145 59.541448 
L 112.98999 58.42101 
L 113.34853 59.638161 
L 113.707071 59.397362 
L 114.065611 59.53852 
L 114.424151 60.046482 
L 114.782692 58.959227 
L 115.141232 59.119409 
L 115.499772 59.078776 
L 115.858313 59.840638 
L 116.216853 58.74559 
L 116.575394 60.015211 
L 117.292474 58.2977 
L 117.651015 59.740127 
L 118.368095 59.181483 
L 118.726636 59.435218 
L 119.085176 59.896368 
L 119.443716 59.127166 
L 119.802257 59.632489 
L 120.160797 58.908025 
L 120.519338 59.541344 
L 120.877878 58.392447 
L 121.236418 59.467859 
L 121.594959 59.254858 
L 121.953499 58.733504 
L 122.312039 59.685672 
L 123.02912 58.533713 
L 123.38766 59.894915 
L 123.746201 59.080746 
L 124.104741 59.060572 
L 124.463281 58.833176 
L 124.821822 59.779 
L 125.180362 59.827558 
L 125.538903 58.982301 
L 126.255983 59.107783 
L 126.614524 59.055243 
L 126.973064 59.515395 
L 127.331604 59.072315 
L 127.690145 59.015775 
L 128.048685 59.445803 
L 128.407225 58.209614 
L 129.124306 59.515225 
L 129.482846 58.596886 
L 129.841387 59.281383 
L 130.199927 58.39203 
L 130.558468 58.141488 
L 130.917008 58.975003 
L 131.275548 58.066766 
L 131.634089 58.237684 
L 131.992629 57.965823 
L 132.351169 57.38874 
L 132.70971 58.302983 
L 133.06825 58.467064 
L 133.785331 58.374908 
L 134.502412 57.754746 
L 134.860952 57.757555 
L 135.219492 57.487232 
L 135.578033 57.859437 
L 135.936573 57.200723 
L 136.295113 58.013976 
L 136.653654 56.663662 
L 137.370734 58.407398 
L 137.729275 58.563971 
L 138.087815 57.910314 
L 138.446355 58.306573 
L 138.804896 57.946485 
L 139.163436 58.132842 
L 139.880517 58.890357 
L 140.239057 59.26735 
L 140.956138 58.286309 
L 141.314678 58.62689 
L 141.673219 59.333873 
L 142.031759 58.696767 
L 142.390299 58.603463 
L 142.74884 59.179996 
L 143.10738 58.674235 
L 143.46592 58.676406 
L 143.824461 59.173858 
L 144.183001 58.406409 
L 144.541542 58.224139 
L 144.900082 57.880397 
L 145.258622 57.779157 
L 145.617163 58.777772 
L 145.975703 58.439756 
L 146.334243 57.626455 
L 147.051324 57.332027 
L 147.409864 55.640801 
L 147.768405 57.013199 
L 148.126945 56.612476 
L 148.844026 56.583087 
L 149.202566 56.920912 
L 149.561107 56.329384 
L 149.919647 56.958811 
L 150.278187 56.649468 
L 150.636728 56.721238 
L 150.995268 56.434812 
L 151.353808 55.39754 
L 151.712349 57.345431 
L 152.070889 56.197598 
L 152.429429 57.311148 
L 153.14651 56.210573 
L 153.863591 57.411802 
L 154.222131 57.357178 
L 154.580672 56.830486 
L 154.939212 57.603204 
L 155.297752 57.285789 
L 155.656293 57.48186 
L 156.014833 57.915081 
L 156.373373 56.724379 
L 156.731914 57.51291 
L 157.090454 58.818774 
L 157.448994 57.85647 
L 157.807535 58.291093 
L 158.166075 57.614038 
L 158.524616 58.377334 
L 159.600237 57.492062 
L 159.958777 58.366352 
L 160.317317 57.865687 
L 161.034398 57.760647 
L 161.392938 56.494119 
L 162.110019 57.565538 
L 162.468559 56.383909 
L 162.8271 55.649929 
L 163.18564 55.97676 
L 163.544181 56.982807 
L 163.902721 56.336425 
L 164.261261 55.367915 
L 164.619802 56.13368 
L 164.978342 55.467985 
L 165.336882 55.197817 
L 165.695423 55.8852 
L 166.053963 55.403947 
L 166.412503 56.815118 
L 166.771044 55.750818 
L 167.129584 55.375548 
L 167.488124 55.837876 
L 167.846665 54.528124 
L 168.205205 55.984866 
L 168.563746 55.584924 
L 168.922286 55.39418 
L 169.280826 54.874545 
L 169.639367 56.301935 
L 169.997907 55.205378 
L 170.714988 56.420592 
L 171.073528 55.86576 
L 171.432068 56.096849 
L 171.790609 56.569946 
L 172.149149 56.35516 
L 172.50769 56.649731 
L 173.22477 56.292906 
L 173.583311 55.905793 
L 173.941851 57.234161 
L 174.300391 55.680126 
L 174.658932 57.555126 
L 175.017472 56.690438 
L 175.376012 56.298018 
L 175.734553 56.372778 
L 176.093093 56.707319 
L 176.451633 56.417834 
L 177.168714 56.362337 
L 177.527255 55.567178 
L 177.885795 55.658886 
L 178.244335 56.004446 
L 178.602876 55.126768 
L 178.961416 55.260257 
L 179.319956 54.88938 
L 179.678497 54.842421 
L 180.037037 55.392603 
L 180.395577 55.153251 
L 180.754118 54.444355 
L 181.112658 54.415259 
L 181.471198 54.627601 
L 181.829739 54.497603 
L 182.188279 53.908739 
L 182.54682 54.73437 
L 182.90536 54.182525 
L 183.2639 54.516285 
L 183.622441 54.522464 
L 183.980981 53.923309 
L 184.698062 54.10017 
L 185.056602 53.904866 
L 185.415142 54.535091 
L 185.773683 54.26814 
L 186.132223 54.766149 
L 186.490763 54.510879 
L 186.849304 54.756257 
L 187.207844 54.68231 
L 187.566385 54.477515 
L 187.924925 55.149951 
L 188.283465 53.815583 
L 188.642006 55.251556 
L 189.000546 55.342687 
L 189.359086 54.232103 
L 190.076167 54.426823 
L 190.434707 54.387383 
L 191.151788 54.999106 
L 191.510329 54.495109 
L 191.868869 54.785975 
L 192.227409 53.96278 
L 192.58595 54.421818 
L 192.94449 54.67635 
L 193.661571 53.992188 
L 194.020111 54.393503 
L 194.378651 54.467563 
L 194.737192 53.934672 
L 195.095732 53.899871 
L 195.454272 54.219331 
L 195.812813 54.180459 
L 196.171353 53.838731 
L 196.529894 54.604056 
L 196.888434 54.578092 
L 197.605515 54.020737 
L 197.964055 53.777827 
L 198.322595 53.238627 
L 198.681136 53.521712 
L 199.039676 53.986525 
L 199.398216 53.911078 
L 199.756757 54.349627 
L 200.115297 53.871291 
L 200.473837 53.964653 
L 200.832378 53.64135 
L 201.190918 54.122746 
L 201.907999 52.900582 
L 202.266539 53.579033 
L 202.98362 53.02093 
L 203.34216 53.419288 
L 203.700701 53.017682 
L 204.059241 52.998409 
L 204.417781 52.839244 
L 204.776322 53.121256 
L 205.851943 51.748354 
L 206.210483 51.87411 
L 206.569024 51.23057 
L 206.927564 52.501609 
L 207.286104 51.678022 
L 207.644645 51.946576 
L 208.003185 50.985446 
L 208.361725 52.35581 
L 209.078806 52.281405 
L 209.437346 53.024108 
L 209.795887 52.339873 
L 210.154427 52.518189 
L 210.512968 52.18212 
L 210.871508 52.190168 
L 211.230048 51.586894 
L 211.588589 52.128136 
L 211.947129 52.951574 
L 212.305669 53.218351 
L 212.66421 52.691203 
L 213.02275 53.639058 
L 213.38129 52.282631 
L 213.739831 52.672599 
L 214.456911 54.137811 
L 214.815452 52.753545 
L 215.173992 53.443327 
L 215.532533 52.804071 
L 215.891073 54.073662 
L 216.608154 53.173628 
L 216.966694 53.034165 
L 217.325234 53.118298 
L 217.683775 52.452547 
L 218.042315 53.042675 
L 218.400855 52.404136 
L 219.476476 51.294901 
L 219.835017 51.891287 
L 220.193557 51.827758 
L 220.552098 50.27903 
L 221.269178 50.749116 
L 221.627719 49.476199 
L 221.986259 49.951465 
L 222.344799 49.295877 
L 222.70334 49.673911 
L 223.06188 48.646578 
L 223.42042 48.714384 
L 223.778961 49.601355 
L 224.137501 49.031514 
L 224.496041 49.211085 
L 224.854582 48.938883 
L 225.213122 50.112084 
L 225.571663 49.472756 
L 225.930203 49.451644 
L 226.288743 50.928903 
L 226.647284 50.85711 
L 227.005824 51.462403 
L 227.364364 50.863991 
L 228.081445 50.495323 
L 228.439985 51.375775 
L 228.798526 50.866505 
L 229.157066 52.451504 
L 229.515607 52.774268 
L 229.874147 52.160583 
L 230.232687 52.076473 
L 230.591228 52.355771 
L 230.949768 53.347786 
L 231.308308 52.446686 
L 231.666849 52.98332 
L 232.025389 52.005633 
L 232.383929 52.041508 
L 232.74247 52.502959 
L 233.10101 52.126753 
L 233.45955 52.165643 
L 234.176631 50.719289 
L 234.535172 51.323403 
L 234.893712 50.323832 
L 235.252252 50.479254 
L 235.610793 50.271388 
L 235.969333 49.624266 
L 236.327873 49.728544 
L 236.686414 49.191771 
L 237.044954 49.191882 
L 237.403494 47.453318 
L 237.762035 48.09551 
L 238.120575 48.215936 
L 238.479115 47.608196 
L 239.196196 47.552218 
L 239.554737 47.097791 
L 239.913277 47.004414 
L 240.271817 47.613747 
L 240.630358 47.688235 
L 240.988898 47.640509 
L 241.347438 48.704127 
L 241.705979 48.498463 
L 242.064519 47.351562 
L 242.423059 47.431665 
L 242.7816 48.534004 
L 243.14014 48.391335 
L 243.49868 48.75989 
L 243.857221 47.727111 
L 244.574302 49.683816 
L 245.291382 50.778535 
L 245.649923 50.111313 
L 246.367003 51.110332 
L 246.725544 50.823212 
L 247.084084 51.058252 
L 247.442624 49.773179 
L 248.159705 50.43007 
L 248.518246 49.621733 
L 248.876786 50.114346 
L 249.235326 50.359587 
L 249.593867 49.038782 
L 249.952407 49.249929 
L 250.310947 49.713532 
L 250.669488 49.040282 
L 251.386568 48.999236 
L 251.745109 47.631331 
L 252.103649 46.880664 
L 252.462189 48.123453 
L 252.82073 46.943777 
L 253.17927 47.250668 
L 253.537811 46.943186 
L 254.254891 46.733829 
L 254.613432 46.165112 
L 254.971972 46.457154 
L 255.330512 45.866216 
L 256.047593 46.036686 
L 256.406133 46.360456 
L 256.764674 46.251149 
L 257.123214 45.705326 
L 257.481754 45.916583 
L 257.840295 46.71377 
L 258.198835 46.345575 
L 258.557376 46.185905 
L 258.915916 47.454919 
L 259.274456 46.585051 
L 259.632997 47.295269 
L 259.991537 46.872863 
L 260.708618 48.237226 
L 261.067158 48.26661 
L 261.425698 47.584974 
L 261.784239 47.559738 
L 262.142779 48.14833 
L 262.50132 47.461851 
L 262.85986 48.528262 
L 263.2184 47.769369 
L 263.576941 48.254003 
L 264.294021 47.516568 
L 264.652562 47.828994 
L 265.011102 47.48493 
L 265.369642 46.703717 
L 265.728183 47.286421 
L 266.086723 46.475745 
L 266.445263 47.221859 
L 266.803804 46.289846 
L 267.162344 45.704512 
L 267.520885 47.353903 
L 268.237965 45.645578 
L 268.596506 45.871868 
L 268.955046 45.484113 
L 269.313586 45.82604 
L 269.672127 45.411804 
L 270.030667 45.443196 
L 270.389207 44.764772 
L 270.747748 45.134175 
L 271.106288 45.055401 
L 271.464828 45.372926 
L 272.181909 45.351635 
L 272.54045 44.963515 
L 272.89899 45.33846 
L 273.25753 45.009158 
L 273.616071 44.182118 
L 274.333151 45.279278 
L 274.691692 44.55768 
L 275.408772 45.99982 
L 275.767313 45.481445 
L 276.125853 45.828079 
L 276.484393 45.063186 
L 276.842934 44.819985 
L 277.201474 43.97225 
L 277.560015 44.507343 
L 277.918555 44.664624 
L 278.277095 44.080114 
L 278.635636 45.383806 
L 278.994176 44.15001 
L 279.352716 43.802094 
L 279.711257 44.746174 
L 280.069797 43.444389 
L 280.786878 44.015737 
L 281.145418 43.474763 
L 281.503959 42.675435 
L 281.862499 43.614795 
L 282.221039 43.573901 
L 282.93812 44.110616 
L 283.29666 43.372061 
L 283.655201 44.204631 
L 284.013741 43.841332 
L 284.372281 44.171621 
L 284.730822 43.813819 
L 285.089362 43.970839 
L 285.447902 43.737321 
L 285.806443 44.543515 
L 286.164983 44.518247 
L 286.523524 44.923297 
L 286.882064 44.741356 
L 287.240604 44.411096 
L 287.599145 44.266349 
L 287.957685 45.051805 
L 288.316225 44.20806 
L 288.674766 43.941657 
L 289.033306 44.30769 
L 289.391846 43.532543 
L 289.750387 44.630392 
L 290.467467 44.754131 
L 290.826008 43.029546 
L 291.543089 43.258293 
L 291.901629 42.831513 
L 292.260169 43.196902 
L 292.61871 41.25291 
L 292.97725 42.027965 
L 293.33579 41.742906 
L 293.694331 41.170814 
L 294.411411 40.871235 
L 294.769952 41.105899 
L 295.487032 39.487485 
L 295.845573 39.595039 
L 296.204113 39.377933 
L 296.562654 40.288647 
L 296.921194 40.48915 
L 297.279734 40.111203 
L 297.638275 40.090538 
L 297.996815 39.714164 
L 298.355355 41.144803 
L 298.713896 39.83247 
L 299.072436 40.821657 
L 299.430976 41.181673 
L 300.148057 42.27942 
L 300.506598 41.415654 
L 300.865138 42.046954 
L 301.223678 42.957574 
L 301.582219 43.228967 
L 301.940759 43.036361 
L 302.299299 42.335676 
L 303.01638 44.156796 
L 303.37492 43.692821 
L 303.733461 43.77698 
L 304.092001 44.92047 
L 304.450541 43.669745 
L 304.809082 43.669775 
L 305.526163 42.386413 
L 305.884703 42.483157 
L 306.243243 42.84378 
L 306.601784 42.903158 
L 306.960324 40.835364 
L 307.318864 41.599005 
L 308.035945 40.76904 
L 308.394485 40.211452 
L 309.470106 39.204458 
L 309.828647 38.547439 
L 310.187187 38.392699 
L 310.545728 38.115655 
L 310.904268 37.423314 
L 311.262808 37.324322 
L 311.621349 36.296978 
L 311.979889 38.059786 
L 312.338429 36.229154 
L 312.69697 36.116981 
L 313.05551 37.670737 
L 313.41405 36.94789 
L 313.772591 37.094759 
L 314.131131 37.760097 
L 314.489671 37.703357 
L 314.848212 38.134197 
L 315.206752 37.123548 
L 315.565293 37.843052 
L 315.923833 38.050685 
L 316.282373 38.680576 
L 316.640914 39.916059 
L 316.999454 40.011696 
L 317.357994 39.904841 
L 317.716535 41.036569 
L 318.075075 40.452644 
L 318.433615 41.167396 
L 318.792156 41.460048 
L 319.150696 41.139255 
L 319.509237 41.389878 
L 319.867777 41.831942 
L 320.226317 41.138717 
L 320.584858 42.123112 
L 320.943398 41.225719 
L 321.301938 41.063586 
L 321.660479 41.250789 
L 322.019019 40.672878 
L 322.377559 41.069085 
L 322.7361 39.686885 
L 323.09464 39.786363 
L 323.45318 39.499783 
L 323.811721 38.308614 
L 324.170261 38.641502 
L 324.528802 38.484341 
L 324.887342 38.073752 
L 325.245882 36.606733 
L 325.604423 37.032064 
L 325.962963 35.209496 
L 326.321503 36.599153 
L 326.680044 34.508764 
L 327.038584 34.898621 
L 327.397124 34.794644 
L 327.755665 34.809602 
L 328.114205 34.236918 
L 328.472745 34.359766 
L 328.831286 33.809956 
L 329.189826 34.300467 
L 329.548367 34.3699 
L 329.906907 34.74299 
L 330.623988 34.832468 
L 330.982528 36.018419 
L 331.341068 36.130397 
L 331.699609 35.461961 
L 332.416689 36.515524 
L 333.13377 36.880792 
L 333.49231 37.573198 
L 333.850851 37.941089 
L 334.209391 37.717794 
L 334.567932 38.452202 
L 334.926472 37.962521 
L 335.285012 39.046554 
L 335.643553 37.84559 
L 336.002093 38.117738 
L 336.360633 38.184941 
L 337.077714 37.32756 
L 337.436254 37.459967 
L 337.794795 38.571857 
L 338.870416 36.890144 
L 339.228956 36.343129 
L 339.587497 36.584621 
L 339.946037 35.821681 
L 340.304577 35.914825 
L 340.663118 35.510312 
L 341.021658 35.550153 
L 341.380198 35.014272 
L 341.738739 34.920263 
L 342.097279 34.478785 
L 342.455819 33.300563 
L 342.81436 34.017541 
L 343.1729 32.184798 
L 343.531441 33.030977 
L 343.889981 33.064786 
L 344.248521 33.471891 
L 344.607062 32.708302 
L 344.965602 33.285789 
L 345.324142 32.978559 
L 345.682683 31.891289 
L 346.041223 33.180578 
L 346.399763 32.683049 
L 346.758304 33.63081 
L 347.116844 33.421686 
L 347.475384 32.690806 
L 347.833925 33.903547 
L 348.192465 32.875595 
L 348.909546 34.146755 
L 349.268086 33.661046 
L 349.626627 33.554024 
L 349.985167 33.748124 
L 350.343707 34.774062 
L 351.060788 34.126914 
L 351.419328 33.999598 
L 351.777869 33.612637 
L 352.136409 33.73532 
L 352.494949 34.338343 
L 352.85349 33.436605 
L 353.929111 32.744309 
L 354.646192 32.780839 
L 355.004732 32.90735 
L 355.363272 33.532866 
L 355.721813 32.466535 
L 356.080353 32.481507 
L 356.438893 32.377588 
L 356.797434 33.033093 
L 357.155974 32.89632 
L 357.514515 31.876935 
L 357.873055 32.362377 
L 358.231595 32.020469 
L 358.590136 32.323321 
L 358.948676 32.330448 
L 359.307216 31.922373 
L 359.665757 32.608029 
L 360.024297 32.336167 
L 360.382837 32.600231 
L 361.099918 32.512158 
L 361.458458 32.237184 
L 361.816999 32.514518 
L 362.175539 31.646091 
L 362.53408 32.552484 
L 362.89262 32.114675 
L 363.25116 32.097742 
L 363.609701 31.068286 
L 363.968241 31.466871 
L 364.326781 30.879978 
L 364.685322 31.824302 
L 365.043862 30.777993 
L 365.402402 30.241246 
L 365.760943 30.356581 
L 366.119483 29.639223 
L 366.478023 30.108181 
L 366.836564 28.959228 
L 367.195104 28.299582 
L 367.553645 29.296777 
L 367.912185 29.121154 
L 368.270725 28.053625 
L 368.629266 27.834327 
L 368.987806 28.677812 
L 369.704887 28.417817 
L 370.063427 28.893309 
L 370.421967 28.720784 
L 371.139048 28.818776 
L 371.497588 28.620017 
L 371.856129 28.669785 
L 372.214669 28.265267 
L 372.57321 29.673202 
L 372.93175 29.005689 
L 373.29029 29.822739 
L 373.648831 30.016765 
L 374.007371 29.952096 
L 374.365911 31.046355 
L 374.724452 30.599108 
L 375.082992 30.926013 
L 375.441532 30.973716 
L 375.800073 31.230985 
L 376.158613 30.351548 
L 376.517154 31.857451 
L 377.592775 31.729401 
L 377.951315 31.623823 
L 378.309855 30.578215 
L 378.668396 30.213668 
L 379.026936 30.822982 
L 379.385476 30.582376 
L 379.744017 29.572672 
L 380.102557 29.599759 
L 380.461097 28.5731 
L 380.819638 28.268557 
L 381.178178 28.543589 
L 381.536719 26.600231 
L 381.895259 25.960357 
L 382.253799 26.560399 
L 383.687961 24.213344 
L 384.046501 23.263561 
L 384.405041 24.009727 
L 385.122122 24.23316 
L 385.839203 23.559764 
L 386.197743 22.796166 
L 386.556284 24.015834 
L 386.914824 23.889186 
L 387.273364 24.277105 
L 387.990445 23.810816 
L 388.348985 25.641639 
L 388.707526 26.06865 
L 389.066066 25.824842 
L 389.424606 26.466197 
L 389.783147 26.399148 
L 390.500228 28.311768 
L 390.858768 28.272491 
L 391.217308 28.388814 
L 391.934389 29.211636 
L 392.292929 29.127225 
L 392.65147 29.180978 
L 393.01001 29.106787 
L 393.727091 29.632778 
L 394.085631 29.273156 
L 394.444171 28.491826 
L 394.802712 29.063388 
L 395.161252 28.083975 
L 395.519793 27.944876 
L 395.878333 27.206252 
L 396.236873 26.042216 
L 396.595414 25.926237 
L 396.953954 25.352699 
L 397.312494 25.352173 
L 397.671035 23.728811 
L 398.029575 23.138646 
L 398.388115 21.824193 
L 398.746656 22.388993 
L 399.105196 21.612627 
L 399.463736 21.120146 
L 399.822277 20.089884 
L 400.180817 20.516259 
L 400.897898 19.724393 
L 401.256438 19.805662 
L 401.614979 20.066102 
L 402.332059 19.536701 
L 402.6906 20.706556 
L 403.04914 20.436799 
L 403.40768 21.148862 
L 403.766221 20.651655 
L 404.124761 22.330501 
L 405.200382 22.321688 
L 405.558923 23.563341 
L 405.917463 24.265489 
L 406.276003 23.592382 
L 406.634544 25.552376 
L 406.993084 26.277842 
L 407.351624 25.385047 
L 407.710165 26.089488 
L 408.068705 26.533651 
L 408.427245 25.868425 
L 409.502867 26.747574 
L 409.861407 25.589747 
L 410.219947 25.458901 
L 410.578488 25.504777 
L 410.937028 24.242937 
L 411.295568 25.1746 
L 411.654109 24.921106 
L 412.72973 22.517233 
L 413.08827 22.180194 
L 413.44681 21.345144 
L 413.805351 21.536077 
L 414.163891 19.758908 
L 414.522432 19.962014 
L 414.880972 18.941537 
L 415.239512 18.877546 
L 415.956593 18.082832 
L 416.673674 17.592096 
L 417.032214 17.138601 
L 417.390754 17.587868 
L 417.749295 17.336554 
L 418.107835 17.748785 
L 418.466375 17.137618 
L 418.824916 18.260737 
L 419.183456 17.302132 
L 419.900537 19.269983 
L 420.259077 18.820971 
L 420.617618 19.479757 
L 420.976158 19.065715 
L 421.334698 20.042811 
L 421.693239 20.223554 
L 422.051779 21.149621 
L 422.410319 20.719807 
L 422.76886 21.836489 
L 423.1274 21.618651 
L 423.48594 20.666804 
L 423.844481 20.745838 
L 424.203021 20.960012 
L 424.561562 21.607378 
L 424.920102 21.142066 
L 425.278642 21.038841 
L 425.637183 21.449558 
L 425.995723 20.058238 
L 426.354263 20.153564 
L 426.712804 20.438139 
L 427.429884 19.725849 
L 427.788425 20.486608 
L 428.146965 19.369482 
L 428.864046 19.142434 
L 429.222586 18.531083 
L 429.581127 17.304389 
L 430.298207 17.921966 
L 431.015288 16.622533 
L 431.373828 16.685464 
L 432.090909 17.175297 
L 432.090909 17.175297 
" clip-path="url(#p99e2f1c6b7)" style="fill: none; stroke: #1f77b4; stroke-width: 1.5; stroke-linecap: square"/>
   </g>
   <g id="patch_3">
    <path d="M 56 63.959633 
L 56 14.368386 
" style="fill: none; stroke: #000000; stroke-width: 0.8; stroke-linejoin: miter; stroke-linecap: square"/>
   </g>
   <g id="patch_4">
    <path d="M 450 63.959633 
L 450 14.368386 
" style="fill: none; stroke: #000000; stroke-width: 0.8; stroke-linejoin: miter; stroke-linecap: square"/>
   </g>
   <g id="patch_5">
    <path d="M 56 63.959633 
L 450 63.959633 
" style="fill: none; stroke: #000000; stroke-width: 0.8; stroke-linejoin: miter; stroke-linecap: square"/>
   </g>
   <g id="patch_6">
    <path d="M 56 14.368386 
L 450 14.368386 
" style="fill: none; stroke: #000000; stroke-width: 0.8; stroke-linejoin: miter; stroke-linecap: square"/>
   </g>
  </g>
  <g id="axes_2">
   <g id="patch_7">
    <path d="M 56 143.853088 
L 450 143.853088 
L 450 94.261841 
L 56 94.261841 
z
" style="fill: #ffffff"/>
   </g>
   <g id="matplotlib.axis_3">
    <g id="xtick_7">
     <g id="line2d_10">
      <g>
       <use xlink:href="#mbcb02aef95" x="73.909091" y="143.853088" style="stroke: #000000; stroke-width: 0.8"/>
      </g>
     </g>
     <g id="text_10">
      <!-- 0 -->
      <g transform="translate(70.727841 158.451526) scale(0.1 -0.1)">
       <use xlink:href="#DejaVuSans-30"/>
      </g>
     </g>
    </g>
    <g id="xtick_8">
     <g id="line2d_11">
      <g>
       <use xlink:href="#mbcb02aef95" x="145.617163" y="143.853088" style="stroke: #000000; stroke-width: 0.8"/>
      </g>
     </g>
     <g id="text_11">
      <!-- 200 -->
      <g transform="translate(136.073413 158.451526) scale(0.1 -0.1)">
       <use xlink:href="#DejaVuSans-32"/>
       <use xlink:href="#DejaVuSans-30" x="63.623047"/>
       <use xlink:href="#DejaVuSans-30" x="127.246094"/>
      </g>
     </g>
    </g>
    <g id="xtick_9">
     <g id="line2d_12">
      <g>
       <use xlink:href="#mbcb02aef95" x="217.325234" y="143.853088" style="stroke: #000000; stroke-width: 0.8"/>
      </g>
     </g>
     <g id="text_12">
      <!-- 400 -->
      <g transform="translate(207.781484 158.451526) scale(0.1 -0.1)">
       <use xlink:href="#DejaVuSans-34"/>
       <use xlink:href="#DejaVuSans-30" x="63.623047"/>
       <use xlink:href="#DejaVuSans-30" x="127.246094"/>
      </g>
     </g>
    </g>
    <g id="xtick_10">
     <g id="line2d_13">
      <g>
       <use xlink:href="#mbcb02aef95" x="289.033306" y="143.853088" style="stroke: #000000; stroke-width: 0.8"/>
      </g>
     </g>
     <g id="text_13">
      <!-- 600 -->
      <g transform="translate(279.489556 158.451526) scale(0.1 -0.1)">
       <use xlink:href="#DejaVuSans-36"/>
       <use xlink:href="#DejaVuSans-30" x="63.623047"/>
       <use xlink:href="#DejaVuSans-30" x="127.246094"/>
      </g>
     </g>
    </g>
    <g id="xtick_11">
     <g id="line2d_14">
      <g>
       <use xlink:href="#mbcb02aef95" x="360.741378" y="143.853088" style="stroke: #000000; stroke-width: 0.8"/>
      </g>
     </g>
     <g id="text_14">
      <!-- 800 -->
      <g transform="translate(351.197628 158.451526) scale(0.1 -0.1)">
       <use xlink:href="#DejaVuSans-38"/>
       <use xlink:href="#DejaVuSans-30" x="63.623047"/>
       <use xlink:href="#DejaVuSans-30" x="127.246094"/>
      </g>
     </g>
    </g>
    <g id="xtick_12">
     <g id="line2d_15">
      <g>
       <use xlink:href="#mbcb02aef95" x="432.449449" y="143.853088" style="stroke: #000000; stroke-width: 0.8"/>
      </g>
     </g>
     <g id="text_15">
      <!-- 1000 -->
      <g transform="translate(419.724449 158.451526) scale(0.1 -0.1)">
       <use xlink:href="#DejaVuSans-31"/>
       <use xlink:href="#DejaVuSans-30" x="63.623047"/>
       <use xlink:href="#DejaVuSans-30" x="127.246094"/>
       <use xlink:href="#DejaVuSans-30" x="190.869141"/>
      </g>
     </g>
    </g>
   </g>
   <g id="matplotlib.axis_4">
    <g id="ytick_3">
     <g id="line2d_16">
      <g>
       <use xlink:href="#me5179b328b" x="56" y="141.598941" style="stroke: #000000; stroke-width: 0.8"/>
      </g>
     </g>
     <g id="text_16">
      <!-- 0 -->
      <g transform="translate(42.6375 145.39816) scale(0.1 -0.1)">
       <use xlink:href="#DejaVuSans-30"/>
      </g>
     </g>
    </g>
    <g id="ytick_4">
     <g id="line2d_17">
      <g>
       <use xlink:href="#me5179b328b" x="56" y="117.555611" style="stroke: #000000; stroke-width: 0.8"/>
      </g>
     </g>
     <g id="text_17">
      <!-- 25 -->
      <g transform="translate(36.275 121.35483) scale(0.1 -0.1)">
       <use xlink:href="#DejaVuSans-32"/>
       <use xlink:href="#DejaVuSans-35" x="63.623047"/>
      </g>
     </g>
    </g>
    <g id="text_18">
     <!-- Trend -->
     <g transform="translate(30.195313 132.736371) rotate(-90) scale(0.1 -0.1)">
      <defs>
       <path id="DejaVuSans-54" d="M -19 4666 
L 3928 4666 
L 3928 4134 
L 2272 4134 
L 2272 0 
L 1638 0 
L 1638 4134 
L -19 4134 
L -19 4666 
z
" transform="scale(0.015625)"/>
       <path id="DejaVuSans-6e" d="M 3513 2113 
L 3513 0 
L 2938 0 
L 2938 2094 
Q 2938 2591 2744 2837 
Q 2550 3084 2163 3084 
Q 1697 3084 1428 2787 
Q 1159 2491 1159 1978 
L 1159 0 
L 581 0 
L 581 3500 
L 1159 3500 
L 1159 2956 
Q 1366 3272 1645 3428 
Q 1925 3584 2291 3584 
Q 2894 3584 3203 3211 
Q 3513 2838 3513 2113 
z
" transform="scale(0.015625)"/>
       <path id="DejaVuSans-64" d="M 2906 2969 
L 2906 4863 
L 3481 4863 
L 3481 0 
L 2906 0 
L 2906 525 
Q 2725 213 2448 61 
Q 2172 -91 1784 -91 
Q 1150 -91 751 415 
Q 353 922 353 1747 
Q 353 2572 751 3078 
Q 1150 3584 1784 3584 
Q 2172 3584 2448 3432 
Q 2725 3281 2906 2969 
z
M 947 1747 
Q 947 1113 1208 752 
Q 1469 391 1925 391 
Q 2381 391 2643 752 
Q 2906 1113 2906 1747 
Q 2906 2381 2643 2742 
Q 2381 3103 1925 3103 
Q 1469 3103 1208 2742 
Q 947 2381 947 1747 
z
" transform="scale(0.015625)"/>
      </defs>
      <use xlink:href="#DejaVuSans-54"/>
      <use xlink:href="#DejaVuSans-72" x="46.333984"/>
      <use xlink:href="#DejaVuSans-65" x="85.197266"/>
      <use xlink:href="#DejaVuSans-6e" x="146.720703"/>
      <use xlink:href="#DejaVuSans-64" x="210.099609"/>
     </g>
    </g>
   </g>
   <g id="line2d_18">
    <path d="M 73.909091 141.598941 
L 93.987351 140.973953 
L 114.065611 140.123043 
L 134.143871 139.046211 
L 154.222131 137.743456 
L 174.300391 136.214779 
L 194.378651 134.46018 
L 214.456911 132.479659 
L 234.535172 130.273215 
L 254.613432 127.840849 
L 274.691692 125.182561 
L 294.769952 122.298351 
L 314.848212 119.188218 
L 334.926472 115.852164 
L 355.004732 112.290186 
L 375.082992 108.502287 
L 395.161252 104.488466 
L 415.239512 100.248722 
L 432.090909 96.515989 
L 432.090909 96.515989 
" clip-path="url(#pe744d9452a)" style="fill: none; stroke: #1f77b4; stroke-width: 1.5; stroke-linecap: square"/>
   </g>
   <g id="patch_8">
    <path d="M 56 143.853088 
L 56 94.261841 
" style="fill: none; stroke: #000000; stroke-width: 0.8; stroke-linejoin: miter; stroke-linecap: square"/>
   </g>
   <g id="patch_9">
    <path d="M 450 143.853088 
L 450 94.261841 
" style="fill: none; stroke: #000000; stroke-width: 0.8; stroke-linejoin: miter; stroke-linecap: square"/>
   </g>
   <g id="patch_10">
    <path d="M 56 143.853088 
L 450 143.853088 
" style="fill: none; stroke: #000000; stroke-width: 0.8; stroke-linejoin: miter; stroke-linecap: square"/>
   </g>
   <g id="patch_11">
    <path d="M 56 94.261841 
L 450 94.261841 
" style="fill: none; stroke: #000000; stroke-width: 0.8; stroke-linejoin: miter; stroke-linecap: square"/>
   </g>
  </g>
  <g id="axes_3">
   <g id="patch_12">
    <path d="M 56 223.746544 
L 450 223.746544 
L 450 174.155297 
L 56 174.155297 
z
" style="fill: #ffffff"/>
   </g>
   <g id="matplotlib.axis_5">
    <g id="xtick_13">
     <g id="line2d_19">
      <g>
       <use xlink:href="#mbcb02aef95" x="73.909091" y="223.746544" style="stroke: #000000; stroke-width: 0.8"/>
      </g>
     </g>
     <g id="text_19">
      <!-- 0 -->
      <g transform="translate(70.727841 238.344982) scale(0.1 -0.1)">
       <use xlink:href="#DejaVuSans-30"/>
      </g>
     </g>
    </g>
    <g id="xtick_14">
     <g id="line2d_20">
      <g>
       <use xlink:href="#mbcb02aef95" x="145.617163" y="223.746544" style="stroke: #000000; stroke-width: 0.8"/>
      </g>
     </g>
     <g id="text_20">
      <!-- 200 -->
      <g transform="translate(136.073413 238.344982) scale(0.1 -0.1)">
       <use xlink:href="#DejaVuSans-32"/>
       <use xlink:href="#DejaVuSans-30" x="63.623047"/>
       <use xlink:href="#DejaVuSans-30" x="127.246094"/>
      </g>
     </g>
    </g>
    <g id="xtick_15">
     <g id="line2d_21">
      <g>
       <use xlink:href="#mbcb02aef95" x="217.325234" y="223.746544" style="stroke: #000000; stroke-width: 0.8"/>
      </g>
     </g>
     <g id="text_21">
      <!-- 400 -->
      <g transform="translate(207.781484 238.344982) scale(0.1 -0.1)">
       <use xlink:href="#DejaVuSans-34"/>
       <use xlink:href="#DejaVuSans-30" x="63.623047"/>
       <use xlink:href="#DejaVuSans-30" x="127.246094"/>
      </g>
     </g>
    </g>
    <g id="xtick_16">
     <g id="line2d_22">
      <g>
       <use xlink:href="#mbcb02aef95" x="289.033306" y="223.746544" style="stroke: #000000; stroke-width: 0.8"/>
      </g>
     </g>
     <g id="text_22">
      <!-- 600 -->
      <g transform="translate(279.489556 238.344982) scale(0.1 -0.1)">
       <use xlink:href="#DejaVuSans-36"/>
       <use xlink:href="#DejaVuSans-30" x="63.623047"/>
       <use xlink:href="#DejaVuSans-30" x="127.246094"/>
      </g>
     </g>
    </g>
    <g id="xtick_17">
     <g id="line2d_23">
      <g>
       <use xlink:href="#mbcb02aef95" x="360.741378" y="223.746544" style="stroke: #000000; stroke-width: 0.8"/>
      </g>
     </g>
     <g id="text_23">
      <!-- 800 -->
      <g transform="translate(351.197628 238.344982) scale(0.1 -0.1)">
       <use xlink:href="#DejaVuSans-38"/>
       <use xlink:href="#DejaVuSans-30" x="63.623047"/>
       <use xlink:href="#DejaVuSans-30" x="127.246094"/>
      </g>
     </g>
    </g>
    <g id="xtick_18">
     <g id="line2d_24">
      <g>
       <use xlink:href="#mbcb02aef95" x="432.449449" y="223.746544" style="stroke: #000000; stroke-width: 0.8"/>
      </g>
     </g>
     <g id="text_24">
      <!-- 1000 -->
      <g transform="translate(419.724449 238.344982) scale(0.1 -0.1)">
       <use xlink:href="#DejaVuSans-31"/>
       <use xlink:href="#DejaVuSans-30" x="63.623047"/>
       <use xlink:href="#DejaVuSans-30" x="127.246094"/>
       <use xlink:href="#DejaVuSans-30" x="190.869141"/>
      </g>
     </g>
    </g>
   </g>
   <g id="matplotlib.axis_6">
    <g id="ytick_5">
     <g id="line2d_25">
      <g>
       <use xlink:href="#me5179b328b" x="56" y="211.813072" style="stroke: #000000; stroke-width: 0.8"/>
      </g>
     </g>
     <g id="text_25">
      <!-- −2.5 -->
      <g transform="translate(24.717188 215.612291) scale(0.1 -0.1)">
       <defs>
        <path id="DejaVuSans-2212" d="M 678 2272 
L 4684 2272 
L 4684 1741 
L 678 1741 
L 678 2272 
z
" transform="scale(0.015625)"/>
        <path id="DejaVuSans-2e" d="M 684 794 
L 1344 794 
L 1344 0 
L 684 0 
L 684 794 
z
" transform="scale(0.015625)"/>
       </defs>
       <use xlink:href="#DejaVuSans-2212"/>
       <use xlink:href="#DejaVuSans-32" x="83.789062"/>
       <use xlink:href="#DejaVuSans-2e" x="147.412109"/>
       <use xlink:href="#DejaVuSans-35" x="179.199219"/>
      </g>
     </g>
    </g>
    <g id="ytick_6">
     <g id="line2d_26">
      <g>
       <use xlink:href="#me5179b328b" x="56" y="199.149951" style="stroke: #000000; stroke-width: 0.8"/>
      </g>
     </g>
     <g id="text_26">
      <!-- 0.0 -->
      <g transform="translate(33.096875 202.94917) scale(0.1 -0.1)">
       <use xlink:href="#DejaVuSans-30"/>
       <use xlink:href="#DejaVuSans-2e" x="63.623047"/>
       <use xlink:href="#DejaVuSans-30" x="95.410156"/>
      </g>
     </g>
    </g>
    <g id="ytick_7">
     <g id="line2d_27">
      <g>
       <use xlink:href="#me5179b328b" x="56" y="186.48683" style="stroke: #000000; stroke-width: 0.8"/>
      </g>
     </g>
     <g id="text_27">
      <!-- 2.5 -->
      <g transform="translate(33.096875 190.286049) scale(0.1 -0.1)">
       <use xlink:href="#DejaVuSans-32"/>
       <use xlink:href="#DejaVuSans-2e" x="63.623047"/>
       <use xlink:href="#DejaVuSans-35" x="95.410156"/>
      </g>
     </g>
    </g>
    <g id="text_28">
     <!-- Season -->
     <g transform="translate(18.6375 217.098577) rotate(-90) scale(0.1 -0.1)">
      <defs>
       <path id="DejaVuSans-61" d="M 2194 1759 
Q 1497 1759 1228 1600 
Q 959 1441 959 1056 
Q 959 750 1161 570 
Q 1363 391 1709 391 
Q 2188 391 2477 730 
Q 2766 1069 2766 1631 
L 2766 1759 
L 2194 1759 
z
M 3341 1997 
L 3341 0 
L 2766 0 
L 2766 531 
Q 2569 213 2275 61 
Q 1981 -91 1556 -91 
Q 1019 -91 701 211 
Q 384 513 384 1019 
Q 384 1609 779 1909 
Q 1175 2209 1959 2209 
L 2766 2209 
L 2766 2266 
Q 2766 2663 2505 2880 
Q 2244 3097 1772 3097 
Q 1472 3097 1187 3025 
Q 903 2953 641 2809 
L 641 3341 
Q 956 3463 1253 3523 
Q 1550 3584 1831 3584 
Q 2591 3584 2966 3190 
Q 3341 2797 3341 1997 
z
" transform="scale(0.015625)"/>
       <path id="DejaVuSans-6f" d="M 1959 3097 
Q 1497 3097 1228 2736 
Q 959 2375 959 1747 
Q 959 1119 1226 758 
Q 1494 397 1959 397 
Q 2419 397 2687 759 
Q 2956 1122 2956 1747 
Q 2956 2369 2687 2733 
Q 2419 3097 1959 3097 
z
M 1959 3584 
Q 2709 3584 3137 3096 
Q 3566 2609 3566 1747 
Q 3566 888 3137 398 
Q 2709 -91 1959 -91 
Q 1206 -91 779 398 
Q 353 888 353 1747 
Q 353 2609 779 3096 
Q 1206 3584 1959 3584 
z
" transform="scale(0.015625)"/>
      </defs>
      <use xlink:href="#DejaVuSans-53"/>
      <use xlink:href="#DejaVuSans-65" x="63.476562"/>
      <use xlink:href="#DejaVuSans-61" x="125"/>
      <use xlink:href="#DejaVuSans-73" x="186.279297"/>
      <use xlink:href="#DejaVuSans-6f" x="238.378906"/>
      <use xlink:href="#DejaVuSans-6e" x="299.560547"/>
     </g>
    </g>
   </g>
   <g id="line2d_28">
    <path d="M 73.909091 199.149951 
L 76.060333 199.037591 
L 79.287196 198.827363 
L 81.079898 198.980854 
L 83.23114 199.434966 
L 85.382382 199.857502 
L 86.816544 199.912268 
L 88.250705 199.709532 
L 90.043407 199.161599 
L 92.55319 198.34163 
L 93.987351 198.14489 
L 95.062972 198.202467 
L 96.497133 198.537699 
L 101.158158 200.012875 
L 102.233779 200.05195 
L 103.667941 199.858385 
L 106.177723 199.167745 
L 107.970425 198.787863 
L 109.404586 198.707383 
L 111.197288 198.857562 
L 114.065611 199.147956 
L 115.858313 199.045547 
L 119.802257 198.559152 
L 120.877878 198.674668 
L 121.953499 198.972989 
L 123.38766 199.602023 
L 125.538903 200.606258 
L 126.614524 200.871419 
L 127.331604 200.884339 
L 128.048685 200.742818 
L 129.124306 200.233187 
L 130.199927 199.41301 
L 133.42679 196.554094 
L 134.143871 196.207176 
L 134.860952 196.077616 
L 135.578033 196.193914 
L 136.295113 196.564769 
L 137.012194 197.176963 
L 138.087815 198.464796 
L 141.314678 202.77008 
L 142.031759 203.288941 
L 142.74884 203.499943 
L 143.46592 203.37026 
L 144.183001 202.894395 
L 144.900082 202.095858 
L 145.975703 200.41311 
L 148.844026 195.275831 
L 149.561107 194.414331 
L 150.278187 193.902783 
L 150.995268 193.792871 
L 151.712349 194.10446 
L 152.429429 194.823098 
L 153.14651 195.900401 
L 154.222131 198.009026 
L 156.731914 203.220439 
L 157.448994 204.241353 
L 158.166075 204.874016 
L 158.883156 205.063848 
L 159.241696 204.985335 
L 159.958777 204.487285 
L 160.675858 203.569408 
L 161.751479 201.5703 
L 164.978342 194.762007 
L 165.695423 193.865474 
L 166.412503 193.388979 
L 166.771044 193.320169 
L 167.129584 193.366022 
L 167.846665 193.79268 
L 168.563746 194.628309 
L 169.280826 195.799373 
L 170.714988 198.731031 
L 172.149149 201.640651 
L 172.86623 202.796182 
L 173.583311 203.630814 
L 174.300391 204.088173 
L 175.017472 204.144996 
L 175.734553 203.812181 
L 176.451633 203.132815 
L 177.527255 201.623996 
L 180.395577 197.060935 
L 181.112658 196.305693 
L 181.829739 195.831998 
L 182.54682 195.658972 
L 183.2639 195.777594 
L 183.980981 196.15303 
L 185.056602 197.071134 
L 187.924925 199.850775 
L 188.642006 200.270069 
L 189.359086 200.50697 
L 190.076167 200.562552 
L 191.151788 200.359067 
L 194.737192 199.159599 
L 195.812813 199.225515 
L 196.888434 199.56508 
L 199.756757 200.777774 
L 200.473837 200.840521 
L 201.190918 200.707404 
L 201.907999 200.356534 
L 202.62508 199.790286 
L 203.700701 198.606424 
L 206.210483 195.512436 
L 206.927564 194.953701 
L 207.644645 194.699922 
L 208.361725 194.810118 
L 209.078806 195.313295 
L 209.795887 196.203203 
L 210.512968 197.436243 
L 211.588589 199.746586 
L 213.38129 203.798171 
L 214.098371 205.075132 
L 214.815452 205.954045 
L 215.532533 206.332172 
L 215.891073 206.31141 
L 216.249613 206.144503 
L 216.966694 205.3717 
L 217.683775 204.044273 
L 218.400855 202.242438 
L 219.835017 197.752969 
L 221.269178 193.262891 
L 221.986259 191.491413 
L 222.70334 190.259662 
L 223.06188 189.886482 
L 223.42042 189.690586 
L 223.778961 189.679281 
L 224.137501 189.85615 
L 224.496041 190.220921 
L 225.213122 191.493539 
L 225.930203 193.417748 
L 227.005824 197.215042 
L 229.515607 206.731702 
L 230.232687 208.622749 
L 230.949768 209.805393 
L 231.308308 210.094613 
L 231.666849 210.17085 
L 232.025389 210.030746 
L 232.383929 209.675347 
L 233.10101 208.344859 
L 233.818091 206.273998 
L 234.893712 202.135427 
L 237.403494 191.65082 
L 238.120575 189.523022 
L 238.837656 188.141289 
L 239.196196 187.767609 
L 239.554737 187.616885 
L 239.913277 187.692097 
L 240.271817 187.99162 
L 240.630358 188.50925 
L 241.347438 190.15204 
L 242.064519 192.486672 
L 243.14014 196.860354 
L 244.932842 204.479518 
L 245.649923 206.936434 
L 246.367003 208.751666 
L 247.084084 209.791367 
L 247.442624 209.996198 
L 247.801165 209.986792 
L 248.159705 209.765504 
L 248.518246 209.339021 
L 249.235326 207.917705 
L 249.952407 205.85401 
L 251.028028 201.958466 
L 252.82073 195.171059 
L 253.537811 192.984065 
L 254.254891 191.360141 
L 254.971972 190.407141 
L 255.330512 190.199757 
L 255.689053 190.17338 
L 256.047593 190.324408 
L 256.406133 190.645557 
L 257.123214 191.752133 
L 257.840295 193.371707 
L 259.274456 197.492814 
L 260.708618 201.575501 
L 261.425698 203.188174 
L 262.142779 204.355766 
L 262.85986 205.014553 
L 263.2184 205.146767 
L 263.576941 205.150281 
L 264.294021 204.796665 
L 265.011102 204.02942 
L 266.086723 202.34504 
L 268.237965 198.658923 
L 268.955046 197.761354 
L 269.672127 197.154507 
L 270.389207 196.860129 
L 271.106288 196.862405 
L 271.823369 197.111972 
L 272.89899 197.780558 
L 274.333151 198.734883 
L 275.050232 199.043838 
L 275.767313 199.158881 
L 276.484393 199.055078 
L 277.201474 198.741474 
L 278.277095 197.978652 
L 280.069797 196.619567 
L 280.786878 196.334001 
L 281.503959 196.330168 
L 282.221039 196.665694 
L 282.93812 197.362465 
L 283.655201 198.401101 
L 284.730822 200.453763 
L 286.882064 204.830317 
L 287.599145 205.818751 
L 288.316225 206.334044 
L 288.674766 206.381035 
L 289.033306 206.275314 
L 289.391846 206.011683 
L 290.108927 205.007654 
L 290.826008 203.400086 
L 291.901629 200.070358 
L 294.769952 190.150415 
L 295.487032 188.618715 
L 295.845573 188.131639 
L 296.204113 187.85318 
L 296.562654 187.795435 
L 296.921194 187.966057 
L 297.279734 188.367975 
L 297.996815 189.852825 
L 298.713896 192.174789 
L 299.789517 196.878531 
L 302.299299 209.118565 
L 303.01638 211.640087 
L 303.733461 213.257863 
L 304.092001 213.67325 
L 304.450541 213.807188 
L 304.809082 213.652312 
L 305.167622 213.207142 
L 305.526163 212.476205 
L 306.243243 210.204966 
L 306.960324 206.991268 
L 308.035945 200.935595 
L 310.187187 188.386651 
L 310.904268 185.319962 
L 311.621349 183.288767 
L 311.979889 182.721282 
L 312.338429 182.472792 
L 312.69697 182.550529 
L 313.05551 182.955101 
L 313.41405 183.680437 
L 314.131131 186.036387 
L 314.848212 189.443007 
L 315.923833 195.929726 
L 318.075075 209.503995 
L 318.792156 212.880741 
L 319.509237 215.186193 
L 319.867777 215.876456 
L 320.226317 216.238369 
L 320.584858 216.265213 
L 320.943398 215.957104 
L 321.301938 215.320981 
L 322.019019 213.125481 
L 322.7361 209.861262 
L 323.811721 203.564628 
L 325.962963 190.259611 
L 326.680044 186.904234 
L 327.397124 184.560748 
L 327.755665 183.824142 
L 328.114205 183.395256 
L 328.472745 183.279326 
L 328.831286 183.475112 
L 329.189826 183.974986 
L 329.548367 184.76516 
L 330.265447 187.132702 
L 330.982528 190.360634 
L 332.416689 198.232577 
L 333.850851 205.825675 
L 334.567932 208.765776 
L 335.285012 210.835869 
L 335.643553 211.501156 
L 336.002093 211.907586 
L 336.360633 212.052909 
L 336.719174 211.940434 
L 337.077714 211.578853 
L 337.436254 210.981939 
L 338.153335 209.160102 
L 338.870416 206.669043 
L 340.663118 199.143866 
L 341.738739 195.030439 
L 342.455819 192.914455 
L 343.1729 191.466798 
L 343.531441 191.017495 
L 343.889981 190.755083 
L 344.248521 190.676991 
L 344.607062 190.776474 
L 344.965602 191.042909 
L 345.682683 192.017079 
L 346.399763 193.453074 
L 349.626627 200.820229 
L 350.343707 201.743563 
L 351.060788 202.230955 
L 351.777869 202.296534 
L 352.494949 202.002831 
L 353.570571 201.116538 
L 355.004732 199.779059 
L 355.721813 199.322328 
L 356.438893 199.128408 
L 357.155974 199.23903 
L 357.873055 199.648723 
L 358.948676 200.697069 
L 360.741378 202.667374 
L 361.458458 203.131352 
L 362.175539 203.217161 
L 362.53408 203.089164 
L 363.25116 202.458348 
L 363.968241 201.323768 
L 364.685322 199.732374 
L 365.760943 196.733195 
L 367.553645 191.590717 
L 368.270725 190.099889 
L 368.987806 189.233799 
L 369.346346 189.083967 
L 369.704887 189.141875 
L 370.063427 189.416362 
L 370.421967 189.911517 
L 371.139048 191.554959 
L 371.856129 194.002764 
L 372.93175 198.834465 
L 375.441532 210.929855 
L 376.158613 213.228431 
L 376.517154 214.011524 
L 376.875694 214.516851 
L 377.234234 214.725726 
L 377.592775 214.625374 
L 377.951315 214.209358 
L 378.309855 213.477864 
L 379.026936 211.103065 
L 379.744017 207.636909 
L 380.819638 200.93092 
L 382.97088 186.516207 
L 383.687961 182.868617 
L 384.405041 180.390065 
L 384.763582 179.66902 
L 385.122122 179.322976 
L 385.480662 179.364849 
L 385.839203 179.799686 
L 386.197743 180.624459 
L 386.914824 183.391207 
L 387.631905 187.481962 
L 388.707526 195.424339 
L 390.858768 212.525673 
L 391.575849 216.901475 
L 392.292929 219.95027 
L 392.65147 220.889875 
L 393.01001 221.408264 
L 393.36855 221.492397 
L 393.727091 221.13803 
L 394.085631 220.349857 
L 394.444171 219.141454 
L 395.161252 215.561069 
L 395.878333 210.66954 
L 397.312494 198.555808 
L 398.746656 186.554509 
L 399.463736 181.800232 
L 400.180817 178.405684 
L 400.539358 177.306429 
L 400.897898 176.636884 
L 401.256438 176.409445 
L 401.614979 176.627477 
L 401.973519 177.285267 
L 402.332059 178.368167 
L 403.04914 181.708181 
L 403.766221 186.368571 
L 405.200382 198.04621 
L 406.634544 209.707772 
L 407.351624 214.374201 
L 408.068705 217.767556 
L 408.427245 218.906232 
L 408.785786 219.645455 
L 409.144326 219.975042 
L 409.502867 219.893327 
L 409.861407 219.407101 
L 410.219947 218.531387 
L 410.937028 215.710091 
L 411.654109 211.694654 
L 412.72973 204.226042 
L 414.522432 191.444118 
L 415.239512 187.39811 
L 415.956593 184.439676 
L 416.315133 183.431629 
L 416.673674 182.757521 
L 417.032214 182.423105 
L 417.390754 182.426838 
L 417.749295 182.760055 
L 418.107835 183.407311 
L 418.824916 185.551261 
L 419.541997 188.620929 
L 420.976158 196.288333 
L 422.410319 203.738664 
L 423.1274 206.630742 
L 423.844481 208.687779 
L 424.203021 209.366949 
L 424.561562 209.805352 
L 424.920102 210.004238 
L 425.278642 209.970355 
L 425.637183 209.715613 
L 425.995723 209.256636 
L 426.712804 207.812605 
L 427.788425 204.733006 
L 429.581127 199.144602 
L 430.298207 197.37771 
L 431.015288 196.102225 
L 431.732369 195.380264 
L 432.090909 195.227338 
L 432.090909 195.227338 
" clip-path="url(#p4963caa3cd)" style="fill: none; stroke: #1f77b4; stroke-width: 1.5; stroke-linecap: square"/>
   </g>
   <g id="patch_13">
    <path d="M 56 223.746544 
L 56 174.155297 
" style="fill: none; stroke: #000000; stroke-width: 0.8; stroke-linejoin: miter; stroke-linecap: square"/>
   </g>
   <g id="patch_14">
    <path d="M 450 223.746544 
L 450 174.155297 
" style="fill: none; stroke: #000000; stroke-width: 0.8; stroke-linejoin: miter; stroke-linecap: square"/>
   </g>
   <g id="patch_15">
    <path d="M 56 223.746544 
L 450 223.746544 
" style="fill: none; stroke: #000000; stroke-width: 0.8; stroke-linejoin: miter; stroke-linecap: square"/>
   </g>
   <g id="patch_16">
    <path d="M 56 174.155297 
L 450 174.155297 
" style="fill: none; stroke: #000000; stroke-width: 0.8; stroke-linejoin: miter; stroke-linecap: square"/>
   </g>
  </g>
  <g id="axes_4">
   <g id="patch_17">
    <path d="M 56 303.64 
L 450 303.64 
L 450 254.048753 
L 56 254.048753 
z
" style="fill: #ffffff"/>
   </g>
   <g id="matplotlib.axis_7">
    <g id="xtick_19">
     <g id="line2d_29">
      <g>
       <use xlink:href="#mbcb02aef95" x="73.909091" y="303.64" style="stroke: #000000; stroke-width: 0.8"/>
      </g>
     </g>
     <g id="text_29">
      <!-- 0 -->
      <g transform="translate(70.727841 318.238438) scale(0.1 -0.1)">
       <use xlink:href="#DejaVuSans-30"/>
      </g>
     </g>
    </g>
    <g id="xtick_20">
     <g id="line2d_30">
      <g>
       <use xlink:href="#mbcb02aef95" x="145.617163" y="303.64" style="stroke: #000000; stroke-width: 0.8"/>
      </g>
     </g>
     <g id="text_30">
      <!-- 200 -->
      <g transform="translate(136.073413 318.238438) scale(0.1 -0.1)">
       <use xlink:href="#DejaVuSans-32"/>
       <use xlink:href="#DejaVuSans-30" x="63.623047"/>
       <use xlink:href="#DejaVuSans-30" x="127.246094"/>
      </g>
     </g>
    </g>
    <g id="xtick_21">
     <g id="line2d_31">
      <g>
       <use xlink:href="#mbcb02aef95" x="217.325234" y="303.64" style="stroke: #000000; stroke-width: 0.8"/>
      </g>
     </g>
     <g id="text_31">
      <!-- 400 -->
      <g transform="translate(207.781484 318.238438) scale(0.1 -0.1)">
       <use xlink:href="#DejaVuSans-34"/>
       <use xlink:href="#DejaVuSans-30" x="63.623047"/>
       <use xlink:href="#DejaVuSans-30" x="127.246094"/>
      </g>
     </g>
    </g>
    <g id="xtick_22">
     <g id="line2d_32">
      <g>
       <use xlink:href="#mbcb02aef95" x="289.033306" y="303.64" style="stroke: #000000; stroke-width: 0.8"/>
      </g>
     </g>
     <g id="text_32">
      <!-- 600 -->
      <g transform="translate(279.489556 318.238438) scale(0.1 -0.1)">
       <use xlink:href="#DejaVuSans-36"/>
       <use xlink:href="#DejaVuSans-30" x="63.623047"/>
       <use xlink:href="#DejaVuSans-30" x="127.246094"/>
      </g>
     </g>
    </g>
    <g id="xtick_23">
     <g id="line2d_33">
      <g>
       <use xlink:href="#mbcb02aef95" x="360.741378" y="303.64" style="stroke: #000000; stroke-width: 0.8"/>
      </g>
     </g>
     <g id="text_33">
      <!-- 800 -->
      <g transform="translate(351.197628 318.238438) scale(0.1 -0.1)">
       <use xlink:href="#DejaVuSans-38"/>
       <use xlink:href="#DejaVuSans-30" x="63.623047"/>
       <use xlink:href="#DejaVuSans-30" x="127.246094"/>
      </g>
     </g>
    </g>
    <g id="xtick_24">
     <g id="line2d_34">
      <g>
       <use xlink:href="#mbcb02aef95" x="432.449449" y="303.64" style="stroke: #000000; stroke-width: 0.8"/>
      </g>
     </g>
     <g id="text_34">
      <!-- 1000 -->
      <g transform="translate(419.724449 318.238438) scale(0.1 -0.1)">
       <use xlink:href="#DejaVuSans-31"/>
       <use xlink:href="#DejaVuSans-30" x="63.623047"/>
       <use xlink:href="#DejaVuSans-30" x="127.246094"/>
       <use xlink:href="#DejaVuSans-30" x="190.869141"/>
      </g>
     </g>
    </g>
    <g id="text_35">
     <!-- Time -->
     <g transform="translate(240.766406 331.916562) scale(0.1 -0.1)">
      <defs>
       <path id="DejaVuSans-6d" d="M 3328 2828 
Q 3544 3216 3844 3400 
Q 4144 3584 4550 3584 
Q 5097 3584 5394 3201 
Q 5691 2819 5691 2113 
L 5691 0 
L 5113 0 
L 5113 2094 
Q 5113 2597 4934 2840 
Q 4756 3084 4391 3084 
Q 3944 3084 3684 2787 
Q 3425 2491 3425 1978 
L 3425 0 
L 2847 0 
L 2847 2094 
Q 2847 2600 2669 2842 
Q 2491 3084 2119 3084 
Q 1678 3084 1418 2786 
Q 1159 2488 1159 1978 
L 1159 0 
L 581 0 
L 581 3500 
L 1159 3500 
L 1159 2956 
Q 1356 3278 1631 3431 
Q 1906 3584 2284 3584 
Q 2666 3584 2933 3390 
Q 3200 3197 3328 2828 
z
" transform="scale(0.015625)"/>
      </defs>
      <use xlink:href="#DejaVuSans-54"/>
      <use xlink:href="#DejaVuSans-69" x="57.958984"/>
      <use xlink:href="#DejaVuSans-6d" x="85.742188"/>
      <use xlink:href="#DejaVuSans-65" x="183.154297"/>
     </g>
    </g>
   </g>
   <g id="matplotlib.axis_8">
    <g id="ytick_8">
     <g id="line2d_35">
      <g>
       <use xlink:href="#me5179b328b" x="56" y="280.787329" style="stroke: #000000; stroke-width: 0.8"/>
      </g>
     </g>
     <g id="text_36">
      <!-- 0 -->
      <g transform="translate(42.6375 284.586548) scale(0.1 -0.1)">
       <use xlink:href="#DejaVuSans-30"/>
      </g>
     </g>
    </g>
    <g id="ytick_9">
     <g id="line2d_36">
      <g>
       <use xlink:href="#me5179b328b" x="56" y="255.366997" style="stroke: #000000; stroke-width: 0.8"/>
      </g>
     </g>
     <g id="text_37">
      <!-- 2 -->
      <g transform="translate(42.6375 259.166216) scale(0.1 -0.1)">
       <use xlink:href="#DejaVuSans-32"/>
      </g>
     </g>
    </g>
    <g id="text_38">
     <!-- Noise -->
     <g transform="translate(36.557813 292.714689) rotate(-90) scale(0.1 -0.1)">
      <defs>
       <path id="DejaVuSans-4e" d="M 628 4666 
L 1478 4666 
L 3547 763 
L 3547 4666 
L 4159 4666 
L 4159 0 
L 3309 0 
L 1241 3903 
L 1241 0 
L 628 0 
L 628 4666 
z
" transform="scale(0.015625)"/>
      </defs>
      <use xlink:href="#DejaVuSans-4e"/>
      <use xlink:href="#DejaVuSans-6f" x="74.804688"/>
      <use xlink:href="#DejaVuSans-69" x="135.986328"/>
      <use xlink:href="#DejaVuSans-73" x="163.769531"/>
      <use xlink:href="#DejaVuSans-65" x="215.869141"/>
     </g>
    </g>
   </g>
   <g id="line2d_37">
    <path d="M 73.909091 282.275393 
L 74.267631 282.275289 
L 74.626172 270.751301 
L 74.984712 275.910218 
L 75.343252 283.770878 
L 75.701793 277.339315 
L 76.060333 283.732387 
L 76.418873 283.74708 
L 76.777414 279.249639 
L 77.135954 292.946384 
L 77.494494 291.749325 
L 77.853035 284.360713 
L 78.211575 287.223955 
L 78.570116 278.790261 
L 78.928656 286.557898 
L 79.287196 289.762637 
L 79.645737 271.47301 
L 80.004277 282.222156 
L 80.362817 280.358182 
L 80.721358 289.841722 
L 81.438438 280.082407 
L 81.796979 288.101989 
L 82.155519 278.399737 
L 82.51406 284.604438 
L 82.8726 282.641067 
L 83.23114 284.611225 
L 83.589681 269.015947 
L 83.948221 280.873105 
L 84.306761 287.50917 
L 84.665302 275.559988 
L 85.023842 288.545892 
L 85.382382 279.459984 
L 85.740923 293.241196 
L 86.099463 289.228062 
L 86.458003 279.53626 
L 86.816544 276.094313 
L 87.175084 279.69827 
L 87.533625 281.522284 
L 87.892165 282.700868 
L 88.250705 290.183459 
L 88.609246 285.361999 
L 88.967786 283.714727 
L 89.326326 274.06923 
L 89.684867 278.603606 
L 90.043407 291.991596 
L 90.401947 278.727749 
L 90.760488 283.234559 
L 91.119028 285.089225 
L 91.477568 276.900076 
L 91.836109 274.235242 
L 92.194649 274.868967 
L 92.55319 286.120626 
L 93.27027 278.682123 
L 93.628811 274.587659 
L 93.987351 283.832521 
L 94.345891 281.967207 
L 94.704432 287.81818 
L 95.062972 288.389322 
L 95.421512 275.62366 
L 95.780053 272.168311 
L 96.138593 281.24496 
L 96.497133 274.409794 
L 96.855674 278.489102 
L 97.214214 284.887119 
L 97.931295 271.012979 
L 98.289835 281.015007 
L 98.648376 270.843889 
L 99.006916 297.436027 
L 99.365456 275.564071 
L 99.723997 280.234138 
L 100.082537 282.687546 
L 100.441077 280.204182 
L 100.799618 293.418495 
L 101.158158 282.183362 
L 101.516699 278.517849 
L 101.875239 271.39519 
L 102.233779 284.080979 
L 102.59232 285.925373 
L 102.95086 283.976037 
L 103.3094 274.969873 
L 103.667941 278.698089 
L 104.026481 284.153999 
L 104.385021 277.525472 
L 104.743562 280.170393 
L 105.102102 274.63151 
L 105.460642 285.248935 
L 105.819183 282.869649 
L 106.177723 283.279209 
L 106.536264 290.088088 
L 106.894804 278.90546 
L 107.253344 279.128301 
L 107.970425 282.27815 
L 108.328965 289.782128 
L 108.687506 283.460565 
L 109.046046 282.965308 
L 109.404586 285.885868 
L 110.121667 278.219552 
L 110.480207 268.800461 
L 110.838748 279.677873 
L 111.197288 279.150575 
L 111.555829 281.260439 
L 111.914369 292.98128 
L 112.272909 280.955827 
L 112.63145 280.404561 
L 112.98999 265.133221 
L 113.34853 282.009799 
L 113.707071 278.870971 
L 114.065611 281.007925 
L 114.424151 288.214375 
L 114.782692 273.524595 
L 115.141232 276.008732 
L 115.499772 275.760255 
L 115.858313 286.566562 
L 116.216853 271.872455 
L 116.575394 289.696209 
L 117.292474 266.866802 
L 117.651015 287.08227 
L 118.009555 284.386198 
L 118.368095 280.154037 
L 118.726636 283.986959 
L 119.085176 290.641924 
L 119.443716 280.351606 
L 119.802257 287.538358 
L 120.160797 277.77761 
L 120.519338 286.630347 
L 120.877878 270.937367 
L 121.236418 285.764969 
L 121.594959 282.834057 
L 121.953499 275.61736 
L 122.312039 288.609574 
L 123.02912 272.480328 
L 123.38766 291.003019 
L 123.746201 279.613966 
L 124.104741 279.135752 
L 124.463281 275.81878 
L 124.821822 288.648254 
L 125.180362 289.178941 
L 125.538903 277.470347 
L 125.897443 278.899967 
L 126.255983 279.195426 
L 126.614524 278.585622 
L 126.973064 285.108943 
L 127.331604 279.311338 
L 127.690145 278.924829 
L 128.048685 285.327092 
L 128.407225 268.930177 
L 129.124306 288.358162 
L 129.482846 276.614876 
L 129.841387 286.981512 
L 130.199927 275.785341 
L 130.558468 273.424358 
L 130.917008 286.002834 
L 131.275548 274.664994 
L 131.634089 278.164072 
L 131.992629 275.563069 
L 132.351169 268.733052 
L 132.70971 282.346791 
L 133.06825 285.577385 
L 133.42679 286.440267 
L 133.785331 285.971871 
L 134.143871 281.277317 
L 134.502412 278.61928 
L 134.860952 279.028936 
L 135.219492 275.530511 
L 135.578033 280.704701 
L 135.936573 271.549999 
L 136.295113 282.469245 
L 136.653654 263.500428 
L 137.370734 286.234637 
L 137.729275 287.59294 
L 138.087815 277.721177 
L 138.446355 282.207454 
L 138.804896 276.249797 
L 139.163436 277.779865 
L 139.521977 281.250163 
L 140.239057 290.414309 
L 140.956138 275.344844 
L 141.314678 279.426746 
L 141.673219 288.704103 
L 142.031759 279.68675 
L 142.390299 278.338605 
L 142.74884 286.404317 
L 143.10738 279.810393 
L 143.46592 280.417408 
L 143.824461 288.051 
L 144.183001 278.513561 
L 144.541542 277.223497 
L 144.900082 273.904449 
L 145.258622 274.09033 
L 145.617163 289.542532 
L 145.975703 286.747285 
L 146.334243 277.514237 
L 147.051324 277.514158 
L 147.409864 256.302901 
L 147.768405 277.159273 
L 148.126945 273.570715 
L 148.485485 274.724569 
L 148.844026 276.647684 
L 149.202566 282.790891 
L 149.561107 275.964017 
L 149.919647 285.698698 
L 150.278187 282.292331 
L 150.636728 283.871855 
L 150.995268 280.267012 
L 151.353808 266.077482 
L 151.712349 292.653955 
L 152.070889 276.426089 
L 152.429429 291.036273 
L 152.78797 283.786495 
L 153.14651 273.866958 
L 153.863591 287.636487 
L 154.222131 285.333144 
L 154.580672 276.468429 
L 154.939212 285.42887 
L 155.297752 279.411717 
L 155.656293 280.497716 
L 156.014833 284.928304 
L 156.373373 267.162386 
L 156.731914 276.758721 
L 157.090454 293.657279 
L 157.448994 279.602397 
L 157.807535 284.993037 
L 158.166075 275.370045 
L 158.524616 285.823864 
L 159.241696 277.578093 
L 159.600237 275.285383 
L 159.958777 288.415313 
L 160.317317 282.913112 
L 161.034398 284.939291 
L 161.392938 269.567721 
L 162.110019 288.800351 
L 162.468559 274.95424 
L 162.8271 267.30085 
L 163.18564 274.225927 
L 163.544181 290.443052 
L 163.902721 283.864677 
L 164.261261 272.736004 
L 164.619802 285.284627 
L 164.978342 277.96682 
L 165.336882 275.864465 
L 165.695423 286.678049 
L 166.053963 281.165618 
L 166.412503 301.385852 
L 166.771044 287.297398 
L 167.129584 282.392421 
L 167.488124 288.717095 
L 167.846665 270.41322 
L 168.205205 289.875996 
L 168.563746 283.583848 
L 168.922286 279.956462 
L 169.280826 271.627918 
L 169.639367 289.912352 
L 169.997907 273.395327 
L 170.714988 287.024898 
L 171.073528 277.850623 
L 171.432068 279.522288 
L 171.790609 284.601757 
L 172.149149 280.343731 
L 172.50769 283.236029 
L 173.22477 276.579434 
L 173.583311 270.708061 
L 173.941851 288.65375 
L 174.300391 267.231725 
L 174.658932 293.193009 
L 175.017472 281.751936 
L 175.376012 277.048524 
L 175.734553 279.001603 
L 176.093093 284.744636 
L 176.451633 282.109963 
L 176.810174 283.920391 
L 177.168714 284.532791 
L 177.527255 275.388037 
L 177.885795 278.518466 
L 178.244335 285.190827 
L 178.602876 275.070297 
L 178.961416 278.834415 
L 179.319956 275.621523 
L 179.678497 276.785986 
L 180.037037 286.055661 
L 180.395577 284.347326 
L 180.754118 276.038216 
L 181.112658 276.908375 
L 181.471198 280.920161 
L 181.829739 280.041704 
L 182.188279 272.667663 
L 182.54682 284.546815 
L 182.90536 277.31048 
L 183.2639 282.07228 
L 183.622441 282.170711 
L 183.980981 273.804511 
L 184.339521 275.54174 
L 184.698062 275.617408 
L 185.056602 272.490903 
L 185.415142 280.653848 
L 185.773683 276.453461 
L 186.132223 282.7591 
L 186.490763 278.727225 
L 186.849304 281.614399 
L 187.207844 280.170912 
L 187.566385 277.005057 
L 187.924925 285.98719 
L 188.283465 267.490034 
L 188.642006 287.180653 
L 189.000546 288.503599 
L 189.359086 273.427438 
L 189.717627 275.756247 
L 190.076167 276.820996 
L 190.434707 276.794141 
L 190.793248 280.865158 
L 191.151788 286.489455 
L 191.510329 280.305585 
L 191.868869 285.090748 
L 192.227409 274.590362 
L 192.58595 281.721891 
L 192.94449 286.033432 
L 193.30303 282.829763 
L 193.661571 278.163116 
L 194.020111 284.369846 
L 194.378651 286.012608 
L 194.737192 279.238677 
L 195.095732 279.230546 
L 195.454272 284.008995 
L 195.812813 283.780817 
L 196.171353 279.312633 
L 196.529894 289.990025 
L 196.888434 289.731878 
L 197.605515 282.143804 
L 197.964055 278.811486 
L 198.322595 271.411318 
L 198.681136 275.336831 
L 199.039676 281.803752 
L 199.398216 280.908179 
L 199.756757 287.158487 
L 200.115297 280.904982 
L 200.473837 282.621779 
L 200.832378 278.736426 
L 201.190918 286.044451 
L 201.907999 271.046646 
L 202.266539 281.478509 
L 202.62508 278.234418 
L 202.98362 276.401407 
L 203.34216 283.337119 
L 203.700701 279.363203 
L 204.059241 280.707303 
L 204.417781 280.166589 
L 204.776322 285.699871 
L 205.134862 280.631565 
L 205.493402 277.622509 
L 205.851943 271.565191 
L 206.210483 274.691083 
L 206.569024 267.103676 
L 206.927564 285.663887 
L 207.286104 275.243659 
L 207.644645 279.622176 
L 208.003185 266.87095 
L 208.361725 285.924132 
L 208.720266 286.123831 
L 209.078806 284.596519 
L 209.437346 294.284863 
L 209.795887 284.128546 
L 210.154427 285.61168 
L 210.512968 279.831564 
L 210.871508 278.615442 
L 211.230048 268.864108 
L 211.588589 274.747307 
L 211.947129 284.4536 
L 212.305669 286.496829 
L 212.66421 277.661142 
L 213.02275 289.177521 
L 213.38129 269.148257 
L 213.739831 273.291889 
L 214.456911 291.674441 
L 214.815452 272.183358 
L 215.173992 281.515239 
L 215.532533 272.920904 
L 215.891073 290.920049 
L 216.249613 284.596407 
L 216.608154 280.754005 
L 216.966694 280.488764 
L 217.325234 283.647533 
L 217.683775 276.829066 
L 218.042315 287.572146 
L 218.400855 281.692163 
L 218.759396 280.02284 
L 219.117936 277.518028 
L 219.476476 276.264958 
L 219.835017 287.934523 
L 220.193557 290.536752 
L 220.552098 272.667587 
L 221.269178 285.544023 
L 221.627719 270.92963 
L 221.986259 280.052207 
L 222.344799 273.292798 
L 222.70334 280.358244 
L 223.06188 267.691105 
L 223.42042 269.631992 
L 223.778961 282.369517 
L 224.137501 274.612915 
L 224.496041 276.685911 
L 224.854582 272.089562 
L 225.213122 286.919498 
L 225.571663 276.427415 
L 225.930203 274.060954 
L 226.288743 291.964265 
L 226.647284 288.307035 
L 227.005824 293.746819 
L 227.364364 282.499432 
L 228.081445 271.239725 
L 228.439985 280.316451 
L 228.798526 270.437342 
L 229.157066 289.557989 
L 229.515607 291.612466 
L 229.874147 281.140339 
L 230.232687 278.346561 
L 230.591228 280.995107 
L 230.949768 293.926095 
L 231.308308 281.353694 
L 231.666849 289.077341 
L 232.025389 276.531505 
L 232.383929 278.457567 
L 232.74247 286.760343 
L 233.10101 284.052996 
L 233.45955 287.518719 
L 234.176631 274.71732 
L 234.535172 287.0517 
L 234.893712 277.584072 
L 235.252252 284.15716 
L 235.610793 285.826102 
L 235.969333 281.467516 
L 236.327873 287.36638 
L 236.686414 284.305817 
L 237.044954 288.399943 
L 237.403494 268.301338 
L 237.762035 280.563226 
L 238.120575 285.234143 
L 238.479115 279.427469 
L 238.837656 281.501183 
L 239.196196 282.191609 
L 239.554737 276.884249 
L 239.913277 275.973305 
L 240.271817 284.158708 
L 240.630358 284.446702 
L 240.988898 282.535306 
L 241.347438 295.416229 
L 241.705979 290.416494 
L 242.064519 272.10073 
L 242.423059 270.333423 
L 242.7816 282.369974 
L 243.14014 277.123262 
L 243.49868 278.809309 
L 243.857221 261.220786 
L 244.215761 273.672338 
L 244.574302 281.600256 
L 245.291382 290.996429 
L 245.649923 279.494301 
L 246.367003 289.82587 
L 246.725544 284.896354 
L 247.084084 287.660657 
L 247.442624 270.065404 
L 248.159705 280.837996 
L 248.518246 271.382161 
L 248.876786 280.295647 
L 249.235326 286.260862 
L 249.593867 271.107749 
L 249.952407 277.362511 
L 250.310947 287.379115 
L 250.669488 281.996947 
L 251.386568 289.575136 
L 251.745109 274.901394 
L 252.103649 268.652828 
L 252.462189 289.675342 
L 252.82073 277.209613 
L 253.17927 284.922217 
L 253.537811 283.883051 
L 253.896351 284.552042 
L 254.254891 286.278062 
L 254.613432 280.47897 
L 254.971972 286.068086 
L 255.330512 279.068554 
L 255.689053 281.106597 
L 256.047593 282.305864 
L 256.406133 286.554972 
L 256.764674 284.452759 
L 257.123214 275.986755 
L 257.481754 277.603959 
L 257.840295 286.999774 
L 258.198835 280.156064 
L 258.557376 276.012202 
L 258.915916 291.396538 
L 259.274456 277.33423 
L 259.632997 284.998358 
L 259.991537 277.161127 
L 260.708618 292.257505 
L 261.067158 291.130497 
L 261.425698 280.481745 
L 261.784239 279.136771 
L 262.142779 286.534336 
L 262.50132 276.729021 
L 262.85986 291.346427 
L 263.2184 281.207272 
L 263.576941 288.483438 
L 264.294021 280.486107 
L 264.652562 286.255328 
L 265.011102 283.231212 
L 265.369642 274.392255 
L 265.728183 284.453525 
L 266.086723 275.476436 
L 266.445263 287.96671 
L 266.803804 277.42038 
L 267.162344 271.626041 
L 267.520885 296.494835 
L 268.237965 277.119988 
L 268.596506 282.0777 
L 268.955046 278.428666 
L 269.313586 284.625705 
L 269.672127 280.237044 
L 270.030667 281.776671 
L 270.389207 273.365977 
L 270.747748 279.170464 
L 271.106288 278.641836 
L 271.464828 283.404842 
L 271.823369 283.886107 
L 272.181909 283.536272 
L 272.54045 278.280553 
L 272.89899 283.462721 
L 273.25753 278.945786 
L 273.616071 267.597985 
L 274.333151 282.859236 
L 274.691692 273.153515 
L 275.408772 293.73978 
L 275.767313 287.193801 
L 276.125853 292.676367 
L 276.484393 283.021227 
L 276.842934 280.670279 
L 277.201474 270.133431 
L 277.560015 278.709679 
L 277.918555 282.179731 
L 278.277095 275.516388 
L 278.635636 294.839278 
L 278.994176 279.289979 
L 279.352716 275.888417 
L 279.711257 290.183868 
L 280.069797 273.518677 
L 280.786878 283.426518 
L 281.145418 276.765948 
L 281.503959 266.356887 
L 281.862499 279.631554 
L 282.221039 279.209867 
L 282.57958 283.706606 
L 282.93812 286.188161 
L 283.29666 275.510476 
L 283.655201 286.227813 
L 284.013741 280.33252 
L 284.372281 283.822882 
L 284.730822 277.743373 
L 285.089362 278.666879 
L 285.447902 274.193677 
L 285.806443 284.028526 
L 286.164983 282.502407 
L 286.523524 287.007454 
L 286.882064 283.61085 
L 287.240604 278.389553 
L 287.599145 275.976604 
L 287.957685 286.647766 
L 288.316225 275.260911 
L 288.674766 272.172138 
L 289.033306 278.159916 
L 289.391846 268.860136 
L 289.750387 285.704824 
L 290.467467 292.091244 
L 290.826008 271.279843 
L 291.543089 281.140574 
L 291.901629 279.008105 
L 292.260169 287.939906 
L 292.61871 265.244372 
L 292.97725 279.966118 
L 293.33579 280.092116 
L 293.694331 276.175022 
L 294.411411 279.364528 
L 294.769952 285.81086 
L 295.487032 268.826907 
L 295.845573 272.237073 
L 296.204113 270.662496 
L 296.562654 284.036147 
L 296.921194 287.07635 
L 297.279734 281.586716 
L 297.638275 280.433193 
L 297.996815 273.833651 
L 298.355355 291.543083 
L 298.713896 271.06691 
L 299.072436 281.791483 
L 299.430976 283.500194 
L 300.148057 291.304081 
L 300.506598 275.556012 
L 300.865138 280.321387 
L 301.223678 288.985138 
L 301.582219 289.017662 
L 301.940759 282.921269 
L 302.299299 270.180559 
L 302.65784 282.437054 
L 303.01638 290.339928 
L 303.37492 282.349047 
L 303.733461 282.52051 
L 304.092001 297.926268 
L 304.450541 281.132378 
L 304.809082 282.254937 
L 305.526163 269.03706 
L 305.884703 273.627915 
L 306.243243 282.496139 
L 306.601784 287.819393 
L 306.960324 264.433414 
L 307.318864 280.410991 
L 308.035945 280.940646 
L 308.394485 279.528484 
L 309.111566 284.432999 
L 309.470106 284.262663 
L 309.828647 280.995479 
L 310.187187 284.240839 
L 310.545728 285.317523 
L 310.904268 280.110956 
L 311.262808 282.407731 
L 311.621349 271.229329 
L 311.979889 297.634463 
L 312.338429 273.850712 
L 312.69697 272.868354 
L 313.05551 293.963896 
L 313.41405 282.965137 
L 313.772591 283.147867 
L 314.131131 289.732183 
L 314.489671 285.730419 
L 314.848212 287.845131 
L 315.206752 269.651505 
L 315.565293 274.841015 
L 315.923833 272.706491 
L 316.282373 276.201043 
L 316.640914 287.962547 
L 316.999454 284.120699 
L 317.357994 277.677313 
L 317.716535 288.554053 
L 318.075075 276.256165 
L 318.433615 282.314617 
L 318.792156 283.169347 
L 319.150696 276.26912 
L 319.509237 277.963999 
L 319.867777 283.081299 
L 320.226317 273.419692 
L 320.584858 287.657576 
L 320.943398 276.873007 
L 321.301938 277.018121 
L 321.660479 282.754523 
L 322.019019 278.714727 
L 322.377559 288.73826 
L 322.7361 274.915061 
L 323.09464 281.962398 
L 323.45318 284.109277 
L 323.811721 274.120788 
L 324.170261 285.263492 
L 324.528802 289.738218 
L 324.887342 290.679837 
L 325.245882 276.936086 
L 325.604423 288.924564 
L 325.962963 269.635466 
L 326.321503 294.018164 
L 326.680044 270.006208 
L 327.038584 279.446296 
L 327.397124 281.401949 
L 327.755665 284.250335 
L 328.114205 278.250786 
L 328.472745 281.026501 
L 328.831286 273.775754 
L 329.189826 280.061403 
L 329.548367 279.832149 
L 329.906907 283.098115 
L 330.623988 278.831223 
L 330.982528 291.655591 
L 331.341068 289.35516 
L 331.699609 276.063824 
L 332.058149 279.701465 
L 332.416689 281.956559 
L 332.77523 280.67018 
L 333.13377 278.578419 
L 333.49231 284.217547 
L 333.850851 285.73352 
L 334.209391 279.542716 
L 334.567932 287.004969 
L 334.926472 278.192849 
L 335.285012 291.607389 
L 335.643553 274.24696 
L 336.002093 277.783933 
L 336.360633 279.160239 
L 337.077714 270.203101 
L 337.436254 274.340923 
L 337.794795 292.486238 
L 338.511876 284.758103 
L 339.228956 277.497563 
L 339.587497 285.399491 
L 339.946037 279.600411 
L 340.304577 285.58785 
L 340.663118 284.673576 
L 341.021658 289.726777 
L 341.380198 286.654553 
L 341.738739 289.377397 
L 342.097279 286.989085 
L 342.455819 274.091348 
L 342.81436 286.820838 
L 343.1729 264.058323 
L 343.531441 277.652253 
L 343.889981 279.61268 
L 344.248521 286.242264 
L 344.607062 276.336802 
L 344.965602 284.445555 
L 345.324142 280.011947 
L 345.682683 264.517779 
L 346.041223 281.397798 
L 346.399763 273.483602 
L 346.758304 285.256074 
L 347.116844 281.009684 
L 347.475384 269.533744 
L 347.833925 284.771757 
L 348.192465 269.269068 
L 348.909546 284.361852 
L 349.268086 276.768325 
L 349.626627 274.606665 
L 349.985167 276.835675 
L 350.343707 290.766238 
L 350.702248 285.408346 
L 351.060788 282.360331 
L 351.419328 281.26036 
L 351.777869 276.842906 
L 352.136409 279.658025 
L 352.494949 289.273554 
L 352.85349 278.37114 
L 353.21203 276.907006 
L 353.570571 277.229814 
L 353.929111 273.918878 
L 354.287651 275.487685 
L 354.646192 277.869202 
L 355.004732 281.233238 
L 355.363272 291.342874 
L 355.721813 278.05707 
L 356.080353 279.467457 
L 356.438893 279.061423 
L 356.797434 288.901172 
L 357.155974 287.657533 
L 357.514515 274.094455 
L 357.873055 281.038705 
L 358.231595 276.456336 
L 358.590136 280.607364 
L 358.948676 280.598226 
L 359.307216 274.824458 
L 359.665757 284.066836 
L 360.024297 280.176474 
L 360.382837 283.725127 
L 360.741378 283.548589 
L 361.099918 282.752144 
L 361.458458 279.375651 
L 361.816999 283.829816 
L 362.175539 272.806895 
L 362.53408 286.472633 
L 362.89262 281.974914 
L 363.25116 283.581857 
L 363.609701 271.591665 
L 363.968241 279.538207 
L 364.326781 274.229871 
L 364.685322 290.228189 
L 365.043862 279.090203 
L 365.402402 275.133652 
L 365.760943 280.264408 
L 366.119483 274.016113 
L 366.478023 284.07474 
L 366.836564 271.830809 
L 367.195104 266.177641 
L 367.553645 283.093198 
L 367.912185 283.618535 
L 368.270725 271.55095 
L 368.629266 270.749017 
L 368.987806 284.110148 
L 369.704887 282.578094 
L 370.063427 289.331424 
L 370.421967 286.625439 
L 370.780508 287.168727 
L 371.139048 285.666747 
L 371.497588 281.007755 
L 371.856129 279.298875 
L 372.214669 270.93377 
L 372.57321 287.131952 
L 372.93175 274.531879 
L 373.29029 282.147246 
L 373.648831 281.101675 
L 374.007371 276.498795 
L 374.365911 287.922321 
L 374.724452 278.357084 
L 375.082992 279.729512 
L 375.441532 277.657761 
L 375.800073 278.949638 
L 376.158613 265.183693 
L 376.517154 284.84022 
L 376.875694 284.161859 
L 377.234234 284.747439 
L 377.592775 284.317432 
L 377.951315 284.837977 
L 378.309855 273.23103 
L 378.668396 271.759907 
L 379.026936 284.414469 
L 379.385476 286.077018 
L 379.744017 277.791444 
L 380.102557 284.296753 
L 380.461097 276.764995 
L 380.819638 279.497737 
L 381.178178 290.420009 
L 381.536719 270.952805 
L 381.895259 269.374377 
L 382.253799 284.681652 
L 382.61234 283.251205 
L 382.97088 278.970631 
L 383.32942 278.661829 
L 383.687961 276.602226 
L 384.046501 268.012312 
L 384.405041 281.911844 
L 385.122122 289.553017 
L 385.839203 280.997854 
L 386.197743 269.382765 
L 386.556284 284.076792 
L 386.914824 279.365138 
L 387.273364 280.891698 
L 387.990445 264.728464 
L 388.348985 284.161044 
L 388.707526 283.897758 
L 389.066066 274.1516 
L 389.424606 276.453852 
L 389.783147 269.051351 
L 390.500228 283.07066 
L 390.858768 277.033669 
L 391.217308 273.741426 
L 391.934389 277.563561 
L 392.292929 274.008523 
L 392.65147 273.356359 
L 393.01001 272.003594 
L 393.727091 281.849378 
L 394.085631 279.854952 
L 394.444171 273.119864 
L 394.802712 285.979023 
L 395.161252 278.44438 
L 395.519793 283.28703 
L 395.878333 280.604653 
L 396.236873 272.662661 
L 396.595414 279.572879 
L 396.953954 280.492221 
L 397.312494 289.429328 
L 397.671035 276.044826 
L 398.029575 276.685224 
L 398.388115 267.039666 
L 398.746656 282.743285 
L 399.105196 279.394611 
L 399.463736 279.202475 
L 399.822277 270.762483 
L 400.180817 281.39294 
L 400.897898 276.924096 
L 401.256438 279.601413 
L 401.614979 283.624452 
L 401.973519 279.553871 
L 402.332059 273.96431 
L 402.6906 287.310919 
L 403.04914 279.942296 
L 403.40768 285.236655 
L 403.766221 273.192709 
L 404.124761 290.467309 
L 405.200382 270.838294 
L 405.558923 281.205178 
L 405.917463 284.315668 
L 406.276003 268.83242 
L 406.634544 289.989578 
L 406.993084 294.760924 
L 407.351624 277.991001 
L 407.710165 283.977926 
L 408.068705 287.277349 
L 408.427245 276.285665 
L 408.785786 279.237955 
L 409.502867 288.92377 
L 409.861407 275.24279 
L 410.219947 276.655247 
L 410.578488 281.4176 
L 410.937028 269.051798 
L 411.295568 287.587807 
L 411.654109 290.482168 
L 412.371189 281.077032 
L 412.72973 279.240887 
L 413.08827 282.320404 
L 413.44681 278.549988 
L 413.805351 288.740966 
L 414.163891 271.612085 
L 414.522432 281.309407 
L 414.880972 273.686821 
L 415.239512 278.609281 
L 415.956593 277.166411 
L 416.315133 277.942104 
L 416.673674 276.702773 
L 417.032214 272.340454 
L 417.390754 279.538421 
L 417.749295 276.281551 
L 418.107835 281.357607 
L 418.466375 271.635265 
L 418.824916 285.085858 
L 419.183456 269.342203 
L 419.900537 289.880024 
L 420.259077 279.973215 
L 420.617618 285.115469 
L 420.976158 275.44497 
L 421.334698 284.934809 
L 421.693239 283.622862 
L 422.051779 292.795518 
L 422.410319 283.661773 
L 422.76886 296.191284 
L 423.1274 290.853163 
L 423.48594 275.954831 
L 423.844481 275.793504 
L 424.203021 278.083511 
L 424.561562 286.932543 
L 424.920102 281.090539 
L 425.278642 280.810224 
L 425.637183 288.148833 
L 425.995723 271.233108 
L 426.354263 275.211619 
L 426.712804 282.191575 
L 427.429884 279.463039 
L 427.788425 293.762724 
L 428.146965 282.358162 
L 428.864046 287.152708 
L 429.222586 282.573745 
L 429.581127 269.362882 
L 430.298207 284.417219 
L 431.015288 271.894309 
L 431.373828 274.911205 
L 432.090909 284.898666 
L 432.090909 284.898666 
" clip-path="url(#p930a494240)" style="fill: none; stroke: #1f77b4; stroke-width: 1.5; stroke-linecap: square"/>
   </g>
   <g id="patch_18">
    <path d="M 56 303.64 
L 56 254.048753 
" style="fill: none; stroke: #000000; stroke-width: 0.8; stroke-linejoin: miter; stroke-linecap: square"/>
   </g>
   <g id="patch_19">
    <path d="M 450 303.64 
L 450 254.048753 
" style="fill: none; stroke: #000000; stroke-width: 0.8; stroke-linejoin: miter; stroke-linecap: square"/>
   </g>
   <g id="patch_20">
    <path d="M 56 303.64 
L 450 303.64 
" style="fill: none; stroke: #000000; stroke-width: 0.8; stroke-linejoin: miter; stroke-linecap: square"/>
   </g>
   <g id="patch_21">
    <path d="M 56 254.048753 
L 450 254.048753 
" style="fill: none; stroke: #000000; stroke-width: 0.8; stroke-linejoin: miter; stroke-linecap: square"/>
   </g>
  </g>
 </g>
 <defs>
  <clipPath id="p99e2f1c6b7">
   <rect x="56" y="14.368386" width="394" height="49.591247"/>
  </clipPath>
  <clipPath id="pe744d9452a">
   <rect x="56" y="94.261841" width="394" height="49.591247"/>
  </clipPath>
  <clipPath id="p4963caa3cd">
   <rect x="56" y="174.155297" width="394" height="49.591247"/>
  </clipPath>
  <clipPath id="p930a494240">
   <rect x="56" y="254.048753" width="394" height="49.591247"/>
  </clipPath>
 </defs>
</svg>
