<?xml version="1.0" encoding="utf-8" standalone="no"?>
<!DOCTYPE svg PUBLIC "-//W3C//DTD SVG 1.1//EN"
  "http://www.w3.org/Graphics/SVG/1.1/DTD/svg11.dtd">
<svg xmlns:xlink="http://www.w3.org/1999/xlink" width="460.8pt" height="345.6pt" viewBox="0 0 460.8 345.6" xmlns="http://www.w3.org/2000/svg" version="1.1">
 <metadata>
  <rdf:RDF xmlns:dc="http://purl.org/dc/elements/1.1/" xmlns:cc="http://creativecommons.org/ns#" xmlns:rdf="http://www.w3.org/1999/02/22-rdf-syntax-ns#">
   <cc:Work>
    <dc:type rdf:resource="http://purl.org/dc/dcmitype/StillImage"/>
    <dc:format>image/svg+xml</dc:format>
    <dc:creator>
     <cc:Agent>
      <dc:title>Matplotlib v3.8.4, https://matplotlib.org/</dc:title>
     </cc:Agent>
    </dc:creator>
   </cc:Work>
  </rdf:RDF>
 </metadata>
 <defs>
  <style type="text/css">*{stroke-linejoin: round; stroke-linecap: butt}</style>
 </defs>
 <g id="figure_1">
  <g id="patch_1">
   <path d="M 0 345.6 
L 460.8 345.6 
L 460.8 0 
L 0 0 
z
" style="fill: #ffffff"/>
  </g>
  <g id="axes_1">
   <g id="patch_2">
    <path d="M 57.6 307.584 
L 414.72 307.584 
L 414.72 41.472 
L 57.6 41.472 
z
" style="fill: #ffffff"/>
   </g>
   <g id="matplotlib.axis_1">
    <g id="xtick_1">
     <g id="line2d_1">
      <defs>
       <path id="mbcb02aef95" d="M 0 0 
L 0 3.5 
" style="stroke: #000000; stroke-width: 0.8"/>
      </defs>
      <g>
       <use xlink:href="#mbcb02aef95" x="73.832727" y="307.584" style="stroke: #000000; stroke-width: 0.8"/>
      </g>
     </g>
     <g id="text_1">
      <!-- 0 -->
      <g transform="translate(70.651477 322.182437) scale(0.1 -0.1)">
       <defs>
        <path id="DejaVuSans-30" d="M 2034 4250 
Q 1547 4250 1301 3770 
Q 1056 3291 1056 2328 
Q 1056 1369 1301 889 
Q 1547 409 2034 409 
Q 2525 409 2770 889 
Q 3016 1369 3016 2328 
Q 3016 3291 2770 3770 
Q 2525 4250 2034 4250 
z
M 2034 4750 
Q 2819 4750 3233 4129 
Q 3647 3509 3647 2328 
Q 3647 1150 3233 529 
Q 2819 -91 2034 -91 
Q 1250 -91 836 529 
Q 422 1150 422 2328 
Q 422 3509 836 4129 
Q 1250 4750 2034 4750 
z
" transform="scale(0.015625)"/>
       </defs>
       <use xlink:href="#DejaVuSans-30"/>
      </g>
     </g>
    </g>
    <g id="xtick_2">
     <g id="line2d_2">
      <g>
       <use xlink:href="#mbcb02aef95" x="119.55872" y="307.584" style="stroke: #000000; stroke-width: 0.8"/>
      </g>
     </g>
     <g id="text_2">
      <!-- 10 -->
      <g transform="translate(113.19622 322.182437) scale(0.1 -0.1)">
       <defs>
        <path id="DejaVuSans-31" d="M 794 531 
L 1825 531 
L 1825 4091 
L 703 3866 
L 703 4441 
L 1819 4666 
L 2450 4666 
L 2450 531 
L 3481 531 
L 3481 0 
L 794 0 
L 794 531 
z
" transform="scale(0.015625)"/>
       </defs>
       <use xlink:href="#DejaVuSans-31"/>
       <use xlink:href="#DejaVuSans-30" x="63.623047"/>
      </g>
     </g>
    </g>
    <g id="xtick_3">
     <g id="line2d_3">
      <g>
       <use xlink:href="#mbcb02aef95" x="165.284712" y="307.584" style="stroke: #000000; stroke-width: 0.8"/>
      </g>
     </g>
     <g id="text_3">
      <!-- 20 -->
      <g transform="translate(158.922212 322.182437) scale(0.1 -0.1)">
       <defs>
        <path id="DejaVuSans-32" d="M 1228 531 
L 3431 531 
L 3431 0 
L 469 0 
L 469 531 
Q 828 903 1448 1529 
Q 2069 2156 2228 2338 
Q 2531 2678 2651 2914 
Q 2772 3150 2772 3378 
Q 2772 3750 2511 3984 
Q 2250 4219 1831 4219 
Q 1534 4219 1204 4116 
Q 875 4013 500 3803 
L 500 4441 
Q 881 4594 1212 4672 
Q 1544 4750 1819 4750 
Q 2544 4750 2975 4387 
Q 3406 4025 3406 3419 
Q 3406 3131 3298 2873 
Q 3191 2616 2906 2266 
Q 2828 2175 2409 1742 
Q 1991 1309 1228 531 
z
" transform="scale(0.015625)"/>
       </defs>
       <use xlink:href="#DejaVuSans-32"/>
       <use xlink:href="#DejaVuSans-30" x="63.623047"/>
      </g>
     </g>
    </g>
    <g id="xtick_4">
     <g id="line2d_4">
      <g>
       <use xlink:href="#mbcb02aef95" x="211.010704" y="307.584" style="stroke: #000000; stroke-width: 0.8"/>
      </g>
     </g>
     <g id="text_4">
      <!-- 30 -->
      <g transform="translate(204.648204 322.182437) scale(0.1 -0.1)">
       <defs>
        <path id="DejaVuSans-33" d="M 2597 2516 
Q 3050 2419 3304 2112 
Q 3559 1806 3559 1356 
Q 3559 666 3084 287 
Q 2609 -91 1734 -91 
Q 1441 -91 1130 -33 
Q 819 25 488 141 
L 488 750 
Q 750 597 1062 519 
Q 1375 441 1716 441 
Q 2309 441 2620 675 
Q 2931 909 2931 1356 
Q 2931 1769 2642 2001 
Q 2353 2234 1838 2234 
L 1294 2234 
L 1294 2753 
L 1863 2753 
Q 2328 2753 2575 2939 
Q 2822 3125 2822 3475 
Q 2822 3834 2567 4026 
Q 2313 4219 1838 4219 
Q 1578 4219 1281 4162 
Q 984 4106 628 3988 
L 628 4550 
Q 988 4650 1302 4700 
Q 1616 4750 1894 4750 
Q 2613 4750 3031 4423 
Q 3450 4097 3450 3541 
Q 3450 3153 3228 2886 
Q 3006 2619 2597 2516 
z
" transform="scale(0.015625)"/>
       </defs>
       <use xlink:href="#DejaVuSans-33"/>
       <use xlink:href="#DejaVuSans-30" x="63.623047"/>
      </g>
     </g>
    </g>
    <g id="xtick_5">
     <g id="line2d_5">
      <g>
       <use xlink:href="#mbcb02aef95" x="256.736697" y="307.584" style="stroke: #000000; stroke-width: 0.8"/>
      </g>
     </g>
     <g id="text_5">
      <!-- 40 -->
      <g transform="translate(250.374197 322.182437) scale(0.1 -0.1)">
       <defs>
        <path id="DejaVuSans-34" d="M 2419 4116 
L 825 1625 
L 2419 1625 
L 2419 4116 
z
M 2253 4666 
L 3047 4666 
L 3047 1625 
L 3713 1625 
L 3713 1100 
L 3047 1100 
L 3047 0 
L 2419 0 
L 2419 1100 
L 313 1100 
L 313 1709 
L 2253 4666 
z
" transform="scale(0.015625)"/>
       </defs>
       <use xlink:href="#DejaVuSans-34"/>
       <use xlink:href="#DejaVuSans-30" x="63.623047"/>
      </g>
     </g>
    </g>
    <g id="xtick_6">
     <g id="line2d_6">
      <g>
       <use xlink:href="#mbcb02aef95" x="302.462689" y="307.584" style="stroke: #000000; stroke-width: 0.8"/>
      </g>
     </g>
     <g id="text_6">
      <!-- 50 -->
      <g transform="translate(296.100189 322.182437) scale(0.1 -0.1)">
       <defs>
        <path id="DejaVuSans-35" d="M 691 4666 
L 3169 4666 
L 3169 4134 
L 1269 4134 
L 1269 2991 
Q 1406 3038 1543 3061 
Q 1681 3084 1819 3084 
Q 2600 3084 3056 2656 
Q 3513 2228 3513 1497 
Q 3513 744 3044 326 
Q 2575 -91 1722 -91 
Q 1428 -91 1123 -41 
Q 819 9 494 109 
L 494 744 
Q 775 591 1075 516 
Q 1375 441 1709 441 
Q 2250 441 2565 725 
Q 2881 1009 2881 1497 
Q 2881 1984 2565 2268 
Q 2250 2553 1709 2553 
Q 1456 2553 1204 2497 
Q 953 2441 691 2322 
L 691 4666 
z
" transform="scale(0.015625)"/>
       </defs>
       <use xlink:href="#DejaVuSans-35"/>
       <use xlink:href="#DejaVuSans-30" x="63.623047"/>
      </g>
     </g>
    </g>
    <g id="xtick_7">
     <g id="line2d_7">
      <g>
       <use xlink:href="#mbcb02aef95" x="348.188681" y="307.584" style="stroke: #000000; stroke-width: 0.8"/>
      </g>
     </g>
     <g id="text_7">
      <!-- 60 -->
      <g transform="translate(341.826181 322.182437) scale(0.1 -0.1)">
       <defs>
        <path id="DejaVuSans-36" d="M 2113 2584 
Q 1688 2584 1439 2293 
Q 1191 2003 1191 1497 
Q 1191 994 1439 701 
Q 1688 409 2113 409 
Q 2538 409 2786 701 
Q 3034 994 3034 1497 
Q 3034 2003 2786 2293 
Q 2538 2584 2113 2584 
z
M 3366 4563 
L 3366 3988 
Q 3128 4100 2886 4159 
Q 2644 4219 2406 4219 
Q 1781 4219 1451 3797 
Q 1122 3375 1075 2522 
Q 1259 2794 1537 2939 
Q 1816 3084 2150 3084 
Q 2853 3084 3261 2657 
Q 3669 2231 3669 1497 
Q 3669 778 3244 343 
Q 2819 -91 2113 -91 
Q 1303 -91 875 529 
Q 447 1150 447 2328 
Q 447 3434 972 4092 
Q 1497 4750 2381 4750 
Q 2619 4750 2861 4703 
Q 3103 4656 3366 4563 
z
" transform="scale(0.015625)"/>
       </defs>
       <use xlink:href="#DejaVuSans-36"/>
       <use xlink:href="#DejaVuSans-30" x="63.623047"/>
      </g>
     </g>
    </g>
    <g id="xtick_8">
     <g id="line2d_8">
      <g>
       <use xlink:href="#mbcb02aef95" x="393.914673" y="307.584" style="stroke: #000000; stroke-width: 0.8"/>
      </g>
     </g>
     <g id="text_8">
      <!-- 70 -->
      <g transform="translate(387.552173 322.182437) scale(0.1 -0.1)">
       <defs>
        <path id="DejaVuSans-37" d="M 525 4666 
L 3525 4666 
L 3525 4397 
L 1831 0 
L 1172 0 
L 2766 4134 
L 525 4134 
L 525 4666 
z
" transform="scale(0.015625)"/>
       </defs>
       <use xlink:href="#DejaVuSans-37"/>
       <use xlink:href="#DejaVuSans-30" x="63.623047"/>
      </g>
     </g>
    </g>
   </g>
   <g id="matplotlib.axis_2">
    <g id="ytick_1">
     <g id="line2d_9">
      <defs>
       <path id="me5179b328b" d="M 0 0 
L -3.5 0 
" style="stroke: #000000; stroke-width: 0.8"/>
      </defs>
      <g>
       <use xlink:href="#me5179b328b" x="57.6" y="295.488" style="stroke: #000000; stroke-width: 0.8"/>
      </g>
     </g>
     <g id="text_9">
      <!-- 0 -->
      <g transform="translate(44.2375 299.287219) scale(0.1 -0.1)">
       <use xlink:href="#DejaVuSans-30"/>
      </g>
     </g>
    </g>
    <g id="ytick_2">
     <g id="line2d_10">
      <g>
       <use xlink:href="#me5179b328b" x="57.6" y="237.979899" style="stroke: #000000; stroke-width: 0.8"/>
      </g>
     </g>
     <g id="text_10">
      <!-- 2 -->
      <g transform="translate(44.2375 241.779117) scale(0.1 -0.1)">
       <use xlink:href="#DejaVuSans-32"/>
      </g>
     </g>
    </g>
    <g id="ytick_3">
     <g id="line2d_11">
      <g>
       <use xlink:href="#me5179b328b" x="57.6" y="180.471797" style="stroke: #000000; stroke-width: 0.8"/>
      </g>
     </g>
     <g id="text_11">
      <!-- 4 -->
      <g transform="translate(44.2375 184.271016) scale(0.1 -0.1)">
       <use xlink:href="#DejaVuSans-34"/>
      </g>
     </g>
    </g>
    <g id="ytick_4">
     <g id="line2d_12">
      <g>
       <use xlink:href="#me5179b328b" x="57.6" y="122.963696" style="stroke: #000000; stroke-width: 0.8"/>
      </g>
     </g>
     <g id="text_12">
      <!-- 6 -->
      <g transform="translate(44.2375 126.762915) scale(0.1 -0.1)">
       <use xlink:href="#DejaVuSans-36"/>
      </g>
     </g>
    </g>
    <g id="ytick_5">
     <g id="line2d_13">
      <g>
       <use xlink:href="#me5179b328b" x="57.6" y="65.455594" style="stroke: #000000; stroke-width: 0.8"/>
      </g>
     </g>
     <g id="text_13">
      <!-- 8 -->
      <g transform="translate(44.2375 69.254813) scale(0.1 -0.1)">
       <defs>
        <path id="DejaVuSans-38" d="M 2034 2216 
Q 1584 2216 1326 1975 
Q 1069 1734 1069 1313 
Q 1069 891 1326 650 
Q 1584 409 2034 409 
Q 2484 409 2743 651 
Q 3003 894 3003 1313 
Q 3003 1734 2745 1975 
Q 2488 2216 2034 2216 
z
M 1403 2484 
Q 997 2584 770 2862 
Q 544 3141 544 3541 
Q 544 4100 942 4425 
Q 1341 4750 2034 4750 
Q 2731 4750 3128 4425 
Q 3525 4100 3525 3541 
Q 3525 3141 3298 2862 
Q 3072 2584 2669 2484 
Q 3125 2378 3379 2068 
Q 3634 1759 3634 1313 
Q 3634 634 3220 271 
Q 2806 -91 2034 -91 
Q 1263 -91 848 271 
Q 434 634 434 1313 
Q 434 1759 690 2068 
Q 947 2378 1403 2484 
z
M 1172 3481 
Q 1172 3119 1398 2916 
Q 1625 2713 2034 2713 
Q 2441 2713 2670 2916 
Q 2900 3119 2900 3481 
Q 2900 3844 2670 4047 
Q 2441 4250 2034 4250 
Q 1625 4250 1398 4047 
Q 1172 3844 1172 3481 
z
" transform="scale(0.015625)"/>
       </defs>
       <use xlink:href="#DejaVuSans-38"/>
      </g>
     </g>
    </g>
   </g>
   <g id="LineCollection_1">
    <path d="M 73.832727 295.488 
L 73.832727 65.455594 
" clip-path="url(#p0f834e2270)" style="fill: none; stroke: #1f77b4; stroke-width: 1.5"/>
    <path d="M 78.405327 295.488 
L 78.405327 237.979899 
" clip-path="url(#p0f834e2270)" style="fill: none; stroke: #1f77b4; stroke-width: 1.5"/>
    <path d="M 82.977926 295.488 
L 82.977926 122.963696 
" clip-path="url(#p0f834e2270)" style="fill: none; stroke: #1f77b4; stroke-width: 1.5"/>
    <path d="M 87.550525 295.488 
L 87.550525 237.979899 
" clip-path="url(#p0f834e2270)" style="fill: none; stroke: #1f77b4; stroke-width: 1.5"/>
    <path d="M 92.123124 295.488 
L 92.123124 237.979899 
" clip-path="url(#p0f834e2270)" style="fill: none; stroke: #1f77b4; stroke-width: 1.5"/>
    <path d="M 96.695723 295.488 
L 96.695723 237.979899 
" clip-path="url(#p0f834e2270)" style="fill: none; stroke: #1f77b4; stroke-width: 1.5"/>
    <path d="M 101.268323 295.488 
L 101.268323 237.979899 
" clip-path="url(#p0f834e2270)" style="fill: none; stroke: #1f77b4; stroke-width: 1.5"/>
    <path d="M 105.840922 295.488 
L 105.840922 237.979899 
" clip-path="url(#p0f834e2270)" style="fill: none; stroke: #1f77b4; stroke-width: 1.5"/>
    <path d="M 110.413521 295.488 
L 110.413521 122.963696 
" clip-path="url(#p0f834e2270)" style="fill: none; stroke: #1f77b4; stroke-width: 1.5"/>
    <path d="M 114.98612 295.488 
L 114.98612 237.979899 
" clip-path="url(#p0f834e2270)" style="fill: none; stroke: #1f77b4; stroke-width: 1.5"/>
    <path d="M 119.55872 295.488 
L 119.55872 237.979899 
" clip-path="url(#p0f834e2270)" style="fill: none; stroke: #1f77b4; stroke-width: 1.5"/>
    <path d="M 124.131319 295.488 
L 124.131319 122.963696 
" clip-path="url(#p0f834e2270)" style="fill: none; stroke: #1f77b4; stroke-width: 1.5"/>
    <path d="M 128.703918 295.488 
L 128.703918 180.471797 
" clip-path="url(#p0f834e2270)" style="fill: none; stroke: #1f77b4; stroke-width: 1.5"/>
    <path d="M 133.276517 295.488 
L 133.276517 237.979899 
" clip-path="url(#p0f834e2270)" style="fill: none; stroke: #1f77b4; stroke-width: 1.5"/>
    <path d="M 137.849117 295.488 
L 137.849117 122.963696 
" clip-path="url(#p0f834e2270)" style="fill: none; stroke: #1f77b4; stroke-width: 1.5"/>
    <path d="M 142.421716 295.488 
L 142.421716 237.979899 
" clip-path="url(#p0f834e2270)" style="fill: none; stroke: #1f77b4; stroke-width: 1.5"/>
    <path d="M 146.994315 295.488 
L 146.994315 237.979899 
" clip-path="url(#p0f834e2270)" style="fill: none; stroke: #1f77b4; stroke-width: 1.5"/>
    <path d="M 151.566914 295.488 
L 151.566914 237.979899 
" clip-path="url(#p0f834e2270)" style="fill: none; stroke: #1f77b4; stroke-width: 1.5"/>
    <path d="M 156.139513 295.488 
L 156.139513 237.979899 
" clip-path="url(#p0f834e2270)" style="fill: none; stroke: #1f77b4; stroke-width: 1.5"/>
    <path d="M 160.712113 295.488 
L 160.712113 237.979899 
" clip-path="url(#p0f834e2270)" style="fill: none; stroke: #1f77b4; stroke-width: 1.5"/>
    <path d="M 165.284712 295.488 
L 165.284712 237.979899 
" clip-path="url(#p0f834e2270)" style="fill: none; stroke: #1f77b4; stroke-width: 1.5"/>
    <path d="M 169.857311 295.488 
L 169.857311 122.963696 
" clip-path="url(#p0f834e2270)" style="fill: none; stroke: #1f77b4; stroke-width: 1.5"/>
    <path d="M 174.42991 295.488 
L 174.42991 237.979899 
" clip-path="url(#p0f834e2270)" style="fill: none; stroke: #1f77b4; stroke-width: 1.5"/>
    <path d="M 179.00251 295.488 
L 179.00251 237.979899 
" clip-path="url(#p0f834e2270)" style="fill: none; stroke: #1f77b4; stroke-width: 1.5"/>
    <path d="M 183.575109 295.488 
L 183.575109 180.471797 
" clip-path="url(#p0f834e2270)" style="fill: none; stroke: #1f77b4; stroke-width: 1.5"/>
    <path d="M 188.147708 295.488 
L 188.147708 122.963696 
" clip-path="url(#p0f834e2270)" style="fill: none; stroke: #1f77b4; stroke-width: 1.5"/>
    <path d="M 192.720307 295.488 
L 192.720307 237.979899 
" clip-path="url(#p0f834e2270)" style="fill: none; stroke: #1f77b4; stroke-width: 1.5"/>
    <path d="M 197.292907 295.488 
L 197.292907 180.471797 
" clip-path="url(#p0f834e2270)" style="fill: none; stroke: #1f77b4; stroke-width: 1.5"/>
    <path d="M 201.865506 295.488 
L 201.865506 237.979899 
" clip-path="url(#p0f834e2270)" style="fill: none; stroke: #1f77b4; stroke-width: 1.5"/>
    <path d="M 206.438105 295.488 
L 206.438105 237.979899 
" clip-path="url(#p0f834e2270)" style="fill: none; stroke: #1f77b4; stroke-width: 1.5"/>
    <path d="M 211.010704 295.488 
L 211.010704 237.979899 
" clip-path="url(#p0f834e2270)" style="fill: none; stroke: #1f77b4; stroke-width: 1.5"/>
    <path d="M 215.583303 295.488 
L 215.583303 237.979899 
" clip-path="url(#p0f834e2270)" style="fill: none; stroke: #1f77b4; stroke-width: 1.5"/>
    <path d="M 220.155903 295.488 
L 220.155903 237.979899 
" clip-path="url(#p0f834e2270)" style="fill: none; stroke: #1f77b4; stroke-width: 1.5"/>
    <path d="M 224.728502 295.488 
L 224.728502 180.471797 
" clip-path="url(#p0f834e2270)" style="fill: none; stroke: #1f77b4; stroke-width: 1.5"/>
    <path d="M 229.301101 295.488 
L 229.301101 237.979899 
" clip-path="url(#p0f834e2270)" style="fill: none; stroke: #1f77b4; stroke-width: 1.5"/>
    <path d="M 233.8737 295.488 
L 233.8737 237.979899 
" clip-path="url(#p0f834e2270)" style="fill: none; stroke: #1f77b4; stroke-width: 1.5"/>
    <path d="M 238.4463 295.488 
L 238.4463 65.455594 
" clip-path="url(#p0f834e2270)" style="fill: none; stroke: #1f77b4; stroke-width: 1.5"/>
    <path d="M 243.018899 295.488 
L 243.018899 122.963696 
" clip-path="url(#p0f834e2270)" style="fill: none; stroke: #1f77b4; stroke-width: 1.5"/>
    <path d="M 247.591498 295.488 
L 247.591498 122.963696 
" clip-path="url(#p0f834e2270)" style="fill: none; stroke: #1f77b4; stroke-width: 1.5"/>
    <path d="M 252.164097 295.488 
L 252.164097 122.963696 
" clip-path="url(#p0f834e2270)" style="fill: none; stroke: #1f77b4; stroke-width: 1.5"/>
    <path d="M 256.736697 295.488 
L 256.736697 237.979899 
" clip-path="url(#p0f834e2270)" style="fill: none; stroke: #1f77b4; stroke-width: 1.5"/>
    <path d="M 261.309296 295.488 
L 261.309296 180.471797 
" clip-path="url(#p0f834e2270)" style="fill: none; stroke: #1f77b4; stroke-width: 1.5"/>
    <path d="M 265.881895 295.488 
L 265.881895 180.471797 
" clip-path="url(#p0f834e2270)" style="fill: none; stroke: #1f77b4; stroke-width: 1.5"/>
    <path d="M 270.454494 295.488 
L 270.454494 180.471797 
" clip-path="url(#p0f834e2270)" style="fill: none; stroke: #1f77b4; stroke-width: 1.5"/>
    <path d="M 275.027093 295.488 
L 275.027093 237.979899 
" clip-path="url(#p0f834e2270)" style="fill: none; stroke: #1f77b4; stroke-width: 1.5"/>
    <path d="M 279.599693 295.488 
L 279.599693 237.979899 
" clip-path="url(#p0f834e2270)" style="fill: none; stroke: #1f77b4; stroke-width: 1.5"/>
    <path d="M 284.172292 295.488 
L 284.172292 180.471797 
" clip-path="url(#p0f834e2270)" style="fill: none; stroke: #1f77b4; stroke-width: 1.5"/>
    <path d="M 288.744891 295.488 
L 288.744891 122.963696 
" clip-path="url(#p0f834e2270)" style="fill: none; stroke: #1f77b4; stroke-width: 1.5"/>
    <path d="M 293.31749 295.488 
L 293.31749 122.963696 
" clip-path="url(#p0f834e2270)" style="fill: none; stroke: #1f77b4; stroke-width: 1.5"/>
    <path d="M 297.89009 295.488 
L 297.89009 237.979899 
" clip-path="url(#p0f834e2270)" style="fill: none; stroke: #1f77b4; stroke-width: 1.5"/>
    <path d="M 302.462689 295.488 
L 302.462689 237.979899 
" clip-path="url(#p0f834e2270)" style="fill: none; stroke: #1f77b4; stroke-width: 1.5"/>
    <path d="M 307.035288 295.488 
L 307.035288 237.979899 
" clip-path="url(#p0f834e2270)" style="fill: none; stroke: #1f77b4; stroke-width: 1.5"/>
    <path d="M 311.607887 295.488 
L 311.607887 237.979899 
" clip-path="url(#p0f834e2270)" style="fill: none; stroke: #1f77b4; stroke-width: 1.5"/>
    <path d="M 316.180487 295.488 
L 316.180487 237.979899 
" clip-path="url(#p0f834e2270)" style="fill: none; stroke: #1f77b4; stroke-width: 1.5"/>
    <path d="M 320.753086 295.488 
L 320.753086 180.471797 
" clip-path="url(#p0f834e2270)" style="fill: none; stroke: #1f77b4; stroke-width: 1.5"/>
    <path d="M 325.325685 295.488 
L 325.325685 237.979899 
" clip-path="url(#p0f834e2270)" style="fill: none; stroke: #1f77b4; stroke-width: 1.5"/>
    <path d="M 329.898284 295.488 
L 329.898284 237.979899 
" clip-path="url(#p0f834e2270)" style="fill: none; stroke: #1f77b4; stroke-width: 1.5"/>
    <path d="M 334.470883 295.488 
L 334.470883 237.979899 
" clip-path="url(#p0f834e2270)" style="fill: none; stroke: #1f77b4; stroke-width: 1.5"/>
    <path d="M 339.043483 295.488 
L 339.043483 237.979899 
" clip-path="url(#p0f834e2270)" style="fill: none; stroke: #1f77b4; stroke-width: 1.5"/>
    <path d="M 343.616082 295.488 
L 343.616082 237.979899 
" clip-path="url(#p0f834e2270)" style="fill: none; stroke: #1f77b4; stroke-width: 1.5"/>
    <path d="M 348.188681 295.488 
L 348.188681 237.979899 
" clip-path="url(#p0f834e2270)" style="fill: none; stroke: #1f77b4; stroke-width: 1.5"/>
    <path d="M 352.76128 295.488 
L 352.76128 237.979899 
" clip-path="url(#p0f834e2270)" style="fill: none; stroke: #1f77b4; stroke-width: 1.5"/>
    <path d="M 357.33388 295.488 
L 357.33388 237.979899 
" clip-path="url(#p0f834e2270)" style="fill: none; stroke: #1f77b4; stroke-width: 1.5"/>
    <path d="M 361.906479 295.488 
L 361.906479 180.471797 
" clip-path="url(#p0f834e2270)" style="fill: none; stroke: #1f77b4; stroke-width: 1.5"/>
    <path d="M 366.479078 295.488 
L 366.479078 237.979899 
" clip-path="url(#p0f834e2270)" style="fill: none; stroke: #1f77b4; stroke-width: 1.5"/>
    <path d="M 371.051677 295.488 
L 371.051677 237.979899 
" clip-path="url(#p0f834e2270)" style="fill: none; stroke: #1f77b4; stroke-width: 1.5"/>
    <path d="M 375.624277 295.488 
L 375.624277 180.471797 
" clip-path="url(#p0f834e2270)" style="fill: none; stroke: #1f77b4; stroke-width: 1.5"/>
    <path d="M 380.196876 295.488 
L 380.196876 237.979899 
" clip-path="url(#p0f834e2270)" style="fill: none; stroke: #1f77b4; stroke-width: 1.5"/>
    <path d="M 384.769475 295.488 
L 384.769475 180.471797 
" clip-path="url(#p0f834e2270)" style="fill: none; stroke: #1f77b4; stroke-width: 1.5"/>
    <path d="M 389.342074 295.488 
L 389.342074 237.979899 
" clip-path="url(#p0f834e2270)" style="fill: none; stroke: #1f77b4; stroke-width: 1.5"/>
    <path d="M 393.914673 295.488 
L 393.914673 237.979899 
" clip-path="url(#p0f834e2270)" style="fill: none; stroke: #1f77b4; stroke-width: 1.5"/>
    <path d="M 398.487273 295.488 
L 398.487273 180.471797 
" clip-path="url(#p0f834e2270)" style="fill: none; stroke: #1f77b4; stroke-width: 1.5"/>
   </g>
   <g id="line2d_14">
    <defs>
     <path id="mf906cbd07a" d="M 0 3 
C 0.795609 3 1.55874 2.683901 2.12132 2.12132 
C 2.683901 1.55874 3 0.795609 3 0 
C 3 -0.795609 2.683901 -1.55874 2.12132 -2.12132 
C 1.55874 -2.683901 0.795609 -3 0 -3 
C -0.795609 -3 -1.55874 -2.683901 -2.12132 -2.12132 
C -2.683901 -1.55874 -3 -0.795609 -3 0 
C -3 0.795609 -2.683901 1.55874 -2.12132 2.12132 
C -1.55874 2.683901 -0.795609 3 0 3 
z
" style="stroke: #1f77b4"/>
    </defs>
    <g clip-path="url(#p0f834e2270)">
     <use xlink:href="#mf906cbd07a" x="73.832727" y="65.455594" style="fill: #1f77b4; stroke: #1f77b4"/>
     <use xlink:href="#mf906cbd07a" x="78.405327" y="237.979899" style="fill: #1f77b4; stroke: #1f77b4"/>
     <use xlink:href="#mf906cbd07a" x="82.977926" y="122.963696" style="fill: #1f77b4; stroke: #1f77b4"/>
     <use xlink:href="#mf906cbd07a" x="87.550525" y="237.979899" style="fill: #1f77b4; stroke: #1f77b4"/>
     <use xlink:href="#mf906cbd07a" x="92.123124" y="237.979899" style="fill: #1f77b4; stroke: #1f77b4"/>
     <use xlink:href="#mf906cbd07a" x="96.695723" y="237.979899" style="fill: #1f77b4; stroke: #1f77b4"/>
     <use xlink:href="#mf906cbd07a" x="101.268323" y="237.979899" style="fill: #1f77b4; stroke: #1f77b4"/>
     <use xlink:href="#mf906cbd07a" x="105.840922" y="237.979899" style="fill: #1f77b4; stroke: #1f77b4"/>
     <use xlink:href="#mf906cbd07a" x="110.413521" y="122.963696" style="fill: #1f77b4; stroke: #1f77b4"/>
     <use xlink:href="#mf906cbd07a" x="114.98612" y="237.979899" style="fill: #1f77b4; stroke: #1f77b4"/>
     <use xlink:href="#mf906cbd07a" x="119.55872" y="237.979899" style="fill: #1f77b4; stroke: #1f77b4"/>
     <use xlink:href="#mf906cbd07a" x="124.131319" y="122.963696" style="fill: #1f77b4; stroke: #1f77b4"/>
     <use xlink:href="#mf906cbd07a" x="128.703918" y="180.471797" style="fill: #1f77b4; stroke: #1f77b4"/>
     <use xlink:href="#mf906cbd07a" x="133.276517" y="237.979899" style="fill: #1f77b4; stroke: #1f77b4"/>
     <use xlink:href="#mf906cbd07a" x="137.849117" y="122.963696" style="fill: #1f77b4; stroke: #1f77b4"/>
     <use xlink:href="#mf906cbd07a" x="142.421716" y="237.979899" style="fill: #1f77b4; stroke: #1f77b4"/>
     <use xlink:href="#mf906cbd07a" x="146.994315" y="237.979899" style="fill: #1f77b4; stroke: #1f77b4"/>
     <use xlink:href="#mf906cbd07a" x="151.566914" y="237.979899" style="fill: #1f77b4; stroke: #1f77b4"/>
     <use xlink:href="#mf906cbd07a" x="156.139513" y="237.979899" style="fill: #1f77b4; stroke: #1f77b4"/>
     <use xlink:href="#mf906cbd07a" x="160.712113" y="237.979899" style="fill: #1f77b4; stroke: #1f77b4"/>
     <use xlink:href="#mf906cbd07a" x="165.284712" y="237.979899" style="fill: #1f77b4; stroke: #1f77b4"/>
     <use xlink:href="#mf906cbd07a" x="169.857311" y="122.963696" style="fill: #1f77b4; stroke: #1f77b4"/>
     <use xlink:href="#mf906cbd07a" x="174.42991" y="237.979899" style="fill: #1f77b4; stroke: #1f77b4"/>
     <use xlink:href="#mf906cbd07a" x="179.00251" y="237.979899" style="fill: #1f77b4; stroke: #1f77b4"/>
     <use xlink:href="#mf906cbd07a" x="183.575109" y="180.471797" style="fill: #1f77b4; stroke: #1f77b4"/>
     <use xlink:href="#mf906cbd07a" x="188.147708" y="122.963696" style="fill: #1f77b4; stroke: #1f77b4"/>
     <use xlink:href="#mf906cbd07a" x="192.720307" y="237.979899" style="fill: #1f77b4; stroke: #1f77b4"/>
     <use xlink:href="#mf906cbd07a" x="197.292907" y="180.471797" style="fill: #1f77b4; stroke: #1f77b4"/>
     <use xlink:href="#mf906cbd07a" x="201.865506" y="237.979899" style="fill: #1f77b4; stroke: #1f77b4"/>
     <use xlink:href="#mf906cbd07a" x="206.438105" y="237.979899" style="fill: #1f77b4; stroke: #1f77b4"/>
     <use xlink:href="#mf906cbd07a" x="211.010704" y="237.979899" style="fill: #1f77b4; stroke: #1f77b4"/>
     <use xlink:href="#mf906cbd07a" x="215.583303" y="237.979899" style="fill: #1f77b4; stroke: #1f77b4"/>
     <use xlink:href="#mf906cbd07a" x="220.155903" y="237.979899" style="fill: #1f77b4; stroke: #1f77b4"/>
     <use xlink:href="#mf906cbd07a" x="224.728502" y="180.471797" style="fill: #1f77b4; stroke: #1f77b4"/>
     <use xlink:href="#mf906cbd07a" x="229.301101" y="237.979899" style="fill: #1f77b4; stroke: #1f77b4"/>
     <use xlink:href="#mf906cbd07a" x="233.8737" y="237.979899" style="fill: #1f77b4; stroke: #1f77b4"/>
     <use xlink:href="#mf906cbd07a" x="238.4463" y="65.455594" style="fill: #1f77b4; stroke: #1f77b4"/>
     <use xlink:href="#mf906cbd07a" x="243.018899" y="122.963696" style="fill: #1f77b4; stroke: #1f77b4"/>
     <use xlink:href="#mf906cbd07a" x="247.591498" y="122.963696" style="fill: #1f77b4; stroke: #1f77b4"/>
     <use xlink:href="#mf906cbd07a" x="252.164097" y="122.963696" style="fill: #1f77b4; stroke: #1f77b4"/>
     <use xlink:href="#mf906cbd07a" x="256.736697" y="237.979899" style="fill: #1f77b4; stroke: #1f77b4"/>
     <use xlink:href="#mf906cbd07a" x="261.309296" y="180.471797" style="fill: #1f77b4; stroke: #1f77b4"/>
     <use xlink:href="#mf906cbd07a" x="265.881895" y="180.471797" style="fill: #1f77b4; stroke: #1f77b4"/>
     <use xlink:href="#mf906cbd07a" x="270.454494" y="180.471797" style="fill: #1f77b4; stroke: #1f77b4"/>
     <use xlink:href="#mf906cbd07a" x="275.027093" y="237.979899" style="fill: #1f77b4; stroke: #1f77b4"/>
     <use xlink:href="#mf906cbd07a" x="279.599693" y="237.979899" style="fill: #1f77b4; stroke: #1f77b4"/>
     <use xlink:href="#mf906cbd07a" x="284.172292" y="180.471797" style="fill: #1f77b4; stroke: #1f77b4"/>
     <use xlink:href="#mf906cbd07a" x="288.744891" y="122.963696" style="fill: #1f77b4; stroke: #1f77b4"/>
     <use xlink:href="#mf906cbd07a" x="293.31749" y="122.963696" style="fill: #1f77b4; stroke: #1f77b4"/>
     <use xlink:href="#mf906cbd07a" x="297.89009" y="237.979899" style="fill: #1f77b4; stroke: #1f77b4"/>
     <use xlink:href="#mf906cbd07a" x="302.462689" y="237.979899" style="fill: #1f77b4; stroke: #1f77b4"/>
     <use xlink:href="#mf906cbd07a" x="307.035288" y="237.979899" style="fill: #1f77b4; stroke: #1f77b4"/>
     <use xlink:href="#mf906cbd07a" x="311.607887" y="237.979899" style="fill: #1f77b4; stroke: #1f77b4"/>
     <use xlink:href="#mf906cbd07a" x="316.180487" y="237.979899" style="fill: #1f77b4; stroke: #1f77b4"/>
     <use xlink:href="#mf906cbd07a" x="320.753086" y="180.471797" style="fill: #1f77b4; stroke: #1f77b4"/>
     <use xlink:href="#mf906cbd07a" x="325.325685" y="237.979899" style="fill: #1f77b4; stroke: #1f77b4"/>
     <use xlink:href="#mf906cbd07a" x="329.898284" y="237.979899" style="fill: #1f77b4; stroke: #1f77b4"/>
     <use xlink:href="#mf906cbd07a" x="334.470883" y="237.979899" style="fill: #1f77b4; stroke: #1f77b4"/>
     <use xlink:href="#mf906cbd07a" x="339.043483" y="237.979899" style="fill: #1f77b4; stroke: #1f77b4"/>
     <use xlink:href="#mf906cbd07a" x="343.616082" y="237.979899" style="fill: #1f77b4; stroke: #1f77b4"/>
     <use xlink:href="#mf906cbd07a" x="348.188681" y="237.979899" style="fill: #1f77b4; stroke: #1f77b4"/>
     <use xlink:href="#mf906cbd07a" x="352.76128" y="237.979899" style="fill: #1f77b4; stroke: #1f77b4"/>
     <use xlink:href="#mf906cbd07a" x="357.33388" y="237.979899" style="fill: #1f77b4; stroke: #1f77b4"/>
     <use xlink:href="#mf906cbd07a" x="361.906479" y="180.471797" style="fill: #1f77b4; stroke: #1f77b4"/>
     <use xlink:href="#mf906cbd07a" x="366.479078" y="237.979899" style="fill: #1f77b4; stroke: #1f77b4"/>
     <use xlink:href="#mf906cbd07a" x="371.051677" y="237.979899" style="fill: #1f77b4; stroke: #1f77b4"/>
     <use xlink:href="#mf906cbd07a" x="375.624277" y="180.471797" style="fill: #1f77b4; stroke: #1f77b4"/>
     <use xlink:href="#mf906cbd07a" x="380.196876" y="237.979899" style="fill: #1f77b4; stroke: #1f77b4"/>
     <use xlink:href="#mf906cbd07a" x="384.769475" y="180.471797" style="fill: #1f77b4; stroke: #1f77b4"/>
     <use xlink:href="#mf906cbd07a" x="389.342074" y="237.979899" style="fill: #1f77b4; stroke: #1f77b4"/>
     <use xlink:href="#mf906cbd07a" x="393.914673" y="237.979899" style="fill: #1f77b4; stroke: #1f77b4"/>
     <use xlink:href="#mf906cbd07a" x="398.487273" y="180.471797" style="fill: #1f77b4; stroke: #1f77b4"/>
    </g>
   </g>
   <g id="line2d_15">
    <path d="M 73.832727 295.488 
L 398.487273 295.488 
" clip-path="url(#p0f834e2270)" style="fill: none; stroke: #d62728; stroke-width: 1.5; stroke-linecap: square"/>
   </g>
   <g id="line2d_16">
    <path d="M 73.832727 53.568 
L 78.405327 66.273649 
L 82.977926 78.706688 
L 87.550525 90.603318 
L 92.123124 101.725495 
L 96.695723 111.870679 
L 101.268323 120.879562 
L 105.840922 128.641407 
L 110.413521 135.096753 
L 114.98612 140.237413 
L 119.55872 144.103839 
L 124.131319 146.780102 
L 128.703918 148.386851 
L 133.276517 149.072723 
L 137.849117 149.004774 
L 142.421716 148.358525 
L 146.994315 147.308212 
L 151.566914 146.017827 
L 156.139513 144.633432 
L 160.712113 143.277163 
L 165.284712 142.043187 
L 169.857311 140.995774 
L 174.42991 140.169492 
L 179.00251 139.571388 
L 183.575109 139.184907 
L 188.147708 138.975197 
L 192.720307 138.89536 
L 197.292907 138.893166 
L 201.865506 138.917738 
L 206.438105 138.925723 
L 211.010704 138.88652 
L 215.583303 138.786215 
L 220.155903 138.629971 
L 224.728502 138.442723 
L 229.301101 138.268172 
L 233.8737 138.166167 
L 238.4463 138.208687 
L 243.018899 138.474732 
L 247.591498 139.04448 
L 252.164097 139.99315 
L 256.736697 141.384977 
L 261.309296 143.267746 
L 265.881895 145.668234 
L 270.454494 148.5889 
L 275.027093 152.006017 
L 279.599693 155.869411 
L 284.172292 160.103796 
L 288.744891 164.611658 
L 293.31749 169.277477 
L 297.89009 173.973066 
L 302.462689 178.563659 
L 307.035288 182.914418 
L 311.607887 186.896937 
L 316.180487 190.395388 
L 320.753086 193.311934 
L 325.325685 195.57113 
L 329.898284 197.123066 
L 334.470883 197.945109 
L 339.043483 198.042184 
L 343.616082 197.445626 
L 348.188681 196.21072 
L 352.76128 194.413107 
L 357.33388 192.144327 
L 361.906479 189.506772 
L 366.479078 186.608378 
L 371.051677 183.557365 
L 375.624277 180.457322 
L 380.196876 177.4029 
L 384.769475 174.476313 
L 389.342074 171.744807 
L 393.914673 169.259151 
L 398.487273 167.053179 
" clip-path="url(#p0f834e2270)" style="fill: none; stroke: #ffa500; stroke-width: 1.5; stroke-linecap: square"/>
   </g>
   <g id="line2d_17">
    <path d="M 73.832727 66.335227 
L 78.405327 89.535774 
L 82.977926 112.136395 
L 87.550525 133.566872 
L 92.123124 153.320981 
L 96.695723 170.984085 
L 101.268323 186.253333 
L 105.840922 198.949181 
L 110.413521 209.017839 
L 114.98612 216.525075 
L 119.55872 221.642557 
L 124.131319 224.628393 
L 128.703918 225.803847 
L 133.276517 225.528284 
L 137.849117 224.174272 
L 142.421716 222.104499 
L 146.994315 219.651783 
L 151.566914 217.10307 
L 156.139513 214.687887 
L 160.712113 212.571416 
L 165.284712 210.852106 
L 169.857311 209.563533 
L 174.42991 208.680104 
L 179.00251 208.126099 
L 183.575109 207.787387 
L 188.147708 207.525109 
L 192.720307 207.19045 
L 197.292907 206.639564 
L 201.865506 205.747661 
L 206.438105 204.421225 
L 211.010704 202.607454 
L 215.583303 200.300166 
L 220.155903 197.541685 
L 224.728502 194.420611 
L 229.301101 191.06572 
L 233.8737 187.636642 
L 238.4463 184.312253 
L 243.018899 181.277908 
L 247.591498 178.712719 
L 252.164097 176.777947 
L 256.736697 175.607349 
L 261.309296 175.300012 
L 265.881895 175.915837 
L 270.454494 177.473585 
L 275.027093 179.951182 
L 279.599693 183.287915 
L 284.172292 187.388103 
L 288.744891 192.125901 
L 293.31749 197.35094 
L 297.89009 202.894563 
L 302.462689 208.57643 
L 307.035288 214.211238 
L 311.607887 219.615294 
L 316.180487 224.612679 
L 320.753086 229.040802 
L 325.325685 232.755217 
L 329.898284 235.633613 
L 334.470883 237.578984 
L 339.043483 238.521981 
L 343.616082 238.422445 
L 348.188681 237.270162 
L 352.76128 235.084835 
L 357.33388 231.915298 
L 361.906479 227.837974 
L 366.479078 222.954573 
L 371.051677 217.389041 
L 375.624277 211.283733 
L 380.196876 204.794825 
L 384.769475 198.086995 
L 389.342074 191.327439 
L 393.914673 184.679419 
L 398.487273 178.295586 
" clip-path="url(#p0f834e2270)" style="fill: none; stroke: #008000; stroke-width: 1.5; stroke-linecap: square"/>
   </g>
   <g id="patch_3">
    <path d="M 57.6 307.584 
L 57.6 41.472 
" style="fill: none; stroke: #000000; stroke-width: 0.8; stroke-linejoin: miter; stroke-linecap: square"/>
   </g>
   <g id="patch_4">
    <path d="M 414.72 307.584 
L 414.72 41.472 
" style="fill: none; stroke: #000000; stroke-width: 0.8; stroke-linejoin: miter; stroke-linecap: square"/>
   </g>
   <g id="patch_5">
    <path d="M 57.6 307.584 
L 414.72 307.584 
" style="fill: none; stroke: #000000; stroke-width: 0.8; stroke-linejoin: miter; stroke-linecap: square"/>
   </g>
   <g id="patch_6">
    <path d="M 57.6 41.472 
L 414.72 41.472 
" style="fill: none; stroke: #000000; stroke-width: 0.8; stroke-linejoin: miter; stroke-linecap: square"/>
   </g>
   <g id="legend_1">
    <g id="patch_7">
     <path d="M 320.360625 93.506375 
L 407.72 93.506375 
Q 409.72 93.506375 409.72 91.506375 
L 409.72 48.472 
Q 409.72 46.472 407.72 46.472 
L 320.360625 46.472 
Q 318.360625 46.472 318.360625 48.472 
L 318.360625 91.506375 
Q 318.360625 93.506375 320.360625 93.506375 
z
" style="fill: #ffffff; opacity: 0.8; stroke: #cccccc; stroke-linejoin: miter"/>
    </g>
    <g id="line2d_18">
     <path d="M 322.360625 54.570438 
L 332.360625 54.570438 
L 342.360625 54.570438 
" style="fill: none; stroke: #ffa500; stroke-width: 1.5; stroke-linecap: square"/>
    </g>
    <g id="text_14">
     <!-- Chebyshev -->
     <g transform="translate(350.360625 58.070438) scale(0.1 -0.1)">
      <defs>
       <path id="DejaVuSans-43" d="M 4122 4306 
L 4122 3641 
Q 3803 3938 3442 4084 
Q 3081 4231 2675 4231 
Q 1875 4231 1450 3742 
Q 1025 3253 1025 2328 
Q 1025 1406 1450 917 
Q 1875 428 2675 428 
Q 3081 428 3442 575 
Q 3803 722 4122 1019 
L 4122 359 
Q 3791 134 3420 21 
Q 3050 -91 2638 -91 
Q 1578 -91 968 557 
Q 359 1206 359 2328 
Q 359 3453 968 4101 
Q 1578 4750 2638 4750 
Q 3056 4750 3426 4639 
Q 3797 4528 4122 4306 
z
" transform="scale(0.015625)"/>
       <path id="DejaVuSans-68" d="M 3513 2113 
L 3513 0 
L 2938 0 
L 2938 2094 
Q 2938 2591 2744 2837 
Q 2550 3084 2163 3084 
Q 1697 3084 1428 2787 
Q 1159 2491 1159 1978 
L 1159 0 
L 581 0 
L 581 4863 
L 1159 4863 
L 1159 2956 
Q 1366 3272 1645 3428 
Q 1925 3584 2291 3584 
Q 2894 3584 3203 3211 
Q 3513 2838 3513 2113 
z
" transform="scale(0.015625)"/>
       <path id="DejaVuSans-65" d="M 3597 1894 
L 3597 1613 
L 953 1613 
Q 991 1019 1311 708 
Q 1631 397 2203 397 
Q 2534 397 2845 478 
Q 3156 559 3463 722 
L 3463 178 
Q 3153 47 2828 -22 
Q 2503 -91 2169 -91 
Q 1331 -91 842 396 
Q 353 884 353 1716 
Q 353 2575 817 3079 
Q 1281 3584 2069 3584 
Q 2775 3584 3186 3129 
Q 3597 2675 3597 1894 
z
M 3022 2063 
Q 3016 2534 2758 2815 
Q 2500 3097 2075 3097 
Q 1594 3097 1305 2825 
Q 1016 2553 972 2059 
L 3022 2063 
z
" transform="scale(0.015625)"/>
       <path id="DejaVuSans-62" d="M 3116 1747 
Q 3116 2381 2855 2742 
Q 2594 3103 2138 3103 
Q 1681 3103 1420 2742 
Q 1159 2381 1159 1747 
Q 1159 1113 1420 752 
Q 1681 391 2138 391 
Q 2594 391 2855 752 
Q 3116 1113 3116 1747 
z
M 1159 2969 
Q 1341 3281 1617 3432 
Q 1894 3584 2278 3584 
Q 2916 3584 3314 3078 
Q 3713 2572 3713 1747 
Q 3713 922 3314 415 
Q 2916 -91 2278 -91 
Q 1894 -91 1617 61 
Q 1341 213 1159 525 
L 1159 0 
L 581 0 
L 581 4863 
L 1159 4863 
L 1159 2969 
z
" transform="scale(0.015625)"/>
       <path id="DejaVuSans-79" d="M 2059 -325 
Q 1816 -950 1584 -1140 
Q 1353 -1331 966 -1331 
L 506 -1331 
L 506 -850 
L 844 -850 
Q 1081 -850 1212 -737 
Q 1344 -625 1503 -206 
L 1606 56 
L 191 3500 
L 800 3500 
L 1894 763 
L 2988 3500 
L 3597 3500 
L 2059 -325 
z
" transform="scale(0.015625)"/>
       <path id="DejaVuSans-73" d="M 2834 3397 
L 2834 2853 
Q 2591 2978 2328 3040 
Q 2066 3103 1784 3103 
Q 1356 3103 1142 2972 
Q 928 2841 928 2578 
Q 928 2378 1081 2264 
Q 1234 2150 1697 2047 
L 1894 2003 
Q 2506 1872 2764 1633 
Q 3022 1394 3022 966 
Q 3022 478 2636 193 
Q 2250 -91 1575 -91 
Q 1294 -91 989 -36 
Q 684 19 347 128 
L 347 722 
Q 666 556 975 473 
Q 1284 391 1588 391 
Q 1994 391 2212 530 
Q 2431 669 2431 922 
Q 2431 1156 2273 1281 
Q 2116 1406 1581 1522 
L 1381 1569 
Q 847 1681 609 1914 
Q 372 2147 372 2553 
Q 372 3047 722 3315 
Q 1072 3584 1716 3584 
Q 2034 3584 2315 3537 
Q 2597 3491 2834 3397 
z
" transform="scale(0.015625)"/>
       <path id="DejaVuSans-76" d="M 191 3500 
L 800 3500 
L 1894 563 
L 2988 3500 
L 3597 3500 
L 2284 0 
L 1503 0 
L 191 3500 
z
" transform="scale(0.015625)"/>
      </defs>
      <use xlink:href="#DejaVuSans-43"/>
      <use xlink:href="#DejaVuSans-68" x="69.824219"/>
      <use xlink:href="#DejaVuSans-65" x="133.203125"/>
      <use xlink:href="#DejaVuSans-62" x="194.726562"/>
      <use xlink:href="#DejaVuSans-79" x="258.203125"/>
      <use xlink:href="#DejaVuSans-73" x="317.382812"/>
      <use xlink:href="#DejaVuSans-68" x="369.482422"/>
      <use xlink:href="#DejaVuSans-65" x="432.861328"/>
      <use xlink:href="#DejaVuSans-76" x="494.384766"/>
     </g>
    </g>
    <g id="line2d_19">
     <path d="M 322.360625 69.248563 
L 332.360625 69.248563 
L 342.360625 69.248563 
" style="fill: none; stroke: #008000; stroke-width: 1.5; stroke-linecap: square"/>
    </g>
    <g id="text_15">
     <!-- Butter -->
     <g transform="translate(350.360625 72.748563) scale(0.1 -0.1)">
      <defs>
       <path id="DejaVuSans-42" d="M 1259 2228 
L 1259 519 
L 2272 519 
Q 2781 519 3026 730 
Q 3272 941 3272 1375 
Q 3272 1813 3026 2020 
Q 2781 2228 2272 2228 
L 1259 2228 
z
M 1259 4147 
L 1259 2741 
L 2194 2741 
Q 2656 2741 2882 2914 
Q 3109 3088 3109 3444 
Q 3109 3797 2882 3972 
Q 2656 4147 2194 4147 
L 1259 4147 
z
M 628 4666 
L 2241 4666 
Q 2963 4666 3353 4366 
Q 3744 4066 3744 3513 
Q 3744 3084 3544 2831 
Q 3344 2578 2956 2516 
Q 3422 2416 3680 2098 
Q 3938 1781 3938 1306 
Q 3938 681 3513 340 
Q 3088 0 2303 0 
L 628 0 
L 628 4666 
z
" transform="scale(0.015625)"/>
       <path id="DejaVuSans-75" d="M 544 1381 
L 544 3500 
L 1119 3500 
L 1119 1403 
Q 1119 906 1312 657 
Q 1506 409 1894 409 
Q 2359 409 2629 706 
Q 2900 1003 2900 1516 
L 2900 3500 
L 3475 3500 
L 3475 0 
L 2900 0 
L 2900 538 
Q 2691 219 2414 64 
Q 2138 -91 1772 -91 
Q 1169 -91 856 284 
Q 544 659 544 1381 
z
M 1991 3584 
L 1991 3584 
z
" transform="scale(0.015625)"/>
       <path id="DejaVuSans-74" d="M 1172 4494 
L 1172 3500 
L 2356 3500 
L 2356 3053 
L 1172 3053 
L 1172 1153 
Q 1172 725 1289 603 
Q 1406 481 1766 481 
L 2356 481 
L 2356 0 
L 1766 0 
Q 1100 0 847 248 
Q 594 497 594 1153 
L 594 3053 
L 172 3053 
L 172 3500 
L 594 3500 
L 594 4494 
L 1172 4494 
z
" transform="scale(0.015625)"/>
       <path id="DejaVuSans-72" d="M 2631 2963 
Q 2534 3019 2420 3045 
Q 2306 3072 2169 3072 
Q 1681 3072 1420 2755 
Q 1159 2438 1159 1844 
L 1159 0 
L 581 0 
L 581 3500 
L 1159 3500 
L 1159 2956 
Q 1341 3275 1631 3429 
Q 1922 3584 2338 3584 
Q 2397 3584 2469 3576 
Q 2541 3569 2628 3553 
L 2631 2963 
z
" transform="scale(0.015625)"/>
      </defs>
      <use xlink:href="#DejaVuSans-42"/>
      <use xlink:href="#DejaVuSans-75" x="68.603516"/>
      <use xlink:href="#DejaVuSans-74" x="131.982422"/>
      <use xlink:href="#DejaVuSans-74" x="171.191406"/>
      <use xlink:href="#DejaVuSans-65" x="210.400391"/>
      <use xlink:href="#DejaVuSans-72" x="271.923828"/>
     </g>
    </g>
    <g id="line2d_20">
     <path d="M 332.360625 87.426688 
L 332.360625 82.614188 
" style="fill: none; stroke: #1f77b4; stroke-width: 1.5"/>
    </g>
    <g id="line2d_21">
     <path d="M 322.360625 87.426688 
L 342.360625 87.426688 
" style="fill: none; stroke: #d62728; stroke-width: 1.5; stroke-linecap: square"/>
    </g>
    <g id="line2d_22">
     <g>
      <use xlink:href="#mf906cbd07a" x="332.360625" y="82.614188" style="fill: #1f77b4; stroke: #1f77b4"/>
     </g>
    </g>
    <g id="text_16">
     <!-- Raw Data -->
     <g transform="translate(350.360625 87.426688) scale(0.1 -0.1)">
      <defs>
       <path id="DejaVuSans-52" d="M 2841 2188 
Q 3044 2119 3236 1894 
Q 3428 1669 3622 1275 
L 4263 0 
L 3584 0 
L 2988 1197 
Q 2756 1666 2539 1819 
Q 2322 1972 1947 1972 
L 1259 1972 
L 1259 0 
L 628 0 
L 628 4666 
L 2053 4666 
Q 2853 4666 3247 4331 
Q 3641 3997 3641 3322 
Q 3641 2881 3436 2590 
Q 3231 2300 2841 2188 
z
M 1259 4147 
L 1259 2491 
L 2053 2491 
Q 2509 2491 2742 2702 
Q 2975 2913 2975 3322 
Q 2975 3731 2742 3939 
Q 2509 4147 2053 4147 
L 1259 4147 
z
" transform="scale(0.015625)"/>
       <path id="DejaVuSans-61" d="M 2194 1759 
Q 1497 1759 1228 1600 
Q 959 1441 959 1056 
Q 959 750 1161 570 
Q 1363 391 1709 391 
Q 2188 391 2477 730 
Q 2766 1069 2766 1631 
L 2766 1759 
L 2194 1759 
z
M 3341 1997 
L 3341 0 
L 2766 0 
L 2766 531 
Q 2569 213 2275 61 
Q 1981 -91 1556 -91 
Q 1019 -91 701 211 
Q 384 513 384 1019 
Q 384 1609 779 1909 
Q 1175 2209 1959 2209 
L 2766 2209 
L 2766 2266 
Q 2766 2663 2505 2880 
Q 2244 3097 1772 3097 
Q 1472 3097 1187 3025 
Q 903 2953 641 2809 
L 641 3341 
Q 956 3463 1253 3523 
Q 1550 3584 1831 3584 
Q 2591 3584 2966 3190 
Q 3341 2797 3341 1997 
z
" transform="scale(0.015625)"/>
       <path id="DejaVuSans-77" d="M 269 3500 
L 844 3500 
L 1563 769 
L 2278 3500 
L 2956 3500 
L 3675 769 
L 4391 3500 
L 4966 3500 
L 4050 0 
L 3372 0 
L 2619 2869 
L 1863 0 
L 1184 0 
L 269 3500 
z
" transform="scale(0.015625)"/>
       <path id="DejaVuSans-20" transform="scale(0.015625)"/>
       <path id="DejaVuSans-44" d="M 1259 4147 
L 1259 519 
L 2022 519 
Q 2988 519 3436 956 
Q 3884 1394 3884 2338 
Q 3884 3275 3436 3711 
Q 2988 4147 2022 4147 
L 1259 4147 
z
M 628 4666 
L 1925 4666 
Q 3281 4666 3915 4102 
Q 4550 3538 4550 2338 
Q 4550 1131 3912 565 
Q 3275 0 1925 0 
L 628 0 
L 628 4666 
z
" transform="scale(0.015625)"/>
      </defs>
      <use xlink:href="#DejaVuSans-52"/>
      <use xlink:href="#DejaVuSans-61" x="67.232422"/>
      <use xlink:href="#DejaVuSans-77" x="128.511719"/>
      <use xlink:href="#DejaVuSans-20" x="210.298828"/>
      <use xlink:href="#DejaVuSans-44" x="242.085938"/>
      <use xlink:href="#DejaVuSans-61" x="319.087891"/>
      <use xlink:href="#DejaVuSans-74" x="380.367188"/>
      <use xlink:href="#DejaVuSans-61" x="419.576172"/>
     </g>
    </g>
   </g>
  </g>
 </g>
 <defs>
  <clipPath id="p0f834e2270">
   <rect x="57.6" y="41.472" width="357.12" height="266.112"/>
  </clipPath>
 </defs>
</svg>
