<?xml version="1.0" encoding="utf-8" standalone="no"?>
<!DOCTYPE svg PUBLIC "-//W3C//DTD SVG 1.1//EN"
  "http://www.w3.org/Graphics/SVG/1.1/DTD/svg11.dtd">
<svg xmlns:xlink="http://www.w3.org/1999/xlink" width="460.8pt" height="345.6pt" viewBox="0 0 460.8 345.6" xmlns="http://www.w3.org/2000/svg" version="1.1">
 <metadata>
  <rdf:RDF xmlns:dc="http://purl.org/dc/elements/1.1/" xmlns:cc="http://creativecommons.org/ns#" xmlns:rdf="http://www.w3.org/1999/02/22-rdf-syntax-ns#">
   <cc:Work>
    <dc:type rdf:resource="http://purl.org/dc/dcmitype/StillImage"/>
    <dc:format>image/svg+xml</dc:format>
    <dc:creator>
     <cc:Agent>
      <dc:title>Matplotlib v3.8.4, https://matplotlib.org/</dc:title>
     </cc:Agent>
    </dc:creator>
   </cc:Work>
  </rdf:RDF>
 </metadata>
 <defs>
  <style type="text/css">*{stroke-linejoin: round; stroke-linecap: butt}</style>
 </defs>
 <g id="figure_1">
  <g id="patch_1">
   <path d="M 0 345.6 
L 460.8 345.6 
L 460.8 0 
L 0 0 
z
" style="fill: #ffffff"/>
  </g>
  <g id="axes_1">
   <g id="patch_2">
    <path d="M 55.296 303.64 
L 220.975808 303.64 
L 220.975808 14.76 
L 55.296 14.76 
z
" style="fill: #ffffff"/>
   </g>
   <g id="matplotlib.axis_1">
    <g id="xtick_1">
     <g id="line2d_1">
      <defs>
       <path id="mbcb02aef95" d="M 0 0 
L 0 3.5 
" style="stroke: #000000; stroke-width: 0.8"/>
      </defs>
      <g>
       <use xlink:href="#mbcb02aef95" x="55.296" y="303.64" style="stroke: #000000; stroke-width: 0.8"/>
      </g>
     </g>
     <g id="text_1">
      <!-- 0.0 -->
      <g transform="translate(47.344437 318.238437) scale(0.1 -0.1)">
       <defs>
        <path id="DejaVuSans-30" d="M 2034 4250 
Q 1547 4250 1301 3770 
Q 1056 3291 1056 2328 
Q 1056 1369 1301 889 
Q 1547 409 2034 409 
Q 2525 409 2770 889 
Q 3016 1369 3016 2328 
Q 3016 3291 2770 3770 
Q 2525 4250 2034 4250 
z
M 2034 4750 
Q 2819 4750 3233 4129 
Q 3647 3509 3647 2328 
Q 3647 1150 3233 529 
Q 2819 -91 2034 -91 
Q 1250 -91 836 529 
Q 422 1150 422 2328 
Q 422 3509 836 4129 
Q 1250 4750 2034 4750 
z
" transform="scale(0.015625)"/>
        <path id="DejaVuSans-2e" d="M 684 794 
L 1344 794 
L 1344 0 
L 684 0 
L 684 794 
z
" transform="scale(0.015625)"/>
       </defs>
       <use xlink:href="#DejaVuSans-30"/>
       <use xlink:href="#DejaVuSans-2e" x="63.623047"/>
       <use xlink:href="#DejaVuSans-30" x="95.410156"/>
      </g>
     </g>
    </g>
    <g id="xtick_2">
     <g id="line2d_2">
      <g>
       <use xlink:href="#mbcb02aef95" x="88.431962" y="303.64" style="stroke: #000000; stroke-width: 0.8"/>
      </g>
     </g>
     <g id="text_2">
      <!-- 0.2 -->
      <g transform="translate(80.480399 318.238437) scale(0.1 -0.1)">
       <defs>
        <path id="DejaVuSans-32" d="M 1228 531 
L 3431 531 
L 3431 0 
L 469 0 
L 469 531 
Q 828 903 1448 1529 
Q 2069 2156 2228 2338 
Q 2531 2678 2651 2914 
Q 2772 3150 2772 3378 
Q 2772 3750 2511 3984 
Q 2250 4219 1831 4219 
Q 1534 4219 1204 4116 
Q 875 4013 500 3803 
L 500 4441 
Q 881 4594 1212 4672 
Q 1544 4750 1819 4750 
Q 2544 4750 2975 4387 
Q 3406 4025 3406 3419 
Q 3406 3131 3298 2873 
Q 3191 2616 2906 2266 
Q 2828 2175 2409 1742 
Q 1991 1309 1228 531 
z
" transform="scale(0.015625)"/>
       </defs>
       <use xlink:href="#DejaVuSans-30"/>
       <use xlink:href="#DejaVuSans-2e" x="63.623047"/>
       <use xlink:href="#DejaVuSans-32" x="95.410156"/>
      </g>
     </g>
    </g>
    <g id="xtick_3">
     <g id="line2d_3">
      <g>
       <use xlink:href="#mbcb02aef95" x="121.567923" y="303.64" style="stroke: #000000; stroke-width: 0.8"/>
      </g>
     </g>
     <g id="text_3">
      <!-- 0.4 -->
      <g transform="translate(113.616361 318.238437) scale(0.1 -0.1)">
       <defs>
        <path id="DejaVuSans-34" d="M 2419 4116 
L 825 1625 
L 2419 1625 
L 2419 4116 
z
M 2253 4666 
L 3047 4666 
L 3047 1625 
L 3713 1625 
L 3713 1100 
L 3047 1100 
L 3047 0 
L 2419 0 
L 2419 1100 
L 313 1100 
L 313 1709 
L 2253 4666 
z
" transform="scale(0.015625)"/>
       </defs>
       <use xlink:href="#DejaVuSans-30"/>
       <use xlink:href="#DejaVuSans-2e" x="63.623047"/>
       <use xlink:href="#DejaVuSans-34" x="95.410156"/>
      </g>
     </g>
    </g>
    <g id="xtick_4">
     <g id="line2d_4">
      <g>
       <use xlink:href="#mbcb02aef95" x="154.703885" y="303.64" style="stroke: #000000; stroke-width: 0.8"/>
      </g>
     </g>
     <g id="text_4">
      <!-- 0.6 -->
      <g transform="translate(146.752322 318.238437) scale(0.1 -0.1)">
       <defs>
        <path id="DejaVuSans-36" d="M 2113 2584 
Q 1688 2584 1439 2293 
Q 1191 2003 1191 1497 
Q 1191 994 1439 701 
Q 1688 409 2113 409 
Q 2538 409 2786 701 
Q 3034 994 3034 1497 
Q 3034 2003 2786 2293 
Q 2538 2584 2113 2584 
z
M 3366 4563 
L 3366 3988 
Q 3128 4100 2886 4159 
Q 2644 4219 2406 4219 
Q 1781 4219 1451 3797 
Q 1122 3375 1075 2522 
Q 1259 2794 1537 2939 
Q 1816 3084 2150 3084 
Q 2853 3084 3261 2657 
Q 3669 2231 3669 1497 
Q 3669 778 3244 343 
Q 2819 -91 2113 -91 
Q 1303 -91 875 529 
Q 447 1150 447 2328 
Q 447 3434 972 4092 
Q 1497 4750 2381 4750 
Q 2619 4750 2861 4703 
Q 3103 4656 3366 4563 
z
" transform="scale(0.015625)"/>
       </defs>
       <use xlink:href="#DejaVuSans-30"/>
       <use xlink:href="#DejaVuSans-2e" x="63.623047"/>
       <use xlink:href="#DejaVuSans-36" x="95.410156"/>
      </g>
     </g>
    </g>
    <g id="xtick_5">
     <g id="line2d_5">
      <g>
       <use xlink:href="#mbcb02aef95" x="187.839846" y="303.64" style="stroke: #000000; stroke-width: 0.8"/>
      </g>
     </g>
     <g id="text_5">
      <!-- 0.8 -->
      <g transform="translate(179.888284 318.238437) scale(0.1 -0.1)">
       <defs>
        <path id="DejaVuSans-38" d="M 2034 2216 
Q 1584 2216 1326 1975 
Q 1069 1734 1069 1313 
Q 1069 891 1326 650 
Q 1584 409 2034 409 
Q 2484 409 2743 651 
Q 3003 894 3003 1313 
Q 3003 1734 2745 1975 
Q 2488 2216 2034 2216 
z
M 1403 2484 
Q 997 2584 770 2862 
Q 544 3141 544 3541 
Q 544 4100 942 4425 
Q 1341 4750 2034 4750 
Q 2731 4750 3128 4425 
Q 3525 4100 3525 3541 
Q 3525 3141 3298 2862 
Q 3072 2584 2669 2484 
Q 3125 2378 3379 2068 
Q 3634 1759 3634 1313 
Q 3634 634 3220 271 
Q 2806 -91 2034 -91 
Q 1263 -91 848 271 
Q 434 634 434 1313 
Q 434 1759 690 2068 
Q 947 2378 1403 2484 
z
M 1172 3481 
Q 1172 3119 1398 2916 
Q 1625 2713 2034 2713 
Q 2441 2713 2670 2916 
Q 2900 3119 2900 3481 
Q 2900 3844 2670 4047 
Q 2441 4250 2034 4250 
Q 1625 4250 1398 4047 
Q 1172 3844 1172 3481 
z
" transform="scale(0.015625)"/>
       </defs>
       <use xlink:href="#DejaVuSans-30"/>
       <use xlink:href="#DejaVuSans-2e" x="63.623047"/>
       <use xlink:href="#DejaVuSans-38" x="95.410156"/>
      </g>
     </g>
    </g>
    <g id="xtick_6">
     <g id="line2d_6">
      <g>
       <use xlink:href="#mbcb02aef95" x="220.975808" y="303.64" style="stroke: #000000; stroke-width: 0.8"/>
      </g>
     </g>
     <g id="text_6">
      <!-- 1.0 -->
      <g transform="translate(213.024245 318.238437) scale(0.1 -0.1)">
       <defs>
        <path id="DejaVuSans-31" d="M 794 531 
L 1825 531 
L 1825 4091 
L 703 3866 
L 703 4441 
L 1819 4666 
L 2450 4666 
L 2450 531 
L 3481 531 
L 3481 0 
L 794 0 
L 794 531 
z
" transform="scale(0.015625)"/>
       </defs>
       <use xlink:href="#DejaVuSans-31"/>
       <use xlink:href="#DejaVuSans-2e" x="63.623047"/>
       <use xlink:href="#DejaVuSans-30" x="95.410156"/>
      </g>
     </g>
    </g>
    <g id="text_7">
     <!-- Time -->
     <g transform="translate(125.90231 331.916562) scale(0.1 -0.1)">
      <defs>
       <path id="DejaVuSans-54" d="M -19 4666 
L 3928 4666 
L 3928 4134 
L 2272 4134 
L 2272 0 
L 1638 0 
L 1638 4134 
L -19 4134 
L -19 4666 
z
" transform="scale(0.015625)"/>
       <path id="DejaVuSans-69" d="M 603 3500 
L 1178 3500 
L 1178 0 
L 603 0 
L 603 3500 
z
M 603 4863 
L 1178 4863 
L 1178 4134 
L 603 4134 
L 603 4863 
z
" transform="scale(0.015625)"/>
       <path id="DejaVuSans-6d" d="M 3328 2828 
Q 3544 3216 3844 3400 
Q 4144 3584 4550 3584 
Q 5097 3584 5394 3201 
Q 5691 2819 5691 2113 
L 5691 0 
L 5113 0 
L 5113 2094 
Q 5113 2597 4934 2840 
Q 4756 3084 4391 3084 
Q 3944 3084 3684 2787 
Q 3425 2491 3425 1978 
L 3425 0 
L 2847 0 
L 2847 2094 
Q 2847 2600 2669 2842 
Q 2491 3084 2119 3084 
Q 1678 3084 1418 2786 
Q 1159 2488 1159 1978 
L 1159 0 
L 581 0 
L 581 3500 
L 1159 3500 
L 1159 2956 
Q 1356 3278 1631 3431 
Q 1906 3584 2284 3584 
Q 2666 3584 2933 3390 
Q 3200 3197 3328 2828 
z
" transform="scale(0.015625)"/>
       <path id="DejaVuSans-65" d="M 3597 1894 
L 3597 1613 
L 953 1613 
Q 991 1019 1311 708 
Q 1631 397 2203 397 
Q 2534 397 2845 478 
Q 3156 559 3463 722 
L 3463 178 
Q 3153 47 2828 -22 
Q 2503 -91 2169 -91 
Q 1331 -91 842 396 
Q 353 884 353 1716 
Q 353 2575 817 3079 
Q 1281 3584 2069 3584 
Q 2775 3584 3186 3129 
Q 3597 2675 3597 1894 
z
M 3022 2063 
Q 3016 2534 2758 2815 
Q 2500 3097 2075 3097 
Q 1594 3097 1305 2825 
Q 1016 2553 972 2059 
L 3022 2063 
z
" transform="scale(0.015625)"/>
      </defs>
      <use xlink:href="#DejaVuSans-54"/>
      <use xlink:href="#DejaVuSans-69" x="57.958984"/>
      <use xlink:href="#DejaVuSans-6d" x="85.742188"/>
      <use xlink:href="#DejaVuSans-65" x="183.154297"/>
     </g>
    </g>
   </g>
   <g id="matplotlib.axis_2">
    <g id="ytick_1">
     <g id="line2d_7">
      <defs>
       <path id="me5179b328b" d="M 0 0 
L -3.5 0 
" style="stroke: #000000; stroke-width: 0.8"/>
      </defs>
      <g>
       <use xlink:href="#me5179b328b" x="55.296" y="290.509117" style="stroke: #000000; stroke-width: 0.8"/>
      </g>
     </g>
     <g id="text_8">
      <!-- −1.00 -->
      <g transform="translate(17.650687 294.308336) scale(0.1 -0.1)">
       <defs>
        <path id="DejaVuSans-2212" d="M 678 2272 
L 4684 2272 
L 4684 1741 
L 678 1741 
L 678 2272 
z
" transform="scale(0.015625)"/>
       </defs>
       <use xlink:href="#DejaVuSans-2212"/>
       <use xlink:href="#DejaVuSans-31" x="83.789062"/>
       <use xlink:href="#DejaVuSans-2e" x="147.412109"/>
       <use xlink:href="#DejaVuSans-30" x="179.199219"/>
       <use xlink:href="#DejaVuSans-30" x="242.822266"/>
      </g>
     </g>
    </g>
    <g id="ytick_2">
     <g id="line2d_8">
      <g>
       <use xlink:href="#me5179b328b" x="55.296" y="257.681841" style="stroke: #000000; stroke-width: 0.8"/>
      </g>
     </g>
     <g id="text_9">
      <!-- −0.75 -->
      <g transform="translate(17.650687 261.48106) scale(0.1 -0.1)">
       <defs>
        <path id="DejaVuSans-37" d="M 525 4666 
L 3525 4666 
L 3525 4397 
L 1831 0 
L 1172 0 
L 2766 4134 
L 525 4134 
L 525 4666 
z
" transform="scale(0.015625)"/>
        <path id="DejaVuSans-35" d="M 691 4666 
L 3169 4666 
L 3169 4134 
L 1269 4134 
L 1269 2991 
Q 1406 3038 1543 3061 
Q 1681 3084 1819 3084 
Q 2600 3084 3056 2656 
Q 3513 2228 3513 1497 
Q 3513 744 3044 326 
Q 2575 -91 1722 -91 
Q 1428 -91 1123 -41 
Q 819 9 494 109 
L 494 744 
Q 775 591 1075 516 
Q 1375 441 1709 441 
Q 2250 441 2565 725 
Q 2881 1009 2881 1497 
Q 2881 1984 2565 2268 
Q 2250 2553 1709 2553 
Q 1456 2553 1204 2497 
Q 953 2441 691 2322 
L 691 4666 
z
" transform="scale(0.015625)"/>
       </defs>
       <use xlink:href="#DejaVuSans-2212"/>
       <use xlink:href="#DejaVuSans-30" x="83.789062"/>
       <use xlink:href="#DejaVuSans-2e" x="147.412109"/>
       <use xlink:href="#DejaVuSans-37" x="179.199219"/>
       <use xlink:href="#DejaVuSans-35" x="242.822266"/>
      </g>
     </g>
    </g>
    <g id="ytick_3">
     <g id="line2d_9">
      <g>
       <use xlink:href="#me5179b328b" x="55.296" y="224.854565" style="stroke: #000000; stroke-width: 0.8"/>
      </g>
     </g>
     <g id="text_10">
      <!-- −0.50 -->
      <g transform="translate(17.650687 228.653784) scale(0.1 -0.1)">
       <use xlink:href="#DejaVuSans-2212"/>
       <use xlink:href="#DejaVuSans-30" x="83.789062"/>
       <use xlink:href="#DejaVuSans-2e" x="147.412109"/>
       <use xlink:href="#DejaVuSans-35" x="179.199219"/>
       <use xlink:href="#DejaVuSans-30" x="242.822266"/>
      </g>
     </g>
    </g>
    <g id="ytick_4">
     <g id="line2d_10">
      <g>
       <use xlink:href="#me5179b328b" x="55.296" y="192.027289" style="stroke: #000000; stroke-width: 0.8"/>
      </g>
     </g>
     <g id="text_11">
      <!-- −0.25 -->
      <g transform="translate(17.650687 195.826508) scale(0.1 -0.1)">
       <use xlink:href="#DejaVuSans-2212"/>
       <use xlink:href="#DejaVuSans-30" x="83.789062"/>
       <use xlink:href="#DejaVuSans-2e" x="147.412109"/>
       <use xlink:href="#DejaVuSans-32" x="179.199219"/>
       <use xlink:href="#DejaVuSans-35" x="242.822266"/>
      </g>
     </g>
    </g>
    <g id="ytick_5">
     <g id="line2d_11">
      <g>
       <use xlink:href="#me5179b328b" x="55.296" y="159.200013" style="stroke: #000000; stroke-width: 0.8"/>
      </g>
     </g>
     <g id="text_12">
      <!-- 0.00 -->
      <g transform="translate(26.030375 162.999232) scale(0.1 -0.1)">
       <use xlink:href="#DejaVuSans-30"/>
       <use xlink:href="#DejaVuSans-2e" x="63.623047"/>
       <use xlink:href="#DejaVuSans-30" x="95.410156"/>
       <use xlink:href="#DejaVuSans-30" x="159.033203"/>
      </g>
     </g>
    </g>
    <g id="ytick_6">
     <g id="line2d_12">
      <g>
       <use xlink:href="#me5179b328b" x="55.296" y="126.372737" style="stroke: #000000; stroke-width: 0.8"/>
      </g>
     </g>
     <g id="text_13">
      <!-- 0.25 -->
      <g transform="translate(26.030375 130.171956) scale(0.1 -0.1)">
       <use xlink:href="#DejaVuSans-30"/>
       <use xlink:href="#DejaVuSans-2e" x="63.623047"/>
       <use xlink:href="#DejaVuSans-32" x="95.410156"/>
       <use xlink:href="#DejaVuSans-35" x="159.033203"/>
      </g>
     </g>
    </g>
    <g id="ytick_7">
     <g id="line2d_13">
      <g>
       <use xlink:href="#me5179b328b" x="55.296" y="93.545461" style="stroke: #000000; stroke-width: 0.8"/>
      </g>
     </g>
     <g id="text_14">
      <!-- 0.50 -->
      <g transform="translate(26.030375 97.34468) scale(0.1 -0.1)">
       <use xlink:href="#DejaVuSans-30"/>
       <use xlink:href="#DejaVuSans-2e" x="63.623047"/>
       <use xlink:href="#DejaVuSans-35" x="95.410156"/>
       <use xlink:href="#DejaVuSans-30" x="159.033203"/>
      </g>
     </g>
    </g>
    <g id="ytick_8">
     <g id="line2d_14">
      <g>
       <use xlink:href="#me5179b328b" x="55.296" y="60.718185" style="stroke: #000000; stroke-width: 0.8"/>
      </g>
     </g>
     <g id="text_15">
      <!-- 0.75 -->
      <g transform="translate(26.030375 64.517404) scale(0.1 -0.1)">
       <use xlink:href="#DejaVuSans-30"/>
       <use xlink:href="#DejaVuSans-2e" x="63.623047"/>
       <use xlink:href="#DejaVuSans-37" x="95.410156"/>
       <use xlink:href="#DejaVuSans-35" x="159.033203"/>
      </g>
     </g>
    </g>
    <g id="ytick_9">
     <g id="line2d_15">
      <g>
       <use xlink:href="#me5179b328b" x="55.296" y="27.890909" style="stroke: #000000; stroke-width: 0.8"/>
      </g>
     </g>
     <g id="text_16">
      <!-- 1.00 -->
      <g transform="translate(26.030375 31.690128) scale(0.1 -0.1)">
       <use xlink:href="#DejaVuSans-31"/>
       <use xlink:href="#DejaVuSans-2e" x="63.623047"/>
       <use xlink:href="#DejaVuSans-30" x="95.410156"/>
       <use xlink:href="#DejaVuSans-30" x="159.033203"/>
      </g>
     </g>
    </g>
    <g id="text_17">
     <!-- Amplitude -->
     <g transform="translate(11.571 184.822656) rotate(-90) scale(0.1 -0.1)">
      <defs>
       <path id="DejaVuSans-41" d="M 2188 4044 
L 1331 1722 
L 3047 1722 
L 2188 4044 
z
M 1831 4666 
L 2547 4666 
L 4325 0 
L 3669 0 
L 3244 1197 
L 1141 1197 
L 716 0 
L 50 0 
L 1831 4666 
z
" transform="scale(0.015625)"/>
       <path id="DejaVuSans-70" d="M 1159 525 
L 1159 -1331 
L 581 -1331 
L 581 3500 
L 1159 3500 
L 1159 2969 
Q 1341 3281 1617 3432 
Q 1894 3584 2278 3584 
Q 2916 3584 3314 3078 
Q 3713 2572 3713 1747 
Q 3713 922 3314 415 
Q 2916 -91 2278 -91 
Q 1894 -91 1617 61 
Q 1341 213 1159 525 
z
M 3116 1747 
Q 3116 2381 2855 2742 
Q 2594 3103 2138 3103 
Q 1681 3103 1420 2742 
Q 1159 2381 1159 1747 
Q 1159 1113 1420 752 
Q 1681 391 2138 391 
Q 2594 391 2855 752 
Q 3116 1113 3116 1747 
z
" transform="scale(0.015625)"/>
       <path id="DejaVuSans-6c" d="M 603 4863 
L 1178 4863 
L 1178 0 
L 603 0 
L 603 4863 
z
" transform="scale(0.015625)"/>
       <path id="DejaVuSans-74" d="M 1172 4494 
L 1172 3500 
L 2356 3500 
L 2356 3053 
L 1172 3053 
L 1172 1153 
Q 1172 725 1289 603 
Q 1406 481 1766 481 
L 2356 481 
L 2356 0 
L 1766 0 
Q 1100 0 847 248 
Q 594 497 594 1153 
L 594 3053 
L 172 3053 
L 172 3500 
L 594 3500 
L 594 4494 
L 1172 4494 
z
" transform="scale(0.015625)"/>
       <path id="DejaVuSans-75" d="M 544 1381 
L 544 3500 
L 1119 3500 
L 1119 1403 
Q 1119 906 1312 657 
Q 1506 409 1894 409 
Q 2359 409 2629 706 
Q 2900 1003 2900 1516 
L 2900 3500 
L 3475 3500 
L 3475 0 
L 2900 0 
L 2900 538 
Q 2691 219 2414 64 
Q 2138 -91 1772 -91 
Q 1169 -91 856 284 
Q 544 659 544 1381 
z
M 1991 3584 
L 1991 3584 
z
" transform="scale(0.015625)"/>
       <path id="DejaVuSans-64" d="M 2906 2969 
L 2906 4863 
L 3481 4863 
L 3481 0 
L 2906 0 
L 2906 525 
Q 2725 213 2448 61 
Q 2172 -91 1784 -91 
Q 1150 -91 751 415 
Q 353 922 353 1747 
Q 353 2572 751 3078 
Q 1150 3584 1784 3584 
Q 2172 3584 2448 3432 
Q 2725 3281 2906 2969 
z
M 947 1747 
Q 947 1113 1208 752 
Q 1469 391 1925 391 
Q 2381 391 2643 752 
Q 2906 1113 2906 1747 
Q 2906 2381 2643 2742 
Q 2381 3103 1925 3103 
Q 1469 3103 1208 2742 
Q 947 2381 947 1747 
z
" transform="scale(0.015625)"/>
      </defs>
      <use xlink:href="#DejaVuSans-41"/>
      <use xlink:href="#DejaVuSans-6d" x="68.408203"/>
      <use xlink:href="#DejaVuSans-70" x="165.820312"/>
      <use xlink:href="#DejaVuSans-6c" x="229.296875"/>
      <use xlink:href="#DejaVuSans-69" x="257.080078"/>
      <use xlink:href="#DejaVuSans-74" x="284.863281"/>
      <use xlink:href="#DejaVuSans-75" x="324.072266"/>
      <use xlink:href="#DejaVuSans-64" x="387.451172"/>
      <use xlink:href="#DejaVuSans-65" x="450.927734"/>
     </g>
    </g>
   </g>
   <g id="line2d_16">
    <path d="M 55.296 159.200013 
L 220.975808 159.200013 
" clip-path="url(#pc117a08659)" style="fill: none; stroke: #000000; stroke-width: 1.5; stroke-linecap: square"/>
   </g>
   <g id="line2d_17">
    <path d="M 55.296 27.890909 
L 55.362285 27.984245 
L 55.494856 28.730137 
L 55.726854 31.815121 
L 56.05828 40.043831 
L 56.489133 56.992015 
L 57.0857 90.262557 
L 58.079978 160.891635 
L 59.339396 246.698484 
L 59.969105 275.4714 
L 60.399959 286.802116 
L 60.698242 290.201166 
L 60.830813 290.505979 
L 60.863955 290.465531 
L 60.996525 289.837565 
L 61.195381 287.505501 
L 61.493664 280.947351 
L 61.891375 266.810758 
L 62.454799 237.62463 
L 63.283364 181.251761 
L 64.907351 69.20813 
L 65.503918 42.509606 
L 65.934771 31.386796 
L 66.233055 28.13986 
L 66.332482 27.892569 
L 66.365625 27.903459 
L 66.465053 28.216038 
L 66.630766 29.666813 
L 66.895907 34.371293 
L 67.260475 45.434887 
L 67.757614 68.251208 
L 68.453608 111.813224 
L 70.740447 264.590846 
L 71.270728 283.102478 
L 71.635297 289.399619 
L 71.867295 290.508883 
L 71.966723 290.284914 
L 72.132436 288.980964 
L 72.397576 284.506294 
L 72.762145 273.739959 
L 73.259284 251.273213 
L 73.955278 208.045622 
L 76.308402 51.826239 
L 76.805541 34.999959 
L 77.170109 28.885768 
L 77.368965 27.897547 
L 77.43525 27.941106 
L 77.567821 28.587698 
L 77.766676 30.9474 
L 78.064959 37.545631 
L 78.46267 51.731323 
L 79.026094 80.974093 
L 79.854659 137.39235 
L 81.478646 249.372015 
L 82.075213 276.003732 
L 82.506066 287.069746 
L 82.80435 290.27517 
L 82.903778 290.508469 
L 82.93692 290.492911 
L 83.036348 290.166345 
L 83.202061 288.692405 
L 83.467202 283.9517 
L 83.83177 272.841313 
L 84.328909 249.970093 
L 85.024903 206.355839 
L 87.311742 53.661698 
L 87.842023 35.2158 
L 88.206592 28.968524 
L 88.43859 27.891843 
L 88.538018 28.129805 
L 88.703731 29.456951 
L 88.968871 33.96795 
L 89.33344 44.781324 
L 89.830579 67.30348 
L 90.526573 110.584287 
L 92.846555 265.275881 
L 93.343693 282.659054 
L 93.708262 289.221765 
L 93.94026 290.504735 
L 94.006545 290.451842 
L 94.139116 289.786626 
L 94.337971 287.399295 
L 94.636254 280.761006 
L 95.033965 266.526265 
L 95.59739 237.226958 
L 96.425954 180.763514 
L 98.049941 68.848213 
L 98.646508 42.283398 
L 99.077361 31.274217 
L 99.375645 28.110317 
L 99.475073 27.891013 
L 99.508215 27.911237 
L 99.607643 28.251789 
L 99.806498 30.186852 
L 100.071639 35.324896 
L 100.46935 48.251668 
L 100.999632 74.127255 
L 101.761911 124.02724 
L 103.684181 255.413622 
L 104.247606 278.666337 
L 104.645317 287.846338 
L 104.910457 290.339028 
L 105.009885 290.507017 
L 105.043028 290.46968 
L 105.175598 289.854132 
L 105.374454 287.540498 
L 105.672737 281.009081 
L 106.070448 266.905249 
L 106.633872 237.756939 
L 107.462437 181.41444 
L 109.086424 69.328387 
L 109.68299 42.585377 
L 110.113844 31.424727 
L 110.412127 28.150121 
L 110.544698 27.901281 
L 110.644125 28.204534 
L 110.809838 29.639864 
L 111.074979 34.320184 
L 111.439548 45.352561 
L 111.936686 68.132237 
L 112.632681 111.659342 
L 114.91952 264.492316 
L 115.449801 283.047734 
L 115.814369 289.378107 
L 116.046368 290.509091 
L 116.112653 290.412644 
L 116.245223 289.660548 
L 116.477221 286.564857 
L 116.808647 278.3215 
L 117.239501 261.356185 
L 117.836067 228.067222 
L 118.830345 157.425877 
L 120.089764 71.640029 
L 120.719473 42.890303 
L 121.150326 31.578465 
L 121.44861 28.193238 
L 121.58118 27.894643 
L 121.614323 27.936647 
L 121.746893 28.570822 
L 121.945749 30.912099 
L 122.244032 37.483613 
L 122.641743 51.636577 
L 123.205167 80.841598 
L 124.033732 137.229618 
L 125.657719 249.251971 
L 126.254285 275.928237 
L 126.685139 287.032119 
L 126.983422 290.265219 
L 127.08285 290.507846 
L 127.115993 290.4954 
L 127.21542 290.178159 
L 127.381133 288.719661 
L 127.646274 284.003104 
L 128.010843 272.923909 
L 128.507981 250.089279 
L 129.203976 206.509833 
L 131.490815 53.759978 
L 132.021096 35.27025 
L 132.385664 28.989728 
L 132.617663 27.891324 
L 132.71709 28.119958 
L 132.882803 29.43164 
L 133.147944 33.918422 
L 133.512513 44.700441 
L 134.009651 67.185666 
L 134.705646 110.431013 
L 137.05877 266.621266 
L 137.555909 283.426827 
L 137.920477 289.524371 
L 138.119333 290.503283 
L 138.185618 290.456613 
L 138.318188 289.803812 
L 138.517044 287.4349 
L 138.815327 280.823313 
L 139.213038 266.621266 
L 139.776462 237.359639 
L 140.605027 180.926297 
L 142.229014 68.968043 
L 142.82558 42.358616 
L 143.256434 31.311542 
L 143.554717 28.119958 
L 143.654145 27.891324 
L 143.687288 27.908437 
L 143.786715 28.239665 
L 143.952428 29.721326 
L 144.217569 34.474103 
L 144.582138 45.600077 
L 145.079276 68.48958 
L 145.775271 112.121212 
L 148.06211 264.787405 
L 148.592391 283.211378 
L 148.95696 289.442026 
L 149.188958 290.507846 
L 149.288385 290.265219 
L 149.454098 288.930343 
L 149.719239 284.407237 
L 150.083808 273.578192 
L 150.580946 251.037584 
L 151.276941 207.739073 
L 153.596922 53.075527 
L 154.094061 35.712891 
L 154.458629 29.166759 
L 154.690628 27.894643 
L 154.756913 27.950647 
L 154.889483 28.622071 
L 155.088339 31.018609 
L 155.386622 37.670245 
L 155.784333 51.921325 
L 156.347757 81.239454 
L 157.176322 137.717916 
L 158.800309 249.611675 
L 159.396875 276.154168 
L 159.827729 287.144395 
L 160.126012 290.294451 
L 160.22544 290.509091 
L 160.258583 290.487311 
L 160.35801 290.142097 
L 160.556866 288.197784 
L 160.855149 282.203149 
L 161.25286 268.759145 
L 161.783142 242.308115 
L 162.578564 189.498333 
L 164.401406 64.630848 
L 164.997973 39.699464 
L 165.395684 30.537179 
L 165.660825 28.056825 
L 165.760253 27.893502 
L 165.793395 27.932395 
L 165.925966 28.554152 
L 166.124821 30.877001 
L 166.423104 37.421786 
L 166.820816 51.542001 
L 167.38424 80.709226 
L 168.212804 137.066921 
L 169.836791 249.131785 
L 170.433358 275.852558 
L 170.864212 286.99429 
L 171.162495 290.255061 
L 171.261923 290.507017 
L 171.295065 290.497682 
L 171.394493 290.189766 
L 171.560206 288.746713 
L 171.825347 284.054312 
L 172.189915 273.006324 
L 172.687054 250.208322 
L 173.383048 206.663752 
L 175.669887 53.858424 
L 176.200169 35.324896 
L 176.564737 29.011137 
L 176.796735 27.891013 
L 176.896163 28.110317 
L 177.061876 29.406534 
L 177.327017 33.869091 
L 177.691585 44.619738 
L 178.188724 67.067996 
L 178.884718 110.277815 
L 181.237842 266.526265 
L 181.734981 283.373259 
L 182.09955 289.504094 
L 182.298405 290.501623 
L 182.36469 290.461176 
L 182.497261 289.820792 
L 182.696116 287.470302 
L 182.994399 280.885428 
L 183.392111 266.716097 
L 183.955535 237.492196 
L 184.784099 181.089046 
L 186.408086 69.088015 
L 187.004653 42.434019 
L 187.435507 31.349068 
L 187.73379 28.129805 
L 187.833218 27.891843 
L 187.86636 27.905844 
L 187.965788 28.227748 
L 188.131501 29.693967 
L 188.396642 34.422599 
L 188.76121 45.517392 
L 189.258349 68.370322 
L 189.954343 111.96718 
L 192.241182 264.689209 
L 192.771464 283.157026 
L 193.136032 289.420925 
L 193.36803 290.508469 
L 193.467458 290.27517 
L 193.633171 288.955756 
L 193.898312 284.456865 
L 194.26288 273.659166 
L 194.760019 251.155471 
L 195.456013 207.892386 
L 197.809137 51.731323 
L 198.306276 34.946489 
L 198.670845 28.865593 
L 198.8697 27.895991 
L 198.935985 27.945773 
L 199.068556 28.604781 
L 199.267411 30.982903 
L 199.565695 37.607842 
L 199.963406 51.826239 
L 200.52683 81.106712 
L 201.355394 137.555116 
L 202.979381 249.491916 
L 203.575948 276.079042 
L 204.006802 287.107172 
L 204.305085 290.284914 
L 204.404513 290.508883 
L 204.437655 290.490215 
L 204.537083 290.154324 
L 204.735939 288.228512 
L 205.001079 283.102478 
L 205.39879 270.192473 
L 205.929072 244.335613 
L 206.691351 194.452284 
L 208.646764 61.373916 
L 209.210188 38.76039 
L 209.607899 30.095586 
L 209.87304 27.961017 
L 209.939325 27.892569 
L 209.972468 27.92835 
L 210.105038 28.537688 
L 210.303894 30.842106 
L 210.602177 37.360152 
L 210.999888 51.447595 
L 211.563312 80.576978 
L 212.391877 136.904259 
L 214.015864 249.011457 
L 214.61243 275.776694 
L 215.043284 286.956259 
L 215.341567 290.244696 
L 215.474138 290.499756 
L 215.573566 290.201166 
L 215.739278 288.77356 
L 216.004419 284.105322 
L 216.368988 273.08856 
L 216.866127 250.327221 
L 217.562121 206.817597 
L 219.882102 52.495392 
L 220.379241 35.379737 
L 220.74381 29.032752 
L 220.975808 27.890909 
L 220.975808 27.890909 
" clip-path="url(#pc117a08659)" style="fill: none; stroke: #008000; stroke-width: 1.5; stroke-linecap: square"/>
   </g>
   <g id="line2d_18">
    <path d="M 90.09572 82.439653 
L 90.09572 159.200013 
" clip-path="url(#pc117a08659)" style="fill: none; stroke: #ff0000; stroke-width: 1.5; stroke-linecap: square"/>
    <defs>
     <path id="m24430a847c" d="M 0 3 
C 0.795609 3 1.55874 2.683901 2.12132 2.12132 
C 2.683901 1.55874 3 0.795609 3 0 
C 3 -0.795609 2.683901 -1.55874 2.12132 -2.12132 
C 1.55874 -2.683901 0.795609 -3 0 -3 
C -0.795609 -3 -1.55874 -2.683901 -2.12132 -2.12132 
C -2.683901 -1.55874 -3 -0.795609 -3 0 
C -3 0.795609 -2.683901 1.55874 -2.12132 2.12132 
C -1.55874 2.683901 -0.795609 3 0 3 
z
" style="stroke: #ff0000"/>
    </defs>
    <g clip-path="url(#pc117a08659)">
     <use xlink:href="#m24430a847c" x="90.09572" y="82.439653" style="fill: #ff0000; stroke: #ff0000"/>
    </g>
   </g>
   <g id="patch_3">
    <path d="M 55.296 303.64 
L 55.296 14.76 
" style="fill: none; stroke: #000000; stroke-width: 0.8; stroke-linejoin: miter; stroke-linecap: square"/>
   </g>
   <g id="patch_4">
    <path d="M 220.975808 303.64 
L 220.975808 14.76 
" style="fill: none; stroke: #000000; stroke-width: 0.8; stroke-linejoin: miter; stroke-linecap: square"/>
   </g>
   <g id="patch_5">
    <path d="M 55.296 303.64 
L 220.975808 303.64 
" style="fill: none; stroke: #000000; stroke-width: 0.8; stroke-linejoin: miter; stroke-linecap: square"/>
   </g>
   <g id="patch_6">
    <path d="M 55.296 14.76 
L 220.975808 14.76 
" style="fill: none; stroke: #000000; stroke-width: 0.8; stroke-linejoin: miter; stroke-linecap: square"/>
   </g>
  </g>
  <g id="axes_2">
   <g id="patch_7">
    <path d="M 283.778705 242.039904 
L 449.458512 242.039904 
L 449.458512 76.360096 
L 283.778705 76.360096 
z
" style="fill: #ffffff"/>
   </g>
   <g id="matplotlib.axis_3">
    <g id="xtick_7">
     <g id="line2d_19">
      <g>
       <use xlink:href="#mbcb02aef95" x="291.309605" y="242.039904" style="stroke: #000000; stroke-width: 0.8"/>
      </g>
     </g>
     <g id="text_18">
      <!-- −1.0 -->
      <g transform="translate(279.168199 256.638341) scale(0.1 -0.1)">
       <use xlink:href="#DejaVuSans-2212"/>
       <use xlink:href="#DejaVuSans-31" x="83.789062"/>
       <use xlink:href="#DejaVuSans-2e" x="147.412109"/>
       <use xlink:href="#DejaVuSans-30" x="179.199219"/>
      </g>
     </g>
    </g>
    <g id="xtick_8">
     <g id="line2d_20">
      <g>
       <use xlink:href="#mbcb02aef95" x="328.964107" y="242.039904" style="stroke: #000000; stroke-width: 0.8"/>
      </g>
     </g>
     <g id="text_19">
      <!-- −0.5 -->
      <g transform="translate(316.822701 256.638341) scale(0.1 -0.1)">
       <use xlink:href="#DejaVuSans-2212"/>
       <use xlink:href="#DejaVuSans-30" x="83.789062"/>
       <use xlink:href="#DejaVuSans-2e" x="147.412109"/>
       <use xlink:href="#DejaVuSans-35" x="179.199219"/>
      </g>
     </g>
    </g>
    <g id="xtick_9">
     <g id="line2d_21">
      <g>
       <use xlink:href="#mbcb02aef95" x="366.618609" y="242.039904" style="stroke: #000000; stroke-width: 0.8"/>
      </g>
     </g>
     <g id="text_20">
      <!-- 0.0 -->
      <g transform="translate(358.667046 256.638341) scale(0.1 -0.1)">
       <use xlink:href="#DejaVuSans-30"/>
       <use xlink:href="#DejaVuSans-2e" x="63.623047"/>
       <use xlink:href="#DejaVuSans-30" x="95.410156"/>
      </g>
     </g>
    </g>
    <g id="xtick_10">
     <g id="line2d_22">
      <g>
       <use xlink:href="#mbcb02aef95" x="404.27311" y="242.039904" style="stroke: #000000; stroke-width: 0.8"/>
      </g>
     </g>
     <g id="text_21">
      <!-- 0.5 -->
      <g transform="translate(396.321548 256.638341) scale(0.1 -0.1)">
       <use xlink:href="#DejaVuSans-30"/>
       <use xlink:href="#DejaVuSans-2e" x="63.623047"/>
       <use xlink:href="#DejaVuSans-35" x="95.410156"/>
      </g>
     </g>
    </g>
    <g id="xtick_11">
     <g id="line2d_23">
      <g>
       <use xlink:href="#mbcb02aef95" x="441.927612" y="242.039904" style="stroke: #000000; stroke-width: 0.8"/>
      </g>
     </g>
     <g id="text_22">
      <!-- 1.0 -->
      <g transform="translate(433.97605 256.638341) scale(0.1 -0.1)">
       <use xlink:href="#DejaVuSans-31"/>
       <use xlink:href="#DejaVuSans-2e" x="63.623047"/>
       <use xlink:href="#DejaVuSans-30" x="95.410156"/>
      </g>
     </g>
    </g>
    <g id="text_23">
     <!-- Real -->
     <g transform="translate(355.839702 270.316466) scale(0.1 -0.1)">
      <defs>
       <path id="DejaVuSans-52" d="M 2841 2188 
Q 3044 2119 3236 1894 
Q 3428 1669 3622 1275 
L 4263 0 
L 3584 0 
L 2988 1197 
Q 2756 1666 2539 1819 
Q 2322 1972 1947 1972 
L 1259 1972 
L 1259 0 
L 628 0 
L 628 4666 
L 2053 4666 
Q 2853 4666 3247 4331 
Q 3641 3997 3641 3322 
Q 3641 2881 3436 2590 
Q 3231 2300 2841 2188 
z
M 1259 4147 
L 1259 2491 
L 2053 2491 
Q 2509 2491 2742 2702 
Q 2975 2913 2975 3322 
Q 2975 3731 2742 3939 
Q 2509 4147 2053 4147 
L 1259 4147 
z
" transform="scale(0.015625)"/>
       <path id="DejaVuSans-61" d="M 2194 1759 
Q 1497 1759 1228 1600 
Q 959 1441 959 1056 
Q 959 750 1161 570 
Q 1363 391 1709 391 
Q 2188 391 2477 730 
Q 2766 1069 2766 1631 
L 2766 1759 
L 2194 1759 
z
M 3341 1997 
L 3341 0 
L 2766 0 
L 2766 531 
Q 2569 213 2275 61 
Q 1981 -91 1556 -91 
Q 1019 -91 701 211 
Q 384 513 384 1019 
Q 384 1609 779 1909 
Q 1175 2209 1959 2209 
L 2766 2209 
L 2766 2266 
Q 2766 2663 2505 2880 
Q 2244 3097 1772 3097 
Q 1472 3097 1187 3025 
Q 903 2953 641 2809 
L 641 3341 
Q 956 3463 1253 3523 
Q 1550 3584 1831 3584 
Q 2591 3584 2966 3190 
Q 3341 2797 3341 1997 
z
" transform="scale(0.015625)"/>
      </defs>
      <use xlink:href="#DejaVuSans-52"/>
      <use xlink:href="#DejaVuSans-65" x="64.982422"/>
      <use xlink:href="#DejaVuSans-61" x="126.505859"/>
      <use xlink:href="#DejaVuSans-6c" x="187.785156"/>
     </g>
    </g>
   </g>
   <g id="matplotlib.axis_4">
    <g id="ytick_10">
     <g id="line2d_24">
      <g>
       <use xlink:href="#me5179b328b" x="283.778705" y="234.509003" style="stroke: #000000; stroke-width: 0.8"/>
      </g>
     </g>
     <g id="text_24">
      <!-- −1.0 -->
      <g transform="translate(252.495892 238.308222) scale(0.1 -0.1)">
       <use xlink:href="#DejaVuSans-2212"/>
       <use xlink:href="#DejaVuSans-31" x="83.789062"/>
       <use xlink:href="#DejaVuSans-2e" x="147.412109"/>
       <use xlink:href="#DejaVuSans-30" x="179.199219"/>
      </g>
     </g>
    </g>
    <g id="ytick_11">
     <g id="line2d_25">
      <g>
       <use xlink:href="#me5179b328b" x="283.778705" y="196.854502" style="stroke: #000000; stroke-width: 0.8"/>
      </g>
     </g>
     <g id="text_25">
      <!-- −0.5 -->
      <g transform="translate(252.495892 200.65372) scale(0.1 -0.1)">
       <use xlink:href="#DejaVuSans-2212"/>
       <use xlink:href="#DejaVuSans-30" x="83.789062"/>
       <use xlink:href="#DejaVuSans-2e" x="147.412109"/>
       <use xlink:href="#DejaVuSans-35" x="179.199219"/>
      </g>
     </g>
    </g>
    <g id="ytick_12">
     <g id="line2d_26">
      <g>
       <use xlink:href="#me5179b328b" x="283.778705" y="159.2" style="stroke: #000000; stroke-width: 0.8"/>
      </g>
     </g>
     <g id="text_26">
      <!-- 0.0 -->
      <g transform="translate(260.87558 162.999219) scale(0.1 -0.1)">
       <use xlink:href="#DejaVuSans-30"/>
       <use xlink:href="#DejaVuSans-2e" x="63.623047"/>
       <use xlink:href="#DejaVuSans-30" x="95.410156"/>
      </g>
     </g>
    </g>
    <g id="ytick_13">
     <g id="line2d_27">
      <g>
       <use xlink:href="#me5179b328b" x="283.778705" y="121.545498" style="stroke: #000000; stroke-width: 0.8"/>
      </g>
     </g>
     <g id="text_27">
      <!-- 0.5 -->
      <g transform="translate(260.87558 125.344717) scale(0.1 -0.1)">
       <use xlink:href="#DejaVuSans-30"/>
       <use xlink:href="#DejaVuSans-2e" x="63.623047"/>
       <use xlink:href="#DejaVuSans-35" x="95.410156"/>
      </g>
     </g>
    </g>
    <g id="ytick_14">
     <g id="line2d_28">
      <g>
       <use xlink:href="#me5179b328b" x="283.778705" y="83.890997" style="stroke: #000000; stroke-width: 0.8"/>
      </g>
     </g>
     <g id="text_28">
      <!-- 1.0 -->
      <g transform="translate(260.87558 87.690215) scale(0.1 -0.1)">
       <use xlink:href="#DejaVuSans-31"/>
       <use xlink:href="#DejaVuSans-2e" x="63.623047"/>
       <use xlink:href="#DejaVuSans-30" x="95.410156"/>
      </g>
     </g>
    </g>
    <g id="text_29">
     <!-- Imaginary -->
     <g transform="translate(246.416205 184.420312) rotate(-90) scale(0.1 -0.1)">
      <defs>
       <path id="DejaVuSans-49" d="M 628 4666 
L 1259 4666 
L 1259 0 
L 628 0 
L 628 4666 
z
" transform="scale(0.015625)"/>
       <path id="DejaVuSans-67" d="M 2906 1791 
Q 2906 2416 2648 2759 
Q 2391 3103 1925 3103 
Q 1463 3103 1205 2759 
Q 947 2416 947 1791 
Q 947 1169 1205 825 
Q 1463 481 1925 481 
Q 2391 481 2648 825 
Q 2906 1169 2906 1791 
z
M 3481 434 
Q 3481 -459 3084 -895 
Q 2688 -1331 1869 -1331 
Q 1566 -1331 1297 -1286 
Q 1028 -1241 775 -1147 
L 775 -588 
Q 1028 -725 1275 -790 
Q 1522 -856 1778 -856 
Q 2344 -856 2625 -561 
Q 2906 -266 2906 331 
L 2906 616 
Q 2728 306 2450 153 
Q 2172 0 1784 0 
Q 1141 0 747 490 
Q 353 981 353 1791 
Q 353 2603 747 3093 
Q 1141 3584 1784 3584 
Q 2172 3584 2450 3431 
Q 2728 3278 2906 2969 
L 2906 3500 
L 3481 3500 
L 3481 434 
z
" transform="scale(0.015625)"/>
       <path id="DejaVuSans-6e" d="M 3513 2113 
L 3513 0 
L 2938 0 
L 2938 2094 
Q 2938 2591 2744 2837 
Q 2550 3084 2163 3084 
Q 1697 3084 1428 2787 
Q 1159 2491 1159 1978 
L 1159 0 
L 581 0 
L 581 3500 
L 1159 3500 
L 1159 2956 
Q 1366 3272 1645 3428 
Q 1925 3584 2291 3584 
Q 2894 3584 3203 3211 
Q 3513 2838 3513 2113 
z
" transform="scale(0.015625)"/>
       <path id="DejaVuSans-72" d="M 2631 2963 
Q 2534 3019 2420 3045 
Q 2306 3072 2169 3072 
Q 1681 3072 1420 2755 
Q 1159 2438 1159 1844 
L 1159 0 
L 581 0 
L 581 3500 
L 1159 3500 
L 1159 2956 
Q 1341 3275 1631 3429 
Q 1922 3584 2338 3584 
Q 2397 3584 2469 3576 
Q 2541 3569 2628 3553 
L 2631 2963 
z
" transform="scale(0.015625)"/>
       <path id="DejaVuSans-79" d="M 2059 -325 
Q 1816 -950 1584 -1140 
Q 1353 -1331 966 -1331 
L 506 -1331 
L 506 -850 
L 844 -850 
Q 1081 -850 1212 -737 
Q 1344 -625 1503 -206 
L 1606 56 
L 191 3500 
L 800 3500 
L 1894 763 
L 2988 3500 
L 3597 3500 
L 2059 -325 
z
" transform="scale(0.015625)"/>
      </defs>
      <use xlink:href="#DejaVuSans-49"/>
      <use xlink:href="#DejaVuSans-6d" x="29.492188"/>
      <use xlink:href="#DejaVuSans-61" x="126.904297"/>
      <use xlink:href="#DejaVuSans-67" x="188.183594"/>
      <use xlink:href="#DejaVuSans-69" x="251.660156"/>
      <use xlink:href="#DejaVuSans-6e" x="279.443359"/>
      <use xlink:href="#DejaVuSans-61" x="342.822266"/>
      <use xlink:href="#DejaVuSans-72" x="404.101562"/>
      <use xlink:href="#DejaVuSans-79" x="445.214844"/>
     </g>
    </g>
   </g>
   <g id="line2d_29">
    <path d="M 283.778705 159.2 
L 449.458512 159.2 
" clip-path="url(#p5971e38666)" style="fill: none; stroke: #000000; stroke-width: 1.5; stroke-linecap: square"/>
   </g>
   <g id="line2d_30">
    <path d="M 366.618609 242.039904 
L 366.618609 76.360096 
" clip-path="url(#p5971e38666)" style="fill: none; stroke: #000000; stroke-width: 1.5; stroke-linecap: square"/>
   </g>
   <g id="line2d_31">
    <path d="M 441.927612 159.2 
L 441.806652 159.48351 
L 441.444166 159.764295 
L 440.587307 160.129753 
L 438.923328 160.563346 
L 436.077671 161.033774 
L 432.341535 161.431229 
L 426.92294 161.778628 
L 420.455379 161.976798 
L 411.927465 161.993994 
L 402.377434 161.766249 
L 392.026228 161.280376 
L 381.113062 160.533652 
L 369.889798 159.534189 
L 358.615039 158.300943 
L 347.548061 156.863365 
L 336.942755 155.260683 
L 327.0417 153.540852 
L 318.070514 151.75918 
L 310.232627 149.97669 
L 303.704583 148.258242 
L 299.182322 146.859531 
L 295.851057 145.605395 
L 293.98573 144.678264 
L 293.146568 144.02969 
L 292.948099 143.602133 
L 293.075458 143.339128 
L 293.438764 143.128473 
L 294.287391 142.933233 
L 295.924939 142.834099 
L 298.713322 142.939127 
L 302.362355 143.299637 
L 307.639567 144.053595 
L 313.921528 145.171515 
L 322.182781 146.890971 
L 331.409387 149.064528 
L 341.383962 151.66028 
L 351.872996 154.632243 
L 362.632407 157.921126 
L 373.413318 161.455515 
L 383.967906 165.153456 
L 394.0552 168.924378 
L 403.446677 172.671342 
L 411.931533 176.293533 
L 419.321498 179.688943 
L 425.455086 182.757173 
L 429.687483 185.097896 
L 432.790034 187.054735 
L 434.514286 188.385239 
L 435.278198 189.226216 
L 435.445855 189.712659 
L 435.313214 189.964308 
L 434.960329 190.116174 
L 434.150573 190.159797 
L 432.602591 189.953412 
L 429.982798 189.316109 
L 426.569479 188.25005 
L 421.651433 186.467396 
L 415.816853 184.118003 
L 408.169206 180.772286 
L 399.656106 176.776411 
L 390.482316 172.205361 
L 380.865858 167.151372 
L 371.032745 161.722064 
L 361.211597 156.03811 
L 351.628231 150.230512 
L 342.50038 144.437525 
L 334.032662 138.801322 
L 326.411909 133.464466 
L 319.80297 128.566292 
L 314.345091 124.239275 
L 310.601421 121.01795 
L 307.879054 118.400854 
L 306.38624 116.68705 
L 305.74432 115.658268 
L 305.625962 115.108405 
L 305.766692 114.859822 
L 306.102509 114.754215 
L 306.849921 114.838852 
L 308.255823 115.31083 
L 310.610867 116.416823 
L 313.65757 118.108011 
L 318.022399 120.804963 
L 323.174624 124.250457 
L 329.895715 129.044192 
L 337.342256 134.662079 
L 345.330488 140.989865 
L 353.666903 147.893454 
L 362.152991 155.221792 
L 370.590032 162.810229 
L 378.783826 170.484285 
L 386.549237 178.06373 
L 393.714452 185.366883 
L 400.124852 192.215027 
L 405.646398 198.436826 
L 410.168475 203.872646 
L 413.237954 207.870705 
L 415.436875 211.072388 
L 416.610556 213.128654 
L 417.082775 214.328944 
L 417.130444 214.941122 
L 416.975384 215.192876 
L 416.658768 215.264572 
L 415.989479 215.077676 
L 415.044298 214.566436 
L 413.488107 213.471709 
L 411.098086 211.496346 
L 407.641949 208.301708 
L 403.539776 204.190375 
L 398.878194 199.222928 
L 392.987995 192.597033 
L 386.643781 185.093155 
L 380.004993 176.873397 
L 373.234278 168.119282 
L 366.493458 159.027677 
L 359.939613 149.806284 
L 353.721357 140.668812 
L 347.975412 131.829943 
L 342.823545 123.50021 
L 338.369956 115.880904 
L 334.69915 109.159159 
L 331.874365 103.503302 
L 330.129437 99.543637 
L 329.184909 96.949595 
L 328.749992 95.137348 
L 328.740242 94.379101 
L 328.877643 94.051538 
L 329.136893 93.932903 
L 329.515585 94.024482 
L 330.201428 94.474524 
L 331.338539 95.563025 
L 333.090195 97.63224 
L 335.231193 100.51432 
L 338.168493 104.862037 
L 341.513133 110.205884 
L 345.73836 117.421749 
L 350.280097 125.670193 
L 355.016733 134.769896 
L 359.826114 144.517847 
L 364.588699 154.693947 
L 369.19055 165.066073 
L 373.526097 175.395462 
L 377.500604 185.442304 
L 381.032273 194.9714 
L 384.053941 203.757759 
L 386.514346 211.591987 
L 388.378914 218.285352 
L 389.507415 223.076975 
L 390.164874 226.778285 
L 390.359644 229.027687 
L 390.269767 230.22481 
L 390.038858 230.729077 
L 389.776389 230.839799 
L 389.44022 230.720163 
L 388.882236 230.202141 
L 388.018697 228.98125 
L 386.759671 226.687315 
L 385.285562 223.513925 
L 383.336374 218.750602 
L 381.190928 212.920136 
L 378.569346 205.076567 
L 375.84632 196.142187 
L 373.103324 186.317743 
L 370.418028 175.825702 
L 367.862158 164.905125 
L 365.499593 153.806123 
L 363.384761 142.78403 
L 361.561364 132.09343 
L 360.061461 121.982173 
L 358.904941 112.685536 
L 358.099382 104.420658 
L 357.640295 97.381384 
L 357.510544 92.358608 
L 357.616703 88.492979 
L 357.878294 86.154891 
L 358.203606 84.919395 
L 358.526169 84.406749 
L 358.800466 84.302234 
L 359.099537 84.438354 
L 359.532045 84.993612 
L 359.99694 85.973335 
L 360.613125 87.786658 
L 361.386041 90.804636 
L 362.304375 95.437251 
L 363.206035 101.189927 
L 364.056582 107.962462 
L 364.925631 116.79861 
L 365.64545 126.609244 
L 366.182431 137.16925 
L 366.511806 148.235986 
L 366.618497 159.554955 
L 366.497638 170.865758 
L 366.154742 181.908186 
L 365.605511 192.42831 
L 364.875295 202.184423 
L 363.998217 210.952685 
L 363.015988 218.532349 
L 361.976457 224.75044 
L 361.060902 228.962513 
L 360.300896 231.601021 
L 359.588525 233.307051 
L 359.151598 233.91557 
L 358.848665 234.091793 
L 358.57005 234.027368 
L 358.318453 233.722695 
L 358.029513 232.944904 
L 357.751312 231.382918 
L 357.553033 228.664182 
L 357.51781 225.059686 
L 357.700566 219.800159 
L 358.139473 213.496813 
L 358.966958 205.161505 
L 360.145289 195.807378 
L 361.666121 185.65286 
L 363.508797 174.934181 
L 365.640508 163.899785 
L 368.016855 152.804478 
L 370.582776 141.903442 
L 373.273851 131.446268 
L 376.017925 121.671136 
L 378.737025 112.799302 
L 381.349515 105.029995 
L 383.772429 98.535868 
L 385.672551 94.012128 
L 387.312153 90.648256 
L 388.472711 88.729032 
L 389.245366 87.826119 
L 389.725406 87.56413 
L 390.000344 87.636502 
L 390.199422 87.938518 
L 390.342817 88.695658 
L 390.319237 90.203302 
L 389.983811 92.813481 
L 389.305357 96.260846 
L 388.075734 101.274851 
L 386.377753 107.266068 
L 383.881081 115.165573 
L 380.825866 124.004675 
L 377.264393 133.572856 
L 373.264781 143.644324 
L 368.90969 153.983428 
L 364.294601 164.350256 
L 359.525681 174.506299 
L 354.717301 184.220029 
L 349.989257 193.272274 
L 345.463762 201.461245 
L 341.262287 208.607122 
L 337.502332 214.556064 
L 334.661519 218.680889 
L 332.31092 221.730129 
L 330.732016 223.454054 
L 329.748865 224.250683 
L 329.191784 224.466457 
L 328.912449 224.382787 
L 328.75459 224.089927 
L 328.736598 223.377347 
L 329.028539 221.978134 
L 329.673824 220.029834 
L 330.915835 216.997922 
L 333.002962 212.563303 
L 335.757932 207.247304 
L 339.147643 201.153433 
L 343.739215 193.386175 
L 349.01097 184.945299 
L 354.855239 176.03421 
L 361.147235 166.86461 
L 367.747762 157.651386 
L 374.506347 148.607502 
L 381.264731 139.938987 
L 387.860634 131.840162 
L 394.131702 124.489206 
L 399.919545 118.044166 
L 405.073754 112.639507 
L 409.455805 108.383268 
L 412.559584 105.664312 
L 414.620435 104.108927 
L 415.886258 103.368476 
L 416.590451 103.141094 
L 416.933776 103.182624 
L 417.115905 103.404494 
L 417.134906 103.804774 
L 416.904149 104.611588 
L 416.201903 106.048148 
L 414.753309 108.374888 
L 412.652384 111.321658 
L 409.400992 115.479835 
L 405.32956 120.330595 
L 399.748964 126.59636 
L 393.287232 133.47806 
L 386.079778 140.80377 
L 378.282402 148.394458 
L 370.067865 156.068405 
L 361.621999 163.645616 
L 353.139421 170.952107 
L 344.81898 177.823974 
L 336.859012 184.111127 
L 329.452554 189.680633 
L 322.782602 194.41956 
L 317.017549 198.237289 
L 312.833508 200.76916 
L 309.543111 202.5155 
L 307.488237 203.376211 
L 306.342927 203.644393 
L 305.809164 203.567762 
L 305.635797 203.342863 
L 305.658825 202.976848 
L 305.996638 202.273956 
L 306.912844 201.060814 
L 308.731417 199.138054 
L 311.319244 196.740273 
L 315.275262 193.398702 
L 320.183613 189.542976 
L 326.860152 184.613414 
L 334.538917 179.253715 
L 343.053574 173.603522 
L 352.216049 167.80548 
L 361.820766 162.001618 
L 371.649333 156.329834 
L 381.475603 150.92057 
L 391.070961 145.893761 
L 400.209733 141.356128 
L 408.674576 137.398878 
L 416.261724 134.095867 
L 422.785953 131.502245 
L 427.49464 129.843241 
L 431.173333 128.766344 
L 433.450149 128.306807 
L 434.701856 128.245993 
L 435.269653 128.403389 
L 435.439101 128.638571 
L 435.387285 128.971503 
L 434.973139 129.562704 
L 433.902265 130.527989 
L 432.222966 131.729459 
L 429.42196 133.457247 
L 425.111188 135.82316 
L 419.743175 138.508684 
L 413.40581 141.449487 
L 405.112659 145.036917 
L 395.875732 148.768239 
L 385.901962 152.542205 
L 375.416936 156.260953 
L 364.659712 159.832539 
L 353.877264 163.173236 
L 343.318718 166.209521 
L 333.229499 168.87973 
L 323.84553 171.135311 
L 315.387628 172.941679 
L 308.056227 174.278639 
L 302.026555 175.140386 
L 297.933813 175.51068 
L 295.367172 175.553556 
L 293.920653 175.405313 
L 293.227698 175.1729 
L 292.982218 174.935754 
L 292.973176 174.647545 
L 293.200976 174.310977 
L 293.872376 173.791949 
L 295.29784 173.040356 
L 297.852552 172.007253 
L 301.29885 170.856422 
L 306.389343 169.402073 
L 312.548979 167.870058 
L 320.761337 166.080998 
L 330.046101 164.312329 
L 340.192376 162.623481 
L 350.968659 161.067629 
L 362.128214 159.690132 
L 373.414823 158.527262 
L 384.568763 157.605249 
L 395.332893 156.939683 
L 405.458678 156.53527 
L 414.712027 156.38596 
L 422.878797 156.475431 
L 429.76983 156.777905 
L 434.626624 157.190671 
L 438.297633 157.71326 
L 440.450385 158.225561 
L 441.521312 158.682198 
L 441.897366 159.058074 
L 441.897366 159.341926 
L 441.655544 159.624413 
L 440.958428 159.994244 
L 439.490987 160.436617 
L 436.874223 160.922263 
L 433.356576 161.339728 
L 428.175947 161.715948 
L 421.924105 161.948015 
L 413.61061 162.008864 
L 404.236035 161.828355 
L 394.017305 161.391411 
L 383.190623 160.693308 
L 372.005926 159.740114 
L 360.721009 158.548768 
L 349.595488 157.146796 
L 338.884721 155.571665 
L 328.833847 153.869787 
L 319.672079 152.09521 
L 311.607381 150.308021 
L 304.821667 148.572514 
L 300.053392 147.148587 
L 296.461559 145.859775 
L 294.364841 144.895676 
L 293.329499 144.21147 
L 292.973176 143.752455 
L 292.982218 143.464246 
L 293.227698 143.2271 
L 293.920653 142.994687 
L 295.367172 142.846444 
L 297.444392 142.864916 
L 300.740317 143.11777 
L 305.634041 143.742657 
L 311.56952 144.730468 
L 318.437593 146.081469 
L 327.267463 148.059436 
L 336.942708 150.475319 
L 347.236207 153.289223 
L 357.907804 156.447558 
L 368.71 159.884042 
L 379.393791 163.521113 
L 389.714504 167.271713 
L 399.437501 171.041396 
L 408.343604 174.73072 
L 416.234123 178.237861 
L 422.935374 181.461365 
L 428.302562 184.302992 
L 431.815053 186.403473 
L 433.902265 187.872011 
L 434.973139 188.837296 
L 435.387285 189.428497 
L 435.439101 189.761429 
L 435.269653 189.996611 
L 434.880224 190.131629 
L 434.02236 190.152295 
L 432.415623 189.916618 
L 429.72804 189.24366 
L 426.250711 188.141875 
L 421.263845 186.318141 
L 415.367865 183.929106 
L 407.66045 180.540905 
L 399.099894 176.506698 
L 389.891941 171.902592 
L 380.255265 166.821845 
L 370.416204 161.372964 
L 360.60336 155.677353 
L 351.042196 149.86656 
L 341.949771 144.079185 
L 333.529723 138.457529 
L 325.967627 133.144062 
L 319.426833 128.277794 
L 314.04488 123.990654 
L 310.372561 120.810164 
L 307.724747 118.238785 
L 306.297346 116.567488 
L 305.710334 115.576072 
L 305.635797 115.057137 
L 305.809164 114.832238 
L 306.177304 114.750647 
L 306.96714 114.867687 
L 308.424652 115.38051 
L 310.838942 116.535509 
L 313.941252 118.275058 
L 318.365441 121.026716 
L 323.570148 124.524061 
L 330.341715 129.372243 
L 337.827619 135.038065 
L 345.843357 141.405959 
L 354.194969 148.340679 
L 362.68379 155.690218 
L 371.111246 163.289199 
L 379.283573 170.962659 
L 387.016345 178.53015 
L 394.138717 185.810047 
L 400.49726 192.623963 
L 405.959324 198.801172 
L 410.415837 204.182907 
L 413.424262 208.126727 
L 415.559907 211.268644 
L 416.67848 213.270043 
L 417.104731 214.42257 
L 417.115905 214.995506 
L 416.933776 215.217376 
L 416.590451 215.258906 
L 415.886258 215.031524 
L 414.620435 214.291073 
L 412.942745 213.045102 
L 410.415868 210.891389 
L 406.81449 207.496073 
L 402.584835 203.195611 
L 397.815499 198.054191 
L 391.828305 191.25234 
L 385.416562 183.60125 
L 378.740619 175.266951 
L 371.963273 166.434171 
L 365.245752 157.302161 
L 358.743824 148.080125 
L 352.604123 138.982344 
L 346.960789 130.223111 
L 341.93248 122.011611 
L 337.619848 114.546849 
L 334.103516 108.012776 
L 331.442602 102.573706 
L 329.845436 98.823893 
L 329.028539 96.421866 
L 328.736598 95.022653 
L 328.75459 94.310073 
L 328.912449 94.017213 
L 329.191784 93.933543 
L 329.590123 94.060235 
L 330.301368 94.557124 
L 331.46876 95.703847 
L 333.254254 97.841724 
L 335.425983 100.790288 
L 338.394742 105.211622 
L 341.765679 110.623541 
L 346.014195 117.908785 
L 350.571698 126.215991 
L 355.316448 135.362359 
L 360.126363 145.143669 
L 364.882167 155.338917 
L 369.470366 165.715406 
L 373.785999 176.034142 
L 377.735081 186.055438 
L 381.236682 195.54457 
L 384.224604 204.277365 
L 386.648605 212.045579 
L 388.475174 218.661927 
L 389.569952 223.378481 
L 390.193977 226.998911 
L 390.360827 229.175429 
L 390.248509 230.310022 
L 390.000344 230.763498 
L 389.725406 230.83587 
L 389.37722 230.677806 
L 388.803983 230.108638 
L 387.92273 228.824386 
L 386.644619 226.456016 
L 385.153993 223.210868 
L 383.188992 218.368477 
L 381.031621 212.465316 
L 378.401271 204.548166 
L 375.674638 195.552026 
L 372.933024 185.679141 
L 370.253789 175.15317 
L 367.708219 164.214029 
L 365.359648 153.112331 
L 363.261868 142.103538 
L 361.457874 131.441987 
L 359.978978 121.374912 
L 358.844298 112.136616 
L 358.060648 103.942926 
L 357.622801 96.986074 
L 357.510544 92.043157 
L 357.632741 88.263145 
L 357.906642 86.00188 
L 358.241045 84.832069 
L 358.57005 84.372632 
L 358.848665 84.308207 
L 359.151598 84.48443 
L 359.588525 85.092949 
L 360.178226 86.44917 
L 360.803725 88.456168 
L 361.582431 91.698713 
L 362.5002 96.578797 
L 363.393725 102.559101 
L 364.22909 109.53535 
L 365.07309 118.570381 
L 365.760934 128.539273 
L 366.260594 139.213211 
L 366.549061 150.346886 
L 366.613144 161.684237 
L 366.449922 172.964434 
L 366.066841 183.927983 
L 365.481466 194.322803 
L 364.720868 203.910117 
L 363.82069 212.470031 
L 362.823914 219.806668 
L 361.779357 225.752728 
L 360.86772 229.707958 
L 360.117421 232.115973 
L 359.532045 233.406388 
L 359.099537 233.961646 
L 358.800466 234.097766 
L 358.526169 233.993251 
L 358.279332 233.648631 
L 357.997395 232.818023 
L 357.728939 231.191167 
L 357.543666 228.397045 
L 357.522677 224.720767 
L 357.723269 219.383289 
L 358.180923 213.009533 
L 359.03035 204.604559 
L 360.230459 195.193797 
L 361.772139 184.996943 
L 363.633965 174.251156 
L 365.782383 163.205454 
L 368.172295 152.114842 
L 370.748015 141.234325 
L 373.444587 130.812948 
L 376.189434 121.087994 
L 378.904288 112.279485 
L 381.507361 104.585118 
L 383.915685 98.175745 
L 385.798911 93.732633 
L 387.417972 90.453901 
L 388.558237 88.61008 
L 389.312265 87.770956 
L 389.776389 87.560201 
L 390.038858 87.670923 
L 390.225058 88.011084 
L 390.350715 88.818549 
L 390.304207 90.387833 
L 389.940459 93.069393 
L 389.233185 96.584453 
L 387.969883 101.671622 
L 386.238834 107.728545 
L 383.706034 115.692581 
L 380.617476 124.583604 
L 377.026466 134.189985 
L 373.002072 144.285157 
L 368.627812 154.633036 
L 363.999899 164.993633 
L 359.225091 175.128712 
L 354.418182 184.807365 
L 349.699209 193.811361 
L 345.190431 201.940157 
L 341.013167 209.015443 
L 337.284562 214.885123 
L 334.476604 218.934993 
L 332.163416 221.905497 
L 330.619754 223.560014 
L 329.667887 224.298154 
L 329.136893 224.467097 
L 328.877643 224.348462 
L 328.740242 224.020899 
L 328.749992 223.262652 
L 329.077123 221.807693 
L 329.93656 219.341387 
L 331.305657 216.12653 
L 333.538019 211.495043 
L 336.432239 206.003177 
L 340.503702 198.81033 
L 345.318267 190.811421 
L 350.781352 182.201263 
L 356.779675 173.186397 
L 363.183635 163.98007 
L 369.850158 154.797117 
L 376.625947 145.848861 
L 383.351071 137.338174 
L 389.862797 129.45479 
L 395.999576 122.371 
L 401.605082 116.237827 
L 406.532211 111.18175 
L 410.181202 107.720013 
L 413.128473 105.207685 
L 415.044298 103.833564 
L 416.182969 103.245229 
L 416.782121 103.139219 
L 417.045123 103.271123 
L 417.145896 103.582476 
L 417.025104 104.272833 
L 416.610556 105.271346 
L 415.678366 106.939555 
L 413.956385 109.5299 
L 411.132281 113.308466 
L 407.464445 117.824523 
L 403.004223 122.98548 
L 397.0229 129.541236 
L 390.216978 136.638865 
L 382.731177 144.102793 
L 374.72917 151.752266 
L 366.38994 159.405781 
L 357.903709 166.885457 
L 349.467518 174.021235 
L 341.280581 180.654818 
L 333.539506 186.643238 
L 326.433511 191.861993 
L 320.139751 196.207662 
L 314.818864 199.599961 
L 311.071799 201.741742 
L 308.598539 202.945718 
L 306.849921 203.561148 
L 306.102509 203.645785 
L 305.766692 203.540178 
L 305.625962 203.291595 
L 305.681836 202.902305 
L 306.06358 202.169149 
L 307.034559 200.919651 
L 308.91798 198.95584 
L 311.568876 196.520292 
L 315.595085 193.139403 
L 320.568731 189.25004 
L 327.312317 184.289611 
L 335.048445 178.907616 
L 343.609304 173.243991 
L 352.8056 167.44145 
L 362.430811 161.641864 
L 372.265913 155.982761 
L 382.084445 150.594011 
L 391.657818 145.594799 
L 400.760722 141.090939 
L 409.176512 137.172605 
L 416.702436 133.912513 
L 423.154587 131.364617 
L 427.792542 129.746952 
L 431.394616 128.711763 
L 433.602074 128.287654 
L 434.794063 128.255758 
L 435.313214 128.435692 
L 435.445855 128.687341 
L 435.357086 129.036308 
L 434.893657 129.648126 
L 433.76156 130.637793 
L 431.602181 132.133284 
L 428.590963 133.934232 
L 424.047193 136.373862 
L 418.463427 139.119618 
L 410.927184 142.548927 
L 402.318198 146.192295 
L 392.827804 149.947713 
L 382.669294 153.714706 
L 372.073042 157.397 
L 361.281187 160.904984 
L 350.542005 164.157922 
L 340.104092 167.085838 
L 330.210522 169.631047 
L 321.093086 171.749292 
L 312.966778 173.41046 
L 306.024649 174.598871 
L 301.05327 175.249499 
L 297.208829 175.544665 
L 294.866207 175.526195 
L 293.612051 175.329684 
L 293.075458 175.060872 
L 292.948099 174.797867 
L 293.057476 174.485131 
L 293.571486 173.995618 
L 294.802315 173.277064 
L 296.677712 172.453586 
L 299.756991 171.348476 
L 304.443663 169.932727 
L 310.232627 168.42331 
L 317.024904 166.864888 
L 325.865044 165.079679 
L 335.661797 163.348959 
L 346.192042 161.728846 
L 357.21502 160.268294 
L 368.477934 159.007687 
L 379.721849 157.977744 
L 390.687747 157.198761 
L 401.122595 156.68021 
L 410.785283 156.420711 
L 419.452289 156.408353 
L 426.92294 156.621372 
L 433.024132 157.029154 
L 437.127246 157.515872 
L 439.667228 158.006312 
L 441.068881 158.451369 
L 441.712617 158.822458 
L 441.914169 159.105362 
L 441.927612 159.2 
L 441.927612 159.2 
" clip-path="url(#p5971e38666)" style="fill: none; stroke: #1f77b4; stroke-width: 1.5; stroke-linecap: square"/>
   </g>
   <g id="line2d_32">
    <path d="M 377.555666 201.843751 
L 366.618609 159.2 
" clip-path="url(#p5971e38666)" style="fill: none; stroke: #ff0000; stroke-width: 1.5; stroke-linecap: square"/>
    <g clip-path="url(#p5971e38666)">
     <use xlink:href="#m24430a847c" x="377.555666" y="201.843751" style="fill: #ff0000; stroke: #ff0000"/>
    </g>
   </g>
   <g id="patch_8">
    <path d="M 283.778705 242.039904 
L 283.778705 76.360096 
" style="fill: none; stroke: #000000; stroke-width: 0.8; stroke-linejoin: miter; stroke-linecap: square"/>
   </g>
   <g id="patch_9">
    <path d="M 449.458512 242.039904 
L 449.458512 76.360096 
" style="fill: none; stroke: #000000; stroke-width: 0.8; stroke-linejoin: miter; stroke-linecap: square"/>
   </g>
   <g id="patch_10">
    <path d="M 283.778705 242.039904 
L 449.458512 242.039904 
" style="fill: none; stroke: #000000; stroke-width: 0.8; stroke-linejoin: miter; stroke-linecap: square"/>
   </g>
   <g id="patch_11">
    <path d="M 283.778705 76.360096 
L 449.458512 76.360096 
" style="fill: none; stroke: #000000; stroke-width: 0.8; stroke-linejoin: miter; stroke-linecap: square"/>
   </g>
  </g>
 </g>
 <defs>
  <clipPath id="pc117a08659">
   <rect x="55.296" y="14.76" width="165.679808" height="288.88"/>
  </clipPath>
  <clipPath id="p5971e38666">
   <rect x="283.778705" y="76.360096" width="165.679808" height="165.679808"/>
  </clipPath>
 </defs>
</svg>
