<?xml version="1.0" encoding="utf-8" standalone="no"?>
<!DOCTYPE svg PUBLIC "-//W3C//DTD SVG 1.1//EN"
  "http://www.w3.org/Graphics/SVG/1.1/DTD/svg11.dtd">
<svg xmlns:xlink="http://www.w3.org/1999/xlink" width="460.8pt" height="345.6pt" viewBox="0 0 460.8 345.6" xmlns="http://www.w3.org/2000/svg" version="1.1">
 <metadata>
  <rdf:RDF xmlns:dc="http://purl.org/dc/elements/1.1/" xmlns:cc="http://creativecommons.org/ns#" xmlns:rdf="http://www.w3.org/1999/02/22-rdf-syntax-ns#">
   <cc:Work>
    <dc:type rdf:resource="http://purl.org/dc/dcmitype/StillImage"/>
    <dc:format>image/svg+xml</dc:format>
    <dc:creator>
     <cc:Agent>
      <dc:title>Matplotlib v3.8.4, https://matplotlib.org/</dc:title>
     </cc:Agent>
    </dc:creator>
   </cc:Work>
  </rdf:RDF>
 </metadata>
 <defs>
  <style type="text/css">*{stroke-linejoin: round; stroke-linecap: butt}</style>
 </defs>
 <g id="figure_1">
  <g id="patch_1">
   <path d="M 0 345.6 
L 460.8 345.6 
L 460.8 0 
L 0 0 
z
" style="fill: #ffffff"/>
  </g>
  <g id="axes_1">
   <g id="patch_2">
    <path d="M 57.6 99.322435 
L 414.72 99.322435 
L 414.72 41.472 
L 57.6 41.472 
z
" style="fill: #ffffff"/>
   </g>
   <g id="matplotlib.axis_1">
    <g id="xtick_1">
     <g id="line2d_1">
      <defs>
       <path id="mbcb02aef95" d="M 0 0 
L 0 3.5 
" style="stroke: #000000; stroke-width: 0.8"/>
      </defs>
      <g>
       <use xlink:href="#mbcb02aef95" x="73.832727" y="99.322435" style="stroke: #000000; stroke-width: 0.8"/>
      </g>
     </g>
     <g id="text_1">
      <!-- 0.000 -->
      <g transform="translate(59.518665 113.920872) scale(0.1 -0.1)">
       <defs>
        <path id="DejaVuSans-30" d="M 2034 4250 
Q 1547 4250 1301 3770 
Q 1056 3291 1056 2328 
Q 1056 1369 1301 889 
Q 1547 409 2034 409 
Q 2525 409 2770 889 
Q 3016 1369 3016 2328 
Q 3016 3291 2770 3770 
Q 2525 4250 2034 4250 
z
M 2034 4750 
Q 2819 4750 3233 4129 
Q 3647 3509 3647 2328 
Q 3647 1150 3233 529 
Q 2819 -91 2034 -91 
Q 1250 -91 836 529 
Q 422 1150 422 2328 
Q 422 3509 836 4129 
Q 1250 4750 2034 4750 
z
" transform="scale(0.015625)"/>
        <path id="DejaVuSans-2e" d="M 684 794 
L 1344 794 
L 1344 0 
L 684 0 
L 684 794 
z
" transform="scale(0.015625)"/>
       </defs>
       <use xlink:href="#DejaVuSans-30"/>
       <use xlink:href="#DejaVuSans-2e" x="63.623047"/>
       <use xlink:href="#DejaVuSans-30" x="95.410156"/>
       <use xlink:href="#DejaVuSans-30" x="159.033203"/>
       <use xlink:href="#DejaVuSans-30" x="222.65625"/>
      </g>
     </g>
    </g>
    <g id="xtick_2">
     <g id="line2d_2">
      <g>
       <use xlink:href="#mbcb02aef95" x="139.086659" y="99.322435" style="stroke: #000000; stroke-width: 0.8"/>
      </g>
     </g>
     <g id="text_2">
      <!-- 0.002 -->
      <g transform="translate(124.772597 113.920872) scale(0.1 -0.1)">
       <defs>
        <path id="DejaVuSans-32" d="M 1228 531 
L 3431 531 
L 3431 0 
L 469 0 
L 469 531 
Q 828 903 1448 1529 
Q 2069 2156 2228 2338 
Q 2531 2678 2651 2914 
Q 2772 3150 2772 3378 
Q 2772 3750 2511 3984 
Q 2250 4219 1831 4219 
Q 1534 4219 1204 4116 
Q 875 4013 500 3803 
L 500 4441 
Q 881 4594 1212 4672 
Q 1544 4750 1819 4750 
Q 2544 4750 2975 4387 
Q 3406 4025 3406 3419 
Q 3406 3131 3298 2873 
Q 3191 2616 2906 2266 
Q 2828 2175 2409 1742 
Q 1991 1309 1228 531 
z
" transform="scale(0.015625)"/>
       </defs>
       <use xlink:href="#DejaVuSans-30"/>
       <use xlink:href="#DejaVuSans-2e" x="63.623047"/>
       <use xlink:href="#DejaVuSans-30" x="95.410156"/>
       <use xlink:href="#DejaVuSans-30" x="159.033203"/>
       <use xlink:href="#DejaVuSans-32" x="222.65625"/>
      </g>
     </g>
    </g>
    <g id="xtick_3">
     <g id="line2d_3">
      <g>
       <use xlink:href="#mbcb02aef95" x="204.340592" y="99.322435" style="stroke: #000000; stroke-width: 0.8"/>
      </g>
     </g>
     <g id="text_3">
      <!-- 0.004 -->
      <g transform="translate(190.026529 113.920872) scale(0.1 -0.1)">
       <defs>
        <path id="DejaVuSans-34" d="M 2419 4116 
L 825 1625 
L 2419 1625 
L 2419 4116 
z
M 2253 4666 
L 3047 4666 
L 3047 1625 
L 3713 1625 
L 3713 1100 
L 3047 1100 
L 3047 0 
L 2419 0 
L 2419 1100 
L 313 1100 
L 313 1709 
L 2253 4666 
z
" transform="scale(0.015625)"/>
       </defs>
       <use xlink:href="#DejaVuSans-30"/>
       <use xlink:href="#DejaVuSans-2e" x="63.623047"/>
       <use xlink:href="#DejaVuSans-30" x="95.410156"/>
       <use xlink:href="#DejaVuSans-30" x="159.033203"/>
       <use xlink:href="#DejaVuSans-34" x="222.65625"/>
      </g>
     </g>
    </g>
    <g id="xtick_4">
     <g id="line2d_4">
      <g>
       <use xlink:href="#mbcb02aef95" x="269.594524" y="99.322435" style="stroke: #000000; stroke-width: 0.8"/>
      </g>
     </g>
     <g id="text_4">
      <!-- 0.006 -->
      <g transform="translate(255.280461 113.920872) scale(0.1 -0.1)">
       <defs>
        <path id="DejaVuSans-36" d="M 2113 2584 
Q 1688 2584 1439 2293 
Q 1191 2003 1191 1497 
Q 1191 994 1439 701 
Q 1688 409 2113 409 
Q 2538 409 2786 701 
Q 3034 994 3034 1497 
Q 3034 2003 2786 2293 
Q 2538 2584 2113 2584 
z
M 3366 4563 
L 3366 3988 
Q 3128 4100 2886 4159 
Q 2644 4219 2406 4219 
Q 1781 4219 1451 3797 
Q 1122 3375 1075 2522 
Q 1259 2794 1537 2939 
Q 1816 3084 2150 3084 
Q 2853 3084 3261 2657 
Q 3669 2231 3669 1497 
Q 3669 778 3244 343 
Q 2819 -91 2113 -91 
Q 1303 -91 875 529 
Q 447 1150 447 2328 
Q 447 3434 972 4092 
Q 1497 4750 2381 4750 
Q 2619 4750 2861 4703 
Q 3103 4656 3366 4563 
z
" transform="scale(0.015625)"/>
       </defs>
       <use xlink:href="#DejaVuSans-30"/>
       <use xlink:href="#DejaVuSans-2e" x="63.623047"/>
       <use xlink:href="#DejaVuSans-30" x="95.410156"/>
       <use xlink:href="#DejaVuSans-30" x="159.033203"/>
       <use xlink:href="#DejaVuSans-36" x="222.65625"/>
      </g>
     </g>
    </g>
    <g id="xtick_5">
     <g id="line2d_5">
      <g>
       <use xlink:href="#mbcb02aef95" x="334.848456" y="99.322435" style="stroke: #000000; stroke-width: 0.8"/>
      </g>
     </g>
     <g id="text_5">
      <!-- 0.008 -->
      <g transform="translate(320.534394 113.920872) scale(0.1 -0.1)">
       <defs>
        <path id="DejaVuSans-38" d="M 2034 2216 
Q 1584 2216 1326 1975 
Q 1069 1734 1069 1313 
Q 1069 891 1326 650 
Q 1584 409 2034 409 
Q 2484 409 2743 651 
Q 3003 894 3003 1313 
Q 3003 1734 2745 1975 
Q 2488 2216 2034 2216 
z
M 1403 2484 
Q 997 2584 770 2862 
Q 544 3141 544 3541 
Q 544 4100 942 4425 
Q 1341 4750 2034 4750 
Q 2731 4750 3128 4425 
Q 3525 4100 3525 3541 
Q 3525 3141 3298 2862 
Q 3072 2584 2669 2484 
Q 3125 2378 3379 2068 
Q 3634 1759 3634 1313 
Q 3634 634 3220 271 
Q 2806 -91 2034 -91 
Q 1263 -91 848 271 
Q 434 634 434 1313 
Q 434 1759 690 2068 
Q 947 2378 1403 2484 
z
M 1172 3481 
Q 1172 3119 1398 2916 
Q 1625 2713 2034 2713 
Q 2441 2713 2670 2916 
Q 2900 3119 2900 3481 
Q 2900 3844 2670 4047 
Q 2441 4250 2034 4250 
Q 1625 4250 1398 4047 
Q 1172 3844 1172 3481 
z
" transform="scale(0.015625)"/>
       </defs>
       <use xlink:href="#DejaVuSans-30"/>
       <use xlink:href="#DejaVuSans-2e" x="63.623047"/>
       <use xlink:href="#DejaVuSans-30" x="95.410156"/>
       <use xlink:href="#DejaVuSans-30" x="159.033203"/>
       <use xlink:href="#DejaVuSans-38" x="222.65625"/>
      </g>
     </g>
    </g>
    <g id="xtick_6">
     <g id="line2d_6">
      <g>
       <use xlink:href="#mbcb02aef95" x="400.102388" y="99.322435" style="stroke: #000000; stroke-width: 0.8"/>
      </g>
     </g>
     <g id="text_6">
      <!-- 0.010 -->
      <g transform="translate(385.788326 113.920872) scale(0.1 -0.1)">
       <defs>
        <path id="DejaVuSans-31" d="M 794 531 
L 1825 531 
L 1825 4091 
L 703 3866 
L 703 4441 
L 1819 4666 
L 2450 4666 
L 2450 531 
L 3481 531 
L 3481 0 
L 794 0 
L 794 531 
z
" transform="scale(0.015625)"/>
       </defs>
       <use xlink:href="#DejaVuSans-30"/>
       <use xlink:href="#DejaVuSans-2e" x="63.623047"/>
       <use xlink:href="#DejaVuSans-30" x="95.410156"/>
       <use xlink:href="#DejaVuSans-31" x="159.033203"/>
       <use xlink:href="#DejaVuSans-30" x="222.65625"/>
      </g>
     </g>
    </g>
   </g>
   <g id="matplotlib.axis_2">
    <g id="ytick_1">
     <g id="line2d_7">
      <defs>
       <path id="me5179b328b" d="M 0 0 
L -3.5 0 
" style="stroke: #000000; stroke-width: 0.8"/>
      </defs>
      <g>
       <use xlink:href="#me5179b328b" x="57.6" y="96.69287" style="stroke: #000000; stroke-width: 0.8"/>
      </g>
     </g>
     <g id="text_7">
      <!-- −1 -->
      <g transform="translate(35.857813 100.492089) scale(0.1 -0.1)">
       <defs>
        <path id="DejaVuSans-2212" d="M 678 2272 
L 4684 2272 
L 4684 1741 
L 678 1741 
L 678 2272 
z
" transform="scale(0.015625)"/>
       </defs>
       <use xlink:href="#DejaVuSans-2212"/>
       <use xlink:href="#DejaVuSans-31" x="83.789062"/>
      </g>
     </g>
    </g>
    <g id="ytick_2">
     <g id="line2d_8">
      <g>
       <use xlink:href="#me5179b328b" x="57.6" y="70.397218" style="stroke: #000000; stroke-width: 0.8"/>
      </g>
     </g>
     <g id="text_8">
      <!-- 0 -->
      <g transform="translate(44.2375 74.196436) scale(0.1 -0.1)">
       <use xlink:href="#DejaVuSans-30"/>
      </g>
     </g>
    </g>
    <g id="ytick_3">
     <g id="line2d_9">
      <g>
       <use xlink:href="#me5179b328b" x="57.6" y="44.101565" style="stroke: #000000; stroke-width: 0.8"/>
      </g>
     </g>
     <g id="text_9">
      <!-- 1 -->
      <g transform="translate(44.2375 47.900784) scale(0.1 -0.1)">
       <use xlink:href="#DejaVuSans-31"/>
      </g>
     </g>
    </g>
   </g>
   <g id="line2d_10">
    <path d="M 73.832727 70.397218 
L 81.989877 62.271021 
L 86.884166 57.728611 
L 90.147026 54.940353 
L 93.409886 52.395882 
L 96.672746 50.135332 
L 99.935605 48.194356 
L 103.198465 46.603567 
L 106.461325 45.388055 
L 109.724185 44.566993 
L 112.987044 44.153329 
L 116.249904 44.153589 
L 119.512764 44.567767 
L 122.775624 45.389332 
L 126.038483 46.605326 
L 129.301343 48.196569 
L 132.564203 50.137965 
L 135.827063 52.398893 
L 139.089922 54.943695 
L 142.352782 57.732231 
L 147.247072 62.27495 
L 153.772791 68.75014 
L 163.56137 78.527343 
L 168.45566 83.069444 
L 171.71852 85.857424 
L 174.98138 88.401564 
L 178.244239 90.661736 
L 181.507099 92.602293 
L 184.769959 94.192627 
L 188.032819 95.407656 
L 191.295678 96.228216 
L 194.558538 96.641365 
L 197.821398 96.640587 
L 201.084258 96.225894 
L 204.347117 95.403826 
L 207.609977 94.18735 
L 210.872837 92.595652 
L 214.135697 90.653837 
L 217.398556 88.39253 
L 220.661416 85.847399 
L 223.924276 83.058584 
L 228.818566 78.515557 
L 235.344285 72.040173 
L 245.132864 62.263165 
L 250.027154 57.721372 
L 253.290014 54.93367 
L 256.552873 52.389861 
L 259.815733 50.130067 
L 263.078593 48.18993 
L 266.341453 46.600051 
L 269.604312 45.385504 
L 272.867172 44.565447 
L 276.130032 44.152812 
L 279.392892 44.154109 
L 282.655751 44.569317 
L 285.918611 45.391887 
L 289.181471 46.608845 
L 292.444331 48.200998 
L 295.70719 50.143233 
L 298.97005 52.404917 
L 302.23291 54.95038 
L 305.49577 57.739472 
L 310.390059 62.282808 
L 316.915779 68.758385 
L 326.704358 78.535199 
L 331.598648 83.076682 
L 334.861508 85.864106 
L 338.124367 88.407584 
L 341.387227 90.667 
L 344.650087 92.606717 
L 347.912947 94.196142 
L 351.175806 95.410206 
L 354.438666 96.229761 
L 357.701526 96.641881 
L 360.964386 96.640065 
L 364.227245 96.224342 
L 367.490105 95.40127 
L 370.752965 94.18383 
L 374.015825 92.591223 
L 377.278684 90.648568 
L 380.541544 88.386505 
L 383.804404 85.840713 
L 387.067264 83.051343 
L 391.961553 78.507698 
L 398.487273 72.031927 
L 398.487273 72.031927 
" clip-path="url(#pa69e281641)" style="fill: none; stroke: #1f77b4; stroke-width: 1.5; stroke-linecap: square"/>
   </g>
   <g id="LineCollection_1">
    <path d="M 73.832727 70.397218 
L 73.832727 70.397218 
" clip-path="url(#pa69e281641)" style="fill: none; stroke: #1f77b4; stroke-width: 1.5"/>
    <path d="M 94.237334 70.397218 
L 94.237334 51.794253 
" clip-path="url(#pa69e281641)" style="fill: none; stroke: #1f77b4; stroke-width: 1.5"/>
    <path d="M 114.641941 70.397218 
L 114.641941 44.101578 
" clip-path="url(#pa69e281641)" style="fill: none; stroke: #1f77b4; stroke-width: 1.5"/>
    <path d="M 135.046547 70.397218 
L 135.046547 51.830802 
" clip-path="url(#pa69e281641)" style="fill: none; stroke: #1f77b4; stroke-width: 1.5"/>
    <path d="M 155.451154 70.397218 
L 155.451154 70.448881 
" clip-path="url(#pa69e281641)" style="fill: none; stroke: #1f77b4; stroke-width: 1.5"/>
    <path d="M 175.855761 70.397218 
L 175.855761 89.036661 
" clip-path="url(#pa69e281641)" style="fill: none; stroke: #1f77b4; stroke-width: 1.5"/>
    <path d="M 196.260367 70.397218 
L 196.260367 96.692756 
" clip-path="url(#pa69e281641)" style="fill: none; stroke: #1f77b4; stroke-width: 1.5"/>
    <path d="M 216.664974 70.397218 
L 216.664974 88.927012 
" clip-path="url(#pa69e281641)" style="fill: none; stroke: #1f77b4; stroke-width: 1.5"/>
    <path d="M 237.069581 70.397218 
L 237.069581 70.293891 
" clip-path="url(#pa69e281641)" style="fill: none; stroke: #1f77b4; stroke-width: 1.5"/>
    <path d="M 257.474188 70.397218 
L 257.474188 51.721369 
" clip-path="url(#pa69e281641)" style="fill: none; stroke: #1f77b4; stroke-width: 1.5"/>
    <path d="M 277.878794 70.397218 
L 277.878794 44.101882 
" clip-path="url(#pa69e281641)" style="fill: none; stroke: #1f77b4; stroke-width: 1.5"/>
    <path d="M 298.283401 70.397218 
L 298.283401 51.904117 
" clip-path="url(#pa69e281641)" style="fill: none; stroke: #1f77b4; stroke-width: 1.5"/>
    <path d="M 318.688008 70.397218 
L 318.688008 70.552208 
" clip-path="url(#pa69e281641)" style="fill: none; stroke: #1f77b4; stroke-width: 1.5"/>
    <path d="M 339.092614 70.397218 
L 339.092614 89.1094 
" clip-path="url(#pa69e281641)" style="fill: none; stroke: #1f77b4; stroke-width: 1.5"/>
    <path d="M 359.497221 70.397218 
L 359.497221 96.692249 
" clip-path="url(#pa69e281641)" style="fill: none; stroke: #1f77b4; stroke-width: 1.5"/>
    <path d="M 379.901828 70.397218 
L 379.901828 88.853555 
" clip-path="url(#pa69e281641)" style="fill: none; stroke: #1f77b4; stroke-width: 1.5"/>
   </g>
   <g id="line2d_11">
    <defs>
     <path id="mf906cbd07a" d="M 0 3 
C 0.795609 3 1.55874 2.683901 2.12132 2.12132 
C 2.683901 1.55874 3 0.795609 3 0 
C 3 -0.795609 2.683901 -1.55874 2.12132 -2.12132 
C 1.55874 -2.683901 0.795609 -3 0 -3 
C -0.795609 -3 -1.55874 -2.683901 -2.12132 -2.12132 
C -2.683901 -1.55874 -3 -0.795609 -3 0 
C -3 0.795609 -2.683901 1.55874 -2.12132 2.12132 
C -1.55874 2.683901 -0.795609 3 0 3 
z
" style="stroke: #1f77b4"/>
    </defs>
    <g clip-path="url(#pa69e281641)">
     <use xlink:href="#mf906cbd07a" x="73.832727" y="70.397218" style="fill: #1f77b4; stroke: #1f77b4"/>
     <use xlink:href="#mf906cbd07a" x="94.237334" y="51.794253" style="fill: #1f77b4; stroke: #1f77b4"/>
     <use xlink:href="#mf906cbd07a" x="114.641941" y="44.101578" style="fill: #1f77b4; stroke: #1f77b4"/>
     <use xlink:href="#mf906cbd07a" x="135.046547" y="51.830802" style="fill: #1f77b4; stroke: #1f77b4"/>
     <use xlink:href="#mf906cbd07a" x="155.451154" y="70.448881" style="fill: #1f77b4; stroke: #1f77b4"/>
     <use xlink:href="#mf906cbd07a" x="175.855761" y="89.036661" style="fill: #1f77b4; stroke: #1f77b4"/>
     <use xlink:href="#mf906cbd07a" x="196.260367" y="96.692756" style="fill: #1f77b4; stroke: #1f77b4"/>
     <use xlink:href="#mf906cbd07a" x="216.664974" y="88.927012" style="fill: #1f77b4; stroke: #1f77b4"/>
     <use xlink:href="#mf906cbd07a" x="237.069581" y="70.293891" style="fill: #1f77b4; stroke: #1f77b4"/>
     <use xlink:href="#mf906cbd07a" x="257.474188" y="51.721369" style="fill: #1f77b4; stroke: #1f77b4"/>
     <use xlink:href="#mf906cbd07a" x="277.878794" y="44.101882" style="fill: #1f77b4; stroke: #1f77b4"/>
     <use xlink:href="#mf906cbd07a" x="298.283401" y="51.904117" style="fill: #1f77b4; stroke: #1f77b4"/>
     <use xlink:href="#mf906cbd07a" x="318.688008" y="70.552208" style="fill: #1f77b4; stroke: #1f77b4"/>
     <use xlink:href="#mf906cbd07a" x="339.092614" y="89.1094" style="fill: #1f77b4; stroke: #1f77b4"/>
     <use xlink:href="#mf906cbd07a" x="359.497221" y="96.692249" style="fill: #1f77b4; stroke: #1f77b4"/>
     <use xlink:href="#mf906cbd07a" x="379.901828" y="88.853555" style="fill: #1f77b4; stroke: #1f77b4"/>
    </g>
   </g>
   <g id="line2d_12">
    <path d="M 73.832727 70.397218 
L 379.901828 70.397218 
" clip-path="url(#pa69e281641)" style="fill: none; stroke: #d62728; stroke-width: 1.5; stroke-linecap: square"/>
   </g>
   <g id="patch_3">
    <path d="M 57.6 99.322435 
L 57.6 41.472 
" style="fill: none; stroke: #000000; stroke-width: 0.8; stroke-linejoin: miter; stroke-linecap: square"/>
   </g>
   <g id="patch_4">
    <path d="M 414.72 99.322435 
L 414.72 41.472 
" style="fill: none; stroke: #000000; stroke-width: 0.8; stroke-linejoin: miter; stroke-linecap: square"/>
   </g>
   <g id="patch_5">
    <path d="M 57.6 99.322435 
L 414.72 99.322435 
" style="fill: none; stroke: #000000; stroke-width: 0.8; stroke-linejoin: miter; stroke-linecap: square"/>
   </g>
   <g id="patch_6">
    <path d="M 57.6 41.472 
L 414.72 41.472 
" style="fill: none; stroke: #000000; stroke-width: 0.8; stroke-linejoin: miter; stroke-linecap: square"/>
   </g>
  </g>
  <g id="axes_2">
   <g id="patch_7">
    <path d="M 57.6 168.742957 
L 414.72 168.742957 
L 414.72 110.892522 
L 57.6 110.892522 
z
" style="fill: #ffffff"/>
   </g>
   <g id="matplotlib.axis_3">
    <g id="xtick_7">
     <g id="line2d_13">
      <g>
       <use xlink:href="#mbcb02aef95" x="73.832727" y="168.742957" style="stroke: #000000; stroke-width: 0.8"/>
      </g>
     </g>
     <g id="text_10">
      <!-- 0.000 -->
      <g transform="translate(59.518665 183.341394) scale(0.1 -0.1)">
       <use xlink:href="#DejaVuSans-30"/>
       <use xlink:href="#DejaVuSans-2e" x="63.623047"/>
       <use xlink:href="#DejaVuSans-30" x="95.410156"/>
       <use xlink:href="#DejaVuSans-30" x="159.033203"/>
       <use xlink:href="#DejaVuSans-30" x="222.65625"/>
      </g>
     </g>
    </g>
    <g id="xtick_8">
     <g id="line2d_14">
      <g>
       <use xlink:href="#mbcb02aef95" x="128.031247" y="168.742957" style="stroke: #000000; stroke-width: 0.8"/>
      </g>
     </g>
     <g id="text_11">
      <!-- 0.005 -->
      <g transform="translate(113.717185 183.341394) scale(0.1 -0.1)">
       <defs>
        <path id="DejaVuSans-35" d="M 691 4666 
L 3169 4666 
L 3169 4134 
L 1269 4134 
L 1269 2991 
Q 1406 3038 1543 3061 
Q 1681 3084 1819 3084 
Q 2600 3084 3056 2656 
Q 3513 2228 3513 1497 
Q 3513 744 3044 326 
Q 2575 -91 1722 -91 
Q 1428 -91 1123 -41 
Q 819 9 494 109 
L 494 744 
Q 775 591 1075 516 
Q 1375 441 1709 441 
Q 2250 441 2565 725 
Q 2881 1009 2881 1497 
Q 2881 1984 2565 2268 
Q 2250 2553 1709 2553 
Q 1456 2553 1204 2497 
Q 953 2441 691 2322 
L 691 4666 
z
" transform="scale(0.015625)"/>
       </defs>
       <use xlink:href="#DejaVuSans-30"/>
       <use xlink:href="#DejaVuSans-2e" x="63.623047"/>
       <use xlink:href="#DejaVuSans-30" x="95.410156"/>
       <use xlink:href="#DejaVuSans-30" x="159.033203"/>
       <use xlink:href="#DejaVuSans-35" x="222.65625"/>
      </g>
     </g>
    </g>
    <g id="xtick_9">
     <g id="line2d_15">
      <g>
       <use xlink:href="#mbcb02aef95" x="182.229767" y="168.742957" style="stroke: #000000; stroke-width: 0.8"/>
      </g>
     </g>
     <g id="text_12">
      <!-- 0.010 -->
      <g transform="translate(167.915705 183.341394) scale(0.1 -0.1)">
       <use xlink:href="#DejaVuSans-30"/>
       <use xlink:href="#DejaVuSans-2e" x="63.623047"/>
       <use xlink:href="#DejaVuSans-30" x="95.410156"/>
       <use xlink:href="#DejaVuSans-31" x="159.033203"/>
       <use xlink:href="#DejaVuSans-30" x="222.65625"/>
      </g>
     </g>
    </g>
    <g id="xtick_10">
     <g id="line2d_16">
      <g>
       <use xlink:href="#mbcb02aef95" x="236.428287" y="168.742957" style="stroke: #000000; stroke-width: 0.8"/>
      </g>
     </g>
     <g id="text_13">
      <!-- 0.015 -->
      <g transform="translate(222.114225 183.341394) scale(0.1 -0.1)">
       <use xlink:href="#DejaVuSans-30"/>
       <use xlink:href="#DejaVuSans-2e" x="63.623047"/>
       <use xlink:href="#DejaVuSans-30" x="95.410156"/>
       <use xlink:href="#DejaVuSans-31" x="159.033203"/>
       <use xlink:href="#DejaVuSans-35" x="222.65625"/>
      </g>
     </g>
    </g>
    <g id="xtick_11">
     <g id="line2d_17">
      <g>
       <use xlink:href="#mbcb02aef95" x="290.626807" y="168.742957" style="stroke: #000000; stroke-width: 0.8"/>
      </g>
     </g>
     <g id="text_14">
      <!-- 0.020 -->
      <g transform="translate(276.312745 183.341394) scale(0.1 -0.1)">
       <use xlink:href="#DejaVuSans-30"/>
       <use xlink:href="#DejaVuSans-2e" x="63.623047"/>
       <use xlink:href="#DejaVuSans-30" x="95.410156"/>
       <use xlink:href="#DejaVuSans-32" x="159.033203"/>
       <use xlink:href="#DejaVuSans-30" x="222.65625"/>
      </g>
     </g>
    </g>
    <g id="xtick_12">
     <g id="line2d_18">
      <g>
       <use xlink:href="#mbcb02aef95" x="344.825327" y="168.742957" style="stroke: #000000; stroke-width: 0.8"/>
      </g>
     </g>
     <g id="text_15">
      <!-- 0.025 -->
      <g transform="translate(330.511265 183.341394) scale(0.1 -0.1)">
       <use xlink:href="#DejaVuSans-30"/>
       <use xlink:href="#DejaVuSans-2e" x="63.623047"/>
       <use xlink:href="#DejaVuSans-30" x="95.410156"/>
       <use xlink:href="#DejaVuSans-32" x="159.033203"/>
       <use xlink:href="#DejaVuSans-35" x="222.65625"/>
      </g>
     </g>
    </g>
    <g id="xtick_13">
     <g id="line2d_19">
      <g>
       <use xlink:href="#mbcb02aef95" x="399.023847" y="168.742957" style="stroke: #000000; stroke-width: 0.8"/>
      </g>
     </g>
     <g id="text_16">
      <!-- 0.030 -->
      <g transform="translate(384.709785 183.341394) scale(0.1 -0.1)">
       <defs>
        <path id="DejaVuSans-33" d="M 2597 2516 
Q 3050 2419 3304 2112 
Q 3559 1806 3559 1356 
Q 3559 666 3084 287 
Q 2609 -91 1734 -91 
Q 1441 -91 1130 -33 
Q 819 25 488 141 
L 488 750 
Q 750 597 1062 519 
Q 1375 441 1716 441 
Q 2309 441 2620 675 
Q 2931 909 2931 1356 
Q 2931 1769 2642 2001 
Q 2353 2234 1838 2234 
L 1294 2234 
L 1294 2753 
L 1863 2753 
Q 2328 2753 2575 2939 
Q 2822 3125 2822 3475 
Q 2822 3834 2567 4026 
Q 2313 4219 1838 4219 
Q 1578 4219 1281 4162 
Q 984 4106 628 3988 
L 628 4550 
Q 988 4650 1302 4700 
Q 1616 4750 1894 4750 
Q 2613 4750 3031 4423 
Q 3450 4097 3450 3541 
Q 3450 3153 3228 2886 
Q 3006 2619 2597 2516 
z
" transform="scale(0.015625)"/>
       </defs>
       <use xlink:href="#DejaVuSans-30"/>
       <use xlink:href="#DejaVuSans-2e" x="63.623047"/>
       <use xlink:href="#DejaVuSans-30" x="95.410156"/>
       <use xlink:href="#DejaVuSans-33" x="159.033203"/>
       <use xlink:href="#DejaVuSans-30" x="222.65625"/>
      </g>
     </g>
    </g>
   </g>
   <g id="matplotlib.axis_4">
    <g id="ytick_4">
     <g id="line2d_20">
      <g>
       <use xlink:href="#me5179b328b" x="57.6" y="166.163365" style="stroke: #000000; stroke-width: 0.8"/>
      </g>
     </g>
     <g id="text_17">
      <!-- −1 -->
      <g transform="translate(35.857813 169.962583) scale(0.1 -0.1)">
       <use xlink:href="#DejaVuSans-2212"/>
       <use xlink:href="#DejaVuSans-31" x="83.789062"/>
      </g>
     </g>
    </g>
    <g id="ytick_5">
     <g id="line2d_21">
      <g>
       <use xlink:href="#me5179b328b" x="57.6" y="139.817697" style="stroke: #000000; stroke-width: 0.8"/>
      </g>
     </g>
     <g id="text_18">
      <!-- 0 -->
      <g transform="translate(44.2375 143.616915) scale(0.1 -0.1)">
       <use xlink:href="#DejaVuSans-30"/>
      </g>
     </g>
    </g>
    <g id="ytick_6">
     <g id="line2d_22">
      <g>
       <use xlink:href="#me5179b328b" x="57.6" y="113.472029" style="stroke: #000000; stroke-width: 0.8"/>
      </g>
     </g>
     <g id="text_19">
      <!-- 1 -->
      <g transform="translate(44.2375 117.271248) scale(0.1 -0.1)">
       <use xlink:href="#DejaVuSans-31"/>
      </g>
     </g>
    </g>
   </g>
   <g id="line2d_23">
    <path d="M 73.832727 139.817697 
L 76.000704 127.125381 
L 77.084693 121.782605 
L 78.168681 117.573077 
L 78.710675 115.979212 
L 79.25267 114.761307 
L 79.794664 113.938569 
L 80.336658 113.523974 
L 80.878652 113.524061 
L 81.420647 113.938828 
L 81.962641 114.761733 
L 82.504635 115.9798 
L 83.046629 117.573816 
L 84.130618 121.78361 
L 85.214606 127.12659 
L 86.840589 136.517023 
L 89.55056 152.511221 
L 90.634548 157.853794 
L 91.718537 162.063055 
L 92.260531 163.656768 
L 92.802525 164.874512 
L 93.34452 165.697082 
L 93.886514 166.111505 
L 94.428508 166.111246 
L 94.970502 165.696307 
L 95.512497 164.873234 
L 96.054491 163.655006 
L 96.596485 162.060838 
L 97.680474 157.850777 
L 98.764462 152.507595 
L 100.390445 143.117002 
L 103.100416 127.122963 
L 104.184404 121.780594 
L 105.268393 117.571599 
L 105.810387 115.978038 
L 106.352381 114.760455 
L 106.894375 113.938052 
L 107.43637 113.523801 
L 107.978364 113.524234 
L 108.520358 113.939345 
L 109.062352 114.762586 
L 109.604347 115.980974 
L 110.146341 117.575295 
L 111.230329 121.785622 
L 112.314318 127.129008 
L 113.940301 136.51976 
L 116.650272 152.513639 
L 117.73426 157.855805 
L 118.818249 162.064533 
L 119.360243 163.657943 
L 119.902237 164.875365 
L 120.444231 165.697599 
L 120.986226 166.111678 
L 121.52822 166.111072 
L 122.070214 165.69579 
L 122.612208 164.872381 
L 123.154202 163.653831 
L 123.696197 162.059359 
L 124.780185 157.848766 
L 125.864174 152.505177 
L 127.490156 143.114265 
L 130.200127 127.120546 
L 131.284116 121.778583 
L 132.368104 117.570121 
L 132.910099 115.976863 
L 133.452093 114.759603 
L 133.994087 113.937536 
L 134.536081 113.523629 
L 135.078076 113.524408 
L 135.62007 113.939862 
L 136.162064 114.763439 
L 136.704058 115.98215 
L 137.246053 117.576773 
L 138.330041 121.787633 
L 139.414029 127.131426 
L 141.040012 136.522497 
L 143.749983 152.516056 
L 144.833972 157.857816 
L 145.91796 162.066011 
L 146.459954 163.659117 
L 147.001949 164.876217 
L 147.543943 165.698115 
L 148.085937 166.111851 
L 148.627931 166.110898 
L 149.169926 165.695272 
L 149.71192 164.871528 
L 150.253914 163.652656 
L 150.795908 162.05788 
L 151.879897 157.846754 
L 152.963885 152.502759 
L 154.589868 143.111527 
L 157.299839 127.118129 
L 158.383828 121.776572 
L 159.467816 117.568643 
L 160.00981 115.975689 
L 160.551805 114.758751 
L 161.093799 113.93702 
L 161.635793 113.523456 
L 162.177787 113.524582 
L 162.719781 113.94038 
L 163.261776 114.764292 
L 163.80377 115.983325 
L 164.345764 117.578252 
L 165.429753 121.789645 
L 166.513741 127.133844 
L 168.139724 136.525235 
L 170.849695 152.518473 
L 171.933683 157.859827 
L 173.017672 162.067489 
L 173.559666 163.660291 
L 174.10166 164.877068 
L 174.643655 165.698632 
L 175.185649 166.112023 
L 175.727643 166.110724 
L 176.269637 165.694754 
L 176.811632 164.870674 
L 177.353626 163.65148 
L 177.89562 162.056401 
L 178.979608 157.844742 
L 180.063597 152.500341 
L 181.68958 143.10879 
L 184.399551 127.115711 
L 185.483539 121.774562 
L 186.567528 117.567166 
L 187.109522 115.974516 
L 187.651516 114.757899 
L 188.19351 113.936504 
L 188.735505 113.523284 
L 189.277499 113.524757 
L 189.819493 113.940898 
L 190.361487 114.765146 
L 190.903482 115.984501 
L 191.445476 117.579732 
L 192.529464 121.791657 
L 193.613453 127.136262 
L 195.239435 136.527972 
L 197.949407 152.520891 
L 199.033395 157.861837 
L 200.117384 162.068966 
L 200.659378 163.661464 
L 201.201372 164.87792 
L 201.743366 165.699147 
L 202.28536 166.112195 
L 202.827355 166.11055 
L 203.369349 165.694236 
L 203.911343 164.86982 
L 204.453337 163.650305 
L 204.995332 162.054922 
L 206.07932 157.84273 
L 207.163309 152.497922 
L 208.789291 143.106053 
L 211.499262 127.113294 
L 212.583251 121.772551 
L 213.667239 117.565689 
L 214.209234 115.973342 
L 214.751228 114.757048 
L 215.293222 113.935988 
L 215.835216 113.523112 
L 216.377211 113.524931 
L 216.919205 113.941417 
L 217.461199 114.766 
L 218.003193 115.985677 
L 218.545187 117.581211 
L 219.629176 121.793669 
L 220.713164 127.13868 
L 222.339147 136.530709 
L 225.049118 152.523308 
L 226.133107 157.863847 
L 227.217095 162.070443 
L 227.759089 163.662638 
L 228.301084 164.878771 
L 228.843078 165.699663 
L 229.385072 166.112367 
L 229.927066 166.110375 
L 230.469061 165.693717 
L 231.011055 164.868966 
L 231.553049 163.649128 
L 232.095043 162.053442 
L 233.179032 157.840718 
L 234.26302 152.495504 
L 235.889003 143.103315 
L 238.598974 127.110877 
L 239.682963 121.770541 
L 240.766951 117.564212 
L 241.308945 115.972169 
L 241.850939 114.756197 
L 242.392934 113.935473 
L 242.934928 113.522941 
L 243.476922 113.525106 
L 244.018916 113.941935 
L 244.560911 114.766854 
L 245.102905 115.986853 
L 245.644899 117.582691 
L 246.728888 121.795681 
L 247.812876 127.141099 
L 249.438859 136.533447 
L 252.14883 152.525724 
L 253.232818 157.865857 
L 254.316807 162.07192 
L 254.858801 163.663811 
L 255.400795 164.879622 
L 255.942789 165.700178 
L 256.484784 166.112538 
L 257.026778 166.1102 
L 257.568772 165.693199 
L 258.110766 164.868112 
L 258.652761 163.647952 
L 259.194755 162.051962 
L 260.278743 157.838706 
L 261.362732 152.493085 
L 262.988715 143.100578 
L 265.698686 127.108461 
L 266.782674 121.768531 
L 267.866663 117.562735 
L 268.408657 115.970996 
L 268.950651 114.755346 
L 269.492645 113.934958 
L 270.03464 113.522769 
L 270.576634 113.525281 
L 271.118628 113.942454 
L 271.660622 114.767709 
L 272.202616 115.988029 
L 272.744611 117.584171 
L 273.828599 121.797694 
L 274.912588 127.143517 
L 276.53857 136.536184 
L 279.248542 152.528141 
L 280.33253 157.867867 
L 281.416518 162.073397 
L 281.958513 163.664984 
L 282.500507 164.880472 
L 283.042501 165.700693 
L 283.584495 166.11271 
L 284.12649 166.110024 
L 284.668484 165.69268 
L 285.210478 164.867257 
L 285.752472 163.646775 
L 286.294467 162.050482 
L 287.378455 157.836693 
L 288.462443 152.490666 
L 290.088426 143.09784 
L 292.798397 127.106044 
L 293.882386 121.766522 
L 294.966374 117.561259 
L 295.508368 115.969823 
L 296.050363 114.754496 
L 296.592357 113.934443 
L 297.134351 113.522598 
L 297.676345 113.525457 
L 298.21834 113.942973 
L 298.760334 114.768563 
L 299.302328 115.989206 
L 299.844322 117.585651 
L 300.928311 121.799707 
L 302.012299 127.145936 
L 303.638282 136.538922 
L 306.348253 152.530558 
L 307.432242 157.869876 
L 308.51623 162.074873 
L 309.058224 163.666156 
L 309.600219 164.881323 
L 310.142213 165.701208 
L 310.684207 166.11288 
L 311.226201 166.109849 
L 311.768195 165.69216 
L 312.31019 164.866403 
L 312.852184 163.645599 
L 313.394178 162.049002 
L 314.478167 157.83468 
L 315.562155 152.488248 
L 317.188138 143.095103 
L 319.898109 127.103627 
L 320.982097 121.764512 
L 322.066086 117.559782 
L 322.60808 115.968651 
L 323.150074 114.753646 
L 323.692069 113.933929 
L 324.234063 113.522428 
L 324.776057 113.525632 
L 325.318051 113.943493 
L 325.860046 114.769418 
L 326.40204 115.990383 
L 326.944034 117.587132 
L 328.028022 121.80172 
L 329.112011 127.148355 
L 330.737994 136.541659 
L 333.447965 152.532974 
L 334.531953 157.871886 
L 335.615942 162.076349 
L 336.157936 163.667329 
L 336.69993 164.882173 
L 337.241924 165.701722 
L 337.783919 166.113051 
L 338.325913 166.109673 
L 338.867907 165.691641 
L 339.409901 164.865547 
L 339.951896 163.644421 
L 340.49389 162.047521 
L 341.577878 157.832667 
L 342.661867 152.485829 
L 344.287849 143.092365 
L 346.997821 127.101211 
L 348.081809 121.762503 
L 349.165798 117.558306 
L 349.707792 115.967479 
L 350.249786 114.752796 
L 350.79178 113.933414 
L 351.333774 113.522257 
L 351.875769 113.525809 
L 352.417763 113.944012 
L 352.959757 114.770274 
L 353.501751 115.991561 
L 354.043746 117.588612 
L 355.127734 121.803733 
L 356.211723 127.150774 
L 357.837705 136.544397 
L 360.547676 152.53539 
L 361.631665 157.873895 
L 362.715653 162.077825 
L 363.257648 163.668501 
L 363.799642 164.883022 
L 364.341636 165.702236 
L 364.88363 166.113221 
L 365.425625 166.109497 
L 365.967619 165.691121 
L 366.509613 164.864692 
L 367.051607 163.643244 
L 367.593601 162.04604 
L 368.67759 157.830654 
L 369.761578 152.483409 
L 371.387561 143.089628 
L 374.097532 127.098795 
L 375.181521 121.760494 
L 376.265509 117.556831 
L 376.807503 115.966307 
L 377.349498 114.751946 
L 377.891492 113.9329 
L 378.433486 113.522087 
L 378.97548 113.525985 
L 379.517475 113.944533 
L 380.059469 114.771129 
L 380.601463 115.992738 
L 381.143457 117.590093 
L 382.227446 121.805746 
L 383.311434 127.153193 
L 384.937417 136.547134 
L 387.647388 152.537806 
L 388.731377 157.875904 
L 389.815365 162.0793 
L 390.357359 163.669672 
L 390.899353 164.883872 
L 391.441348 165.70275 
L 391.983342 166.113391 
L 392.525336 166.10932 
L 393.06733 165.690601 
L 393.609325 164.863836 
L 394.151319 163.642066 
L 394.693313 162.044559 
L 395.777302 157.82864 
L 396.86129 152.48099 
L 398.487273 143.08689 
L 398.487273 143.08689 
" clip-path="url(#pbb179cf2dc)" style="fill: none; stroke: #1f77b4; stroke-width: 1.5; stroke-linecap: square"/>
   </g>
   <g id="patch_8">
    <path d="M 57.6 168.742957 
L 57.6 110.892522 
" style="fill: none; stroke: #000000; stroke-width: 0.8; stroke-linejoin: miter; stroke-linecap: square"/>
   </g>
   <g id="patch_9">
    <path d="M 414.72 168.742957 
L 414.72 110.892522 
" style="fill: none; stroke: #000000; stroke-width: 0.8; stroke-linejoin: miter; stroke-linecap: square"/>
   </g>
   <g id="patch_10">
    <path d="M 57.6 168.742957 
L 414.72 168.742957 
" style="fill: none; stroke: #000000; stroke-width: 0.8; stroke-linejoin: miter; stroke-linecap: square"/>
   </g>
   <g id="patch_11">
    <path d="M 57.6 110.892522 
L 414.72 110.892522 
" style="fill: none; stroke: #000000; stroke-width: 0.8; stroke-linejoin: miter; stroke-linecap: square"/>
   </g>
  </g>
  <g id="axes_3">
   <g id="patch_12">
    <path d="M 57.6 238.163478 
L 414.72 238.163478 
L 414.72 180.313043 
L 57.6 180.313043 
z
" style="fill: #ffffff"/>
   </g>
   <g id="matplotlib.axis_5">
    <g id="xtick_14">
     <g id="line2d_24">
      <g>
       <use xlink:href="#mbcb02aef95" x="73.832727" y="238.163478" style="stroke: #000000; stroke-width: 0.8"/>
      </g>
     </g>
     <g id="text_20">
      <!-- 0.00 -->
      <g transform="translate(62.699915 252.761916) scale(0.1 -0.1)">
       <use xlink:href="#DejaVuSans-30"/>
       <use xlink:href="#DejaVuSans-2e" x="63.623047"/>
       <use xlink:href="#DejaVuSans-30" x="95.410156"/>
       <use xlink:href="#DejaVuSans-30" x="159.033203"/>
      </g>
     </g>
    </g>
    <g id="xtick_15">
     <g id="line2d_25">
      <g>
       <use xlink:href="#mbcb02aef95" x="138.763636" y="238.163478" style="stroke: #000000; stroke-width: 0.8"/>
      </g>
     </g>
     <g id="text_21">
      <!-- 0.01 -->
      <g transform="translate(127.630824 252.761916) scale(0.1 -0.1)">
       <use xlink:href="#DejaVuSans-30"/>
       <use xlink:href="#DejaVuSans-2e" x="63.623047"/>
       <use xlink:href="#DejaVuSans-30" x="95.410156"/>
       <use xlink:href="#DejaVuSans-31" x="159.033203"/>
      </g>
     </g>
    </g>
    <g id="xtick_16">
     <g id="line2d_26">
      <g>
       <use xlink:href="#mbcb02aef95" x="203.694545" y="238.163478" style="stroke: #000000; stroke-width: 0.8"/>
      </g>
     </g>
     <g id="text_22">
      <!-- 0.02 -->
      <g transform="translate(192.561733 252.761916) scale(0.1 -0.1)">
       <use xlink:href="#DejaVuSans-30"/>
       <use xlink:href="#DejaVuSans-2e" x="63.623047"/>
       <use xlink:href="#DejaVuSans-30" x="95.410156"/>
       <use xlink:href="#DejaVuSans-32" x="159.033203"/>
      </g>
     </g>
    </g>
    <g id="xtick_17">
     <g id="line2d_27">
      <g>
       <use xlink:href="#mbcb02aef95" x="268.625455" y="238.163478" style="stroke: #000000; stroke-width: 0.8"/>
      </g>
     </g>
     <g id="text_23">
      <!-- 0.03 -->
      <g transform="translate(257.492642 252.761916) scale(0.1 -0.1)">
       <use xlink:href="#DejaVuSans-30"/>
       <use xlink:href="#DejaVuSans-2e" x="63.623047"/>
       <use xlink:href="#DejaVuSans-30" x="95.410156"/>
       <use xlink:href="#DejaVuSans-33" x="159.033203"/>
      </g>
     </g>
    </g>
    <g id="xtick_18">
     <g id="line2d_28">
      <g>
       <use xlink:href="#mbcb02aef95" x="333.556364" y="238.163478" style="stroke: #000000; stroke-width: 0.8"/>
      </g>
     </g>
     <g id="text_24">
      <!-- 0.04 -->
      <g transform="translate(322.423551 252.761916) scale(0.1 -0.1)">
       <use xlink:href="#DejaVuSans-30"/>
       <use xlink:href="#DejaVuSans-2e" x="63.623047"/>
       <use xlink:href="#DejaVuSans-30" x="95.410156"/>
       <use xlink:href="#DejaVuSans-34" x="159.033203"/>
      </g>
     </g>
    </g>
    <g id="xtick_19">
     <g id="line2d_29">
      <g>
       <use xlink:href="#mbcb02aef95" x="398.487273" y="238.163478" style="stroke: #000000; stroke-width: 0.8"/>
      </g>
     </g>
     <g id="text_25">
      <!-- 0.05 -->
      <g transform="translate(387.35446 252.761916) scale(0.1 -0.1)">
       <use xlink:href="#DejaVuSans-30"/>
       <use xlink:href="#DejaVuSans-2e" x="63.623047"/>
       <use xlink:href="#DejaVuSans-30" x="95.410156"/>
       <use xlink:href="#DejaVuSans-35" x="159.033203"/>
      </g>
     </g>
    </g>
   </g>
   <g id="matplotlib.axis_6">
    <g id="ytick_7">
     <g id="line2d_30">
      <g>
       <use xlink:href="#me5179b328b" x="57.6" y="235.533913" style="stroke: #000000; stroke-width: 0.8"/>
      </g>
     </g>
     <g id="text_26">
      <!-- −1 -->
      <g transform="translate(35.857813 239.333132) scale(0.1 -0.1)">
       <use xlink:href="#DejaVuSans-2212"/>
       <use xlink:href="#DejaVuSans-31" x="83.789062"/>
      </g>
     </g>
    </g>
    <g id="ytick_8">
     <g id="line2d_31">
      <g>
       <use xlink:href="#me5179b328b" x="57.6" y="208.759309" style="stroke: #000000; stroke-width: 0.8"/>
      </g>
     </g>
     <g id="text_27">
      <!-- 0 -->
      <g transform="translate(44.2375 212.558528) scale(0.1 -0.1)">
       <use xlink:href="#DejaVuSans-30"/>
      </g>
     </g>
    </g>
    <g id="ytick_9">
     <g id="line2d_32">
      <g>
       <use xlink:href="#me5179b328b" x="57.6" y="181.984705" style="stroke: #000000; stroke-width: 0.8"/>
      </g>
     </g>
     <g id="text_28">
      <!-- 1 -->
      <g transform="translate(44.2375 185.783924) scale(0.1 -0.1)">
       <use xlink:href="#DejaVuSans-31"/>
      </g>
     </g>
    </g>
   </g>
   <g id="line2d_33">
    <path d="M 73.832727 235.533913 
L 82.282195 182.993676 
L 82.607174 234.522105 
L 90.731663 184.002647 
L 91.056642 235.531076 
L 99.50611 182.990839 
L 99.831089 234.519268 
L 107.955577 183.99981 
L 108.280557 235.528239 
L 116.730025 182.988002 
L 117.055004 234.516431 
L 125.179492 183.996972 
L 125.504472 235.525402 
L 133.953939 182.985165 
L 134.278919 234.513594 
L 142.403407 183.994135 
L 142.728387 235.522565 
L 151.177854 182.982328 
L 151.502834 234.510757 
L 159.627322 183.991298 
L 159.952301 235.519728 
L 168.401769 182.979491 
L 168.726749 234.50792 
L 176.851237 183.988461 
L 177.176216 235.516891 
L 185.625684 182.976654 
L 185.950663 234.505083 
L 194.075152 183.985624 
L 194.400131 235.514054 
L 202.849599 182.973816 
L 203.174578 234.502246 
L 211.299066 183.982787 
L 211.624046 235.511216 
L 220.073514 182.970979 
L 220.398493 234.499409 
L 228.522981 183.97995 
L 228.847961 235.508379 
L 237.297428 182.968142 
L 237.622408 234.496572 
L 245.746896 183.977113 
L 246.071876 235.505542 
L 254.521343 182.965305 
L 254.846323 234.493735 
L 262.970811 183.974276 
L 263.29579 235.502705 
L 271.745258 182.962468 
L 272.070238 234.490898 
L 280.194726 183.971439 
L 280.519705 235.499868 
L 288.969173 182.959631 
L 289.294152 234.48806 
L 297.41864 183.968602 
L 297.74362 235.497031 
L 306.193088 182.956794 
L 306.518067 234.485223 
L 314.642555 183.965765 
L 314.967535 235.494194 
L 323.417002 182.953957 
L 323.741982 234.482386 
L 331.86647 183.962928 
L 332.19145 235.491357 
L 340.640917 182.95112 
L 340.965897 234.479549 
L 349.090385 183.960091 
L 349.415364 235.48852 
L 357.864832 182.948283 
L 358.189812 234.476712 
L 366.3143 183.957253 
L 366.639279 235.485683 
L 375.088747 182.945446 
L 375.413726 234.473875 
L 383.538215 183.954416 
L 383.863194 235.482846 
L 392.312662 182.942609 
L 392.637641 234.471038 
L 398.487273 198.097028 
L 398.487273 198.097028 
" clip-path="url(#pe2895644b0)" style="fill: none; stroke: #1f77b4; stroke-width: 1.5; stroke-linecap: square"/>
   </g>
   <g id="patch_13">
    <path d="M 57.6 238.163478 
L 57.6 180.313043 
" style="fill: none; stroke: #000000; stroke-width: 0.8; stroke-linejoin: miter; stroke-linecap: square"/>
   </g>
   <g id="patch_14">
    <path d="M 414.72 238.163478 
L 414.72 180.313043 
" style="fill: none; stroke: #000000; stroke-width: 0.8; stroke-linejoin: miter; stroke-linecap: square"/>
   </g>
   <g id="patch_15">
    <path d="M 57.6 238.163478 
L 414.72 238.163478 
" style="fill: none; stroke: #000000; stroke-width: 0.8; stroke-linejoin: miter; stroke-linecap: square"/>
   </g>
   <g id="patch_16">
    <path d="M 57.6 180.313043 
L 414.72 180.313043 
" style="fill: none; stroke: #000000; stroke-width: 0.8; stroke-linejoin: miter; stroke-linecap: square"/>
   </g>
  </g>
  <g id="axes_4">
   <g id="patch_17">
    <path d="M 57.6 307.584 
L 414.72 307.584 
L 414.72 249.733565 
L 57.6 249.733565 
z
" style="fill: #ffffff"/>
   </g>
   <g id="matplotlib.axis_7">
    <g id="xtick_20">
     <g id="line2d_34">
      <g>
       <use xlink:href="#mbcb02aef95" x="73.832727" y="307.584" style="stroke: #000000; stroke-width: 0.8"/>
      </g>
     </g>
     <g id="text_29">
      <!-- 0.00 -->
      <g transform="translate(62.699915 322.182437) scale(0.1 -0.1)">
       <use xlink:href="#DejaVuSans-30"/>
       <use xlink:href="#DejaVuSans-2e" x="63.623047"/>
       <use xlink:href="#DejaVuSans-30" x="95.410156"/>
       <use xlink:href="#DejaVuSans-30" x="159.033203"/>
      </g>
     </g>
    </g>
    <g id="xtick_21">
     <g id="line2d_35">
      <g>
       <use xlink:href="#mbcb02aef95" x="138.763636" y="307.584" style="stroke: #000000; stroke-width: 0.8"/>
      </g>
     </g>
     <g id="text_30">
      <!-- 0.01 -->
      <g transform="translate(127.630824 322.182437) scale(0.1 -0.1)">
       <use xlink:href="#DejaVuSans-30"/>
       <use xlink:href="#DejaVuSans-2e" x="63.623047"/>
       <use xlink:href="#DejaVuSans-30" x="95.410156"/>
       <use xlink:href="#DejaVuSans-31" x="159.033203"/>
      </g>
     </g>
    </g>
    <g id="xtick_22">
     <g id="line2d_36">
      <g>
       <use xlink:href="#mbcb02aef95" x="203.694545" y="307.584" style="stroke: #000000; stroke-width: 0.8"/>
      </g>
     </g>
     <g id="text_31">
      <!-- 0.02 -->
      <g transform="translate(192.561733 322.182437) scale(0.1 -0.1)">
       <use xlink:href="#DejaVuSans-30"/>
       <use xlink:href="#DejaVuSans-2e" x="63.623047"/>
       <use xlink:href="#DejaVuSans-30" x="95.410156"/>
       <use xlink:href="#DejaVuSans-32" x="159.033203"/>
      </g>
     </g>
    </g>
    <g id="xtick_23">
     <g id="line2d_37">
      <g>
       <use xlink:href="#mbcb02aef95" x="268.625455" y="307.584" style="stroke: #000000; stroke-width: 0.8"/>
      </g>
     </g>
     <g id="text_32">
      <!-- 0.03 -->
      <g transform="translate(257.492642 322.182437) scale(0.1 -0.1)">
       <use xlink:href="#DejaVuSans-30"/>
       <use xlink:href="#DejaVuSans-2e" x="63.623047"/>
       <use xlink:href="#DejaVuSans-30" x="95.410156"/>
       <use xlink:href="#DejaVuSans-33" x="159.033203"/>
      </g>
     </g>
    </g>
    <g id="xtick_24">
     <g id="line2d_38">
      <g>
       <use xlink:href="#mbcb02aef95" x="333.556364" y="307.584" style="stroke: #000000; stroke-width: 0.8"/>
      </g>
     </g>
     <g id="text_33">
      <!-- 0.04 -->
      <g transform="translate(322.423551 322.182437) scale(0.1 -0.1)">
       <use xlink:href="#DejaVuSans-30"/>
       <use xlink:href="#DejaVuSans-2e" x="63.623047"/>
       <use xlink:href="#DejaVuSans-30" x="95.410156"/>
       <use xlink:href="#DejaVuSans-34" x="159.033203"/>
      </g>
     </g>
    </g>
    <g id="xtick_25">
     <g id="line2d_39">
      <g>
       <use xlink:href="#mbcb02aef95" x="398.487273" y="307.584" style="stroke: #000000; stroke-width: 0.8"/>
      </g>
     </g>
     <g id="text_34">
      <!-- 0.05 -->
      <g transform="translate(387.35446 322.182437) scale(0.1 -0.1)">
       <use xlink:href="#DejaVuSans-30"/>
       <use xlink:href="#DejaVuSans-2e" x="63.623047"/>
       <use xlink:href="#DejaVuSans-30" x="95.410156"/>
       <use xlink:href="#DejaVuSans-35" x="159.033203"/>
      </g>
     </g>
    </g>
   </g>
   <g id="matplotlib.axis_8">
    <g id="ytick_10">
     <g id="line2d_40">
      <g>
       <use xlink:href="#me5179b328b" x="57.6" y="304.954435" style="stroke: #000000; stroke-width: 0.8"/>
      </g>
     </g>
     <g id="text_35">
      <!-- −1 -->
      <g transform="translate(35.857813 308.753654) scale(0.1 -0.1)">
       <use xlink:href="#DejaVuSans-2212"/>
       <use xlink:href="#DejaVuSans-31" x="83.789062"/>
      </g>
     </g>
    </g>
    <g id="ytick_11">
     <g id="line2d_41">
      <g>
       <use xlink:href="#me5179b328b" x="57.6" y="278.658783" style="stroke: #000000; stroke-width: 0.8"/>
      </g>
     </g>
     <g id="text_36">
      <!-- 0 -->
      <g transform="translate(44.2375 282.458001) scale(0.1 -0.1)">
       <use xlink:href="#DejaVuSans-30"/>
      </g>
     </g>
    </g>
    <g id="ytick_12">
     <g id="line2d_42">
      <g>
       <use xlink:href="#me5179b328b" x="57.6" y="252.36313" style="stroke: #000000; stroke-width: 0.8"/>
      </g>
     </g>
     <g id="text_37">
      <!-- 1 -->
      <g transform="translate(44.2375 256.162349) scale(0.1 -0.1)">
       <use xlink:href="#DejaVuSans-31"/>
      </g>
     </g>
    </g>
   </g>
   <g id="line2d_43">
    <path d="M 73.832727 304.954435 
L 80.657297 304.954435 
L 80.982277 252.36313 
L 87.481867 252.36313 
L 87.806847 304.954435 
L 94.306437 304.954435 
L 94.631417 252.36313 
L 101.131007 252.36313 
L 101.455987 304.954435 
L 107.955577 304.954435 
L 108.280557 252.36313 
L 115.105127 252.36313 
L 115.430106 304.954435 
L 121.929697 304.954435 
L 122.254676 252.36313 
L 128.754267 252.36313 
L 129.079247 304.954435 
L 135.578837 304.954435 
L 135.903817 252.36313 
L 142.403407 252.36313 
L 142.728387 304.954435 
L 149.552957 304.954435 
L 149.877936 252.36313 
L 156.377527 252.36313 
L 156.702506 304.954435 
L 163.202097 304.954435 
L 163.527076 252.36313 
L 170.026667 252.36313 
L 170.351646 304.954435 
L 176.851237 304.954435 
L 177.176216 252.36313 
L 184.000786 252.36313 
L 184.325766 304.954435 
L 190.825356 304.954435 
L 191.150336 252.36313 
L 197.649926 252.36313 
L 197.974906 304.954435 
L 204.474496 304.954435 
L 204.799476 252.36313 
L 211.299066 252.36313 
L 211.624046 304.954435 
L 218.448616 304.954435 
L 218.773595 252.36313 
L 225.273186 252.36313 
L 225.598165 304.954435 
L 232.097756 304.954435 
L 232.422735 252.36313 
L 238.922326 252.36313 
L 239.247305 304.954435 
L 245.746896 304.954435 
L 246.071876 252.36313 
L 252.896446 252.36313 
L 253.221425 304.954435 
L 259.721016 304.954435 
L 260.045995 252.36313 
L 266.545586 252.36313 
L 266.870565 304.954435 
L 273.370156 304.954435 
L 273.695135 252.36313 
L 280.194726 252.36313 
L 280.519705 304.954435 
L 287.344275 304.954435 
L 287.669255 252.36313 
L 294.168845 252.36313 
L 294.493825 304.954435 
L 300.993415 304.954435 
L 301.318395 252.36313 
L 307.817985 252.36313 
L 308.142965 304.954435 
L 314.642555 304.954435 
L 314.967535 252.36313 
L 321.792105 252.36313 
L 322.117084 304.954435 
L 328.616675 304.954435 
L 328.941654 252.36313 
L 335.441245 252.36313 
L 335.766224 304.954435 
L 342.265815 304.954435 
L 342.590794 252.36313 
L 349.090385 252.36313 
L 349.415364 304.954435 
L 356.239934 304.954435 
L 356.564914 252.36313 
L 363.064505 252.36313 
L 363.389484 304.954435 
L 369.889075 304.954435 
L 370.214054 252.36313 
L 376.713645 252.36313 
L 377.038624 304.954435 
L 383.538215 304.954435 
L 383.863194 252.36313 
L 390.687764 252.36313 
L 391.012744 304.954435 
L 397.512334 304.954435 
L 397.837314 252.36313 
L 398.487273 252.36313 
L 398.487273 252.36313 
" clip-path="url(#p3153d25ecc)" style="fill: none; stroke: #1f77b4; stroke-width: 1.5; stroke-linecap: square"/>
   </g>
   <g id="patch_18">
    <path d="M 57.6 307.584 
L 57.6 249.733565 
" style="fill: none; stroke: #000000; stroke-width: 0.8; stroke-linejoin: miter; stroke-linecap: square"/>
   </g>
   <g id="patch_19">
    <path d="M 414.72 307.584 
L 414.72 249.733565 
" style="fill: none; stroke: #000000; stroke-width: 0.8; stroke-linejoin: miter; stroke-linecap: square"/>
   </g>
   <g id="patch_20">
    <path d="M 57.6 307.584 
L 414.72 307.584 
" style="fill: none; stroke: #000000; stroke-width: 0.8; stroke-linejoin: miter; stroke-linecap: square"/>
   </g>
   <g id="patch_21">
    <path d="M 57.6 249.733565 
L 414.72 249.733565 
" style="fill: none; stroke: #000000; stroke-width: 0.8; stroke-linejoin: miter; stroke-linecap: square"/>
   </g>
  </g>
 </g>
 <defs>
  <clipPath id="pa69e281641">
   <rect x="57.6" y="41.472" width="357.12" height="57.850435"/>
  </clipPath>
  <clipPath id="pbb179cf2dc">
   <rect x="57.6" y="110.892522" width="357.12" height="57.850435"/>
  </clipPath>
  <clipPath id="pe2895644b0">
   <rect x="57.6" y="180.313043" width="357.12" height="57.850435"/>
  </clipPath>
  <clipPath id="p3153d25ecc">
   <rect x="57.6" y="249.733565" width="357.12" height="57.850435"/>
  </clipPath>
 </defs>
</svg>
