<?xml version="1.0" encoding="utf-8" standalone="no"?>
<!DOCTYPE svg PUBLIC "-//W3C//DTD SVG 1.1//EN"
  "http://www.w3.org/Graphics/SVG/1.1/DTD/svg11.dtd">
<svg xmlns:xlink="http://www.w3.org/1999/xlink" width="460.8pt" height="345.6pt" viewBox="0 0 460.8 345.6" xmlns="http://www.w3.org/2000/svg" version="1.1">
 <metadata>
  <rdf:RDF xmlns:dc="http://purl.org/dc/elements/1.1/" xmlns:cc="http://creativecommons.org/ns#" xmlns:rdf="http://www.w3.org/1999/02/22-rdf-syntax-ns#">
   <cc:Work>
    <dc:type rdf:resource="http://purl.org/dc/dcmitype/StillImage"/>
    <dc:date>2024-10-03T17:28:41.865658</dc:date>
    <dc:format>image/svg+xml</dc:format>
    <dc:creator>
     <cc:Agent>
      <dc:title>Matplotlib v3.8.4, https://matplotlib.org/</dc:title>
     </cc:Agent>
    </dc:creator>
   </cc:Work>
  </rdf:RDF>
 </metadata>
 <defs>
  <style type="text/css">*{stroke-linejoin: round; stroke-linecap: butt}</style>
 </defs>
 <g id="figure_1">
  <g id="patch_1">
   <path d="M 0 345.6 
L 460.8 345.6 
L 460.8 0 
L 0 0 
z
" style="fill: #ffffff"/>
  </g>
  <g id="axes_1">
   <g id="patch_2">
    <path d="M 57.6 119.740235 
L 414.72 119.740235 
L 414.72 41.472 
L 57.6 41.472 
z
" style="fill: #ffffff"/>
   </g>
   <g id="matplotlib.axis_1">
    <g id="xtick_1">
     <g id="line2d_1">
      <defs>
       <path id="mc47dfc6709" d="M 0 0 
L 0 3.5 
" style="stroke: #000000; stroke-width: 0.8"/>
      </defs>
      <g>
       <use xlink:href="#mc47dfc6709" x="73.832727" y="119.740235" style="stroke: #000000; stroke-width: 0.8"/>
      </g>
     </g>
     <g id="text_1">
      <!-- 0.000 -->
      <g transform="translate(59.518665 134.338673) scale(0.1 -0.1)">
       <defs>
        <path id="DejaVuSans-30" d="M 2034 4250 
Q 1547 4250 1301 3770 
Q 1056 3291 1056 2328 
Q 1056 1369 1301 889 
Q 1547 409 2034 409 
Q 2525 409 2770 889 
Q 3016 1369 3016 2328 
Q 3016 3291 2770 3770 
Q 2525 4250 2034 4250 
z
M 2034 4750 
Q 2819 4750 3233 4129 
Q 3647 3509 3647 2328 
Q 3647 1150 3233 529 
Q 2819 -91 2034 -91 
Q 1250 -91 836 529 
Q 422 1150 422 2328 
Q 422 3509 836 4129 
Q 1250 4750 2034 4750 
z
" transform="scale(0.015625)"/>
        <path id="DejaVuSans-2e" d="M 684 794 
L 1344 794 
L 1344 0 
L 684 0 
L 684 794 
z
" transform="scale(0.015625)"/>
       </defs>
       <use xlink:href="#DejaVuSans-30"/>
       <use xlink:href="#DejaVuSans-2e" x="63.623047"/>
       <use xlink:href="#DejaVuSans-30" x="95.410156"/>
       <use xlink:href="#DejaVuSans-30" x="159.033203"/>
       <use xlink:href="#DejaVuSans-30" x="222.65625"/>
      </g>
     </g>
    </g>
    <g id="xtick_2">
     <g id="line2d_2">
      <g>
       <use xlink:href="#mc47dfc6709" x="127.941818" y="119.740235" style="stroke: #000000; stroke-width: 0.8"/>
      </g>
     </g>
     <g id="text_2">
      <!-- 0.005 -->
      <g transform="translate(113.627756 134.338673) scale(0.1 -0.1)">
       <defs>
        <path id="DejaVuSans-35" d="M 691 4666 
L 3169 4666 
L 3169 4134 
L 1269 4134 
L 1269 2991 
Q 1406 3038 1543 3061 
Q 1681 3084 1819 3084 
Q 2600 3084 3056 2656 
Q 3513 2228 3513 1497 
Q 3513 744 3044 326 
Q 2575 -91 1722 -91 
Q 1428 -91 1123 -41 
Q 819 9 494 109 
L 494 744 
Q 775 591 1075 516 
Q 1375 441 1709 441 
Q 2250 441 2565 725 
Q 2881 1009 2881 1497 
Q 2881 1984 2565 2268 
Q 2250 2553 1709 2553 
Q 1456 2553 1204 2497 
Q 953 2441 691 2322 
L 691 4666 
z
" transform="scale(0.015625)"/>
       </defs>
       <use xlink:href="#DejaVuSans-30"/>
       <use xlink:href="#DejaVuSans-2e" x="63.623047"/>
       <use xlink:href="#DejaVuSans-30" x="95.410156"/>
       <use xlink:href="#DejaVuSans-30" x="159.033203"/>
       <use xlink:href="#DejaVuSans-35" x="222.65625"/>
      </g>
     </g>
    </g>
    <g id="xtick_3">
     <g id="line2d_3">
      <g>
       <use xlink:href="#mc47dfc6709" x="182.050909" y="119.740235" style="stroke: #000000; stroke-width: 0.8"/>
      </g>
     </g>
     <g id="text_3">
      <!-- 0.010 -->
      <g transform="translate(167.736847 134.338673) scale(0.1 -0.1)">
       <defs>
        <path id="DejaVuSans-31" d="M 794 531 
L 1825 531 
L 1825 4091 
L 703 3866 
L 703 4441 
L 1819 4666 
L 2450 4666 
L 2450 531 
L 3481 531 
L 3481 0 
L 794 0 
L 794 531 
z
" transform="scale(0.015625)"/>
       </defs>
       <use xlink:href="#DejaVuSans-30"/>
       <use xlink:href="#DejaVuSans-2e" x="63.623047"/>
       <use xlink:href="#DejaVuSans-30" x="95.410156"/>
       <use xlink:href="#DejaVuSans-31" x="159.033203"/>
       <use xlink:href="#DejaVuSans-30" x="222.65625"/>
      </g>
     </g>
    </g>
    <g id="xtick_4">
     <g id="line2d_4">
      <g>
       <use xlink:href="#mc47dfc6709" x="236.16" y="119.740235" style="stroke: #000000; stroke-width: 0.8"/>
      </g>
     </g>
     <g id="text_4">
      <!-- 0.015 -->
      <g transform="translate(221.845937 134.338673) scale(0.1 -0.1)">
       <use xlink:href="#DejaVuSans-30"/>
       <use xlink:href="#DejaVuSans-2e" x="63.623047"/>
       <use xlink:href="#DejaVuSans-30" x="95.410156"/>
       <use xlink:href="#DejaVuSans-31" x="159.033203"/>
       <use xlink:href="#DejaVuSans-35" x="222.65625"/>
      </g>
     </g>
    </g>
    <g id="xtick_5">
     <g id="line2d_5">
      <g>
       <use xlink:href="#mc47dfc6709" x="290.269091" y="119.740235" style="stroke: #000000; stroke-width: 0.8"/>
      </g>
     </g>
     <g id="text_5">
      <!-- 0.020 -->
      <g transform="translate(275.955028 134.338673) scale(0.1 -0.1)">
       <defs>
        <path id="DejaVuSans-32" d="M 1228 531 
L 3431 531 
L 3431 0 
L 469 0 
L 469 531 
Q 828 903 1448 1529 
Q 2069 2156 2228 2338 
Q 2531 2678 2651 2914 
Q 2772 3150 2772 3378 
Q 2772 3750 2511 3984 
Q 2250 4219 1831 4219 
Q 1534 4219 1204 4116 
Q 875 4013 500 3803 
L 500 4441 
Q 881 4594 1212 4672 
Q 1544 4750 1819 4750 
Q 2544 4750 2975 4387 
Q 3406 4025 3406 3419 
Q 3406 3131 3298 2873 
Q 3191 2616 2906 2266 
Q 2828 2175 2409 1742 
Q 1991 1309 1228 531 
z
" transform="scale(0.015625)"/>
       </defs>
       <use xlink:href="#DejaVuSans-30"/>
       <use xlink:href="#DejaVuSans-2e" x="63.623047"/>
       <use xlink:href="#DejaVuSans-30" x="95.410156"/>
       <use xlink:href="#DejaVuSans-32" x="159.033203"/>
       <use xlink:href="#DejaVuSans-30" x="222.65625"/>
      </g>
     </g>
    </g>
    <g id="xtick_6">
     <g id="line2d_6">
      <g>
       <use xlink:href="#mc47dfc6709" x="344.378182" y="119.740235" style="stroke: #000000; stroke-width: 0.8"/>
      </g>
     </g>
     <g id="text_6">
      <!-- 0.025 -->
      <g transform="translate(330.064119 134.338673) scale(0.1 -0.1)">
       <use xlink:href="#DejaVuSans-30"/>
       <use xlink:href="#DejaVuSans-2e" x="63.623047"/>
       <use xlink:href="#DejaVuSans-30" x="95.410156"/>
       <use xlink:href="#DejaVuSans-32" x="159.033203"/>
       <use xlink:href="#DejaVuSans-35" x="222.65625"/>
      </g>
     </g>
    </g>
    <g id="xtick_7">
     <g id="line2d_7">
      <g>
       <use xlink:href="#mc47dfc6709" x="398.487273" y="119.740235" style="stroke: #000000; stroke-width: 0.8"/>
      </g>
     </g>
     <g id="text_7">
      <!-- 0.030 -->
      <g transform="translate(384.17321 134.338673) scale(0.1 -0.1)">
       <defs>
        <path id="DejaVuSans-33" d="M 2597 2516 
Q 3050 2419 3304 2112 
Q 3559 1806 3559 1356 
Q 3559 666 3084 287 
Q 2609 -91 1734 -91 
Q 1441 -91 1130 -33 
Q 819 25 488 141 
L 488 750 
Q 750 597 1062 519 
Q 1375 441 1716 441 
Q 2309 441 2620 675 
Q 2931 909 2931 1356 
Q 2931 1769 2642 2001 
Q 2353 2234 1838 2234 
L 1294 2234 
L 1294 2753 
L 1863 2753 
Q 2328 2753 2575 2939 
Q 2822 3125 2822 3475 
Q 2822 3834 2567 4026 
Q 2313 4219 1838 4219 
Q 1578 4219 1281 4162 
Q 984 4106 628 3988 
L 628 4550 
Q 988 4650 1302 4700 
Q 1616 4750 1894 4750 
Q 2613 4750 3031 4423 
Q 3450 4097 3450 3541 
Q 3450 3153 3228 2886 
Q 3006 2619 2597 2516 
z
" transform="scale(0.015625)"/>
       </defs>
       <use xlink:href="#DejaVuSans-30"/>
       <use xlink:href="#DejaVuSans-2e" x="63.623047"/>
       <use xlink:href="#DejaVuSans-30" x="95.410156"/>
       <use xlink:href="#DejaVuSans-33" x="159.033203"/>
       <use xlink:href="#DejaVuSans-30" x="222.65625"/>
      </g>
     </g>
    </g>
   </g>
   <g id="matplotlib.axis_2">
    <g id="ytick_1">
     <g id="line2d_8">
      <defs>
       <path id="m4824cf8351" d="M 0 0 
L -3.5 0 
" style="stroke: #000000; stroke-width: 0.8"/>
      </defs>
      <g>
       <use xlink:href="#m4824cf8351" x="57.6" y="116.182623" style="stroke: #000000; stroke-width: 0.8"/>
      </g>
     </g>
     <g id="text_8">
      <!-- −1 -->
      <g transform="translate(35.857813 119.981842) scale(0.1 -0.1)">
       <defs>
        <path id="DejaVuSans-2212" d="M 678 2272 
L 4684 2272 
L 4684 1741 
L 678 1741 
L 678 2272 
z
" transform="scale(0.015625)"/>
       </defs>
       <use xlink:href="#DejaVuSans-2212"/>
       <use xlink:href="#DejaVuSans-31" x="83.789062"/>
      </g>
     </g>
    </g>
    <g id="ytick_2">
     <g id="line2d_9">
      <g>
       <use xlink:href="#m4824cf8351" x="57.6" y="80.606134" style="stroke: #000000; stroke-width: 0.8"/>
      </g>
     </g>
     <g id="text_9">
      <!-- 0 -->
      <g transform="translate(44.2375 84.405353) scale(0.1 -0.1)">
       <use xlink:href="#DejaVuSans-30"/>
      </g>
     </g>
    </g>
    <g id="ytick_3">
     <g id="line2d_10">
      <g>
       <use xlink:href="#m4824cf8351" x="57.6" y="45.029645" style="stroke: #000000; stroke-width: 0.8"/>
      </g>
     </g>
     <g id="text_10">
      <!-- 1 -->
      <g transform="translate(44.2375 48.828864) scale(0.1 -0.1)">
       <use xlink:href="#DejaVuSans-31"/>
      </g>
     </g>
    </g>
   </g>
   <g id="line2d_11">
    <path d="M 73.832727 62.817889 
L 76.000704 73.666268 
L 80.336658 96.343305 
L 81.962641 103.624785 
L 83.046629 107.736312 
L 84.130618 111.123005 
L 85.214606 113.694381 
L 85.7566 114.651952 
L 86.298595 115.381743 
L 86.840589 115.87887 
L 87.382583 116.140008 
L 87.924577 116.163409 
L 88.466572 115.948918 
L 89.008566 115.497969 
L 89.55056 114.813579 
L 90.092554 113.900327 
L 91.176543 111.413167 
L 92.260531 108.102939 
L 93.34452 104.058082 
L 94.970502 96.854427 
L 97.138479 85.818022 
L 100.932439 65.914615 
L 102.558422 58.481565 
L 103.64241 54.238517 
L 104.726399 50.699929 
L 105.810387 47.960342 
L 106.894375 46.092949 
L 107.43637 45.502867 
L 107.978364 45.147641 
L 108.520358 45.029647 
L 109.062352 45.149674 
L 109.604347 45.50692 
L 110.146341 46.098994 
L 110.688335 46.921935 
L 111.772324 49.236888 
L 112.856312 52.389929 
L 113.940301 56.296819 
L 115.566283 63.337461 
L 117.73426 74.252832 
L 122.070214 96.876555 
L 123.696197 104.076784 
L 124.780185 108.118719 
L 125.864174 111.425602 
L 126.948162 113.909086 
L 127.490156 114.820405 
L 128.032151 115.502817 
L 128.574145 115.951756 
L 129.116139 116.164218 
L 129.658133 116.138782 
L 130.200127 115.875617 
L 130.742122 115.376485 
L 131.284116 114.644725 
L 132.368104 112.504427 
L 133.452093 109.511907 
L 134.536081 105.747113 
L 136.162064 98.876929 
L 137.788047 90.911494 
L 143.749983 60.338937 
L 145.375966 53.841404 
L 146.459954 50.380757 
L 147.543943 47.727637 
L 148.627931 45.952929 
L 149.169926 45.410753 
L 149.71192 45.104048 
L 150.253914 45.034866 
L 150.795908 45.203671 
L 151.337903 45.609334 
L 151.879897 46.249139 
L 152.421891 47.118807 
L 153.505879 49.522957 
L 154.589868 52.757554 
L 155.673856 56.736178 
L 157.299839 63.861897 
L 159.467816 74.841186 
L 163.80377 97.405223 
L 165.429753 104.522172 
L 166.513741 108.493376 
L 167.59773 111.719519 
L 168.681718 114.11441 
L 169.223712 114.979221 
L 169.765706 115.614063 
L 170.307701 116.014687 
L 170.849695 116.178413 
L 171.391689 116.104146 
L 171.933683 115.792382 
L 172.475678 115.245208 
L 173.017672 114.466284 
L 174.10166 112.235548 
L 175.185649 109.159772 
L 176.269637 105.321131 
L 177.89562 98.362051 
L 180.063597 87.509395 
L 184.399551 64.835504 
L 186.025533 57.559041 
L 187.109522 53.45183 
L 188.19351 50.070098 
L 189.277499 47.504194 
L 189.819493 46.549506 
L 190.361487 45.822671 
L 190.903482 45.328551 
L 191.445476 45.070454 
L 191.98747 45.050105 
L 192.529464 45.26764 
L 193.071458 45.721604 
L 193.613453 46.408961 
L 194.155447 47.325111 
L 195.239435 49.817782 
L 196.323424 53.133023 
L 197.407412 57.182261 
L 199.033395 64.391049 
L 201.201372 75.431164 
L 204.995332 95.331632 
L 206.621314 102.759914 
L 207.705303 106.99879 
L 208.789291 110.532535 
L 209.87328 113.26674 
L 210.957268 115.128356 
L 211.499262 115.715448 
L 212.041257 116.067644 
L 212.583251 116.182588 
L 213.125245 116.059511 
L 213.667239 115.699236 
L 214.209234 115.104174 
L 214.751228 114.278306 
L 215.835216 111.957759 
L 216.919205 108.799594 
L 218.003193 104.888188 
L 219.629176 97.842171 
L 221.797153 86.922714 
L 226.133107 64.302535 
L 227.759089 57.107452 
L 228.843078 53.069905 
L 229.927066 49.76804 
L 231.011055 47.290074 
L 231.553049 46.381654 
L 232.095043 45.702209 
L 232.637037 45.256287 
L 233.179032 45.046869 
L 233.721026 45.075358 
L 234.26302 45.341562 
L 234.805014 45.843701 
L 235.347009 46.578415 
L 236.430997 48.724383 
L 237.514986 51.722132 
L 238.598974 55.491572 
L 240.224957 62.367369 
L 241.850939 70.336497 
L 247.812876 100.90399 
L 249.438859 107.395434 
L 250.522847 110.851178 
L 251.606836 113.498868 
L 252.690824 115.267766 
L 253.232818 115.806944 
L 253.774813 116.110613 
L 254.316807 116.176743 
L 254.858801 116.004891 
L 255.400795 115.596206 
L 255.942789 114.953423 
L 256.484784 114.080843 
L 257.568772 111.67114 
L 258.652761 108.431476 
L 259.736749 104.448405 
L 261.362732 97.317436 
L 263.530709 86.334254 
L 267.866663 63.774159 
L 269.492645 56.662482 
L 270.576634 52.695736 
L 271.660622 49.474669 
L 272.744611 47.085338 
L 273.286605 46.223442 
L 273.828599 45.591579 
L 274.370593 45.193979 
L 274.912588 45.0333 
L 275.454582 45.110619 
L 275.996576 45.425417 
L 276.53857 45.975589 
L 277.080565 46.757454 
L 278.164553 48.993822 
L 279.248542 52.074773 
L 280.33253 55.917993 
L 281.958513 62.882565 
L 284.12649 73.739485 
L 288.462443 96.410206 
L 290.088426 103.681643 
L 291.172415 107.784533 
L 292.256403 111.161301 
L 293.340392 113.72173 
L 293.882386 114.673534 
L 294.42438 115.397413 
L 294.966374 115.888524 
L 295.508368 116.143582 
L 296.050363 116.160878 
L 296.592357 115.940299 
L 297.134351 115.48332 
L 297.676345 114.792998 
L 298.21834 113.873951 
L 299.302328 111.37577 
L 300.386317 108.05552 
L 301.470305 104.001907 
L 303.096288 96.787994 
L 305.264265 85.74418 
L 309.058224 65.846673 
L 310.684207 58.423167 
L 311.768195 54.188469 
L 312.852184 50.65957 
L 313.936172 47.930749 
L 315.020161 46.074914 
L 315.562155 45.490812 
L 316.104149 45.141645 
L 316.646144 45.029751 
L 317.188138 45.155878 
L 317.730132 45.519182 
L 318.272126 46.117232 
L 318.814121 46.946026 
L 319.898109 49.272165 
L 320.982097 52.435449 
L 322.066086 56.351367 
L 323.692069 63.402753 
L 325.860046 74.326282 
L 330.195999 96.942892 
L 331.821982 104.132822 
L 332.905971 108.165977 
L 333.989959 111.462819 
L 335.073947 113.935265 
L 335.615942 114.840785 
L 336.157936 115.517261 
L 336.69993 115.960167 
L 337.241924 116.16654 
L 337.783919 116.134999 
L 338.325913 115.865756 
L 338.867907 115.36061 
L 339.409901 114.622943 
L 340.49389 112.471307 
L 341.577878 109.468333 
L 342.661867 105.69425 
L 344.287849 98.812848 
L 345.913832 90.840036 
L 351.875769 60.277641 
L 353.501751 53.792293 
L 354.58574 50.341457 
L 355.669728 47.699199 
L 356.753717 45.936113 
L 357.295711 45.399935 
L 357.837705 45.099301 
L 358.379699 45.036223 
L 358.921694 45.211122 
L 359.463688 45.622829 
L 360.005682 46.268588 
L 360.547676 47.14408 
L 361.631665 49.559333 
L 362.715653 52.804061 
L 363.799642 56.791574 
L 365.425625 63.927786 
L 367.593601 74.914848 
L 371.929555 97.470976 
L 373.555538 104.577374 
L 374.639526 108.539658 
L 375.723515 111.755644 
L 376.807503 114.139413 
L 377.349498 114.998393 
L 377.891492 115.627276 
L 378.433486 116.021852 
L 378.97548 116.179483 
L 379.517475 116.099113 
L 380.059469 115.78128 
L 380.601463 115.228111 
L 381.143457 114.443307 
L 382.227446 112.20131 
L 383.311434 109.115187 
L 384.395423 105.267391 
L 386.021405 98.297336 
L 388.189382 87.436163 
L 392.525336 64.768637 
L 394.151319 57.502235 
L 395.235307 53.403669 
L 396.319296 50.031869 
L 397.403284 47.476918 
L 397.945278 46.527999 
L 398.487273 45.807077 
L 398.487273 45.807077 
" clip-path="url(#pcde15e5dca)" style="fill: none; stroke: #1f77b4; stroke-width: 1.5; stroke-linecap: square"/>
   </g>
   <g id="LineCollection_1">
    <path d="M 73.832727 80.606134 
L 73.832727 62.817889 
" clip-path="url(#pcde15e5dca)" style="fill: none; stroke: #1f77b4; stroke-width: 1.5"/>
    <path d="M 138.763636 80.606134 
L 138.763636 85.803255 
" clip-path="url(#pcde15e5dca)" style="fill: none; stroke: #1f77b4; stroke-width: 1.5"/>
    <path d="M 203.694545 80.606134 
L 203.694545 88.730056 
" clip-path="url(#pcde15e5dca)" style="fill: none; stroke: #1f77b4; stroke-width: 1.5"/>
    <path d="M 268.625455 80.606134 
L 268.625455 60.302149 
" clip-path="url(#pcde15e5dca)" style="fill: none; stroke: #1f77b4; stroke-width: 1.5"/>
    <path d="M 333.556364 80.606134 
L 333.556364 110.238547 
" clip-path="url(#pcde15e5dca)" style="fill: none; stroke: #1f77b4; stroke-width: 1.5"/>
    <path d="M 398.487273 80.606134 
L 398.487273 45.807077 
" clip-path="url(#pcde15e5dca)" style="fill: none; stroke: #1f77b4; stroke-width: 1.5"/>
   </g>
   <g id="line2d_12">
    <defs>
     <path id="m2e2fae2523" d="M 0 3 
C 0.795609 3 1.55874 2.683901 2.12132 2.12132 
C 2.683901 1.55874 3 0.795609 3 0 
C 3 -0.795609 2.683901 -1.55874 2.12132 -2.12132 
C 1.55874 -2.683901 0.795609 -3 0 -3 
C -0.795609 -3 -1.55874 -2.683901 -2.12132 -2.12132 
C -2.683901 -1.55874 -3 -0.795609 -3 0 
C -3 0.795609 -2.683901 1.55874 -2.12132 2.12132 
C -1.55874 2.683901 -0.795609 3 0 3 
z
" style="stroke: #1f77b4"/>
    </defs>
    <g clip-path="url(#pcde15e5dca)">
     <use xlink:href="#m2e2fae2523" x="73.832727" y="62.817889" style="fill: #1f77b4; stroke: #1f77b4"/>
     <use xlink:href="#m2e2fae2523" x="138.763636" y="85.803255" style="fill: #1f77b4; stroke: #1f77b4"/>
     <use xlink:href="#m2e2fae2523" x="203.694545" y="88.730056" style="fill: #1f77b4; stroke: #1f77b4"/>
     <use xlink:href="#m2e2fae2523" x="268.625455" y="60.302149" style="fill: #1f77b4; stroke: #1f77b4"/>
     <use xlink:href="#m2e2fae2523" x="333.556364" y="110.238547" style="fill: #1f77b4; stroke: #1f77b4"/>
     <use xlink:href="#m2e2fae2523" x="398.487273" y="45.807077" style="fill: #1f77b4; stroke: #1f77b4"/>
    </g>
   </g>
   <g id="line2d_13">
    <path d="M 73.832727 80.606134 
L 398.487273 80.606134 
" clip-path="url(#pcde15e5dca)" style="fill: none; stroke: #d62728; stroke-width: 1.5; stroke-linecap: square"/>
   </g>
   <g id="patch_3">
    <path d="M 57.6 119.740235 
L 57.6 41.472 
" style="fill: none; stroke: #000000; stroke-width: 0.8; stroke-linejoin: miter; stroke-linecap: square"/>
   </g>
   <g id="patch_4">
    <path d="M 414.72 119.740235 
L 414.72 41.472 
" style="fill: none; stroke: #000000; stroke-width: 0.8; stroke-linejoin: miter; stroke-linecap: square"/>
   </g>
   <g id="patch_5">
    <path d="M 57.6 119.740235 
L 414.72 119.740235 
" style="fill: none; stroke: #000000; stroke-width: 0.8; stroke-linejoin: miter; stroke-linecap: square"/>
   </g>
   <g id="patch_6">
    <path d="M 57.6 41.472 
L 414.72 41.472 
" style="fill: none; stroke: #000000; stroke-width: 0.8; stroke-linejoin: miter; stroke-linecap: square"/>
   </g>
  </g>
  <g id="axes_2">
   <g id="patch_7">
    <path d="M 57.6 213.662118 
L 414.72 213.662118 
L 414.72 135.393882 
L 57.6 135.393882 
z
" style="fill: #ffffff"/>
   </g>
   <g id="matplotlib.axis_3">
    <g id="xtick_8">
     <g id="line2d_14">
      <g>
       <use xlink:href="#mc47dfc6709" x="73.832727" y="213.662118" style="stroke: #000000; stroke-width: 0.8"/>
      </g>
     </g>
     <g id="text_11">
      <!-- 0.000 -->
      <g transform="translate(59.518665 228.260555) scale(0.1 -0.1)">
       <use xlink:href="#DejaVuSans-30"/>
       <use xlink:href="#DejaVuSans-2e" x="63.623047"/>
       <use xlink:href="#DejaVuSans-30" x="95.410156"/>
       <use xlink:href="#DejaVuSans-30" x="159.033203"/>
       <use xlink:href="#DejaVuSans-30" x="222.65625"/>
      </g>
     </g>
    </g>
    <g id="xtick_9">
     <g id="line2d_15">
      <g>
       <use xlink:href="#mc47dfc6709" x="127.941818" y="213.662118" style="stroke: #000000; stroke-width: 0.8"/>
      </g>
     </g>
     <g id="text_12">
      <!-- 0.005 -->
      <g transform="translate(113.627756 228.260555) scale(0.1 -0.1)">
       <use xlink:href="#DejaVuSans-30"/>
       <use xlink:href="#DejaVuSans-2e" x="63.623047"/>
       <use xlink:href="#DejaVuSans-30" x="95.410156"/>
       <use xlink:href="#DejaVuSans-30" x="159.033203"/>
       <use xlink:href="#DejaVuSans-35" x="222.65625"/>
      </g>
     </g>
    </g>
    <g id="xtick_10">
     <g id="line2d_16">
      <g>
       <use xlink:href="#mc47dfc6709" x="182.050909" y="213.662118" style="stroke: #000000; stroke-width: 0.8"/>
      </g>
     </g>
     <g id="text_13">
      <!-- 0.010 -->
      <g transform="translate(167.736847 228.260555) scale(0.1 -0.1)">
       <use xlink:href="#DejaVuSans-30"/>
       <use xlink:href="#DejaVuSans-2e" x="63.623047"/>
       <use xlink:href="#DejaVuSans-30" x="95.410156"/>
       <use xlink:href="#DejaVuSans-31" x="159.033203"/>
       <use xlink:href="#DejaVuSans-30" x="222.65625"/>
      </g>
     </g>
    </g>
    <g id="xtick_11">
     <g id="line2d_17">
      <g>
       <use xlink:href="#mc47dfc6709" x="236.16" y="213.662118" style="stroke: #000000; stroke-width: 0.8"/>
      </g>
     </g>
     <g id="text_14">
      <!-- 0.015 -->
      <g transform="translate(221.845937 228.260555) scale(0.1 -0.1)">
       <use xlink:href="#DejaVuSans-30"/>
       <use xlink:href="#DejaVuSans-2e" x="63.623047"/>
       <use xlink:href="#DejaVuSans-30" x="95.410156"/>
       <use xlink:href="#DejaVuSans-31" x="159.033203"/>
       <use xlink:href="#DejaVuSans-35" x="222.65625"/>
      </g>
     </g>
    </g>
    <g id="xtick_12">
     <g id="line2d_18">
      <g>
       <use xlink:href="#mc47dfc6709" x="290.269091" y="213.662118" style="stroke: #000000; stroke-width: 0.8"/>
      </g>
     </g>
     <g id="text_15">
      <!-- 0.020 -->
      <g transform="translate(275.955028 228.260555) scale(0.1 -0.1)">
       <use xlink:href="#DejaVuSans-30"/>
       <use xlink:href="#DejaVuSans-2e" x="63.623047"/>
       <use xlink:href="#DejaVuSans-30" x="95.410156"/>
       <use xlink:href="#DejaVuSans-32" x="159.033203"/>
       <use xlink:href="#DejaVuSans-30" x="222.65625"/>
      </g>
     </g>
    </g>
    <g id="xtick_13">
     <g id="line2d_19">
      <g>
       <use xlink:href="#mc47dfc6709" x="344.378182" y="213.662118" style="stroke: #000000; stroke-width: 0.8"/>
      </g>
     </g>
     <g id="text_16">
      <!-- 0.025 -->
      <g transform="translate(330.064119 228.260555) scale(0.1 -0.1)">
       <use xlink:href="#DejaVuSans-30"/>
       <use xlink:href="#DejaVuSans-2e" x="63.623047"/>
       <use xlink:href="#DejaVuSans-30" x="95.410156"/>
       <use xlink:href="#DejaVuSans-32" x="159.033203"/>
       <use xlink:href="#DejaVuSans-35" x="222.65625"/>
      </g>
     </g>
    </g>
    <g id="xtick_14">
     <g id="line2d_20">
      <g>
       <use xlink:href="#mc47dfc6709" x="398.487273" y="213.662118" style="stroke: #000000; stroke-width: 0.8"/>
      </g>
     </g>
     <g id="text_17">
      <!-- 0.030 -->
      <g transform="translate(384.17321 228.260555) scale(0.1 -0.1)">
       <use xlink:href="#DejaVuSans-30"/>
       <use xlink:href="#DejaVuSans-2e" x="63.623047"/>
       <use xlink:href="#DejaVuSans-30" x="95.410156"/>
       <use xlink:href="#DejaVuSans-33" x="159.033203"/>
       <use xlink:href="#DejaVuSans-30" x="222.65625"/>
      </g>
     </g>
    </g>
   </g>
   <g id="matplotlib.axis_4">
    <g id="ytick_4">
     <g id="line2d_21">
      <g>
       <use xlink:href="#m4824cf8351" x="57.6" y="210.10461" style="stroke: #000000; stroke-width: 0.8"/>
      </g>
     </g>
     <g id="text_18">
      <!-- −1 -->
      <g transform="translate(35.857813 213.903829) scale(0.1 -0.1)">
       <use xlink:href="#DejaVuSans-2212"/>
       <use xlink:href="#DejaVuSans-31" x="83.789062"/>
      </g>
     </g>
    </g>
    <g id="ytick_5">
     <g id="line2d_22">
      <g>
       <use xlink:href="#m4824cf8351" x="57.6" y="174.528069" style="stroke: #000000; stroke-width: 0.8"/>
      </g>
     </g>
     <g id="text_19">
      <!-- 0 -->
      <g transform="translate(44.2375 178.327287) scale(0.1 -0.1)">
       <use xlink:href="#DejaVuSans-30"/>
      </g>
     </g>
    </g>
    <g id="ytick_6">
     <g id="line2d_23">
      <g>
       <use xlink:href="#m4824cf8351" x="57.6" y="138.951527" style="stroke: #000000; stroke-width: 0.8"/>
      </g>
     </g>
     <g id="text_20">
      <!-- 1 -->
      <g transform="translate(44.2375 142.750746) scale(0.1 -0.1)">
       <use xlink:href="#DejaVuSans-31"/>
      </g>
     </g>
    </g>
   </g>
   <g id="line2d_24">
    <path d="M 73.832727 156.739798 
L 76.000704 151.613884 
L 77.626687 148.227323 
L 79.25267 145.299519 
L 80.878652 142.881542 
L 81.962641 141.57401 
L 83.046629 140.522156 
L 84.130618 139.734141 
L 85.214606 139.216078 
L 86.298595 138.971987 
L 87.382583 139.003761 
L 88.466572 139.311155 
L 89.55056 139.891783 
L 90.634548 140.74114 
L 91.718537 141.852636 
L 92.802525 143.217648 
L 94.428508 145.716824 
L 96.054491 148.718546 
L 97.680474 152.170458 
L 99.84845 157.368232 
L 102.558422 164.592377 
L 106.894375 176.995285 
L 110.688335 187.651264 
L 113.398306 194.559503 
L 115.566283 199.403668 
L 117.192266 202.538497 
L 118.818249 205.184747 
L 120.444231 207.296261 
L 121.52822 208.388268 
L 122.612208 209.217568 
L 123.696197 209.777725 
L 124.780185 210.064394 
L 125.864174 210.075351 
L 126.948162 209.810511 
L 128.032151 209.271928 
L 129.116139 208.463781 
L 130.200127 207.39234 
L 131.284116 206.065918 
L 132.910099 203.62123 
L 134.536081 200.669077 
L 136.162064 197.260954 
L 138.330041 192.111266 
L 141.040012 184.928651 
L 145.375966 172.54503 
L 149.169926 161.857 
L 151.879897 154.899408 
L 154.047874 150.001599 
L 155.673856 146.819335 
L 157.299839 144.120389 
L 158.925822 141.951835 
L 160.00981 140.819877 
L 161.093799 139.949448 
L 162.177787 139.3473 
L 163.261776 139.018106 
L 164.345764 138.96442 
L 165.429753 139.186658 
L 166.513741 139.683097 
L 167.59773 140.449883 
L 168.681718 141.481069 
L 169.765706 142.768654 
L 171.391689 145.1584 
L 173.017672 148.060433 
L 174.643655 151.424136 
L 176.811632 156.52478 
L 179.521603 163.664529 
L 183.315562 174.459652 
L 187.651516 186.744654 
L 190.361487 193.750306 
L 192.529464 198.700849 
L 194.155447 201.929954 
L 195.78143 204.681095 
L 197.407412 206.906285 
L 198.491401 208.077983 
L 199.575389 208.989381 
L 200.659378 209.633407 
L 201.743366 210.005064 
L 202.827355 210.10147 
L 203.911343 209.921875 
L 204.995332 209.467674 
L 206.07932 208.74239 
L 207.163309 207.751651 
L 208.247297 206.503143 
L 209.87328 204.168783 
L 211.499262 201.317408 
L 213.125245 197.998753 
L 215.293222 192.948101 
L 217.461199 187.326902 
L 220.713164 178.209714 
L 226.675101 161.30088 
L 229.385072 154.404212 
L 231.553049 149.572556 
L 233.179032 146.448756 
L 234.805014 143.814736 
L 236.430997 141.716442 
L 237.514986 140.633683 
L 238.598974 139.813897 
L 239.682963 139.263445 
L 240.766951 138.986597 
L 241.850939 138.985501 
L 242.934928 139.260166 
L 244.018916 139.808461 
L 245.102905 140.626132 
L 246.186893 141.706834 
L 247.270882 143.042183 
L 248.896864 145.499486 
L 250.522847 148.463127 
L 252.14883 151.881413 
L 254.316807 157.042282 
L 257.026778 164.2346 
L 261.362732 176.622876 
L 265.156691 187.303686 
L 267.866663 194.250004 
L 270.03464 199.135514 
L 271.660622 202.306883 
L 273.286605 204.993713 
L 274.912588 207.149139 
L 275.996576 208.271896 
L 277.080565 209.132848 
L 278.164553 209.725315 
L 279.248542 210.044701 
L 280.33253 210.088527 
L 281.416518 209.856454 
L 282.500507 209.350281 
L 283.584495 208.573937 
L 284.668484 207.533444 
L 285.752472 206.236876 
L 287.378455 203.834411 
L 289.004438 200.920763 
L 290.63042 197.546754 
L 292.798397 192.434707 
L 295.508368 185.284948 
L 299.302328 174.484531 
L 303.638282 162.206398 
L 306.348253 155.211721 
L 308.51623 150.273266 
L 310.142213 147.054918 
L 311.768195 144.315776 
L 313.394178 142.10362 
L 314.478167 140.941074 
L 315.562155 140.039116 
L 316.646144 139.404743 
L 317.730132 139.042879 
L 318.814121 138.956331 
L 319.898109 139.14577 
L 320.982097 139.609726 
L 322.066086 140.344599 
L 323.150074 141.344689 
L 324.234063 142.602235 
L 325.860046 144.949415 
L 327.486028 147.812528 
L 329.112011 151.141634 
L 331.279988 156.203907 
L 333.447965 161.833756 
L 336.69993 170.957793 
L 342.661867 187.85912 
L 345.371838 194.744147 
L 347.539815 199.563248 
L 349.165798 202.675987 
L 350.79178 205.29775 
L 352.417763 207.382804 
L 353.501751 208.456304 
L 354.58574 209.266568 
L 355.669728 209.80731 
L 356.753717 210.074334 
L 357.837705 210.065568 
L 358.921694 209.781081 
L 360.005682 209.22308 
L 361.089671 208.395894 
L 362.173659 207.305941 
L 363.257648 205.961677 
L 364.88363 203.491784 
L 366.509613 200.516684 
L 368.135596 197.088271 
L 370.303573 191.91627 
L 373.013544 184.714321 
L 377.349498 172.321512 
L 381.143457 161.648028 
L 383.853428 154.713054 
L 386.021405 149.839891 
L 387.647388 146.679448 
L 389.273371 144.004761 
L 390.899353 141.862484 
L 391.983342 140.748939 
L 393.06733 139.897473 
L 394.151319 139.314692 
L 395.235307 139.005118 
L 396.319296 138.971152 
L 397.403284 139.213058 
L 398.487273 139.72896 
L 398.487273 139.72896 
" clip-path="url(#p9a849a893f)" style="fill: none; stroke: #1f77b4; stroke-width: 1.5; stroke-linecap: square"/>
   </g>
   <g id="LineCollection_2">
    <path d="M 73.832727 174.528069 
L 73.832727 156.739798 
" clip-path="url(#p9a849a893f)" style="fill: none; stroke: #1f77b4; stroke-width: 1.5"/>
    <path d="M 138.763636 174.528069 
L 138.763636 191.010539 
" clip-path="url(#p9a849a893f)" style="fill: none; stroke: #1f77b4; stroke-width: 1.5"/>
    <path d="M 203.694545 174.528069 
L 203.694545 209.979838 
" clip-path="url(#p9a849a893f)" style="fill: none; stroke: #1f77b4; stroke-width: 1.5"/>
    <path d="M 268.625455 174.528069 
L 268.625455 196.037614 
" clip-path="url(#p9a849a893f)" style="fill: none; stroke: #1f77b4; stroke-width: 1.5"/>
    <path d="M 333.556364 174.528069 
L 333.556364 162.127081 
" clip-path="url(#p9a849a893f)" style="fill: none; stroke: #1f77b4; stroke-width: 1.5"/>
    <path d="M 398.487273 174.528069 
L 398.487273 139.72896 
" clip-path="url(#p9a849a893f)" style="fill: none; stroke: #1f77b4; stroke-width: 1.5"/>
   </g>
   <g id="line2d_25">
    <g clip-path="url(#p9a849a893f)">
     <use xlink:href="#m2e2fae2523" x="73.832727" y="156.739798" style="fill: #1f77b4; stroke: #1f77b4"/>
     <use xlink:href="#m2e2fae2523" x="138.763636" y="191.010539" style="fill: #1f77b4; stroke: #1f77b4"/>
     <use xlink:href="#m2e2fae2523" x="203.694545" y="209.979838" style="fill: #1f77b4; stroke: #1f77b4"/>
     <use xlink:href="#m2e2fae2523" x="268.625455" y="196.037614" style="fill: #1f77b4; stroke: #1f77b4"/>
     <use xlink:href="#m2e2fae2523" x="333.556364" y="162.127081" style="fill: #1f77b4; stroke: #1f77b4"/>
     <use xlink:href="#m2e2fae2523" x="398.487273" y="139.72896" style="fill: #1f77b4; stroke: #1f77b4"/>
    </g>
   </g>
   <g id="line2d_26">
    <path d="M 73.832727 174.528069 
L 398.487273 174.528069 
" clip-path="url(#p9a849a893f)" style="fill: none; stroke: #d62728; stroke-width: 1.5; stroke-linecap: square"/>
   </g>
   <g id="patch_8">
    <path d="M 57.6 213.662118 
L 57.6 135.393882 
" style="fill: none; stroke: #000000; stroke-width: 0.8; stroke-linejoin: miter; stroke-linecap: square"/>
   </g>
   <g id="patch_9">
    <path d="M 414.72 213.662118 
L 414.72 135.393882 
" style="fill: none; stroke: #000000; stroke-width: 0.8; stroke-linejoin: miter; stroke-linecap: square"/>
   </g>
   <g id="patch_10">
    <path d="M 57.6 213.662118 
L 414.72 213.662118 
" style="fill: none; stroke: #000000; stroke-width: 0.8; stroke-linejoin: miter; stroke-linecap: square"/>
   </g>
   <g id="patch_11">
    <path d="M 57.6 135.393882 
L 414.72 135.393882 
" style="fill: none; stroke: #000000; stroke-width: 0.8; stroke-linejoin: miter; stroke-linecap: square"/>
   </g>
  </g>
  <g id="axes_3">
   <g id="patch_12">
    <path d="M 57.6 307.584 
L 414.72 307.584 
L 414.72 229.315765 
L 57.6 229.315765 
z
" style="fill: #ffffff"/>
   </g>
   <g id="matplotlib.axis_5">
    <g id="xtick_15">
     <g id="line2d_27">
      <g>
       <use xlink:href="#mc47dfc6709" x="73.832727" y="307.584" style="stroke: #000000; stroke-width: 0.8"/>
      </g>
     </g>
     <g id="text_21">
      <!-- 0.000 -->
      <g transform="translate(59.518665 322.182437) scale(0.1 -0.1)">
       <use xlink:href="#DejaVuSans-30"/>
       <use xlink:href="#DejaVuSans-2e" x="63.623047"/>
       <use xlink:href="#DejaVuSans-30" x="95.410156"/>
       <use xlink:href="#DejaVuSans-30" x="159.033203"/>
       <use xlink:href="#DejaVuSans-30" x="222.65625"/>
      </g>
     </g>
    </g>
    <g id="xtick_16">
     <g id="line2d_28">
      <g>
       <use xlink:href="#mc47dfc6709" x="127.941818" y="307.584" style="stroke: #000000; stroke-width: 0.8"/>
      </g>
     </g>
     <g id="text_22">
      <!-- 0.005 -->
      <g transform="translate(113.627756 322.182437) scale(0.1 -0.1)">
       <use xlink:href="#DejaVuSans-30"/>
       <use xlink:href="#DejaVuSans-2e" x="63.623047"/>
       <use xlink:href="#DejaVuSans-30" x="95.410156"/>
       <use xlink:href="#DejaVuSans-30" x="159.033203"/>
       <use xlink:href="#DejaVuSans-35" x="222.65625"/>
      </g>
     </g>
    </g>
    <g id="xtick_17">
     <g id="line2d_29">
      <g>
       <use xlink:href="#mc47dfc6709" x="182.050909" y="307.584" style="stroke: #000000; stroke-width: 0.8"/>
      </g>
     </g>
     <g id="text_23">
      <!-- 0.010 -->
      <g transform="translate(167.736847 322.182437) scale(0.1 -0.1)">
       <use xlink:href="#DejaVuSans-30"/>
       <use xlink:href="#DejaVuSans-2e" x="63.623047"/>
       <use xlink:href="#DejaVuSans-30" x="95.410156"/>
       <use xlink:href="#DejaVuSans-31" x="159.033203"/>
       <use xlink:href="#DejaVuSans-30" x="222.65625"/>
      </g>
     </g>
    </g>
    <g id="xtick_18">
     <g id="line2d_30">
      <g>
       <use xlink:href="#mc47dfc6709" x="236.16" y="307.584" style="stroke: #000000; stroke-width: 0.8"/>
      </g>
     </g>
     <g id="text_24">
      <!-- 0.015 -->
      <g transform="translate(221.845937 322.182437) scale(0.1 -0.1)">
       <use xlink:href="#DejaVuSans-30"/>
       <use xlink:href="#DejaVuSans-2e" x="63.623047"/>
       <use xlink:href="#DejaVuSans-30" x="95.410156"/>
       <use xlink:href="#DejaVuSans-31" x="159.033203"/>
       <use xlink:href="#DejaVuSans-35" x="222.65625"/>
      </g>
     </g>
    </g>
    <g id="xtick_19">
     <g id="line2d_31">
      <g>
       <use xlink:href="#mc47dfc6709" x="290.269091" y="307.584" style="stroke: #000000; stroke-width: 0.8"/>
      </g>
     </g>
     <g id="text_25">
      <!-- 0.020 -->
      <g transform="translate(275.955028 322.182437) scale(0.1 -0.1)">
       <use xlink:href="#DejaVuSans-30"/>
       <use xlink:href="#DejaVuSans-2e" x="63.623047"/>
       <use xlink:href="#DejaVuSans-30" x="95.410156"/>
       <use xlink:href="#DejaVuSans-32" x="159.033203"/>
       <use xlink:href="#DejaVuSans-30" x="222.65625"/>
      </g>
     </g>
    </g>
    <g id="xtick_20">
     <g id="line2d_32">
      <g>
       <use xlink:href="#mc47dfc6709" x="344.378182" y="307.584" style="stroke: #000000; stroke-width: 0.8"/>
      </g>
     </g>
     <g id="text_26">
      <!-- 0.025 -->
      <g transform="translate(330.064119 322.182437) scale(0.1 -0.1)">
       <use xlink:href="#DejaVuSans-30"/>
       <use xlink:href="#DejaVuSans-2e" x="63.623047"/>
       <use xlink:href="#DejaVuSans-30" x="95.410156"/>
       <use xlink:href="#DejaVuSans-32" x="159.033203"/>
       <use xlink:href="#DejaVuSans-35" x="222.65625"/>
      </g>
     </g>
    </g>
    <g id="xtick_21">
     <g id="line2d_33">
      <g>
       <use xlink:href="#mc47dfc6709" x="398.487273" y="307.584" style="stroke: #000000; stroke-width: 0.8"/>
      </g>
     </g>
     <g id="text_27">
      <!-- 0.030 -->
      <g transform="translate(384.17321 322.182437) scale(0.1 -0.1)">
       <use xlink:href="#DejaVuSans-30"/>
       <use xlink:href="#DejaVuSans-2e" x="63.623047"/>
       <use xlink:href="#DejaVuSans-30" x="95.410156"/>
       <use xlink:href="#DejaVuSans-33" x="159.033203"/>
       <use xlink:href="#DejaVuSans-30" x="222.65625"/>
      </g>
     </g>
    </g>
   </g>
   <g id="matplotlib.axis_6">
    <g id="ytick_7">
     <g id="line2d_34">
      <g>
       <use xlink:href="#m4824cf8351" x="57.6" y="304.026388" style="stroke: #000000; stroke-width: 0.8"/>
      </g>
     </g>
     <g id="text_28">
      <!-- −1 -->
      <g transform="translate(35.857813 307.825606) scale(0.1 -0.1)">
       <use xlink:href="#DejaVuSans-2212"/>
       <use xlink:href="#DejaVuSans-31" x="83.789062"/>
      </g>
     </g>
    </g>
    <g id="ytick_8">
     <g id="line2d_35">
      <g>
       <use xlink:href="#m4824cf8351" x="57.6" y="268.449586" style="stroke: #000000; stroke-width: 0.8"/>
      </g>
     </g>
     <g id="text_29">
      <!-- 0 -->
      <g transform="translate(44.2375 272.248804) scale(0.1 -0.1)">
       <use xlink:href="#DejaVuSans-30"/>
      </g>
     </g>
    </g>
    <g id="ytick_9">
     <g id="line2d_36">
      <g>
       <use xlink:href="#m4824cf8351" x="57.6" y="232.872783" style="stroke: #000000; stroke-width: 0.8"/>
      </g>
     </g>
     <g id="text_30">
      <!-- 1 -->
      <g transform="translate(44.2375 236.672002) scale(0.1 -0.1)">
       <use xlink:href="#DejaVuSans-31"/>
      </g>
     </g>
    </g>
   </g>
   <g id="line2d_37">
    <path d="M 73.832727 250.661184 
L 78.168681 255.499906 
L 83.046629 261.29019 
L 101.474433 283.581692 
L 105.268393 287.692894 
L 109.062352 291.46844 
L 112.314318 294.387364 
L 115.566283 296.973765 
L 118.276254 298.851029 
L 120.986226 300.457547 
L 123.696197 301.77901 
L 126.406168 302.803652 
L 128.574145 303.40343 
L 130.742122 303.80393 
L 132.910099 304.002869 
L 135.078076 303.999112 
L 137.246053 303.792681 
L 139.414029 303.384752 
L 141.582006 302.777652 
L 143.749983 301.974841 
L 146.459954 300.703187 
L 149.169926 299.144292 
L 151.879897 297.312039 
L 154.589868 295.222744 
L 157.841833 292.402648 
L 161.093799 289.275472 
L 164.887758 285.292666 
L 169.223712 280.385442 
L 174.643655 273.882908 
L 189.819493 255.407268 
L 194.155447 250.575072 
L 197.949407 246.677255 
L 201.201372 243.63613 
L 204.453337 240.913114 
L 207.163309 238.912253 
L 209.87328 237.174443 
L 212.583251 235.71516 
L 215.293222 234.5474 
L 217.461199 233.830168 
L 219.629176 233.310306 
L 221.797153 232.990781 
L 223.96513 232.873412 
L 226.133107 232.958869 
L 228.301084 233.246665 
L 230.469061 233.73516 
L 232.637037 234.421567 
L 234.805014 235.301974 
L 237.514986 236.667546 
L 240.224957 238.316159 
L 242.934928 240.233132 
L 245.644899 242.401392 
L 248.896864 245.307668 
L 252.14883 248.510625 
L 255.942789 252.567409 
L 260.278743 257.538596 
L 266.24068 264.75554 
L 278.706547 279.986182 
L 283.042501 284.918947 
L 286.836461 288.931106 
L 290.088426 292.088246 
L 293.340392 294.942337 
L 296.050363 297.062726 
L 298.760334 298.928294 
L 301.470305 300.522428 
L 304.180276 301.83093 
L 306.348253 302.664158 
L 308.51623 303.302323 
L 310.684207 303.741786 
L 312.852184 303.980042 
L 315.020161 304.015732 
L 317.188138 303.848654 
L 319.356115 303.479759 
L 321.524092 302.911151 
L 323.692069 302.146071 
L 326.40204 300.920183 
L 329.112011 299.405121 
L 331.821982 297.614378 
L 334.531953 295.563902 
L 337.783919 292.786348 
L 341.035884 289.696796 
L 344.829844 285.751028 
L 349.165798 280.876311 
L 354.58574 274.398628 
L 370.845567 254.646967 
L 375.181521 249.870039 
L 378.97548 246.033804 
L 382.227446 243.054443 
L 385.479411 240.400648 
L 388.189382 238.46253 
L 390.899353 236.791468 
L 393.609325 235.402344 
L 396.319296 234.307529 
L 398.487273 233.650222 
L 398.487273 233.650222 
" clip-path="url(#p6d33eb2eaf)" style="fill: none; stroke: #1f77b4; stroke-width: 1.5; stroke-linecap: square"/>
   </g>
   <g id="LineCollection_3">
    <path d="M 73.832727 268.449586 
L 73.832727 250.661184 
" clip-path="url(#p6d33eb2eaf)" style="fill: none; stroke: #1f77b4; stroke-width: 1.5"/>
    <path d="M 138.763636 268.449586 
L 138.763636 303.528172 
" clip-path="url(#p6d33eb2eaf)" style="fill: none; stroke: #1f77b4; stroke-width: 1.5"/>
    <path d="M 203.694545 268.449586 
L 203.694545 241.518122 
" clip-path="url(#p6d33eb2eaf)" style="fill: none; stroke: #1f77b4; stroke-width: 1.5"/>
    <path d="M 268.625455 268.449586 
L 268.625455 267.704521 
" clip-path="url(#p6d33eb2eaf)" style="fill: none; stroke: #1f77b4; stroke-width: 1.5"/>
    <path d="M 333.556364 268.449586 
L 333.556364 296.330893 
" clip-path="url(#p6d33eb2eaf)" style="fill: none; stroke: #1f77b4; stroke-width: 1.5"/>
    <path d="M 398.487273 268.449586 
L 398.487273 233.650222 
" clip-path="url(#p6d33eb2eaf)" style="fill: none; stroke: #1f77b4; stroke-width: 1.5"/>
   </g>
   <g id="line2d_38">
    <g clip-path="url(#p6d33eb2eaf)">
     <use xlink:href="#m2e2fae2523" x="73.832727" y="250.661184" style="fill: #1f77b4; stroke: #1f77b4"/>
     <use xlink:href="#m2e2fae2523" x="138.763636" y="303.528172" style="fill: #1f77b4; stroke: #1f77b4"/>
     <use xlink:href="#m2e2fae2523" x="203.694545" y="241.518122" style="fill: #1f77b4; stroke: #1f77b4"/>
     <use xlink:href="#m2e2fae2523" x="268.625455" y="267.704521" style="fill: #1f77b4; stroke: #1f77b4"/>
     <use xlink:href="#m2e2fae2523" x="333.556364" y="296.330893" style="fill: #1f77b4; stroke: #1f77b4"/>
     <use xlink:href="#m2e2fae2523" x="398.487273" y="233.650222" style="fill: #1f77b4; stroke: #1f77b4"/>
    </g>
   </g>
   <g id="line2d_39">
    <path d="M 73.832727 268.449586 
L 398.487273 268.449586 
" clip-path="url(#p6d33eb2eaf)" style="fill: none; stroke: #d62728; stroke-width: 1.5; stroke-linecap: square"/>
   </g>
   <g id="patch_13">
    <path d="M 57.6 307.584 
L 57.6 229.315765 
" style="fill: none; stroke: #000000; stroke-width: 0.8; stroke-linejoin: miter; stroke-linecap: square"/>
   </g>
   <g id="patch_14">
    <path d="M 414.72 307.584 
L 414.72 229.315765 
" style="fill: none; stroke: #000000; stroke-width: 0.8; stroke-linejoin: miter; stroke-linecap: square"/>
   </g>
   <g id="patch_15">
    <path d="M 57.6 307.584 
L 414.72 307.584 
" style="fill: none; stroke: #000000; stroke-width: 0.8; stroke-linejoin: miter; stroke-linecap: square"/>
   </g>
   <g id="patch_16">
    <path d="M 57.6 229.315765 
L 414.72 229.315765 
" style="fill: none; stroke: #000000; stroke-width: 0.8; stroke-linejoin: miter; stroke-linecap: square"/>
   </g>
  </g>
 </g>
 <defs>
  <clipPath id="pcde15e5dca">
   <rect x="57.6" y="41.472" width="357.12" height="78.268235"/>
  </clipPath>
  <clipPath id="p9a849a893f">
   <rect x="57.6" y="135.393882" width="357.12" height="78.268235"/>
  </clipPath>
  <clipPath id="p6d33eb2eaf">
   <rect x="57.6" y="229.315765" width="357.12" height="78.268235"/>
  </clipPath>
 </defs>
</svg>
